M48
;DRILL file {KiCad 5.0.0-fee4fd1~65~ubuntu16.04.1} date Fri Jul 27 11:27:15 2018
;FORMAT={-:-/ absolute / inch / decimal}
FMAT,2
INCH,TZ
T1C0.0118
T2C0.0276
T3C0.0315
T4C0.0433
T5C0.0551
%
G90
G05
M72
T1
X-0.078Y1.198
X-0.058Y1.268
X-0.0455Y1.715
X-0.0455Y1.683
X-0.0455Y1.394
X0.016Y0.5615
X0.0165Y0.627
X0.035Y0.84
X0.1222Y1.097
X0.155Y1.1935
X0.1835Y1.0867
X0.191Y1.549
X0.191Y1.511
X0.211Y1.529
X0.243Y2.452
X0.243Y0.823
X0.2681Y1.417
X0.271Y1.729
X0.271Y1.669
X0.281Y2.114
X0.284Y0.824
X0.289Y1.081
X0.319Y1.447
X0.329Y1.183
X0.334Y1.1125
X0.341Y0.353
X0.351Y1.467
X0.3722Y1.981
X0.3725Y1.2932
X0.393Y2.015
X0.3947Y1.539
X0.399Y2.161
X0.4095Y0.43
X0.41Y0.5815
X0.415Y1.257
X0.417Y1.489
X0.421Y1.155
X0.423Y1.061
X0.431Y2.159
X0.433Y1.285
X0.436Y2.452
X0.453Y2.191
X0.4777Y1.2925
X0.491Y2.211
X0.491Y0.909
X0.491Y0.869
X0.491Y0.829
X0.509Y2.311
X0.509Y1.667
X0.515Y1.915
X0.515Y1.879
X0.531Y0.909
X0.535Y1.14
X0.5465Y0.2865
X0.568Y1.428
X0.571Y0.909
X0.575Y1.175
X0.583Y1.145
X0.5886Y1.408
X0.591Y1.809
X0.593Y1.625
X0.593Y1.595
X0.637Y1.121
X0.675Y0.903
X0.684Y1.881
X0.684Y1.849
X0.684Y1.4965
X0.684Y1.3095
X0.687Y0.359
X0.687Y0.329
X0.701Y2.472
X0.711Y0.315
X0.725Y0.059
X0.733Y1.117
X0.761Y1.119
X0.8035Y1.787
X0.819Y0.32
X0.839Y1.471
X0.843Y0.639
X0.8435Y0.86
X0.844Y0.683
X0.893Y0.666
X0.905Y0.86
X0.955Y0.655
X0.97Y2.03
X0.97Y1.97
X1.004Y0.069
X1.03Y2.25
X1.05Y2.27
X1.106Y0.256
X1.11Y2.27
X1.13Y2.25
X1.134Y0.256
T2
X0.4935Y-0.012
X0.6845Y-0.012
T3
X0.4788Y-0.0641
X0.6992Y-0.0641
T4
X0.4463Y-0.1163G85X0.4463Y-0.1163
G05
X0.7317Y-0.1163G85X0.7317Y-0.1163
G05
T5
X0.589Y-0.1468G85X0.589Y-0.1468
G05
T0
M30
