G04 #@! TF.GenerationSoftware,KiCad,Pcbnew,5.0.0-fee4fd1~66~ubuntu16.04.1*
G04 #@! TF.CreationDate,2018-09-07T15:41:25-07:00*
G04 #@! TF.ProjectId,fk-sonar,666B2D736F6E61722E6B696361645F70,0.1*
G04 #@! TF.SameCoordinates,PX791ddc0PY791ddc0*
G04 #@! TF.FileFunction,Legend,Bot*
G04 #@! TF.FilePolarity,Positive*
%FSLAX46Y46*%
G04 Gerber Fmt 4.6, Leading zero omitted, Abs format (unit mm)*
G04 Created by KiCad (PCBNEW 5.0.0-fee4fd1~66~ubuntu16.04.1) date Fri Sep  7 15:41:25 2018*
%MOMM*%
%LPD*%
G01*
G04 APERTURE LIST*
%ADD10C,0.200000*%
%ADD11C,0.150000*%
%ADD12C,0.300000*%
%ADD13C,0.120000*%
%ADD14C,0.152400*%
G04 APERTURE END LIST*
D10*
X6601104Y21864581D02*
X6601104Y20864581D01*
X6839200Y20864581D01*
X6982057Y20912200D01*
X7077295Y21007439D01*
X7124914Y21102677D01*
X7172533Y21293153D01*
X7172533Y21436010D01*
X7124914Y21626486D01*
X7077295Y21721724D01*
X6982057Y21816962D01*
X6839200Y21864581D01*
X6601104Y21864581D01*
X7601104Y21340772D02*
X7934438Y21340772D01*
X8077295Y21864581D02*
X7601104Y21864581D01*
X7601104Y20864581D01*
X8077295Y20864581D01*
X8839200Y21340772D02*
X8982057Y21388391D01*
X9029676Y21436010D01*
X9077295Y21531248D01*
X9077295Y21674105D01*
X9029676Y21769343D01*
X8982057Y21816962D01*
X8886819Y21864581D01*
X8505866Y21864581D01*
X8505866Y20864581D01*
X8839200Y20864581D01*
X8934438Y20912200D01*
X8982057Y20959820D01*
X9029676Y21055058D01*
X9029676Y21150296D01*
X8982057Y21245534D01*
X8934438Y21293153D01*
X8839200Y21340772D01*
X8505866Y21340772D01*
X9505866Y20864581D02*
X9505866Y21674105D01*
X9553485Y21769343D01*
X9601104Y21816962D01*
X9696342Y21864581D01*
X9886819Y21864581D01*
X9982057Y21816962D01*
X10029676Y21769343D01*
X10077295Y21674105D01*
X10077295Y20864581D01*
X11077295Y20912200D02*
X10982057Y20864581D01*
X10839200Y20864581D01*
X10696342Y20912200D01*
X10601104Y21007439D01*
X10553485Y21102677D01*
X10505866Y21293153D01*
X10505866Y21436010D01*
X10553485Y21626486D01*
X10601104Y21721724D01*
X10696342Y21816962D01*
X10839200Y21864581D01*
X10934438Y21864581D01*
X11077295Y21816962D01*
X11124914Y21769343D01*
X11124914Y21436010D01*
X10934438Y21436010D01*
D11*
G04 #@! TO.C,J7*
X4193400Y980100D02*
X4193400Y2580100D01*
X4193400Y2580100D02*
X3393400Y2580100D01*
X3393400Y2580100D02*
X3393400Y-1269900D01*
X9643400Y-5019900D02*
X5043400Y-5019900D01*
X10493400Y980100D02*
X10493400Y2580100D01*
X10493400Y2580100D02*
X11293400Y2580100D01*
X11293400Y2580100D02*
X11293400Y-1269900D01*
X4193400Y980100D02*
X5443400Y980100D01*
X10493400Y980100D02*
X9243400Y980100D01*
D12*
G04 #@! TO.C,U2*
X2418111Y40293100D02*
G75*
G03X2418111Y40293100I-70711J0D01*
G01*
D11*
X2947400Y40393100D02*
X18947400Y40393100D01*
X2947400Y56393100D02*
X18947400Y56393100D01*
D13*
G04 #@! TO.C,J8*
X12296000Y22552000D02*
X12296000Y23102000D01*
X4976000Y22552000D02*
X12296000Y22552000D01*
X4976000Y23102000D02*
X4976000Y22552000D01*
X12296000Y28222000D02*
X10446000Y28222000D01*
X12296000Y26422000D02*
X12296000Y28222000D01*
X6826000Y28222000D02*
X6826000Y28962000D01*
X4976000Y28222000D02*
X6826000Y28222000D01*
X4976000Y26422000D02*
X4976000Y28222000D01*
D14*
G04 #@! TO.C,J10*
X-914400Y48717200D02*
X-3708400Y48717200D01*
X-660400Y46939200D02*
G75*
G02X-914400Y46685200I-254000J0D01*
G01*
X-3708400Y46685200D02*
G75*
G02X-3962400Y46939200I0J254000D01*
G01*
X-3708400Y48717200D02*
G75*
G03X-3962400Y48463200I0J-254000D01*
G01*
X-660400Y48463200D02*
G75*
G03X-914400Y48717200I-254000J0D01*
G01*
X-660400Y48463200D02*
X-660400Y46939200D01*
X-3962400Y48463200D02*
X-3962400Y46939200D01*
X-3708400Y46685200D02*
X-914400Y46685200D01*
G04 #@! TD*
M02*
