M48
;DRILL file {KiCad 5.0.0-fee4fd1~66~ubuntu16.04.1} date Fri Sep  7 15:41:28 2018
;FORMAT={-:-/ absolute / inch / decimal}
FMAT,2
INCH,TZ
T1C0.0118
T2C0.0276
T3C0.0315
T4C0.0433
T5C0.0551
%
G90
G05
M72
T1
X-0.145Y1.555
X-0.145Y0.45
X-0.132Y1.393
X-0.121Y2.15
X-0.121Y1.7
X-0.121Y0.936
X-0.121Y0.835
X-0.121Y0.263
X-0.084Y1.588
X-0.076Y1.069
X-0.062Y1.587
X-0.052Y1.1386
X-0.04Y1.587
X-0.0046Y1.9604
X0.1341Y0.5615
X0.1346Y0.627
X0.19Y1.145
X0.193Y1.827
X0.209Y1.898
X0.222Y2.12
X0.223Y1.921
X0.309Y1.212
X0.319Y1.447
X0.3605Y1.365
X0.39Y1.355
X0.408Y0.88
X0.422Y1.4815
X0.424Y1.246
X0.444Y1.263
X0.4591Y0.353
X0.465Y1.338
X0.4695Y2.4195
X0.47Y2.32
X0.5062Y0.8798
X0.525Y2.505
X0.5276Y0.43
X0.5281Y0.5815
X0.559Y0.962
X0.568Y1.428
X0.5886Y1.408
X0.6038Y1.1157
X0.6087Y1.899
X0.6102Y1.6245
X0.64Y1.5327
X0.654Y1.43
X0.6646Y0.2865
X0.684Y1.3095
X0.733Y1.117
X0.761Y1.119
X0.764Y0.9005
X0.8025Y1.9795
X0.805Y0.369
X0.8151Y0.268
X0.839Y1.471
X0.841Y0.047
X0.845Y0.263
X0.934Y0.712
X0.9371Y0.32
X0.9616Y0.86
X0.995Y1.56
X0.995Y1.495
X1.02Y2.325
X1.0231Y0.86
X1.059Y0.645
X1.06Y2.325
X1.1Y2.325
X1.1265Y1.889
X1.135Y2.325
T2
X0.6116Y-0.012
X0.8026Y-0.012
T3
X0.5969Y-0.0641
X0.8173Y-0.0641
T4
X0.5644Y-0.1163G85X0.5644Y-0.1163
G05
X0.8498Y-0.1163G85X0.8498Y-0.1163
G05
T5
X0.7071Y-0.1468G85X0.7071Y-0.1468
G05
T0
M30
