M48
;DRILL file {KiCad 4.0.7-e2-6376~58~ubuntu16.04.1} date Fri Dec  8 11:46:59 2017
;FORMAT={-:-/ absolute / inch / decimal}
FMAT,2
INCH,TZ
T1C0.012
T2C0.028
T3C0.039
%
G90
G05
M72
T1
X5.0235Y-5.034
X5.0235Y-5.066
X5.0855Y-6.122
X5.1045Y-4.3205
X5.224Y-5.5555
X5.2525Y-5.6623
X5.26Y-5.2
X5.26Y-5.238
X5.276Y-4.3205
X5.28Y-5.22
X5.2965Y-5.447
X5.2997Y-5.5546
X5.3371Y-5.332
X5.34Y-5.02
X5.34Y-5.08
X5.3575Y-5.6623
X5.3706Y-5.298
X5.3782Y-5.6107
X5.4Y-5.2992
X5.403Y-5.6365
X5.4392Y-5.4609
X5.4412Y-4.768
X5.4425Y-4.3205
X5.46Y-5.484
X5.462Y-4.734
X5.462Y-5.264
X5.4637Y-5.21
X5.468Y-4.588
X5.4785Y-6.319
X5.479Y-6.1675
X5.4808Y-5.464
X5.5Y-4.59
X5.524Y-4.578
X5.524Y-5.488
X5.5448Y-5.08
X5.56Y-4.538
X5.56Y-5.84
X5.56Y-5.88
X5.56Y-5.92
X5.584Y-4.834
X5.584Y-4.87
X5.6Y-5.84
X5.6155Y-6.4625
X5.622Y-4.3205
X5.64Y-5.84
X5.66Y-4.94
X5.662Y-5.124
X5.662Y-5.154
X5.7Y-4.438
X5.706Y-5.628
X5.744Y-5.846
X5.753Y-4.868
X5.753Y-4.9
X5.753Y-5.2525
X5.753Y-5.4395
X5.756Y-6.42
X5.78Y-6.434
X5.794Y-6.69
X5.802Y-5.632
X5.83Y-5.63
X5.8725Y-4.962
X5.908Y-5.278
X5.912Y-6.11
X5.9125Y-5.889
X5.913Y-6.066
X5.955Y-6.076
X5.974Y-5.889
T2
X5.5625Y-6.761
X5.7535Y-6.761
T3
X5.799Y-4.29
X5.899Y-4.29
X5.999Y-4.29
X6.027Y-6.516
X6.027Y-6.616
X6.027Y-6.716
X6.027Y-6.816
T2
X5.5153Y-6.8574G85X5.5153Y-6.8732
G05
X5.8007Y-6.8574G85X5.8007Y-6.8732
G05
T0
M30
