G04 #@! TF.FileFunction,Soldermask,Top*
%FSLAX46Y46*%
G04 Gerber Fmt 4.6, Leading zero omitted, Abs format (unit mm)*
G04 Created by KiCad (PCBNEW 4.0.7-e2-6376~58~ubuntu16.04.1) date Tue Jul 10 13:57:42 2018*
%MOMM*%
%LPD*%
G01*
G04 APERTURE LIST*
%ADD10C,0.100000*%
%ADD11R,1.903200X1.903200*%
%ADD12O,1.903200X1.903200*%
%ADD13R,1.203200X1.303200*%
%ADD14R,1.303200X1.203200*%
%ADD15R,0.700000X0.600000*%
%ADD16R,1.300000X1.800000*%
%ADD17R,0.450000X0.600000*%
%ADD18R,0.903200X1.203200*%
%ADD19R,0.903200X0.803200*%
%ADD20R,1.203200X1.703200*%
%ADD21R,4.403200X1.473200*%
%ADD22R,1.203200X3.703200*%
%ADD23R,1.703200X3.603200*%
%ADD24R,1.253200X0.853200*%
%ADD25R,0.903200X1.653200*%
%ADD26R,0.890000X0.890000*%
%ADD27R,0.420000X0.990000*%
%ADD28R,0.990000X0.420000*%
%ADD29R,0.990000X0.440000*%
%ADD30R,2.203200X0.803200*%
%ADD31R,0.503200X0.953200*%
%ADD32R,0.928200X1.078200*%
%ADD33R,1.403200X1.003200*%
%ADD34R,2.403200X1.003200*%
%ADD35R,2.703200X2.203200*%
%ADD36R,0.950000X2.700000*%
%ADD37R,0.603200X1.553200*%
%ADD38C,1.403200*%
%ADD39C,1.903200*%
%ADD40R,1.903200X0.803200*%
%ADD41R,2.903200X1.203200*%
%ADD42C,2.403200*%
G04 APERTURE END LIST*
D10*
D11*
X24307800Y-1676400D03*
D12*
X24307800Y863600D03*
X24307800Y3403600D03*
X24307800Y5943600D03*
D13*
X3708400Y41479100D03*
X3708400Y43179100D03*
X5461900Y41479100D03*
X5461900Y43179100D03*
D10*
G36*
X11710796Y48134287D02*
X12561587Y47283496D01*
X11640086Y46361995D01*
X10789295Y47212786D01*
X11710796Y48134287D01*
X11710796Y48134287D01*
G37*
G36*
X10508714Y46932205D02*
X11359505Y46081414D01*
X10438004Y45159913D01*
X9587213Y46010704D01*
X10508714Y46932205D01*
X10508714Y46932205D01*
G37*
G36*
X13459255Y46453746D02*
X14310046Y45602955D01*
X13388545Y44681454D01*
X12537754Y45532245D01*
X13459255Y46453746D01*
X13459255Y46453746D01*
G37*
G36*
X12257173Y45251664D02*
X13107964Y44400873D01*
X12186463Y43479372D01*
X11335672Y44330163D01*
X12257173Y45251664D01*
X12257173Y45251664D01*
G37*
D13*
X16090900Y40780600D03*
X16090900Y42480600D03*
X17741900Y40780600D03*
X17741900Y42480600D03*
X1930400Y41479100D03*
X1930400Y43179100D03*
X5156200Y31330000D03*
X5156200Y29630000D03*
X18884900Y33273100D03*
X18884900Y31573100D03*
D14*
X13892900Y6324600D03*
X12192900Y6324600D03*
D13*
X6184900Y17588600D03*
X6184900Y15888600D03*
X16239991Y47402899D03*
X16239991Y49102899D03*
X14525491Y47402899D03*
X14525491Y49102899D03*
X20789900Y-4494900D03*
X20789900Y-2794900D03*
D14*
X6541400Y7150100D03*
X8241400Y7150100D03*
D13*
X9486900Y15888600D03*
X9486900Y17588600D03*
X20006061Y11144719D03*
X20006061Y12844719D03*
X25530561Y12908219D03*
X25530561Y11208219D03*
D14*
X10361400Y19913600D03*
X8661400Y19913600D03*
D13*
X685800Y24294200D03*
X685800Y22594200D03*
D14*
X15963000Y21755100D03*
X14263000Y21755100D03*
D13*
X-281815Y61684063D03*
X-281815Y63384063D03*
X4036185Y61684063D03*
X4036185Y63384063D03*
X12862685Y61684063D03*
X12862685Y63384063D03*
X8290685Y61684063D03*
X8290685Y63384063D03*
D15*
X1272200Y15763000D03*
X1272200Y14463000D03*
D16*
X2322200Y15113000D03*
D17*
X2997200Y15113000D03*
D18*
X18868900Y2717100D03*
D19*
X18868900Y4417100D03*
X16868900Y4417100D03*
X16868900Y2517100D03*
D14*
X17131400Y11468100D03*
X15431400Y11468100D03*
X17131400Y13182600D03*
X15431400Y13182600D03*
D20*
X12196900Y2514600D03*
X14396900Y2514600D03*
D11*
X23642000Y62458600D03*
D12*
X21102000Y62458600D03*
X18562000Y62458600D03*
D21*
X27457400Y50890800D03*
X27457400Y55890800D03*
D22*
X3343400Y2280100D03*
X5343400Y2280100D03*
D23*
X993400Y-3269900D03*
X7693400Y-3269900D03*
D13*
X152400Y41479100D03*
X152400Y43179100D03*
D14*
X13892900Y4660900D03*
X12192900Y4660900D03*
D24*
X2081685Y57840063D03*
X2081685Y59740063D03*
X-218315Y58790063D03*
X6385685Y57837563D03*
X6385685Y59737563D03*
X4085685Y58787563D03*
X15226185Y57837563D03*
X15226185Y59737563D03*
X12926185Y58787563D03*
X10654185Y57837563D03*
X10654185Y59737563D03*
X8354185Y58787563D03*
D13*
X2131185Y63384063D03*
X2131185Y61684063D03*
D14*
X22124300Y39611300D03*
X23824300Y39611300D03*
X18492100Y35661600D03*
X20192100Y35661600D03*
D13*
X6449185Y63384063D03*
X6449185Y61684063D03*
X15275685Y63384063D03*
X15275685Y61684063D03*
X10703685Y63384063D03*
X10703685Y61684063D03*
X7835900Y17588600D03*
X7835900Y15888600D03*
D14*
X826400Y12293600D03*
X2526400Y12293600D03*
X20180300Y37350700D03*
X18480300Y37350700D03*
X826400Y10642600D03*
X2526400Y10642600D03*
X826400Y8991600D03*
X2526400Y8991600D03*
X20180300Y39001700D03*
X18480300Y39001700D03*
X22607800Y-4546600D03*
X24307800Y-4546600D03*
X19127100Y24574500D03*
X20827100Y24574500D03*
X19139800Y22872700D03*
X20839800Y22872700D03*
X11875400Y11468100D03*
X13575400Y11468100D03*
X11875400Y13182600D03*
X13575400Y13182600D03*
X2526400Y7340600D03*
X826400Y7340600D03*
X20069561Y9391219D03*
X21769561Y9391219D03*
X25467061Y9391219D03*
X23767061Y9391219D03*
D25*
X26609800Y46801400D03*
X26609800Y41641400D03*
X28609800Y41641400D03*
X28609800Y46801400D03*
D10*
G36*
X9092337Y41009289D02*
X9412798Y41329750D01*
X10475721Y40266827D01*
X10155260Y39946366D01*
X9092337Y41009289D01*
X9092337Y41009289D01*
G37*
G36*
X8738784Y40655736D02*
X9059245Y40976197D01*
X10122168Y39913274D01*
X9801707Y39592813D01*
X8738784Y40655736D01*
X8738784Y40655736D01*
G37*
G36*
X8385230Y40302182D02*
X8705691Y40622643D01*
X9768614Y39559720D01*
X9448153Y39239259D01*
X8385230Y40302182D01*
X8385230Y40302182D01*
G37*
G36*
X8031677Y39948629D02*
X8352138Y40269090D01*
X9415061Y39206167D01*
X9094600Y38885706D01*
X8031677Y39948629D01*
X8031677Y39948629D01*
G37*
G36*
X7678124Y39595076D02*
X7998585Y39915537D01*
X9061508Y38852614D01*
X8741047Y38532153D01*
X7678124Y39595076D01*
X7678124Y39595076D01*
G37*
G36*
X7324570Y39241522D02*
X7645031Y39561983D01*
X8707954Y38499060D01*
X8387493Y38178599D01*
X7324570Y39241522D01*
X7324570Y39241522D01*
G37*
G36*
X6971017Y38887969D02*
X7291478Y39208430D01*
X8354401Y38145507D01*
X8033940Y37825046D01*
X6971017Y38887969D01*
X6971017Y38887969D01*
G37*
G36*
X6617463Y38534415D02*
X6937924Y38854876D01*
X8000847Y37791953D01*
X7680386Y37471492D01*
X6617463Y38534415D01*
X6617463Y38534415D01*
G37*
G36*
X6263910Y38180862D02*
X6584371Y38501323D01*
X7647294Y37438400D01*
X7326833Y37117939D01*
X6263910Y38180862D01*
X6263910Y38180862D01*
G37*
G36*
X5910357Y37827309D02*
X6230818Y38147770D01*
X7293741Y37084847D01*
X6973280Y36764386D01*
X5910357Y37827309D01*
X5910357Y37827309D01*
G37*
G36*
X5556803Y37473755D02*
X5877264Y37794216D01*
X6940187Y36731293D01*
X6619726Y36410832D01*
X5556803Y37473755D01*
X5556803Y37473755D01*
G37*
G36*
X5203250Y37120202D02*
X5523711Y37440663D01*
X6586634Y36377740D01*
X6266173Y36057279D01*
X5203250Y37120202D01*
X5203250Y37120202D01*
G37*
G36*
X5523711Y33794537D02*
X5203250Y34114998D01*
X6266173Y35177921D01*
X6586634Y34857460D01*
X5523711Y33794537D01*
X5523711Y33794537D01*
G37*
G36*
X5877264Y33440984D02*
X5556803Y33761445D01*
X6619726Y34824368D01*
X6940187Y34503907D01*
X5877264Y33440984D01*
X5877264Y33440984D01*
G37*
G36*
X6230818Y33087430D02*
X5910357Y33407891D01*
X6973280Y34470814D01*
X7293741Y34150353D01*
X6230818Y33087430D01*
X6230818Y33087430D01*
G37*
G36*
X6584371Y32733877D02*
X6263910Y33054338D01*
X7326833Y34117261D01*
X7647294Y33796800D01*
X6584371Y32733877D01*
X6584371Y32733877D01*
G37*
G36*
X6937924Y32380324D02*
X6617463Y32700785D01*
X7680386Y33763708D01*
X8000847Y33443247D01*
X6937924Y32380324D01*
X6937924Y32380324D01*
G37*
G36*
X7291478Y32026770D02*
X6971017Y32347231D01*
X8033940Y33410154D01*
X8354401Y33089693D01*
X7291478Y32026770D01*
X7291478Y32026770D01*
G37*
G36*
X7645031Y31673217D02*
X7324570Y31993678D01*
X8387493Y33056601D01*
X8707954Y32736140D01*
X7645031Y31673217D01*
X7645031Y31673217D01*
G37*
G36*
X7998585Y31319663D02*
X7678124Y31640124D01*
X8741047Y32703047D01*
X9061508Y32382586D01*
X7998585Y31319663D01*
X7998585Y31319663D01*
G37*
G36*
X8352138Y30966110D02*
X8031677Y31286571D01*
X9094600Y32349494D01*
X9415061Y32029033D01*
X8352138Y30966110D01*
X8352138Y30966110D01*
G37*
G36*
X8705691Y30612557D02*
X8385230Y30933018D01*
X9448153Y31995941D01*
X9768614Y31675480D01*
X8705691Y30612557D01*
X8705691Y30612557D01*
G37*
G36*
X9059245Y30259003D02*
X8738784Y30579464D01*
X9801707Y31642387D01*
X10122168Y31321926D01*
X9059245Y30259003D01*
X9059245Y30259003D01*
G37*
G36*
X9412798Y29905450D02*
X9092337Y30225911D01*
X10155260Y31288834D01*
X10475721Y30968373D01*
X9412798Y29905450D01*
X9412798Y29905450D01*
G37*
G36*
X11355079Y30968373D02*
X11675540Y31288834D01*
X12738463Y30225911D01*
X12418002Y29905450D01*
X11355079Y30968373D01*
X11355079Y30968373D01*
G37*
G36*
X11708632Y31321926D02*
X12029093Y31642387D01*
X13092016Y30579464D01*
X12771555Y30259003D01*
X11708632Y31321926D01*
X11708632Y31321926D01*
G37*
G36*
X12062186Y31675480D02*
X12382647Y31995941D01*
X13445570Y30933018D01*
X13125109Y30612557D01*
X12062186Y31675480D01*
X12062186Y31675480D01*
G37*
G36*
X12415739Y32029033D02*
X12736200Y32349494D01*
X13799123Y31286571D01*
X13478662Y30966110D01*
X12415739Y32029033D01*
X12415739Y32029033D01*
G37*
G36*
X12769292Y32382586D02*
X13089753Y32703047D01*
X14152676Y31640124D01*
X13832215Y31319663D01*
X12769292Y32382586D01*
X12769292Y32382586D01*
G37*
G36*
X13122846Y32736140D02*
X13443307Y33056601D01*
X14506230Y31993678D01*
X14185769Y31673217D01*
X13122846Y32736140D01*
X13122846Y32736140D01*
G37*
G36*
X13476399Y33089693D02*
X13796860Y33410154D01*
X14859783Y32347231D01*
X14539322Y32026770D01*
X13476399Y33089693D01*
X13476399Y33089693D01*
G37*
G36*
X13829953Y33443247D02*
X14150414Y33763708D01*
X15213337Y32700785D01*
X14892876Y32380324D01*
X13829953Y33443247D01*
X13829953Y33443247D01*
G37*
G36*
X14183506Y33796800D02*
X14503967Y34117261D01*
X15566890Y33054338D01*
X15246429Y32733877D01*
X14183506Y33796800D01*
X14183506Y33796800D01*
G37*
G36*
X14537059Y34150353D02*
X14857520Y34470814D01*
X15920443Y33407891D01*
X15599982Y33087430D01*
X14537059Y34150353D01*
X14537059Y34150353D01*
G37*
G36*
X14890613Y34503907D02*
X15211074Y34824368D01*
X16273997Y33761445D01*
X15953536Y33440984D01*
X14890613Y34503907D01*
X14890613Y34503907D01*
G37*
G36*
X15244166Y34857460D02*
X15564627Y35177921D01*
X16627550Y34114998D01*
X16307089Y33794537D01*
X15244166Y34857460D01*
X15244166Y34857460D01*
G37*
G36*
X15564627Y36057279D02*
X15244166Y36377740D01*
X16307089Y37440663D01*
X16627550Y37120202D01*
X15564627Y36057279D01*
X15564627Y36057279D01*
G37*
G36*
X15211074Y36410832D02*
X14890613Y36731293D01*
X15953536Y37794216D01*
X16273997Y37473755D01*
X15211074Y36410832D01*
X15211074Y36410832D01*
G37*
G36*
X14857520Y36764386D02*
X14537059Y37084847D01*
X15599982Y38147770D01*
X15920443Y37827309D01*
X14857520Y36764386D01*
X14857520Y36764386D01*
G37*
G36*
X14503967Y37117939D02*
X14183506Y37438400D01*
X15246429Y38501323D01*
X15566890Y38180862D01*
X14503967Y37117939D01*
X14503967Y37117939D01*
G37*
G36*
X14150414Y37471492D02*
X13829953Y37791953D01*
X14892876Y38854876D01*
X15213337Y38534415D01*
X14150414Y37471492D01*
X14150414Y37471492D01*
G37*
G36*
X13796860Y37825046D02*
X13476399Y38145507D01*
X14539322Y39208430D01*
X14859783Y38887969D01*
X13796860Y37825046D01*
X13796860Y37825046D01*
G37*
G36*
X13443307Y38178599D02*
X13122846Y38499060D01*
X14185769Y39561983D01*
X14506230Y39241522D01*
X13443307Y38178599D01*
X13443307Y38178599D01*
G37*
G36*
X13089753Y38532153D02*
X12769292Y38852614D01*
X13832215Y39915537D01*
X14152676Y39595076D01*
X13089753Y38532153D01*
X13089753Y38532153D01*
G37*
G36*
X12736200Y38885706D02*
X12415739Y39206167D01*
X13478662Y40269090D01*
X13799123Y39948629D01*
X12736200Y38885706D01*
X12736200Y38885706D01*
G37*
G36*
X12382647Y39239259D02*
X12062186Y39559720D01*
X13125109Y40622643D01*
X13445570Y40302182D01*
X12382647Y39239259D01*
X12382647Y39239259D01*
G37*
G36*
X12029093Y39592813D02*
X11708632Y39913274D01*
X12771555Y40976197D01*
X13092016Y40655736D01*
X12029093Y39592813D01*
X12029093Y39592813D01*
G37*
G36*
X11675540Y39946366D02*
X11355079Y40266827D01*
X12418002Y41329750D01*
X12738463Y41009289D01*
X11675540Y39946366D01*
X11675540Y39946366D01*
G37*
D26*
X8095900Y12048100D03*
X7345900Y12048100D03*
X7345900Y11298100D03*
X8095900Y11298100D03*
D27*
X6970900Y10198100D03*
X7470900Y10198100D03*
X7970900Y10198100D03*
X8470900Y10198100D03*
D28*
X9195900Y10923100D03*
X9195900Y11423100D03*
D29*
X9195900Y11923100D03*
D28*
X9195900Y12423100D03*
D27*
X8470900Y13148100D03*
X7970900Y13148100D03*
X7470900Y13148100D03*
X6970900Y13148100D03*
D28*
X6245900Y12423100D03*
X6245900Y11923100D03*
X6245900Y11423100D03*
D29*
X6245900Y10923100D03*
D30*
X8503900Y26581100D03*
X8503900Y25311100D03*
X8503900Y24041100D03*
X8503900Y22771100D03*
X3103900Y22771100D03*
X3103900Y24041100D03*
X3103900Y25311100D03*
X3103900Y26581100D03*
D31*
X22005061Y12252219D03*
X22505061Y12252219D03*
X23005061Y12252219D03*
X23505061Y12252219D03*
X23505061Y15152219D03*
X23005061Y15152219D03*
X22505061Y15152219D03*
X22005061Y15152219D03*
D32*
X23117561Y14139719D03*
X22392561Y14139719D03*
X23117561Y13264719D03*
X22392561Y13264719D03*
D33*
X16408400Y16357600D03*
D34*
X15908400Y17857600D03*
D33*
X16408400Y19357600D03*
D35*
X13558400Y17857600D03*
D10*
G36*
X7716173Y44263640D02*
X9203360Y45750827D01*
X10124861Y44829326D01*
X8637674Y43342139D01*
X7716173Y44263640D01*
X7716173Y44263640D01*
G37*
G36*
X9483939Y42495874D02*
X10971126Y43983061D01*
X11892627Y43061560D01*
X10405440Y41574373D01*
X9483939Y42495874D01*
X9483939Y42495874D01*
G37*
D36*
X977900Y49695600D03*
X977900Y53695600D03*
X2247900Y49695600D03*
X2247900Y53695600D03*
X3517900Y49695600D03*
X3517900Y53695600D03*
X4787900Y49695600D03*
X4787900Y53695600D03*
X6057900Y49695600D03*
X6057900Y53695600D03*
D13*
X25527000Y16660600D03*
X25527000Y14960600D03*
X24104600Y18936600D03*
X24104600Y20636600D03*
D37*
X13660600Y-378800D03*
X14310600Y-378800D03*
X14960600Y-378800D03*
X15610600Y-378800D03*
X16260600Y-378800D03*
D38*
X12535600Y-303800D03*
X17385600Y-303800D03*
D39*
X11335600Y-2953800D03*
X18585600Y-2953800D03*
D40*
X326000Y34758000D03*
X326000Y33508000D03*
X326000Y32258000D03*
X326000Y31008000D03*
X326000Y29758000D03*
D41*
X-2874000Y36608000D03*
X-2874000Y27908000D03*
D42*
X28002800Y62639200D03*
X-3000000Y-3860800D03*
X28002800Y-3860800D03*
X-3000000Y62639200D03*
M02*
