G04 #@! TF.FileFunction,Soldermask,Bot*
%FSLAX46Y46*%
G04 Gerber Fmt 4.6, Leading zero omitted, Abs format (unit mm)*
G04 Created by KiCad (PCBNEW 4.0.7-e2-6376~58~ubuntu16.04.1) date Tue Jul 10 13:57:42 2018*
%MOMM*%
%LPD*%
G01*
G04 APERTURE LIST*
%ADD10C,0.100000*%
%ADD11R,1.903200X1.903200*%
%ADD12O,1.903200X1.903200*%
%ADD13R,4.403200X1.473200*%
%ADD14R,2.203200X1.503200*%
%ADD15R,1.203200X3.703200*%
%ADD16R,1.703200X3.603200*%
%ADD17R,1.903200X0.803200*%
%ADD18R,3.003200X1.203200*%
%ADD19C,1.403200*%
%ADD20C,1.903200*%
%ADD21C,2.403200*%
G04 APERTURE END LIST*
D10*
D11*
X24307800Y-1676400D03*
D12*
X24307800Y863600D03*
X24307800Y3403600D03*
X24307800Y5943600D03*
D11*
X23642000Y62458600D03*
D12*
X21102000Y62458600D03*
X18562000Y62458600D03*
D13*
X27457400Y53390800D03*
X27457400Y55890800D03*
X27457400Y50890800D03*
D14*
X2947400Y39393100D03*
X2947400Y41393100D03*
X2947400Y43393100D03*
X2947400Y45393100D03*
X2947400Y47393100D03*
X2947400Y49393100D03*
X2947400Y51393100D03*
X2947400Y53393100D03*
X18947400Y53393100D03*
X18947400Y51393100D03*
X18947400Y49393100D03*
X18947400Y47393100D03*
X18947400Y45393100D03*
X18947400Y43393100D03*
X18947400Y41393100D03*
X18947400Y39393100D03*
D15*
X5343400Y2280100D03*
X3343400Y2280100D03*
D16*
X7693400Y-3269900D03*
X993400Y-3269900D03*
D17*
X4617000Y22840000D03*
X4617000Y21590000D03*
X4617000Y20340000D03*
D18*
X1267000Y24690000D03*
X1267000Y18490000D03*
D19*
X12535600Y-303800D03*
X17385600Y-303800D03*
D20*
X11335600Y-2953800D03*
X18585600Y-2953800D03*
D21*
X28002800Y62639200D03*
X-3000000Y-3860800D03*
X28002800Y-3860800D03*
X-3000000Y62639200D03*
M02*
