G04 #@! TF.FileFunction,Copper,L2,Bot,Signal*
%FSLAX46Y46*%
G04 Gerber Fmt 4.6, Leading zero omitted, Abs format (unit mm)*
G04 Created by KiCad (PCBNEW 4.0.7-e2-6376~58~ubuntu16.04.1) date Fri Dec  8 11:46:57 2017*
%MOMM*%
%LPD*%
G01*
G04 APERTURE LIST*
%ADD10C,0.100000*%
%ADD11R,1.700000X1.700000*%
%ADD12O,1.700000X1.700000*%
%ADD13R,4.200000X1.270000*%
%ADD14C,1.200000*%
%ADD15O,1.300000X1.700000*%
%ADD16R,2.000000X1.300000*%
%ADD17C,0.500000*%
%ADD18C,0.254000*%
%ADD19C,0.381000*%
%ADD20C,0.203200*%
%ADD21C,0.508000*%
%ADD22C,0.762000*%
%ADD23C,1.270000*%
G04 APERTURE END LIST*
D10*
D11*
X20294600Y18034000D03*
D12*
X22834600Y18034000D03*
X25374600Y18034000D03*
D13*
X24574500Y8953500D03*
X24574500Y11453500D03*
X24574500Y6453500D03*
D14*
X14288200Y-44728400D03*
X19138200Y-44728400D03*
D15*
X13088200Y-47378400D03*
X20338200Y-47378400D03*
D16*
X4700000Y-5031500D03*
X4700000Y-3031500D03*
X4700000Y-1031500D03*
X4700000Y968500D03*
X4700000Y2968500D03*
X4700000Y4968500D03*
X4700000Y6968500D03*
X4700000Y8968500D03*
X20700000Y8968500D03*
X20700000Y6968500D03*
X20700000Y4968500D03*
X20700000Y2968500D03*
X20700000Y968500D03*
X20700000Y-1031500D03*
X20700000Y-3031500D03*
X20700000Y-5031500D03*
D11*
X26085800Y-38506400D03*
D12*
X26085800Y-41046400D03*
X26085800Y-43586400D03*
X26085800Y-46126400D03*
D17*
X6604000Y-6045200D03*
X7112000Y-5588000D03*
X6604000Y-5080000D03*
X8636000Y-2032000D03*
X8636000Y-508000D03*
X16764000Y1524000D03*
X14833600Y3302000D03*
X14833600Y4216400D03*
X14224000Y-23368000D03*
X14224000Y-22352000D03*
X14224000Y-21336000D03*
X15240000Y-21336000D03*
X16256000Y-21336000D03*
X19126200Y2540000D03*
X19126200Y3352800D03*
X7010400Y17259300D03*
X596878Y-1676400D03*
X596878Y-863600D03*
X16814800Y-3911600D03*
X16814800Y-3149600D03*
X23164800Y-28194000D03*
X22161500Y965200D03*
X19126200Y-6413500D03*
X19126200Y-11163300D03*
X10236200Y-16167100D03*
X5689600Y-14109700D03*
X11239500Y17259300D03*
X15798800Y17259300D03*
X2654300Y17259300D03*
X18897600Y-21488400D03*
X11734800Y6756400D03*
X11776900Y-5334000D03*
X11734800Y-6705600D03*
X11205400Y5892800D03*
X24257661Y-27330400D03*
X24739600Y-22580600D03*
X23177500Y-22580600D03*
X23190200Y-27076400D03*
X10160000Y-7598600D03*
X17780000Y14274800D03*
X9414378Y-7569200D03*
X11887200Y10464800D03*
X8561100Y-8432800D03*
X12700000Y10414000D03*
X7611289Y-14085836D03*
X7531100Y-11353513D03*
X12213400Y-11785600D03*
X11154600Y-11707069D03*
X11684000Y-12293600D03*
X9080500Y-16823500D03*
X6413500Y-16823500D03*
X17932400Y-15951200D03*
X9605900Y-15510700D03*
X20370800Y-16052800D03*
X19202400Y-36068000D03*
X21082000Y-16002000D03*
X19812000Y-36423600D03*
X13839000Y-2032000D03*
X14224000Y11734800D03*
X15633700Y-37147500D03*
X2171700Y-28498800D03*
X13309600Y10718800D03*
X13309600Y-12395200D03*
X12166600Y-29654500D03*
X12153900Y-33502600D03*
X23063200Y-7061200D03*
X20167600Y-42926000D03*
D18*
X7112000Y-5588000D02*
X7061200Y-5588000D01*
X7061200Y-5588000D02*
X6604000Y-6045200D01*
X4700000Y-5031500D02*
X6555500Y-5031500D01*
X6555500Y-5031500D02*
X6604000Y-5080000D01*
X8636000Y-508000D02*
X8636000Y-2032000D01*
X16764000Y1524000D02*
X14986000Y3302000D01*
X14986000Y3302000D02*
X14833600Y3302000D01*
X14833600Y4216400D02*
X14833600Y3302000D01*
X14224000Y-21336000D02*
X14224000Y-22352000D01*
X16256000Y-21336000D02*
X15240000Y-21336000D01*
D19*
X23164800Y-28194000D02*
X23164800Y-36816400D01*
X23164800Y-36816400D02*
X24854800Y-38506400D01*
X24854800Y-38506400D02*
X26085800Y-38506400D01*
X19126200Y775700D02*
X19126200Y3352800D01*
X19126200Y3352800D02*
X19126200Y14325600D01*
D20*
X2654300Y17259300D02*
X7010400Y17259300D01*
X7010400Y17259300D02*
X11239500Y17259300D01*
D21*
X596878Y-9016978D02*
X596878Y-1676400D01*
X596878Y-1676400D02*
X596878Y-863600D01*
X596878Y-863600D02*
X596878Y-30266D01*
X19126200Y-6413500D02*
X19126200Y-3911600D01*
D18*
X16814800Y-3911600D02*
X19126200Y-3911600D01*
D21*
X19126200Y-3911600D02*
X19126200Y-3149600D01*
D18*
X16814800Y-3911600D02*
X16814800Y-3149600D01*
D21*
X19126200Y-3149600D02*
X19126200Y9776222D01*
D18*
X16814800Y-3149600D02*
X19126200Y-3149600D01*
D21*
X12852400Y-16167100D02*
X13576300Y-16167100D01*
X10236200Y-16167100D02*
X12852400Y-16167100D01*
X17275998Y-13013502D02*
X17275998Y-16154400D01*
X17275998Y-16154400D02*
X17275998Y-19866798D01*
X17263298Y-16167100D02*
X17275998Y-16154400D01*
X12852400Y-16167100D02*
X17263298Y-16167100D01*
X18647601Y-21238401D02*
X18897600Y-21488400D01*
X17275998Y-19866798D02*
X18647601Y-21238401D01*
X19126200Y-11163300D02*
X17275998Y-13013502D01*
X1905000Y1277856D02*
X1905000Y2794000D01*
X1905000Y2794000D02*
X1905000Y10160000D01*
X596878Y-30266D02*
X1905000Y1277856D01*
X5689600Y-14109700D02*
X596878Y-9016978D01*
X22834600Y18034000D02*
X19126200Y14325600D01*
X19126200Y9776222D02*
X19126200Y14325600D01*
X19126200Y-11163300D02*
X19126200Y-6413500D01*
X10236200Y-16167100D02*
X7747000Y-16167100D01*
X7747000Y-16167100D02*
X5689600Y-14109700D01*
D18*
X22161500Y965200D02*
X20703300Y965200D01*
X20703300Y965200D02*
X20700000Y968500D01*
D19*
X19126200Y775700D02*
X19126200Y-6413500D01*
D20*
X15798800Y17259300D02*
X16192500Y17259300D01*
X16192500Y17259300D02*
X19126200Y14325600D01*
X11239500Y17259300D02*
X15798800Y17259300D01*
D19*
X20700000Y968500D02*
X19319000Y968500D01*
X19319000Y968500D02*
X19126200Y775700D01*
D18*
X11734800Y6756400D02*
X11734800Y-5291900D01*
X11734800Y-5291900D02*
X11776900Y-5334000D01*
X11734800Y-6705600D02*
X11734800Y-6248400D01*
X11734800Y-6248400D02*
X11277600Y-5791200D01*
X11205400Y5892800D02*
X11205400Y-5719000D01*
X11205400Y-5719000D02*
X11277600Y-5791200D01*
X24257661Y-27330400D02*
X27508200Y-30580939D01*
X27508200Y-30580939D02*
X27508200Y-42164000D01*
X27508200Y-42164000D02*
X26085800Y-43586400D01*
X23177500Y-22580600D02*
X24739600Y-22580600D01*
X26085800Y-41046400D02*
X27068801Y-40063399D01*
X27068801Y-40063399D02*
X27068801Y-30955001D01*
X27068801Y-30955001D02*
X23190200Y-27076400D01*
X10160000Y-7598600D02*
X11248200Y-7598600D01*
X11248200Y-7598600D02*
X11379200Y-7467600D01*
X11379200Y-7467600D02*
X11379200Y-7114047D01*
X14681200Y14274800D02*
X17780000Y14274800D01*
X11379200Y-7114047D02*
X10617200Y-6352047D01*
X10617200Y-6352047D02*
X10617200Y10210800D01*
X10617200Y10210800D02*
X14681200Y14274800D01*
X11887200Y10464800D02*
X12306300Y10045700D01*
X12306300Y10045700D02*
X12306300Y-7708900D01*
X12306300Y-7708900D02*
X11887200Y-8128000D01*
X11887200Y-8128000D02*
X9619625Y-8128000D01*
X9619625Y-8128000D02*
X9414378Y-7922753D01*
X9414378Y-7922753D02*
X9414378Y-7569200D01*
X8561100Y-8432800D02*
X8811099Y-8682799D01*
X8811099Y-8682799D02*
X11070399Y-8682799D01*
X11070399Y-8682799D02*
X11379200Y-8991600D01*
X11379200Y-8991600D02*
X12293600Y-8991600D01*
X12814300Y-8470900D02*
X12814300Y10112450D01*
X12293600Y-8991600D02*
X12814300Y-8470900D01*
X12814300Y10112450D02*
X12700000Y10226750D01*
X12700000Y10226750D02*
X12700000Y10414000D01*
X7531100Y-11353513D02*
X7531100Y-14005647D01*
X7531100Y-14005647D02*
X7611289Y-14085836D01*
X11379200Y-10160000D02*
X8648700Y-10160000D01*
X12213400Y-11785600D02*
X12213400Y-10952850D01*
X11420550Y-10160000D02*
X11379200Y-10160000D01*
X12213400Y-10952850D02*
X11420550Y-10160000D01*
X8610600Y-10121900D02*
X8534400Y-10045700D01*
X8534400Y-10045700D02*
X8031700Y-9543000D01*
X8648700Y-10160000D02*
X8534400Y-10045700D01*
X8031700Y-4013200D02*
X5050000Y-1031500D01*
X8031700Y-9543000D02*
X8031700Y-4013200D01*
X5050000Y-1031500D02*
X4700000Y-1031500D01*
X11154600Y-11707069D02*
X11154600Y-11623000D01*
X11154600Y-11623000D02*
X11027633Y-11496033D01*
X2782300Y-6300200D02*
X5384800Y-8902700D01*
X6241899Y-8902700D02*
X8835232Y-11496033D01*
X2782300Y304800D02*
X2782300Y-6300200D01*
X4700000Y968500D02*
X3446000Y968500D01*
X8835232Y-11496033D02*
X11027633Y-11496033D01*
X3446000Y968500D02*
X2782300Y304800D01*
X5384800Y-8902700D02*
X6241899Y-8902700D01*
X11684000Y-12293600D02*
X11684000Y-10998200D01*
X11684000Y-10998200D02*
X11379200Y-10693400D01*
X11379200Y-10693400D02*
X8607350Y-10693400D01*
X8607350Y-10693400D02*
X6410239Y-8496289D01*
X6410239Y-8496289D02*
X5600700Y-8496289D01*
X5600700Y-8496289D02*
X3188711Y-6084300D01*
X3188711Y-4192789D02*
X4350000Y-3031500D01*
X3188711Y-6084300D02*
X3188711Y-4192789D01*
X4350000Y-3031500D02*
X4700000Y-3031500D01*
X9080500Y-16823500D02*
X6413500Y-16823500D01*
X21050000Y-1031500D02*
X20700000Y-1031500D01*
X22237700Y-2219200D02*
X21050000Y-1031500D01*
X22237700Y-11645900D02*
X22237700Y-2219200D01*
X17932400Y-15951200D02*
X22237700Y-11645900D01*
X2578100Y1196600D02*
X2308600Y927100D01*
X2308600Y927100D02*
X2308600Y-6436100D01*
X2308600Y-6436100D02*
X6858000Y-10985500D01*
X7844954Y-15510700D02*
X9605900Y-15510700D01*
X6858000Y-10985500D02*
X6858000Y-14523746D01*
X6858000Y-14523746D02*
X7844954Y-15510700D01*
X2451100Y1069600D02*
X2578100Y1196600D01*
X2578100Y1196600D02*
X4350000Y2968500D01*
X4350000Y2968500D02*
X4700000Y2968500D01*
X21544925Y-17221200D02*
X21544925Y-33725475D01*
X20370800Y-16052800D02*
X20620799Y-16302799D01*
X20620799Y-16302799D02*
X20626524Y-16302799D01*
X20626524Y-16302799D02*
X21544925Y-17221200D01*
X21544925Y-33725475D02*
X19202400Y-36068000D01*
X22098000Y-34137600D02*
X22098000Y-17018000D01*
X21082000Y-16002000D02*
X22098000Y-17018000D01*
X19812000Y-36423600D02*
X22098000Y-34137600D01*
X13839000Y-2032000D02*
X13839000Y11349800D01*
X13839000Y11349800D02*
X14224000Y11734800D01*
D22*
X2171700Y-28498800D02*
X10820400Y-37147500D01*
X10820400Y-37147500D02*
X15633700Y-37147500D01*
D18*
X13309600Y-12395200D02*
X13309600Y8686800D01*
X13309600Y8686800D02*
X13309600Y8826500D01*
X13309600Y10718800D02*
X13309600Y8686800D01*
X12153900Y-33502600D02*
X12153900Y-29667200D01*
X12153900Y-29667200D02*
X12166600Y-29654500D01*
D23*
X20700000Y8968500D02*
X24559500Y8968500D01*
X24559500Y8968500D02*
X24574500Y8953500D01*
D18*
X22606000Y-11988800D02*
X23063200Y-11531600D01*
X23063200Y-11531600D02*
X23063200Y-7061200D01*
X22606000Y-34493200D02*
X22606000Y-11988800D01*
X20417599Y-36681601D02*
X22606000Y-34493200D01*
X20167600Y-42926000D02*
X20417599Y-42676001D01*
X20417599Y-42676001D02*
X20417599Y-36681601D01*
D20*
G36*
X27672614Y19884899D02*
X27876599Y19748599D01*
X28012899Y19544614D01*
X28068200Y19266595D01*
X28068200Y-48908395D01*
X28012899Y-49186414D01*
X27876599Y-49390399D01*
X27672614Y-49526699D01*
X27394595Y-49582000D01*
X1053405Y-49582000D01*
X775386Y-49526699D01*
X571401Y-49390399D01*
X435101Y-49186414D01*
X379800Y-48908395D01*
X379800Y-47155776D01*
X12133400Y-47155776D01*
X12133400Y-47601024D01*
X12206080Y-47966410D01*
X12413054Y-48276170D01*
X12722814Y-48483144D01*
X13088200Y-48555824D01*
X13453586Y-48483144D01*
X13763346Y-48276170D01*
X13970320Y-47966410D01*
X14043000Y-47601024D01*
X14043000Y-47155776D01*
X19383400Y-47155776D01*
X19383400Y-47601024D01*
X19456080Y-47966410D01*
X19663054Y-48276170D01*
X19972814Y-48483144D01*
X20338200Y-48555824D01*
X20703586Y-48483144D01*
X21013346Y-48276170D01*
X21220320Y-47966410D01*
X21293000Y-47601024D01*
X21293000Y-47155776D01*
X21220320Y-46790390D01*
X21013346Y-46480630D01*
X20802942Y-46340043D01*
X24899281Y-46340043D01*
X24907838Y-46383081D01*
X25095733Y-46814329D01*
X25434357Y-47140846D01*
X25872157Y-47312922D01*
X26060400Y-47242835D01*
X26060400Y-46151800D01*
X26111200Y-46151800D01*
X26111200Y-47242835D01*
X26299443Y-47312922D01*
X26737243Y-47140846D01*
X27075867Y-46814329D01*
X27263762Y-46383081D01*
X27272319Y-46340043D01*
X27202211Y-46151800D01*
X26111200Y-46151800D01*
X26060400Y-46151800D01*
X24969389Y-46151800D01*
X24899281Y-46340043D01*
X20802942Y-46340043D01*
X20703586Y-46273656D01*
X20338200Y-46200976D01*
X19972814Y-46273656D01*
X19663054Y-46480630D01*
X19456080Y-46790390D01*
X19383400Y-47155776D01*
X14043000Y-47155776D01*
X13970320Y-46790390D01*
X13763346Y-46480630D01*
X13453586Y-46273656D01*
X13088200Y-46200976D01*
X12722814Y-46273656D01*
X12413054Y-46480630D01*
X12206080Y-46790390D01*
X12133400Y-47155776D01*
X379800Y-47155776D01*
X379800Y-45912757D01*
X24899281Y-45912757D01*
X24969389Y-46101000D01*
X26060400Y-46101000D01*
X26060400Y-45009965D01*
X26111200Y-45009965D01*
X26111200Y-46101000D01*
X27202211Y-46101000D01*
X27272319Y-45912757D01*
X27263762Y-45869719D01*
X27075867Y-45438471D01*
X26737243Y-45111954D01*
X26299443Y-44939878D01*
X26111200Y-45009965D01*
X26060400Y-45009965D01*
X25872157Y-44939878D01*
X25434357Y-45111954D01*
X25095733Y-45438471D01*
X24907838Y-45869719D01*
X24899281Y-45912757D01*
X379800Y-45912757D01*
X379800Y-44907586D01*
X13383243Y-44907586D01*
X13520701Y-45240258D01*
X13775003Y-45495005D01*
X14107435Y-45633043D01*
X14467386Y-45633357D01*
X14800058Y-45495899D01*
X15054805Y-45241597D01*
X15192843Y-44909165D01*
X15192844Y-44907586D01*
X18233243Y-44907586D01*
X18370701Y-45240258D01*
X18625003Y-45495005D01*
X18957435Y-45633043D01*
X19317386Y-45633357D01*
X19650058Y-45495899D01*
X19904805Y-45241597D01*
X20042843Y-44909165D01*
X20043157Y-44549214D01*
X19905699Y-44216542D01*
X19651397Y-43961795D01*
X19318965Y-43823757D01*
X18959014Y-43823443D01*
X18626342Y-43960901D01*
X18371595Y-44215203D01*
X18233557Y-44547635D01*
X18233243Y-44907586D01*
X15192844Y-44907586D01*
X15193157Y-44549214D01*
X15055699Y-44216542D01*
X14801397Y-43961795D01*
X14468965Y-43823757D01*
X14109014Y-43823443D01*
X13776342Y-43960901D01*
X13521595Y-44215203D01*
X13383557Y-44547635D01*
X13383243Y-44907586D01*
X379800Y-44907586D01*
X379800Y-28498800D01*
X1485900Y-28498800D01*
X1538103Y-28761245D01*
X1686766Y-28983734D01*
X10335466Y-37632434D01*
X10557955Y-37781097D01*
X10820400Y-37833300D01*
X15633700Y-37833300D01*
X15896144Y-37781097D01*
X16118634Y-37632434D01*
X16267297Y-37409944D01*
X16319500Y-37147500D01*
X16267297Y-36885056D01*
X16118634Y-36662566D01*
X15896144Y-36513903D01*
X15633700Y-36461700D01*
X11104468Y-36461700D01*
X8255240Y-33612472D01*
X11599004Y-33612472D01*
X11683289Y-33816458D01*
X11839221Y-33972662D01*
X12043059Y-34057303D01*
X12263772Y-34057496D01*
X12467758Y-33973211D01*
X12623962Y-33817279D01*
X12708603Y-33613441D01*
X12708796Y-33392728D01*
X12624511Y-33188742D01*
X12585700Y-33149863D01*
X12585700Y-30020052D01*
X12636662Y-29969179D01*
X12721303Y-29765341D01*
X12721496Y-29544628D01*
X12637211Y-29340642D01*
X12481279Y-29184438D01*
X12277441Y-29099797D01*
X12056728Y-29099604D01*
X11852742Y-29183889D01*
X11696538Y-29339821D01*
X11611897Y-29543659D01*
X11611704Y-29764372D01*
X11695989Y-29968358D01*
X11722100Y-29994515D01*
X11722100Y-33149726D01*
X11683838Y-33187921D01*
X11599197Y-33391759D01*
X11599004Y-33612472D01*
X8255240Y-33612472D01*
X2656634Y-28013866D01*
X2434145Y-27865203D01*
X2171700Y-27813000D01*
X1909255Y-27865203D01*
X1686766Y-28013866D01*
X1538103Y-28236355D01*
X1485900Y-28498800D01*
X379800Y-28498800D01*
X379800Y-9590162D01*
X5294469Y-14504832D01*
X5294472Y-14504834D01*
X7181338Y-16391700D01*
X6766374Y-16391700D01*
X6728179Y-16353438D01*
X6524341Y-16268797D01*
X6303628Y-16268604D01*
X6099642Y-16352889D01*
X5943438Y-16508821D01*
X5858797Y-16712659D01*
X5858604Y-16933372D01*
X5942889Y-17137358D01*
X6098821Y-17293562D01*
X6302659Y-17378203D01*
X6523372Y-17378396D01*
X6727358Y-17294111D01*
X6766237Y-17255300D01*
X8727626Y-17255300D01*
X8765821Y-17293562D01*
X8969659Y-17378203D01*
X9190372Y-17378396D01*
X9394358Y-17294111D01*
X9550562Y-17138179D01*
X9635203Y-16934341D01*
X9635385Y-16725900D01*
X16717198Y-16725900D01*
X16717198Y-19866798D01*
X16759734Y-20080642D01*
X16880867Y-20261929D01*
X18252470Y-21633533D01*
X18252473Y-21633535D01*
X18502469Y-21883531D01*
X18519441Y-21894872D01*
X18582921Y-21958462D01*
X18666634Y-21993223D01*
X18683757Y-22004664D01*
X18703779Y-22008647D01*
X18786759Y-22043103D01*
X18877401Y-22043182D01*
X18897600Y-22047200D01*
X18917622Y-22043217D01*
X19007472Y-22043296D01*
X19091246Y-22008681D01*
X19111443Y-22004664D01*
X19128415Y-21993323D01*
X19211458Y-21959011D01*
X19275609Y-21894971D01*
X19292731Y-21883531D01*
X19304072Y-21866559D01*
X19367662Y-21803079D01*
X19402423Y-21719366D01*
X19413864Y-21702243D01*
X19417847Y-21682221D01*
X19452303Y-21599241D01*
X19452382Y-21508599D01*
X19456400Y-21488400D01*
X19452417Y-21468378D01*
X19452496Y-21378528D01*
X19417881Y-21294754D01*
X19413864Y-21274557D01*
X19402523Y-21257585D01*
X19368211Y-21174542D01*
X19304171Y-21110391D01*
X19292731Y-21093269D01*
X19042735Y-20843273D01*
X19042733Y-20843270D01*
X17834798Y-19635336D01*
X17834798Y-16505915D01*
X18042272Y-16506096D01*
X18246258Y-16421811D01*
X18402462Y-16265879D01*
X18487103Y-16062041D01*
X18487151Y-16007107D01*
X22174200Y-12320057D01*
X22174200Y-16483542D01*
X21636849Y-15946191D01*
X21636896Y-15892128D01*
X21552611Y-15688142D01*
X21396679Y-15531938D01*
X21192841Y-15447297D01*
X20972128Y-15447104D01*
X20768142Y-15531389D01*
X20701064Y-15598350D01*
X20685479Y-15582738D01*
X20481641Y-15498097D01*
X20260928Y-15497904D01*
X20056942Y-15582189D01*
X19900738Y-15738121D01*
X19816097Y-15941959D01*
X19815904Y-16162672D01*
X19900189Y-16366658D01*
X20056121Y-16522862D01*
X20259959Y-16607503D01*
X20314893Y-16607551D01*
X20315470Y-16608128D01*
X20332723Y-16619656D01*
X21113125Y-17400058D01*
X21113125Y-33546618D01*
X19146591Y-35513151D01*
X19092528Y-35513104D01*
X18888542Y-35597389D01*
X18732338Y-35753321D01*
X18647697Y-35957159D01*
X18647504Y-36177872D01*
X18731789Y-36381858D01*
X18887721Y-36538062D01*
X19091559Y-36622703D01*
X19294047Y-36622880D01*
X19341389Y-36737458D01*
X19497321Y-36893662D01*
X19701159Y-36978303D01*
X19921872Y-36978496D01*
X19985799Y-36952082D01*
X19985799Y-42400824D01*
X19853742Y-42455389D01*
X19697538Y-42611321D01*
X19612897Y-42815159D01*
X19612704Y-43035872D01*
X19696989Y-43239858D01*
X19852921Y-43396062D01*
X20056759Y-43480703D01*
X20277472Y-43480896D01*
X20481458Y-43396611D01*
X20637662Y-43240679D01*
X20722303Y-43036841D01*
X20722351Y-42981907D01*
X20722928Y-42981330D01*
X20759898Y-42926000D01*
X20816530Y-42841244D01*
X20849399Y-42676001D01*
X20849399Y-36860459D01*
X22669500Y-35040357D01*
X22669500Y-36816400D01*
X22707202Y-37005944D01*
X22814570Y-37166630D01*
X24504570Y-38856630D01*
X24665257Y-38963998D01*
X24854800Y-39001700D01*
X24925029Y-39001700D01*
X24925029Y-39356400D01*
X24946282Y-39469352D01*
X25013037Y-39573092D01*
X25114893Y-39642687D01*
X25235800Y-39667171D01*
X26637001Y-39667171D01*
X26637001Y-39884542D01*
X26543417Y-39978126D01*
X26108424Y-39891600D01*
X26063176Y-39891600D01*
X25621253Y-39979504D01*
X25246609Y-40229833D01*
X24996280Y-40604477D01*
X24908376Y-41046400D01*
X24996280Y-41488323D01*
X25246609Y-41862967D01*
X25621253Y-42113296D01*
X26063176Y-42201200D01*
X26108424Y-42201200D01*
X26550347Y-42113296D01*
X26924991Y-41862967D01*
X27076400Y-41636367D01*
X27076400Y-41985143D01*
X26543417Y-42518126D01*
X26108424Y-42431600D01*
X26063176Y-42431600D01*
X25621253Y-42519504D01*
X25246609Y-42769833D01*
X24996280Y-43144477D01*
X24908376Y-43586400D01*
X24996280Y-44028323D01*
X25246609Y-44402967D01*
X25621253Y-44653296D01*
X26063176Y-44741200D01*
X26108424Y-44741200D01*
X26550347Y-44653296D01*
X26924991Y-44402967D01*
X27175320Y-44028323D01*
X27263224Y-43586400D01*
X27175320Y-43144477D01*
X27160524Y-43122333D01*
X27813526Y-42469331D01*
X27813529Y-42469329D01*
X27907131Y-42329243D01*
X27940000Y-42164000D01*
X27940000Y-30580939D01*
X27907131Y-30415696D01*
X27813529Y-30275610D01*
X27813526Y-30275608D01*
X24812510Y-27274591D01*
X24812557Y-27220528D01*
X24728272Y-27016542D01*
X24572340Y-26860338D01*
X24368502Y-26775697D01*
X24147789Y-26775504D01*
X23943803Y-26859789D01*
X23787599Y-27015721D01*
X23773686Y-27049228D01*
X23745049Y-27020591D01*
X23745096Y-26966528D01*
X23660811Y-26762542D01*
X23504879Y-26606338D01*
X23301041Y-26521697D01*
X23080328Y-26521504D01*
X23037800Y-26539076D01*
X23037800Y-23123320D01*
X23066659Y-23135303D01*
X23287372Y-23135496D01*
X23491358Y-23051211D01*
X23530237Y-23012400D01*
X24386726Y-23012400D01*
X24424921Y-23050662D01*
X24628759Y-23135303D01*
X24849472Y-23135496D01*
X25053458Y-23051211D01*
X25209662Y-22895279D01*
X25294303Y-22691441D01*
X25294496Y-22470728D01*
X25210211Y-22266742D01*
X25054279Y-22110538D01*
X24850441Y-22025897D01*
X24629728Y-22025704D01*
X24425742Y-22109989D01*
X24386863Y-22148800D01*
X23530374Y-22148800D01*
X23492179Y-22110538D01*
X23288341Y-22025897D01*
X23067628Y-22025704D01*
X23037800Y-22038029D01*
X23037800Y-12167658D01*
X23368526Y-11836931D01*
X23368529Y-11836929D01*
X23462131Y-11696843D01*
X23495000Y-11531600D01*
X23495000Y-7414074D01*
X23533262Y-7375879D01*
X23617903Y-7172041D01*
X23618096Y-6951328D01*
X23533811Y-6747342D01*
X23377879Y-6591138D01*
X23174041Y-6506497D01*
X22953328Y-6506304D01*
X22749342Y-6590589D01*
X22669500Y-6670292D01*
X22669500Y-2219200D01*
X22636631Y-2053957D01*
X22543029Y-1913871D01*
X22543026Y-1913869D01*
X22010771Y-1381614D01*
X22010771Y-381500D01*
X21989518Y-268548D01*
X21922763Y-164808D01*
X21820907Y-95213D01*
X21700000Y-70729D01*
X19700000Y-70729D01*
X19685000Y-73551D01*
X19685000Y10767D01*
X19700000Y7729D01*
X21700000Y7729D01*
X21812952Y28982D01*
X21916692Y95737D01*
X21986287Y197593D01*
X22010771Y318500D01*
X22010771Y427060D01*
X22050659Y410497D01*
X22271372Y410304D01*
X22475358Y494589D01*
X22631562Y650521D01*
X22716203Y854359D01*
X22716396Y1075072D01*
X22632111Y1279058D01*
X22476179Y1435262D01*
X22272341Y1519903D01*
X22051628Y1520096D01*
X22010771Y1503214D01*
X22010771Y1618500D01*
X21989518Y1731452D01*
X21922763Y1835192D01*
X21820907Y1904787D01*
X21700000Y1929271D01*
X19700000Y1929271D01*
X19685000Y1926449D01*
X19685000Y2010767D01*
X19700000Y2007729D01*
X21700000Y2007729D01*
X21812952Y2028982D01*
X21916692Y2095737D01*
X21986287Y2197593D01*
X22010771Y2318500D01*
X22010771Y3618500D01*
X21989518Y3731452D01*
X21922763Y3835192D01*
X21820907Y3904787D01*
X21700000Y3929271D01*
X19700000Y3929271D01*
X19685000Y3926449D01*
X19685000Y4010767D01*
X19700000Y4007729D01*
X21700000Y4007729D01*
X21812952Y4028982D01*
X21916692Y4095737D01*
X21986287Y4197593D01*
X22010771Y4318500D01*
X22010771Y5618500D01*
X21989518Y5731452D01*
X21922763Y5835192D01*
X21820907Y5904787D01*
X21700000Y5929271D01*
X19700000Y5929271D01*
X19685000Y5926449D01*
X19685000Y5962900D01*
X20585700Y5962900D01*
X20674600Y6051800D01*
X20674600Y6943100D01*
X20725400Y6943100D01*
X20725400Y6051800D01*
X20814300Y5962900D01*
X21770733Y5962900D01*
X21901431Y6017037D01*
X22001463Y6117069D01*
X22055600Y6247767D01*
X22055600Y6339200D01*
X22118900Y6339200D01*
X22118900Y5747767D01*
X22173037Y5617069D01*
X22273069Y5517037D01*
X22403767Y5462900D01*
X24460200Y5462900D01*
X24549100Y5551800D01*
X24549100Y6428100D01*
X24599900Y6428100D01*
X24599900Y5551800D01*
X24688800Y5462900D01*
X26745233Y5462900D01*
X26875931Y5517037D01*
X26975963Y5617069D01*
X27030100Y5747767D01*
X27030100Y6339200D01*
X26941200Y6428100D01*
X24599900Y6428100D01*
X24549100Y6428100D01*
X22207800Y6428100D01*
X22118900Y6339200D01*
X22055600Y6339200D01*
X22055600Y6854200D01*
X21966700Y6943100D01*
X20725400Y6943100D01*
X20674600Y6943100D01*
X20654600Y6943100D01*
X20654600Y6993900D01*
X20674600Y6993900D01*
X20674600Y7885200D01*
X20725400Y7885200D01*
X20725400Y6993900D01*
X21966700Y6993900D01*
X22055600Y7082800D01*
X22055600Y7159233D01*
X22118900Y7159233D01*
X22118900Y6567800D01*
X22207800Y6478900D01*
X24549100Y6478900D01*
X24549100Y7355200D01*
X24599900Y7355200D01*
X24599900Y6478900D01*
X26941200Y6478900D01*
X27030100Y6567800D01*
X27030100Y7159233D01*
X26975963Y7289931D01*
X26875931Y7389963D01*
X26745233Y7444100D01*
X24688800Y7444100D01*
X24599900Y7355200D01*
X24549100Y7355200D01*
X24460200Y7444100D01*
X22403767Y7444100D01*
X22273069Y7389963D01*
X22173037Y7289931D01*
X22118900Y7159233D01*
X22055600Y7159233D01*
X22055600Y7689233D01*
X22001463Y7819931D01*
X21901431Y7919963D01*
X21770733Y7974100D01*
X20814300Y7974100D01*
X20725400Y7885200D01*
X20674600Y7885200D01*
X20585700Y7974100D01*
X19685000Y7974100D01*
X19685000Y8010767D01*
X19700000Y8007729D01*
X21700000Y8007729D01*
X21811453Y8028700D01*
X22370941Y8028700D01*
X22474500Y8007729D01*
X26674500Y8007729D01*
X26787452Y8028982D01*
X26891192Y8095737D01*
X26960787Y8197593D01*
X26985271Y8318500D01*
X26985271Y9588500D01*
X26964018Y9701452D01*
X26897263Y9805192D01*
X26795407Y9874787D01*
X26674500Y9899271D01*
X24604892Y9899271D01*
X24559500Y9908300D01*
X21803559Y9908300D01*
X21700000Y9929271D01*
X19700000Y9929271D01*
X19685000Y9926449D01*
X19685000Y12088500D01*
X22163729Y12088500D01*
X22163729Y10818500D01*
X22184982Y10705548D01*
X22251737Y10601808D01*
X22353593Y10532213D01*
X22474500Y10507729D01*
X26674500Y10507729D01*
X26787452Y10528982D01*
X26891192Y10595737D01*
X26960787Y10697593D01*
X26985271Y10818500D01*
X26985271Y12088500D01*
X26964018Y12201452D01*
X26897263Y12305192D01*
X26795407Y12374787D01*
X26674500Y12399271D01*
X22474500Y12399271D01*
X22361548Y12378018D01*
X22257808Y12311263D01*
X22188213Y12209407D01*
X22163729Y12088500D01*
X19685000Y12088500D01*
X19685000Y14094138D01*
X22511673Y16920810D01*
X22834600Y16856576D01*
X23276523Y16944480D01*
X23651167Y17194809D01*
X23901496Y17569453D01*
X23951403Y17820357D01*
X24188078Y17820357D01*
X24360154Y17382557D01*
X24686671Y17043933D01*
X25117919Y16856038D01*
X25160957Y16847481D01*
X25349200Y16917589D01*
X25349200Y18008600D01*
X25400000Y18008600D01*
X25400000Y16917589D01*
X25588243Y16847481D01*
X25631281Y16856038D01*
X26062529Y17043933D01*
X26389046Y17382557D01*
X26561122Y17820357D01*
X26491035Y18008600D01*
X25400000Y18008600D01*
X25349200Y18008600D01*
X24258165Y18008600D01*
X24188078Y17820357D01*
X23951403Y17820357D01*
X23989400Y18011376D01*
X23989400Y18056624D01*
X23951404Y18247643D01*
X24188078Y18247643D01*
X24258165Y18059400D01*
X25349200Y18059400D01*
X25349200Y19150411D01*
X25400000Y19150411D01*
X25400000Y18059400D01*
X26491035Y18059400D01*
X26561122Y18247643D01*
X26389046Y18685443D01*
X26062529Y19024067D01*
X25631281Y19211962D01*
X25588243Y19220519D01*
X25400000Y19150411D01*
X25349200Y19150411D01*
X25160957Y19220519D01*
X25117919Y19211962D01*
X24686671Y19024067D01*
X24360154Y18685443D01*
X24188078Y18247643D01*
X23951404Y18247643D01*
X23901496Y18498547D01*
X23651167Y18873191D01*
X23276523Y19123520D01*
X22834600Y19211424D01*
X22392677Y19123520D01*
X22018033Y18873191D01*
X21767704Y18498547D01*
X21679800Y18056624D01*
X21679800Y18011376D01*
X21736527Y17726190D01*
X21455371Y17445034D01*
X21455371Y18884000D01*
X21434118Y18996952D01*
X21367363Y19100692D01*
X21265507Y19170287D01*
X21144600Y19194771D01*
X19444600Y19194771D01*
X19331648Y19173518D01*
X19227908Y19106763D01*
X19158313Y19004907D01*
X19133829Y18884000D01*
X19133829Y17184000D01*
X19155082Y17071048D01*
X19221837Y16967308D01*
X19323693Y16897713D01*
X19444600Y16873229D01*
X20883566Y16873229D01*
X19018437Y15008099D01*
X16479868Y17546668D01*
X16440223Y17573158D01*
X16348023Y17634765D01*
X16192500Y17665700D01*
X16177030Y17665700D01*
X16113479Y17729362D01*
X15909641Y17814003D01*
X15688928Y17814196D01*
X15484942Y17729911D01*
X15420619Y17665700D01*
X11617730Y17665700D01*
X11554179Y17729362D01*
X11350341Y17814003D01*
X11129628Y17814196D01*
X10925642Y17729911D01*
X10861319Y17665700D01*
X7388630Y17665700D01*
X7325079Y17729362D01*
X7121241Y17814003D01*
X6900528Y17814196D01*
X6696542Y17729911D01*
X6632219Y17665700D01*
X3032530Y17665700D01*
X2968979Y17729362D01*
X2765141Y17814003D01*
X2544428Y17814196D01*
X2340442Y17729911D01*
X2184238Y17573979D01*
X2099597Y17370141D01*
X2099404Y17149428D01*
X2183689Y16945442D01*
X2339621Y16789238D01*
X2543459Y16704597D01*
X2764172Y16704404D01*
X2968158Y16788689D01*
X3032481Y16852900D01*
X6632170Y16852900D01*
X6695721Y16789238D01*
X6899559Y16704597D01*
X7120272Y16704404D01*
X7324258Y16788689D01*
X7388581Y16852900D01*
X10861270Y16852900D01*
X10924821Y16789238D01*
X11128659Y16704597D01*
X11349372Y16704404D01*
X11553358Y16788689D01*
X11617681Y16852900D01*
X15420570Y16852900D01*
X15484121Y16789238D01*
X15687959Y16704597D01*
X15908672Y16704404D01*
X16095475Y16781589D01*
X18567400Y14309664D01*
X18567400Y-2717800D01*
X17167674Y-2717800D01*
X17129479Y-2679538D01*
X16925641Y-2594897D01*
X16704928Y-2594704D01*
X16500942Y-2678989D01*
X16344738Y-2834921D01*
X16260097Y-3038759D01*
X16259904Y-3259472D01*
X16344189Y-3463458D01*
X16383000Y-3502337D01*
X16383000Y-3558726D01*
X16344738Y-3596921D01*
X16260097Y-3800759D01*
X16259904Y-4021472D01*
X16344189Y-4225458D01*
X16500121Y-4381662D01*
X16703959Y-4466303D01*
X16924672Y-4466496D01*
X17128658Y-4382211D01*
X17167537Y-4343400D01*
X18567400Y-4343400D01*
X18567400Y-10931838D01*
X16880867Y-12618371D01*
X16759734Y-12799658D01*
X16717198Y-13013502D01*
X16717198Y-15608300D01*
X10160615Y-15608300D01*
X10160796Y-15400828D01*
X10076511Y-15196842D01*
X9920579Y-15040638D01*
X9716741Y-14955997D01*
X9496028Y-14955804D01*
X9292042Y-15040089D01*
X9253163Y-15078900D01*
X8023812Y-15078900D01*
X7585525Y-14640613D01*
X7721161Y-14640732D01*
X7925147Y-14556447D01*
X8081351Y-14400515D01*
X8165992Y-14196677D01*
X8166185Y-13975964D01*
X8081900Y-13771978D01*
X7962900Y-13652770D01*
X7962900Y-11706387D01*
X8001162Y-11668192D01*
X8085803Y-11464354D01*
X8085897Y-11357355D01*
X8529901Y-11801359D01*
X8529903Y-11801362D01*
X8669989Y-11894964D01*
X8697405Y-11900418D01*
X8835232Y-11927834D01*
X8835237Y-11927833D01*
X10645523Y-11927833D01*
X10683989Y-12020927D01*
X10839921Y-12177131D01*
X11043759Y-12261772D01*
X11129228Y-12261847D01*
X11129104Y-12403472D01*
X11213389Y-12607458D01*
X11369321Y-12763662D01*
X11573159Y-12848303D01*
X11793872Y-12848496D01*
X11997858Y-12764211D01*
X12154062Y-12608279D01*
X12238703Y-12404441D01*
X12238759Y-12340422D01*
X12323272Y-12340496D01*
X12527258Y-12256211D01*
X12683462Y-12100279D01*
X12768103Y-11896441D01*
X12768296Y-11675728D01*
X12684011Y-11471742D01*
X12645200Y-11432863D01*
X12645200Y-10952850D01*
X12612331Y-10787607D01*
X12518729Y-10647521D01*
X11725879Y-9854671D01*
X11668858Y-9816571D01*
X11585793Y-9761069D01*
X11420550Y-9728200D01*
X8827558Y-9728200D01*
X8463500Y-9364142D01*
X8463500Y-8987515D01*
X8505193Y-8987551D01*
X8505770Y-8988128D01*
X8645856Y-9081730D01*
X8811099Y-9114599D01*
X10891541Y-9114599D01*
X11073869Y-9296926D01*
X11073871Y-9296929D01*
X11130102Y-9334501D01*
X11213958Y-9390532D01*
X11379200Y-9423401D01*
X11379205Y-9423400D01*
X12293600Y-9423400D01*
X12458843Y-9390531D01*
X12598929Y-9296929D01*
X12877800Y-9018058D01*
X12877800Y-12042326D01*
X12839538Y-12080521D01*
X12754897Y-12284359D01*
X12754704Y-12505072D01*
X12838989Y-12709058D01*
X12994921Y-12865262D01*
X13198759Y-12949903D01*
X13419472Y-12950096D01*
X13623458Y-12865811D01*
X13779662Y-12709879D01*
X13864303Y-12506041D01*
X13864496Y-12285328D01*
X13780211Y-12081342D01*
X13741400Y-12042463D01*
X13741400Y-2586715D01*
X13948872Y-2586896D01*
X14152858Y-2502611D01*
X14309062Y-2346679D01*
X14393703Y-2142841D01*
X14393896Y-1922128D01*
X14309611Y-1718142D01*
X14270800Y-1679263D01*
X14270800Y11170942D01*
X14279809Y11179951D01*
X14333872Y11179904D01*
X14537858Y11264189D01*
X14694062Y11420121D01*
X14778703Y11623959D01*
X14778896Y11844672D01*
X14694611Y12048658D01*
X14538679Y12204862D01*
X14334841Y12289503D01*
X14114128Y12289696D01*
X13910142Y12205411D01*
X13753938Y12049479D01*
X13669297Y11845641D01*
X13669249Y11790707D01*
X13533671Y11655129D01*
X13440069Y11515043D01*
X13407200Y11349800D01*
X13407200Y11273515D01*
X13199728Y11273696D01*
X12995742Y11189411D01*
X12839538Y11033479D01*
X12812376Y10968066D01*
X12810841Y10968703D01*
X12590128Y10968896D01*
X12386142Y10884611D01*
X12318975Y10817561D01*
X12201879Y10934862D01*
X12025259Y11008201D01*
X14860058Y13843000D01*
X17427126Y13843000D01*
X17465321Y13804738D01*
X17669159Y13720097D01*
X17889872Y13719904D01*
X18093858Y13804189D01*
X18250062Y13960121D01*
X18334703Y14163959D01*
X18334896Y14384672D01*
X18250611Y14588658D01*
X18094679Y14744862D01*
X17890841Y14829503D01*
X17670128Y14829696D01*
X17466142Y14745411D01*
X17427263Y14706600D01*
X14681200Y14706600D01*
X14515957Y14673731D01*
X14389864Y14589479D01*
X14375871Y14580129D01*
X10311871Y10516129D01*
X10218269Y10376043D01*
X10185400Y10210800D01*
X10185400Y-6352047D01*
X10218269Y-6517290D01*
X10293178Y-6629400D01*
X10311871Y-6657376D01*
X10821295Y-7166800D01*
X10512874Y-7166800D01*
X10474679Y-7128538D01*
X10270841Y-7043897D01*
X10050128Y-7043704D01*
X9846142Y-7127989D01*
X9801923Y-7172131D01*
X9729057Y-7099138D01*
X9525219Y-7014497D01*
X9304506Y-7014304D01*
X9100520Y-7098589D01*
X8944316Y-7254521D01*
X8859675Y-7458359D01*
X8859482Y-7679072D01*
X8943767Y-7883058D01*
X8982578Y-7921937D01*
X8982578Y-7922753D01*
X9015447Y-8087996D01*
X9067281Y-8165571D01*
X9109049Y-8228082D01*
X9131966Y-8250999D01*
X9086276Y-8250999D01*
X9031711Y-8118942D01*
X8875779Y-7962738D01*
X8671941Y-7878097D01*
X8463500Y-7877915D01*
X8463500Y-4013205D01*
X8463501Y-4013200D01*
X8430632Y-3847958D01*
X8337382Y-3708400D01*
X8337029Y-3707871D01*
X8337026Y-3707869D01*
X6010771Y-1381613D01*
X6010771Y-381500D01*
X5989518Y-268548D01*
X5922763Y-164808D01*
X5820907Y-95213D01*
X5700000Y-70729D01*
X3700000Y-70729D01*
X3587048Y-91982D01*
X3483308Y-158737D01*
X3413713Y-260593D01*
X3389229Y-381500D01*
X3389229Y-1681500D01*
X3410482Y-1794452D01*
X3477237Y-1898192D01*
X3579093Y-1967787D01*
X3700000Y-1992271D01*
X5400113Y-1992271D01*
X5478571Y-2070729D01*
X3700000Y-2070729D01*
X3587048Y-2091982D01*
X3483308Y-2158737D01*
X3413713Y-2260593D01*
X3389229Y-2381500D01*
X3389229Y-3381613D01*
X3214100Y-3556742D01*
X3214100Y125942D01*
X3391989Y303831D01*
X3410482Y205548D01*
X3477237Y101808D01*
X3579093Y32213D01*
X3700000Y7729D01*
X5700000Y7729D01*
X5812952Y28982D01*
X5916692Y95737D01*
X5986287Y197593D01*
X6010771Y318500D01*
X6010771Y1618500D01*
X5989518Y1731452D01*
X5922763Y1835192D01*
X5820907Y1904787D01*
X5700000Y1929271D01*
X3921429Y1929271D01*
X3999887Y2007729D01*
X5700000Y2007729D01*
X5812952Y2028982D01*
X5916692Y2095737D01*
X5986287Y2197593D01*
X6010771Y2318500D01*
X6010771Y3618500D01*
X5989518Y3731452D01*
X5922763Y3835192D01*
X5820907Y3904787D01*
X5700000Y3929271D01*
X3700000Y3929271D01*
X3587048Y3908018D01*
X3483308Y3841263D01*
X3413713Y3739407D01*
X3389229Y3618500D01*
X3389229Y2618387D01*
X2463800Y1692958D01*
X2463800Y5618500D01*
X3389229Y5618500D01*
X3389229Y4318500D01*
X3410482Y4205548D01*
X3477237Y4101808D01*
X3579093Y4032213D01*
X3700000Y4007729D01*
X5700000Y4007729D01*
X5812952Y4028982D01*
X5916692Y4095737D01*
X5986287Y4197593D01*
X6010771Y4318500D01*
X6010771Y5618500D01*
X5989518Y5731452D01*
X5922763Y5835192D01*
X5820907Y5904787D01*
X5700000Y5929271D01*
X3700000Y5929271D01*
X3587048Y5908018D01*
X3483308Y5841263D01*
X3413713Y5739407D01*
X3389229Y5618500D01*
X2463800Y5618500D01*
X2463800Y7618500D01*
X3389229Y7618500D01*
X3389229Y6318500D01*
X3410482Y6205548D01*
X3477237Y6101808D01*
X3579093Y6032213D01*
X3700000Y6007729D01*
X5700000Y6007729D01*
X5812952Y6028982D01*
X5916692Y6095737D01*
X5986287Y6197593D01*
X6010771Y6318500D01*
X6010771Y7618500D01*
X5989518Y7731452D01*
X5922763Y7835192D01*
X5820907Y7904787D01*
X5700000Y7929271D01*
X3700000Y7929271D01*
X3587048Y7908018D01*
X3483308Y7841263D01*
X3413713Y7739407D01*
X3389229Y7618500D01*
X2463800Y7618500D01*
X2463800Y8854200D01*
X3344400Y8854200D01*
X3344400Y8247767D01*
X3398537Y8117069D01*
X3498569Y8017037D01*
X3629267Y7962900D01*
X4585700Y7962900D01*
X4674600Y8051800D01*
X4674600Y8943100D01*
X4725400Y8943100D01*
X4725400Y8051800D01*
X4814300Y7962900D01*
X5770733Y7962900D01*
X5901431Y8017037D01*
X6001463Y8117069D01*
X6055600Y8247767D01*
X6055600Y8854200D01*
X5966700Y8943100D01*
X4725400Y8943100D01*
X4674600Y8943100D01*
X3433300Y8943100D01*
X3344400Y8854200D01*
X2463800Y8854200D01*
X2463800Y9689233D01*
X3344400Y9689233D01*
X3344400Y9082800D01*
X3433300Y8993900D01*
X4674600Y8993900D01*
X4674600Y9885200D01*
X4725400Y9885200D01*
X4725400Y8993900D01*
X5966700Y8993900D01*
X6055600Y9082800D01*
X6055600Y9689233D01*
X6001463Y9819931D01*
X5901431Y9919963D01*
X5770733Y9974100D01*
X4814300Y9974100D01*
X4725400Y9885200D01*
X4674600Y9885200D01*
X4585700Y9974100D01*
X3629267Y9974100D01*
X3498569Y9919963D01*
X3398537Y9819931D01*
X3344400Y9689233D01*
X2463800Y9689233D01*
X2463800Y10160000D01*
X2421264Y10373844D01*
X2300131Y10555131D01*
X2118844Y10676264D01*
X1905000Y10718800D01*
X1691156Y10676264D01*
X1509869Y10555131D01*
X1388736Y10373844D01*
X1346200Y10160000D01*
X1346200Y1509318D01*
X379800Y542918D01*
X379800Y19266595D01*
X435101Y19544614D01*
X571401Y19748599D01*
X775386Y19884899D01*
X1053405Y19940200D01*
X27394595Y19940200D01*
X27672614Y19884899D01*
X27672614Y19884899D01*
G37*
X27672614Y19884899D02*
X27876599Y19748599D01*
X28012899Y19544614D01*
X28068200Y19266595D01*
X28068200Y-48908395D01*
X28012899Y-49186414D01*
X27876599Y-49390399D01*
X27672614Y-49526699D01*
X27394595Y-49582000D01*
X1053405Y-49582000D01*
X775386Y-49526699D01*
X571401Y-49390399D01*
X435101Y-49186414D01*
X379800Y-48908395D01*
X379800Y-47155776D01*
X12133400Y-47155776D01*
X12133400Y-47601024D01*
X12206080Y-47966410D01*
X12413054Y-48276170D01*
X12722814Y-48483144D01*
X13088200Y-48555824D01*
X13453586Y-48483144D01*
X13763346Y-48276170D01*
X13970320Y-47966410D01*
X14043000Y-47601024D01*
X14043000Y-47155776D01*
X19383400Y-47155776D01*
X19383400Y-47601024D01*
X19456080Y-47966410D01*
X19663054Y-48276170D01*
X19972814Y-48483144D01*
X20338200Y-48555824D01*
X20703586Y-48483144D01*
X21013346Y-48276170D01*
X21220320Y-47966410D01*
X21293000Y-47601024D01*
X21293000Y-47155776D01*
X21220320Y-46790390D01*
X21013346Y-46480630D01*
X20802942Y-46340043D01*
X24899281Y-46340043D01*
X24907838Y-46383081D01*
X25095733Y-46814329D01*
X25434357Y-47140846D01*
X25872157Y-47312922D01*
X26060400Y-47242835D01*
X26060400Y-46151800D01*
X26111200Y-46151800D01*
X26111200Y-47242835D01*
X26299443Y-47312922D01*
X26737243Y-47140846D01*
X27075867Y-46814329D01*
X27263762Y-46383081D01*
X27272319Y-46340043D01*
X27202211Y-46151800D01*
X26111200Y-46151800D01*
X26060400Y-46151800D01*
X24969389Y-46151800D01*
X24899281Y-46340043D01*
X20802942Y-46340043D01*
X20703586Y-46273656D01*
X20338200Y-46200976D01*
X19972814Y-46273656D01*
X19663054Y-46480630D01*
X19456080Y-46790390D01*
X19383400Y-47155776D01*
X14043000Y-47155776D01*
X13970320Y-46790390D01*
X13763346Y-46480630D01*
X13453586Y-46273656D01*
X13088200Y-46200976D01*
X12722814Y-46273656D01*
X12413054Y-46480630D01*
X12206080Y-46790390D01*
X12133400Y-47155776D01*
X379800Y-47155776D01*
X379800Y-45912757D01*
X24899281Y-45912757D01*
X24969389Y-46101000D01*
X26060400Y-46101000D01*
X26060400Y-45009965D01*
X26111200Y-45009965D01*
X26111200Y-46101000D01*
X27202211Y-46101000D01*
X27272319Y-45912757D01*
X27263762Y-45869719D01*
X27075867Y-45438471D01*
X26737243Y-45111954D01*
X26299443Y-44939878D01*
X26111200Y-45009965D01*
X26060400Y-45009965D01*
X25872157Y-44939878D01*
X25434357Y-45111954D01*
X25095733Y-45438471D01*
X24907838Y-45869719D01*
X24899281Y-45912757D01*
X379800Y-45912757D01*
X379800Y-44907586D01*
X13383243Y-44907586D01*
X13520701Y-45240258D01*
X13775003Y-45495005D01*
X14107435Y-45633043D01*
X14467386Y-45633357D01*
X14800058Y-45495899D01*
X15054805Y-45241597D01*
X15192843Y-44909165D01*
X15192844Y-44907586D01*
X18233243Y-44907586D01*
X18370701Y-45240258D01*
X18625003Y-45495005D01*
X18957435Y-45633043D01*
X19317386Y-45633357D01*
X19650058Y-45495899D01*
X19904805Y-45241597D01*
X20042843Y-44909165D01*
X20043157Y-44549214D01*
X19905699Y-44216542D01*
X19651397Y-43961795D01*
X19318965Y-43823757D01*
X18959014Y-43823443D01*
X18626342Y-43960901D01*
X18371595Y-44215203D01*
X18233557Y-44547635D01*
X18233243Y-44907586D01*
X15192844Y-44907586D01*
X15193157Y-44549214D01*
X15055699Y-44216542D01*
X14801397Y-43961795D01*
X14468965Y-43823757D01*
X14109014Y-43823443D01*
X13776342Y-43960901D01*
X13521595Y-44215203D01*
X13383557Y-44547635D01*
X13383243Y-44907586D01*
X379800Y-44907586D01*
X379800Y-28498800D01*
X1485900Y-28498800D01*
X1538103Y-28761245D01*
X1686766Y-28983734D01*
X10335466Y-37632434D01*
X10557955Y-37781097D01*
X10820400Y-37833300D01*
X15633700Y-37833300D01*
X15896144Y-37781097D01*
X16118634Y-37632434D01*
X16267297Y-37409944D01*
X16319500Y-37147500D01*
X16267297Y-36885056D01*
X16118634Y-36662566D01*
X15896144Y-36513903D01*
X15633700Y-36461700D01*
X11104468Y-36461700D01*
X8255240Y-33612472D01*
X11599004Y-33612472D01*
X11683289Y-33816458D01*
X11839221Y-33972662D01*
X12043059Y-34057303D01*
X12263772Y-34057496D01*
X12467758Y-33973211D01*
X12623962Y-33817279D01*
X12708603Y-33613441D01*
X12708796Y-33392728D01*
X12624511Y-33188742D01*
X12585700Y-33149863D01*
X12585700Y-30020052D01*
X12636662Y-29969179D01*
X12721303Y-29765341D01*
X12721496Y-29544628D01*
X12637211Y-29340642D01*
X12481279Y-29184438D01*
X12277441Y-29099797D01*
X12056728Y-29099604D01*
X11852742Y-29183889D01*
X11696538Y-29339821D01*
X11611897Y-29543659D01*
X11611704Y-29764372D01*
X11695989Y-29968358D01*
X11722100Y-29994515D01*
X11722100Y-33149726D01*
X11683838Y-33187921D01*
X11599197Y-33391759D01*
X11599004Y-33612472D01*
X8255240Y-33612472D01*
X2656634Y-28013866D01*
X2434145Y-27865203D01*
X2171700Y-27813000D01*
X1909255Y-27865203D01*
X1686766Y-28013866D01*
X1538103Y-28236355D01*
X1485900Y-28498800D01*
X379800Y-28498800D01*
X379800Y-9590162D01*
X5294469Y-14504832D01*
X5294472Y-14504834D01*
X7181338Y-16391700D01*
X6766374Y-16391700D01*
X6728179Y-16353438D01*
X6524341Y-16268797D01*
X6303628Y-16268604D01*
X6099642Y-16352889D01*
X5943438Y-16508821D01*
X5858797Y-16712659D01*
X5858604Y-16933372D01*
X5942889Y-17137358D01*
X6098821Y-17293562D01*
X6302659Y-17378203D01*
X6523372Y-17378396D01*
X6727358Y-17294111D01*
X6766237Y-17255300D01*
X8727626Y-17255300D01*
X8765821Y-17293562D01*
X8969659Y-17378203D01*
X9190372Y-17378396D01*
X9394358Y-17294111D01*
X9550562Y-17138179D01*
X9635203Y-16934341D01*
X9635385Y-16725900D01*
X16717198Y-16725900D01*
X16717198Y-19866798D01*
X16759734Y-20080642D01*
X16880867Y-20261929D01*
X18252470Y-21633533D01*
X18252473Y-21633535D01*
X18502469Y-21883531D01*
X18519441Y-21894872D01*
X18582921Y-21958462D01*
X18666634Y-21993223D01*
X18683757Y-22004664D01*
X18703779Y-22008647D01*
X18786759Y-22043103D01*
X18877401Y-22043182D01*
X18897600Y-22047200D01*
X18917622Y-22043217D01*
X19007472Y-22043296D01*
X19091246Y-22008681D01*
X19111443Y-22004664D01*
X19128415Y-21993323D01*
X19211458Y-21959011D01*
X19275609Y-21894971D01*
X19292731Y-21883531D01*
X19304072Y-21866559D01*
X19367662Y-21803079D01*
X19402423Y-21719366D01*
X19413864Y-21702243D01*
X19417847Y-21682221D01*
X19452303Y-21599241D01*
X19452382Y-21508599D01*
X19456400Y-21488400D01*
X19452417Y-21468378D01*
X19452496Y-21378528D01*
X19417881Y-21294754D01*
X19413864Y-21274557D01*
X19402523Y-21257585D01*
X19368211Y-21174542D01*
X19304171Y-21110391D01*
X19292731Y-21093269D01*
X19042735Y-20843273D01*
X19042733Y-20843270D01*
X17834798Y-19635336D01*
X17834798Y-16505915D01*
X18042272Y-16506096D01*
X18246258Y-16421811D01*
X18402462Y-16265879D01*
X18487103Y-16062041D01*
X18487151Y-16007107D01*
X22174200Y-12320057D01*
X22174200Y-16483542D01*
X21636849Y-15946191D01*
X21636896Y-15892128D01*
X21552611Y-15688142D01*
X21396679Y-15531938D01*
X21192841Y-15447297D01*
X20972128Y-15447104D01*
X20768142Y-15531389D01*
X20701064Y-15598350D01*
X20685479Y-15582738D01*
X20481641Y-15498097D01*
X20260928Y-15497904D01*
X20056942Y-15582189D01*
X19900738Y-15738121D01*
X19816097Y-15941959D01*
X19815904Y-16162672D01*
X19900189Y-16366658D01*
X20056121Y-16522862D01*
X20259959Y-16607503D01*
X20314893Y-16607551D01*
X20315470Y-16608128D01*
X20332723Y-16619656D01*
X21113125Y-17400058D01*
X21113125Y-33546618D01*
X19146591Y-35513151D01*
X19092528Y-35513104D01*
X18888542Y-35597389D01*
X18732338Y-35753321D01*
X18647697Y-35957159D01*
X18647504Y-36177872D01*
X18731789Y-36381858D01*
X18887721Y-36538062D01*
X19091559Y-36622703D01*
X19294047Y-36622880D01*
X19341389Y-36737458D01*
X19497321Y-36893662D01*
X19701159Y-36978303D01*
X19921872Y-36978496D01*
X19985799Y-36952082D01*
X19985799Y-42400824D01*
X19853742Y-42455389D01*
X19697538Y-42611321D01*
X19612897Y-42815159D01*
X19612704Y-43035872D01*
X19696989Y-43239858D01*
X19852921Y-43396062D01*
X20056759Y-43480703D01*
X20277472Y-43480896D01*
X20481458Y-43396611D01*
X20637662Y-43240679D01*
X20722303Y-43036841D01*
X20722351Y-42981907D01*
X20722928Y-42981330D01*
X20759898Y-42926000D01*
X20816530Y-42841244D01*
X20849399Y-42676001D01*
X20849399Y-36860459D01*
X22669500Y-35040357D01*
X22669500Y-36816400D01*
X22707202Y-37005944D01*
X22814570Y-37166630D01*
X24504570Y-38856630D01*
X24665257Y-38963998D01*
X24854800Y-39001700D01*
X24925029Y-39001700D01*
X24925029Y-39356400D01*
X24946282Y-39469352D01*
X25013037Y-39573092D01*
X25114893Y-39642687D01*
X25235800Y-39667171D01*
X26637001Y-39667171D01*
X26637001Y-39884542D01*
X26543417Y-39978126D01*
X26108424Y-39891600D01*
X26063176Y-39891600D01*
X25621253Y-39979504D01*
X25246609Y-40229833D01*
X24996280Y-40604477D01*
X24908376Y-41046400D01*
X24996280Y-41488323D01*
X25246609Y-41862967D01*
X25621253Y-42113296D01*
X26063176Y-42201200D01*
X26108424Y-42201200D01*
X26550347Y-42113296D01*
X26924991Y-41862967D01*
X27076400Y-41636367D01*
X27076400Y-41985143D01*
X26543417Y-42518126D01*
X26108424Y-42431600D01*
X26063176Y-42431600D01*
X25621253Y-42519504D01*
X25246609Y-42769833D01*
X24996280Y-43144477D01*
X24908376Y-43586400D01*
X24996280Y-44028323D01*
X25246609Y-44402967D01*
X25621253Y-44653296D01*
X26063176Y-44741200D01*
X26108424Y-44741200D01*
X26550347Y-44653296D01*
X26924991Y-44402967D01*
X27175320Y-44028323D01*
X27263224Y-43586400D01*
X27175320Y-43144477D01*
X27160524Y-43122333D01*
X27813526Y-42469331D01*
X27813529Y-42469329D01*
X27907131Y-42329243D01*
X27940000Y-42164000D01*
X27940000Y-30580939D01*
X27907131Y-30415696D01*
X27813529Y-30275610D01*
X27813526Y-30275608D01*
X24812510Y-27274591D01*
X24812557Y-27220528D01*
X24728272Y-27016542D01*
X24572340Y-26860338D01*
X24368502Y-26775697D01*
X24147789Y-26775504D01*
X23943803Y-26859789D01*
X23787599Y-27015721D01*
X23773686Y-27049228D01*
X23745049Y-27020591D01*
X23745096Y-26966528D01*
X23660811Y-26762542D01*
X23504879Y-26606338D01*
X23301041Y-26521697D01*
X23080328Y-26521504D01*
X23037800Y-26539076D01*
X23037800Y-23123320D01*
X23066659Y-23135303D01*
X23287372Y-23135496D01*
X23491358Y-23051211D01*
X23530237Y-23012400D01*
X24386726Y-23012400D01*
X24424921Y-23050662D01*
X24628759Y-23135303D01*
X24849472Y-23135496D01*
X25053458Y-23051211D01*
X25209662Y-22895279D01*
X25294303Y-22691441D01*
X25294496Y-22470728D01*
X25210211Y-22266742D01*
X25054279Y-22110538D01*
X24850441Y-22025897D01*
X24629728Y-22025704D01*
X24425742Y-22109989D01*
X24386863Y-22148800D01*
X23530374Y-22148800D01*
X23492179Y-22110538D01*
X23288341Y-22025897D01*
X23067628Y-22025704D01*
X23037800Y-22038029D01*
X23037800Y-12167658D01*
X23368526Y-11836931D01*
X23368529Y-11836929D01*
X23462131Y-11696843D01*
X23495000Y-11531600D01*
X23495000Y-7414074D01*
X23533262Y-7375879D01*
X23617903Y-7172041D01*
X23618096Y-6951328D01*
X23533811Y-6747342D01*
X23377879Y-6591138D01*
X23174041Y-6506497D01*
X22953328Y-6506304D01*
X22749342Y-6590589D01*
X22669500Y-6670292D01*
X22669500Y-2219200D01*
X22636631Y-2053957D01*
X22543029Y-1913871D01*
X22543026Y-1913869D01*
X22010771Y-1381614D01*
X22010771Y-381500D01*
X21989518Y-268548D01*
X21922763Y-164808D01*
X21820907Y-95213D01*
X21700000Y-70729D01*
X19700000Y-70729D01*
X19685000Y-73551D01*
X19685000Y10767D01*
X19700000Y7729D01*
X21700000Y7729D01*
X21812952Y28982D01*
X21916692Y95737D01*
X21986287Y197593D01*
X22010771Y318500D01*
X22010771Y427060D01*
X22050659Y410497D01*
X22271372Y410304D01*
X22475358Y494589D01*
X22631562Y650521D01*
X22716203Y854359D01*
X22716396Y1075072D01*
X22632111Y1279058D01*
X22476179Y1435262D01*
X22272341Y1519903D01*
X22051628Y1520096D01*
X22010771Y1503214D01*
X22010771Y1618500D01*
X21989518Y1731452D01*
X21922763Y1835192D01*
X21820907Y1904787D01*
X21700000Y1929271D01*
X19700000Y1929271D01*
X19685000Y1926449D01*
X19685000Y2010767D01*
X19700000Y2007729D01*
X21700000Y2007729D01*
X21812952Y2028982D01*
X21916692Y2095737D01*
X21986287Y2197593D01*
X22010771Y2318500D01*
X22010771Y3618500D01*
X21989518Y3731452D01*
X21922763Y3835192D01*
X21820907Y3904787D01*
X21700000Y3929271D01*
X19700000Y3929271D01*
X19685000Y3926449D01*
X19685000Y4010767D01*
X19700000Y4007729D01*
X21700000Y4007729D01*
X21812952Y4028982D01*
X21916692Y4095737D01*
X21986287Y4197593D01*
X22010771Y4318500D01*
X22010771Y5618500D01*
X21989518Y5731452D01*
X21922763Y5835192D01*
X21820907Y5904787D01*
X21700000Y5929271D01*
X19700000Y5929271D01*
X19685000Y5926449D01*
X19685000Y5962900D01*
X20585700Y5962900D01*
X20674600Y6051800D01*
X20674600Y6943100D01*
X20725400Y6943100D01*
X20725400Y6051800D01*
X20814300Y5962900D01*
X21770733Y5962900D01*
X21901431Y6017037D01*
X22001463Y6117069D01*
X22055600Y6247767D01*
X22055600Y6339200D01*
X22118900Y6339200D01*
X22118900Y5747767D01*
X22173037Y5617069D01*
X22273069Y5517037D01*
X22403767Y5462900D01*
X24460200Y5462900D01*
X24549100Y5551800D01*
X24549100Y6428100D01*
X24599900Y6428100D01*
X24599900Y5551800D01*
X24688800Y5462900D01*
X26745233Y5462900D01*
X26875931Y5517037D01*
X26975963Y5617069D01*
X27030100Y5747767D01*
X27030100Y6339200D01*
X26941200Y6428100D01*
X24599900Y6428100D01*
X24549100Y6428100D01*
X22207800Y6428100D01*
X22118900Y6339200D01*
X22055600Y6339200D01*
X22055600Y6854200D01*
X21966700Y6943100D01*
X20725400Y6943100D01*
X20674600Y6943100D01*
X20654600Y6943100D01*
X20654600Y6993900D01*
X20674600Y6993900D01*
X20674600Y7885200D01*
X20725400Y7885200D01*
X20725400Y6993900D01*
X21966700Y6993900D01*
X22055600Y7082800D01*
X22055600Y7159233D01*
X22118900Y7159233D01*
X22118900Y6567800D01*
X22207800Y6478900D01*
X24549100Y6478900D01*
X24549100Y7355200D01*
X24599900Y7355200D01*
X24599900Y6478900D01*
X26941200Y6478900D01*
X27030100Y6567800D01*
X27030100Y7159233D01*
X26975963Y7289931D01*
X26875931Y7389963D01*
X26745233Y7444100D01*
X24688800Y7444100D01*
X24599900Y7355200D01*
X24549100Y7355200D01*
X24460200Y7444100D01*
X22403767Y7444100D01*
X22273069Y7389963D01*
X22173037Y7289931D01*
X22118900Y7159233D01*
X22055600Y7159233D01*
X22055600Y7689233D01*
X22001463Y7819931D01*
X21901431Y7919963D01*
X21770733Y7974100D01*
X20814300Y7974100D01*
X20725400Y7885200D01*
X20674600Y7885200D01*
X20585700Y7974100D01*
X19685000Y7974100D01*
X19685000Y8010767D01*
X19700000Y8007729D01*
X21700000Y8007729D01*
X21811453Y8028700D01*
X22370941Y8028700D01*
X22474500Y8007729D01*
X26674500Y8007729D01*
X26787452Y8028982D01*
X26891192Y8095737D01*
X26960787Y8197593D01*
X26985271Y8318500D01*
X26985271Y9588500D01*
X26964018Y9701452D01*
X26897263Y9805192D01*
X26795407Y9874787D01*
X26674500Y9899271D01*
X24604892Y9899271D01*
X24559500Y9908300D01*
X21803559Y9908300D01*
X21700000Y9929271D01*
X19700000Y9929271D01*
X19685000Y9926449D01*
X19685000Y12088500D01*
X22163729Y12088500D01*
X22163729Y10818500D01*
X22184982Y10705548D01*
X22251737Y10601808D01*
X22353593Y10532213D01*
X22474500Y10507729D01*
X26674500Y10507729D01*
X26787452Y10528982D01*
X26891192Y10595737D01*
X26960787Y10697593D01*
X26985271Y10818500D01*
X26985271Y12088500D01*
X26964018Y12201452D01*
X26897263Y12305192D01*
X26795407Y12374787D01*
X26674500Y12399271D01*
X22474500Y12399271D01*
X22361548Y12378018D01*
X22257808Y12311263D01*
X22188213Y12209407D01*
X22163729Y12088500D01*
X19685000Y12088500D01*
X19685000Y14094138D01*
X22511673Y16920810D01*
X22834600Y16856576D01*
X23276523Y16944480D01*
X23651167Y17194809D01*
X23901496Y17569453D01*
X23951403Y17820357D01*
X24188078Y17820357D01*
X24360154Y17382557D01*
X24686671Y17043933D01*
X25117919Y16856038D01*
X25160957Y16847481D01*
X25349200Y16917589D01*
X25349200Y18008600D01*
X25400000Y18008600D01*
X25400000Y16917589D01*
X25588243Y16847481D01*
X25631281Y16856038D01*
X26062529Y17043933D01*
X26389046Y17382557D01*
X26561122Y17820357D01*
X26491035Y18008600D01*
X25400000Y18008600D01*
X25349200Y18008600D01*
X24258165Y18008600D01*
X24188078Y17820357D01*
X23951403Y17820357D01*
X23989400Y18011376D01*
X23989400Y18056624D01*
X23951404Y18247643D01*
X24188078Y18247643D01*
X24258165Y18059400D01*
X25349200Y18059400D01*
X25349200Y19150411D01*
X25400000Y19150411D01*
X25400000Y18059400D01*
X26491035Y18059400D01*
X26561122Y18247643D01*
X26389046Y18685443D01*
X26062529Y19024067D01*
X25631281Y19211962D01*
X25588243Y19220519D01*
X25400000Y19150411D01*
X25349200Y19150411D01*
X25160957Y19220519D01*
X25117919Y19211962D01*
X24686671Y19024067D01*
X24360154Y18685443D01*
X24188078Y18247643D01*
X23951404Y18247643D01*
X23901496Y18498547D01*
X23651167Y18873191D01*
X23276523Y19123520D01*
X22834600Y19211424D01*
X22392677Y19123520D01*
X22018033Y18873191D01*
X21767704Y18498547D01*
X21679800Y18056624D01*
X21679800Y18011376D01*
X21736527Y17726190D01*
X21455371Y17445034D01*
X21455371Y18884000D01*
X21434118Y18996952D01*
X21367363Y19100692D01*
X21265507Y19170287D01*
X21144600Y19194771D01*
X19444600Y19194771D01*
X19331648Y19173518D01*
X19227908Y19106763D01*
X19158313Y19004907D01*
X19133829Y18884000D01*
X19133829Y17184000D01*
X19155082Y17071048D01*
X19221837Y16967308D01*
X19323693Y16897713D01*
X19444600Y16873229D01*
X20883566Y16873229D01*
X19018437Y15008099D01*
X16479868Y17546668D01*
X16440223Y17573158D01*
X16348023Y17634765D01*
X16192500Y17665700D01*
X16177030Y17665700D01*
X16113479Y17729362D01*
X15909641Y17814003D01*
X15688928Y17814196D01*
X15484942Y17729911D01*
X15420619Y17665700D01*
X11617730Y17665700D01*
X11554179Y17729362D01*
X11350341Y17814003D01*
X11129628Y17814196D01*
X10925642Y17729911D01*
X10861319Y17665700D01*
X7388630Y17665700D01*
X7325079Y17729362D01*
X7121241Y17814003D01*
X6900528Y17814196D01*
X6696542Y17729911D01*
X6632219Y17665700D01*
X3032530Y17665700D01*
X2968979Y17729362D01*
X2765141Y17814003D01*
X2544428Y17814196D01*
X2340442Y17729911D01*
X2184238Y17573979D01*
X2099597Y17370141D01*
X2099404Y17149428D01*
X2183689Y16945442D01*
X2339621Y16789238D01*
X2543459Y16704597D01*
X2764172Y16704404D01*
X2968158Y16788689D01*
X3032481Y16852900D01*
X6632170Y16852900D01*
X6695721Y16789238D01*
X6899559Y16704597D01*
X7120272Y16704404D01*
X7324258Y16788689D01*
X7388581Y16852900D01*
X10861270Y16852900D01*
X10924821Y16789238D01*
X11128659Y16704597D01*
X11349372Y16704404D01*
X11553358Y16788689D01*
X11617681Y16852900D01*
X15420570Y16852900D01*
X15484121Y16789238D01*
X15687959Y16704597D01*
X15908672Y16704404D01*
X16095475Y16781589D01*
X18567400Y14309664D01*
X18567400Y-2717800D01*
X17167674Y-2717800D01*
X17129479Y-2679538D01*
X16925641Y-2594897D01*
X16704928Y-2594704D01*
X16500942Y-2678989D01*
X16344738Y-2834921D01*
X16260097Y-3038759D01*
X16259904Y-3259472D01*
X16344189Y-3463458D01*
X16383000Y-3502337D01*
X16383000Y-3558726D01*
X16344738Y-3596921D01*
X16260097Y-3800759D01*
X16259904Y-4021472D01*
X16344189Y-4225458D01*
X16500121Y-4381662D01*
X16703959Y-4466303D01*
X16924672Y-4466496D01*
X17128658Y-4382211D01*
X17167537Y-4343400D01*
X18567400Y-4343400D01*
X18567400Y-10931838D01*
X16880867Y-12618371D01*
X16759734Y-12799658D01*
X16717198Y-13013502D01*
X16717198Y-15608300D01*
X10160615Y-15608300D01*
X10160796Y-15400828D01*
X10076511Y-15196842D01*
X9920579Y-15040638D01*
X9716741Y-14955997D01*
X9496028Y-14955804D01*
X9292042Y-15040089D01*
X9253163Y-15078900D01*
X8023812Y-15078900D01*
X7585525Y-14640613D01*
X7721161Y-14640732D01*
X7925147Y-14556447D01*
X8081351Y-14400515D01*
X8165992Y-14196677D01*
X8166185Y-13975964D01*
X8081900Y-13771978D01*
X7962900Y-13652770D01*
X7962900Y-11706387D01*
X8001162Y-11668192D01*
X8085803Y-11464354D01*
X8085897Y-11357355D01*
X8529901Y-11801359D01*
X8529903Y-11801362D01*
X8669989Y-11894964D01*
X8697405Y-11900418D01*
X8835232Y-11927834D01*
X8835237Y-11927833D01*
X10645523Y-11927833D01*
X10683989Y-12020927D01*
X10839921Y-12177131D01*
X11043759Y-12261772D01*
X11129228Y-12261847D01*
X11129104Y-12403472D01*
X11213389Y-12607458D01*
X11369321Y-12763662D01*
X11573159Y-12848303D01*
X11793872Y-12848496D01*
X11997858Y-12764211D01*
X12154062Y-12608279D01*
X12238703Y-12404441D01*
X12238759Y-12340422D01*
X12323272Y-12340496D01*
X12527258Y-12256211D01*
X12683462Y-12100279D01*
X12768103Y-11896441D01*
X12768296Y-11675728D01*
X12684011Y-11471742D01*
X12645200Y-11432863D01*
X12645200Y-10952850D01*
X12612331Y-10787607D01*
X12518729Y-10647521D01*
X11725879Y-9854671D01*
X11668858Y-9816571D01*
X11585793Y-9761069D01*
X11420550Y-9728200D01*
X8827558Y-9728200D01*
X8463500Y-9364142D01*
X8463500Y-8987515D01*
X8505193Y-8987551D01*
X8505770Y-8988128D01*
X8645856Y-9081730D01*
X8811099Y-9114599D01*
X10891541Y-9114599D01*
X11073869Y-9296926D01*
X11073871Y-9296929D01*
X11130102Y-9334501D01*
X11213958Y-9390532D01*
X11379200Y-9423401D01*
X11379205Y-9423400D01*
X12293600Y-9423400D01*
X12458843Y-9390531D01*
X12598929Y-9296929D01*
X12877800Y-9018058D01*
X12877800Y-12042326D01*
X12839538Y-12080521D01*
X12754897Y-12284359D01*
X12754704Y-12505072D01*
X12838989Y-12709058D01*
X12994921Y-12865262D01*
X13198759Y-12949903D01*
X13419472Y-12950096D01*
X13623458Y-12865811D01*
X13779662Y-12709879D01*
X13864303Y-12506041D01*
X13864496Y-12285328D01*
X13780211Y-12081342D01*
X13741400Y-12042463D01*
X13741400Y-2586715D01*
X13948872Y-2586896D01*
X14152858Y-2502611D01*
X14309062Y-2346679D01*
X14393703Y-2142841D01*
X14393896Y-1922128D01*
X14309611Y-1718142D01*
X14270800Y-1679263D01*
X14270800Y11170942D01*
X14279809Y11179951D01*
X14333872Y11179904D01*
X14537858Y11264189D01*
X14694062Y11420121D01*
X14778703Y11623959D01*
X14778896Y11844672D01*
X14694611Y12048658D01*
X14538679Y12204862D01*
X14334841Y12289503D01*
X14114128Y12289696D01*
X13910142Y12205411D01*
X13753938Y12049479D01*
X13669297Y11845641D01*
X13669249Y11790707D01*
X13533671Y11655129D01*
X13440069Y11515043D01*
X13407200Y11349800D01*
X13407200Y11273515D01*
X13199728Y11273696D01*
X12995742Y11189411D01*
X12839538Y11033479D01*
X12812376Y10968066D01*
X12810841Y10968703D01*
X12590128Y10968896D01*
X12386142Y10884611D01*
X12318975Y10817561D01*
X12201879Y10934862D01*
X12025259Y11008201D01*
X14860058Y13843000D01*
X17427126Y13843000D01*
X17465321Y13804738D01*
X17669159Y13720097D01*
X17889872Y13719904D01*
X18093858Y13804189D01*
X18250062Y13960121D01*
X18334703Y14163959D01*
X18334896Y14384672D01*
X18250611Y14588658D01*
X18094679Y14744862D01*
X17890841Y14829503D01*
X17670128Y14829696D01*
X17466142Y14745411D01*
X17427263Y14706600D01*
X14681200Y14706600D01*
X14515957Y14673731D01*
X14389864Y14589479D01*
X14375871Y14580129D01*
X10311871Y10516129D01*
X10218269Y10376043D01*
X10185400Y10210800D01*
X10185400Y-6352047D01*
X10218269Y-6517290D01*
X10293178Y-6629400D01*
X10311871Y-6657376D01*
X10821295Y-7166800D01*
X10512874Y-7166800D01*
X10474679Y-7128538D01*
X10270841Y-7043897D01*
X10050128Y-7043704D01*
X9846142Y-7127989D01*
X9801923Y-7172131D01*
X9729057Y-7099138D01*
X9525219Y-7014497D01*
X9304506Y-7014304D01*
X9100520Y-7098589D01*
X8944316Y-7254521D01*
X8859675Y-7458359D01*
X8859482Y-7679072D01*
X8943767Y-7883058D01*
X8982578Y-7921937D01*
X8982578Y-7922753D01*
X9015447Y-8087996D01*
X9067281Y-8165571D01*
X9109049Y-8228082D01*
X9131966Y-8250999D01*
X9086276Y-8250999D01*
X9031711Y-8118942D01*
X8875779Y-7962738D01*
X8671941Y-7878097D01*
X8463500Y-7877915D01*
X8463500Y-4013205D01*
X8463501Y-4013200D01*
X8430632Y-3847958D01*
X8337382Y-3708400D01*
X8337029Y-3707871D01*
X8337026Y-3707869D01*
X6010771Y-1381613D01*
X6010771Y-381500D01*
X5989518Y-268548D01*
X5922763Y-164808D01*
X5820907Y-95213D01*
X5700000Y-70729D01*
X3700000Y-70729D01*
X3587048Y-91982D01*
X3483308Y-158737D01*
X3413713Y-260593D01*
X3389229Y-381500D01*
X3389229Y-1681500D01*
X3410482Y-1794452D01*
X3477237Y-1898192D01*
X3579093Y-1967787D01*
X3700000Y-1992271D01*
X5400113Y-1992271D01*
X5478571Y-2070729D01*
X3700000Y-2070729D01*
X3587048Y-2091982D01*
X3483308Y-2158737D01*
X3413713Y-2260593D01*
X3389229Y-2381500D01*
X3389229Y-3381613D01*
X3214100Y-3556742D01*
X3214100Y125942D01*
X3391989Y303831D01*
X3410482Y205548D01*
X3477237Y101808D01*
X3579093Y32213D01*
X3700000Y7729D01*
X5700000Y7729D01*
X5812952Y28982D01*
X5916692Y95737D01*
X5986287Y197593D01*
X6010771Y318500D01*
X6010771Y1618500D01*
X5989518Y1731452D01*
X5922763Y1835192D01*
X5820907Y1904787D01*
X5700000Y1929271D01*
X3921429Y1929271D01*
X3999887Y2007729D01*
X5700000Y2007729D01*
X5812952Y2028982D01*
X5916692Y2095737D01*
X5986287Y2197593D01*
X6010771Y2318500D01*
X6010771Y3618500D01*
X5989518Y3731452D01*
X5922763Y3835192D01*
X5820907Y3904787D01*
X5700000Y3929271D01*
X3700000Y3929271D01*
X3587048Y3908018D01*
X3483308Y3841263D01*
X3413713Y3739407D01*
X3389229Y3618500D01*
X3389229Y2618387D01*
X2463800Y1692958D01*
X2463800Y5618500D01*
X3389229Y5618500D01*
X3389229Y4318500D01*
X3410482Y4205548D01*
X3477237Y4101808D01*
X3579093Y4032213D01*
X3700000Y4007729D01*
X5700000Y4007729D01*
X5812952Y4028982D01*
X5916692Y4095737D01*
X5986287Y4197593D01*
X6010771Y4318500D01*
X6010771Y5618500D01*
X5989518Y5731452D01*
X5922763Y5835192D01*
X5820907Y5904787D01*
X5700000Y5929271D01*
X3700000Y5929271D01*
X3587048Y5908018D01*
X3483308Y5841263D01*
X3413713Y5739407D01*
X3389229Y5618500D01*
X2463800Y5618500D01*
X2463800Y7618500D01*
X3389229Y7618500D01*
X3389229Y6318500D01*
X3410482Y6205548D01*
X3477237Y6101808D01*
X3579093Y6032213D01*
X3700000Y6007729D01*
X5700000Y6007729D01*
X5812952Y6028982D01*
X5916692Y6095737D01*
X5986287Y6197593D01*
X6010771Y6318500D01*
X6010771Y7618500D01*
X5989518Y7731452D01*
X5922763Y7835192D01*
X5820907Y7904787D01*
X5700000Y7929271D01*
X3700000Y7929271D01*
X3587048Y7908018D01*
X3483308Y7841263D01*
X3413713Y7739407D01*
X3389229Y7618500D01*
X2463800Y7618500D01*
X2463800Y8854200D01*
X3344400Y8854200D01*
X3344400Y8247767D01*
X3398537Y8117069D01*
X3498569Y8017037D01*
X3629267Y7962900D01*
X4585700Y7962900D01*
X4674600Y8051800D01*
X4674600Y8943100D01*
X4725400Y8943100D01*
X4725400Y8051800D01*
X4814300Y7962900D01*
X5770733Y7962900D01*
X5901431Y8017037D01*
X6001463Y8117069D01*
X6055600Y8247767D01*
X6055600Y8854200D01*
X5966700Y8943100D01*
X4725400Y8943100D01*
X4674600Y8943100D01*
X3433300Y8943100D01*
X3344400Y8854200D01*
X2463800Y8854200D01*
X2463800Y9689233D01*
X3344400Y9689233D01*
X3344400Y9082800D01*
X3433300Y8993900D01*
X4674600Y8993900D01*
X4674600Y9885200D01*
X4725400Y9885200D01*
X4725400Y8993900D01*
X5966700Y8993900D01*
X6055600Y9082800D01*
X6055600Y9689233D01*
X6001463Y9819931D01*
X5901431Y9919963D01*
X5770733Y9974100D01*
X4814300Y9974100D01*
X4725400Y9885200D01*
X4674600Y9885200D01*
X4585700Y9974100D01*
X3629267Y9974100D01*
X3498569Y9919963D01*
X3398537Y9819931D01*
X3344400Y9689233D01*
X2463800Y9689233D01*
X2463800Y10160000D01*
X2421264Y10373844D01*
X2300131Y10555131D01*
X2118844Y10676264D01*
X1905000Y10718800D01*
X1691156Y10676264D01*
X1509869Y10555131D01*
X1388736Y10373844D01*
X1346200Y10160000D01*
X1346200Y1509318D01*
X379800Y542918D01*
X379800Y19266595D01*
X435101Y19544614D01*
X571401Y19748599D01*
X775386Y19884899D01*
X1053405Y19940200D01*
X27394595Y19940200D01*
X27672614Y19884899D01*
G36*
X7599900Y-4192057D02*
X7599900Y-9075292D01*
X6715568Y-8190960D01*
X6677570Y-8165571D01*
X6575482Y-8097358D01*
X6410239Y-8064489D01*
X5779557Y-8064489D01*
X3752169Y-6037100D01*
X4585700Y-6037100D01*
X4674600Y-5948200D01*
X4674600Y-5056900D01*
X4725400Y-5056900D01*
X4725400Y-5948200D01*
X4814300Y-6037100D01*
X5770733Y-6037100D01*
X5901431Y-5982963D01*
X6001463Y-5882931D01*
X6055600Y-5752233D01*
X6055600Y-5145800D01*
X5966700Y-5056900D01*
X4725400Y-5056900D01*
X4674600Y-5056900D01*
X4654600Y-5056900D01*
X4654600Y-5006100D01*
X4674600Y-5006100D01*
X4674600Y-4114800D01*
X4725400Y-4114800D01*
X4725400Y-5006100D01*
X5966700Y-5006100D01*
X6055600Y-4917200D01*
X6055600Y-4310767D01*
X6001463Y-4180069D01*
X5901431Y-4080037D01*
X5770733Y-4025900D01*
X4814300Y-4025900D01*
X4725400Y-4114800D01*
X4674600Y-4114800D01*
X4585700Y-4025900D01*
X3966258Y-4025900D01*
X3999887Y-3992271D01*
X5700000Y-3992271D01*
X5812952Y-3971018D01*
X5916692Y-3904263D01*
X5986287Y-3802407D01*
X6010771Y-3681500D01*
X6010771Y-2602929D01*
X7599900Y-4192057D01*
X7599900Y-4192057D01*
G37*
X7599900Y-4192057D02*
X7599900Y-9075292D01*
X6715568Y-8190960D01*
X6677570Y-8165571D01*
X6575482Y-8097358D01*
X6410239Y-8064489D01*
X5779557Y-8064489D01*
X3752169Y-6037100D01*
X4585700Y-6037100D01*
X4674600Y-5948200D01*
X4674600Y-5056900D01*
X4725400Y-5056900D01*
X4725400Y-5948200D01*
X4814300Y-6037100D01*
X5770733Y-6037100D01*
X5901431Y-5982963D01*
X6001463Y-5882931D01*
X6055600Y-5752233D01*
X6055600Y-5145800D01*
X5966700Y-5056900D01*
X4725400Y-5056900D01*
X4674600Y-5056900D01*
X4654600Y-5056900D01*
X4654600Y-5006100D01*
X4674600Y-5006100D01*
X4674600Y-4114800D01*
X4725400Y-4114800D01*
X4725400Y-5006100D01*
X5966700Y-5006100D01*
X6055600Y-4917200D01*
X6055600Y-4310767D01*
X6001463Y-4180069D01*
X5901431Y-4080037D01*
X5770733Y-4025900D01*
X4814300Y-4025900D01*
X4725400Y-4114800D01*
X4674600Y-4114800D01*
X4585700Y-4025900D01*
X3966258Y-4025900D01*
X3999887Y-3992271D01*
X5700000Y-3992271D01*
X5812952Y-3971018D01*
X5916692Y-3904263D01*
X5986287Y-3802407D01*
X6010771Y-3681500D01*
X6010771Y-2602929D01*
X7599900Y-4192057D01*
M02*
