G04 #@! TF.GenerationSoftware,KiCad,Pcbnew,5.0.1-33cea8e~67~ubuntu18.04.1*
G04 #@! TF.CreationDate,2018-11-07T11:59:42-08:00*
G04 #@! TF.ProjectId,fk-sonar,666B2D736F6E61722E6B696361645F70,0.1*
G04 #@! TF.SameCoordinates,PX791ddc0PY791ddc0*
G04 #@! TF.FileFunction,Soldermask,Bot*
G04 #@! TF.FilePolarity,Negative*
%FSLAX46Y46*%
G04 Gerber Fmt 4.6, Leading zero omitted, Abs format (unit mm)*
G04 Created by KiCad (PCBNEW 5.0.1-33cea8e~67~ubuntu18.04.1) date Wed 07 Nov 2018 11:59:42 AM PST*
%MOMM*%
%LPD*%
G01*
G04 APERTURE LIST*
%ADD10C,0.100000*%
G04 APERTURE END LIST*
D10*
G36*
X28075600Y-2396701D02*
X28302881Y-2441909D01*
X28552496Y-2545303D01*
X28777144Y-2695408D01*
X28968192Y-2886456D01*
X29118297Y-3111104D01*
X29221691Y-3360719D01*
X29274400Y-3625709D01*
X29274400Y-3895891D01*
X29221691Y-4160881D01*
X29118297Y-4410496D01*
X28968192Y-4635144D01*
X28777144Y-4826192D01*
X28552496Y-4976297D01*
X28302881Y-5079691D01*
X28075600Y-5124899D01*
X28037892Y-5132400D01*
X27767708Y-5132400D01*
X27730000Y-5124899D01*
X27502719Y-5079691D01*
X27253104Y-4976297D01*
X27028456Y-4826192D01*
X26837408Y-4635144D01*
X26687303Y-4410496D01*
X26583909Y-4160881D01*
X26531200Y-3895891D01*
X26531200Y-3625709D01*
X26583909Y-3360719D01*
X26687303Y-3111104D01*
X26837408Y-2886456D01*
X27028456Y-2695408D01*
X27253104Y-2545303D01*
X27502719Y-2441909D01*
X27730000Y-2396701D01*
X27767708Y-2389200D01*
X28037892Y-2389200D01*
X28075600Y-2396701D01*
X28075600Y-2396701D01*
G37*
G36*
X-2727200Y-2396701D02*
X-2499919Y-2441909D01*
X-2250304Y-2545303D01*
X-2025656Y-2695408D01*
X-1834608Y-2886456D01*
X-1684503Y-3111104D01*
X-1581109Y-3360719D01*
X-1528400Y-3625709D01*
X-1528400Y-3895891D01*
X-1581109Y-4160881D01*
X-1684503Y-4410496D01*
X-1834608Y-4635144D01*
X-2025656Y-4826192D01*
X-2250304Y-4976297D01*
X-2499919Y-5079691D01*
X-2727200Y-5124899D01*
X-2764908Y-5132400D01*
X-3035092Y-5132400D01*
X-3072800Y-5124899D01*
X-3300081Y-5079691D01*
X-3549696Y-4976297D01*
X-3774344Y-4826192D01*
X-3965392Y-4635144D01*
X-4115497Y-4410496D01*
X-4218891Y-4160881D01*
X-4271600Y-3895891D01*
X-4271600Y-3625709D01*
X-4218891Y-3360719D01*
X-4115497Y-3111104D01*
X-3965392Y-2886456D01*
X-3774344Y-2695408D01*
X-3549696Y-2545303D01*
X-3300081Y-2441909D01*
X-3072800Y-2396701D01*
X-3035092Y-2389200D01*
X-2764908Y-2389200D01*
X-2727200Y-2396701D01*
X-2727200Y-2396701D01*
G37*
G36*
X4845000Y-5071500D02*
X3141800Y-5071500D01*
X3141800Y-1468300D01*
X4845000Y-1468300D01*
X4845000Y-5071500D01*
X4845000Y-5071500D01*
G37*
G36*
X11545000Y-5071500D02*
X9841800Y-5071500D01*
X9841800Y-1468300D01*
X11545000Y-1468300D01*
X11545000Y-5071500D01*
X11545000Y-5071500D01*
G37*
G36*
X18267338Y-2717612D02*
X18267341Y-2717613D01*
X18267340Y-2717613D01*
X18458719Y-2796884D01*
X18592773Y-2886456D01*
X18630959Y-2911971D01*
X18777429Y-3058441D01*
X18777431Y-3058444D01*
X18892516Y-3230681D01*
X18946379Y-3360719D01*
X18971788Y-3422062D01*
X19012200Y-3625225D01*
X19012200Y-3832375D01*
X18971788Y-4035538D01*
X18971787Y-4035540D01*
X18892516Y-4226919D01*
X18892515Y-4226920D01*
X18777429Y-4399159D01*
X18630959Y-4545629D01*
X18630956Y-4545631D01*
X18458719Y-4660716D01*
X18310695Y-4722029D01*
X18267338Y-4739988D01*
X18064175Y-4780400D01*
X17857025Y-4780400D01*
X17653862Y-4739988D01*
X17610505Y-4722029D01*
X17462481Y-4660716D01*
X17290244Y-4545631D01*
X17290241Y-4545629D01*
X17143771Y-4399159D01*
X17028685Y-4226920D01*
X17028684Y-4226919D01*
X16949413Y-4035540D01*
X16949412Y-4035538D01*
X16909000Y-3832375D01*
X16909000Y-3625225D01*
X16949412Y-3422062D01*
X16974821Y-3360719D01*
X17028684Y-3230681D01*
X17143769Y-3058444D01*
X17143771Y-3058441D01*
X17290241Y-2911971D01*
X17328427Y-2886456D01*
X17462481Y-2796884D01*
X17653860Y-2717613D01*
X17653859Y-2717613D01*
X17653862Y-2717612D01*
X17857025Y-2677200D01*
X18064175Y-2677200D01*
X18267338Y-2717612D01*
X18267338Y-2717612D01*
G37*
G36*
X20481249Y341540D02*
X20575665Y322760D01*
X20694248Y273641D01*
X20694249Y273640D01*
X20800974Y202329D01*
X20891729Y111574D01*
X20891731Y111571D01*
X20963041Y4848D01*
X21012160Y-113735D01*
X21037200Y-239623D01*
X21037200Y-367977D01*
X21012160Y-493865D01*
X20963041Y-612448D01*
X20963040Y-612449D01*
X20891729Y-719174D01*
X20830767Y-780136D01*
X20815221Y-799078D01*
X20803670Y-820689D01*
X20796557Y-844138D01*
X20794155Y-868524D01*
X20796557Y-892910D01*
X20803670Y-916359D01*
X20815221Y-937970D01*
X20830767Y-956912D01*
X20849709Y-972458D01*
X20871320Y-984009D01*
X20894768Y-991122D01*
X20950665Y-1002240D01*
X21069248Y-1051359D01*
X21174535Y-1121710D01*
X21175974Y-1122671D01*
X21266729Y-1213426D01*
X21266731Y-1213429D01*
X21338041Y-1320152D01*
X21387160Y-1438735D01*
X21405940Y-1533151D01*
X21412200Y-1564622D01*
X21412200Y-1692978D01*
X21387160Y-1818865D01*
X21361480Y-1880862D01*
X21354367Y-1904311D01*
X21351965Y-1928697D01*
X21354367Y-1953084D01*
X21361480Y-1976533D01*
X21373032Y-1998144D01*
X21388577Y-2017086D01*
X21407519Y-2032631D01*
X21429130Y-2044182D01*
X21452579Y-2051295D01*
X21476965Y-2053697D01*
X21492161Y-2052200D01*
X21674401Y-2052200D01*
X21761493Y-2069524D01*
X21848587Y-2086848D01*
X22012668Y-2154813D01*
X22089635Y-2206241D01*
X22160339Y-2253484D01*
X22285916Y-2379061D01*
X22285918Y-2379064D01*
X22327911Y-2441910D01*
X22384588Y-2526734D01*
X22392280Y-2545304D01*
X22452552Y-2690813D01*
X22457883Y-2717612D01*
X22487200Y-2864999D01*
X22487200Y-3042601D01*
X22452552Y-3216786D01*
X22384588Y-3380866D01*
X22285916Y-3528539D01*
X22160339Y-3654116D01*
X22160336Y-3654118D01*
X22012668Y-3752787D01*
X21848587Y-3820752D01*
X21790159Y-3832374D01*
X21674401Y-3855400D01*
X21496799Y-3855400D01*
X21381041Y-3832374D01*
X21322613Y-3820752D01*
X21158532Y-3752787D01*
X21010864Y-3654118D01*
X21010861Y-3654116D01*
X20885284Y-3528539D01*
X20786612Y-3380866D01*
X20718648Y-3216786D01*
X20684000Y-3042601D01*
X20684000Y-2864999D01*
X20713317Y-2717612D01*
X20718648Y-2690813D01*
X20778920Y-2545304D01*
X20786612Y-2526733D01*
X20821282Y-2474846D01*
X20832833Y-2453235D01*
X20839946Y-2429786D01*
X20842348Y-2405400D01*
X20839946Y-2381013D01*
X20832833Y-2357564D01*
X20821281Y-2335953D01*
X20805736Y-2317011D01*
X20786794Y-2301466D01*
X20765183Y-2289915D01*
X20741734Y-2282802D01*
X20717348Y-2280400D01*
X20696422Y-2280400D01*
X20664951Y-2274140D01*
X20570535Y-2255360D01*
X20451952Y-2206241D01*
X20345229Y-2134931D01*
X20345226Y-2134929D01*
X20254471Y-2044174D01*
X20236371Y-2017086D01*
X20183159Y-1937448D01*
X20134040Y-1818865D01*
X20109000Y-1692977D01*
X20109000Y-1564623D01*
X20134040Y-1438735D01*
X20183159Y-1320152D01*
X20254469Y-1213429D01*
X20254471Y-1213426D01*
X20315433Y-1152464D01*
X20330979Y-1133522D01*
X20342530Y-1111911D01*
X20349643Y-1088462D01*
X20352045Y-1064076D01*
X20349643Y-1039690D01*
X20342530Y-1016241D01*
X20330979Y-994630D01*
X20315433Y-975688D01*
X20296491Y-960142D01*
X20274880Y-948591D01*
X20251432Y-941478D01*
X20195535Y-930360D01*
X20076952Y-881241D01*
X19970229Y-809931D01*
X19970226Y-809929D01*
X19879471Y-719174D01*
X19808160Y-612449D01*
X19808159Y-612448D01*
X19759040Y-493865D01*
X19734000Y-367977D01*
X19734000Y-239623D01*
X19759040Y-113735D01*
X19808159Y4848D01*
X19879469Y111571D01*
X19879471Y111574D01*
X19970226Y202329D01*
X20076951Y273640D01*
X20076952Y273641D01*
X20195535Y322760D01*
X20289951Y341540D01*
X20321422Y347800D01*
X20449778Y347800D01*
X20481249Y341540D01*
X20481249Y341540D01*
G37*
G36*
X15631249Y341540D02*
X15725665Y322760D01*
X15844248Y273641D01*
X15844249Y273640D01*
X15950974Y202329D01*
X16041729Y111574D01*
X16041731Y111571D01*
X16113041Y4848D01*
X16162160Y-113735D01*
X16187200Y-239623D01*
X16187200Y-367977D01*
X16162160Y-493865D01*
X16113041Y-612448D01*
X16113040Y-612449D01*
X16041729Y-719174D01*
X15950974Y-809929D01*
X15950971Y-809931D01*
X15844248Y-881241D01*
X15725665Y-930360D01*
X15669768Y-941478D01*
X15646320Y-948591D01*
X15624709Y-960142D01*
X15605767Y-975687D01*
X15590222Y-994629D01*
X15578670Y-1016240D01*
X15571557Y-1039689D01*
X15569155Y-1064076D01*
X15571557Y-1088462D01*
X15578670Y-1111911D01*
X15590221Y-1133522D01*
X15605767Y-1152464D01*
X15666729Y-1213426D01*
X15666731Y-1213429D01*
X15738041Y-1320152D01*
X15787160Y-1438735D01*
X15812200Y-1564623D01*
X15812200Y-1692977D01*
X15787160Y-1818865D01*
X15738041Y-1937448D01*
X15684829Y-2017086D01*
X15666729Y-2044174D01*
X15575974Y-2134929D01*
X15575971Y-2134931D01*
X15469248Y-2206241D01*
X15350665Y-2255360D01*
X15256249Y-2274140D01*
X15224778Y-2280400D01*
X15203852Y-2280400D01*
X15179466Y-2282802D01*
X15156017Y-2289915D01*
X15134406Y-2301466D01*
X15115464Y-2317012D01*
X15099918Y-2335954D01*
X15088367Y-2357565D01*
X15081254Y-2381014D01*
X15078852Y-2405400D01*
X15081254Y-2429786D01*
X15088367Y-2453235D01*
X15099918Y-2474846D01*
X15134588Y-2526733D01*
X15142280Y-2545304D01*
X15202552Y-2690813D01*
X15207883Y-2717612D01*
X15237200Y-2864999D01*
X15237200Y-3042601D01*
X15202552Y-3216786D01*
X15134588Y-3380866D01*
X15035916Y-3528539D01*
X14910339Y-3654116D01*
X14910336Y-3654118D01*
X14762668Y-3752787D01*
X14598587Y-3820752D01*
X14540159Y-3832374D01*
X14424401Y-3855400D01*
X14246799Y-3855400D01*
X14131041Y-3832374D01*
X14072613Y-3820752D01*
X13908532Y-3752787D01*
X13760864Y-3654118D01*
X13760861Y-3654116D01*
X13635284Y-3528539D01*
X13536612Y-3380866D01*
X13468648Y-3216786D01*
X13434000Y-3042601D01*
X13434000Y-2864999D01*
X13463317Y-2717612D01*
X13468648Y-2690813D01*
X13528920Y-2545304D01*
X13536612Y-2526734D01*
X13593290Y-2441910D01*
X13635282Y-2379064D01*
X13635284Y-2379061D01*
X13760861Y-2253484D01*
X13831565Y-2206241D01*
X13908532Y-2154813D01*
X14072613Y-2086848D01*
X14159707Y-2069524D01*
X14246799Y-2052200D01*
X14429037Y-2052200D01*
X14444229Y-2053697D01*
X14468615Y-2051296D01*
X14492065Y-2044184D01*
X14513676Y-2032634D01*
X14532619Y-2017090D01*
X14548165Y-1998148D01*
X14559718Y-1976538D01*
X14566832Y-1953089D01*
X14569235Y-1928703D01*
X14566834Y-1904317D01*
X14559720Y-1880862D01*
X14534040Y-1818865D01*
X14509000Y-1692978D01*
X14509000Y-1564622D01*
X14515260Y-1533151D01*
X14534040Y-1438735D01*
X14583159Y-1320152D01*
X14654469Y-1213429D01*
X14654471Y-1213426D01*
X14745226Y-1122671D01*
X14746665Y-1121710D01*
X14851952Y-1051359D01*
X14970535Y-1002240D01*
X15026432Y-991122D01*
X15049880Y-984009D01*
X15071491Y-972458D01*
X15090433Y-956913D01*
X15105978Y-937971D01*
X15117530Y-916360D01*
X15124643Y-892911D01*
X15127045Y-868524D01*
X15124643Y-844138D01*
X15117530Y-820689D01*
X15105979Y-799078D01*
X15090433Y-780136D01*
X15029471Y-719174D01*
X14958160Y-612449D01*
X14958159Y-612448D01*
X14909040Y-493865D01*
X14884000Y-367977D01*
X14884000Y-239623D01*
X14909040Y-113735D01*
X14958159Y4848D01*
X15029469Y111571D01*
X15029471Y111574D01*
X15120226Y202329D01*
X15226951Y273640D01*
X15226952Y273641D01*
X15345535Y322760D01*
X15439951Y341540D01*
X15471422Y347800D01*
X15599778Y347800D01*
X15631249Y341540D01*
X15631249Y341540D01*
G37*
G36*
X6945000Y428500D02*
X5741800Y428500D01*
X5741800Y4131700D01*
X6945000Y4131700D01*
X6945000Y428500D01*
X6945000Y428500D01*
G37*
G36*
X8945000Y428500D02*
X7741800Y428500D01*
X7741800Y4131700D01*
X8945000Y4131700D01*
X8945000Y428500D01*
X8945000Y428500D01*
G37*
G36*
X6137600Y23260400D02*
X4934400Y23260400D01*
X4934400Y26263600D01*
X6137600Y26263600D01*
X6137600Y23260400D01*
X6137600Y23260400D01*
G37*
G36*
X12337600Y23260400D02*
X11134400Y23260400D01*
X11134400Y26263600D01*
X12337600Y26263600D01*
X12337600Y23260400D01*
X12337600Y23260400D01*
G37*
G36*
X10287600Y27160400D02*
X9484400Y27160400D01*
X9484400Y29063600D01*
X10287600Y29063600D01*
X10287600Y27160400D01*
X10287600Y27160400D01*
G37*
G36*
X9037600Y27160400D02*
X8234400Y27160400D01*
X8234400Y29063600D01*
X9037600Y29063600D01*
X9037600Y27160400D01*
X9037600Y27160400D01*
G37*
G36*
X7787600Y27160400D02*
X6984400Y27160400D01*
X6984400Y29063600D01*
X7787600Y29063600D01*
X7787600Y27160400D01*
X7787600Y27160400D01*
G37*
G36*
X20049000Y40641500D02*
X17845800Y40641500D01*
X17845800Y42144700D01*
X20049000Y42144700D01*
X20049000Y40641500D01*
X20049000Y40641500D01*
G37*
G36*
X4049000Y40641500D02*
X1845800Y40641500D01*
X1845800Y42144700D01*
X4049000Y42144700D01*
X4049000Y40641500D01*
X4049000Y40641500D01*
G37*
G36*
X4049000Y42641500D02*
X1845800Y42641500D01*
X1845800Y44144700D01*
X4049000Y44144700D01*
X4049000Y42641500D01*
X4049000Y42641500D01*
G37*
G36*
X20049000Y42641500D02*
X17845800Y42641500D01*
X17845800Y44144700D01*
X20049000Y44144700D01*
X20049000Y42641500D01*
X20049000Y42641500D01*
G37*
G36*
X20049000Y44641500D02*
X17845800Y44641500D01*
X17845800Y46144700D01*
X20049000Y46144700D01*
X20049000Y44641500D01*
X20049000Y44641500D01*
G37*
G36*
X4049000Y44641500D02*
X1845800Y44641500D01*
X1845800Y46144700D01*
X4049000Y46144700D01*
X4049000Y44641500D01*
X4049000Y44641500D01*
G37*
G36*
X4049000Y46641500D02*
X1845800Y46641500D01*
X1845800Y48144700D01*
X4049000Y48144700D01*
X4049000Y46641500D01*
X4049000Y46641500D01*
G37*
G36*
X20049000Y46641500D02*
X17845800Y46641500D01*
X17845800Y48144700D01*
X20049000Y48144700D01*
X20049000Y46641500D01*
X20049000Y46641500D01*
G37*
G36*
X-863600Y46799500D02*
X-3759200Y46799500D01*
X-3759200Y48602900D01*
X-863600Y48602900D01*
X-863600Y46799500D01*
X-863600Y46799500D01*
G37*
G36*
X20049000Y48641500D02*
X17845800Y48641500D01*
X17845800Y50144700D01*
X20049000Y50144700D01*
X20049000Y48641500D01*
X20049000Y48641500D01*
G37*
G36*
X4049000Y48641500D02*
X1845800Y48641500D01*
X1845800Y50144700D01*
X4049000Y50144700D01*
X4049000Y48641500D01*
X4049000Y48641500D01*
G37*
G36*
X4049000Y50641500D02*
X1845800Y50641500D01*
X1845800Y52144700D01*
X4049000Y52144700D01*
X4049000Y50641500D01*
X4049000Y50641500D01*
G37*
G36*
X20049000Y50641500D02*
X17845800Y50641500D01*
X17845800Y52144700D01*
X20049000Y52144700D01*
X20049000Y50641500D01*
X20049000Y50641500D01*
G37*
G36*
X29659000Y52154200D02*
X25255800Y52154200D01*
X25255800Y53627400D01*
X29659000Y53627400D01*
X29659000Y52154200D01*
X29659000Y52154200D01*
G37*
G36*
X20049000Y52641500D02*
X17845800Y52641500D01*
X17845800Y54144700D01*
X20049000Y54144700D01*
X20049000Y52641500D01*
X20049000Y52641500D01*
G37*
G36*
X4049000Y52641500D02*
X1845800Y52641500D01*
X1845800Y54144700D01*
X4049000Y54144700D01*
X4049000Y52641500D01*
X4049000Y52641500D01*
G37*
G36*
X4049000Y54641500D02*
X1845800Y54641500D01*
X1845800Y56144700D01*
X4049000Y56144700D01*
X4049000Y54641500D01*
X4049000Y54641500D01*
G37*
G36*
X20049000Y54641500D02*
X17845800Y54641500D01*
X17845800Y56144700D01*
X20049000Y56144700D01*
X20049000Y54641500D01*
X20049000Y54641500D01*
G37*
G36*
X29659000Y54654200D02*
X25255800Y54654200D01*
X25255800Y56127400D01*
X29659000Y56127400D01*
X29659000Y54654200D01*
X29659000Y54654200D01*
G37*
G36*
X29659000Y57154200D02*
X25255800Y57154200D01*
X25255800Y58627400D01*
X29659000Y58627400D01*
X29659000Y57154200D01*
X29659000Y57154200D01*
G37*
G36*
X28075600Y63903299D02*
X28302881Y63858091D01*
X28552496Y63754697D01*
X28777144Y63604592D01*
X28968192Y63413544D01*
X29118297Y63188896D01*
X29221691Y62939281D01*
X29274400Y62674291D01*
X29274400Y62404109D01*
X29221691Y62139119D01*
X29118297Y61889504D01*
X28968192Y61664856D01*
X28777144Y61473808D01*
X28552496Y61323703D01*
X28302881Y61220309D01*
X28075600Y61175101D01*
X28037892Y61167600D01*
X27767708Y61167600D01*
X27730000Y61175101D01*
X27502719Y61220309D01*
X27253104Y61323703D01*
X27028456Y61473808D01*
X26837408Y61664856D01*
X26687303Y61889504D01*
X26583909Y62139119D01*
X26531200Y62404109D01*
X26531200Y62674291D01*
X26583909Y62939281D01*
X26687303Y63188896D01*
X26837408Y63413544D01*
X27028456Y63604592D01*
X27253104Y63754697D01*
X27502719Y63858091D01*
X27730000Y63903299D01*
X27767708Y63910800D01*
X28037892Y63910800D01*
X28075600Y63903299D01*
X28075600Y63903299D01*
G37*
G36*
X-2727200Y63903299D02*
X-2499919Y63858091D01*
X-2250304Y63754697D01*
X-2025656Y63604592D01*
X-1834608Y63413544D01*
X-1684503Y63188896D01*
X-1581109Y62939281D01*
X-1528400Y62674291D01*
X-1528400Y62404109D01*
X-1581109Y62139119D01*
X-1684503Y61889504D01*
X-1834608Y61664856D01*
X-2025656Y61473808D01*
X-2250304Y61323703D01*
X-2499919Y61220309D01*
X-2727200Y61175101D01*
X-2764908Y61167600D01*
X-3035092Y61167600D01*
X-3072800Y61175101D01*
X-3300081Y61220309D01*
X-3549696Y61323703D01*
X-3774344Y61473808D01*
X-3965392Y61664856D01*
X-4115497Y61889504D01*
X-4218891Y62139119D01*
X-4271600Y62404109D01*
X-4271600Y62674291D01*
X-4218891Y62939281D01*
X-4115497Y63188896D01*
X-3965392Y63413544D01*
X-3774344Y63604592D01*
X-3549696Y63754697D01*
X-3300081Y63858091D01*
X-3072800Y63903299D01*
X-3035092Y63910800D01*
X-2764908Y63910800D01*
X-2727200Y63903299D01*
X-2727200Y63903299D01*
G37*
M02*
