M48
;DRILL file {KiCad 4.0.7-e2-6376~58~ubuntu16.04.1} date Tue Jul 10 13:57:43 2018
;FORMAT={-:-/ absolute / inch / decimal}
FMAT,2
INCH,TZ
T1C0.012
T2C0.028
T3C0.039
T4C0.043
%
G90
G05
M72
T1
X4.9545Y-3.285
X4.9545Y-3.317
X4.9545Y-3.606
X5.016Y-4.4385
X5.0165Y-4.373
X5.035Y-4.16
X5.0355Y-2.5715
X5.1222Y-3.903
X5.155Y-3.8065
X5.1835Y-3.9133
X5.191Y-3.451
X5.191Y-3.489
X5.207Y-2.5715
X5.211Y-3.471
X5.235Y-4.165
X5.235Y-4.2
X5.2681Y-3.583
X5.271Y-3.271
X5.271Y-3.331
X5.281Y-2.886
X5.289Y-3.919
X5.319Y-3.553
X5.329Y-3.817
X5.334Y-3.8875
X5.341Y-4.647
X5.351Y-3.533
X5.3722Y-3.019
X5.3725Y-3.7068
X5.3735Y-2.5715
X5.393Y-2.985
X5.3947Y-3.461
X5.399Y-2.839
X5.4095Y-4.57
X5.41Y-4.4185
X5.415Y-3.743
X5.417Y-3.511
X5.421Y-3.845
X5.423Y-3.939
X5.431Y-2.841
X5.433Y-3.715
X5.453Y-2.809
X5.4777Y-3.7075
X5.491Y-2.789
X5.491Y-4.091
X5.491Y-4.131
X5.491Y-4.171
X5.509Y-3.333
X5.515Y-3.085
X5.515Y-3.121
X5.531Y-4.091
X5.535Y-3.86
X5.5465Y-4.7135
X5.553Y-2.5715
X5.568Y-3.572
X5.571Y-4.091
X5.575Y-3.825
X5.583Y-3.855
X5.5886Y-3.592
X5.591Y-3.191
X5.593Y-3.375
X5.593Y-3.405
X5.631Y-2.689
X5.637Y-3.879
X5.675Y-4.097
X5.684Y-3.119
X5.684Y-3.151
X5.684Y-3.5035
X5.684Y-3.6905
X5.687Y-4.641
X5.687Y-4.671
X5.711Y-4.685
X5.725Y-4.941
X5.733Y-3.883
X5.761Y-3.881
X5.8035Y-3.213
X5.839Y-3.529
X5.843Y-4.361
X5.8435Y-4.14
X5.844Y-4.317
X5.893Y-4.334
X5.905Y-4.14
X5.955Y-4.345
T2
X5.4935Y-5.012
X5.6845Y-5.012
T3
X5.7308Y-2.541
X5.8308Y-2.541
X5.9308Y-2.541
X5.957Y-4.766
X5.957Y-4.866
X5.957Y-4.966
X5.957Y-5.066
T4
X5.4463Y-5.1163G85X5.4463Y-5.1163
G05
X5.7317Y-5.1163G85X5.7317Y-5.1163
G05
T0
M30
