G04 #@! TF.GenerationSoftware,KiCad,Pcbnew,5.0.0-fee4fd1~65~ubuntu16.04.1*
G04 #@! TF.CreationDate,2018-07-27T11:27:13-07:00*
G04 #@! TF.ProjectId,fk-sonar,666B2D736F6E61722E6B696361645F70,0.1*
G04 #@! TF.SameCoordinates,PX791ddc0PY791ddc0*
G04 #@! TF.FileFunction,Paste,Top*
G04 #@! TF.FilePolarity,Positive*
%FSLAX46Y46*%
G04 Gerber Fmt 4.6, Leading zero omitted, Abs format (unit mm)*
G04 Created by KiCad (PCBNEW 5.0.0-fee4fd1~65~ubuntu16.04.1) date Fri Jul 27 11:27:13 2018*
%MOMM*%
%LPD*%
G01*
G04 APERTURE LIST*
%ADD10C,1.710000*%
%ADD11C,1.440000*%
%ADD12C,0.990000*%
%ADD13R,0.360000X1.215000*%
%ADD14R,0.360000X1.125000*%
%ADD15R,0.675000X2.250000*%
%ADD16R,0.630000X1.305000*%
%ADD17R,0.900000X0.990000*%
%ADD18C,0.900000*%
%ADD19C,0.100000*%
%ADD20R,0.990000X0.900000*%
%ADD21R,0.450000X0.360000*%
%ADD22R,0.990000X1.440000*%
%ADD23R,0.225000X0.360000*%
%ADD24R,0.630000X0.900000*%
%ADD25R,0.630000X0.540000*%
%ADD26R,0.900000X1.350000*%
%ADD27R,3.780000X1.143000*%
%ADD28R,0.900000X3.150000*%
%ADD29R,1.350000X3.060000*%
%ADD30R,1.530000X0.540000*%
%ADD31R,2.520000X0.900000*%
%ADD32C,0.225000*%
%ADD33R,0.435000X0.435000*%
%ADD34R,0.202000X0.715000*%
%ADD35R,0.715000X0.202000*%
%ADD36R,0.715000X0.220000*%
%ADD37R,1.800000X0.540000*%
%ADD38R,0.270000X0.675000*%
%ADD39R,0.435000X0.525000*%
%ADD40R,1.080000X0.720000*%
%ADD41R,1.980000X0.720000*%
%ADD42R,2.250000X1.800000*%
%ADD43R,0.585000X0.945000*%
%ADD44R,1.350000X0.810000*%
%ADD45R,0.540000X1.530000*%
%ADD46R,0.900000X2.520000*%
G04 APERTURE END LIST*
D10*
G04 #@! TO.C,J4*
X14960600Y-3728800D03*
D11*
X18585600Y-2953800D03*
X11335600Y-2953800D03*
D12*
X17385600Y-303800D03*
X12535600Y-303800D03*
D13*
X16260600Y-378800D03*
X15610600Y-378800D03*
X14960600Y-378800D03*
X14310600Y-378800D03*
X13660600Y-378800D03*
D12*
X12160600Y-1628800D03*
X17760600Y-1628800D03*
D14*
X16260600Y-1878800D03*
X15610600Y-1878800D03*
X14960600Y-1878800D03*
X14310600Y-1878800D03*
X13660600Y-1878800D03*
G04 #@! TD*
D15*
G04 #@! TO.C,J2*
X6057900Y53695600D03*
X6057900Y49695600D03*
X4787900Y53695600D03*
X4787900Y49695600D03*
X3517900Y53695600D03*
X3517900Y49695600D03*
X2247900Y53695600D03*
X2247900Y49695600D03*
X977900Y53695600D03*
X977900Y49695600D03*
G04 #@! TD*
D16*
G04 #@! TO.C,SW1*
X26609800Y46801400D03*
X26609800Y41641400D03*
X28609800Y41641400D03*
X28609800Y46801400D03*
G04 #@! TD*
D17*
G04 #@! TO.C,C1*
X3708400Y41479100D03*
X3708400Y43179100D03*
G04 #@! TD*
G04 #@! TO.C,C2*
X5461900Y41479100D03*
X5461900Y43179100D03*
G04 #@! TD*
D18*
G04 #@! TO.C,C3*
X11675441Y47248141D03*
D19*
G36*
X11707261Y47916357D02*
X12343657Y47279961D01*
X11643621Y46579925D01*
X11007225Y47216321D01*
X11707261Y47916357D01*
X11707261Y47916357D01*
G37*
D18*
X10473359Y46046059D03*
D19*
G36*
X10505179Y46714275D02*
X11141575Y46077879D01*
X10441539Y45377843D01*
X9805143Y46014239D01*
X10505179Y46714275D01*
X10505179Y46714275D01*
G37*
G04 #@! TD*
D18*
G04 #@! TO.C,C4*
X13423900Y45567600D03*
D19*
G36*
X13455720Y46235816D02*
X14092116Y45599420D01*
X13392080Y44899384D01*
X12755684Y45535780D01*
X13455720Y46235816D01*
X13455720Y46235816D01*
G37*
D18*
X12221818Y44365518D03*
D19*
G36*
X12253638Y45033734D02*
X12890034Y44397338D01*
X12189998Y43697302D01*
X11553602Y44333698D01*
X12253638Y45033734D01*
X12253638Y45033734D01*
G37*
G04 #@! TD*
D17*
G04 #@! TO.C,C5*
X16090900Y40780600D03*
X16090900Y42480600D03*
G04 #@! TD*
G04 #@! TO.C,C6*
X17741900Y40780600D03*
X17741900Y42480600D03*
G04 #@! TD*
G04 #@! TO.C,C7*
X1930400Y41479100D03*
X1930400Y43179100D03*
G04 #@! TD*
G04 #@! TO.C,C8*
X5156200Y31330000D03*
X5156200Y29630000D03*
G04 #@! TD*
G04 #@! TO.C,C9*
X18884900Y33273100D03*
X18884900Y31573100D03*
G04 #@! TD*
D20*
G04 #@! TO.C,C10*
X13892900Y6324600D03*
X12192900Y6324600D03*
G04 #@! TD*
D17*
G04 #@! TO.C,C11*
X6184900Y17588600D03*
X6184900Y15888600D03*
G04 #@! TD*
G04 #@! TO.C,C12*
X16239991Y47402899D03*
X16239991Y49102899D03*
G04 #@! TD*
G04 #@! TO.C,C13*
X14525491Y47402899D03*
X14525491Y49102899D03*
G04 #@! TD*
G04 #@! TO.C,C14*
X22570137Y-2533317D03*
X22570137Y-4233317D03*
G04 #@! TD*
D20*
G04 #@! TO.C,C15*
X6541400Y7150100D03*
X8241400Y7150100D03*
G04 #@! TD*
D17*
G04 #@! TO.C,C16*
X9486900Y15888600D03*
X9486900Y17588600D03*
G04 #@! TD*
G04 #@! TO.C,C17*
X20006061Y11144719D03*
X20006061Y12844719D03*
G04 #@! TD*
G04 #@! TO.C,C18*
X25530561Y12908219D03*
X25530561Y11208219D03*
G04 #@! TD*
D20*
G04 #@! TO.C,C19*
X10361400Y19913600D03*
X8661400Y19913600D03*
G04 #@! TD*
D17*
G04 #@! TO.C,C20*
X685800Y24294200D03*
X685800Y22594200D03*
G04 #@! TD*
D20*
G04 #@! TO.C,C21*
X15963000Y21755100D03*
X14263000Y21755100D03*
G04 #@! TD*
D21*
G04 #@! TO.C,D5*
X1272200Y15763000D03*
X1272200Y14463000D03*
D22*
X2322200Y15113000D03*
D23*
X2997200Y15113000D03*
G04 #@! TD*
D24*
G04 #@! TO.C,D6*
X18868900Y2717100D03*
D25*
X18868900Y4417100D03*
X16868900Y4417100D03*
X16868900Y2517100D03*
G04 #@! TD*
D20*
G04 #@! TO.C,D7*
X17131400Y11468100D03*
X15431400Y11468100D03*
G04 #@! TD*
G04 #@! TO.C,D8*
X17131400Y13182600D03*
X15431400Y13182600D03*
G04 #@! TD*
D26*
G04 #@! TO.C,F1*
X12196900Y2514600D03*
X14396900Y2514600D03*
G04 #@! TD*
D27*
G04 #@! TO.C,J3*
X27457400Y50890800D03*
X27457400Y55890800D03*
G04 #@! TD*
D28*
G04 #@! TO.C,J5*
X3343400Y2280100D03*
X5343400Y2280100D03*
D29*
X993400Y-3269900D03*
X7693400Y-3269900D03*
G04 #@! TD*
D30*
G04 #@! TO.C,J9*
X-3474000Y35418400D03*
X-3474000Y34168400D03*
X-3474000Y32918400D03*
X-3474000Y31668400D03*
X-3474000Y30418400D03*
D31*
X-124000Y37268400D03*
X-124000Y28568400D03*
G04 #@! TD*
D17*
G04 #@! TO.C,L1*
X152400Y41479100D03*
X152400Y43179100D03*
G04 #@! TD*
D20*
G04 #@! TO.C,L2*
X13892900Y4660900D03*
X12192900Y4660900D03*
G04 #@! TD*
G04 #@! TO.C,R2*
X22124300Y39611300D03*
X23824300Y39611300D03*
G04 #@! TD*
G04 #@! TO.C,R3*
X18492100Y35661600D03*
X20192100Y35661600D03*
G04 #@! TD*
D17*
G04 #@! TO.C,R7*
X7835900Y17588600D03*
X7835900Y15888600D03*
G04 #@! TD*
D20*
G04 #@! TO.C,R8*
X826400Y12293600D03*
X2526400Y12293600D03*
G04 #@! TD*
G04 #@! TO.C,R9*
X20180300Y37350700D03*
X18480300Y37350700D03*
G04 #@! TD*
G04 #@! TO.C,R10*
X826400Y10642600D03*
X2526400Y10642600D03*
G04 #@! TD*
G04 #@! TO.C,R11*
X826400Y8991600D03*
X2526400Y8991600D03*
G04 #@! TD*
G04 #@! TO.C,R12*
X20180300Y39001700D03*
X18480300Y39001700D03*
G04 #@! TD*
D17*
G04 #@! TO.C,R13*
X20881037Y-2533317D03*
X20881037Y-4233317D03*
G04 #@! TD*
D20*
G04 #@! TO.C,R14*
X19127100Y24574500D03*
X20827100Y24574500D03*
G04 #@! TD*
G04 #@! TO.C,R15*
X19139800Y22872700D03*
X20839800Y22872700D03*
G04 #@! TD*
G04 #@! TO.C,R16*
X11875400Y11468100D03*
X13575400Y11468100D03*
G04 #@! TD*
G04 #@! TO.C,R17*
X11875400Y13182600D03*
X13575400Y13182600D03*
G04 #@! TD*
G04 #@! TO.C,R18*
X2526400Y7340600D03*
X826400Y7340600D03*
G04 #@! TD*
G04 #@! TO.C,R19*
X20069561Y9391219D03*
X21769561Y9391219D03*
G04 #@! TD*
G04 #@! TO.C,R20*
X25467061Y9391219D03*
X23767061Y9391219D03*
G04 #@! TD*
D17*
G04 #@! TO.C,R21*
X25527000Y16660600D03*
X25527000Y14960600D03*
G04 #@! TD*
G04 #@! TO.C,R22*
X24104600Y18936600D03*
X24104600Y20636600D03*
G04 #@! TD*
D32*
G04 #@! TO.C,U1*
X9784029Y40638058D03*
D19*
G36*
X9290822Y40972166D02*
X9449921Y41131265D01*
X10277236Y40303950D01*
X10118137Y40144851D01*
X9290822Y40972166D01*
X9290822Y40972166D01*
G37*
D32*
X9430476Y40284505D03*
D19*
G36*
X8937269Y40618613D02*
X9096368Y40777712D01*
X9923683Y39950397D01*
X9764584Y39791298D01*
X8937269Y40618613D01*
X8937269Y40618613D01*
G37*
D32*
X9076922Y39930951D03*
D19*
G36*
X8583715Y40265059D02*
X8742814Y40424158D01*
X9570129Y39596843D01*
X9411030Y39437744D01*
X8583715Y40265059D01*
X8583715Y40265059D01*
G37*
D32*
X8723369Y39577398D03*
D19*
G36*
X8230162Y39911506D02*
X8389261Y40070605D01*
X9216576Y39243290D01*
X9057477Y39084191D01*
X8230162Y39911506D01*
X8230162Y39911506D01*
G37*
D32*
X8369816Y39223845D03*
D19*
G36*
X7876609Y39557953D02*
X8035708Y39717052D01*
X8863023Y38889737D01*
X8703924Y38730638D01*
X7876609Y39557953D01*
X7876609Y39557953D01*
G37*
D32*
X8016262Y38870291D03*
D19*
G36*
X7523055Y39204399D02*
X7682154Y39363498D01*
X8509469Y38536183D01*
X8350370Y38377084D01*
X7523055Y39204399D01*
X7523055Y39204399D01*
G37*
D32*
X7662709Y38516738D03*
D19*
G36*
X7169502Y38850846D02*
X7328601Y39009945D01*
X8155916Y38182630D01*
X7996817Y38023531D01*
X7169502Y38850846D01*
X7169502Y38850846D01*
G37*
D32*
X7309155Y38163184D03*
D19*
G36*
X6815948Y38497292D02*
X6975047Y38656391D01*
X7802362Y37829076D01*
X7643263Y37669977D01*
X6815948Y38497292D01*
X6815948Y38497292D01*
G37*
D32*
X6955602Y37809631D03*
D19*
G36*
X6462395Y38143739D02*
X6621494Y38302838D01*
X7448809Y37475523D01*
X7289710Y37316424D01*
X6462395Y38143739D01*
X6462395Y38143739D01*
G37*
D32*
X6602049Y37456078D03*
D19*
G36*
X6108842Y37790186D02*
X6267941Y37949285D01*
X7095256Y37121970D01*
X6936157Y36962871D01*
X6108842Y37790186D01*
X6108842Y37790186D01*
G37*
D32*
X6248495Y37102524D03*
D19*
G36*
X5755288Y37436632D02*
X5914387Y37595731D01*
X6741702Y36768416D01*
X6582603Y36609317D01*
X5755288Y37436632D01*
X5755288Y37436632D01*
G37*
D32*
X5894942Y36748971D03*
D19*
G36*
X5401735Y37083079D02*
X5560834Y37242178D01*
X6388149Y36414863D01*
X6229050Y36255764D01*
X5401735Y37083079D01*
X5401735Y37083079D01*
G37*
D32*
X5894942Y34486229D03*
D19*
G36*
X5560834Y33993022D02*
X5401735Y34152121D01*
X6229050Y34979436D01*
X6388149Y34820337D01*
X5560834Y33993022D01*
X5560834Y33993022D01*
G37*
D32*
X6248495Y34132676D03*
D19*
G36*
X5914387Y33639469D02*
X5755288Y33798568D01*
X6582603Y34625883D01*
X6741702Y34466784D01*
X5914387Y33639469D01*
X5914387Y33639469D01*
G37*
D32*
X6602049Y33779122D03*
D19*
G36*
X6267941Y33285915D02*
X6108842Y33445014D01*
X6936157Y34272329D01*
X7095256Y34113230D01*
X6267941Y33285915D01*
X6267941Y33285915D01*
G37*
D32*
X6955602Y33425569D03*
D19*
G36*
X6621494Y32932362D02*
X6462395Y33091461D01*
X7289710Y33918776D01*
X7448809Y33759677D01*
X6621494Y32932362D01*
X6621494Y32932362D01*
G37*
D32*
X7309155Y33072016D03*
D19*
G36*
X6975047Y32578809D02*
X6815948Y32737908D01*
X7643263Y33565223D01*
X7802362Y33406124D01*
X6975047Y32578809D01*
X6975047Y32578809D01*
G37*
D32*
X7662709Y32718462D03*
D19*
G36*
X7328601Y32225255D02*
X7169502Y32384354D01*
X7996817Y33211669D01*
X8155916Y33052570D01*
X7328601Y32225255D01*
X7328601Y32225255D01*
G37*
D32*
X8016262Y32364909D03*
D19*
G36*
X7682154Y31871702D02*
X7523055Y32030801D01*
X8350370Y32858116D01*
X8509469Y32699017D01*
X7682154Y31871702D01*
X7682154Y31871702D01*
G37*
D32*
X8369816Y32011355D03*
D19*
G36*
X8035708Y31518148D02*
X7876609Y31677247D01*
X8703924Y32504562D01*
X8863023Y32345463D01*
X8035708Y31518148D01*
X8035708Y31518148D01*
G37*
D32*
X8723369Y31657802D03*
D19*
G36*
X8389261Y31164595D02*
X8230162Y31323694D01*
X9057477Y32151009D01*
X9216576Y31991910D01*
X8389261Y31164595D01*
X8389261Y31164595D01*
G37*
D32*
X9076922Y31304249D03*
D19*
G36*
X8742814Y30811042D02*
X8583715Y30970141D01*
X9411030Y31797456D01*
X9570129Y31638357D01*
X8742814Y30811042D01*
X8742814Y30811042D01*
G37*
D32*
X9430476Y30950695D03*
D19*
G36*
X9096368Y30457488D02*
X8937269Y30616587D01*
X9764584Y31443902D01*
X9923683Y31284803D01*
X9096368Y30457488D01*
X9096368Y30457488D01*
G37*
D32*
X9784029Y30597142D03*
D19*
G36*
X9449921Y30103935D02*
X9290822Y30263034D01*
X10118137Y31090349D01*
X10277236Y30931250D01*
X9449921Y30103935D01*
X9449921Y30103935D01*
G37*
D32*
X12046771Y30597142D03*
D19*
G36*
X11553564Y30931250D02*
X11712663Y31090349D01*
X12539978Y30263034D01*
X12380879Y30103935D01*
X11553564Y30931250D01*
X11553564Y30931250D01*
G37*
D32*
X12400324Y30950695D03*
D19*
G36*
X11907117Y31284803D02*
X12066216Y31443902D01*
X12893531Y30616587D01*
X12734432Y30457488D01*
X11907117Y31284803D01*
X11907117Y31284803D01*
G37*
D32*
X12753878Y31304249D03*
D19*
G36*
X12260671Y31638357D02*
X12419770Y31797456D01*
X13247085Y30970141D01*
X13087986Y30811042D01*
X12260671Y31638357D01*
X12260671Y31638357D01*
G37*
D32*
X13107431Y31657802D03*
D19*
G36*
X12614224Y31991910D02*
X12773323Y32151009D01*
X13600638Y31323694D01*
X13441539Y31164595D01*
X12614224Y31991910D01*
X12614224Y31991910D01*
G37*
D32*
X13460984Y32011355D03*
D19*
G36*
X12967777Y32345463D02*
X13126876Y32504562D01*
X13954191Y31677247D01*
X13795092Y31518148D01*
X12967777Y32345463D01*
X12967777Y32345463D01*
G37*
D32*
X13814538Y32364909D03*
D19*
G36*
X13321331Y32699017D02*
X13480430Y32858116D01*
X14307745Y32030801D01*
X14148646Y31871702D01*
X13321331Y32699017D01*
X13321331Y32699017D01*
G37*
D32*
X14168091Y32718462D03*
D19*
G36*
X13674884Y33052570D02*
X13833983Y33211669D01*
X14661298Y32384354D01*
X14502199Y32225255D01*
X13674884Y33052570D01*
X13674884Y33052570D01*
G37*
D32*
X14521645Y33072016D03*
D19*
G36*
X14028438Y33406124D02*
X14187537Y33565223D01*
X15014852Y32737908D01*
X14855753Y32578809D01*
X14028438Y33406124D01*
X14028438Y33406124D01*
G37*
D32*
X14875198Y33425569D03*
D19*
G36*
X14381991Y33759677D02*
X14541090Y33918776D01*
X15368405Y33091461D01*
X15209306Y32932362D01*
X14381991Y33759677D01*
X14381991Y33759677D01*
G37*
D32*
X15228751Y33779122D03*
D19*
G36*
X14735544Y34113230D02*
X14894643Y34272329D01*
X15721958Y33445014D01*
X15562859Y33285915D01*
X14735544Y34113230D01*
X14735544Y34113230D01*
G37*
D32*
X15582305Y34132676D03*
D19*
G36*
X15089098Y34466784D02*
X15248197Y34625883D01*
X16075512Y33798568D01*
X15916413Y33639469D01*
X15089098Y34466784D01*
X15089098Y34466784D01*
G37*
D32*
X15935858Y34486229D03*
D19*
G36*
X15442651Y34820337D02*
X15601750Y34979436D01*
X16429065Y34152121D01*
X16269966Y33993022D01*
X15442651Y34820337D01*
X15442651Y34820337D01*
G37*
D32*
X15935858Y36748971D03*
D19*
G36*
X15601750Y36255764D02*
X15442651Y36414863D01*
X16269966Y37242178D01*
X16429065Y37083079D01*
X15601750Y36255764D01*
X15601750Y36255764D01*
G37*
D32*
X15582305Y37102524D03*
D19*
G36*
X15248197Y36609317D02*
X15089098Y36768416D01*
X15916413Y37595731D01*
X16075512Y37436632D01*
X15248197Y36609317D01*
X15248197Y36609317D01*
G37*
D32*
X15228751Y37456078D03*
D19*
G36*
X14894643Y36962871D02*
X14735544Y37121970D01*
X15562859Y37949285D01*
X15721958Y37790186D01*
X14894643Y36962871D01*
X14894643Y36962871D01*
G37*
D32*
X14875198Y37809631D03*
D19*
G36*
X14541090Y37316424D02*
X14381991Y37475523D01*
X15209306Y38302838D01*
X15368405Y38143739D01*
X14541090Y37316424D01*
X14541090Y37316424D01*
G37*
D32*
X14521645Y38163184D03*
D19*
G36*
X14187537Y37669977D02*
X14028438Y37829076D01*
X14855753Y38656391D01*
X15014852Y38497292D01*
X14187537Y37669977D01*
X14187537Y37669977D01*
G37*
D32*
X14168091Y38516738D03*
D19*
G36*
X13833983Y38023531D02*
X13674884Y38182630D01*
X14502199Y39009945D01*
X14661298Y38850846D01*
X13833983Y38023531D01*
X13833983Y38023531D01*
G37*
D32*
X13814538Y38870291D03*
D19*
G36*
X13480430Y38377084D02*
X13321331Y38536183D01*
X14148646Y39363498D01*
X14307745Y39204399D01*
X13480430Y38377084D01*
X13480430Y38377084D01*
G37*
D32*
X13460984Y39223845D03*
D19*
G36*
X13126876Y38730638D02*
X12967777Y38889737D01*
X13795092Y39717052D01*
X13954191Y39557953D01*
X13126876Y38730638D01*
X13126876Y38730638D01*
G37*
D32*
X13107431Y39577398D03*
D19*
G36*
X12773323Y39084191D02*
X12614224Y39243290D01*
X13441539Y40070605D01*
X13600638Y39911506D01*
X12773323Y39084191D01*
X12773323Y39084191D01*
G37*
D32*
X12753878Y39930951D03*
D19*
G36*
X12419770Y39437744D02*
X12260671Y39596843D01*
X13087986Y40424158D01*
X13247085Y40265059D01*
X12419770Y39437744D01*
X12419770Y39437744D01*
G37*
D32*
X12400324Y40284505D03*
D19*
G36*
X12066216Y39791298D02*
X11907117Y39950397D01*
X12734432Y40777712D01*
X12893531Y40618613D01*
X12066216Y39791298D01*
X12066216Y39791298D01*
G37*
D32*
X12046771Y40638058D03*
D19*
G36*
X11712663Y40144851D02*
X11553564Y40303950D01*
X12380879Y41131265D01*
X12539978Y40972166D01*
X11712663Y40144851D01*
X11712663Y40144851D01*
G37*
G04 #@! TD*
D33*
G04 #@! TO.C,U3*
X8095900Y12048100D03*
X7345900Y12048100D03*
X7345900Y11298100D03*
X8095900Y11298100D03*
D34*
X6970900Y10198100D03*
X7470900Y10198100D03*
X7970900Y10198100D03*
X8470900Y10198100D03*
D35*
X9195900Y10923100D03*
X9195900Y11423100D03*
D36*
X9195900Y11923100D03*
D35*
X9195900Y12423100D03*
D34*
X8470900Y13148100D03*
X7970900Y13148100D03*
X7470900Y13148100D03*
X6970900Y13148100D03*
D35*
X6245900Y12423100D03*
X6245900Y11923100D03*
X6245900Y11423100D03*
D36*
X6245900Y10923100D03*
G04 #@! TD*
D37*
G04 #@! TO.C,U4*
X8503900Y26581100D03*
X8503900Y25311100D03*
X8503900Y24041100D03*
X8503900Y22771100D03*
X3103900Y22771100D03*
X3103900Y24041100D03*
X3103900Y25311100D03*
X3103900Y26581100D03*
G04 #@! TD*
D38*
G04 #@! TO.C,U5*
X22005061Y12252219D03*
X22505061Y12252219D03*
X23005061Y12252219D03*
X23505061Y12252219D03*
X23505061Y15152219D03*
X23005061Y15152219D03*
X22505061Y15152219D03*
X22005061Y15152219D03*
D39*
X23117561Y14139719D03*
X22392561Y14139719D03*
X23117561Y13264719D03*
X22392561Y13264719D03*
G04 #@! TD*
D40*
G04 #@! TO.C,U6*
X16408400Y16357600D03*
D41*
X15908400Y17857600D03*
D40*
X16408400Y19357600D03*
D42*
X13558400Y17857600D03*
G04 #@! TD*
D12*
G04 #@! TO.C,Y1*
X8920517Y44546483D03*
D19*
G36*
X7965923Y44291925D02*
X9175075Y45501077D01*
X9875111Y44801041D01*
X8665959Y43591889D01*
X7965923Y44291925D01*
X7965923Y44291925D01*
G37*
D12*
X10688283Y42778717D03*
D19*
G36*
X9733689Y42524159D02*
X10942841Y43733311D01*
X11642877Y43033275D01*
X10433725Y41824123D01*
X9733689Y42524159D01*
X9733689Y42524159D01*
G37*
G04 #@! TD*
D20*
G04 #@! TO.C,D1*
X9486000Y63703200D03*
X7786000Y63703200D03*
G04 #@! TD*
D43*
G04 #@! TO.C,Q1*
X7635200Y57955800D03*
X9535200Y57955800D03*
X8585200Y60255800D03*
G04 #@! TD*
D20*
G04 #@! TO.C,R1*
X7786000Y62026800D03*
X9486000Y62026800D03*
G04 #@! TD*
D44*
G04 #@! TO.C,U7*
X623400Y63372000D03*
X623400Y60072000D03*
X5523400Y60072000D03*
X5523400Y63372000D03*
G04 #@! TD*
D45*
G04 #@! TO.C,J1*
X21316000Y62783000D03*
X20066000Y62783000D03*
X18816000Y62783000D03*
D46*
X23166000Y59433000D03*
X16966000Y59433000D03*
G04 #@! TD*
D30*
G04 #@! TO.C,J6*
X27451600Y1757200D03*
X27451600Y3007200D03*
X27451600Y4257200D03*
X27451600Y5507200D03*
D31*
X24101600Y-92800D03*
X24101600Y7357200D03*
G04 #@! TD*
M02*
