G04 #@! TF.FileFunction,Legend,Top*
%FSLAX46Y46*%
G04 Gerber Fmt 4.6, Leading zero omitted, Abs format (unit mm)*
G04 Created by KiCad (PCBNEW 4.0.7-e2-6376~58~ubuntu16.04.1) date Fri Dec  8 11:46:57 2017*
%MOMM*%
%LPD*%
G01*
G04 APERTURE LIST*
%ADD10C,0.100000*%
%ADD11C,0.200000*%
%ADD12C,0.150000*%
%ADD13C,0.120000*%
%ADD14C,0.300000*%
%ADD15C,0.010000*%
G04 APERTURE END LIST*
D10*
D11*
X27192314Y-6991171D02*
X27858981Y-6753076D01*
X27192314Y-6514980D01*
X26858981Y-5943552D02*
X26858981Y-5848313D01*
X26906600Y-5753075D01*
X26954219Y-5705456D01*
X27049457Y-5657837D01*
X27239933Y-5610218D01*
X27478029Y-5610218D01*
X27668505Y-5657837D01*
X27763743Y-5705456D01*
X27811362Y-5753075D01*
X27858981Y-5848313D01*
X27858981Y-5943552D01*
X27811362Y-6038790D01*
X27763743Y-6086409D01*
X27668505Y-6134028D01*
X27478029Y-6181647D01*
X27239933Y-6181647D01*
X27049457Y-6134028D01*
X26954219Y-6086409D01*
X26906600Y-6038790D01*
X26858981Y-5943552D01*
X27763743Y-5181647D02*
X27811362Y-5134028D01*
X27858981Y-5181647D01*
X27811362Y-5229266D01*
X27763743Y-5181647D01*
X27858981Y-5181647D01*
X27858981Y-4181647D02*
X27858981Y-4753076D01*
X27858981Y-4467362D02*
X26858981Y-4467362D01*
X27001838Y-4562600D01*
X27097076Y-4657838D01*
X27144695Y-4753076D01*
X20724762Y10750895D02*
X20772381Y10893752D01*
X20772381Y11131848D01*
X20724762Y11227086D01*
X20677143Y11274705D01*
X20581905Y11322324D01*
X20486667Y11322324D01*
X20391429Y11274705D01*
X20343810Y11227086D01*
X20296190Y11131848D01*
X20248571Y10941371D01*
X20200952Y10846133D01*
X20153333Y10798514D01*
X20058095Y10750895D01*
X19962857Y10750895D01*
X19867619Y10798514D01*
X19820000Y10846133D01*
X19772381Y10941371D01*
X19772381Y11179467D01*
X19820000Y11322324D01*
X20248571Y11750895D02*
X20248571Y12084229D01*
X20772381Y12227086D02*
X20772381Y11750895D01*
X19772381Y11750895D01*
X19772381Y12227086D01*
X20772381Y12655657D02*
X19772381Y12655657D01*
X20772381Y13227086D01*
X19772381Y13227086D01*
X20724762Y13655657D02*
X20772381Y13798514D01*
X20772381Y14036610D01*
X20724762Y14131848D01*
X20677143Y14179467D01*
X20581905Y14227086D01*
X20486667Y14227086D01*
X20391429Y14179467D01*
X20343810Y14131848D01*
X20296190Y14036610D01*
X20248571Y13846133D01*
X20200952Y13750895D01*
X20153333Y13703276D01*
X20058095Y13655657D01*
X19962857Y13655657D01*
X19867619Y13703276D01*
X19820000Y13750895D01*
X19772381Y13846133D01*
X19772381Y14084229D01*
X19820000Y14227086D01*
X19772381Y14846133D02*
X19772381Y15036610D01*
X19820000Y15131848D01*
X19915238Y15227086D01*
X20105714Y15274705D01*
X20439048Y15274705D01*
X20629524Y15227086D01*
X20724762Y15131848D01*
X20772381Y15036610D01*
X20772381Y14846133D01*
X20724762Y14750895D01*
X20629524Y14655657D01*
X20439048Y14608038D01*
X20105714Y14608038D01*
X19915238Y14655657D01*
X19820000Y14750895D01*
X19772381Y14846133D01*
X20772381Y16274705D02*
X20296190Y15941371D01*
X20772381Y15703276D02*
X19772381Y15703276D01*
X19772381Y16084229D01*
X19820000Y16179467D01*
X19867619Y16227086D01*
X19962857Y16274705D01*
X20105714Y16274705D01*
X20200952Y16227086D01*
X20248571Y16179467D01*
X20296190Y16084229D01*
X20296190Y15703276D01*
X22286981Y13900305D02*
X22286981Y14519353D01*
X22667933Y14186019D01*
X22667933Y14328877D01*
X22715552Y14424115D01*
X22763171Y14471734D01*
X22858410Y14519353D01*
X23096505Y14519353D01*
X23191743Y14471734D01*
X23239362Y14424115D01*
X23286981Y14328877D01*
X23286981Y14043162D01*
X23239362Y13947924D01*
X23191743Y13900305D01*
X22286981Y14805067D02*
X23286981Y15138400D01*
X22286981Y15471734D01*
X22286981Y15709829D02*
X22286981Y16328877D01*
X22667933Y15995543D01*
X22667933Y16138401D01*
X22715552Y16233639D01*
X22763171Y16281258D01*
X22858410Y16328877D01*
X23096505Y16328877D01*
X23191743Y16281258D01*
X23239362Y16233639D01*
X23286981Y16138401D01*
X23286981Y15852686D01*
X23239362Y15757448D01*
X23191743Y15709829D01*
X24900000Y14249496D02*
X24852381Y14154258D01*
X24852381Y14011401D01*
X24900000Y13868543D01*
X24995238Y13773305D01*
X25090476Y13725686D01*
X25280952Y13678067D01*
X25423810Y13678067D01*
X25614286Y13725686D01*
X25709524Y13773305D01*
X25804762Y13868543D01*
X25852381Y14011401D01*
X25852381Y14106639D01*
X25804762Y14249496D01*
X25757143Y14297115D01*
X25423810Y14297115D01*
X25423810Y14106639D01*
X25852381Y14725686D02*
X24852381Y14725686D01*
X25852381Y15297115D01*
X24852381Y15297115D01*
X25852381Y15773305D02*
X24852381Y15773305D01*
X24852381Y16011400D01*
X24900000Y16154258D01*
X24995238Y16249496D01*
X25090476Y16297115D01*
X25280952Y16344734D01*
X25423810Y16344734D01*
X25614286Y16297115D01*
X25709524Y16249496D01*
X25804762Y16154258D01*
X25852381Y16011400D01*
X25852381Y15773305D01*
D12*
X4761000Y-3695500D02*
X6161000Y-3695500D01*
X4761000Y-495500D02*
X6161000Y-495500D01*
X4761000Y-3695500D02*
X4761000Y-495500D01*
X6161000Y-495500D02*
X6161000Y-3695500D01*
X6514500Y-3695500D02*
X7914500Y-3695500D01*
X6514500Y-495500D02*
X7914500Y-495500D01*
X6514500Y-3695500D02*
X6514500Y-495500D01*
X7914500Y-495500D02*
X7914500Y-3695500D01*
X14453346Y2858896D02*
X13463396Y3848846D01*
X12190604Y596154D02*
X11200654Y1586104D01*
X14453346Y2858896D02*
X12190604Y596154D01*
X11200654Y1586104D02*
X13463396Y3848846D01*
X16201805Y1178355D02*
X15211855Y2168305D01*
X13939063Y-1084387D02*
X12949113Y-94437D01*
X16201805Y1178355D02*
X13939063Y-1084387D01*
X12949113Y-94437D02*
X15211855Y2168305D01*
X17143500Y-4394000D02*
X18543500Y-4394000D01*
X17143500Y-1194000D02*
X18543500Y-1194000D01*
X17143500Y-4394000D02*
X17143500Y-1194000D01*
X18543500Y-1194000D02*
X18543500Y-4394000D01*
X18794500Y-4394000D02*
X20194500Y-4394000D01*
X18794500Y-1194000D02*
X20194500Y-1194000D01*
X18794500Y-4394000D02*
X18794500Y-1194000D01*
X20194500Y-1194000D02*
X20194500Y-4394000D01*
X2983000Y-3695500D02*
X4383000Y-3695500D01*
X2983000Y-495500D02*
X4383000Y-495500D01*
X2983000Y-3695500D02*
X2983000Y-495500D01*
X4383000Y-495500D02*
X4383000Y-3695500D01*
X4940500Y-12317500D02*
X4940500Y-13717500D01*
X8140500Y-12317500D02*
X8140500Y-13717500D01*
X4940500Y-12317500D02*
X8140500Y-12317500D01*
X8140500Y-13717500D02*
X4940500Y-13717500D01*
X21337500Y-10401500D02*
X19937500Y-10401500D01*
X21337500Y-13601500D02*
X19937500Y-13601500D01*
X21337500Y-10401500D02*
X21337500Y-13601500D01*
X19937500Y-13601500D02*
X19937500Y-10401500D01*
X16395500Y-38800000D02*
X16395500Y-37400000D01*
X13195500Y-38800000D02*
X13195500Y-37400000D01*
X16395500Y-38800000D02*
X13195500Y-38800000D01*
X13195500Y-37400000D02*
X16395500Y-37400000D01*
X8637500Y-26086000D02*
X7237500Y-26086000D01*
X8637500Y-29286000D02*
X7237500Y-29286000D01*
X8637500Y-26086000D02*
X8637500Y-29286000D01*
X7237500Y-29286000D02*
X7237500Y-26086000D01*
X17292591Y2228299D02*
X18692591Y2228299D01*
X17292591Y5428299D02*
X18692591Y5428299D01*
X17292591Y2228299D02*
X17292591Y5428299D01*
X18692591Y5428299D02*
X18692591Y2228299D01*
X15578091Y2228299D02*
X16978091Y2228299D01*
X15578091Y5428299D02*
X16978091Y5428299D01*
X15578091Y2228299D02*
X15578091Y5428299D01*
X16978091Y5428299D02*
X16978091Y2228299D01*
X21842500Y-49669500D02*
X23242500Y-49669500D01*
X21842500Y-46469500D02*
X23242500Y-46469500D01*
X21842500Y-49669500D02*
X21842500Y-46469500D01*
X23242500Y-46469500D02*
X23242500Y-49669500D01*
X7544000Y-36574500D02*
X7544000Y-37974500D01*
X10744000Y-36574500D02*
X10744000Y-37974500D01*
X7544000Y-36574500D02*
X10744000Y-36574500D01*
X10744000Y-37974500D02*
X7544000Y-37974500D01*
X10539500Y-29286000D02*
X11939500Y-29286000D01*
X10539500Y-26086000D02*
X11939500Y-26086000D01*
X10539500Y-29286000D02*
X10539500Y-26086000D01*
X11939500Y-26086000D02*
X11939500Y-29286000D01*
X21058661Y-34029881D02*
X22458661Y-34029881D01*
X21058661Y-30829881D02*
X22458661Y-30829881D01*
X21058661Y-34029881D02*
X21058661Y-30829881D01*
X22458661Y-30829881D02*
X22458661Y-34029881D01*
X27983161Y-30766381D02*
X26583161Y-30766381D01*
X27983161Y-33966381D02*
X26583161Y-33966381D01*
X27983161Y-30766381D02*
X27983161Y-33966381D01*
X26583161Y-33966381D02*
X26583161Y-30766381D01*
X12864000Y-25211000D02*
X12864000Y-23811000D01*
X9664000Y-25211000D02*
X9664000Y-23811000D01*
X12864000Y-25211000D02*
X9664000Y-25211000D01*
X9664000Y-23811000D02*
X12864000Y-23811000D01*
X3138400Y-19380400D02*
X1738400Y-19380400D01*
X3138400Y-22580400D02*
X1738400Y-22580400D01*
X3138400Y-19380400D02*
X3138400Y-22580400D01*
X1738400Y-22580400D02*
X1738400Y-19380400D01*
X18465600Y-23369500D02*
X18465600Y-21969500D01*
X15265600Y-23369500D02*
X15265600Y-21969500D01*
X18465600Y-23369500D02*
X15265600Y-23369500D01*
X15265600Y-21969500D02*
X18465600Y-21969500D01*
X2170785Y19709463D02*
X2170785Y16509463D01*
X2170785Y16509463D02*
X770785Y16509463D01*
X770785Y16509463D02*
X770785Y19709463D01*
X770785Y19709463D02*
X2170785Y19709463D01*
X2170785Y19709463D02*
X2170785Y19909463D01*
X2170785Y19909463D02*
X770785Y19909463D01*
X770785Y19909463D02*
X770785Y19709463D01*
X6488785Y19709463D02*
X6488785Y16509463D01*
X6488785Y16509463D02*
X5088785Y16509463D01*
X5088785Y16509463D02*
X5088785Y19709463D01*
X5088785Y19709463D02*
X6488785Y19709463D01*
X6488785Y19709463D02*
X6488785Y19909463D01*
X6488785Y19909463D02*
X5088785Y19909463D01*
X5088785Y19909463D02*
X5088785Y19709463D01*
X15315285Y19709463D02*
X15315285Y16509463D01*
X15315285Y16509463D02*
X13915285Y16509463D01*
X13915285Y16509463D02*
X13915285Y19709463D01*
X13915285Y19709463D02*
X15315285Y19709463D01*
X15315285Y19709463D02*
X15315285Y19909463D01*
X15315285Y19909463D02*
X13915285Y19909463D01*
X13915285Y19909463D02*
X13915285Y19709463D01*
X10743285Y19709463D02*
X10743285Y16509463D01*
X10743285Y16509463D02*
X9343285Y16509463D01*
X9343285Y16509463D02*
X9343285Y19709463D01*
X9343285Y19709463D02*
X10743285Y19709463D01*
X10743285Y19709463D02*
X10743285Y19909463D01*
X10743285Y19909463D02*
X9343285Y19909463D01*
X9343285Y19909463D02*
X9343285Y19709463D01*
X4824800Y-28911600D02*
X4824800Y-28311600D01*
X2824800Y-30311600D02*
X4824800Y-30311600D01*
X2824800Y-29061600D02*
X2824800Y-29561600D01*
X4824800Y-28311600D02*
X2824800Y-28311600D01*
X4824800Y-30311600D02*
X4824800Y-29711600D01*
X20692211Y-42457500D02*
G75*
G03X20692211Y-42457500I-70711J0D01*
G01*
X20271500Y-41007500D02*
X20271500Y-40557500D01*
X18971500Y-41407500D02*
X18971500Y-40507500D01*
X18971500Y-39507500D02*
X20271500Y-39507500D01*
X18971500Y-42407500D02*
X20271500Y-42407500D01*
X16434000Y-32256500D02*
X19634000Y-32256500D01*
X19634000Y-32256500D02*
X19634000Y-33656500D01*
X19634000Y-33656500D02*
X16434000Y-33656500D01*
X16434000Y-33656500D02*
X16434000Y-32256500D01*
X16434000Y-32256500D02*
X16234000Y-32256500D01*
X16234000Y-32256500D02*
X16234000Y-33656500D01*
X16234000Y-33656500D02*
X16434000Y-33656500D01*
X16434000Y-30542000D02*
X19634000Y-30542000D01*
X19634000Y-30542000D02*
X19634000Y-31942000D01*
X19634000Y-31942000D02*
X16434000Y-31942000D01*
X16434000Y-31942000D02*
X16434000Y-30542000D01*
X16434000Y-30542000D02*
X16234000Y-30542000D01*
X16234000Y-30542000D02*
X16234000Y-31942000D01*
X16234000Y-31942000D02*
X16434000Y-31942000D01*
X14649500Y-42585000D02*
X15449500Y-42585000D01*
X14649500Y-41235000D02*
X15449500Y-41235000D01*
D13*
X21564600Y16704000D02*
X26704600Y16704000D01*
X26704600Y16704000D02*
X26704600Y19364000D01*
X26704600Y19364000D02*
X21564600Y19364000D01*
X21564600Y19364000D02*
X21564600Y16704000D01*
X20294600Y16704000D02*
X18964600Y16704000D01*
X18964600Y16704000D02*
X18964600Y18034000D01*
X7660000Y7702000D02*
X7680000Y7702000D01*
X7680000Y7702000D02*
X7680000Y5042000D01*
X7680000Y5042000D02*
X7660000Y5042000D01*
X1230000Y7702000D02*
X1210000Y7702000D01*
X1210000Y7702000D02*
X1210000Y5042000D01*
X1210000Y5042000D02*
X1230000Y5042000D01*
X7660000Y2737000D02*
X7660000Y5042000D01*
D14*
X15037911Y-43645400D02*
G75*
G03X15037911Y-43645400I-70711J0D01*
G01*
D12*
X20513200Y-46253400D02*
X20513200Y-44703400D01*
X20513200Y-44703400D02*
X19963200Y-44703400D01*
X12913200Y-46253400D02*
X12913200Y-44703400D01*
X12913200Y-44703400D02*
X13463200Y-44703400D01*
X20513200Y-48453400D02*
X20513200Y-49553400D01*
X12913200Y-49553400D02*
X12913200Y-48453400D01*
X12913200Y-49553400D02*
X20513200Y-49553400D01*
X9246000Y-43444500D02*
X9246000Y-41844500D01*
X9246000Y-41844500D02*
X10046000Y-41844500D01*
X10046000Y-41844500D02*
X10046000Y-45694500D01*
X3796000Y-49444500D02*
X8396000Y-49444500D01*
X2946000Y-43444500D02*
X2946000Y-41844500D01*
X2946000Y-41844500D02*
X2146000Y-41844500D01*
X2146000Y-41844500D02*
X2146000Y-45694500D01*
X9246000Y-43444500D02*
X7996000Y-43444500D01*
X2946000Y-43444500D02*
X4196000Y-43444500D01*
X1205000Y-3695500D02*
X2605000Y-3695500D01*
X1205000Y-495500D02*
X2605000Y-495500D01*
X1205000Y-3695500D02*
X1205000Y-495500D01*
X2605000Y-495500D02*
X2605000Y-3695500D01*
X16395500Y-40463700D02*
X16395500Y-39063700D01*
X13195500Y-40463700D02*
X13195500Y-39063700D01*
X16395500Y-40463700D02*
X13195500Y-40463700D01*
X13195500Y-39063700D02*
X16395500Y-39063700D01*
X3484285Y15865463D02*
X2084285Y15865463D01*
X2084285Y14965463D02*
X2084285Y15865463D01*
X2084285Y12865463D02*
X2084285Y13865463D01*
X3484285Y12865463D02*
X2084285Y12865463D01*
X3484285Y13965463D02*
X3484285Y14765463D01*
X7788285Y15862963D02*
X6388285Y15862963D01*
X6388285Y14962963D02*
X6388285Y15862963D01*
X6388285Y12862963D02*
X6388285Y13862963D01*
X7788285Y12862963D02*
X6388285Y12862963D01*
X7788285Y13962963D02*
X7788285Y14762963D01*
X16628785Y15862963D02*
X15228785Y15862963D01*
X15228785Y14962963D02*
X15228785Y15862963D01*
X15228785Y12862963D02*
X15228785Y13862963D01*
X16628785Y12862963D02*
X15228785Y12862963D01*
X16628785Y13962963D02*
X16628785Y14762963D01*
X12056785Y15862963D02*
X10656785Y15862963D01*
X10656785Y14962963D02*
X10656785Y15862963D01*
X10656785Y12862963D02*
X10656785Y13862963D01*
X12056785Y12862963D02*
X10656785Y12862963D01*
X12056785Y13962963D02*
X12056785Y14762963D01*
X4583785Y19709463D02*
X3183785Y19709463D01*
X4583785Y16509463D02*
X3183785Y16509463D01*
X4583785Y19709463D02*
X4583785Y16509463D01*
X3183785Y16509463D02*
X3183785Y19709463D01*
X23126900Y-4113300D02*
X23126900Y-5513300D01*
X26326900Y-4113300D02*
X26326900Y-5513300D01*
X23126900Y-4113300D02*
X26326900Y-4113300D01*
X26326900Y-5513300D02*
X23126900Y-5513300D01*
X19494700Y-8063000D02*
X19494700Y-9463000D01*
X22694700Y-8063000D02*
X22694700Y-9463000D01*
X19494700Y-8063000D02*
X22694700Y-8063000D01*
X22694700Y-9463000D02*
X19494700Y-9463000D01*
X8901785Y19709463D02*
X7501785Y19709463D01*
X8901785Y16509463D02*
X7501785Y16509463D01*
X8901785Y19709463D02*
X8901785Y16509463D01*
X7501785Y16509463D02*
X7501785Y19709463D01*
X17728285Y19709463D02*
X16328285Y19709463D01*
X17728285Y16509463D02*
X16328285Y16509463D01*
X17728285Y19709463D02*
X17728285Y16509463D01*
X16328285Y16509463D02*
X16328285Y19709463D01*
X13156285Y19709463D02*
X11756285Y19709463D01*
X13156285Y16509463D02*
X11756285Y16509463D01*
X13156285Y19709463D02*
X13156285Y16509463D01*
X11756285Y16509463D02*
X11756285Y19709463D01*
X10288500Y-26086000D02*
X8888500Y-26086000D01*
X10288500Y-29286000D02*
X8888500Y-29286000D01*
X10288500Y-26086000D02*
X10288500Y-29286000D01*
X8888500Y-29286000D02*
X8888500Y-26086000D01*
X1829000Y-31431000D02*
X1829000Y-32831000D01*
X5029000Y-31431000D02*
X5029000Y-32831000D01*
X1829000Y-31431000D02*
X5029000Y-31431000D01*
X5029000Y-32831000D02*
X1829000Y-32831000D01*
X22682900Y-7773900D02*
X22682900Y-6373900D01*
X19482900Y-7773900D02*
X19482900Y-6373900D01*
X22682900Y-7773900D02*
X19482900Y-7773900D01*
X19482900Y-6373900D02*
X22682900Y-6373900D01*
X1829000Y-33082000D02*
X1829000Y-34482000D01*
X5029000Y-33082000D02*
X5029000Y-34482000D01*
X1829000Y-33082000D02*
X5029000Y-33082000D01*
X5029000Y-34482000D02*
X1829000Y-34482000D01*
X1829000Y-34733000D02*
X1829000Y-36133000D01*
X5029000Y-34733000D02*
X5029000Y-36133000D01*
X1829000Y-34733000D02*
X5029000Y-34733000D01*
X5029000Y-36133000D02*
X1829000Y-36133000D01*
X22682900Y-6122900D02*
X22682900Y-4722900D01*
X19482900Y-6122900D02*
X19482900Y-4722900D01*
X22682900Y-6122900D02*
X19482900Y-6122900D01*
X19482900Y-4722900D02*
X22682900Y-4722900D01*
X23610400Y-48271200D02*
X23610400Y-49671200D01*
X26810400Y-48271200D02*
X26810400Y-49671200D01*
X23610400Y-48271200D02*
X26810400Y-48271200D01*
X26810400Y-49671200D02*
X23610400Y-49671200D01*
X20129700Y-19150100D02*
X20129700Y-20550100D01*
X23329700Y-19150100D02*
X23329700Y-20550100D01*
X20129700Y-19150100D02*
X23329700Y-19150100D01*
X23329700Y-20550100D02*
X20129700Y-20550100D01*
X20142400Y-20851900D02*
X20142400Y-22251900D01*
X23342400Y-20851900D02*
X23342400Y-22251900D01*
X20142400Y-20851900D02*
X23342400Y-20851900D01*
X23342400Y-22251900D02*
X20142400Y-22251900D01*
X12878000Y-32256500D02*
X12878000Y-33656500D01*
X16078000Y-32256500D02*
X16078000Y-33656500D01*
X12878000Y-32256500D02*
X16078000Y-32256500D01*
X16078000Y-33656500D02*
X12878000Y-33656500D01*
X12878000Y-30542000D02*
X12878000Y-31942000D01*
X16078000Y-30542000D02*
X16078000Y-31942000D01*
X12878000Y-30542000D02*
X16078000Y-30542000D01*
X16078000Y-31942000D02*
X12878000Y-31942000D01*
X5029000Y-37784000D02*
X5029000Y-36384000D01*
X1829000Y-37784000D02*
X1829000Y-36384000D01*
X5029000Y-37784000D02*
X1829000Y-37784000D01*
X1829000Y-36384000D02*
X5029000Y-36384000D01*
X21072161Y-34333381D02*
X21072161Y-35733381D01*
X24272161Y-34333381D02*
X24272161Y-35733381D01*
X21072161Y-34333381D02*
X24272161Y-34333381D01*
X24272161Y-35733381D02*
X21072161Y-35733381D01*
X27969661Y-35733381D02*
X27969661Y-34333381D01*
X24769661Y-35733381D02*
X24769661Y-34333381D01*
X27969661Y-35733381D02*
X24769661Y-35733381D01*
X24769661Y-34333381D02*
X27969661Y-34333381D01*
D13*
X24488200Y2297600D02*
X24588200Y2297600D01*
X27988200Y2297600D02*
X27888200Y2297600D01*
X27888200Y-2602400D02*
X27988200Y-2602400D01*
X24488200Y-2602400D02*
X24588200Y-2602400D01*
X25888200Y-2602400D02*
X26588200Y-2602400D01*
X25888200Y2297600D02*
X26588200Y2297600D01*
X24488200Y2297600D02*
X24488200Y-2602400D01*
X27988200Y-2602400D02*
X27988200Y2297600D01*
D14*
X11925538Y-3468344D02*
G75*
G03X11925538Y-3468344I-70711J0D01*
G01*
D12*
X12668000Y-13756747D02*
X17617747Y-8807000D01*
X7718253Y-8807000D02*
X12668000Y-3857253D01*
X12668000Y-3857253D02*
X17617747Y-8807000D01*
X7718253Y-8807000D02*
X12668000Y-13756747D01*
X7973500Y-31651500D02*
X7973500Y-31251500D01*
X7973500Y-31251500D02*
X8373500Y-31251500D01*
X10973500Y-31651500D02*
X10973500Y-31251500D01*
X10973500Y-31251500D02*
X10573500Y-31251500D01*
X10573500Y-34251500D02*
X10973500Y-34251500D01*
X10973500Y-34251500D02*
X10973500Y-33851500D01*
D14*
X8244211Y-34751500D02*
G75*
G03X8244211Y-34751500I-70711J0D01*
G01*
D12*
X7973500Y-33851500D02*
X7973500Y-34251500D01*
X7973500Y-34251500D02*
X8373500Y-34251500D01*
D14*
X4927211Y-17248500D02*
G75*
G03X4927211Y-17248500I-70711J0D01*
G01*
D12*
X6056500Y-17298500D02*
X6056500Y-22198500D01*
X6056500Y-22198500D02*
X9056500Y-22198500D01*
X9056500Y-22198500D02*
X9056500Y-17298500D01*
X9056500Y-17298500D02*
X6056500Y-17298500D01*
X25632661Y-31797381D02*
X25632661Y-29647381D01*
X23382661Y-32622381D02*
X23382661Y-29647381D01*
X13411000Y-29067000D02*
X19411000Y-29067000D01*
X13411000Y-29067000D02*
X13411000Y-24067000D01*
X13411000Y-24067000D02*
X19411000Y-24067000D01*
X19411000Y-24067000D02*
X19411000Y-29067000D01*
X10673117Y-938777D02*
X11380223Y-1645883D01*
X11733777Y121883D02*
X12440883Y-585223D01*
D15*
G36*
X28003374Y-13829847D02*
X28002897Y-13874550D01*
X28001922Y-13913039D01*
X28000303Y-13947289D01*
X27997894Y-13979272D01*
X27994546Y-14010960D01*
X27990115Y-14044327D01*
X27984452Y-14081344D01*
X27977912Y-14121017D01*
X27949870Y-14257300D01*
X27912260Y-14390828D01*
X27865410Y-14521130D01*
X27809651Y-14647733D01*
X27745315Y-14770167D01*
X27672731Y-14887959D01*
X27592230Y-15000640D01*
X27504142Y-15107736D01*
X27408798Y-15208778D01*
X27306528Y-15303293D01*
X27197663Y-15390810D01*
X27082533Y-15470858D01*
X26993723Y-15524879D01*
X26867108Y-15591763D01*
X26737681Y-15648902D01*
X26605401Y-15696305D01*
X26470225Y-15733984D01*
X26332112Y-15761949D01*
X26191020Y-15780208D01*
X26046906Y-15788773D01*
X25907009Y-15787935D01*
X25767106Y-15777726D01*
X25628665Y-15757604D01*
X25492198Y-15727772D01*
X25358218Y-15688432D01*
X25227234Y-15639787D01*
X25099759Y-15582039D01*
X24976304Y-15515391D01*
X24857380Y-15440044D01*
X24743498Y-15356202D01*
X24676296Y-15300603D01*
X24643152Y-15270748D01*
X24605848Y-15235107D01*
X24566346Y-15195713D01*
X24526608Y-15154599D01*
X24488597Y-15113797D01*
X24454275Y-15075342D01*
X24425604Y-15041265D01*
X24423777Y-15038993D01*
X24338291Y-14924418D01*
X24261374Y-14804863D01*
X24193329Y-14680877D01*
X24134460Y-14553012D01*
X24088617Y-14432280D01*
X24046788Y-14294611D01*
X24014878Y-14155268D01*
X23992939Y-14014638D01*
X23981024Y-13873111D01*
X23979183Y-13731076D01*
X23983164Y-13642340D01*
X23997711Y-13500710D01*
X24022071Y-13361196D01*
X24056034Y-13224265D01*
X24099386Y-13090382D01*
X24151918Y-12960012D01*
X24213416Y-12833621D01*
X24283670Y-12711675D01*
X24362468Y-12594638D01*
X24449599Y-12482977D01*
X24544850Y-12377157D01*
X24569489Y-12352088D01*
X24673426Y-12255213D01*
X24783028Y-12166571D01*
X24897817Y-12086305D01*
X25017313Y-12014556D01*
X25141038Y-11951467D01*
X25268511Y-11897180D01*
X25366238Y-11863287D01*
X25366238Y-12061472D01*
X25359206Y-12062475D01*
X25344428Y-12067137D01*
X25323388Y-12074870D01*
X25297568Y-12085089D01*
X25268453Y-12097205D01*
X25237526Y-12110631D01*
X25206348Y-12124745D01*
X25177738Y-12138821D01*
X25143129Y-12157159D01*
X25104956Y-12178360D01*
X25065655Y-12201024D01*
X25027663Y-12223753D01*
X24993417Y-12245146D01*
X24970860Y-12260014D01*
X24875600Y-12329787D01*
X24783278Y-12407081D01*
X24695395Y-12490401D01*
X24613452Y-12578252D01*
X24538948Y-12669140D01*
X24485089Y-12743950D01*
X24456986Y-12792519D01*
X24431958Y-12850145D01*
X24410202Y-12916139D01*
X24391919Y-12989814D01*
X24377306Y-13070483D01*
X24367090Y-13152120D01*
X24365371Y-13178716D01*
X24364620Y-13212163D01*
X24364798Y-13249201D01*
X24365868Y-13286570D01*
X24367793Y-13321011D01*
X24369242Y-13337927D01*
X24378826Y-13404834D01*
X24393478Y-13466790D01*
X24412804Y-13522643D01*
X24436404Y-13571244D01*
X24463683Y-13611202D01*
X24488200Y-13637428D01*
X24514199Y-13657022D01*
X24544150Y-13671336D01*
X24580520Y-13681721D01*
X24599047Y-13685369D01*
X24647708Y-13696409D01*
X24687991Y-13711183D01*
X24721234Y-13730459D01*
X24748776Y-13755001D01*
X24770706Y-13783623D01*
X24786140Y-13810508D01*
X24799376Y-13840423D01*
X24810536Y-13874191D01*
X24819747Y-13912640D01*
X24827132Y-13956593D01*
X24832816Y-14006877D01*
X24836924Y-14064317D01*
X24839580Y-14129739D01*
X24840910Y-14203967D01*
X24841122Y-14249925D01*
X24842511Y-14369192D01*
X24846528Y-14478788D01*
X24853169Y-14578682D01*
X24862432Y-14668842D01*
X24874315Y-14749240D01*
X24884947Y-14803120D01*
X24911670Y-14903517D01*
X24945991Y-14999207D01*
X24987532Y-15089506D01*
X25035915Y-15173726D01*
X25090761Y-15251185D01*
X25151692Y-15321196D01*
X25192710Y-15360878D01*
X25213295Y-15379475D01*
X25186582Y-15326247D01*
X25173469Y-15299108D01*
X25159932Y-15269419D01*
X25147960Y-15241611D01*
X25142344Y-15227644D01*
X25129604Y-15191071D01*
X25116606Y-15147364D01*
X25104084Y-15099500D01*
X25092773Y-15050455D01*
X25083409Y-15003208D01*
X25077043Y-14963140D01*
X25073335Y-14927408D01*
X25070567Y-14884144D01*
X25068762Y-14835933D01*
X25067941Y-14785360D01*
X25068125Y-14735012D01*
X25069338Y-14687474D01*
X25071600Y-14645331D01*
X25074126Y-14617700D01*
X25094217Y-14483245D01*
X25123530Y-14346674D01*
X25161723Y-14209298D01*
X25208454Y-14072426D01*
X25232812Y-14009776D01*
X25241390Y-13988678D01*
X25249599Y-13968834D01*
X25257966Y-13949071D01*
X25267015Y-13928212D01*
X25277272Y-13905084D01*
X25289262Y-13878512D01*
X25303511Y-13847321D01*
X25320543Y-13810338D01*
X25340885Y-13766386D01*
X25362499Y-13719810D01*
X25420725Y-13585175D01*
X25469976Y-13451523D01*
X25510232Y-13319155D01*
X25541474Y-13188372D01*
X25563682Y-13059477D01*
X25576836Y-12932769D01*
X25580915Y-12808552D01*
X25575900Y-12687126D01*
X25561770Y-12568793D01*
X25538507Y-12453855D01*
X25506090Y-12342614D01*
X25464499Y-12235370D01*
X25461135Y-12227779D01*
X25449537Y-12203061D01*
X25436035Y-12176265D01*
X25421545Y-12148992D01*
X25406979Y-12122841D01*
X25393251Y-12099412D01*
X25381273Y-12080306D01*
X25371958Y-12067124D01*
X25366238Y-12061472D01*
X25366238Y-11863287D01*
X25399255Y-11851836D01*
X25532790Y-11815578D01*
X25668636Y-11788549D01*
X25806316Y-11770889D01*
X25945349Y-11762741D01*
X26047728Y-11763843D01*
X26047728Y-11948481D01*
X25987655Y-11948508D01*
X25926049Y-11949952D01*
X25865493Y-11952737D01*
X25808566Y-11956789D01*
X25757850Y-11962032D01*
X25735280Y-11965129D01*
X25700941Y-11970709D01*
X25664678Y-11977242D01*
X25627769Y-11984432D01*
X25591494Y-11991983D01*
X25557130Y-11999599D01*
X25525957Y-12006985D01*
X25499253Y-12013844D01*
X25478297Y-12019881D01*
X25464367Y-12024799D01*
X25458742Y-12028303D01*
X25458914Y-12029087D01*
X25463684Y-12031681D01*
X25476920Y-12038581D01*
X25498033Y-12049487D01*
X25526434Y-12064095D01*
X25561534Y-12082106D01*
X25602745Y-12103217D01*
X25649477Y-12127126D01*
X25701141Y-12153533D01*
X25757148Y-12182136D01*
X25816910Y-12212633D01*
X25879837Y-12244723D01*
X25945340Y-12278104D01*
X25947519Y-12279214D01*
X26013079Y-12312644D01*
X26076059Y-12344818D01*
X26135873Y-12375436D01*
X26191933Y-12404192D01*
X26243652Y-12430784D01*
X26290443Y-12454909D01*
X26331718Y-12476263D01*
X26366890Y-12494543D01*
X26395373Y-12509446D01*
X26416578Y-12520668D01*
X26429919Y-12527906D01*
X26434809Y-12530858D01*
X26434819Y-12530879D01*
X26430662Y-12533899D01*
X26418271Y-12541264D01*
X26398390Y-12552565D01*
X26371763Y-12567394D01*
X26339136Y-12585341D01*
X26301252Y-12605999D01*
X26258857Y-12628956D01*
X26212694Y-12653806D01*
X26163510Y-12680139D01*
X26146600Y-12689161D01*
X26096543Y-12715896D01*
X26049229Y-12741269D01*
X26005407Y-12764872D01*
X25965824Y-12786296D01*
X25931228Y-12805135D01*
X25902368Y-12820981D01*
X25879992Y-12833424D01*
X25864849Y-12842058D01*
X25857685Y-12846474D01*
X25857200Y-12846936D01*
X25861616Y-12849705D01*
X25874465Y-12856822D01*
X25895157Y-12867978D01*
X25923096Y-12882859D01*
X25957691Y-12901155D01*
X25998349Y-12922554D01*
X26044475Y-12946743D01*
X26095478Y-12973412D01*
X26150764Y-13002249D01*
X26209739Y-13032942D01*
X26271811Y-13065179D01*
X26325830Y-13093182D01*
X26390116Y-13126494D01*
X26451860Y-13158518D01*
X26510466Y-13188942D01*
X26565334Y-13217454D01*
X26615865Y-13243742D01*
X26661462Y-13267494D01*
X26701525Y-13288399D01*
X26735456Y-13306143D01*
X26762656Y-13320415D01*
X26782526Y-13330903D01*
X26794468Y-13337295D01*
X26797931Y-13339266D01*
X26794061Y-13342090D01*
X26781838Y-13349342D01*
X26761880Y-13360687D01*
X26734806Y-13375785D01*
X26701234Y-13394297D01*
X26661782Y-13415887D01*
X26617070Y-13440215D01*
X26567715Y-13466943D01*
X26514336Y-13495733D01*
X26457551Y-13526247D01*
X26397979Y-13558147D01*
X26387775Y-13563600D01*
X26327725Y-13595709D01*
X26270293Y-13626471D01*
X26216105Y-13655548D01*
X26165785Y-13682603D01*
X26119958Y-13707298D01*
X26079249Y-13729296D01*
X26044282Y-13748258D01*
X26015682Y-13763846D01*
X25994075Y-13775725D01*
X25980084Y-13783554D01*
X25974334Y-13786998D01*
X25974221Y-13787120D01*
X25978607Y-13789887D01*
X25991154Y-13796839D01*
X26010985Y-13807511D01*
X26037224Y-13821441D01*
X26068997Y-13838166D01*
X26105428Y-13857225D01*
X26145640Y-13878154D01*
X26188759Y-13900490D01*
X26190067Y-13901166D01*
X26233263Y-13923559D01*
X26273575Y-13944590D01*
X26310127Y-13963795D01*
X26342044Y-13980706D01*
X26368448Y-13994857D01*
X26388466Y-14005782D01*
X26401221Y-14013013D01*
X26405837Y-14016085D01*
X26405840Y-14016107D01*
X26401463Y-14018955D01*
X26388756Y-14026234D01*
X26368357Y-14037596D01*
X26340903Y-14052696D01*
X26307032Y-14071187D01*
X26267381Y-14092723D01*
X26222588Y-14116958D01*
X26173290Y-14143545D01*
X26120125Y-14172137D01*
X26063731Y-14202390D01*
X26008330Y-14232039D01*
X25948973Y-14263777D01*
X25891867Y-14294324D01*
X25837693Y-14323315D01*
X25787129Y-14350388D01*
X25740854Y-14375178D01*
X25699546Y-14397322D01*
X25663885Y-14416455D01*
X25634548Y-14432214D01*
X25612215Y-14444235D01*
X25597564Y-14452155D01*
X25591550Y-14455450D01*
X25572280Y-14466362D01*
X25774430Y-14570898D01*
X25816174Y-14592577D01*
X25854977Y-14612907D01*
X25889937Y-14631403D01*
X25920155Y-14647580D01*
X25944730Y-14660954D01*
X25962760Y-14671038D01*
X25973345Y-14677349D01*
X25975854Y-14679334D01*
X25971361Y-14682538D01*
X25958894Y-14689942D01*
X25939455Y-14700987D01*
X25914049Y-14715114D01*
X25883677Y-14731767D01*
X25849345Y-14750387D01*
X25812130Y-14770376D01*
X25775022Y-14790336D01*
X25741041Y-14808848D01*
X25711159Y-14825364D01*
X25686351Y-14839336D01*
X25667592Y-14850214D01*
X25655854Y-14857450D01*
X25652111Y-14860496D01*
X25652120Y-14860506D01*
X25657008Y-14863265D01*
X25670218Y-14870314D01*
X25691041Y-14881283D01*
X25718770Y-14895805D01*
X25752698Y-14913510D01*
X25792116Y-14934030D01*
X25836318Y-14956995D01*
X25884595Y-14982037D01*
X25936240Y-15008787D01*
X25990545Y-15036877D01*
X25992285Y-15037776D01*
X26046576Y-15065872D01*
X26098157Y-15092632D01*
X26146329Y-15117689D01*
X26190394Y-15140676D01*
X26229650Y-15161225D01*
X26263400Y-15178971D01*
X26290944Y-15193547D01*
X26311582Y-15204584D01*
X26324614Y-15211717D01*
X26329343Y-15214579D01*
X26329349Y-15214600D01*
X26325043Y-15217492D01*
X26312629Y-15225038D01*
X26292808Y-15236830D01*
X26266281Y-15252457D01*
X26233749Y-15271510D01*
X26195911Y-15293579D01*
X26153469Y-15318254D01*
X26107123Y-15345127D01*
X26057573Y-15373787D01*
X26016999Y-15397207D01*
X25965530Y-15426970D01*
X25916812Y-15455296D01*
X25871536Y-15481776D01*
X25830391Y-15505999D01*
X25794068Y-15527553D01*
X25763256Y-15546027D01*
X25738645Y-15561011D01*
X25720925Y-15572094D01*
X25710787Y-15578865D01*
X25708592Y-15580896D01*
X25716984Y-15584275D01*
X25734201Y-15587656D01*
X25758906Y-15590936D01*
X25789765Y-15594013D01*
X25825442Y-15596786D01*
X25864602Y-15599151D01*
X25905909Y-15601006D01*
X25948029Y-15602249D01*
X25989626Y-15602778D01*
X25994360Y-15602789D01*
X26081732Y-15601464D01*
X26162216Y-15597082D01*
X26238709Y-15589320D01*
X26314108Y-15577856D01*
X26391310Y-15562366D01*
X26423620Y-15554904D01*
X26552795Y-15519194D01*
X26677143Y-15474809D01*
X26797442Y-15421407D01*
X26914468Y-15358649D01*
X27015440Y-15295358D01*
X27068226Y-15258955D01*
X27115984Y-15223606D01*
X27161054Y-15187373D01*
X27205771Y-15148314D01*
X27252475Y-15104491D01*
X27289979Y-15067565D01*
X27354708Y-15000341D01*
X27412162Y-14935173D01*
X27464209Y-14869690D01*
X27512719Y-14801521D01*
X27559560Y-14728297D01*
X27566474Y-14716870D01*
X27631543Y-14598939D01*
X27687248Y-14477628D01*
X27733604Y-14353467D01*
X27770624Y-14226984D01*
X27798323Y-14098708D01*
X27816716Y-13969166D01*
X27825816Y-13838887D01*
X27825638Y-13708401D01*
X27816197Y-13578235D01*
X27797507Y-13448917D01*
X27769582Y-13320977D01*
X27732437Y-13194943D01*
X27686086Y-13071343D01*
X27630543Y-12950705D01*
X27565823Y-12833559D01*
X27512960Y-12750800D01*
X27432831Y-12641413D01*
X27345509Y-12538962D01*
X27251452Y-12443718D01*
X27151120Y-12355950D01*
X27044972Y-12275926D01*
X26933467Y-12203917D01*
X26817064Y-12140192D01*
X26696223Y-12085019D01*
X26571403Y-12038670D01*
X26443064Y-12001412D01*
X26311663Y-11973516D01*
X26177661Y-11955250D01*
X26152956Y-11952976D01*
X26103689Y-11949945D01*
X26047728Y-11948481D01*
X26047728Y-11763843D01*
X26085256Y-11764248D01*
X26225559Y-11775551D01*
X26365778Y-11796793D01*
X26411266Y-11805863D01*
X26548128Y-11839860D01*
X26681082Y-11882992D01*
X26809775Y-11934895D01*
X26933859Y-11995205D01*
X27052983Y-12063559D01*
X27166795Y-12139593D01*
X27274946Y-12222942D01*
X27377085Y-12313244D01*
X27472861Y-12410133D01*
X27561924Y-12513248D01*
X27643923Y-12622223D01*
X27718508Y-12736695D01*
X27785328Y-12856299D01*
X27844032Y-12980674D01*
X27894270Y-13109453D01*
X27935692Y-13242274D01*
X27967946Y-13378774D01*
X27977724Y-13431520D01*
X27984712Y-13473305D01*
X27990329Y-13509911D01*
X27994721Y-13543288D01*
X27998033Y-13575385D01*
X28000412Y-13608153D01*
X28002002Y-13643541D01*
X28002950Y-13683500D01*
X28003400Y-13729978D01*
X28003500Y-13776960D01*
X28003374Y-13829847D01*
X28003374Y-13829847D01*
G37*
X28003374Y-13829847D02*
X28002897Y-13874550D01*
X28001922Y-13913039D01*
X28000303Y-13947289D01*
X27997894Y-13979272D01*
X27994546Y-14010960D01*
X27990115Y-14044327D01*
X27984452Y-14081344D01*
X27977912Y-14121017D01*
X27949870Y-14257300D01*
X27912260Y-14390828D01*
X27865410Y-14521130D01*
X27809651Y-14647733D01*
X27745315Y-14770167D01*
X27672731Y-14887959D01*
X27592230Y-15000640D01*
X27504142Y-15107736D01*
X27408798Y-15208778D01*
X27306528Y-15303293D01*
X27197663Y-15390810D01*
X27082533Y-15470858D01*
X26993723Y-15524879D01*
X26867108Y-15591763D01*
X26737681Y-15648902D01*
X26605401Y-15696305D01*
X26470225Y-15733984D01*
X26332112Y-15761949D01*
X26191020Y-15780208D01*
X26046906Y-15788773D01*
X25907009Y-15787935D01*
X25767106Y-15777726D01*
X25628665Y-15757604D01*
X25492198Y-15727772D01*
X25358218Y-15688432D01*
X25227234Y-15639787D01*
X25099759Y-15582039D01*
X24976304Y-15515391D01*
X24857380Y-15440044D01*
X24743498Y-15356202D01*
X24676296Y-15300603D01*
X24643152Y-15270748D01*
X24605848Y-15235107D01*
X24566346Y-15195713D01*
X24526608Y-15154599D01*
X24488597Y-15113797D01*
X24454275Y-15075342D01*
X24425604Y-15041265D01*
X24423777Y-15038993D01*
X24338291Y-14924418D01*
X24261374Y-14804863D01*
X24193329Y-14680877D01*
X24134460Y-14553012D01*
X24088617Y-14432280D01*
X24046788Y-14294611D01*
X24014878Y-14155268D01*
X23992939Y-14014638D01*
X23981024Y-13873111D01*
X23979183Y-13731076D01*
X23983164Y-13642340D01*
X23997711Y-13500710D01*
X24022071Y-13361196D01*
X24056034Y-13224265D01*
X24099386Y-13090382D01*
X24151918Y-12960012D01*
X24213416Y-12833621D01*
X24283670Y-12711675D01*
X24362468Y-12594638D01*
X24449599Y-12482977D01*
X24544850Y-12377157D01*
X24569489Y-12352088D01*
X24673426Y-12255213D01*
X24783028Y-12166571D01*
X24897817Y-12086305D01*
X25017313Y-12014556D01*
X25141038Y-11951467D01*
X25268511Y-11897180D01*
X25366238Y-11863287D01*
X25366238Y-12061472D01*
X25359206Y-12062475D01*
X25344428Y-12067137D01*
X25323388Y-12074870D01*
X25297568Y-12085089D01*
X25268453Y-12097205D01*
X25237526Y-12110631D01*
X25206348Y-12124745D01*
X25177738Y-12138821D01*
X25143129Y-12157159D01*
X25104956Y-12178360D01*
X25065655Y-12201024D01*
X25027663Y-12223753D01*
X24993417Y-12245146D01*
X24970860Y-12260014D01*
X24875600Y-12329787D01*
X24783278Y-12407081D01*
X24695395Y-12490401D01*
X24613452Y-12578252D01*
X24538948Y-12669140D01*
X24485089Y-12743950D01*
X24456986Y-12792519D01*
X24431958Y-12850145D01*
X24410202Y-12916139D01*
X24391919Y-12989814D01*
X24377306Y-13070483D01*
X24367090Y-13152120D01*
X24365371Y-13178716D01*
X24364620Y-13212163D01*
X24364798Y-13249201D01*
X24365868Y-13286570D01*
X24367793Y-13321011D01*
X24369242Y-13337927D01*
X24378826Y-13404834D01*
X24393478Y-13466790D01*
X24412804Y-13522643D01*
X24436404Y-13571244D01*
X24463683Y-13611202D01*
X24488200Y-13637428D01*
X24514199Y-13657022D01*
X24544150Y-13671336D01*
X24580520Y-13681721D01*
X24599047Y-13685369D01*
X24647708Y-13696409D01*
X24687991Y-13711183D01*
X24721234Y-13730459D01*
X24748776Y-13755001D01*
X24770706Y-13783623D01*
X24786140Y-13810508D01*
X24799376Y-13840423D01*
X24810536Y-13874191D01*
X24819747Y-13912640D01*
X24827132Y-13956593D01*
X24832816Y-14006877D01*
X24836924Y-14064317D01*
X24839580Y-14129739D01*
X24840910Y-14203967D01*
X24841122Y-14249925D01*
X24842511Y-14369192D01*
X24846528Y-14478788D01*
X24853169Y-14578682D01*
X24862432Y-14668842D01*
X24874315Y-14749240D01*
X24884947Y-14803120D01*
X24911670Y-14903517D01*
X24945991Y-14999207D01*
X24987532Y-15089506D01*
X25035915Y-15173726D01*
X25090761Y-15251185D01*
X25151692Y-15321196D01*
X25192710Y-15360878D01*
X25213295Y-15379475D01*
X25186582Y-15326247D01*
X25173469Y-15299108D01*
X25159932Y-15269419D01*
X25147960Y-15241611D01*
X25142344Y-15227644D01*
X25129604Y-15191071D01*
X25116606Y-15147364D01*
X25104084Y-15099500D01*
X25092773Y-15050455D01*
X25083409Y-15003208D01*
X25077043Y-14963140D01*
X25073335Y-14927408D01*
X25070567Y-14884144D01*
X25068762Y-14835933D01*
X25067941Y-14785360D01*
X25068125Y-14735012D01*
X25069338Y-14687474D01*
X25071600Y-14645331D01*
X25074126Y-14617700D01*
X25094217Y-14483245D01*
X25123530Y-14346674D01*
X25161723Y-14209298D01*
X25208454Y-14072426D01*
X25232812Y-14009776D01*
X25241390Y-13988678D01*
X25249599Y-13968834D01*
X25257966Y-13949071D01*
X25267015Y-13928212D01*
X25277272Y-13905084D01*
X25289262Y-13878512D01*
X25303511Y-13847321D01*
X25320543Y-13810338D01*
X25340885Y-13766386D01*
X25362499Y-13719810D01*
X25420725Y-13585175D01*
X25469976Y-13451523D01*
X25510232Y-13319155D01*
X25541474Y-13188372D01*
X25563682Y-13059477D01*
X25576836Y-12932769D01*
X25580915Y-12808552D01*
X25575900Y-12687126D01*
X25561770Y-12568793D01*
X25538507Y-12453855D01*
X25506090Y-12342614D01*
X25464499Y-12235370D01*
X25461135Y-12227779D01*
X25449537Y-12203061D01*
X25436035Y-12176265D01*
X25421545Y-12148992D01*
X25406979Y-12122841D01*
X25393251Y-12099412D01*
X25381273Y-12080306D01*
X25371958Y-12067124D01*
X25366238Y-12061472D01*
X25366238Y-11863287D01*
X25399255Y-11851836D01*
X25532790Y-11815578D01*
X25668636Y-11788549D01*
X25806316Y-11770889D01*
X25945349Y-11762741D01*
X26047728Y-11763843D01*
X26047728Y-11948481D01*
X25987655Y-11948508D01*
X25926049Y-11949952D01*
X25865493Y-11952737D01*
X25808566Y-11956789D01*
X25757850Y-11962032D01*
X25735280Y-11965129D01*
X25700941Y-11970709D01*
X25664678Y-11977242D01*
X25627769Y-11984432D01*
X25591494Y-11991983D01*
X25557130Y-11999599D01*
X25525957Y-12006985D01*
X25499253Y-12013844D01*
X25478297Y-12019881D01*
X25464367Y-12024799D01*
X25458742Y-12028303D01*
X25458914Y-12029087D01*
X25463684Y-12031681D01*
X25476920Y-12038581D01*
X25498033Y-12049487D01*
X25526434Y-12064095D01*
X25561534Y-12082106D01*
X25602745Y-12103217D01*
X25649477Y-12127126D01*
X25701141Y-12153533D01*
X25757148Y-12182136D01*
X25816910Y-12212633D01*
X25879837Y-12244723D01*
X25945340Y-12278104D01*
X25947519Y-12279214D01*
X26013079Y-12312644D01*
X26076059Y-12344818D01*
X26135873Y-12375436D01*
X26191933Y-12404192D01*
X26243652Y-12430784D01*
X26290443Y-12454909D01*
X26331718Y-12476263D01*
X26366890Y-12494543D01*
X26395373Y-12509446D01*
X26416578Y-12520668D01*
X26429919Y-12527906D01*
X26434809Y-12530858D01*
X26434819Y-12530879D01*
X26430662Y-12533899D01*
X26418271Y-12541264D01*
X26398390Y-12552565D01*
X26371763Y-12567394D01*
X26339136Y-12585341D01*
X26301252Y-12605999D01*
X26258857Y-12628956D01*
X26212694Y-12653806D01*
X26163510Y-12680139D01*
X26146600Y-12689161D01*
X26096543Y-12715896D01*
X26049229Y-12741269D01*
X26005407Y-12764872D01*
X25965824Y-12786296D01*
X25931228Y-12805135D01*
X25902368Y-12820981D01*
X25879992Y-12833424D01*
X25864849Y-12842058D01*
X25857685Y-12846474D01*
X25857200Y-12846936D01*
X25861616Y-12849705D01*
X25874465Y-12856822D01*
X25895157Y-12867978D01*
X25923096Y-12882859D01*
X25957691Y-12901155D01*
X25998349Y-12922554D01*
X26044475Y-12946743D01*
X26095478Y-12973412D01*
X26150764Y-13002249D01*
X26209739Y-13032942D01*
X26271811Y-13065179D01*
X26325830Y-13093182D01*
X26390116Y-13126494D01*
X26451860Y-13158518D01*
X26510466Y-13188942D01*
X26565334Y-13217454D01*
X26615865Y-13243742D01*
X26661462Y-13267494D01*
X26701525Y-13288399D01*
X26735456Y-13306143D01*
X26762656Y-13320415D01*
X26782526Y-13330903D01*
X26794468Y-13337295D01*
X26797931Y-13339266D01*
X26794061Y-13342090D01*
X26781838Y-13349342D01*
X26761880Y-13360687D01*
X26734806Y-13375785D01*
X26701234Y-13394297D01*
X26661782Y-13415887D01*
X26617070Y-13440215D01*
X26567715Y-13466943D01*
X26514336Y-13495733D01*
X26457551Y-13526247D01*
X26397979Y-13558147D01*
X26387775Y-13563600D01*
X26327725Y-13595709D01*
X26270293Y-13626471D01*
X26216105Y-13655548D01*
X26165785Y-13682603D01*
X26119958Y-13707298D01*
X26079249Y-13729296D01*
X26044282Y-13748258D01*
X26015682Y-13763846D01*
X25994075Y-13775725D01*
X25980084Y-13783554D01*
X25974334Y-13786998D01*
X25974221Y-13787120D01*
X25978607Y-13789887D01*
X25991154Y-13796839D01*
X26010985Y-13807511D01*
X26037224Y-13821441D01*
X26068997Y-13838166D01*
X26105428Y-13857225D01*
X26145640Y-13878154D01*
X26188759Y-13900490D01*
X26190067Y-13901166D01*
X26233263Y-13923559D01*
X26273575Y-13944590D01*
X26310127Y-13963795D01*
X26342044Y-13980706D01*
X26368448Y-13994857D01*
X26388466Y-14005782D01*
X26401221Y-14013013D01*
X26405837Y-14016085D01*
X26405840Y-14016107D01*
X26401463Y-14018955D01*
X26388756Y-14026234D01*
X26368357Y-14037596D01*
X26340903Y-14052696D01*
X26307032Y-14071187D01*
X26267381Y-14092723D01*
X26222588Y-14116958D01*
X26173290Y-14143545D01*
X26120125Y-14172137D01*
X26063731Y-14202390D01*
X26008330Y-14232039D01*
X25948973Y-14263777D01*
X25891867Y-14294324D01*
X25837693Y-14323315D01*
X25787129Y-14350388D01*
X25740854Y-14375178D01*
X25699546Y-14397322D01*
X25663885Y-14416455D01*
X25634548Y-14432214D01*
X25612215Y-14444235D01*
X25597564Y-14452155D01*
X25591550Y-14455450D01*
X25572280Y-14466362D01*
X25774430Y-14570898D01*
X25816174Y-14592577D01*
X25854977Y-14612907D01*
X25889937Y-14631403D01*
X25920155Y-14647580D01*
X25944730Y-14660954D01*
X25962760Y-14671038D01*
X25973345Y-14677349D01*
X25975854Y-14679334D01*
X25971361Y-14682538D01*
X25958894Y-14689942D01*
X25939455Y-14700987D01*
X25914049Y-14715114D01*
X25883677Y-14731767D01*
X25849345Y-14750387D01*
X25812130Y-14770376D01*
X25775022Y-14790336D01*
X25741041Y-14808848D01*
X25711159Y-14825364D01*
X25686351Y-14839336D01*
X25667592Y-14850214D01*
X25655854Y-14857450D01*
X25652111Y-14860496D01*
X25652120Y-14860506D01*
X25657008Y-14863265D01*
X25670218Y-14870314D01*
X25691041Y-14881283D01*
X25718770Y-14895805D01*
X25752698Y-14913510D01*
X25792116Y-14934030D01*
X25836318Y-14956995D01*
X25884595Y-14982037D01*
X25936240Y-15008787D01*
X25990545Y-15036877D01*
X25992285Y-15037776D01*
X26046576Y-15065872D01*
X26098157Y-15092632D01*
X26146329Y-15117689D01*
X26190394Y-15140676D01*
X26229650Y-15161225D01*
X26263400Y-15178971D01*
X26290944Y-15193547D01*
X26311582Y-15204584D01*
X26324614Y-15211717D01*
X26329343Y-15214579D01*
X26329349Y-15214600D01*
X26325043Y-15217492D01*
X26312629Y-15225038D01*
X26292808Y-15236830D01*
X26266281Y-15252457D01*
X26233749Y-15271510D01*
X26195911Y-15293579D01*
X26153469Y-15318254D01*
X26107123Y-15345127D01*
X26057573Y-15373787D01*
X26016999Y-15397207D01*
X25965530Y-15426970D01*
X25916812Y-15455296D01*
X25871536Y-15481776D01*
X25830391Y-15505999D01*
X25794068Y-15527553D01*
X25763256Y-15546027D01*
X25738645Y-15561011D01*
X25720925Y-15572094D01*
X25710787Y-15578865D01*
X25708592Y-15580896D01*
X25716984Y-15584275D01*
X25734201Y-15587656D01*
X25758906Y-15590936D01*
X25789765Y-15594013D01*
X25825442Y-15596786D01*
X25864602Y-15599151D01*
X25905909Y-15601006D01*
X25948029Y-15602249D01*
X25989626Y-15602778D01*
X25994360Y-15602789D01*
X26081732Y-15601464D01*
X26162216Y-15597082D01*
X26238709Y-15589320D01*
X26314108Y-15577856D01*
X26391310Y-15562366D01*
X26423620Y-15554904D01*
X26552795Y-15519194D01*
X26677143Y-15474809D01*
X26797442Y-15421407D01*
X26914468Y-15358649D01*
X27015440Y-15295358D01*
X27068226Y-15258955D01*
X27115984Y-15223606D01*
X27161054Y-15187373D01*
X27205771Y-15148314D01*
X27252475Y-15104491D01*
X27289979Y-15067565D01*
X27354708Y-15000341D01*
X27412162Y-14935173D01*
X27464209Y-14869690D01*
X27512719Y-14801521D01*
X27559560Y-14728297D01*
X27566474Y-14716870D01*
X27631543Y-14598939D01*
X27687248Y-14477628D01*
X27733604Y-14353467D01*
X27770624Y-14226984D01*
X27798323Y-14098708D01*
X27816716Y-13969166D01*
X27825816Y-13838887D01*
X27825638Y-13708401D01*
X27816197Y-13578235D01*
X27797507Y-13448917D01*
X27769582Y-13320977D01*
X27732437Y-13194943D01*
X27686086Y-13071343D01*
X27630543Y-12950705D01*
X27565823Y-12833559D01*
X27512960Y-12750800D01*
X27432831Y-12641413D01*
X27345509Y-12538962D01*
X27251452Y-12443718D01*
X27151120Y-12355950D01*
X27044972Y-12275926D01*
X26933467Y-12203917D01*
X26817064Y-12140192D01*
X26696223Y-12085019D01*
X26571403Y-12038670D01*
X26443064Y-12001412D01*
X26311663Y-11973516D01*
X26177661Y-11955250D01*
X26152956Y-11952976D01*
X26103689Y-11949945D01*
X26047728Y-11948481D01*
X26047728Y-11763843D01*
X26085256Y-11764248D01*
X26225559Y-11775551D01*
X26365778Y-11796793D01*
X26411266Y-11805863D01*
X26548128Y-11839860D01*
X26681082Y-11882992D01*
X26809775Y-11934895D01*
X26933859Y-11995205D01*
X27052983Y-12063559D01*
X27166795Y-12139593D01*
X27274946Y-12222942D01*
X27377085Y-12313244D01*
X27472861Y-12410133D01*
X27561924Y-12513248D01*
X27643923Y-12622223D01*
X27718508Y-12736695D01*
X27785328Y-12856299D01*
X27844032Y-12980674D01*
X27894270Y-13109453D01*
X27935692Y-13242274D01*
X27967946Y-13378774D01*
X27977724Y-13431520D01*
X27984712Y-13473305D01*
X27990329Y-13509911D01*
X27994721Y-13543288D01*
X27998033Y-13575385D01*
X28000412Y-13608153D01*
X28002002Y-13643541D01*
X28002950Y-13683500D01*
X28003400Y-13729978D01*
X28003500Y-13776960D01*
X28003374Y-13829847D01*
G36*
X26446421Y-26108794D02*
X26446252Y-26144998D01*
X26445988Y-26176551D01*
X26445644Y-26202254D01*
X26445234Y-26220911D01*
X26444773Y-26231326D01*
X26444477Y-26233120D01*
X26438694Y-26231346D01*
X26424116Y-26226202D01*
X26401435Y-26217949D01*
X26371346Y-26206850D01*
X26334540Y-26193170D01*
X26291710Y-26177171D01*
X26243549Y-26159115D01*
X26190751Y-26139266D01*
X26134007Y-26117887D01*
X26074011Y-26095241D01*
X26011456Y-26071591D01*
X25947034Y-26047200D01*
X25881438Y-26022331D01*
X25815361Y-25997247D01*
X25749496Y-25972211D01*
X25684535Y-25947486D01*
X25621172Y-25923336D01*
X25560100Y-25900022D01*
X25502010Y-25877809D01*
X25447596Y-25856959D01*
X25397551Y-25837736D01*
X25352568Y-25820401D01*
X25313339Y-25805219D01*
X25280557Y-25792452D01*
X25254916Y-25782364D01*
X25237107Y-25775217D01*
X25227824Y-25771275D01*
X25227280Y-25771012D01*
X25171086Y-25739047D01*
X25124462Y-25704247D01*
X25087140Y-25666316D01*
X25058852Y-25624956D01*
X25039331Y-25579869D01*
X25032574Y-25554940D01*
X25026535Y-25518277D01*
X25022892Y-25476197D01*
X25021858Y-25433204D01*
X25023644Y-25393805D01*
X25024578Y-25384866D01*
X25033912Y-25331869D01*
X25049689Y-25278875D01*
X25055636Y-25262840D01*
X25064417Y-25241401D01*
X25073998Y-25220127D01*
X25083353Y-25201059D01*
X25091455Y-25186237D01*
X25097278Y-25177702D01*
X25099084Y-25176426D01*
X25105406Y-25178487D01*
X25119073Y-25184242D01*
X25138555Y-25192961D01*
X25162328Y-25203913D01*
X25188863Y-25216366D01*
X25216634Y-25229589D01*
X25244113Y-25242850D01*
X25269775Y-25255420D01*
X25292092Y-25266565D01*
X25309537Y-25275556D01*
X25320583Y-25281661D01*
X25323800Y-25284041D01*
X25321657Y-25290781D01*
X25316141Y-25303315D01*
X25311058Y-25313723D01*
X25294131Y-25354976D01*
X25285344Y-25395156D01*
X25284943Y-25432711D01*
X25288831Y-25453340D01*
X25296571Y-25469888D01*
X25309574Y-25487253D01*
X25325073Y-25502451D01*
X25340295Y-25512503D01*
X25345543Y-25514381D01*
X25352380Y-25512995D01*
X25368637Y-25507803D01*
X25394312Y-25498806D01*
X25429404Y-25486004D01*
X25473913Y-25469398D01*
X25527836Y-25448987D01*
X25591173Y-25424773D01*
X25663924Y-25396756D01*
X25746086Y-25364935D01*
X25837660Y-25329312D01*
X25897003Y-25306160D01*
X25967749Y-25278547D01*
X26035872Y-25251989D01*
X26100771Y-25226718D01*
X26161847Y-25202966D01*
X26218501Y-25180965D01*
X26270134Y-25160948D01*
X26316144Y-25143147D01*
X26355933Y-25127793D01*
X26388902Y-25115119D01*
X26414449Y-25105357D01*
X26431977Y-25098740D01*
X26440885Y-25095499D01*
X26441903Y-25095200D01*
X26443145Y-25100144D01*
X26444143Y-25114441D01*
X26444881Y-25137286D01*
X26445342Y-25167874D01*
X26445510Y-25205399D01*
X26445368Y-25249058D01*
X26445280Y-25261148D01*
X26443940Y-25427096D01*
X26078732Y-25548830D01*
X25713524Y-25670565D01*
X25972052Y-25753607D01*
X26025570Y-25770789D01*
X26079717Y-25788158D01*
X26133042Y-25805248D01*
X26184091Y-25821594D01*
X26231411Y-25836733D01*
X26273551Y-25850198D01*
X26309057Y-25861525D01*
X26336476Y-25870248D01*
X26338530Y-25870900D01*
X26446480Y-25905151D01*
X26446480Y-26069135D01*
X26446421Y-26108794D01*
X26446421Y-26108794D01*
G37*
X26446421Y-26108794D02*
X26446252Y-26144998D01*
X26445988Y-26176551D01*
X26445644Y-26202254D01*
X26445234Y-26220911D01*
X26444773Y-26231326D01*
X26444477Y-26233120D01*
X26438694Y-26231346D01*
X26424116Y-26226202D01*
X26401435Y-26217949D01*
X26371346Y-26206850D01*
X26334540Y-26193170D01*
X26291710Y-26177171D01*
X26243549Y-26159115D01*
X26190751Y-26139266D01*
X26134007Y-26117887D01*
X26074011Y-26095241D01*
X26011456Y-26071591D01*
X25947034Y-26047200D01*
X25881438Y-26022331D01*
X25815361Y-25997247D01*
X25749496Y-25972211D01*
X25684535Y-25947486D01*
X25621172Y-25923336D01*
X25560100Y-25900022D01*
X25502010Y-25877809D01*
X25447596Y-25856959D01*
X25397551Y-25837736D01*
X25352568Y-25820401D01*
X25313339Y-25805219D01*
X25280557Y-25792452D01*
X25254916Y-25782364D01*
X25237107Y-25775217D01*
X25227824Y-25771275D01*
X25227280Y-25771012D01*
X25171086Y-25739047D01*
X25124462Y-25704247D01*
X25087140Y-25666316D01*
X25058852Y-25624956D01*
X25039331Y-25579869D01*
X25032574Y-25554940D01*
X25026535Y-25518277D01*
X25022892Y-25476197D01*
X25021858Y-25433204D01*
X25023644Y-25393805D01*
X25024578Y-25384866D01*
X25033912Y-25331869D01*
X25049689Y-25278875D01*
X25055636Y-25262840D01*
X25064417Y-25241401D01*
X25073998Y-25220127D01*
X25083353Y-25201059D01*
X25091455Y-25186237D01*
X25097278Y-25177702D01*
X25099084Y-25176426D01*
X25105406Y-25178487D01*
X25119073Y-25184242D01*
X25138555Y-25192961D01*
X25162328Y-25203913D01*
X25188863Y-25216366D01*
X25216634Y-25229589D01*
X25244113Y-25242850D01*
X25269775Y-25255420D01*
X25292092Y-25266565D01*
X25309537Y-25275556D01*
X25320583Y-25281661D01*
X25323800Y-25284041D01*
X25321657Y-25290781D01*
X25316141Y-25303315D01*
X25311058Y-25313723D01*
X25294131Y-25354976D01*
X25285344Y-25395156D01*
X25284943Y-25432711D01*
X25288831Y-25453340D01*
X25296571Y-25469888D01*
X25309574Y-25487253D01*
X25325073Y-25502451D01*
X25340295Y-25512503D01*
X25345543Y-25514381D01*
X25352380Y-25512995D01*
X25368637Y-25507803D01*
X25394312Y-25498806D01*
X25429404Y-25486004D01*
X25473913Y-25469398D01*
X25527836Y-25448987D01*
X25591173Y-25424773D01*
X25663924Y-25396756D01*
X25746086Y-25364935D01*
X25837660Y-25329312D01*
X25897003Y-25306160D01*
X25967749Y-25278547D01*
X26035872Y-25251989D01*
X26100771Y-25226718D01*
X26161847Y-25202966D01*
X26218501Y-25180965D01*
X26270134Y-25160948D01*
X26316144Y-25143147D01*
X26355933Y-25127793D01*
X26388902Y-25115119D01*
X26414449Y-25105357D01*
X26431977Y-25098740D01*
X26440885Y-25095499D01*
X26441903Y-25095200D01*
X26443145Y-25100144D01*
X26444143Y-25114441D01*
X26444881Y-25137286D01*
X26445342Y-25167874D01*
X26445510Y-25205399D01*
X26445368Y-25249058D01*
X26445280Y-25261148D01*
X26443940Y-25427096D01*
X26078732Y-25548830D01*
X25713524Y-25670565D01*
X25972052Y-25753607D01*
X26025570Y-25770789D01*
X26079717Y-25788158D01*
X26133042Y-25805248D01*
X26184091Y-25821594D01*
X26231411Y-25836733D01*
X26273551Y-25850198D01*
X26309057Y-25861525D01*
X26336476Y-25870248D01*
X26338530Y-25870900D01*
X26446480Y-25905151D01*
X26446480Y-26069135D01*
X26446421Y-26108794D01*
G36*
X26463828Y-16746648D02*
X26453686Y-16816329D01*
X26436482Y-16880124D01*
X26411815Y-16939089D01*
X26379282Y-16994284D01*
X26338480Y-17046767D01*
X26314105Y-17073090D01*
X26282623Y-17105320D01*
X26251522Y-17075337D01*
X26237582Y-17062017D01*
X26218083Y-17043545D01*
X26194901Y-17021693D01*
X26169916Y-16998232D01*
X26148133Y-16977852D01*
X26075845Y-16910349D01*
X26107394Y-16875541D01*
X26139846Y-16836433D01*
X26163963Y-16799236D01*
X26180738Y-16761837D01*
X26191167Y-16722124D01*
X26195521Y-16688344D01*
X26195087Y-16636900D01*
X26185121Y-16588966D01*
X26165657Y-16544635D01*
X26136733Y-16504000D01*
X26116694Y-16483155D01*
X26075124Y-16450105D01*
X26029514Y-16425835D01*
X25979184Y-16410093D01*
X25923455Y-16402625D01*
X25897840Y-16401896D01*
X25840381Y-16406324D01*
X25786964Y-16419434D01*
X25738344Y-16440934D01*
X25695276Y-16470530D01*
X25676649Y-16487675D01*
X25645869Y-16524242D01*
X25623722Y-16563573D01*
X25609674Y-16607057D01*
X25603191Y-16656083D01*
X25602600Y-16680344D01*
X25606735Y-16729003D01*
X25619065Y-16775424D01*
X25640107Y-16820917D01*
X25670384Y-16866792D01*
X25682960Y-16882814D01*
X25695471Y-16898314D01*
X25705850Y-16911442D01*
X25712056Y-16919613D01*
X25712420Y-16920133D01*
X25712546Y-16923937D01*
X25708874Y-16930563D01*
X25700753Y-16940735D01*
X25687531Y-16955180D01*
X25668558Y-16974620D01*
X25643181Y-16999782D01*
X25623849Y-17018668D01*
X25530197Y-17109798D01*
X25500345Y-17080409D01*
X25461783Y-17038449D01*
X25426261Y-16992064D01*
X25395362Y-16943679D01*
X25370669Y-16895719D01*
X25356943Y-16860791D01*
X25345528Y-16817981D01*
X25336948Y-16768441D01*
X25331415Y-16715260D01*
X25329139Y-16661521D01*
X25330329Y-16610313D01*
X25335197Y-16564721D01*
X25336312Y-16558260D01*
X25354408Y-16485424D01*
X25381071Y-16416204D01*
X25415695Y-16351607D01*
X25457675Y-16292642D01*
X25506407Y-16240318D01*
X25547860Y-16205407D01*
X25609785Y-16164808D01*
X25675337Y-16133077D01*
X25743605Y-16110114D01*
X25813678Y-16095820D01*
X25884643Y-16090096D01*
X25955589Y-16092844D01*
X26025604Y-16103965D01*
X26093776Y-16123359D01*
X26159194Y-16150927D01*
X26220946Y-16186571D01*
X26278119Y-16230192D01*
X26329802Y-16281690D01*
X26337934Y-16291169D01*
X26381383Y-16350202D01*
X26415800Y-16413024D01*
X26441335Y-16480078D01*
X26458141Y-16551807D01*
X26466369Y-16628655D01*
X26467311Y-16670020D01*
X26463828Y-16746648D01*
X26463828Y-16746648D01*
G37*
X26463828Y-16746648D02*
X26453686Y-16816329D01*
X26436482Y-16880124D01*
X26411815Y-16939089D01*
X26379282Y-16994284D01*
X26338480Y-17046767D01*
X26314105Y-17073090D01*
X26282623Y-17105320D01*
X26251522Y-17075337D01*
X26237582Y-17062017D01*
X26218083Y-17043545D01*
X26194901Y-17021693D01*
X26169916Y-16998232D01*
X26148133Y-16977852D01*
X26075845Y-16910349D01*
X26107394Y-16875541D01*
X26139846Y-16836433D01*
X26163963Y-16799236D01*
X26180738Y-16761837D01*
X26191167Y-16722124D01*
X26195521Y-16688344D01*
X26195087Y-16636900D01*
X26185121Y-16588966D01*
X26165657Y-16544635D01*
X26136733Y-16504000D01*
X26116694Y-16483155D01*
X26075124Y-16450105D01*
X26029514Y-16425835D01*
X25979184Y-16410093D01*
X25923455Y-16402625D01*
X25897840Y-16401896D01*
X25840381Y-16406324D01*
X25786964Y-16419434D01*
X25738344Y-16440934D01*
X25695276Y-16470530D01*
X25676649Y-16487675D01*
X25645869Y-16524242D01*
X25623722Y-16563573D01*
X25609674Y-16607057D01*
X25603191Y-16656083D01*
X25602600Y-16680344D01*
X25606735Y-16729003D01*
X25619065Y-16775424D01*
X25640107Y-16820917D01*
X25670384Y-16866792D01*
X25682960Y-16882814D01*
X25695471Y-16898314D01*
X25705850Y-16911442D01*
X25712056Y-16919613D01*
X25712420Y-16920133D01*
X25712546Y-16923937D01*
X25708874Y-16930563D01*
X25700753Y-16940735D01*
X25687531Y-16955180D01*
X25668558Y-16974620D01*
X25643181Y-16999782D01*
X25623849Y-17018668D01*
X25530197Y-17109798D01*
X25500345Y-17080409D01*
X25461783Y-17038449D01*
X25426261Y-16992064D01*
X25395362Y-16943679D01*
X25370669Y-16895719D01*
X25356943Y-16860791D01*
X25345528Y-16817981D01*
X25336948Y-16768441D01*
X25331415Y-16715260D01*
X25329139Y-16661521D01*
X25330329Y-16610313D01*
X25335197Y-16564721D01*
X25336312Y-16558260D01*
X25354408Y-16485424D01*
X25381071Y-16416204D01*
X25415695Y-16351607D01*
X25457675Y-16292642D01*
X25506407Y-16240318D01*
X25547860Y-16205407D01*
X25609785Y-16164808D01*
X25675337Y-16133077D01*
X25743605Y-16110114D01*
X25813678Y-16095820D01*
X25884643Y-16090096D01*
X25955589Y-16092844D01*
X26025604Y-16103965D01*
X26093776Y-16123359D01*
X26159194Y-16150927D01*
X26220946Y-16186571D01*
X26278119Y-16230192D01*
X26329802Y-16281690D01*
X26337934Y-16291169D01*
X26381383Y-16350202D01*
X26415800Y-16413024D01*
X26441335Y-16480078D01*
X26458141Y-16551807D01*
X26466369Y-16628655D01*
X26467311Y-16670020D01*
X26463828Y-16746648D01*
G36*
X26466320Y-17792382D02*
X26463140Y-17832152D01*
X26459142Y-17859713D01*
X26440123Y-17936145D01*
X26412879Y-18007566D01*
X26377851Y-18073447D01*
X26335481Y-18133264D01*
X26286211Y-18186490D01*
X26230484Y-18232596D01*
X26168740Y-18271058D01*
X26101421Y-18301348D01*
X26083260Y-18307753D01*
X26014667Y-18325663D01*
X25943555Y-18334901D01*
X25871558Y-18335579D01*
X25800306Y-18327810D01*
X25731430Y-18311706D01*
X25666561Y-18287379D01*
X25646720Y-18277775D01*
X25580294Y-18238192D01*
X25520959Y-18191401D01*
X25468923Y-18137668D01*
X25424399Y-18077264D01*
X25387598Y-18010455D01*
X25358730Y-17937511D01*
X25346599Y-17895993D01*
X25341085Y-17873113D01*
X25337128Y-17852091D01*
X25334412Y-17830158D01*
X25332623Y-17804543D01*
X25331447Y-17772477D01*
X25331133Y-17759680D01*
X25330761Y-17713289D01*
X25331995Y-17675520D01*
X25334898Y-17644951D01*
X25336527Y-17634491D01*
X25354723Y-17558216D01*
X25381280Y-17486914D01*
X25415678Y-17421082D01*
X25457397Y-17361214D01*
X25505914Y-17307809D01*
X25560710Y-17261363D01*
X25621263Y-17222372D01*
X25687053Y-17191332D01*
X25757560Y-17168742D01*
X25832262Y-17155096D01*
X25840222Y-17154213D01*
X25893269Y-17152277D01*
X25893269Y-17463384D01*
X25840656Y-17468893D01*
X25790261Y-17482457D01*
X25743534Y-17503901D01*
X25701924Y-17533050D01*
X25694295Y-17539835D01*
X25664465Y-17570389D01*
X25641809Y-17600946D01*
X25623918Y-17634891D01*
X25619824Y-17644507D01*
X25608923Y-17681316D01*
X25603254Y-17723374D01*
X25602858Y-17767200D01*
X25607776Y-17809308D01*
X25617504Y-17844805D01*
X25640556Y-17892473D01*
X25670705Y-17933283D01*
X25707492Y-17966714D01*
X25746380Y-17990302D01*
X25784850Y-18006857D01*
X25821480Y-18017340D01*
X25860347Y-18022670D01*
X25895300Y-18023840D01*
X25953040Y-18019761D01*
X26005127Y-18007397D01*
X26052049Y-17986560D01*
X26094292Y-17957061D01*
X26113997Y-17938815D01*
X26148164Y-17897482D01*
X26173345Y-17852107D01*
X26189406Y-17803637D01*
X26196211Y-17753019D01*
X26193627Y-17701199D01*
X26181518Y-17649124D01*
X26161926Y-17601955D01*
X26147678Y-17580238D01*
X26126875Y-17556508D01*
X26102100Y-17533186D01*
X26075939Y-17512697D01*
X26050975Y-17497462D01*
X26049912Y-17496935D01*
X25999347Y-17477230D01*
X25946649Y-17466104D01*
X25893269Y-17463384D01*
X25893269Y-17152277D01*
X25912566Y-17151572D01*
X25985144Y-17158342D01*
X26056402Y-17174135D01*
X26124784Y-17198567D01*
X26188734Y-17231251D01*
X26213031Y-17246756D01*
X26241113Y-17267970D01*
X26272019Y-17294853D01*
X26302881Y-17324657D01*
X26330834Y-17354633D01*
X26350335Y-17378420D01*
X26383813Y-17429351D01*
X26413344Y-17487206D01*
X26437691Y-17549113D01*
X26455618Y-17612206D01*
X26459850Y-17632461D01*
X26464366Y-17665864D01*
X26466943Y-17705886D01*
X26467591Y-17749176D01*
X26466320Y-17792382D01*
X26466320Y-17792382D01*
G37*
X26466320Y-17792382D02*
X26463140Y-17832152D01*
X26459142Y-17859713D01*
X26440123Y-17936145D01*
X26412879Y-18007566D01*
X26377851Y-18073447D01*
X26335481Y-18133264D01*
X26286211Y-18186490D01*
X26230484Y-18232596D01*
X26168740Y-18271058D01*
X26101421Y-18301348D01*
X26083260Y-18307753D01*
X26014667Y-18325663D01*
X25943555Y-18334901D01*
X25871558Y-18335579D01*
X25800306Y-18327810D01*
X25731430Y-18311706D01*
X25666561Y-18287379D01*
X25646720Y-18277775D01*
X25580294Y-18238192D01*
X25520959Y-18191401D01*
X25468923Y-18137668D01*
X25424399Y-18077264D01*
X25387598Y-18010455D01*
X25358730Y-17937511D01*
X25346599Y-17895993D01*
X25341085Y-17873113D01*
X25337128Y-17852091D01*
X25334412Y-17830158D01*
X25332623Y-17804543D01*
X25331447Y-17772477D01*
X25331133Y-17759680D01*
X25330761Y-17713289D01*
X25331995Y-17675520D01*
X25334898Y-17644951D01*
X25336527Y-17634491D01*
X25354723Y-17558216D01*
X25381280Y-17486914D01*
X25415678Y-17421082D01*
X25457397Y-17361214D01*
X25505914Y-17307809D01*
X25560710Y-17261363D01*
X25621263Y-17222372D01*
X25687053Y-17191332D01*
X25757560Y-17168742D01*
X25832262Y-17155096D01*
X25840222Y-17154213D01*
X25893269Y-17152277D01*
X25893269Y-17463384D01*
X25840656Y-17468893D01*
X25790261Y-17482457D01*
X25743534Y-17503901D01*
X25701924Y-17533050D01*
X25694295Y-17539835D01*
X25664465Y-17570389D01*
X25641809Y-17600946D01*
X25623918Y-17634891D01*
X25619824Y-17644507D01*
X25608923Y-17681316D01*
X25603254Y-17723374D01*
X25602858Y-17767200D01*
X25607776Y-17809308D01*
X25617504Y-17844805D01*
X25640556Y-17892473D01*
X25670705Y-17933283D01*
X25707492Y-17966714D01*
X25746380Y-17990302D01*
X25784850Y-18006857D01*
X25821480Y-18017340D01*
X25860347Y-18022670D01*
X25895300Y-18023840D01*
X25953040Y-18019761D01*
X26005127Y-18007397D01*
X26052049Y-17986560D01*
X26094292Y-17957061D01*
X26113997Y-17938815D01*
X26148164Y-17897482D01*
X26173345Y-17852107D01*
X26189406Y-17803637D01*
X26196211Y-17753019D01*
X26193627Y-17701199D01*
X26181518Y-17649124D01*
X26161926Y-17601955D01*
X26147678Y-17580238D01*
X26126875Y-17556508D01*
X26102100Y-17533186D01*
X26075939Y-17512697D01*
X26050975Y-17497462D01*
X26049912Y-17496935D01*
X25999347Y-17477230D01*
X25946649Y-17466104D01*
X25893269Y-17463384D01*
X25893269Y-17152277D01*
X25912566Y-17151572D01*
X25985144Y-17158342D01*
X26056402Y-17174135D01*
X26124784Y-17198567D01*
X26188734Y-17231251D01*
X26213031Y-17246756D01*
X26241113Y-17267970D01*
X26272019Y-17294853D01*
X26302881Y-17324657D01*
X26330834Y-17354633D01*
X26350335Y-17378420D01*
X26383813Y-17429351D01*
X26413344Y-17487206D01*
X26437691Y-17549113D01*
X26455618Y-17612206D01*
X26459850Y-17632461D01*
X26464366Y-17665864D01*
X26466943Y-17705886D01*
X26467591Y-17749176D01*
X26466320Y-17792382D01*
G36*
X26465199Y-21188081D02*
X26462217Y-21229196D01*
X26457627Y-21265771D01*
X26452086Y-21292820D01*
X26429380Y-21359456D01*
X26398260Y-21420629D01*
X26359057Y-21476050D01*
X26312103Y-21525429D01*
X26257727Y-21568477D01*
X26196259Y-21604905D01*
X26128031Y-21634424D01*
X26053373Y-21656746D01*
X26030101Y-21661927D01*
X26010650Y-21665102D01*
X25985201Y-21668046D01*
X25955690Y-21670661D01*
X25924057Y-21672853D01*
X25892238Y-21674523D01*
X25862170Y-21675575D01*
X25835792Y-21675913D01*
X25815040Y-21675440D01*
X25801852Y-21674059D01*
X25799588Y-21673426D01*
X25797999Y-21672214D01*
X25796622Y-21669429D01*
X25795442Y-21664393D01*
X25794443Y-21656429D01*
X25793612Y-21644860D01*
X25792932Y-21629007D01*
X25792389Y-21608193D01*
X25791968Y-21581740D01*
X25791654Y-21548971D01*
X25791432Y-21509207D01*
X25791286Y-21461771D01*
X25791203Y-21405985D01*
X25791166Y-21341172D01*
X25791160Y-21292276D01*
X25791144Y-21231316D01*
X25791096Y-21173403D01*
X25791019Y-21119326D01*
X25790916Y-21069873D01*
X25790789Y-21025833D01*
X25790641Y-20987994D01*
X25790476Y-20957145D01*
X25790294Y-20934073D01*
X25790100Y-20919568D01*
X25789895Y-20914417D01*
X25789890Y-20914414D01*
X25779578Y-20916701D01*
X25763139Y-20922239D01*
X25743592Y-20929857D01*
X25723958Y-20938387D01*
X25708646Y-20945907D01*
X25669025Y-20972514D01*
X25636635Y-21006002D01*
X25611714Y-21045883D01*
X25594502Y-21091669D01*
X25585235Y-21142871D01*
X25584151Y-21199002D01*
X25584271Y-21201165D01*
X25591812Y-21256617D01*
X25608098Y-21309193D01*
X25633585Y-21360001D01*
X25668726Y-21410145D01*
X25671879Y-21414052D01*
X25695205Y-21442688D01*
X25617453Y-21531222D01*
X25595126Y-21556405D01*
X25574835Y-21578832D01*
X25557589Y-21597429D01*
X25544396Y-21611116D01*
X25536264Y-21618818D01*
X25534270Y-21620118D01*
X25528018Y-21616682D01*
X25516693Y-21606956D01*
X25501722Y-21592457D01*
X25484534Y-21574704D01*
X25466555Y-21555214D01*
X25449212Y-21535506D01*
X25433934Y-21517097D01*
X25422147Y-21501505D01*
X25420539Y-21499163D01*
X25385430Y-21438051D01*
X25358320Y-21371179D01*
X25339551Y-21299466D01*
X25334137Y-21267420D01*
X25331255Y-21237479D01*
X25329828Y-21200963D01*
X25329811Y-21161344D01*
X25331157Y-21122095D01*
X25333822Y-21086690D01*
X25336800Y-21063900D01*
X25353950Y-20989460D01*
X25379531Y-20920568D01*
X25413749Y-20856807D01*
X25456810Y-20797761D01*
X25482789Y-20768757D01*
X25537284Y-20718997D01*
X25597410Y-20677655D01*
X25662919Y-20644860D01*
X25733567Y-20620742D01*
X25786080Y-20609068D01*
X25816412Y-20605288D01*
X25853496Y-20603088D01*
X25894178Y-20602439D01*
X25935302Y-20603314D01*
X25973715Y-20605685D01*
X25989280Y-20607520D01*
X25989280Y-20910231D01*
X25989280Y-21138355D01*
X25989300Y-21192513D01*
X25989382Y-21237379D01*
X25989560Y-21273824D01*
X25989867Y-21302714D01*
X25990339Y-21324919D01*
X25991007Y-21341308D01*
X25991907Y-21352749D01*
X25993073Y-21360111D01*
X25994537Y-21364262D01*
X25996335Y-21366073D01*
X25998170Y-21366419D01*
X26012989Y-21364395D01*
X26033699Y-21359141D01*
X26056959Y-21351663D01*
X26079426Y-21342969D01*
X26086620Y-21339762D01*
X26128356Y-21315836D01*
X26161568Y-21286712D01*
X26186763Y-21251847D01*
X26203071Y-21214911D01*
X26208355Y-21197107D01*
X26211380Y-21180147D01*
X26212517Y-21160535D01*
X26212139Y-21134773D01*
X26211998Y-21130797D01*
X26210725Y-21105530D01*
X26208628Y-21087043D01*
X26204980Y-21071954D01*
X26199058Y-21056883D01*
X26193741Y-21045691D01*
X26169906Y-21008589D01*
X26137561Y-20976132D01*
X26097492Y-20948860D01*
X26050486Y-20927314D01*
X26000710Y-20912773D01*
X25989280Y-20910231D01*
X25989280Y-20607520D01*
X26006262Y-20609523D01*
X26015158Y-20611103D01*
X26090403Y-20630671D01*
X26160310Y-20658269D01*
X26224399Y-20693436D01*
X26282187Y-20735712D01*
X26333193Y-20784636D01*
X26376936Y-20839747D01*
X26412934Y-20900587D01*
X26440705Y-20966693D01*
X26459405Y-21035800D01*
X26463676Y-21066284D01*
X26466010Y-21103745D01*
X26466490Y-21145304D01*
X26465199Y-21188081D01*
X26465199Y-21188081D01*
G37*
X26465199Y-21188081D02*
X26462217Y-21229196D01*
X26457627Y-21265771D01*
X26452086Y-21292820D01*
X26429380Y-21359456D01*
X26398260Y-21420629D01*
X26359057Y-21476050D01*
X26312103Y-21525429D01*
X26257727Y-21568477D01*
X26196259Y-21604905D01*
X26128031Y-21634424D01*
X26053373Y-21656746D01*
X26030101Y-21661927D01*
X26010650Y-21665102D01*
X25985201Y-21668046D01*
X25955690Y-21670661D01*
X25924057Y-21672853D01*
X25892238Y-21674523D01*
X25862170Y-21675575D01*
X25835792Y-21675913D01*
X25815040Y-21675440D01*
X25801852Y-21674059D01*
X25799588Y-21673426D01*
X25797999Y-21672214D01*
X25796622Y-21669429D01*
X25795442Y-21664393D01*
X25794443Y-21656429D01*
X25793612Y-21644860D01*
X25792932Y-21629007D01*
X25792389Y-21608193D01*
X25791968Y-21581740D01*
X25791654Y-21548971D01*
X25791432Y-21509207D01*
X25791286Y-21461771D01*
X25791203Y-21405985D01*
X25791166Y-21341172D01*
X25791160Y-21292276D01*
X25791144Y-21231316D01*
X25791096Y-21173403D01*
X25791019Y-21119326D01*
X25790916Y-21069873D01*
X25790789Y-21025833D01*
X25790641Y-20987994D01*
X25790476Y-20957145D01*
X25790294Y-20934073D01*
X25790100Y-20919568D01*
X25789895Y-20914417D01*
X25789890Y-20914414D01*
X25779578Y-20916701D01*
X25763139Y-20922239D01*
X25743592Y-20929857D01*
X25723958Y-20938387D01*
X25708646Y-20945907D01*
X25669025Y-20972514D01*
X25636635Y-21006002D01*
X25611714Y-21045883D01*
X25594502Y-21091669D01*
X25585235Y-21142871D01*
X25584151Y-21199002D01*
X25584271Y-21201165D01*
X25591812Y-21256617D01*
X25608098Y-21309193D01*
X25633585Y-21360001D01*
X25668726Y-21410145D01*
X25671879Y-21414052D01*
X25695205Y-21442688D01*
X25617453Y-21531222D01*
X25595126Y-21556405D01*
X25574835Y-21578832D01*
X25557589Y-21597429D01*
X25544396Y-21611116D01*
X25536264Y-21618818D01*
X25534270Y-21620118D01*
X25528018Y-21616682D01*
X25516693Y-21606956D01*
X25501722Y-21592457D01*
X25484534Y-21574704D01*
X25466555Y-21555214D01*
X25449212Y-21535506D01*
X25433934Y-21517097D01*
X25422147Y-21501505D01*
X25420539Y-21499163D01*
X25385430Y-21438051D01*
X25358320Y-21371179D01*
X25339551Y-21299466D01*
X25334137Y-21267420D01*
X25331255Y-21237479D01*
X25329828Y-21200963D01*
X25329811Y-21161344D01*
X25331157Y-21122095D01*
X25333822Y-21086690D01*
X25336800Y-21063900D01*
X25353950Y-20989460D01*
X25379531Y-20920568D01*
X25413749Y-20856807D01*
X25456810Y-20797761D01*
X25482789Y-20768757D01*
X25537284Y-20718997D01*
X25597410Y-20677655D01*
X25662919Y-20644860D01*
X25733567Y-20620742D01*
X25786080Y-20609068D01*
X25816412Y-20605288D01*
X25853496Y-20603088D01*
X25894178Y-20602439D01*
X25935302Y-20603314D01*
X25973715Y-20605685D01*
X25989280Y-20607520D01*
X25989280Y-20910231D01*
X25989280Y-21138355D01*
X25989300Y-21192513D01*
X25989382Y-21237379D01*
X25989560Y-21273824D01*
X25989867Y-21302714D01*
X25990339Y-21324919D01*
X25991007Y-21341308D01*
X25991907Y-21352749D01*
X25993073Y-21360111D01*
X25994537Y-21364262D01*
X25996335Y-21366073D01*
X25998170Y-21366419D01*
X26012989Y-21364395D01*
X26033699Y-21359141D01*
X26056959Y-21351663D01*
X26079426Y-21342969D01*
X26086620Y-21339762D01*
X26128356Y-21315836D01*
X26161568Y-21286712D01*
X26186763Y-21251847D01*
X26203071Y-21214911D01*
X26208355Y-21197107D01*
X26211380Y-21180147D01*
X26212517Y-21160535D01*
X26212139Y-21134773D01*
X26211998Y-21130797D01*
X26210725Y-21105530D01*
X26208628Y-21087043D01*
X26204980Y-21071954D01*
X26199058Y-21056883D01*
X26193741Y-21045691D01*
X26169906Y-21008589D01*
X26137561Y-20976132D01*
X26097492Y-20948860D01*
X26050486Y-20927314D01*
X26000710Y-20912773D01*
X25989280Y-20910231D01*
X25989280Y-20607520D01*
X26006262Y-20609523D01*
X26015158Y-20611103D01*
X26090403Y-20630671D01*
X26160310Y-20658269D01*
X26224399Y-20693436D01*
X26282187Y-20735712D01*
X26333193Y-20784636D01*
X26376936Y-20839747D01*
X26412934Y-20900587D01*
X26440705Y-20966693D01*
X26459405Y-21035800D01*
X26463676Y-21066284D01*
X26466010Y-21103745D01*
X26466490Y-21145304D01*
X26465199Y-21188081D01*
G36*
X26463727Y-20109973D02*
X26456038Y-20180326D01*
X26440650Y-20253007D01*
X26417414Y-20327393D01*
X26416406Y-20330160D01*
X26407853Y-20351540D01*
X26396948Y-20375937D01*
X26384680Y-20401450D01*
X26372033Y-20426179D01*
X26359994Y-20448223D01*
X26349551Y-20465683D01*
X26341690Y-20476658D01*
X26339077Y-20479095D01*
X26332783Y-20478644D01*
X26319364Y-20473572D01*
X26298450Y-20463704D01*
X26269673Y-20448865D01*
X26232664Y-20428880D01*
X26227971Y-20426303D01*
X26198443Y-20410043D01*
X26171987Y-20395435D01*
X26149871Y-20383181D01*
X26133362Y-20373984D01*
X26123727Y-20368548D01*
X26121770Y-20367382D01*
X26123106Y-20362471D01*
X26128195Y-20350044D01*
X26136330Y-20331714D01*
X26146804Y-20309095D01*
X26153093Y-20295856D01*
X26166235Y-20267561D01*
X26178928Y-20238712D01*
X26189914Y-20212264D01*
X26197939Y-20191172D01*
X26199398Y-20186891D01*
X26211907Y-20141344D01*
X26218771Y-20098999D01*
X26220175Y-20060699D01*
X26216308Y-20027287D01*
X26207355Y-19999605D01*
X26193504Y-19978498D01*
X26174940Y-19964807D01*
X26151851Y-19959376D01*
X26149005Y-19959320D01*
X26128626Y-19962249D01*
X26112179Y-19971975D01*
X26098254Y-19987807D01*
X26082920Y-20013104D01*
X26066117Y-20047998D01*
X26047784Y-20092618D01*
X26027857Y-20147097D01*
X26022535Y-20162520D01*
X26000638Y-20223848D01*
X25979825Y-20276139D01*
X25959624Y-20320394D01*
X25939566Y-20357617D01*
X25919179Y-20388809D01*
X25911528Y-20398934D01*
X25876231Y-20437987D01*
X25838549Y-20467809D01*
X25797272Y-20488974D01*
X25751191Y-20502056D01*
X25699098Y-20507630D01*
X25682143Y-20507924D01*
X25620689Y-20503546D01*
X25564627Y-20490612D01*
X25514138Y-20469287D01*
X25469402Y-20439737D01*
X25430601Y-20402128D01*
X25397915Y-20356625D01*
X25371525Y-20303394D01*
X25351613Y-20242602D01*
X25341712Y-20196144D01*
X25338772Y-20172537D01*
X25336563Y-20142004D01*
X25335153Y-20107650D01*
X25334612Y-20072581D01*
X25335006Y-20039903D01*
X25336405Y-20012722D01*
X25337458Y-20002500D01*
X25348122Y-19942217D01*
X25364380Y-19879114D01*
X25384962Y-19817506D01*
X25407887Y-19763190D01*
X25417936Y-19743543D01*
X25430650Y-19720753D01*
X25444875Y-19696659D01*
X25459460Y-19673101D01*
X25473249Y-19651917D01*
X25485090Y-19634946D01*
X25493831Y-19624026D01*
X25496906Y-19621261D01*
X25502075Y-19623186D01*
X25514261Y-19629802D01*
X25532010Y-19640190D01*
X25553870Y-19653430D01*
X25578387Y-19668603D01*
X25604106Y-19684791D01*
X25629576Y-19701072D01*
X25653341Y-19716530D01*
X25673949Y-19730243D01*
X25689946Y-19741294D01*
X25699879Y-19748763D01*
X25702352Y-19751187D01*
X25700761Y-19756779D01*
X25694622Y-19769040D01*
X25684927Y-19786123D01*
X25673492Y-19804875D01*
X25639566Y-19864867D01*
X25611888Y-19926363D01*
X25591843Y-19986282D01*
X25591805Y-19986421D01*
X25586478Y-20008827D01*
X25583042Y-20031076D01*
X25581155Y-20056423D01*
X25580472Y-20088126D01*
X25580452Y-20093940D01*
X25580577Y-20121876D01*
X25581258Y-20141912D01*
X25582793Y-20156302D01*
X25585476Y-20167302D01*
X25589604Y-20177168D01*
X25591975Y-20181769D01*
X25608980Y-20204423D01*
X25630859Y-20218492D01*
X25656798Y-20223458D01*
X25657421Y-20223461D01*
X25675646Y-20220746D01*
X25691959Y-20212039D01*
X25706941Y-20196542D01*
X25721174Y-20173459D01*
X25735241Y-20141995D01*
X25749723Y-20101353D01*
X25752120Y-20093940D01*
X25767716Y-20045212D01*
X25780639Y-20005076D01*
X25791265Y-19972431D01*
X25799973Y-19946177D01*
X25807139Y-19925214D01*
X25813143Y-19908442D01*
X25818361Y-19894761D01*
X25823171Y-19883072D01*
X25827952Y-19872273D01*
X25829086Y-19869800D01*
X25859317Y-19814497D01*
X25895038Y-19767736D01*
X25917782Y-19744971D01*
X25953644Y-19716795D01*
X25991135Y-19696395D01*
X26032152Y-19683102D01*
X26078594Y-19676244D01*
X26116078Y-19674915D01*
X26166188Y-19677371D01*
X26209836Y-19684945D01*
X26249625Y-19698169D01*
X26266090Y-19705674D01*
X26314591Y-19734988D01*
X26356593Y-19771611D01*
X26391946Y-19814921D01*
X26420499Y-19864294D01*
X26442104Y-19919109D01*
X26456610Y-19978742D01*
X26463868Y-20042571D01*
X26463727Y-20109973D01*
X26463727Y-20109973D01*
G37*
X26463727Y-20109973D02*
X26456038Y-20180326D01*
X26440650Y-20253007D01*
X26417414Y-20327393D01*
X26416406Y-20330160D01*
X26407853Y-20351540D01*
X26396948Y-20375937D01*
X26384680Y-20401450D01*
X26372033Y-20426179D01*
X26359994Y-20448223D01*
X26349551Y-20465683D01*
X26341690Y-20476658D01*
X26339077Y-20479095D01*
X26332783Y-20478644D01*
X26319364Y-20473572D01*
X26298450Y-20463704D01*
X26269673Y-20448865D01*
X26232664Y-20428880D01*
X26227971Y-20426303D01*
X26198443Y-20410043D01*
X26171987Y-20395435D01*
X26149871Y-20383181D01*
X26133362Y-20373984D01*
X26123727Y-20368548D01*
X26121770Y-20367382D01*
X26123106Y-20362471D01*
X26128195Y-20350044D01*
X26136330Y-20331714D01*
X26146804Y-20309095D01*
X26153093Y-20295856D01*
X26166235Y-20267561D01*
X26178928Y-20238712D01*
X26189914Y-20212264D01*
X26197939Y-20191172D01*
X26199398Y-20186891D01*
X26211907Y-20141344D01*
X26218771Y-20098999D01*
X26220175Y-20060699D01*
X26216308Y-20027287D01*
X26207355Y-19999605D01*
X26193504Y-19978498D01*
X26174940Y-19964807D01*
X26151851Y-19959376D01*
X26149005Y-19959320D01*
X26128626Y-19962249D01*
X26112179Y-19971975D01*
X26098254Y-19987807D01*
X26082920Y-20013104D01*
X26066117Y-20047998D01*
X26047784Y-20092618D01*
X26027857Y-20147097D01*
X26022535Y-20162520D01*
X26000638Y-20223848D01*
X25979825Y-20276139D01*
X25959624Y-20320394D01*
X25939566Y-20357617D01*
X25919179Y-20388809D01*
X25911528Y-20398934D01*
X25876231Y-20437987D01*
X25838549Y-20467809D01*
X25797272Y-20488974D01*
X25751191Y-20502056D01*
X25699098Y-20507630D01*
X25682143Y-20507924D01*
X25620689Y-20503546D01*
X25564627Y-20490612D01*
X25514138Y-20469287D01*
X25469402Y-20439737D01*
X25430601Y-20402128D01*
X25397915Y-20356625D01*
X25371525Y-20303394D01*
X25351613Y-20242602D01*
X25341712Y-20196144D01*
X25338772Y-20172537D01*
X25336563Y-20142004D01*
X25335153Y-20107650D01*
X25334612Y-20072581D01*
X25335006Y-20039903D01*
X25336405Y-20012722D01*
X25337458Y-20002500D01*
X25348122Y-19942217D01*
X25364380Y-19879114D01*
X25384962Y-19817506D01*
X25407887Y-19763190D01*
X25417936Y-19743543D01*
X25430650Y-19720753D01*
X25444875Y-19696659D01*
X25459460Y-19673101D01*
X25473249Y-19651917D01*
X25485090Y-19634946D01*
X25493831Y-19624026D01*
X25496906Y-19621261D01*
X25502075Y-19623186D01*
X25514261Y-19629802D01*
X25532010Y-19640190D01*
X25553870Y-19653430D01*
X25578387Y-19668603D01*
X25604106Y-19684791D01*
X25629576Y-19701072D01*
X25653341Y-19716530D01*
X25673949Y-19730243D01*
X25689946Y-19741294D01*
X25699879Y-19748763D01*
X25702352Y-19751187D01*
X25700761Y-19756779D01*
X25694622Y-19769040D01*
X25684927Y-19786123D01*
X25673492Y-19804875D01*
X25639566Y-19864867D01*
X25611888Y-19926363D01*
X25591843Y-19986282D01*
X25591805Y-19986421D01*
X25586478Y-20008827D01*
X25583042Y-20031076D01*
X25581155Y-20056423D01*
X25580472Y-20088126D01*
X25580452Y-20093940D01*
X25580577Y-20121876D01*
X25581258Y-20141912D01*
X25582793Y-20156302D01*
X25585476Y-20167302D01*
X25589604Y-20177168D01*
X25591975Y-20181769D01*
X25608980Y-20204423D01*
X25630859Y-20218492D01*
X25656798Y-20223458D01*
X25657421Y-20223461D01*
X25675646Y-20220746D01*
X25691959Y-20212039D01*
X25706941Y-20196542D01*
X25721174Y-20173459D01*
X25735241Y-20141995D01*
X25749723Y-20101353D01*
X25752120Y-20093940D01*
X25767716Y-20045212D01*
X25780639Y-20005076D01*
X25791265Y-19972431D01*
X25799973Y-19946177D01*
X25807139Y-19925214D01*
X25813143Y-19908442D01*
X25818361Y-19894761D01*
X25823171Y-19883072D01*
X25827952Y-19872273D01*
X25829086Y-19869800D01*
X25859317Y-19814497D01*
X25895038Y-19767736D01*
X25917782Y-19744971D01*
X25953644Y-19716795D01*
X25991135Y-19696395D01*
X26032152Y-19683102D01*
X26078594Y-19676244D01*
X26116078Y-19674915D01*
X26166188Y-19677371D01*
X26209836Y-19684945D01*
X26249625Y-19698169D01*
X26266090Y-19705674D01*
X26314591Y-19734988D01*
X26356593Y-19771611D01*
X26391946Y-19814921D01*
X26420499Y-19864294D01*
X26442104Y-19919109D01*
X26456610Y-19978742D01*
X26463868Y-20042571D01*
X26463727Y-20109973D01*
G36*
X26417270Y-23717174D02*
X26408668Y-23713847D01*
X26391253Y-23707075D01*
X26365675Y-23697112D01*
X26332583Y-23684211D01*
X26292627Y-23668625D01*
X26246458Y-23650610D01*
X26194724Y-23630417D01*
X26138077Y-23608301D01*
X26077165Y-23584515D01*
X26012639Y-23559314D01*
X25945148Y-23532949D01*
X25875342Y-23505676D01*
X25867360Y-23502558D01*
X25346660Y-23299101D01*
X25345311Y-23155621D01*
X25344954Y-23113570D01*
X25344804Y-23080558D01*
X25344918Y-23055463D01*
X25345357Y-23037164D01*
X25346177Y-23024540D01*
X25347437Y-23016471D01*
X25349195Y-23011836D01*
X25351509Y-23009514D01*
X25352931Y-23008856D01*
X25358759Y-23006609D01*
X25373443Y-23000903D01*
X25396375Y-22991974D01*
X25426949Y-22980060D01*
X25464556Y-22965398D01*
X25508588Y-22948224D01*
X25558439Y-22928777D01*
X25613500Y-22907292D01*
X25673164Y-22884007D01*
X25736823Y-22859159D01*
X25803870Y-22832985D01*
X25873697Y-22805721D01*
X25899554Y-22795625D01*
X25970131Y-22768081D01*
X26038085Y-22741593D01*
X26102812Y-22716392D01*
X26163713Y-22692712D01*
X26220185Y-22670786D01*
X26271628Y-22650845D01*
X26317442Y-22633123D01*
X26357024Y-22617853D01*
X26389774Y-22605266D01*
X26415091Y-22595596D01*
X26432373Y-22589076D01*
X26441020Y-22585937D01*
X26441913Y-22585680D01*
X26443147Y-22590622D01*
X26444141Y-22604903D01*
X26444877Y-22627704D01*
X26445338Y-22658205D01*
X26445508Y-22695589D01*
X26445371Y-22739036D01*
X26445280Y-22751628D01*
X26443940Y-22917576D01*
X26086348Y-23036772D01*
X26021439Y-23058488D01*
X25961842Y-23078587D01*
X25908069Y-23096891D01*
X25860631Y-23113219D01*
X25820040Y-23127392D01*
X25786807Y-23139232D01*
X25761444Y-23148557D01*
X25744462Y-23155190D01*
X25736373Y-23158950D01*
X25735828Y-23159700D01*
X25741694Y-23161893D01*
X25756417Y-23167051D01*
X25779224Y-23174911D01*
X25809339Y-23185211D01*
X25845988Y-23197686D01*
X25888396Y-23212074D01*
X25935787Y-23228111D01*
X25987387Y-23245534D01*
X26042422Y-23264079D01*
X26094690Y-23281660D01*
X26446480Y-23399886D01*
X26446480Y-23728334D01*
X26417270Y-23717174D01*
X26417270Y-23717174D01*
G37*
X26417270Y-23717174D02*
X26408668Y-23713847D01*
X26391253Y-23707075D01*
X26365675Y-23697112D01*
X26332583Y-23684211D01*
X26292627Y-23668625D01*
X26246458Y-23650610D01*
X26194724Y-23630417D01*
X26138077Y-23608301D01*
X26077165Y-23584515D01*
X26012639Y-23559314D01*
X25945148Y-23532949D01*
X25875342Y-23505676D01*
X25867360Y-23502558D01*
X25346660Y-23299101D01*
X25345311Y-23155621D01*
X25344954Y-23113570D01*
X25344804Y-23080558D01*
X25344918Y-23055463D01*
X25345357Y-23037164D01*
X25346177Y-23024540D01*
X25347437Y-23016471D01*
X25349195Y-23011836D01*
X25351509Y-23009514D01*
X25352931Y-23008856D01*
X25358759Y-23006609D01*
X25373443Y-23000903D01*
X25396375Y-22991974D01*
X25426949Y-22980060D01*
X25464556Y-22965398D01*
X25508588Y-22948224D01*
X25558439Y-22928777D01*
X25613500Y-22907292D01*
X25673164Y-22884007D01*
X25736823Y-22859159D01*
X25803870Y-22832985D01*
X25873697Y-22805721D01*
X25899554Y-22795625D01*
X25970131Y-22768081D01*
X26038085Y-22741593D01*
X26102812Y-22716392D01*
X26163713Y-22692712D01*
X26220185Y-22670786D01*
X26271628Y-22650845D01*
X26317442Y-22633123D01*
X26357024Y-22617853D01*
X26389774Y-22605266D01*
X26415091Y-22595596D01*
X26432373Y-22589076D01*
X26441020Y-22585937D01*
X26441913Y-22585680D01*
X26443147Y-22590622D01*
X26444141Y-22604903D01*
X26444877Y-22627704D01*
X26445338Y-22658205D01*
X26445508Y-22695589D01*
X26445371Y-22739036D01*
X26445280Y-22751628D01*
X26443940Y-22917576D01*
X26086348Y-23036772D01*
X26021439Y-23058488D01*
X25961842Y-23078587D01*
X25908069Y-23096891D01*
X25860631Y-23113219D01*
X25820040Y-23127392D01*
X25786807Y-23139232D01*
X25761444Y-23148557D01*
X25744462Y-23155190D01*
X25736373Y-23158950D01*
X25735828Y-23159700D01*
X25741694Y-23161893D01*
X25756417Y-23167051D01*
X25779224Y-23174911D01*
X25809339Y-23185211D01*
X25845988Y-23197686D01*
X25888396Y-23212074D01*
X25935787Y-23228111D01*
X25987387Y-23245534D01*
X26042422Y-23264079D01*
X26094690Y-23281660D01*
X26446480Y-23399886D01*
X26446480Y-23728334D01*
X26417270Y-23717174D01*
G36*
X26464112Y-19151749D02*
X26463526Y-19176963D01*
X26462291Y-19196424D01*
X26460198Y-19212334D01*
X26457037Y-19226895D01*
X26452596Y-19242311D01*
X26452369Y-19243040D01*
X26435325Y-19288666D01*
X26414188Y-19327563D01*
X26387082Y-19362913D01*
X26372820Y-19378125D01*
X26328538Y-19415789D01*
X26277709Y-19445764D01*
X26220550Y-19467945D01*
X26161047Y-19481627D01*
X26149413Y-19482661D01*
X26128074Y-19483599D01*
X26097485Y-19484433D01*
X26058101Y-19485158D01*
X26010375Y-19485768D01*
X25954764Y-19486257D01*
X25891721Y-19486621D01*
X25821701Y-19486852D01*
X25745158Y-19486945D01*
X25742900Y-19486946D01*
X25356820Y-19487033D01*
X25355478Y-19329476D01*
X25354136Y-19171920D01*
X25685881Y-19171920D01*
X25755139Y-19171905D01*
X25815033Y-19171828D01*
X25866358Y-19171639D01*
X25909909Y-19171289D01*
X25946482Y-19170729D01*
X25976872Y-19169909D01*
X26001874Y-19168781D01*
X26022285Y-19167294D01*
X26038899Y-19165400D01*
X26052512Y-19163049D01*
X26063919Y-19160193D01*
X26073917Y-19156781D01*
X26083299Y-19152764D01*
X26092862Y-19148094D01*
X26095981Y-19146509D01*
X26124838Y-19126555D01*
X26149764Y-19098978D01*
X26166468Y-19070759D01*
X26172666Y-19056329D01*
X26176597Y-19042991D01*
X26178757Y-19027694D01*
X26179644Y-19007384D01*
X26179772Y-18989040D01*
X26179469Y-18963520D01*
X26178228Y-18945107D01*
X26175557Y-18930753D01*
X26170963Y-18917414D01*
X26166563Y-18907528D01*
X26146463Y-18873090D01*
X26121851Y-18846801D01*
X26097200Y-18830184D01*
X26086790Y-18824597D01*
X26077033Y-18819775D01*
X26067127Y-18815662D01*
X26056272Y-18812201D01*
X26043666Y-18809336D01*
X26028509Y-18807011D01*
X26010000Y-18805170D01*
X25987338Y-18803755D01*
X25959723Y-18802711D01*
X25926353Y-18801982D01*
X25886428Y-18801510D01*
X25839147Y-18801241D01*
X25783709Y-18801116D01*
X25719313Y-18801081D01*
X25683413Y-18801080D01*
X25354280Y-18801080D01*
X25354280Y-18486120D01*
X26446480Y-18486120D01*
X26446480Y-18801080D01*
X26376630Y-18801070D01*
X26306780Y-18801061D01*
X26355040Y-18850803D01*
X26384831Y-18883051D01*
X26407958Y-18912055D01*
X26426110Y-18940361D01*
X26440974Y-18970512D01*
X26450650Y-18994960D01*
X26455683Y-19009355D01*
X26459297Y-19022089D01*
X26461726Y-19035281D01*
X26463203Y-19051048D01*
X26463961Y-19071508D01*
X26464233Y-19098779D01*
X26464260Y-19118580D01*
X26464112Y-19151749D01*
X26464112Y-19151749D01*
G37*
X26464112Y-19151749D02*
X26463526Y-19176963D01*
X26462291Y-19196424D01*
X26460198Y-19212334D01*
X26457037Y-19226895D01*
X26452596Y-19242311D01*
X26452369Y-19243040D01*
X26435325Y-19288666D01*
X26414188Y-19327563D01*
X26387082Y-19362913D01*
X26372820Y-19378125D01*
X26328538Y-19415789D01*
X26277709Y-19445764D01*
X26220550Y-19467945D01*
X26161047Y-19481627D01*
X26149413Y-19482661D01*
X26128074Y-19483599D01*
X26097485Y-19484433D01*
X26058101Y-19485158D01*
X26010375Y-19485768D01*
X25954764Y-19486257D01*
X25891721Y-19486621D01*
X25821701Y-19486852D01*
X25745158Y-19486945D01*
X25742900Y-19486946D01*
X25356820Y-19487033D01*
X25355478Y-19329476D01*
X25354136Y-19171920D01*
X25685881Y-19171920D01*
X25755139Y-19171905D01*
X25815033Y-19171828D01*
X25866358Y-19171639D01*
X25909909Y-19171289D01*
X25946482Y-19170729D01*
X25976872Y-19169909D01*
X26001874Y-19168781D01*
X26022285Y-19167294D01*
X26038899Y-19165400D01*
X26052512Y-19163049D01*
X26063919Y-19160193D01*
X26073917Y-19156781D01*
X26083299Y-19152764D01*
X26092862Y-19148094D01*
X26095981Y-19146509D01*
X26124838Y-19126555D01*
X26149764Y-19098978D01*
X26166468Y-19070759D01*
X26172666Y-19056329D01*
X26176597Y-19042991D01*
X26178757Y-19027694D01*
X26179644Y-19007384D01*
X26179772Y-18989040D01*
X26179469Y-18963520D01*
X26178228Y-18945107D01*
X26175557Y-18930753D01*
X26170963Y-18917414D01*
X26166563Y-18907528D01*
X26146463Y-18873090D01*
X26121851Y-18846801D01*
X26097200Y-18830184D01*
X26086790Y-18824597D01*
X26077033Y-18819775D01*
X26067127Y-18815662D01*
X26056272Y-18812201D01*
X26043666Y-18809336D01*
X26028509Y-18807011D01*
X26010000Y-18805170D01*
X25987338Y-18803755D01*
X25959723Y-18802711D01*
X25926353Y-18801982D01*
X25886428Y-18801510D01*
X25839147Y-18801241D01*
X25783709Y-18801116D01*
X25719313Y-18801081D01*
X25683413Y-18801080D01*
X25354280Y-18801080D01*
X25354280Y-18486120D01*
X26446480Y-18486120D01*
X26446480Y-18801080D01*
X26376630Y-18801070D01*
X26306780Y-18801061D01*
X26355040Y-18850803D01*
X26384831Y-18883051D01*
X26407958Y-18912055D01*
X26426110Y-18940361D01*
X26440974Y-18970512D01*
X26450650Y-18994960D01*
X26455683Y-19009355D01*
X26459297Y-19022089D01*
X26461726Y-19035281D01*
X26463203Y-19051048D01*
X26463961Y-19071508D01*
X26464233Y-19098779D01*
X26464260Y-19118580D01*
X26464112Y-19151749D01*
G36*
X26468917Y-22491577D02*
X26465699Y-22504400D01*
X26143078Y-22504400D01*
X26139598Y-22461519D01*
X26130671Y-22400701D01*
X26114268Y-22346751D01*
X26090310Y-22299571D01*
X26058718Y-22259063D01*
X26019411Y-22225130D01*
X25972311Y-22197673D01*
X25917338Y-22176595D01*
X25905460Y-22173155D01*
X25895901Y-22170622D01*
X25886532Y-22168492D01*
X25876386Y-22166723D01*
X25864497Y-22165272D01*
X25849896Y-22164097D01*
X25831618Y-22163155D01*
X25808696Y-22162404D01*
X25780162Y-22161802D01*
X25745050Y-22161305D01*
X25702393Y-22160872D01*
X25651224Y-22160460D01*
X25609550Y-22160159D01*
X25354280Y-22158362D01*
X25354280Y-21844000D01*
X26446480Y-21844000D01*
X26446480Y-22158960D01*
X26245820Y-22159190D01*
X26277008Y-22176002D01*
X26325016Y-22205742D01*
X26367395Y-22239791D01*
X26403086Y-22277003D01*
X26431028Y-22316232D01*
X26450162Y-22356332D01*
X26453553Y-22366728D01*
X26458751Y-22387835D01*
X26463331Y-22412639D01*
X26466948Y-22438333D01*
X26469257Y-22462117D01*
X26469914Y-22481184D01*
X26468917Y-22491577D01*
X26468917Y-22491577D01*
G37*
X26468917Y-22491577D02*
X26465699Y-22504400D01*
X26143078Y-22504400D01*
X26139598Y-22461519D01*
X26130671Y-22400701D01*
X26114268Y-22346751D01*
X26090310Y-22299571D01*
X26058718Y-22259063D01*
X26019411Y-22225130D01*
X25972311Y-22197673D01*
X25917338Y-22176595D01*
X25905460Y-22173155D01*
X25895901Y-22170622D01*
X25886532Y-22168492D01*
X25876386Y-22166723D01*
X25864497Y-22165272D01*
X25849896Y-22164097D01*
X25831618Y-22163155D01*
X25808696Y-22162404D01*
X25780162Y-22161802D01*
X25745050Y-22161305D01*
X25702393Y-22160872D01*
X25651224Y-22160460D01*
X25609550Y-22160159D01*
X25354280Y-22158362D01*
X25354280Y-21844000D01*
X26446480Y-21844000D01*
X26446480Y-22158960D01*
X26245820Y-22159190D01*
X26277008Y-22176002D01*
X26325016Y-22205742D01*
X26367395Y-22239791D01*
X26403086Y-22277003D01*
X26431028Y-22316232D01*
X26450162Y-22356332D01*
X26453553Y-22366728D01*
X26458751Y-22387835D01*
X26463331Y-22412639D01*
X26466948Y-22438333D01*
X26469257Y-22462117D01*
X26469914Y-22481184D01*
X26468917Y-22491577D01*
G36*
X25901651Y-24156717D02*
X25356820Y-24155495D01*
X25355478Y-23997967D01*
X25354136Y-23840440D01*
X26446480Y-23840440D01*
X26446481Y-23999190D01*
X26446481Y-24157940D01*
X25901651Y-24156717D01*
X25901651Y-24156717D01*
G37*
X25901651Y-24156717D02*
X25356820Y-24155495D01*
X25355478Y-23997967D01*
X25354136Y-23840440D01*
X26446480Y-23840440D01*
X26446481Y-23999190D01*
X26446481Y-24157940D01*
X25901651Y-24156717D01*
G36*
X26854690Y-24800560D02*
X26854353Y-24840067D01*
X26853246Y-24872134D01*
X26851053Y-24899469D01*
X26847457Y-24924782D01*
X26842142Y-24950782D01*
X26834792Y-24980178D01*
X26832903Y-24987250D01*
X26827089Y-25008840D01*
X26694661Y-25008840D01*
X26654577Y-25008802D01*
X26623547Y-25008640D01*
X26600466Y-25008277D01*
X26584228Y-25007635D01*
X26573728Y-25006640D01*
X26567861Y-25005214D01*
X26565521Y-25003282D01*
X26565602Y-25000767D01*
X26565907Y-24999950D01*
X26574685Y-24973395D01*
X26582128Y-24940976D01*
X26587413Y-24906976D01*
X26589713Y-24875992D01*
X26587753Y-24838887D01*
X26579769Y-24809549D01*
X26565128Y-24787304D01*
X26543198Y-24771475D01*
X26513347Y-24761384D01*
X26478033Y-24756567D01*
X26436501Y-24753576D01*
X26435141Y-24878858D01*
X26433780Y-25004141D01*
X26179780Y-25004141D01*
X26178420Y-24882030D01*
X26177060Y-24759920D01*
X25354280Y-24759920D01*
X25354280Y-24444960D01*
X26177240Y-24444960D01*
X26177240Y-24317960D01*
X26436320Y-24317960D01*
X26436320Y-24443579D01*
X26511250Y-24446216D01*
X26544021Y-24447934D01*
X26575902Y-24450616D01*
X26603784Y-24453950D01*
X26624280Y-24457560D01*
X26678548Y-24474345D01*
X26725629Y-24498303D01*
X26765620Y-24529526D01*
X26798618Y-24568106D01*
X26824719Y-24614137D01*
X26844021Y-24667710D01*
X26844032Y-24667750D01*
X26848022Y-24683495D01*
X26850905Y-24698980D01*
X26852846Y-24716280D01*
X26854014Y-24737470D01*
X26854573Y-24764628D01*
X26854691Y-24799828D01*
X26854690Y-24800560D01*
X26854690Y-24800560D01*
G37*
X26854690Y-24800560D02*
X26854353Y-24840067D01*
X26853246Y-24872134D01*
X26851053Y-24899469D01*
X26847457Y-24924782D01*
X26842142Y-24950782D01*
X26834792Y-24980178D01*
X26832903Y-24987250D01*
X26827089Y-25008840D01*
X26694661Y-25008840D01*
X26654577Y-25008802D01*
X26623547Y-25008640D01*
X26600466Y-25008277D01*
X26584228Y-25007635D01*
X26573728Y-25006640D01*
X26567861Y-25005214D01*
X26565521Y-25003282D01*
X26565602Y-25000767D01*
X26565907Y-24999950D01*
X26574685Y-24973395D01*
X26582128Y-24940976D01*
X26587413Y-24906976D01*
X26589713Y-24875992D01*
X26587753Y-24838887D01*
X26579769Y-24809549D01*
X26565128Y-24787304D01*
X26543198Y-24771475D01*
X26513347Y-24761384D01*
X26478033Y-24756567D01*
X26436501Y-24753576D01*
X26435141Y-24878858D01*
X26433780Y-25004141D01*
X26179780Y-25004141D01*
X26178420Y-24882030D01*
X26177060Y-24759920D01*
X25354280Y-24759920D01*
X25354280Y-24444960D01*
X26177240Y-24444960D01*
X26177240Y-24317960D01*
X26436320Y-24317960D01*
X26436320Y-24443579D01*
X26511250Y-24446216D01*
X26544021Y-24447934D01*
X26575902Y-24450616D01*
X26603784Y-24453950D01*
X26624280Y-24457560D01*
X26678548Y-24474345D01*
X26725629Y-24498303D01*
X26765620Y-24529526D01*
X26798618Y-24568106D01*
X26824719Y-24614137D01*
X26844021Y-24667710D01*
X26844032Y-24667750D01*
X26848022Y-24683495D01*
X26850905Y-24698980D01*
X26852846Y-24716280D01*
X26854014Y-24737470D01*
X26854573Y-24764628D01*
X26854691Y-24799828D01*
X26854690Y-24800560D01*
G36*
X26563320Y-24165560D02*
X26563320Y-23835360D01*
X26842720Y-23835360D01*
X26842720Y-24165560D01*
X26563320Y-24165560D01*
X26563320Y-24165560D01*
G37*
X26563320Y-24165560D02*
X26563320Y-23835360D01*
X26842720Y-23835360D01*
X26842720Y-24165560D01*
X26563320Y-24165560D01*
G36*
X27423192Y-13818103D02*
X27411293Y-13873381D01*
X27389792Y-13929992D01*
X27383200Y-13943913D01*
X27370275Y-13968611D01*
X27357370Y-13988861D01*
X27341987Y-14008083D01*
X27321627Y-14029696D01*
X27317508Y-14033837D01*
X27296270Y-14054342D01*
X27278170Y-14069579D01*
X27259755Y-14082011D01*
X27237570Y-14094099D01*
X27222769Y-14101370D01*
X27188033Y-14117164D01*
X27158464Y-14128127D01*
X27130754Y-14135031D01*
X27101594Y-14138650D01*
X27067678Y-14139756D01*
X27058620Y-14139735D01*
X27041537Y-14139429D01*
X27025542Y-14138557D01*
X27009878Y-14136806D01*
X26993788Y-14133862D01*
X26976516Y-14129413D01*
X26957305Y-14123145D01*
X26935397Y-14114744D01*
X26910037Y-14103898D01*
X26880467Y-14090293D01*
X26845931Y-14073616D01*
X26805671Y-14053554D01*
X26758931Y-14029793D01*
X26704955Y-14002020D01*
X26642985Y-13969922D01*
X26621740Y-13958893D01*
X26571681Y-13932846D01*
X26524150Y-13908022D01*
X26479941Y-13884841D01*
X26439846Y-13863723D01*
X26404659Y-13845087D01*
X26375172Y-13829355D01*
X26352179Y-13816947D01*
X26336473Y-13808282D01*
X26328846Y-13803781D01*
X26328370Y-13803427D01*
X26321260Y-13791432D01*
X26319989Y-13776137D01*
X26324753Y-13762611D01*
X26326697Y-13760309D01*
X26333552Y-13755575D01*
X26348513Y-13746687D01*
X26370647Y-13734137D01*
X26399024Y-13718415D01*
X26432714Y-13700013D01*
X26470784Y-13679422D01*
X26512305Y-13657134D01*
X26556346Y-13633641D01*
X26601975Y-13609433D01*
X26648261Y-13585002D01*
X26694274Y-13560839D01*
X26739083Y-13537436D01*
X26781756Y-13515284D01*
X26821364Y-13494874D01*
X26856974Y-13476699D01*
X26887657Y-13461248D01*
X26912481Y-13449015D01*
X26930515Y-13440489D01*
X26940678Y-13436214D01*
X27001798Y-13420139D01*
X27062252Y-13413827D01*
X27071687Y-13414368D01*
X27071687Y-13523777D01*
X27024261Y-13526238D01*
X26979447Y-13537168D01*
X26938066Y-13555745D01*
X26900939Y-13581146D01*
X26868888Y-13612550D01*
X26842732Y-13649133D01*
X26823294Y-13690075D01*
X26811395Y-13734552D01*
X26807856Y-13781742D01*
X26813498Y-13830823D01*
X26814885Y-13837030D01*
X26831148Y-13885387D01*
X26855385Y-13927792D01*
X26886931Y-13963640D01*
X26925120Y-13992328D01*
X26969288Y-14013250D01*
X27018769Y-14025801D01*
X27023259Y-14026471D01*
X27072323Y-14028707D01*
X27119126Y-14021900D01*
X27162827Y-14006925D01*
X27202588Y-13984657D01*
X27237572Y-13955973D01*
X27266938Y-13921749D01*
X27289848Y-13882860D01*
X27305464Y-13840182D01*
X27312947Y-13794591D01*
X27311458Y-13746963D01*
X27308404Y-13728700D01*
X27293418Y-13677971D01*
X27270802Y-13633671D01*
X27240923Y-13596187D01*
X27204149Y-13565910D01*
X27160848Y-13543227D01*
X27120903Y-13530608D01*
X27071687Y-13523777D01*
X27071687Y-13414368D01*
X27121375Y-13417221D01*
X27178497Y-13430265D01*
X27232953Y-13452903D01*
X27249930Y-13462296D01*
X27297907Y-13496210D01*
X27339166Y-13537106D01*
X27372842Y-13583934D01*
X27398067Y-13635644D01*
X27402140Y-13646821D01*
X27418530Y-13706167D01*
X27425576Y-13762813D01*
X27423192Y-13818103D01*
X27423192Y-13818103D01*
G37*
X27423192Y-13818103D02*
X27411293Y-13873381D01*
X27389792Y-13929992D01*
X27383200Y-13943913D01*
X27370275Y-13968611D01*
X27357370Y-13988861D01*
X27341987Y-14008083D01*
X27321627Y-14029696D01*
X27317508Y-14033837D01*
X27296270Y-14054342D01*
X27278170Y-14069579D01*
X27259755Y-14082011D01*
X27237570Y-14094099D01*
X27222769Y-14101370D01*
X27188033Y-14117164D01*
X27158464Y-14128127D01*
X27130754Y-14135031D01*
X27101594Y-14138650D01*
X27067678Y-14139756D01*
X27058620Y-14139735D01*
X27041537Y-14139429D01*
X27025542Y-14138557D01*
X27009878Y-14136806D01*
X26993788Y-14133862D01*
X26976516Y-14129413D01*
X26957305Y-14123145D01*
X26935397Y-14114744D01*
X26910037Y-14103898D01*
X26880467Y-14090293D01*
X26845931Y-14073616D01*
X26805671Y-14053554D01*
X26758931Y-14029793D01*
X26704955Y-14002020D01*
X26642985Y-13969922D01*
X26621740Y-13958893D01*
X26571681Y-13932846D01*
X26524150Y-13908022D01*
X26479941Y-13884841D01*
X26439846Y-13863723D01*
X26404659Y-13845087D01*
X26375172Y-13829355D01*
X26352179Y-13816947D01*
X26336473Y-13808282D01*
X26328846Y-13803781D01*
X26328370Y-13803427D01*
X26321260Y-13791432D01*
X26319989Y-13776137D01*
X26324753Y-13762611D01*
X26326697Y-13760309D01*
X26333552Y-13755575D01*
X26348513Y-13746687D01*
X26370647Y-13734137D01*
X26399024Y-13718415D01*
X26432714Y-13700013D01*
X26470784Y-13679422D01*
X26512305Y-13657134D01*
X26556346Y-13633641D01*
X26601975Y-13609433D01*
X26648261Y-13585002D01*
X26694274Y-13560839D01*
X26739083Y-13537436D01*
X26781756Y-13515284D01*
X26821364Y-13494874D01*
X26856974Y-13476699D01*
X26887657Y-13461248D01*
X26912481Y-13449015D01*
X26930515Y-13440489D01*
X26940678Y-13436214D01*
X27001798Y-13420139D01*
X27062252Y-13413827D01*
X27071687Y-13414368D01*
X27071687Y-13523777D01*
X27024261Y-13526238D01*
X26979447Y-13537168D01*
X26938066Y-13555745D01*
X26900939Y-13581146D01*
X26868888Y-13612550D01*
X26842732Y-13649133D01*
X26823294Y-13690075D01*
X26811395Y-13734552D01*
X26807856Y-13781742D01*
X26813498Y-13830823D01*
X26814885Y-13837030D01*
X26831148Y-13885387D01*
X26855385Y-13927792D01*
X26886931Y-13963640D01*
X26925120Y-13992328D01*
X26969288Y-14013250D01*
X27018769Y-14025801D01*
X27023259Y-14026471D01*
X27072323Y-14028707D01*
X27119126Y-14021900D01*
X27162827Y-14006925D01*
X27202588Y-13984657D01*
X27237572Y-13955973D01*
X27266938Y-13921749D01*
X27289848Y-13882860D01*
X27305464Y-13840182D01*
X27312947Y-13794591D01*
X27311458Y-13746963D01*
X27308404Y-13728700D01*
X27293418Y-13677971D01*
X27270802Y-13633671D01*
X27240923Y-13596187D01*
X27204149Y-13565910D01*
X27160848Y-13543227D01*
X27120903Y-13530608D01*
X27071687Y-13523777D01*
X27071687Y-13414368D01*
X27121375Y-13417221D01*
X27178497Y-13430265D01*
X27232953Y-13452903D01*
X27249930Y-13462296D01*
X27297907Y-13496210D01*
X27339166Y-13537106D01*
X27372842Y-13583934D01*
X27398067Y-13635644D01*
X27402140Y-13646821D01*
X27418530Y-13706167D01*
X27425576Y-13762813D01*
X27423192Y-13818103D01*
G36*
X25170083Y-8522539D02*
X25164482Y-8532296D01*
X25153155Y-8534400D01*
X25140724Y-8535406D01*
X25141590Y-8541299D01*
X25149639Y-8550676D01*
X25162814Y-8575327D01*
X25169265Y-8608420D01*
X25168097Y-8642499D01*
X25162909Y-8661460D01*
X25148464Y-8684164D01*
X25127696Y-8704696D01*
X25125832Y-8706070D01*
X25112221Y-8714508D01*
X25097156Y-8719995D01*
X25076726Y-8723145D01*
X25047023Y-8724574D01*
X25006300Y-8724900D01*
X24964059Y-8724540D01*
X24934835Y-8723049D01*
X24914716Y-8719811D01*
X24899793Y-8714211D01*
X24886768Y-8706070D01*
X24865851Y-8686228D01*
X24850499Y-8663301D01*
X24849692Y-8661460D01*
X24843156Y-8630685D01*
X24844811Y-8596102D01*
X24853766Y-8565168D01*
X24862962Y-8550676D01*
X24868165Y-8544276D01*
X24868704Y-8539821D01*
X24862308Y-8536959D01*
X24846706Y-8535337D01*
X24819627Y-8534604D01*
X24778800Y-8534407D01*
X24757970Y-8534400D01*
X24638249Y-8534400D01*
X24655026Y-8561917D01*
X24669455Y-8600224D01*
X24668412Y-8639033D01*
X24652880Y-8674843D01*
X24623840Y-8704155D01*
X24613257Y-8710813D01*
X24598484Y-8718201D01*
X24582724Y-8723305D01*
X24562564Y-8726537D01*
X24534590Y-8728309D01*
X24495386Y-8729032D01*
X24461164Y-8729134D01*
X24341667Y-8729134D01*
X24341667Y-8652934D01*
X24454655Y-8652934D01*
X24506829Y-8652314D01*
X24544424Y-8649835D01*
X24569768Y-8644563D01*
X24585189Y-8635565D01*
X24593016Y-8621908D01*
X24595576Y-8602659D01*
X24595667Y-8596429D01*
X24593464Y-8575356D01*
X24585382Y-8559905D01*
X24569210Y-8549151D01*
X24542737Y-8542170D01*
X24503753Y-8538035D01*
X24450872Y-8535844D01*
X24341667Y-8533054D01*
X24341667Y-8466667D01*
X25020661Y-8466667D01*
X25020661Y-8538705D01*
X24984118Y-8539729D01*
X24950649Y-8546641D01*
X24925689Y-8559104D01*
X24919218Y-8565685D01*
X24912039Y-8587641D01*
X24914826Y-8614108D01*
X24926209Y-8637016D01*
X24932331Y-8642978D01*
X24948314Y-8648329D01*
X24975250Y-8651170D01*
X25007790Y-8651644D01*
X25040582Y-8649889D01*
X25068275Y-8646047D01*
X25085519Y-8640257D01*
X25087202Y-8638918D01*
X25095510Y-8620704D01*
X25096750Y-8595386D01*
X25091489Y-8570860D01*
X25081230Y-8555662D01*
X25054843Y-8543903D01*
X25020661Y-8538705D01*
X25020661Y-8466667D01*
X25171400Y-8466667D01*
X25171400Y-8500533D01*
X25170083Y-8522539D01*
X25170083Y-8522539D01*
G37*
X25170083Y-8522539D02*
X25164482Y-8532296D01*
X25153155Y-8534400D01*
X25140724Y-8535406D01*
X25141590Y-8541299D01*
X25149639Y-8550676D01*
X25162814Y-8575327D01*
X25169265Y-8608420D01*
X25168097Y-8642499D01*
X25162909Y-8661460D01*
X25148464Y-8684164D01*
X25127696Y-8704696D01*
X25125832Y-8706070D01*
X25112221Y-8714508D01*
X25097156Y-8719995D01*
X25076726Y-8723145D01*
X25047023Y-8724574D01*
X25006300Y-8724900D01*
X24964059Y-8724540D01*
X24934835Y-8723049D01*
X24914716Y-8719811D01*
X24899793Y-8714211D01*
X24886768Y-8706070D01*
X24865851Y-8686228D01*
X24850499Y-8663301D01*
X24849692Y-8661460D01*
X24843156Y-8630685D01*
X24844811Y-8596102D01*
X24853766Y-8565168D01*
X24862962Y-8550676D01*
X24868165Y-8544276D01*
X24868704Y-8539821D01*
X24862308Y-8536959D01*
X24846706Y-8535337D01*
X24819627Y-8534604D01*
X24778800Y-8534407D01*
X24757970Y-8534400D01*
X24638249Y-8534400D01*
X24655026Y-8561917D01*
X24669455Y-8600224D01*
X24668412Y-8639033D01*
X24652880Y-8674843D01*
X24623840Y-8704155D01*
X24613257Y-8710813D01*
X24598484Y-8718201D01*
X24582724Y-8723305D01*
X24562564Y-8726537D01*
X24534590Y-8728309D01*
X24495386Y-8729032D01*
X24461164Y-8729134D01*
X24341667Y-8729134D01*
X24341667Y-8652934D01*
X24454655Y-8652934D01*
X24506829Y-8652314D01*
X24544424Y-8649835D01*
X24569768Y-8644563D01*
X24585189Y-8635565D01*
X24593016Y-8621908D01*
X24595576Y-8602659D01*
X24595667Y-8596429D01*
X24593464Y-8575356D01*
X24585382Y-8559905D01*
X24569210Y-8549151D01*
X24542737Y-8542170D01*
X24503753Y-8538035D01*
X24450872Y-8535844D01*
X24341667Y-8533054D01*
X24341667Y-8466667D01*
X25020661Y-8466667D01*
X25020661Y-8538705D01*
X24984118Y-8539729D01*
X24950649Y-8546641D01*
X24925689Y-8559104D01*
X24919218Y-8565685D01*
X24912039Y-8587641D01*
X24914826Y-8614108D01*
X24926209Y-8637016D01*
X24932331Y-8642978D01*
X24948314Y-8648329D01*
X24975250Y-8651170D01*
X25007790Y-8651644D01*
X25040582Y-8649889D01*
X25068275Y-8646047D01*
X25085519Y-8640257D01*
X25087202Y-8638918D01*
X25095510Y-8620704D01*
X25096750Y-8595386D01*
X25091489Y-8570860D01*
X25081230Y-8555662D01*
X25054843Y-8543903D01*
X25020661Y-8538705D01*
X25020661Y-8466667D01*
X25171400Y-8466667D01*
X25171400Y-8500533D01*
X25170083Y-8522539D01*
G36*
X24665875Y-8939332D02*
X24648969Y-8979994D01*
X24628636Y-9003756D01*
X24618221Y-9012010D01*
X24607790Y-9017853D01*
X24594345Y-9021700D01*
X24574886Y-9023969D01*
X24546416Y-9025075D01*
X24505935Y-9025436D01*
X24472251Y-9025467D01*
X24341667Y-9025467D01*
X24341667Y-8991600D01*
X24343611Y-8970394D01*
X24348466Y-8958598D01*
X24350431Y-8957733D01*
X24354871Y-8952551D01*
X24350431Y-8941357D01*
X24343167Y-8915465D01*
X24341667Y-8881007D01*
X24345528Y-8845190D01*
X24354349Y-8815220D01*
X24357835Y-8808556D01*
X24380120Y-8785423D01*
X24411270Y-8768806D01*
X24441134Y-8763000D01*
X24444117Y-8763738D01*
X24444117Y-8831882D01*
X24426792Y-8835763D01*
X24418545Y-8845550D01*
X24412452Y-8865126D01*
X24409991Y-8892092D01*
X24411097Y-8919660D01*
X24415700Y-8941043D01*
X24419560Y-8947574D01*
X24435162Y-8955170D01*
X24453427Y-8957733D01*
X24466610Y-8956914D01*
X24473692Y-8951779D01*
X24476567Y-8938316D01*
X24477131Y-8912513D01*
X24477133Y-8907538D01*
X24474687Y-8870537D01*
X24467118Y-8848130D01*
X24463829Y-8844038D01*
X24444117Y-8831882D01*
X24444117Y-8763738D01*
X24468307Y-8769724D01*
X24496315Y-8786768D01*
X24518153Y-8809444D01*
X24523046Y-8817851D01*
X24531257Y-8845419D01*
X24535826Y-8882750D01*
X24536400Y-8901863D01*
X24536824Y-8931775D01*
X24538953Y-8948525D01*
X24544074Y-8955877D01*
X24553474Y-8957599D01*
X24555450Y-8957604D01*
X24579378Y-8953234D01*
X24593736Y-8938531D01*
X24601332Y-8910498D01*
X24601633Y-8908332D01*
X24601648Y-8875162D01*
X24592131Y-8851776D01*
X24583552Y-8836475D01*
X24584109Y-8824751D01*
X24594667Y-8808999D01*
X24597390Y-8805535D01*
X24612157Y-8789970D01*
X24623778Y-8782955D01*
X24625300Y-8782978D01*
X24635926Y-8792504D01*
X24648194Y-8813217D01*
X24659800Y-8839836D01*
X24668443Y-8867079D01*
X24671820Y-8889665D01*
X24671820Y-8889677D01*
X24665875Y-8939332D01*
X24665875Y-8939332D01*
G37*
X24665875Y-8939332D02*
X24648969Y-8979994D01*
X24628636Y-9003756D01*
X24618221Y-9012010D01*
X24607790Y-9017853D01*
X24594345Y-9021700D01*
X24574886Y-9023969D01*
X24546416Y-9025075D01*
X24505935Y-9025436D01*
X24472251Y-9025467D01*
X24341667Y-9025467D01*
X24341667Y-8991600D01*
X24343611Y-8970394D01*
X24348466Y-8958598D01*
X24350431Y-8957733D01*
X24354871Y-8952551D01*
X24350431Y-8941357D01*
X24343167Y-8915465D01*
X24341667Y-8881007D01*
X24345528Y-8845190D01*
X24354349Y-8815220D01*
X24357835Y-8808556D01*
X24380120Y-8785423D01*
X24411270Y-8768806D01*
X24441134Y-8763000D01*
X24444117Y-8763738D01*
X24444117Y-8831882D01*
X24426792Y-8835763D01*
X24418545Y-8845550D01*
X24412452Y-8865126D01*
X24409991Y-8892092D01*
X24411097Y-8919660D01*
X24415700Y-8941043D01*
X24419560Y-8947574D01*
X24435162Y-8955170D01*
X24453427Y-8957733D01*
X24466610Y-8956914D01*
X24473692Y-8951779D01*
X24476567Y-8938316D01*
X24477131Y-8912513D01*
X24477133Y-8907538D01*
X24474687Y-8870537D01*
X24467118Y-8848130D01*
X24463829Y-8844038D01*
X24444117Y-8831882D01*
X24444117Y-8763738D01*
X24468307Y-8769724D01*
X24496315Y-8786768D01*
X24518153Y-8809444D01*
X24523046Y-8817851D01*
X24531257Y-8845419D01*
X24535826Y-8882750D01*
X24536400Y-8901863D01*
X24536824Y-8931775D01*
X24538953Y-8948525D01*
X24544074Y-8955877D01*
X24553474Y-8957599D01*
X24555450Y-8957604D01*
X24579378Y-8953234D01*
X24593736Y-8938531D01*
X24601332Y-8910498D01*
X24601633Y-8908332D01*
X24601648Y-8875162D01*
X24592131Y-8851776D01*
X24583552Y-8836475D01*
X24584109Y-8824751D01*
X24594667Y-8808999D01*
X24597390Y-8805535D01*
X24612157Y-8789970D01*
X24623778Y-8782955D01*
X24625300Y-8782978D01*
X24635926Y-8792504D01*
X24648194Y-8813217D01*
X24659800Y-8839836D01*
X24668443Y-8867079D01*
X24671820Y-8889665D01*
X24671820Y-8889677D01*
X24665875Y-8939332D01*
G36*
X24667910Y-9265536D02*
X24658851Y-9288544D01*
X24645835Y-9313714D01*
X24616789Y-9291559D01*
X24598611Y-9276057D01*
X24591305Y-9261984D01*
X24591638Y-9241491D01*
X24592717Y-9233114D01*
X24594333Y-9207250D01*
X24589041Y-9190139D01*
X24579746Y-9178879D01*
X24571024Y-9171479D01*
X24560190Y-9166440D01*
X24544059Y-9163314D01*
X24519444Y-9161654D01*
X24483160Y-9161014D01*
X24451733Y-9160934D01*
X24341667Y-9160934D01*
X24341667Y-9093908D01*
X24503258Y-9091438D01*
X24553604Y-9090753D01*
X24597723Y-9090314D01*
X24632987Y-9090135D01*
X24656765Y-9090228D01*
X24666427Y-9090606D01*
X24666507Y-9090644D01*
X24666821Y-9099256D01*
X24665596Y-9118752D01*
X24664893Y-9126627D01*
X24659817Y-9151097D01*
X24651062Y-9160838D01*
X24649935Y-9160934D01*
X24644226Y-9164421D01*
X24648323Y-9176751D01*
X24655026Y-9188450D01*
X24669928Y-9226827D01*
X24667910Y-9265536D01*
X24667910Y-9265536D01*
G37*
X24667910Y-9265536D02*
X24658851Y-9288544D01*
X24645835Y-9313714D01*
X24616789Y-9291559D01*
X24598611Y-9276057D01*
X24591305Y-9261984D01*
X24591638Y-9241491D01*
X24592717Y-9233114D01*
X24594333Y-9207250D01*
X24589041Y-9190139D01*
X24579746Y-9178879D01*
X24571024Y-9171479D01*
X24560190Y-9166440D01*
X24544059Y-9163314D01*
X24519444Y-9161654D01*
X24483160Y-9161014D01*
X24451733Y-9160934D01*
X24341667Y-9160934D01*
X24341667Y-9093908D01*
X24503258Y-9091438D01*
X24553604Y-9090753D01*
X24597723Y-9090314D01*
X24632987Y-9090135D01*
X24656765Y-9090228D01*
X24666427Y-9090606D01*
X24666507Y-9090644D01*
X24666821Y-9099256D01*
X24665596Y-9118752D01*
X24664893Y-9126627D01*
X24659817Y-9151097D01*
X24651062Y-9160838D01*
X24649935Y-9160934D01*
X24644226Y-9164421D01*
X24648323Y-9176751D01*
X24655026Y-9188450D01*
X24669928Y-9226827D01*
X24667910Y-9265536D01*
G36*
X24341667Y-9567334D02*
X24341667Y-9533467D01*
X24343703Y-9510061D01*
X24350538Y-9500316D01*
X24354584Y-9499600D01*
X24362495Y-9497902D01*
X24361858Y-9489836D01*
X24354584Y-9474621D01*
X24346497Y-9450255D01*
X24341997Y-9419752D01*
X24341667Y-9410274D01*
X24343868Y-9382349D01*
X24352984Y-9361888D01*
X24369636Y-9342937D01*
X24390767Y-9325168D01*
X24413873Y-9314905D01*
X24446365Y-9308876D01*
X24446976Y-9308799D01*
X24483787Y-9306258D01*
X24500205Y-9306266D01*
X24500205Y-9379677D01*
X24466620Y-9382739D01*
X24439187Y-9390058D01*
X24426334Y-9398000D01*
X24411575Y-9423407D01*
X24412383Y-9452074D01*
X24421787Y-9471184D01*
X24439548Y-9484104D01*
X24467981Y-9492239D01*
X24501949Y-9495542D01*
X24536319Y-9493968D01*
X24565956Y-9487470D01*
X24585725Y-9476000D01*
X24588309Y-9472696D01*
X24595069Y-9449282D01*
X24593067Y-9421341D01*
X24583126Y-9398301D01*
X24581655Y-9396550D01*
X24563343Y-9386530D01*
X24534320Y-9380923D01*
X24500205Y-9379677D01*
X24500205Y-9306266D01*
X24525956Y-9306281D01*
X24552067Y-9307834D01*
X24584523Y-9311941D01*
X24606393Y-9318508D01*
X24624025Y-9330071D01*
X24636219Y-9341468D01*
X24661324Y-9376774D01*
X24669978Y-9415297D01*
X24661972Y-9455721D01*
X24656380Y-9467850D01*
X24639826Y-9499600D01*
X24798867Y-9499600D01*
X24798867Y-9567334D01*
X24341667Y-9567334D01*
X24341667Y-9567334D01*
G37*
X24341667Y-9567334D02*
X24341667Y-9533467D01*
X24343703Y-9510061D01*
X24350538Y-9500316D01*
X24354584Y-9499600D01*
X24362495Y-9497902D01*
X24361858Y-9489836D01*
X24354584Y-9474621D01*
X24346497Y-9450255D01*
X24341997Y-9419752D01*
X24341667Y-9410274D01*
X24343868Y-9382349D01*
X24352984Y-9361888D01*
X24369636Y-9342937D01*
X24390767Y-9325168D01*
X24413873Y-9314905D01*
X24446365Y-9308876D01*
X24446976Y-9308799D01*
X24483787Y-9306258D01*
X24500205Y-9306266D01*
X24500205Y-9379677D01*
X24466620Y-9382739D01*
X24439187Y-9390058D01*
X24426334Y-9398000D01*
X24411575Y-9423407D01*
X24412383Y-9452074D01*
X24421787Y-9471184D01*
X24439548Y-9484104D01*
X24467981Y-9492239D01*
X24501949Y-9495542D01*
X24536319Y-9493968D01*
X24565956Y-9487470D01*
X24585725Y-9476000D01*
X24588309Y-9472696D01*
X24595069Y-9449282D01*
X24593067Y-9421341D01*
X24583126Y-9398301D01*
X24581655Y-9396550D01*
X24563343Y-9386530D01*
X24534320Y-9380923D01*
X24500205Y-9379677D01*
X24500205Y-9306266D01*
X24525956Y-9306281D01*
X24552067Y-9307834D01*
X24584523Y-9311941D01*
X24606393Y-9318508D01*
X24624025Y-9330071D01*
X24636219Y-9341468D01*
X24661324Y-9376774D01*
X24669978Y-9415297D01*
X24661972Y-9455721D01*
X24656380Y-9467850D01*
X24639826Y-9499600D01*
X24798867Y-9499600D01*
X24798867Y-9567334D01*
X24341667Y-9567334D01*
G36*
X24666109Y-10011833D02*
X24664582Y-10033939D01*
X24658897Y-10043449D01*
X24649858Y-10044812D01*
X24636852Y-10041971D01*
X24610720Y-10034635D01*
X24574392Y-10023686D01*
X24530799Y-10010004D01*
X24489833Y-9996755D01*
X24345900Y-9949584D01*
X24345900Y-9885580D01*
X24450779Y-9854817D01*
X24555657Y-9824054D01*
X24484645Y-9802208D01*
X24447023Y-9790703D01*
X24410801Y-9779742D01*
X24382565Y-9771316D01*
X24377650Y-9769875D01*
X24355255Y-9762232D01*
X24344816Y-9753226D01*
X24341805Y-9737613D01*
X24341667Y-9728186D01*
X24341667Y-9696985D01*
X24449617Y-9662008D01*
X24518080Y-9639934D01*
X24571783Y-9622880D01*
X24612013Y-9610460D01*
X24640058Y-9602289D01*
X24657205Y-9597980D01*
X24664741Y-9597148D01*
X24665226Y-9597382D01*
X24666212Y-9606618D01*
X24665612Y-9626798D01*
X24664912Y-9636955D01*
X24660773Y-9662324D01*
X24652771Y-9673904D01*
X24647870Y-9675374D01*
X24627910Y-9678921D01*
X24600126Y-9685717D01*
X24568114Y-9694637D01*
X24535468Y-9704558D01*
X24505781Y-9714355D01*
X24482649Y-9722902D01*
X24469664Y-9729076D01*
X24468667Y-9731442D01*
X24481616Y-9736120D01*
X24506725Y-9744743D01*
X24540065Y-9755973D01*
X24568833Y-9765541D01*
X24604530Y-9777518D01*
X24633722Y-9787630D01*
X24653004Y-9794677D01*
X24659026Y-9797322D01*
X24661924Y-9806877D01*
X24664693Y-9824092D01*
X24665364Y-9833867D01*
X24662953Y-9841524D01*
X24654994Y-9848438D01*
X24639020Y-9855989D01*
X24612562Y-9865554D01*
X24573154Y-9878510D01*
X24559103Y-9883050D01*
X24450572Y-9918082D01*
X24558421Y-9948024D01*
X24666269Y-9977967D01*
X24666109Y-10011833D01*
X24666109Y-10011833D01*
G37*
X24666109Y-10011833D02*
X24664582Y-10033939D01*
X24658897Y-10043449D01*
X24649858Y-10044812D01*
X24636852Y-10041971D01*
X24610720Y-10034635D01*
X24574392Y-10023686D01*
X24530799Y-10010004D01*
X24489833Y-9996755D01*
X24345900Y-9949584D01*
X24345900Y-9885580D01*
X24450779Y-9854817D01*
X24555657Y-9824054D01*
X24484645Y-9802208D01*
X24447023Y-9790703D01*
X24410801Y-9779742D01*
X24382565Y-9771316D01*
X24377650Y-9769875D01*
X24355255Y-9762232D01*
X24344816Y-9753226D01*
X24341805Y-9737613D01*
X24341667Y-9728186D01*
X24341667Y-9696985D01*
X24449617Y-9662008D01*
X24518080Y-9639934D01*
X24571783Y-9622880D01*
X24612013Y-9610460D01*
X24640058Y-9602289D01*
X24657205Y-9597980D01*
X24664741Y-9597148D01*
X24665226Y-9597382D01*
X24666212Y-9606618D01*
X24665612Y-9626798D01*
X24664912Y-9636955D01*
X24660773Y-9662324D01*
X24652771Y-9673904D01*
X24647870Y-9675374D01*
X24627910Y-9678921D01*
X24600126Y-9685717D01*
X24568114Y-9694637D01*
X24535468Y-9704558D01*
X24505781Y-9714355D01*
X24482649Y-9722902D01*
X24469664Y-9729076D01*
X24468667Y-9731442D01*
X24481616Y-9736120D01*
X24506725Y-9744743D01*
X24540065Y-9755973D01*
X24568833Y-9765541D01*
X24604530Y-9777518D01*
X24633722Y-9787630D01*
X24653004Y-9794677D01*
X24659026Y-9797322D01*
X24661924Y-9806877D01*
X24664693Y-9824092D01*
X24665364Y-9833867D01*
X24662953Y-9841524D01*
X24654994Y-9848438D01*
X24639020Y-9855989D01*
X24612562Y-9865554D01*
X24573154Y-9878510D01*
X24559103Y-9883050D01*
X24450572Y-9918082D01*
X24558421Y-9948024D01*
X24666269Y-9977967D01*
X24666109Y-10011833D01*
G36*
X24663014Y-10236020D02*
X24651806Y-10264536D01*
X24649884Y-10267329D01*
X24636270Y-10283655D01*
X24621427Y-10295495D01*
X24602462Y-10303559D01*
X24576484Y-10308555D01*
X24540601Y-10311193D01*
X24491922Y-10312181D01*
X24466550Y-10312275D01*
X24341667Y-10312400D01*
X24341667Y-10279239D01*
X24344168Y-10256512D01*
X24350517Y-10243243D01*
X24352250Y-10242197D01*
X24358588Y-10236544D01*
X24352250Y-10227099D01*
X24345478Y-10210633D01*
X24342468Y-10183637D01*
X24343098Y-10152063D01*
X24347244Y-10121861D01*
X24354781Y-10098982D01*
X24354920Y-10098723D01*
X24378907Y-10070834D01*
X24411702Y-10054777D01*
X24444662Y-10052100D01*
X24444662Y-10117667D01*
X24425600Y-10123120D01*
X24414227Y-10140634D01*
X24409609Y-10171939D01*
X24409400Y-10183070D01*
X24410260Y-10209871D01*
X24414215Y-10224834D01*
X24423327Y-10233022D01*
X24431118Y-10236410D01*
X24455393Y-10244051D01*
X24469260Y-10242239D01*
X24475558Y-10228577D01*
X24477127Y-10200664D01*
X24477133Y-10197544D01*
X24474018Y-10155482D01*
X24464633Y-10129026D01*
X24448917Y-10118027D01*
X24444662Y-10117667D01*
X24444662Y-10052100D01*
X24448933Y-10051752D01*
X24485877Y-10062777D01*
X24510915Y-10082094D01*
X24526959Y-10110755D01*
X24534998Y-10151152D01*
X24536400Y-10184980D01*
X24536851Y-10216259D01*
X24538885Y-10234224D01*
X24543528Y-10242483D01*
X24551802Y-10244645D01*
X24553333Y-10244667D01*
X24576616Y-10237295D01*
X24593574Y-10218207D01*
X24602620Y-10191942D01*
X24602170Y-10163040D01*
X24591064Y-10136641D01*
X24583418Y-10123003D01*
X24584726Y-10111062D01*
X24595935Y-10093718D01*
X24596993Y-10092284D01*
X24612567Y-10074593D01*
X24625428Y-10071211D01*
X24639708Y-10082393D01*
X24650185Y-10095538D01*
X24662064Y-10122254D01*
X24668154Y-10158695D01*
X24668468Y-10198678D01*
X24663014Y-10236020D01*
X24663014Y-10236020D01*
G37*
X24663014Y-10236020D02*
X24651806Y-10264536D01*
X24649884Y-10267329D01*
X24636270Y-10283655D01*
X24621427Y-10295495D01*
X24602462Y-10303559D01*
X24576484Y-10308555D01*
X24540601Y-10311193D01*
X24491922Y-10312181D01*
X24466550Y-10312275D01*
X24341667Y-10312400D01*
X24341667Y-10279239D01*
X24344168Y-10256512D01*
X24350517Y-10243243D01*
X24352250Y-10242197D01*
X24358588Y-10236544D01*
X24352250Y-10227099D01*
X24345478Y-10210633D01*
X24342468Y-10183637D01*
X24343098Y-10152063D01*
X24347244Y-10121861D01*
X24354781Y-10098982D01*
X24354920Y-10098723D01*
X24378907Y-10070834D01*
X24411702Y-10054777D01*
X24444662Y-10052100D01*
X24444662Y-10117667D01*
X24425600Y-10123120D01*
X24414227Y-10140634D01*
X24409609Y-10171939D01*
X24409400Y-10183070D01*
X24410260Y-10209871D01*
X24414215Y-10224834D01*
X24423327Y-10233022D01*
X24431118Y-10236410D01*
X24455393Y-10244051D01*
X24469260Y-10242239D01*
X24475558Y-10228577D01*
X24477127Y-10200664D01*
X24477133Y-10197544D01*
X24474018Y-10155482D01*
X24464633Y-10129026D01*
X24448917Y-10118027D01*
X24444662Y-10117667D01*
X24444662Y-10052100D01*
X24448933Y-10051752D01*
X24485877Y-10062777D01*
X24510915Y-10082094D01*
X24526959Y-10110755D01*
X24534998Y-10151152D01*
X24536400Y-10184980D01*
X24536851Y-10216259D01*
X24538885Y-10234224D01*
X24543528Y-10242483D01*
X24551802Y-10244645D01*
X24553333Y-10244667D01*
X24576616Y-10237295D01*
X24593574Y-10218207D01*
X24602620Y-10191942D01*
X24602170Y-10163040D01*
X24591064Y-10136641D01*
X24583418Y-10123003D01*
X24584726Y-10111062D01*
X24595935Y-10093718D01*
X24596993Y-10092284D01*
X24612567Y-10074593D01*
X24625428Y-10071211D01*
X24639708Y-10082393D01*
X24650185Y-10095538D01*
X24662064Y-10122254D01*
X24668154Y-10158695D01*
X24668468Y-10198678D01*
X24663014Y-10236020D01*
G36*
X24663650Y-10561409D02*
X24654661Y-10582992D01*
X24644168Y-10590284D01*
X24628121Y-10584262D01*
X24612798Y-10573674D01*
X24597960Y-10560973D01*
X24591704Y-10547798D01*
X24591735Y-10527418D01*
X24593010Y-10515613D01*
X24594409Y-10491372D01*
X24590606Y-10473654D01*
X24579489Y-10461461D01*
X24558947Y-10453793D01*
X24526869Y-10449652D01*
X24481144Y-10448039D01*
X24449850Y-10447867D01*
X24341667Y-10447867D01*
X24341667Y-10371667D01*
X24501122Y-10371667D01*
X24551301Y-10371859D01*
X24595406Y-10372393D01*
X24630743Y-10373207D01*
X24654615Y-10374239D01*
X24664328Y-10375424D01*
X24664371Y-10375460D01*
X24666023Y-10385493D01*
X24665520Y-10405914D01*
X24664893Y-10413560D01*
X24660021Y-10437992D01*
X24651029Y-10447575D01*
X24648499Y-10447867D01*
X24640197Y-10449458D01*
X24643789Y-10456935D01*
X24649287Y-10463239D01*
X24664864Y-10491961D01*
X24669464Y-10528126D01*
X24663650Y-10561409D01*
X24663650Y-10561409D01*
G37*
X24663650Y-10561409D02*
X24654661Y-10582992D01*
X24644168Y-10590284D01*
X24628121Y-10584262D01*
X24612798Y-10573674D01*
X24597960Y-10560973D01*
X24591704Y-10547798D01*
X24591735Y-10527418D01*
X24593010Y-10515613D01*
X24594409Y-10491372D01*
X24590606Y-10473654D01*
X24579489Y-10461461D01*
X24558947Y-10453793D01*
X24526869Y-10449652D01*
X24481144Y-10448039D01*
X24449850Y-10447867D01*
X24341667Y-10447867D01*
X24341667Y-10371667D01*
X24501122Y-10371667D01*
X24551301Y-10371859D01*
X24595406Y-10372393D01*
X24630743Y-10373207D01*
X24654615Y-10374239D01*
X24664328Y-10375424D01*
X24664371Y-10375460D01*
X24666023Y-10385493D01*
X24665520Y-10405914D01*
X24664893Y-10413560D01*
X24660021Y-10437992D01*
X24651029Y-10447575D01*
X24648499Y-10447867D01*
X24640197Y-10449458D01*
X24643789Y-10456935D01*
X24649287Y-10463239D01*
X24664864Y-10491961D01*
X24669464Y-10528126D01*
X24663650Y-10561409D01*
G36*
X24664389Y-10757479D02*
X24653763Y-10784175D01*
X24630397Y-10819248D01*
X24599567Y-10842658D01*
X24558156Y-10856293D01*
X24527886Y-10860483D01*
X24477133Y-10865085D01*
X24477133Y-10761739D01*
X24477045Y-10718532D01*
X24476435Y-10689610D01*
X24474789Y-10672326D01*
X24471590Y-10664031D01*
X24466323Y-10662078D01*
X24458471Y-10663819D01*
X24458083Y-10663932D01*
X24432402Y-10679348D01*
X24415537Y-10705121D01*
X24408920Y-10736366D01*
X24413984Y-10768202D01*
X24422655Y-10784757D01*
X24430448Y-10798489D01*
X24429126Y-10810134D01*
X24417661Y-10826783D01*
X24416305Y-10828506D01*
X24402483Y-10844757D01*
X24393216Y-10853399D01*
X24392242Y-10853798D01*
X24385499Y-10847608D01*
X24373189Y-10831278D01*
X24364725Y-10818705D01*
X24349687Y-10790683D01*
X24343117Y-10762450D01*
X24342204Y-10736155D01*
X24343751Y-10706592D01*
X24347133Y-10681902D01*
X24349790Y-10672234D01*
X24372502Y-10638797D01*
X24407994Y-10613232D01*
X24453343Y-10597077D01*
X24502478Y-10591847D01*
X24536400Y-10595560D01*
X24536400Y-10660414D01*
X24536400Y-10723474D01*
X24537036Y-10756643D01*
X24539380Y-10776074D01*
X24544089Y-10784930D01*
X24549485Y-10786534D01*
X24564036Y-10780910D01*
X24581845Y-10767226D01*
X24583352Y-10765752D01*
X24600835Y-10738793D01*
X24602880Y-10711366D01*
X24590314Y-10687206D01*
X24563967Y-10670052D01*
X24561979Y-10669331D01*
X24536400Y-10660414D01*
X24536400Y-10595560D01*
X24557726Y-10597895D01*
X24603412Y-10614782D01*
X24638229Y-10640846D01*
X24660869Y-10674425D01*
X24670025Y-10713857D01*
X24664389Y-10757479D01*
X24664389Y-10757479D01*
G37*
X24664389Y-10757479D02*
X24653763Y-10784175D01*
X24630397Y-10819248D01*
X24599567Y-10842658D01*
X24558156Y-10856293D01*
X24527886Y-10860483D01*
X24477133Y-10865085D01*
X24477133Y-10761739D01*
X24477045Y-10718532D01*
X24476435Y-10689610D01*
X24474789Y-10672326D01*
X24471590Y-10664031D01*
X24466323Y-10662078D01*
X24458471Y-10663819D01*
X24458083Y-10663932D01*
X24432402Y-10679348D01*
X24415537Y-10705121D01*
X24408920Y-10736366D01*
X24413984Y-10768202D01*
X24422655Y-10784757D01*
X24430448Y-10798489D01*
X24429126Y-10810134D01*
X24417661Y-10826783D01*
X24416305Y-10828506D01*
X24402483Y-10844757D01*
X24393216Y-10853399D01*
X24392242Y-10853798D01*
X24385499Y-10847608D01*
X24373189Y-10831278D01*
X24364725Y-10818705D01*
X24349687Y-10790683D01*
X24343117Y-10762450D01*
X24342204Y-10736155D01*
X24343751Y-10706592D01*
X24347133Y-10681902D01*
X24349790Y-10672234D01*
X24372502Y-10638797D01*
X24407994Y-10613232D01*
X24453343Y-10597077D01*
X24502478Y-10591847D01*
X24536400Y-10595560D01*
X24536400Y-10660414D01*
X24536400Y-10723474D01*
X24537036Y-10756643D01*
X24539380Y-10776074D01*
X24544089Y-10784930D01*
X24549485Y-10786534D01*
X24564036Y-10780910D01*
X24581845Y-10767226D01*
X24583352Y-10765752D01*
X24600835Y-10738793D01*
X24602880Y-10711366D01*
X24590314Y-10687206D01*
X24563967Y-10670052D01*
X24561979Y-10669331D01*
X24536400Y-10660414D01*
X24536400Y-10595560D01*
X24557726Y-10597895D01*
X24603412Y-10614782D01*
X24638229Y-10640846D01*
X24660869Y-10674425D01*
X24670025Y-10713857D01*
X24664389Y-10757479D01*
G36*
X24354367Y-8788400D02*
X24350134Y-8784167D01*
X24354367Y-8779934D01*
X24358600Y-8784167D01*
X24354367Y-8788400D01*
X24354367Y-8788400D01*
G37*
X24354367Y-8788400D02*
X24350134Y-8784167D01*
X24354367Y-8779934D01*
X24358600Y-8784167D01*
X24354367Y-8788400D01*
G36*
X25168687Y-8306372D02*
X25156067Y-8346015D01*
X25131175Y-8380460D01*
X25113191Y-8395217D01*
X25096344Y-8405301D01*
X25078936Y-8411477D01*
X25056176Y-8414668D01*
X25023271Y-8415790D01*
X25005587Y-8415867D01*
X24966601Y-8415269D01*
X24939810Y-8412908D01*
X24920500Y-8407926D01*
X24903957Y-8399471D01*
X24899602Y-8396648D01*
X24868884Y-8366756D01*
X24849016Y-8327983D01*
X24841054Y-8284955D01*
X24846053Y-8242296D01*
X24858088Y-8214706D01*
X24880020Y-8186399D01*
X24907112Y-8167759D01*
X24942838Y-8157295D01*
X24990669Y-8153517D01*
X25000787Y-8153432D01*
X25011641Y-8153923D01*
X25011641Y-8221133D01*
X24966147Y-8224905D01*
X24935214Y-8236384D01*
X24918205Y-8255813D01*
X24917710Y-8256994D01*
X24910892Y-8276424D01*
X24911026Y-8290279D01*
X24918233Y-8308480D01*
X24918334Y-8308701D01*
X24938027Y-8332077D01*
X24970950Y-8345109D01*
X25004582Y-8348018D01*
X25042819Y-8345723D01*
X25068384Y-8338131D01*
X25085110Y-8323733D01*
X25091130Y-8313951D01*
X25098801Y-8290681D01*
X25094918Y-8266354D01*
X25094134Y-8264048D01*
X25082193Y-8241231D01*
X25063520Y-8227834D01*
X25034375Y-8221911D01*
X25011641Y-8221133D01*
X25011641Y-8153923D01*
X25052958Y-8155795D01*
X25090017Y-8163046D01*
X25100437Y-8167144D01*
X25134910Y-8191916D01*
X25157909Y-8225756D01*
X25169235Y-8265096D01*
X25168687Y-8306372D01*
X25168687Y-8306372D01*
G37*
X25168687Y-8306372D02*
X25156067Y-8346015D01*
X25131175Y-8380460D01*
X25113191Y-8395217D01*
X25096344Y-8405301D01*
X25078936Y-8411477D01*
X25056176Y-8414668D01*
X25023271Y-8415790D01*
X25005587Y-8415867D01*
X24966601Y-8415269D01*
X24939810Y-8412908D01*
X24920500Y-8407926D01*
X24903957Y-8399471D01*
X24899602Y-8396648D01*
X24868884Y-8366756D01*
X24849016Y-8327983D01*
X24841054Y-8284955D01*
X24846053Y-8242296D01*
X24858088Y-8214706D01*
X24880020Y-8186399D01*
X24907112Y-8167759D01*
X24942838Y-8157295D01*
X24990669Y-8153517D01*
X25000787Y-8153432D01*
X25011641Y-8153923D01*
X25011641Y-8221133D01*
X24966147Y-8224905D01*
X24935214Y-8236384D01*
X24918205Y-8255813D01*
X24917710Y-8256994D01*
X24910892Y-8276424D01*
X24911026Y-8290279D01*
X24918233Y-8308480D01*
X24918334Y-8308701D01*
X24938027Y-8332077D01*
X24970950Y-8345109D01*
X25004582Y-8348018D01*
X25042819Y-8345723D01*
X25068384Y-8338131D01*
X25085110Y-8323733D01*
X25091130Y-8313951D01*
X25098801Y-8290681D01*
X25094918Y-8266354D01*
X25094134Y-8264048D01*
X25082193Y-8241231D01*
X25063520Y-8227834D01*
X25034375Y-8221911D01*
X25011641Y-8221133D01*
X25011641Y-8153923D01*
X25052958Y-8155795D01*
X25090017Y-8163046D01*
X25100437Y-8167144D01*
X25134910Y-8191916D01*
X25157909Y-8225756D01*
X25169235Y-8265096D01*
X25168687Y-8306372D01*
G36*
X25160773Y-8946994D02*
X25141521Y-8984587D01*
X25109303Y-9011352D01*
X25064011Y-9027397D01*
X25032718Y-9031753D01*
X24976667Y-9036252D01*
X24976667Y-8831153D01*
X24954073Y-8839743D01*
X24933139Y-8851290D01*
X24920476Y-8862816D01*
X24911366Y-8886111D01*
X24910036Y-8916188D01*
X24916339Y-8944865D01*
X24922161Y-8955918D01*
X24930020Y-8969837D01*
X24928821Y-8981920D01*
X24917761Y-8999560D01*
X24917352Y-9000135D01*
X24904119Y-9016711D01*
X24894593Y-9025139D01*
X24893540Y-9025409D01*
X24885688Y-9019007D01*
X24872727Y-9002963D01*
X24866937Y-8994772D01*
X24849574Y-8957640D01*
X24841800Y-8914985D01*
X24843884Y-8872722D01*
X24856091Y-8836763D01*
X24859537Y-8831191D01*
X24885394Y-8800765D01*
X24916088Y-8781035D01*
X24955309Y-8770394D01*
X25006300Y-8767234D01*
X25052867Y-8771162D01*
X25052867Y-8839200D01*
X25043968Y-8840799D01*
X25038870Y-8848010D01*
X25036538Y-8864453D01*
X25035938Y-8893749D01*
X25035933Y-8898467D01*
X25036390Y-8929613D01*
X25038451Y-8947457D01*
X25043149Y-8955618D01*
X25051519Y-8957717D01*
X25052867Y-8957733D01*
X25075255Y-8950163D01*
X25093548Y-8931020D01*
X25103157Y-8905660D01*
X25103667Y-8898467D01*
X25097178Y-8872348D01*
X25080770Y-8851006D01*
X25059032Y-8839795D01*
X25052867Y-8839200D01*
X25052867Y-8771162D01*
X25064661Y-8772157D01*
X25109550Y-8787133D01*
X25141343Y-8812467D01*
X25160417Y-8848468D01*
X25167147Y-8895441D01*
X25167167Y-8898467D01*
X25160773Y-8946994D01*
X25160773Y-8946994D01*
G37*
X25160773Y-8946994D02*
X25141521Y-8984587D01*
X25109303Y-9011352D01*
X25064011Y-9027397D01*
X25032718Y-9031753D01*
X24976667Y-9036252D01*
X24976667Y-8831153D01*
X24954073Y-8839743D01*
X24933139Y-8851290D01*
X24920476Y-8862816D01*
X24911366Y-8886111D01*
X24910036Y-8916188D01*
X24916339Y-8944865D01*
X24922161Y-8955918D01*
X24930020Y-8969837D01*
X24928821Y-8981920D01*
X24917761Y-8999560D01*
X24917352Y-9000135D01*
X24904119Y-9016711D01*
X24894593Y-9025139D01*
X24893540Y-9025409D01*
X24885688Y-9019007D01*
X24872727Y-9002963D01*
X24866937Y-8994772D01*
X24849574Y-8957640D01*
X24841800Y-8914985D01*
X24843884Y-8872722D01*
X24856091Y-8836763D01*
X24859537Y-8831191D01*
X24885394Y-8800765D01*
X24916088Y-8781035D01*
X24955309Y-8770394D01*
X25006300Y-8767234D01*
X25052867Y-8771162D01*
X25052867Y-8839200D01*
X25043968Y-8840799D01*
X25038870Y-8848010D01*
X25036538Y-8864453D01*
X25035938Y-8893749D01*
X25035933Y-8898467D01*
X25036390Y-8929613D01*
X25038451Y-8947457D01*
X25043149Y-8955618D01*
X25051519Y-8957717D01*
X25052867Y-8957733D01*
X25075255Y-8950163D01*
X25093548Y-8931020D01*
X25103157Y-8905660D01*
X25103667Y-8898467D01*
X25097178Y-8872348D01*
X25080770Y-8851006D01*
X25059032Y-8839795D01*
X25052867Y-8839200D01*
X25052867Y-8771162D01*
X25064661Y-8772157D01*
X25109550Y-8787133D01*
X25141343Y-8812467D01*
X25160417Y-8848468D01*
X25167147Y-8895441D01*
X25167167Y-8898467D01*
X25160773Y-8946994D01*
G36*
X25166457Y-9258740D02*
X25154810Y-9285406D01*
X25141436Y-9304273D01*
X25125870Y-9318104D01*
X25105334Y-9327694D01*
X25077054Y-9333842D01*
X25038254Y-9337344D01*
X24986157Y-9338998D01*
X24967298Y-9339255D01*
X24845433Y-9340598D01*
X24840227Y-9271000D01*
X24949842Y-9271000D01*
X25003942Y-9270152D01*
X25043359Y-9267024D01*
X25070282Y-9260738D01*
X25086904Y-9250420D01*
X25095414Y-9235193D01*
X25098005Y-9214179D01*
X25098022Y-9211734D01*
X25095889Y-9190061D01*
X25088025Y-9174279D01*
X25072240Y-9163510D01*
X25046341Y-9156872D01*
X25008135Y-9153486D01*
X24955430Y-9152472D01*
X24950329Y-9152467D01*
X24841200Y-9152467D01*
X24841200Y-9118334D01*
X24843760Y-9094450D01*
X24850432Y-9080984D01*
X24852068Y-9080032D01*
X24863714Y-9078812D01*
X24889355Y-9077994D01*
X24926058Y-9077609D01*
X24970888Y-9077691D01*
X25015051Y-9078181D01*
X25167167Y-9080500D01*
X25169799Y-9112318D01*
X25169071Y-9136716D01*
X25161087Y-9148376D01*
X25159425Y-9149127D01*
X25151364Y-9154423D01*
X25152319Y-9164368D01*
X25158910Y-9178272D01*
X25170311Y-9217754D01*
X25166457Y-9258740D01*
X25166457Y-9258740D01*
G37*
X25166457Y-9258740D02*
X25154810Y-9285406D01*
X25141436Y-9304273D01*
X25125870Y-9318104D01*
X25105334Y-9327694D01*
X25077054Y-9333842D01*
X25038254Y-9337344D01*
X24986157Y-9338998D01*
X24967298Y-9339255D01*
X24845433Y-9340598D01*
X24840227Y-9271000D01*
X24949842Y-9271000D01*
X25003942Y-9270152D01*
X25043359Y-9267024D01*
X25070282Y-9260738D01*
X25086904Y-9250420D01*
X25095414Y-9235193D01*
X25098005Y-9214179D01*
X25098022Y-9211734D01*
X25095889Y-9190061D01*
X25088025Y-9174279D01*
X25072240Y-9163510D01*
X25046341Y-9156872D01*
X25008135Y-9153486D01*
X24955430Y-9152472D01*
X24950329Y-9152467D01*
X24841200Y-9152467D01*
X24841200Y-9118334D01*
X24843760Y-9094450D01*
X24850432Y-9080984D01*
X24852068Y-9080032D01*
X24863714Y-9078812D01*
X24889355Y-9077994D01*
X24926058Y-9077609D01*
X24970888Y-9077691D01*
X25015051Y-9078181D01*
X25167167Y-9080500D01*
X25169799Y-9112318D01*
X25169071Y-9136716D01*
X25161087Y-9148376D01*
X25159425Y-9149127D01*
X25151364Y-9154423D01*
X25152319Y-9164368D01*
X25158910Y-9178272D01*
X25170311Y-9217754D01*
X25166457Y-9258740D01*
G36*
X25163970Y-9708797D02*
X25147011Y-9749028D01*
X25139227Y-9760348D01*
X25124160Y-9779796D01*
X25099476Y-9758586D01*
X25074793Y-9737376D01*
X25089230Y-9707101D01*
X25101184Y-9672156D01*
X25103290Y-9641089D01*
X25096165Y-9617072D01*
X25080423Y-9603280D01*
X25068677Y-9601200D01*
X25059171Y-9603315D01*
X25052401Y-9611691D01*
X25047262Y-9629374D01*
X25042648Y-9659411D01*
X25040240Y-9679604D01*
X25029072Y-9724954D01*
X25008266Y-9758404D01*
X24979503Y-9778755D01*
X24944462Y-9784807D01*
X24905645Y-9775707D01*
X24877179Y-9755210D01*
X24856364Y-9722993D01*
X24844100Y-9682866D01*
X24841289Y-9638637D01*
X24848830Y-9594116D01*
X24857395Y-9571567D01*
X24870462Y-9546172D01*
X24883413Y-9524852D01*
X24886373Y-9520767D01*
X24895540Y-9510459D01*
X24903574Y-9509946D01*
X24915992Y-9520154D01*
X24922854Y-9526883D01*
X24946181Y-9549933D01*
X24927557Y-9583069D01*
X24914648Y-9614689D01*
X24909531Y-9646705D01*
X24911642Y-9675550D01*
X24920419Y-9697660D01*
X24935299Y-9709468D01*
X24947593Y-9710005D01*
X24958852Y-9703251D01*
X24966549Y-9685761D01*
X24970904Y-9664634D01*
X24979224Y-9619011D01*
X24987541Y-9586916D01*
X24997227Y-9565000D01*
X25009656Y-9549914D01*
X25021578Y-9541084D01*
X25054311Y-9529075D01*
X25090038Y-9529163D01*
X25122040Y-9540951D01*
X25130893Y-9547566D01*
X25153932Y-9578574D01*
X25167247Y-9618897D01*
X25170654Y-9663863D01*
X25163970Y-9708797D01*
X25163970Y-9708797D01*
G37*
X25163970Y-9708797D02*
X25147011Y-9749028D01*
X25139227Y-9760348D01*
X25124160Y-9779796D01*
X25099476Y-9758586D01*
X25074793Y-9737376D01*
X25089230Y-9707101D01*
X25101184Y-9672156D01*
X25103290Y-9641089D01*
X25096165Y-9617072D01*
X25080423Y-9603280D01*
X25068677Y-9601200D01*
X25059171Y-9603315D01*
X25052401Y-9611691D01*
X25047262Y-9629374D01*
X25042648Y-9659411D01*
X25040240Y-9679604D01*
X25029072Y-9724954D01*
X25008266Y-9758404D01*
X24979503Y-9778755D01*
X24944462Y-9784807D01*
X24905645Y-9775707D01*
X24877179Y-9755210D01*
X24856364Y-9722993D01*
X24844100Y-9682866D01*
X24841289Y-9638637D01*
X24848830Y-9594116D01*
X24857395Y-9571567D01*
X24870462Y-9546172D01*
X24883413Y-9524852D01*
X24886373Y-9520767D01*
X24895540Y-9510459D01*
X24903574Y-9509946D01*
X24915992Y-9520154D01*
X24922854Y-9526883D01*
X24946181Y-9549933D01*
X24927557Y-9583069D01*
X24914648Y-9614689D01*
X24909531Y-9646705D01*
X24911642Y-9675550D01*
X24920419Y-9697660D01*
X24935299Y-9709468D01*
X24947593Y-9710005D01*
X24958852Y-9703251D01*
X24966549Y-9685761D01*
X24970904Y-9664634D01*
X24979224Y-9619011D01*
X24987541Y-9586916D01*
X24997227Y-9565000D01*
X25009656Y-9549914D01*
X25021578Y-9541084D01*
X25054311Y-9529075D01*
X25090038Y-9529163D01*
X25122040Y-9540951D01*
X25130893Y-9547566D01*
X25153932Y-9578574D01*
X25167247Y-9618897D01*
X25170654Y-9663863D01*
X25163970Y-9708797D01*
G36*
X25169902Y-9952566D02*
X25169486Y-9959011D01*
X25165797Y-9989993D01*
X25158008Y-10011613D01*
X25143026Y-10031414D01*
X25137284Y-10037491D01*
X25104197Y-10063219D01*
X25063965Y-10078046D01*
X25013656Y-10082818D01*
X24983822Y-10081698D01*
X24929577Y-10072400D01*
X24888658Y-10052995D01*
X24860637Y-10023255D01*
X24854802Y-10012537D01*
X24842827Y-9971509D01*
X24842821Y-9928647D01*
X24854524Y-9890206D01*
X24860250Y-9880514D01*
X24881636Y-9852582D01*
X24903321Y-9834116D01*
X24929544Y-9823276D01*
X24964544Y-9818223D01*
X25005602Y-9817120D01*
X25005602Y-9889067D01*
X24972987Y-9889608D01*
X24952502Y-9892133D01*
X24939356Y-9897991D01*
X24928757Y-9908535D01*
X24926481Y-9911375D01*
X24912313Y-9933688D01*
X24910355Y-9953686D01*
X24918685Y-9977406D01*
X24931532Y-9995259D01*
X24944489Y-10003903D01*
X24969058Y-10008150D01*
X25001060Y-10009262D01*
X25033617Y-10007473D01*
X25059851Y-10003014D01*
X25068706Y-9999719D01*
X25087841Y-9981919D01*
X25098642Y-9957275D01*
X25097909Y-9933590D01*
X25087359Y-9911669D01*
X25072139Y-9898177D01*
X25048422Y-9891269D01*
X25012381Y-9889098D01*
X25005602Y-9889067D01*
X25005602Y-9817120D01*
X25006317Y-9817100D01*
X25052498Y-9818538D01*
X25086182Y-9824104D01*
X25111655Y-9835673D01*
X25133204Y-9855125D01*
X25153099Y-9881379D01*
X25164864Y-9902018D01*
X25169948Y-9923299D01*
X25169902Y-9952566D01*
X25169902Y-9952566D01*
G37*
X25169902Y-9952566D02*
X25169486Y-9959011D01*
X25165797Y-9989993D01*
X25158008Y-10011613D01*
X25143026Y-10031414D01*
X25137284Y-10037491D01*
X25104197Y-10063219D01*
X25063965Y-10078046D01*
X25013656Y-10082818D01*
X24983822Y-10081698D01*
X24929577Y-10072400D01*
X24888658Y-10052995D01*
X24860637Y-10023255D01*
X24854802Y-10012537D01*
X24842827Y-9971509D01*
X24842821Y-9928647D01*
X24854524Y-9890206D01*
X24860250Y-9880514D01*
X24881636Y-9852582D01*
X24903321Y-9834116D01*
X24929544Y-9823276D01*
X24964544Y-9818223D01*
X25005602Y-9817120D01*
X25005602Y-9889067D01*
X24972987Y-9889608D01*
X24952502Y-9892133D01*
X24939356Y-9897991D01*
X24928757Y-9908535D01*
X24926481Y-9911375D01*
X24912313Y-9933688D01*
X24910355Y-9953686D01*
X24918685Y-9977406D01*
X24931532Y-9995259D01*
X24944489Y-10003903D01*
X24969058Y-10008150D01*
X25001060Y-10009262D01*
X25033617Y-10007473D01*
X25059851Y-10003014D01*
X25068706Y-9999719D01*
X25087841Y-9981919D01*
X25098642Y-9957275D01*
X25097909Y-9933590D01*
X25087359Y-9911669D01*
X25072139Y-9898177D01*
X25048422Y-9891269D01*
X25012381Y-9889098D01*
X25005602Y-9889067D01*
X25005602Y-9817120D01*
X25006317Y-9817100D01*
X25052498Y-9818538D01*
X25086182Y-9824104D01*
X25111655Y-9835673D01*
X25133204Y-9855125D01*
X25153099Y-9881379D01*
X25164864Y-9902018D01*
X25169948Y-9923299D01*
X25169902Y-9952566D01*
G36*
X25169770Y-10355182D02*
X25167167Y-10389497D01*
X24845433Y-10389497D01*
X24842830Y-10355182D01*
X24842619Y-10332419D01*
X24847391Y-10322372D01*
X24853631Y-10320867D01*
X24861908Y-10319250D01*
X24861515Y-10311407D01*
X24854118Y-10295887D01*
X24843447Y-10261032D01*
X24843016Y-10222857D01*
X24852730Y-10189161D01*
X24855456Y-10184323D01*
X24869588Y-10164850D01*
X24886078Y-10150642D01*
X24907720Y-10140905D01*
X24937308Y-10134841D01*
X24977634Y-10131657D01*
X25031493Y-10130556D01*
X25044400Y-10130515D01*
X25167167Y-10130367D01*
X25169770Y-10166350D01*
X25172374Y-10202334D01*
X25061435Y-10202334D01*
X25016016Y-10202488D01*
X24984292Y-10203293D01*
X24963026Y-10205258D01*
X24948981Y-10208895D01*
X24938920Y-10214714D01*
X24929715Y-10223115D01*
X24915400Y-10242330D01*
X24908961Y-10260653D01*
X24908933Y-10261600D01*
X24914685Y-10279546D01*
X24928636Y-10298982D01*
X24929715Y-10300085D01*
X24939021Y-10308564D01*
X24949108Y-10314356D01*
X24963214Y-10317972D01*
X24984578Y-10319922D01*
X25016435Y-10320716D01*
X25061435Y-10320867D01*
X25172374Y-10320867D01*
X25169770Y-10355182D01*
X25169770Y-10355182D01*
G37*
X25169770Y-10355182D02*
X25167167Y-10389497D01*
X24845433Y-10389497D01*
X24842830Y-10355182D01*
X24842619Y-10332419D01*
X24847391Y-10322372D01*
X24853631Y-10320867D01*
X24861908Y-10319250D01*
X24861515Y-10311407D01*
X24854118Y-10295887D01*
X24843447Y-10261032D01*
X24843016Y-10222857D01*
X24852730Y-10189161D01*
X24855456Y-10184323D01*
X24869588Y-10164850D01*
X24886078Y-10150642D01*
X24907720Y-10140905D01*
X24937308Y-10134841D01*
X24977634Y-10131657D01*
X25031493Y-10130556D01*
X25044400Y-10130515D01*
X25167167Y-10130367D01*
X25169770Y-10166350D01*
X25172374Y-10202334D01*
X25061435Y-10202334D01*
X25016016Y-10202488D01*
X24984292Y-10203293D01*
X24963026Y-10205258D01*
X24948981Y-10208895D01*
X24938920Y-10214714D01*
X24929715Y-10223115D01*
X24915400Y-10242330D01*
X24908961Y-10260653D01*
X24908933Y-10261600D01*
X24914685Y-10279546D01*
X24928636Y-10298982D01*
X24929715Y-10300085D01*
X24939021Y-10308564D01*
X24949108Y-10314356D01*
X24963214Y-10317972D01*
X24984578Y-10319922D01*
X25016435Y-10320716D01*
X25061435Y-10320867D01*
X25172374Y-10320867D01*
X25169770Y-10355182D01*
G36*
X25170083Y-10512206D02*
X25164482Y-10521963D01*
X25153155Y-10524067D01*
X25140833Y-10524858D01*
X25140922Y-10530071D01*
X25151038Y-10541889D01*
X25161454Y-10562504D01*
X25166897Y-10591644D01*
X25167184Y-10622816D01*
X25162130Y-10649531D01*
X25154467Y-10662996D01*
X25144981Y-10669517D01*
X25134219Y-10667413D01*
X25117184Y-10655313D01*
X25112484Y-10651492D01*
X25094705Y-10635597D01*
X25088289Y-10623952D01*
X25090870Y-10610891D01*
X25093237Y-10605427D01*
X25098197Y-10576791D01*
X25089089Y-10550197D01*
X25069952Y-10532615D01*
X25053179Y-10528522D01*
X25022307Y-10525777D01*
X24980133Y-10524564D01*
X24948897Y-10524671D01*
X24845433Y-10526142D01*
X24840227Y-10456334D01*
X25171400Y-10456334D01*
X25171400Y-10490200D01*
X25170083Y-10512206D01*
X25170083Y-10512206D01*
G37*
X25170083Y-10512206D02*
X25164482Y-10521963D01*
X25153155Y-10524067D01*
X25140833Y-10524858D01*
X25140922Y-10530071D01*
X25151038Y-10541889D01*
X25161454Y-10562504D01*
X25166897Y-10591644D01*
X25167184Y-10622816D01*
X25162130Y-10649531D01*
X25154467Y-10662996D01*
X25144981Y-10669517D01*
X25134219Y-10667413D01*
X25117184Y-10655313D01*
X25112484Y-10651492D01*
X25094705Y-10635597D01*
X25088289Y-10623952D01*
X25090870Y-10610891D01*
X25093237Y-10605427D01*
X25098197Y-10576791D01*
X25089089Y-10550197D01*
X25069952Y-10532615D01*
X25053179Y-10528522D01*
X25022307Y-10525777D01*
X24980133Y-10524564D01*
X24948897Y-10524671D01*
X24845433Y-10526142D01*
X24840227Y-10456334D01*
X25171400Y-10456334D01*
X25171400Y-10490200D01*
X25170083Y-10512206D01*
G36*
X25168804Y-10834643D02*
X25155431Y-10875457D01*
X25129914Y-10908786D01*
X25116886Y-10919156D01*
X25107399Y-10919203D01*
X25094447Y-10908150D01*
X25090719Y-10904434D01*
X25069948Y-10883663D01*
X25087212Y-10848768D01*
X25098659Y-10811541D01*
X25094813Y-10779862D01*
X25076889Y-10755502D01*
X25046101Y-10740237D01*
X25009790Y-10735734D01*
X24968603Y-10739174D01*
X24940435Y-10750473D01*
X24922623Y-10771100D01*
X24916152Y-10787362D01*
X24911141Y-10810249D01*
X24913863Y-10828602D01*
X24925231Y-10850857D01*
X24943869Y-10882446D01*
X24922489Y-10903826D01*
X24907717Y-10917547D01*
X24898090Y-10920079D01*
X24886847Y-10912276D01*
X24882988Y-10908806D01*
X24857458Y-10875008D01*
X24843426Y-10833009D01*
X24841952Y-10787944D01*
X24850712Y-10752671D01*
X24875039Y-10712690D01*
X24911264Y-10684673D01*
X24959195Y-10668729D01*
X25006300Y-10664740D01*
X25054920Y-10668120D01*
X25092370Y-10679378D01*
X25123239Y-10700186D01*
X25134853Y-10711646D01*
X25158626Y-10748309D01*
X25169906Y-10790784D01*
X25168804Y-10834643D01*
X25168804Y-10834643D01*
G37*
X25168804Y-10834643D02*
X25155431Y-10875457D01*
X25129914Y-10908786D01*
X25116886Y-10919156D01*
X25107399Y-10919203D01*
X25094447Y-10908150D01*
X25090719Y-10904434D01*
X25069948Y-10883663D01*
X25087212Y-10848768D01*
X25098659Y-10811541D01*
X25094813Y-10779862D01*
X25076889Y-10755502D01*
X25046101Y-10740237D01*
X25009790Y-10735734D01*
X24968603Y-10739174D01*
X24940435Y-10750473D01*
X24922623Y-10771100D01*
X24916152Y-10787362D01*
X24911141Y-10810249D01*
X24913863Y-10828602D01*
X24925231Y-10850857D01*
X24943869Y-10882446D01*
X24922489Y-10903826D01*
X24907717Y-10917547D01*
X24898090Y-10920079D01*
X24886847Y-10912276D01*
X24882988Y-10908806D01*
X24857458Y-10875008D01*
X24843426Y-10833009D01*
X24841952Y-10787944D01*
X24850712Y-10752671D01*
X24875039Y-10712690D01*
X24911264Y-10684673D01*
X24959195Y-10668729D01*
X25006300Y-10664740D01*
X25054920Y-10668120D01*
X25092370Y-10679378D01*
X25123239Y-10700186D01*
X25134853Y-10711646D01*
X25158626Y-10748309D01*
X25169906Y-10790784D01*
X25168804Y-10834643D01*
G36*
X25169452Y-11079409D02*
X25158968Y-11126942D01*
X25136154Y-11162903D01*
X25101153Y-11187171D01*
X25054110Y-11199627D01*
X25023505Y-11201400D01*
X24976667Y-11201400D01*
X24976667Y-11103463D01*
X24976567Y-11061607D01*
X24975896Y-11033973D01*
X24974094Y-11017851D01*
X24970603Y-11010529D01*
X24964863Y-11009297D01*
X24957617Y-11011065D01*
X24930082Y-11026792D01*
X24913820Y-11052592D01*
X24909906Y-11085019D01*
X24919415Y-11120631D01*
X24921866Y-11125649D01*
X24929553Y-11143491D01*
X24928347Y-11156924D01*
X24917286Y-11174339D01*
X24916097Y-11175952D01*
X24903054Y-11191906D01*
X24894005Y-11195570D01*
X24883672Y-11188818D01*
X24882598Y-11187853D01*
X24859150Y-11156108D01*
X24845484Y-11115019D01*
X24842420Y-11069609D01*
X24850776Y-11024901D01*
X24854446Y-11015134D01*
X24869706Y-10991098D01*
X24892038Y-10968640D01*
X24897839Y-10964334D01*
X24914683Y-10954101D01*
X24931737Y-10947794D01*
X24953755Y-10944494D01*
X24985491Y-10943279D01*
X25007176Y-10943167D01*
X25049018Y-10944509D01*
X25049018Y-11006667D01*
X25042156Y-11009716D01*
X25038126Y-11020966D01*
X25036278Y-11043573D01*
X25035933Y-11070167D01*
X25036562Y-11103469D01*
X25038880Y-11123026D01*
X25043538Y-11131993D01*
X25049018Y-11133667D01*
X25067068Y-11126607D01*
X25085497Y-11109304D01*
X25099302Y-11087568D01*
X25103667Y-11070167D01*
X25097592Y-11049193D01*
X25082700Y-11027780D01*
X25063994Y-11011738D01*
X25049018Y-11006667D01*
X25049018Y-10944509D01*
X25053222Y-10944644D01*
X25086815Y-10950345D01*
X25112275Y-10962173D01*
X25133923Y-10982031D01*
X25153104Y-11007445D01*
X25165670Y-11030195D01*
X25170245Y-11053975D01*
X25169452Y-11079409D01*
X25169452Y-11079409D01*
G37*
X25169452Y-11079409D02*
X25158968Y-11126942D01*
X25136154Y-11162903D01*
X25101153Y-11187171D01*
X25054110Y-11199627D01*
X25023505Y-11201400D01*
X24976667Y-11201400D01*
X24976667Y-11103463D01*
X24976567Y-11061607D01*
X24975896Y-11033973D01*
X24974094Y-11017851D01*
X24970603Y-11010529D01*
X24964863Y-11009297D01*
X24957617Y-11011065D01*
X24930082Y-11026792D01*
X24913820Y-11052592D01*
X24909906Y-11085019D01*
X24919415Y-11120631D01*
X24921866Y-11125649D01*
X24929553Y-11143491D01*
X24928347Y-11156924D01*
X24917286Y-11174339D01*
X24916097Y-11175952D01*
X24903054Y-11191906D01*
X24894005Y-11195570D01*
X24883672Y-11188818D01*
X24882598Y-11187853D01*
X24859150Y-11156108D01*
X24845484Y-11115019D01*
X24842420Y-11069609D01*
X24850776Y-11024901D01*
X24854446Y-11015134D01*
X24869706Y-10991098D01*
X24892038Y-10968640D01*
X24897839Y-10964334D01*
X24914683Y-10954101D01*
X24931737Y-10947794D01*
X24953755Y-10944494D01*
X24985491Y-10943279D01*
X25007176Y-10943167D01*
X25049018Y-10944509D01*
X25049018Y-11006667D01*
X25042156Y-11009716D01*
X25038126Y-11020966D01*
X25036278Y-11043573D01*
X25035933Y-11070167D01*
X25036562Y-11103469D01*
X25038880Y-11123026D01*
X25043538Y-11131993D01*
X25049018Y-11133667D01*
X25067068Y-11126607D01*
X25085497Y-11109304D01*
X25099302Y-11087568D01*
X25103667Y-11070167D01*
X25097592Y-11049193D01*
X25082700Y-11027780D01*
X25063994Y-11011738D01*
X25049018Y-11006667D01*
X25049018Y-10944509D01*
X25053222Y-10944644D01*
X25086815Y-10950345D01*
X25112275Y-10962173D01*
X25133923Y-10982031D01*
X25153104Y-11007445D01*
X25165670Y-11030195D01*
X25170245Y-11053975D01*
X25169452Y-11079409D01*
G36*
X25099433Y-10668000D02*
X25095200Y-10663767D01*
X25099433Y-10659534D01*
X25103667Y-10663767D01*
X25099433Y-10668000D01*
X25099433Y-10668000D01*
G37*
X25099433Y-10668000D02*
X25095200Y-10663767D01*
X25099433Y-10659534D01*
X25103667Y-10663767D01*
X25099433Y-10668000D01*
G36*
X27387550Y-9871982D02*
X27338011Y-9881431D01*
X27293982Y-9890559D01*
X27258281Y-9898722D01*
X27233729Y-9905278D01*
X27223249Y-9909475D01*
X27216546Y-9920458D01*
X27205161Y-9943948D01*
X27190587Y-9976688D01*
X27174318Y-10015417D01*
X27171343Y-10022726D01*
X27129223Y-10126751D01*
X27150701Y-10158192D01*
X27196168Y-10224970D01*
X27232616Y-10279028D01*
X27260771Y-10321495D01*
X27281360Y-10353498D01*
X27295110Y-10376165D01*
X27302746Y-10390625D01*
X27305000Y-10397818D01*
X27299202Y-10407663D01*
X27283379Y-10426688D01*
X27259888Y-10452527D01*
X27231085Y-10482817D01*
X27199327Y-10515191D01*
X27166970Y-10547285D01*
X27136370Y-10576733D01*
X27109885Y-10601170D01*
X27089871Y-10618232D01*
X27078684Y-10625554D01*
X27077976Y-10625667D01*
X27067662Y-10621076D01*
X27046029Y-10608370D01*
X27015623Y-10589148D01*
X26978994Y-10565009D01*
X26950042Y-10545377D01*
X26910133Y-10518247D01*
X26874318Y-10494363D01*
X26845248Y-10475457D01*
X26825576Y-10463262D01*
X26818807Y-10459641D01*
X26804406Y-10460466D01*
X26778670Y-10467671D01*
X26745212Y-10479682D01*
X26707648Y-10494925D01*
X26669590Y-10511825D01*
X26634652Y-10528809D01*
X26606449Y-10544302D01*
X26588595Y-10556731D01*
X26584494Y-10561694D01*
X26581262Y-10573684D01*
X26575646Y-10598868D01*
X26568326Y-10633785D01*
X26559979Y-10674976D01*
X26551286Y-10718979D01*
X26542925Y-10762334D01*
X26535574Y-10801581D01*
X26529914Y-10833260D01*
X26526623Y-10853910D01*
X26526067Y-10859468D01*
X26518027Y-10860465D01*
X26495606Y-10861129D01*
X26461356Y-10861437D01*
X26417826Y-10861371D01*
X26367566Y-10860910D01*
X26358882Y-10860796D01*
X26191697Y-10858500D01*
X26184926Y-10824634D01*
X26180807Y-10803811D01*
X26174283Y-10770571D01*
X26166178Y-10729121D01*
X26157314Y-10683665D01*
X26155260Y-10673114D01*
X26132367Y-10555461D01*
X26022300Y-10510433D01*
X25981457Y-10494076D01*
X25945491Y-10480327D01*
X25917650Y-10470382D01*
X25901187Y-10465434D01*
X25898932Y-10465102D01*
X25887786Y-10469582D01*
X25865366Y-10482175D01*
X25834277Y-10501292D01*
X25797125Y-10525346D01*
X25767699Y-10545092D01*
X25727799Y-10571767D01*
X25692109Y-10594710D01*
X25663225Y-10612324D01*
X25643741Y-10623013D01*
X25636945Y-10625525D01*
X25627159Y-10619799D01*
X25608145Y-10604086D01*
X25582274Y-10580732D01*
X25551921Y-10552085D01*
X25519459Y-10520490D01*
X25487262Y-10488294D01*
X25457703Y-10457842D01*
X25433155Y-10431480D01*
X25415993Y-10411555D01*
X25408589Y-10400413D01*
X25408467Y-10399683D01*
X25413068Y-10389736D01*
X25425802Y-10368456D01*
X25445065Y-10338365D01*
X25469255Y-10301984D01*
X25488900Y-10273197D01*
X25515605Y-10234075D01*
X25538560Y-10199690D01*
X25556170Y-10172492D01*
X25566841Y-10154931D01*
X25569333Y-10149601D01*
X25565757Y-10139224D01*
X25556273Y-10117945D01*
X25542750Y-10089905D01*
X25539157Y-10082721D01*
X25525370Y-10054431D01*
X25515615Y-10032639D01*
X25511552Y-10021113D01*
X25511640Y-10020256D01*
X25519937Y-10016388D01*
X25541609Y-10007038D01*
X25574367Y-9993154D01*
X25615921Y-9975687D01*
X25663984Y-9955589D01*
X25716266Y-9933809D01*
X25770478Y-9911297D01*
X25824332Y-9889005D01*
X25875538Y-9867882D01*
X25921809Y-9848878D01*
X25960854Y-9832945D01*
X25990385Y-9821033D01*
X26008114Y-9814091D01*
X26008538Y-9813933D01*
X26031345Y-9806041D01*
X26043763Y-9804698D01*
X26051138Y-9810189D01*
X26055105Y-9816440D01*
X26065020Y-9830668D01*
X26082420Y-9853243D01*
X26103796Y-9879630D01*
X26106967Y-9883443D01*
X26159060Y-9933894D01*
X26217868Y-9970356D01*
X26281172Y-9993044D01*
X26346755Y-10002173D01*
X26412398Y-9997956D01*
X26475883Y-9980609D01*
X26534991Y-9950345D01*
X26587506Y-9907379D01*
X26631209Y-9851925D01*
X26642931Y-9831650D01*
X26669522Y-9764967D01*
X26680719Y-9696080D01*
X26677245Y-9627396D01*
X26659819Y-9561325D01*
X26629160Y-9500273D01*
X26585990Y-9446648D01*
X26531028Y-9402859D01*
X26511268Y-9391423D01*
X26442781Y-9363978D01*
X26372722Y-9352496D01*
X26303189Y-9356410D01*
X26236281Y-9375153D01*
X26174097Y-9408158D01*
X26118735Y-9454857D01*
X26075827Y-9509124D01*
X26059765Y-9531440D01*
X26045908Y-9546428D01*
X26039055Y-9550400D01*
X26028507Y-9547267D01*
X26004865Y-9538520D01*
X25970629Y-9525142D01*
X25928301Y-9508114D01*
X25880383Y-9488417D01*
X25869031Y-9483695D01*
X25813170Y-9460457D01*
X25755747Y-9436662D01*
X25701141Y-9414116D01*
X25653732Y-9394628D01*
X25620134Y-9380914D01*
X25583539Y-9365733D01*
X25552304Y-9352161D01*
X25530068Y-9341817D01*
X25520943Y-9336759D01*
X25517464Y-9328420D01*
X25521072Y-9312251D01*
X25532540Y-9285595D01*
X25540553Y-9269306D01*
X25554256Y-9240047D01*
X25563606Y-9216054D01*
X25566952Y-9201680D01*
X25566722Y-9200249D01*
X25560851Y-9190270D01*
X25547049Y-9168969D01*
X25527035Y-9138938D01*
X25502530Y-9102769D01*
X25485729Y-9078243D01*
X25459545Y-9039548D01*
X25437159Y-9005268D01*
X25420208Y-8978005D01*
X25410326Y-8960359D01*
X25408467Y-8955354D01*
X25414206Y-8946238D01*
X25430142Y-8927399D01*
X25454354Y-8900941D01*
X25484922Y-8868968D01*
X25516535Y-8836961D01*
X25551931Y-8802327D01*
X25583917Y-8772310D01*
X25610337Y-8748833D01*
X25629033Y-8733820D01*
X25637476Y-8729134D01*
X25643917Y-8730521D01*
X25654344Y-8735371D01*
X25670364Y-8744717D01*
X25693581Y-8759591D01*
X25725603Y-8781026D01*
X25768035Y-8810054D01*
X25822483Y-8847709D01*
X25830089Y-8852987D01*
X25856916Y-8870753D01*
X25879111Y-8883895D01*
X25892489Y-8889968D01*
X25893589Y-8890121D01*
X25904799Y-8887215D01*
X25928597Y-8879152D01*
X25961845Y-8867053D01*
X26001405Y-8852040D01*
X26015727Y-8846474D01*
X26055522Y-8831165D01*
X26085550Y-8818924D01*
X26107578Y-8807188D01*
X26123375Y-8793394D01*
X26134709Y-8774980D01*
X26143347Y-8749383D01*
X26151059Y-8714042D01*
X26159611Y-8666392D01*
X26166360Y-8628154D01*
X26174391Y-8584452D01*
X26181707Y-8546687D01*
X26187670Y-8518002D01*
X26191641Y-8501542D01*
X26192558Y-8499037D01*
X26201975Y-8496878D01*
X26225655Y-8494991D01*
X26260930Y-8493487D01*
X26305129Y-8492476D01*
X26355584Y-8492070D01*
X26360530Y-8492067D01*
X26524194Y-8492067D01*
X26550799Y-8633884D01*
X26560053Y-8681996D01*
X26568798Y-8725241D01*
X26576361Y-8760455D01*
X26582069Y-8784473D01*
X26584672Y-8793107D01*
X26595217Y-8803174D01*
X26618120Y-8817178D01*
X26649762Y-8833542D01*
X26686528Y-8850689D01*
X26724801Y-8867045D01*
X26760965Y-8881032D01*
X26791404Y-8891074D01*
X26812501Y-8895595D01*
X26818807Y-8895160D01*
X26830299Y-8888708D01*
X26853050Y-8874331D01*
X26884407Y-8853760D01*
X26921720Y-8828728D01*
X26950042Y-8809424D01*
X26989605Y-8782721D01*
X27024812Y-8759778D01*
X27053109Y-8742195D01*
X27071940Y-8731573D01*
X27078216Y-8729134D01*
X27088274Y-8734992D01*
X27107397Y-8750980D01*
X27133237Y-8774721D01*
X27163445Y-8803835D01*
X27195673Y-8835945D01*
X27227571Y-8868671D01*
X27256793Y-8899635D01*
X27280990Y-8926459D01*
X27297812Y-8946764D01*
X27304913Y-8958171D01*
X27305000Y-8958826D01*
X27300088Y-8975083D01*
X27289468Y-8992575D01*
X27279330Y-9006577D01*
X27261837Y-9031580D01*
X27239096Y-9064541D01*
X27213211Y-9102420D01*
X27201094Y-9120265D01*
X27128252Y-9227762D01*
X27170919Y-9331931D01*
X27187507Y-9371374D01*
X27202632Y-9405412D01*
X27214794Y-9430800D01*
X27222492Y-9444296D01*
X27223310Y-9445232D01*
X27235587Y-9450713D01*
X27260224Y-9457665D01*
X27292853Y-9464930D01*
X27309233Y-9468038D01*
X27355714Y-9476380D01*
X27408513Y-9485856D01*
X27457283Y-9494609D01*
X27463750Y-9495769D01*
X27542067Y-9509826D01*
X27542067Y-9843713D01*
X27387550Y-9871982D01*
X27387550Y-9871982D01*
G37*
X27387550Y-9871982D02*
X27338011Y-9881431D01*
X27293982Y-9890559D01*
X27258281Y-9898722D01*
X27233729Y-9905278D01*
X27223249Y-9909475D01*
X27216546Y-9920458D01*
X27205161Y-9943948D01*
X27190587Y-9976688D01*
X27174318Y-10015417D01*
X27171343Y-10022726D01*
X27129223Y-10126751D01*
X27150701Y-10158192D01*
X27196168Y-10224970D01*
X27232616Y-10279028D01*
X27260771Y-10321495D01*
X27281360Y-10353498D01*
X27295110Y-10376165D01*
X27302746Y-10390625D01*
X27305000Y-10397818D01*
X27299202Y-10407663D01*
X27283379Y-10426688D01*
X27259888Y-10452527D01*
X27231085Y-10482817D01*
X27199327Y-10515191D01*
X27166970Y-10547285D01*
X27136370Y-10576733D01*
X27109885Y-10601170D01*
X27089871Y-10618232D01*
X27078684Y-10625554D01*
X27077976Y-10625667D01*
X27067662Y-10621076D01*
X27046029Y-10608370D01*
X27015623Y-10589148D01*
X26978994Y-10565009D01*
X26950042Y-10545377D01*
X26910133Y-10518247D01*
X26874318Y-10494363D01*
X26845248Y-10475457D01*
X26825576Y-10463262D01*
X26818807Y-10459641D01*
X26804406Y-10460466D01*
X26778670Y-10467671D01*
X26745212Y-10479682D01*
X26707648Y-10494925D01*
X26669590Y-10511825D01*
X26634652Y-10528809D01*
X26606449Y-10544302D01*
X26588595Y-10556731D01*
X26584494Y-10561694D01*
X26581262Y-10573684D01*
X26575646Y-10598868D01*
X26568326Y-10633785D01*
X26559979Y-10674976D01*
X26551286Y-10718979D01*
X26542925Y-10762334D01*
X26535574Y-10801581D01*
X26529914Y-10833260D01*
X26526623Y-10853910D01*
X26526067Y-10859468D01*
X26518027Y-10860465D01*
X26495606Y-10861129D01*
X26461356Y-10861437D01*
X26417826Y-10861371D01*
X26367566Y-10860910D01*
X26358882Y-10860796D01*
X26191697Y-10858500D01*
X26184926Y-10824634D01*
X26180807Y-10803811D01*
X26174283Y-10770571D01*
X26166178Y-10729121D01*
X26157314Y-10683665D01*
X26155260Y-10673114D01*
X26132367Y-10555461D01*
X26022300Y-10510433D01*
X25981457Y-10494076D01*
X25945491Y-10480327D01*
X25917650Y-10470382D01*
X25901187Y-10465434D01*
X25898932Y-10465102D01*
X25887786Y-10469582D01*
X25865366Y-10482175D01*
X25834277Y-10501292D01*
X25797125Y-10525346D01*
X25767699Y-10545092D01*
X25727799Y-10571767D01*
X25692109Y-10594710D01*
X25663225Y-10612324D01*
X25643741Y-10623013D01*
X25636945Y-10625525D01*
X25627159Y-10619799D01*
X25608145Y-10604086D01*
X25582274Y-10580732D01*
X25551921Y-10552085D01*
X25519459Y-10520490D01*
X25487262Y-10488294D01*
X25457703Y-10457842D01*
X25433155Y-10431480D01*
X25415993Y-10411555D01*
X25408589Y-10400413D01*
X25408467Y-10399683D01*
X25413068Y-10389736D01*
X25425802Y-10368456D01*
X25445065Y-10338365D01*
X25469255Y-10301984D01*
X25488900Y-10273197D01*
X25515605Y-10234075D01*
X25538560Y-10199690D01*
X25556170Y-10172492D01*
X25566841Y-10154931D01*
X25569333Y-10149601D01*
X25565757Y-10139224D01*
X25556273Y-10117945D01*
X25542750Y-10089905D01*
X25539157Y-10082721D01*
X25525370Y-10054431D01*
X25515615Y-10032639D01*
X25511552Y-10021113D01*
X25511640Y-10020256D01*
X25519937Y-10016388D01*
X25541609Y-10007038D01*
X25574367Y-9993154D01*
X25615921Y-9975687D01*
X25663984Y-9955589D01*
X25716266Y-9933809D01*
X25770478Y-9911297D01*
X25824332Y-9889005D01*
X25875538Y-9867882D01*
X25921809Y-9848878D01*
X25960854Y-9832945D01*
X25990385Y-9821033D01*
X26008114Y-9814091D01*
X26008538Y-9813933D01*
X26031345Y-9806041D01*
X26043763Y-9804698D01*
X26051138Y-9810189D01*
X26055105Y-9816440D01*
X26065020Y-9830668D01*
X26082420Y-9853243D01*
X26103796Y-9879630D01*
X26106967Y-9883443D01*
X26159060Y-9933894D01*
X26217868Y-9970356D01*
X26281172Y-9993044D01*
X26346755Y-10002173D01*
X26412398Y-9997956D01*
X26475883Y-9980609D01*
X26534991Y-9950345D01*
X26587506Y-9907379D01*
X26631209Y-9851925D01*
X26642931Y-9831650D01*
X26669522Y-9764967D01*
X26680719Y-9696080D01*
X26677245Y-9627396D01*
X26659819Y-9561325D01*
X26629160Y-9500273D01*
X26585990Y-9446648D01*
X26531028Y-9402859D01*
X26511268Y-9391423D01*
X26442781Y-9363978D01*
X26372722Y-9352496D01*
X26303189Y-9356410D01*
X26236281Y-9375153D01*
X26174097Y-9408158D01*
X26118735Y-9454857D01*
X26075827Y-9509124D01*
X26059765Y-9531440D01*
X26045908Y-9546428D01*
X26039055Y-9550400D01*
X26028507Y-9547267D01*
X26004865Y-9538520D01*
X25970629Y-9525142D01*
X25928301Y-9508114D01*
X25880383Y-9488417D01*
X25869031Y-9483695D01*
X25813170Y-9460457D01*
X25755747Y-9436662D01*
X25701141Y-9414116D01*
X25653732Y-9394628D01*
X25620134Y-9380914D01*
X25583539Y-9365733D01*
X25552304Y-9352161D01*
X25530068Y-9341817D01*
X25520943Y-9336759D01*
X25517464Y-9328420D01*
X25521072Y-9312251D01*
X25532540Y-9285595D01*
X25540553Y-9269306D01*
X25554256Y-9240047D01*
X25563606Y-9216054D01*
X25566952Y-9201680D01*
X25566722Y-9200249D01*
X25560851Y-9190270D01*
X25547049Y-9168969D01*
X25527035Y-9138938D01*
X25502530Y-9102769D01*
X25485729Y-9078243D01*
X25459545Y-9039548D01*
X25437159Y-9005268D01*
X25420208Y-8978005D01*
X25410326Y-8960359D01*
X25408467Y-8955354D01*
X25414206Y-8946238D01*
X25430142Y-8927399D01*
X25454354Y-8900941D01*
X25484922Y-8868968D01*
X25516535Y-8836961D01*
X25551931Y-8802327D01*
X25583917Y-8772310D01*
X25610337Y-8748833D01*
X25629033Y-8733820D01*
X25637476Y-8729134D01*
X25643917Y-8730521D01*
X25654344Y-8735371D01*
X25670364Y-8744717D01*
X25693581Y-8759591D01*
X25725603Y-8781026D01*
X25768035Y-8810054D01*
X25822483Y-8847709D01*
X25830089Y-8852987D01*
X25856916Y-8870753D01*
X25879111Y-8883895D01*
X25892489Y-8889968D01*
X25893589Y-8890121D01*
X25904799Y-8887215D01*
X25928597Y-8879152D01*
X25961845Y-8867053D01*
X26001405Y-8852040D01*
X26015727Y-8846474D01*
X26055522Y-8831165D01*
X26085550Y-8818924D01*
X26107578Y-8807188D01*
X26123375Y-8793394D01*
X26134709Y-8774980D01*
X26143347Y-8749383D01*
X26151059Y-8714042D01*
X26159611Y-8666392D01*
X26166360Y-8628154D01*
X26174391Y-8584452D01*
X26181707Y-8546687D01*
X26187670Y-8518002D01*
X26191641Y-8501542D01*
X26192558Y-8499037D01*
X26201975Y-8496878D01*
X26225655Y-8494991D01*
X26260930Y-8493487D01*
X26305129Y-8492476D01*
X26355584Y-8492070D01*
X26360530Y-8492067D01*
X26524194Y-8492067D01*
X26550799Y-8633884D01*
X26560053Y-8681996D01*
X26568798Y-8725241D01*
X26576361Y-8760455D01*
X26582069Y-8784473D01*
X26584672Y-8793107D01*
X26595217Y-8803174D01*
X26618120Y-8817178D01*
X26649762Y-8833542D01*
X26686528Y-8850689D01*
X26724801Y-8867045D01*
X26760965Y-8881032D01*
X26791404Y-8891074D01*
X26812501Y-8895595D01*
X26818807Y-8895160D01*
X26830299Y-8888708D01*
X26853050Y-8874331D01*
X26884407Y-8853760D01*
X26921720Y-8828728D01*
X26950042Y-8809424D01*
X26989605Y-8782721D01*
X27024812Y-8759778D01*
X27053109Y-8742195D01*
X27071940Y-8731573D01*
X27078216Y-8729134D01*
X27088274Y-8734992D01*
X27107397Y-8750980D01*
X27133237Y-8774721D01*
X27163445Y-8803835D01*
X27195673Y-8835945D01*
X27227571Y-8868671D01*
X27256793Y-8899635D01*
X27280990Y-8926459D01*
X27297812Y-8946764D01*
X27304913Y-8958171D01*
X27305000Y-8958826D01*
X27300088Y-8975083D01*
X27289468Y-8992575D01*
X27279330Y-9006577D01*
X27261837Y-9031580D01*
X27239096Y-9064541D01*
X27213211Y-9102420D01*
X27201094Y-9120265D01*
X27128252Y-9227762D01*
X27170919Y-9331931D01*
X27187507Y-9371374D01*
X27202632Y-9405412D01*
X27214794Y-9430800D01*
X27222492Y-9444296D01*
X27223310Y-9445232D01*
X27235587Y-9450713D01*
X27260224Y-9457665D01*
X27292853Y-9464930D01*
X27309233Y-9468038D01*
X27355714Y-9476380D01*
X27408513Y-9485856D01*
X27457283Y-9494609D01*
X27463750Y-9495769D01*
X27542067Y-9509826D01*
X27542067Y-9843713D01*
X27387550Y-9871982D01*
D13*
X24755800Y-39776400D02*
X24755800Y-47456400D01*
X24755800Y-47456400D02*
X27415800Y-47456400D01*
X27415800Y-47456400D02*
X27415800Y-39776400D01*
X27415800Y-39776400D02*
X24755800Y-39776400D01*
X24755800Y-38506400D02*
X24755800Y-37176400D01*
X24755800Y-37176400D02*
X26085800Y-37176400D01*
M02*
