G04 #@! TF.GenerationSoftware,KiCad,Pcbnew,5.0.1-33cea8e~67~ubuntu18.04.1*
G04 #@! TF.CreationDate,2018-11-07T11:59:42-08:00*
G04 #@! TF.ProjectId,fk-sonar,666B2D736F6E61722E6B696361645F70,0.1*
G04 #@! TF.SameCoordinates,PX791ddc0PY791ddc0*
G04 #@! TF.FileFunction,Legend,Top*
G04 #@! TF.FilePolarity,Positive*
%FSLAX46Y46*%
G04 Gerber Fmt 4.6, Leading zero omitted, Abs format (unit mm)*
G04 Created by KiCad (PCBNEW 5.0.1-33cea8e~67~ubuntu18.04.1) date Wed 07 Nov 2018 11:59:42 AM PST*
%MOMM*%
%LPD*%
G01*
G04 APERTURE LIST*
%ADD10C,0.200000*%
%ADD11C,0.150000*%
%ADD12C,0.300000*%
%ADD13C,0.120000*%
%ADD14C,0.010000*%
G04 APERTURE END LIST*
D10*
X-2411267Y35355258D02*
X-2458886Y35307639D01*
X-2601743Y35260020D01*
X-2696981Y35260020D01*
X-2839839Y35307639D01*
X-2935077Y35402877D01*
X-2982696Y35498115D01*
X-3030315Y35688591D01*
X-3030315Y35831448D01*
X-2982696Y36021924D01*
X-2935077Y36117162D01*
X-2839839Y36212400D01*
X-2696981Y36260020D01*
X-2601743Y36260020D01*
X-2458886Y36212400D01*
X-2411267Y36164781D01*
X-1792220Y36260020D02*
X-1601743Y36260020D01*
X-1506505Y36212400D01*
X-1411267Y36117162D01*
X-1363648Y35926686D01*
X-1363648Y35593353D01*
X-1411267Y35402877D01*
X-1506505Y35307639D01*
X-1601743Y35260020D01*
X-1792220Y35260020D01*
X-1887458Y35307639D01*
X-1982696Y35402877D01*
X-2030315Y35593353D01*
X-2030315Y35926686D01*
X-1982696Y36117162D01*
X-1887458Y36212400D01*
X-1792220Y36260020D01*
X-363648Y35260020D02*
X-696981Y35736210D01*
X-935077Y35260020D02*
X-935077Y36260020D01*
X-554124Y36260020D01*
X-458886Y36212400D01*
X-411267Y36164781D01*
X-363648Y36069543D01*
X-363648Y35926686D01*
X-411267Y35831448D01*
X-458886Y35783829D01*
X-554124Y35736210D01*
X-935077Y35736210D01*
X64923Y35783829D02*
X398257Y35783829D01*
X541114Y35260020D02*
X64923Y35260020D01*
X64923Y36260020D01*
X541114Y36260020D01*
X26935180Y48163220D02*
X26601847Y48639410D01*
X26363752Y48163220D02*
X26363752Y49163220D01*
X26744704Y49163220D01*
X26839942Y49115600D01*
X26887561Y49067981D01*
X26935180Y48972743D01*
X26935180Y48829886D01*
X26887561Y48734648D01*
X26839942Y48687029D01*
X26744704Y48639410D01*
X26363752Y48639410D01*
X27316133Y48210839D02*
X27458990Y48163220D01*
X27697085Y48163220D01*
X27792323Y48210839D01*
X27839942Y48258458D01*
X27887561Y48353696D01*
X27887561Y48448934D01*
X27839942Y48544172D01*
X27792323Y48591791D01*
X27697085Y48639410D01*
X27506609Y48687029D01*
X27411371Y48734648D01*
X27363752Y48782267D01*
X27316133Y48877505D01*
X27316133Y48972743D01*
X27363752Y49067981D01*
X27411371Y49115600D01*
X27506609Y49163220D01*
X27744704Y49163220D01*
X27887561Y49115600D01*
X28173276Y49163220D02*
X28744704Y49163220D01*
X28458990Y48163220D02*
X28458990Y49163220D01*
X13797114Y63123820D02*
X13797114Y64123820D01*
X14035209Y64123820D01*
X14178066Y64076200D01*
X14273304Y63980962D01*
X14320923Y63885724D01*
X14368542Y63695248D01*
X14368542Y63552391D01*
X14320923Y63361915D01*
X14273304Y63266677D01*
X14178066Y63171439D01*
X14035209Y63123820D01*
X13797114Y63123820D01*
X15320923Y63123820D02*
X14749495Y63123820D01*
X15035209Y63123820D02*
X15035209Y64123820D01*
X14939971Y63980962D01*
X14844733Y63885724D01*
X14749495Y63838105D01*
X15654257Y64123820D02*
X16273304Y64123820D01*
X15939971Y63742867D01*
X16082828Y63742867D01*
X16178066Y63695248D01*
X16225685Y63647629D01*
X16273304Y63552391D01*
X16273304Y63314296D01*
X16225685Y63219058D01*
X16178066Y63171439D01*
X16082828Y63123820D01*
X15797114Y63123820D01*
X15701876Y63171439D01*
X15654257Y63219058D01*
X3859161Y16846896D02*
X3906780Y16989753D01*
X3906780Y17227848D01*
X3859161Y17323086D01*
X3811542Y17370705D01*
X3716304Y17418324D01*
X3621066Y17418324D01*
X3525828Y17370705D01*
X3478209Y17323086D01*
X3430590Y17227848D01*
X3382971Y17037372D01*
X3335352Y16942134D01*
X3287733Y16894515D01*
X3192495Y16846896D01*
X3097257Y16846896D01*
X3002019Y16894515D01*
X2954400Y16942134D01*
X2906780Y17037372D01*
X2906780Y17275467D01*
X2954400Y17418324D01*
X3382971Y17846896D02*
X3382971Y18180229D01*
X3906780Y18323086D02*
X3906780Y17846896D01*
X2906780Y17846896D01*
X2906780Y18323086D01*
X3906780Y18751658D02*
X2906780Y18751658D01*
X3906780Y19323086D01*
X2906780Y19323086D01*
X3859161Y19751658D02*
X3906780Y19894515D01*
X3906780Y20132610D01*
X3859161Y20227848D01*
X3811542Y20275467D01*
X3716304Y20323086D01*
X3621066Y20323086D01*
X3525828Y20275467D01*
X3478209Y20227848D01*
X3430590Y20132610D01*
X3382971Y19942134D01*
X3335352Y19846896D01*
X3287733Y19799277D01*
X3192495Y19751658D01*
X3097257Y19751658D01*
X3002019Y19799277D01*
X2954400Y19846896D01*
X2906780Y19942134D01*
X2906780Y20180229D01*
X2954400Y20323086D01*
X2906780Y20942134D02*
X2906780Y21132610D01*
X2954400Y21227848D01*
X3049638Y21323086D01*
X3240114Y21370705D01*
X3573447Y21370705D01*
X3763923Y21323086D01*
X3859161Y21227848D01*
X3906780Y21132610D01*
X3906780Y20942134D01*
X3859161Y20846896D01*
X3763923Y20751658D01*
X3573447Y20704039D01*
X3240114Y20704039D01*
X3049638Y20751658D01*
X2954400Y20846896D01*
X2906780Y20942134D01*
X3906780Y22370705D02*
X3430590Y22037372D01*
X3906780Y21799277D02*
X2906780Y21799277D01*
X2906780Y22180229D01*
X2954400Y22275467D01*
X3002019Y22323086D01*
X3097257Y22370705D01*
X3240114Y22370705D01*
X3335352Y22323086D01*
X3382971Y22275467D01*
X3430590Y22180229D01*
X3430590Y21799277D01*
X-3828705Y3354439D02*
X-3685848Y3306820D01*
X-3447753Y3306820D01*
X-3352515Y3354439D01*
X-3304896Y3402058D01*
X-3257277Y3497296D01*
X-3257277Y3592534D01*
X-3304896Y3687772D01*
X-3352515Y3735391D01*
X-3447753Y3783010D01*
X-3638229Y3830629D01*
X-3733467Y3878248D01*
X-3781086Y3925867D01*
X-3828705Y4021105D01*
X-3828705Y4116343D01*
X-3781086Y4211581D01*
X-3733467Y4259200D01*
X-3638229Y4306820D01*
X-3400134Y4306820D01*
X-3257277Y4259200D01*
X-2828705Y3830629D02*
X-2495372Y3830629D01*
X-2352515Y3306820D02*
X-2828705Y3306820D01*
X-2828705Y4306820D01*
X-2352515Y4306820D01*
X-1923943Y3306820D02*
X-1923943Y4306820D01*
X-1352515Y3306820D01*
X-1352515Y4306820D01*
X-923943Y3354439D02*
X-781086Y3306820D01*
X-542991Y3306820D01*
X-447753Y3354439D01*
X-400134Y3402058D01*
X-352515Y3497296D01*
X-352515Y3592534D01*
X-400134Y3687772D01*
X-447753Y3735391D01*
X-542991Y3783010D01*
X-733467Y3830629D01*
X-828705Y3878248D01*
X-876324Y3925867D01*
X-923943Y4021105D01*
X-923943Y4116343D01*
X-876324Y4211581D01*
X-828705Y4259200D01*
X-733467Y4306820D01*
X-495372Y4306820D01*
X-352515Y4259200D01*
X266533Y4306820D02*
X457009Y4306820D01*
X552247Y4259200D01*
X647485Y4163962D01*
X695104Y3973486D01*
X695104Y3640153D01*
X647485Y3449677D01*
X552247Y3354439D01*
X457009Y3306820D01*
X266533Y3306820D01*
X171295Y3354439D01*
X76057Y3449677D01*
X28438Y3640153D01*
X28438Y3973486D01*
X76057Y4163962D01*
X171295Y4259200D01*
X266533Y4306820D01*
X1695104Y3306820D02*
X1361771Y3783010D01*
X1123676Y3306820D02*
X1123676Y4306820D01*
X1504628Y4306820D01*
X1599866Y4259200D01*
X1647485Y4211581D01*
X1695104Y4116343D01*
X1695104Y3973486D01*
X1647485Y3878248D01*
X1599866Y3830629D01*
X1504628Y3783010D01*
X1123676Y3783010D01*
X18797757Y51893839D02*
X18940614Y51846220D01*
X19178709Y51846220D01*
X19273947Y51893839D01*
X19321566Y51941458D01*
X19369185Y52036696D01*
X19369185Y52131934D01*
X19321566Y52227172D01*
X19273947Y52274791D01*
X19178709Y52322410D01*
X18988233Y52370029D01*
X18892995Y52417648D01*
X18845376Y52465267D01*
X18797757Y52560505D01*
X18797757Y52655743D01*
X18845376Y52750981D01*
X18892995Y52798600D01*
X18988233Y52846220D01*
X19226328Y52846220D01*
X19369185Y52798600D01*
X19702519Y52846220D02*
X19940614Y51846220D01*
X20131090Y52560505D01*
X20321566Y51846220D01*
X20559661Y52846220D01*
X20940614Y51846220D02*
X20940614Y52846220D01*
X21178709Y52846220D01*
X21321566Y52798600D01*
X21416804Y52703362D01*
X21464423Y52608124D01*
X21512042Y52417648D01*
X21512042Y52274791D01*
X21464423Y52084315D01*
X21416804Y51989077D01*
X21321566Y51893839D01*
X21178709Y51846220D01*
X20940614Y51846220D01*
X28259114Y-1707971D02*
X28925780Y-1469876D01*
X28259114Y-1231780D01*
X27925780Y-660352D02*
X27925780Y-565114D01*
X27973400Y-469876D01*
X28021019Y-422257D01*
X28116257Y-374638D01*
X28306733Y-327019D01*
X28544828Y-327019D01*
X28735304Y-374638D01*
X28830542Y-422257D01*
X28878161Y-469876D01*
X28925780Y-565114D01*
X28925780Y-660352D01*
X28878161Y-755590D01*
X28830542Y-803209D01*
X28735304Y-850828D01*
X28544828Y-898447D01*
X28306733Y-898447D01*
X28116257Y-850828D01*
X28021019Y-803209D01*
X27973400Y-755590D01*
X27925780Y-660352D01*
X28830542Y101553D02*
X28878161Y149172D01*
X28925780Y101553D01*
X28878161Y53934D01*
X28830542Y101553D01*
X28925780Y101553D01*
X27925780Y1006315D02*
X27925780Y815839D01*
X27973400Y720600D01*
X28021019Y672981D01*
X28163876Y577743D01*
X28354352Y530124D01*
X28735304Y530124D01*
X28830542Y577743D01*
X28878161Y625362D01*
X28925780Y720600D01*
X28925780Y911077D01*
X28878161Y1006315D01*
X28830542Y1053934D01*
X28735304Y1101553D01*
X28497209Y1101553D01*
X28401971Y1053934D01*
X28354352Y1006315D01*
X28306733Y911077D01*
X28306733Y720600D01*
X28354352Y625362D01*
X28401971Y577743D01*
X28497209Y530124D01*
D11*
G04 #@! TO.C,J5*
X4193400Y980100D02*
X5443400Y980100D01*
X10493400Y980100D02*
X9243400Y980100D01*
X3393400Y2580100D02*
X3393400Y-869900D01*
X4193400Y2580100D02*
X3393400Y2580100D01*
X4193400Y980100D02*
X4193400Y2580100D01*
X5043400Y-5019900D02*
X9643400Y-5019900D01*
X11293400Y2580100D02*
X11293400Y-869900D01*
X10493400Y2580100D02*
X11293400Y2580100D01*
X10493400Y980100D02*
X10493400Y2580100D01*
G04 #@! TO.C,J2*
X18480300Y44818300D02*
X21880300Y44818300D01*
X18480300Y51168300D02*
X21880300Y51168300D01*
G04 #@! TO.C,J4*
X14160600Y-5128800D02*
X21760600Y-5128800D01*
X14160600Y-5128800D02*
X14160600Y-4028800D01*
X21760600Y-4028800D02*
X21760600Y-5128800D01*
X14160600Y-278800D02*
X14710600Y-278800D01*
X14160600Y-1828800D02*
X14160600Y-278800D01*
X21760600Y-278800D02*
X21210600Y-278800D01*
X21760600Y-1828800D02*
X21760600Y-278800D01*
D12*
X16285311Y779200D02*
G75*
G03X16285311Y779200I-70711J0D01*
G01*
D13*
G04 #@! TO.C,SW1*
X25859800Y46671400D02*
X25959800Y46671400D01*
X29359800Y46671400D02*
X29259800Y46671400D01*
X29259800Y41771400D02*
X29359800Y41771400D01*
X25859800Y41771400D02*
X25959800Y41771400D01*
X27259800Y41771400D02*
X27959800Y41771400D01*
X27259800Y46671400D02*
X27959800Y46671400D01*
X25859800Y46671400D02*
X25859800Y41771400D01*
X29359800Y41771400D02*
X29359800Y46671400D01*
D14*
G04 #@! TO.C,G\002A\002A\002A*
G36*
X29159074Y34607953D02*
X29158597Y34563250D01*
X29157622Y34524761D01*
X29156003Y34490511D01*
X29153594Y34458528D01*
X29150246Y34426840D01*
X29145815Y34393473D01*
X29140152Y34356456D01*
X29133612Y34316783D01*
X29105570Y34180500D01*
X29067960Y34046972D01*
X29021110Y33916670D01*
X28965351Y33790067D01*
X28901015Y33667633D01*
X28828431Y33549841D01*
X28747930Y33437160D01*
X28659842Y33330064D01*
X28564498Y33229022D01*
X28462228Y33134507D01*
X28353363Y33046990D01*
X28238233Y32966942D01*
X28149423Y32912921D01*
X28022808Y32846037D01*
X27893381Y32788898D01*
X27761101Y32741495D01*
X27625925Y32703816D01*
X27487812Y32675851D01*
X27346720Y32657592D01*
X27202606Y32649027D01*
X27062709Y32649865D01*
X26922806Y32660074D01*
X26784365Y32680196D01*
X26647898Y32710028D01*
X26513918Y32749368D01*
X26382934Y32798013D01*
X26255459Y32855761D01*
X26132004Y32922409D01*
X26013080Y32997756D01*
X25899198Y33081598D01*
X25831996Y33137197D01*
X25798852Y33167052D01*
X25761548Y33202693D01*
X25722046Y33242087D01*
X25682308Y33283201D01*
X25644297Y33324003D01*
X25609975Y33362458D01*
X25581304Y33396535D01*
X25579477Y33398807D01*
X25493991Y33513382D01*
X25417074Y33632937D01*
X25349029Y33756923D01*
X25290160Y33884788D01*
X25244317Y34005520D01*
X25202488Y34143189D01*
X25170578Y34282532D01*
X25148639Y34423162D01*
X25136724Y34564689D01*
X25134883Y34706724D01*
X25138864Y34795460D01*
X25153411Y34937090D01*
X25177771Y35076604D01*
X25211734Y35213535D01*
X25255086Y35347418D01*
X25307618Y35477788D01*
X25369116Y35604179D01*
X25439370Y35726125D01*
X25518168Y35843162D01*
X25605299Y35954823D01*
X25700550Y36060643D01*
X25725189Y36085712D01*
X25829126Y36182587D01*
X25938728Y36271229D01*
X26053517Y36351495D01*
X26173013Y36423244D01*
X26296738Y36486333D01*
X26424211Y36540620D01*
X26521938Y36574513D01*
X26521938Y36376328D01*
X26514906Y36375325D01*
X26500128Y36370663D01*
X26479088Y36362930D01*
X26453268Y36352711D01*
X26424153Y36340595D01*
X26393226Y36327169D01*
X26362048Y36313055D01*
X26333438Y36298979D01*
X26298829Y36280641D01*
X26260656Y36259440D01*
X26221355Y36236776D01*
X26183363Y36214047D01*
X26149117Y36192654D01*
X26126560Y36177786D01*
X26031300Y36108013D01*
X25938978Y36030719D01*
X25851095Y35947399D01*
X25769152Y35859548D01*
X25694648Y35768660D01*
X25640789Y35693850D01*
X25612686Y35645281D01*
X25587658Y35587655D01*
X25565902Y35521661D01*
X25547619Y35447986D01*
X25533006Y35367317D01*
X25522790Y35285680D01*
X25521071Y35259084D01*
X25520320Y35225637D01*
X25520498Y35188599D01*
X25521568Y35151230D01*
X25523493Y35116789D01*
X25524942Y35099873D01*
X25534526Y35032966D01*
X25549178Y34971010D01*
X25568504Y34915157D01*
X25592104Y34866556D01*
X25619383Y34826598D01*
X25643900Y34800372D01*
X25669899Y34780778D01*
X25699850Y34766464D01*
X25736220Y34756079D01*
X25754747Y34752431D01*
X25803408Y34741391D01*
X25843691Y34726617D01*
X25876934Y34707341D01*
X25904476Y34682799D01*
X25926406Y34654177D01*
X25941840Y34627292D01*
X25955076Y34597377D01*
X25966236Y34563609D01*
X25975447Y34525160D01*
X25982832Y34481207D01*
X25988516Y34430923D01*
X25992624Y34373483D01*
X25995280Y34308061D01*
X25996610Y34233833D01*
X25996822Y34187875D01*
X25998211Y34068608D01*
X26002228Y33959012D01*
X26008869Y33859118D01*
X26018132Y33768958D01*
X26030015Y33688560D01*
X26040647Y33634680D01*
X26067370Y33534283D01*
X26101691Y33438593D01*
X26143232Y33348294D01*
X26191615Y33264074D01*
X26246461Y33186615D01*
X26307392Y33116604D01*
X26348410Y33076922D01*
X26368995Y33058325D01*
X26342282Y33111553D01*
X26329169Y33138692D01*
X26315632Y33168381D01*
X26303660Y33196189D01*
X26298044Y33210156D01*
X26285304Y33246729D01*
X26272306Y33290436D01*
X26259784Y33338300D01*
X26248473Y33387345D01*
X26239109Y33434592D01*
X26232743Y33474660D01*
X26229035Y33510392D01*
X26226267Y33553656D01*
X26224462Y33601867D01*
X26223641Y33652440D01*
X26223825Y33702788D01*
X26225038Y33750326D01*
X26227300Y33792469D01*
X26229826Y33820100D01*
X26249917Y33954555D01*
X26279230Y34091126D01*
X26317423Y34228502D01*
X26364154Y34365374D01*
X26388512Y34428024D01*
X26397090Y34449122D01*
X26405299Y34468966D01*
X26413666Y34488729D01*
X26422715Y34509588D01*
X26432972Y34532716D01*
X26444962Y34559288D01*
X26459211Y34590479D01*
X26476243Y34627462D01*
X26496585Y34671414D01*
X26518199Y34717990D01*
X26576425Y34852625D01*
X26625676Y34986277D01*
X26665932Y35118645D01*
X26697174Y35249428D01*
X26719382Y35378323D01*
X26732536Y35505031D01*
X26736615Y35629248D01*
X26731600Y35750674D01*
X26717470Y35869007D01*
X26694207Y35983945D01*
X26661790Y36095186D01*
X26620199Y36202430D01*
X26616835Y36210021D01*
X26605237Y36234739D01*
X26591735Y36261535D01*
X26577245Y36288808D01*
X26562679Y36314959D01*
X26548951Y36338388D01*
X26536973Y36357494D01*
X26527658Y36370676D01*
X26521938Y36376328D01*
X26521938Y36574513D01*
X26554955Y36585964D01*
X26688490Y36622222D01*
X26824336Y36649251D01*
X26962016Y36666911D01*
X27101049Y36675059D01*
X27203428Y36673957D01*
X27203428Y36489319D01*
X27143355Y36489292D01*
X27081749Y36487848D01*
X27021193Y36485063D01*
X26964266Y36481011D01*
X26913550Y36475768D01*
X26890980Y36472671D01*
X26856641Y36467091D01*
X26820378Y36460558D01*
X26783469Y36453368D01*
X26747194Y36445817D01*
X26712830Y36438201D01*
X26681657Y36430815D01*
X26654953Y36423956D01*
X26633997Y36417919D01*
X26620067Y36413001D01*
X26614442Y36409497D01*
X26614614Y36408713D01*
X26619384Y36406119D01*
X26632620Y36399219D01*
X26653733Y36388313D01*
X26682134Y36373705D01*
X26717234Y36355694D01*
X26758445Y36334583D01*
X26805177Y36310674D01*
X26856841Y36284267D01*
X26912848Y36255664D01*
X26972610Y36225167D01*
X27035537Y36193077D01*
X27101040Y36159696D01*
X27103219Y36158586D01*
X27168779Y36125156D01*
X27231759Y36092982D01*
X27291573Y36062364D01*
X27347633Y36033608D01*
X27399352Y36007016D01*
X27446143Y35982891D01*
X27487418Y35961537D01*
X27522590Y35943257D01*
X27551073Y35928354D01*
X27572278Y35917132D01*
X27585619Y35909894D01*
X27590509Y35906942D01*
X27590519Y35906921D01*
X27586362Y35903901D01*
X27573971Y35896536D01*
X27554090Y35885235D01*
X27527463Y35870406D01*
X27494836Y35852459D01*
X27456952Y35831801D01*
X27414557Y35808844D01*
X27368394Y35783994D01*
X27319210Y35757661D01*
X27302300Y35748639D01*
X27252243Y35721904D01*
X27204929Y35696531D01*
X27161107Y35672928D01*
X27121524Y35651504D01*
X27086928Y35632665D01*
X27058068Y35616819D01*
X27035692Y35604376D01*
X27020549Y35595742D01*
X27013385Y35591326D01*
X27012900Y35590864D01*
X27017316Y35588095D01*
X27030165Y35580978D01*
X27050857Y35569822D01*
X27078796Y35554941D01*
X27113391Y35536645D01*
X27154049Y35515246D01*
X27200175Y35491057D01*
X27251178Y35464388D01*
X27306464Y35435551D01*
X27365439Y35404858D01*
X27427511Y35372621D01*
X27481530Y35344618D01*
X27545816Y35311306D01*
X27607560Y35279282D01*
X27666166Y35248858D01*
X27721034Y35220346D01*
X27771565Y35194058D01*
X27817162Y35170306D01*
X27857225Y35149401D01*
X27891156Y35131657D01*
X27918356Y35117385D01*
X27938226Y35106897D01*
X27950168Y35100505D01*
X27953631Y35098534D01*
X27949761Y35095710D01*
X27937538Y35088458D01*
X27917580Y35077113D01*
X27890506Y35062015D01*
X27856934Y35043503D01*
X27817482Y35021913D01*
X27772770Y34997585D01*
X27723415Y34970857D01*
X27670036Y34942067D01*
X27613251Y34911553D01*
X27553679Y34879653D01*
X27543475Y34874200D01*
X27483425Y34842091D01*
X27425993Y34811329D01*
X27371805Y34782252D01*
X27321485Y34755197D01*
X27275658Y34730502D01*
X27234949Y34708504D01*
X27199982Y34689542D01*
X27171382Y34673954D01*
X27149775Y34662075D01*
X27135784Y34654246D01*
X27130034Y34650802D01*
X27129921Y34650680D01*
X27134307Y34647913D01*
X27146854Y34640961D01*
X27166685Y34630289D01*
X27192924Y34616359D01*
X27224697Y34599634D01*
X27261128Y34580575D01*
X27301340Y34559646D01*
X27344459Y34537310D01*
X27345767Y34536634D01*
X27388963Y34514241D01*
X27429275Y34493210D01*
X27465827Y34474005D01*
X27497744Y34457094D01*
X27524148Y34442943D01*
X27544166Y34432018D01*
X27556921Y34424787D01*
X27561537Y34421715D01*
X27561540Y34421693D01*
X27557163Y34418845D01*
X27544456Y34411566D01*
X27524057Y34400204D01*
X27496603Y34385104D01*
X27462732Y34366613D01*
X27423081Y34345077D01*
X27378288Y34320842D01*
X27328990Y34294255D01*
X27275825Y34265663D01*
X27219431Y34235410D01*
X27164030Y34205761D01*
X27104673Y34174023D01*
X27047567Y34143476D01*
X26993393Y34114485D01*
X26942829Y34087412D01*
X26896554Y34062622D01*
X26855246Y34040478D01*
X26819585Y34021345D01*
X26790248Y34005586D01*
X26767915Y33993565D01*
X26753264Y33985645D01*
X26747250Y33982350D01*
X26727980Y33971438D01*
X26930130Y33866902D01*
X26971874Y33845223D01*
X27010677Y33824893D01*
X27045637Y33806397D01*
X27075855Y33790220D01*
X27100430Y33776846D01*
X27118460Y33766762D01*
X27129045Y33760451D01*
X27131554Y33758466D01*
X27127061Y33755262D01*
X27114594Y33747858D01*
X27095155Y33736813D01*
X27069749Y33722686D01*
X27039377Y33706033D01*
X27005045Y33687413D01*
X26967830Y33667424D01*
X26930722Y33647464D01*
X26896741Y33628952D01*
X26866859Y33612436D01*
X26842051Y33598464D01*
X26823292Y33587586D01*
X26811554Y33580350D01*
X26807811Y33577304D01*
X26807820Y33577294D01*
X26812708Y33574535D01*
X26825918Y33567486D01*
X26846741Y33556517D01*
X26874470Y33541995D01*
X26908398Y33524290D01*
X26947816Y33503770D01*
X26992018Y33480805D01*
X27040295Y33455763D01*
X27091940Y33429013D01*
X27146245Y33400923D01*
X27147985Y33400024D01*
X27202276Y33371928D01*
X27253857Y33345168D01*
X27302029Y33320111D01*
X27346094Y33297124D01*
X27385350Y33276575D01*
X27419100Y33258829D01*
X27446644Y33244253D01*
X27467282Y33233216D01*
X27480314Y33226083D01*
X27485043Y33223221D01*
X27485049Y33223200D01*
X27480743Y33220308D01*
X27468329Y33212762D01*
X27448508Y33200970D01*
X27421981Y33185343D01*
X27389449Y33166290D01*
X27351611Y33144221D01*
X27309169Y33119546D01*
X27262823Y33092673D01*
X27213273Y33064013D01*
X27172699Y33040593D01*
X27121230Y33010830D01*
X27072512Y32982504D01*
X27027236Y32956024D01*
X26986091Y32931801D01*
X26949768Y32910247D01*
X26918956Y32891773D01*
X26894345Y32876789D01*
X26876625Y32865706D01*
X26866487Y32858935D01*
X26864292Y32856904D01*
X26872684Y32853525D01*
X26889901Y32850144D01*
X26914606Y32846864D01*
X26945465Y32843787D01*
X26981142Y32841014D01*
X27020302Y32838649D01*
X27061609Y32836794D01*
X27103729Y32835551D01*
X27145326Y32835022D01*
X27150060Y32835011D01*
X27237432Y32836336D01*
X27317916Y32840718D01*
X27394409Y32848480D01*
X27469808Y32859944D01*
X27547010Y32875434D01*
X27579320Y32882896D01*
X27708495Y32918606D01*
X27832843Y32962991D01*
X27953142Y33016393D01*
X28070168Y33079151D01*
X28171140Y33142442D01*
X28223926Y33178845D01*
X28271684Y33214194D01*
X28316754Y33250427D01*
X28361471Y33289486D01*
X28408175Y33333309D01*
X28445679Y33370235D01*
X28510408Y33437459D01*
X28567862Y33502627D01*
X28619909Y33568110D01*
X28668419Y33636279D01*
X28715260Y33709503D01*
X28722174Y33720930D01*
X28787243Y33838861D01*
X28842948Y33960172D01*
X28889304Y34084333D01*
X28926324Y34210816D01*
X28954023Y34339092D01*
X28972416Y34468634D01*
X28981516Y34598913D01*
X28981338Y34729399D01*
X28971897Y34859565D01*
X28953207Y34988883D01*
X28925282Y35116823D01*
X28888137Y35242857D01*
X28841786Y35366457D01*
X28786243Y35487095D01*
X28721523Y35604241D01*
X28668660Y35687000D01*
X28588531Y35796387D01*
X28501209Y35898838D01*
X28407152Y35994082D01*
X28306820Y36081850D01*
X28200672Y36161874D01*
X28089167Y36233883D01*
X27972764Y36297608D01*
X27851923Y36352781D01*
X27727103Y36399130D01*
X27598764Y36436388D01*
X27467363Y36464284D01*
X27333361Y36482550D01*
X27308656Y36484824D01*
X27259389Y36487855D01*
X27203428Y36489319D01*
X27203428Y36673957D01*
X27240956Y36673552D01*
X27381259Y36662249D01*
X27521478Y36641007D01*
X27566966Y36631937D01*
X27703828Y36597940D01*
X27836782Y36554808D01*
X27965475Y36502905D01*
X28089559Y36442595D01*
X28208683Y36374241D01*
X28322495Y36298207D01*
X28430646Y36214858D01*
X28532785Y36124556D01*
X28628561Y36027667D01*
X28717624Y35924552D01*
X28799623Y35815577D01*
X28874208Y35701105D01*
X28941028Y35581501D01*
X28999732Y35457126D01*
X29049970Y35328347D01*
X29091392Y35195526D01*
X29123646Y35059026D01*
X29133424Y35006280D01*
X29140412Y34964495D01*
X29146029Y34927889D01*
X29150421Y34894512D01*
X29153733Y34862415D01*
X29156112Y34829647D01*
X29157702Y34794259D01*
X29158650Y34754300D01*
X29159100Y34707822D01*
X29159200Y34660840D01*
X29159074Y34607953D01*
X29159074Y34607953D01*
G37*
X29159074Y34607953D02*
X29158597Y34563250D01*
X29157622Y34524761D01*
X29156003Y34490511D01*
X29153594Y34458528D01*
X29150246Y34426840D01*
X29145815Y34393473D01*
X29140152Y34356456D01*
X29133612Y34316783D01*
X29105570Y34180500D01*
X29067960Y34046972D01*
X29021110Y33916670D01*
X28965351Y33790067D01*
X28901015Y33667633D01*
X28828431Y33549841D01*
X28747930Y33437160D01*
X28659842Y33330064D01*
X28564498Y33229022D01*
X28462228Y33134507D01*
X28353363Y33046990D01*
X28238233Y32966942D01*
X28149423Y32912921D01*
X28022808Y32846037D01*
X27893381Y32788898D01*
X27761101Y32741495D01*
X27625925Y32703816D01*
X27487812Y32675851D01*
X27346720Y32657592D01*
X27202606Y32649027D01*
X27062709Y32649865D01*
X26922806Y32660074D01*
X26784365Y32680196D01*
X26647898Y32710028D01*
X26513918Y32749368D01*
X26382934Y32798013D01*
X26255459Y32855761D01*
X26132004Y32922409D01*
X26013080Y32997756D01*
X25899198Y33081598D01*
X25831996Y33137197D01*
X25798852Y33167052D01*
X25761548Y33202693D01*
X25722046Y33242087D01*
X25682308Y33283201D01*
X25644297Y33324003D01*
X25609975Y33362458D01*
X25581304Y33396535D01*
X25579477Y33398807D01*
X25493991Y33513382D01*
X25417074Y33632937D01*
X25349029Y33756923D01*
X25290160Y33884788D01*
X25244317Y34005520D01*
X25202488Y34143189D01*
X25170578Y34282532D01*
X25148639Y34423162D01*
X25136724Y34564689D01*
X25134883Y34706724D01*
X25138864Y34795460D01*
X25153411Y34937090D01*
X25177771Y35076604D01*
X25211734Y35213535D01*
X25255086Y35347418D01*
X25307618Y35477788D01*
X25369116Y35604179D01*
X25439370Y35726125D01*
X25518168Y35843162D01*
X25605299Y35954823D01*
X25700550Y36060643D01*
X25725189Y36085712D01*
X25829126Y36182587D01*
X25938728Y36271229D01*
X26053517Y36351495D01*
X26173013Y36423244D01*
X26296738Y36486333D01*
X26424211Y36540620D01*
X26521938Y36574513D01*
X26521938Y36376328D01*
X26514906Y36375325D01*
X26500128Y36370663D01*
X26479088Y36362930D01*
X26453268Y36352711D01*
X26424153Y36340595D01*
X26393226Y36327169D01*
X26362048Y36313055D01*
X26333438Y36298979D01*
X26298829Y36280641D01*
X26260656Y36259440D01*
X26221355Y36236776D01*
X26183363Y36214047D01*
X26149117Y36192654D01*
X26126560Y36177786D01*
X26031300Y36108013D01*
X25938978Y36030719D01*
X25851095Y35947399D01*
X25769152Y35859548D01*
X25694648Y35768660D01*
X25640789Y35693850D01*
X25612686Y35645281D01*
X25587658Y35587655D01*
X25565902Y35521661D01*
X25547619Y35447986D01*
X25533006Y35367317D01*
X25522790Y35285680D01*
X25521071Y35259084D01*
X25520320Y35225637D01*
X25520498Y35188599D01*
X25521568Y35151230D01*
X25523493Y35116789D01*
X25524942Y35099873D01*
X25534526Y35032966D01*
X25549178Y34971010D01*
X25568504Y34915157D01*
X25592104Y34866556D01*
X25619383Y34826598D01*
X25643900Y34800372D01*
X25669899Y34780778D01*
X25699850Y34766464D01*
X25736220Y34756079D01*
X25754747Y34752431D01*
X25803408Y34741391D01*
X25843691Y34726617D01*
X25876934Y34707341D01*
X25904476Y34682799D01*
X25926406Y34654177D01*
X25941840Y34627292D01*
X25955076Y34597377D01*
X25966236Y34563609D01*
X25975447Y34525160D01*
X25982832Y34481207D01*
X25988516Y34430923D01*
X25992624Y34373483D01*
X25995280Y34308061D01*
X25996610Y34233833D01*
X25996822Y34187875D01*
X25998211Y34068608D01*
X26002228Y33959012D01*
X26008869Y33859118D01*
X26018132Y33768958D01*
X26030015Y33688560D01*
X26040647Y33634680D01*
X26067370Y33534283D01*
X26101691Y33438593D01*
X26143232Y33348294D01*
X26191615Y33264074D01*
X26246461Y33186615D01*
X26307392Y33116604D01*
X26348410Y33076922D01*
X26368995Y33058325D01*
X26342282Y33111553D01*
X26329169Y33138692D01*
X26315632Y33168381D01*
X26303660Y33196189D01*
X26298044Y33210156D01*
X26285304Y33246729D01*
X26272306Y33290436D01*
X26259784Y33338300D01*
X26248473Y33387345D01*
X26239109Y33434592D01*
X26232743Y33474660D01*
X26229035Y33510392D01*
X26226267Y33553656D01*
X26224462Y33601867D01*
X26223641Y33652440D01*
X26223825Y33702788D01*
X26225038Y33750326D01*
X26227300Y33792469D01*
X26229826Y33820100D01*
X26249917Y33954555D01*
X26279230Y34091126D01*
X26317423Y34228502D01*
X26364154Y34365374D01*
X26388512Y34428024D01*
X26397090Y34449122D01*
X26405299Y34468966D01*
X26413666Y34488729D01*
X26422715Y34509588D01*
X26432972Y34532716D01*
X26444962Y34559288D01*
X26459211Y34590479D01*
X26476243Y34627462D01*
X26496585Y34671414D01*
X26518199Y34717990D01*
X26576425Y34852625D01*
X26625676Y34986277D01*
X26665932Y35118645D01*
X26697174Y35249428D01*
X26719382Y35378323D01*
X26732536Y35505031D01*
X26736615Y35629248D01*
X26731600Y35750674D01*
X26717470Y35869007D01*
X26694207Y35983945D01*
X26661790Y36095186D01*
X26620199Y36202430D01*
X26616835Y36210021D01*
X26605237Y36234739D01*
X26591735Y36261535D01*
X26577245Y36288808D01*
X26562679Y36314959D01*
X26548951Y36338388D01*
X26536973Y36357494D01*
X26527658Y36370676D01*
X26521938Y36376328D01*
X26521938Y36574513D01*
X26554955Y36585964D01*
X26688490Y36622222D01*
X26824336Y36649251D01*
X26962016Y36666911D01*
X27101049Y36675059D01*
X27203428Y36673957D01*
X27203428Y36489319D01*
X27143355Y36489292D01*
X27081749Y36487848D01*
X27021193Y36485063D01*
X26964266Y36481011D01*
X26913550Y36475768D01*
X26890980Y36472671D01*
X26856641Y36467091D01*
X26820378Y36460558D01*
X26783469Y36453368D01*
X26747194Y36445817D01*
X26712830Y36438201D01*
X26681657Y36430815D01*
X26654953Y36423956D01*
X26633997Y36417919D01*
X26620067Y36413001D01*
X26614442Y36409497D01*
X26614614Y36408713D01*
X26619384Y36406119D01*
X26632620Y36399219D01*
X26653733Y36388313D01*
X26682134Y36373705D01*
X26717234Y36355694D01*
X26758445Y36334583D01*
X26805177Y36310674D01*
X26856841Y36284267D01*
X26912848Y36255664D01*
X26972610Y36225167D01*
X27035537Y36193077D01*
X27101040Y36159696D01*
X27103219Y36158586D01*
X27168779Y36125156D01*
X27231759Y36092982D01*
X27291573Y36062364D01*
X27347633Y36033608D01*
X27399352Y36007016D01*
X27446143Y35982891D01*
X27487418Y35961537D01*
X27522590Y35943257D01*
X27551073Y35928354D01*
X27572278Y35917132D01*
X27585619Y35909894D01*
X27590509Y35906942D01*
X27590519Y35906921D01*
X27586362Y35903901D01*
X27573971Y35896536D01*
X27554090Y35885235D01*
X27527463Y35870406D01*
X27494836Y35852459D01*
X27456952Y35831801D01*
X27414557Y35808844D01*
X27368394Y35783994D01*
X27319210Y35757661D01*
X27302300Y35748639D01*
X27252243Y35721904D01*
X27204929Y35696531D01*
X27161107Y35672928D01*
X27121524Y35651504D01*
X27086928Y35632665D01*
X27058068Y35616819D01*
X27035692Y35604376D01*
X27020549Y35595742D01*
X27013385Y35591326D01*
X27012900Y35590864D01*
X27017316Y35588095D01*
X27030165Y35580978D01*
X27050857Y35569822D01*
X27078796Y35554941D01*
X27113391Y35536645D01*
X27154049Y35515246D01*
X27200175Y35491057D01*
X27251178Y35464388D01*
X27306464Y35435551D01*
X27365439Y35404858D01*
X27427511Y35372621D01*
X27481530Y35344618D01*
X27545816Y35311306D01*
X27607560Y35279282D01*
X27666166Y35248858D01*
X27721034Y35220346D01*
X27771565Y35194058D01*
X27817162Y35170306D01*
X27857225Y35149401D01*
X27891156Y35131657D01*
X27918356Y35117385D01*
X27938226Y35106897D01*
X27950168Y35100505D01*
X27953631Y35098534D01*
X27949761Y35095710D01*
X27937538Y35088458D01*
X27917580Y35077113D01*
X27890506Y35062015D01*
X27856934Y35043503D01*
X27817482Y35021913D01*
X27772770Y34997585D01*
X27723415Y34970857D01*
X27670036Y34942067D01*
X27613251Y34911553D01*
X27553679Y34879653D01*
X27543475Y34874200D01*
X27483425Y34842091D01*
X27425993Y34811329D01*
X27371805Y34782252D01*
X27321485Y34755197D01*
X27275658Y34730502D01*
X27234949Y34708504D01*
X27199982Y34689542D01*
X27171382Y34673954D01*
X27149775Y34662075D01*
X27135784Y34654246D01*
X27130034Y34650802D01*
X27129921Y34650680D01*
X27134307Y34647913D01*
X27146854Y34640961D01*
X27166685Y34630289D01*
X27192924Y34616359D01*
X27224697Y34599634D01*
X27261128Y34580575D01*
X27301340Y34559646D01*
X27344459Y34537310D01*
X27345767Y34536634D01*
X27388963Y34514241D01*
X27429275Y34493210D01*
X27465827Y34474005D01*
X27497744Y34457094D01*
X27524148Y34442943D01*
X27544166Y34432018D01*
X27556921Y34424787D01*
X27561537Y34421715D01*
X27561540Y34421693D01*
X27557163Y34418845D01*
X27544456Y34411566D01*
X27524057Y34400204D01*
X27496603Y34385104D01*
X27462732Y34366613D01*
X27423081Y34345077D01*
X27378288Y34320842D01*
X27328990Y34294255D01*
X27275825Y34265663D01*
X27219431Y34235410D01*
X27164030Y34205761D01*
X27104673Y34174023D01*
X27047567Y34143476D01*
X26993393Y34114485D01*
X26942829Y34087412D01*
X26896554Y34062622D01*
X26855246Y34040478D01*
X26819585Y34021345D01*
X26790248Y34005586D01*
X26767915Y33993565D01*
X26753264Y33985645D01*
X26747250Y33982350D01*
X26727980Y33971438D01*
X26930130Y33866902D01*
X26971874Y33845223D01*
X27010677Y33824893D01*
X27045637Y33806397D01*
X27075855Y33790220D01*
X27100430Y33776846D01*
X27118460Y33766762D01*
X27129045Y33760451D01*
X27131554Y33758466D01*
X27127061Y33755262D01*
X27114594Y33747858D01*
X27095155Y33736813D01*
X27069749Y33722686D01*
X27039377Y33706033D01*
X27005045Y33687413D01*
X26967830Y33667424D01*
X26930722Y33647464D01*
X26896741Y33628952D01*
X26866859Y33612436D01*
X26842051Y33598464D01*
X26823292Y33587586D01*
X26811554Y33580350D01*
X26807811Y33577304D01*
X26807820Y33577294D01*
X26812708Y33574535D01*
X26825918Y33567486D01*
X26846741Y33556517D01*
X26874470Y33541995D01*
X26908398Y33524290D01*
X26947816Y33503770D01*
X26992018Y33480805D01*
X27040295Y33455763D01*
X27091940Y33429013D01*
X27146245Y33400923D01*
X27147985Y33400024D01*
X27202276Y33371928D01*
X27253857Y33345168D01*
X27302029Y33320111D01*
X27346094Y33297124D01*
X27385350Y33276575D01*
X27419100Y33258829D01*
X27446644Y33244253D01*
X27467282Y33233216D01*
X27480314Y33226083D01*
X27485043Y33223221D01*
X27485049Y33223200D01*
X27480743Y33220308D01*
X27468329Y33212762D01*
X27448508Y33200970D01*
X27421981Y33185343D01*
X27389449Y33166290D01*
X27351611Y33144221D01*
X27309169Y33119546D01*
X27262823Y33092673D01*
X27213273Y33064013D01*
X27172699Y33040593D01*
X27121230Y33010830D01*
X27072512Y32982504D01*
X27027236Y32956024D01*
X26986091Y32931801D01*
X26949768Y32910247D01*
X26918956Y32891773D01*
X26894345Y32876789D01*
X26876625Y32865706D01*
X26866487Y32858935D01*
X26864292Y32856904D01*
X26872684Y32853525D01*
X26889901Y32850144D01*
X26914606Y32846864D01*
X26945465Y32843787D01*
X26981142Y32841014D01*
X27020302Y32838649D01*
X27061609Y32836794D01*
X27103729Y32835551D01*
X27145326Y32835022D01*
X27150060Y32835011D01*
X27237432Y32836336D01*
X27317916Y32840718D01*
X27394409Y32848480D01*
X27469808Y32859944D01*
X27547010Y32875434D01*
X27579320Y32882896D01*
X27708495Y32918606D01*
X27832843Y32962991D01*
X27953142Y33016393D01*
X28070168Y33079151D01*
X28171140Y33142442D01*
X28223926Y33178845D01*
X28271684Y33214194D01*
X28316754Y33250427D01*
X28361471Y33289486D01*
X28408175Y33333309D01*
X28445679Y33370235D01*
X28510408Y33437459D01*
X28567862Y33502627D01*
X28619909Y33568110D01*
X28668419Y33636279D01*
X28715260Y33709503D01*
X28722174Y33720930D01*
X28787243Y33838861D01*
X28842948Y33960172D01*
X28889304Y34084333D01*
X28926324Y34210816D01*
X28954023Y34339092D01*
X28972416Y34468634D01*
X28981516Y34598913D01*
X28981338Y34729399D01*
X28971897Y34859565D01*
X28953207Y34988883D01*
X28925282Y35116823D01*
X28888137Y35242857D01*
X28841786Y35366457D01*
X28786243Y35487095D01*
X28721523Y35604241D01*
X28668660Y35687000D01*
X28588531Y35796387D01*
X28501209Y35898838D01*
X28407152Y35994082D01*
X28306820Y36081850D01*
X28200672Y36161874D01*
X28089167Y36233883D01*
X27972764Y36297608D01*
X27851923Y36352781D01*
X27727103Y36399130D01*
X27598764Y36436388D01*
X27467363Y36464284D01*
X27333361Y36482550D01*
X27308656Y36484824D01*
X27259389Y36487855D01*
X27203428Y36489319D01*
X27203428Y36673957D01*
X27240956Y36673552D01*
X27381259Y36662249D01*
X27521478Y36641007D01*
X27566966Y36631937D01*
X27703828Y36597940D01*
X27836782Y36554808D01*
X27965475Y36502905D01*
X28089559Y36442595D01*
X28208683Y36374241D01*
X28322495Y36298207D01*
X28430646Y36214858D01*
X28532785Y36124556D01*
X28628561Y36027667D01*
X28717624Y35924552D01*
X28799623Y35815577D01*
X28874208Y35701105D01*
X28941028Y35581501D01*
X28999732Y35457126D01*
X29049970Y35328347D01*
X29091392Y35195526D01*
X29123646Y35059026D01*
X29133424Y35006280D01*
X29140412Y34964495D01*
X29146029Y34927889D01*
X29150421Y34894512D01*
X29153733Y34862415D01*
X29156112Y34829647D01*
X29157702Y34794259D01*
X29158650Y34754300D01*
X29159100Y34707822D01*
X29159200Y34660840D01*
X29159074Y34607953D01*
G36*
X27602121Y22329006D02*
X27601952Y22292802D01*
X27601688Y22261249D01*
X27601344Y22235546D01*
X27600934Y22216889D01*
X27600473Y22206474D01*
X27600177Y22204680D01*
X27594394Y22206454D01*
X27579816Y22211598D01*
X27557135Y22219851D01*
X27527046Y22230950D01*
X27490240Y22244630D01*
X27447410Y22260629D01*
X27399249Y22278685D01*
X27346451Y22298534D01*
X27289707Y22319913D01*
X27229711Y22342559D01*
X27167156Y22366209D01*
X27102734Y22390600D01*
X27037138Y22415469D01*
X26971061Y22440553D01*
X26905196Y22465589D01*
X26840235Y22490314D01*
X26776872Y22514464D01*
X26715800Y22537778D01*
X26657710Y22559991D01*
X26603296Y22580841D01*
X26553251Y22600064D01*
X26508268Y22617399D01*
X26469039Y22632581D01*
X26436257Y22645348D01*
X26410616Y22655436D01*
X26392807Y22662583D01*
X26383524Y22666525D01*
X26382980Y22666788D01*
X26326786Y22698753D01*
X26280162Y22733553D01*
X26242840Y22771484D01*
X26214552Y22812844D01*
X26195031Y22857931D01*
X26188274Y22882860D01*
X26182235Y22919523D01*
X26178592Y22961603D01*
X26177558Y23004596D01*
X26179344Y23043995D01*
X26180278Y23052934D01*
X26189612Y23105931D01*
X26205389Y23158925D01*
X26211336Y23174960D01*
X26220117Y23196399D01*
X26229698Y23217673D01*
X26239053Y23236741D01*
X26247155Y23251563D01*
X26252978Y23260098D01*
X26254784Y23261374D01*
X26261106Y23259313D01*
X26274773Y23253558D01*
X26294255Y23244839D01*
X26318028Y23233887D01*
X26344563Y23221434D01*
X26372334Y23208211D01*
X26399813Y23194950D01*
X26425475Y23182380D01*
X26447792Y23171235D01*
X26465237Y23162244D01*
X26476283Y23156139D01*
X26479500Y23153759D01*
X26477357Y23147019D01*
X26471841Y23134485D01*
X26466758Y23124077D01*
X26449831Y23082824D01*
X26441044Y23042644D01*
X26440643Y23005089D01*
X26444531Y22984460D01*
X26452271Y22967912D01*
X26465274Y22950547D01*
X26480773Y22935349D01*
X26495995Y22925297D01*
X26501243Y22923419D01*
X26508080Y22924805D01*
X26524337Y22929997D01*
X26550012Y22938994D01*
X26585104Y22951796D01*
X26629613Y22968402D01*
X26683536Y22988813D01*
X26746873Y23013027D01*
X26819624Y23041044D01*
X26901786Y23072865D01*
X26993360Y23108488D01*
X27052703Y23131640D01*
X27123449Y23159253D01*
X27191572Y23185811D01*
X27256471Y23211082D01*
X27317547Y23234834D01*
X27374201Y23256835D01*
X27425834Y23276852D01*
X27471844Y23294653D01*
X27511633Y23310007D01*
X27544602Y23322681D01*
X27570149Y23332443D01*
X27587677Y23339060D01*
X27596585Y23342301D01*
X27597603Y23342600D01*
X27598845Y23337656D01*
X27599843Y23323359D01*
X27600581Y23300514D01*
X27601042Y23269926D01*
X27601210Y23232401D01*
X27601068Y23188742D01*
X27600980Y23176652D01*
X27599640Y23010704D01*
X27234432Y22888970D01*
X26869224Y22767235D01*
X27127752Y22684193D01*
X27181270Y22667011D01*
X27235417Y22649642D01*
X27288742Y22632552D01*
X27339791Y22616206D01*
X27387111Y22601067D01*
X27429251Y22587602D01*
X27464757Y22576275D01*
X27492176Y22567552D01*
X27494230Y22566900D01*
X27602180Y22532649D01*
X27602180Y22368665D01*
X27602121Y22329006D01*
X27602121Y22329006D01*
G37*
X27602121Y22329006D02*
X27601952Y22292802D01*
X27601688Y22261249D01*
X27601344Y22235546D01*
X27600934Y22216889D01*
X27600473Y22206474D01*
X27600177Y22204680D01*
X27594394Y22206454D01*
X27579816Y22211598D01*
X27557135Y22219851D01*
X27527046Y22230950D01*
X27490240Y22244630D01*
X27447410Y22260629D01*
X27399249Y22278685D01*
X27346451Y22298534D01*
X27289707Y22319913D01*
X27229711Y22342559D01*
X27167156Y22366209D01*
X27102734Y22390600D01*
X27037138Y22415469D01*
X26971061Y22440553D01*
X26905196Y22465589D01*
X26840235Y22490314D01*
X26776872Y22514464D01*
X26715800Y22537778D01*
X26657710Y22559991D01*
X26603296Y22580841D01*
X26553251Y22600064D01*
X26508268Y22617399D01*
X26469039Y22632581D01*
X26436257Y22645348D01*
X26410616Y22655436D01*
X26392807Y22662583D01*
X26383524Y22666525D01*
X26382980Y22666788D01*
X26326786Y22698753D01*
X26280162Y22733553D01*
X26242840Y22771484D01*
X26214552Y22812844D01*
X26195031Y22857931D01*
X26188274Y22882860D01*
X26182235Y22919523D01*
X26178592Y22961603D01*
X26177558Y23004596D01*
X26179344Y23043995D01*
X26180278Y23052934D01*
X26189612Y23105931D01*
X26205389Y23158925D01*
X26211336Y23174960D01*
X26220117Y23196399D01*
X26229698Y23217673D01*
X26239053Y23236741D01*
X26247155Y23251563D01*
X26252978Y23260098D01*
X26254784Y23261374D01*
X26261106Y23259313D01*
X26274773Y23253558D01*
X26294255Y23244839D01*
X26318028Y23233887D01*
X26344563Y23221434D01*
X26372334Y23208211D01*
X26399813Y23194950D01*
X26425475Y23182380D01*
X26447792Y23171235D01*
X26465237Y23162244D01*
X26476283Y23156139D01*
X26479500Y23153759D01*
X26477357Y23147019D01*
X26471841Y23134485D01*
X26466758Y23124077D01*
X26449831Y23082824D01*
X26441044Y23042644D01*
X26440643Y23005089D01*
X26444531Y22984460D01*
X26452271Y22967912D01*
X26465274Y22950547D01*
X26480773Y22935349D01*
X26495995Y22925297D01*
X26501243Y22923419D01*
X26508080Y22924805D01*
X26524337Y22929997D01*
X26550012Y22938994D01*
X26585104Y22951796D01*
X26629613Y22968402D01*
X26683536Y22988813D01*
X26746873Y23013027D01*
X26819624Y23041044D01*
X26901786Y23072865D01*
X26993360Y23108488D01*
X27052703Y23131640D01*
X27123449Y23159253D01*
X27191572Y23185811D01*
X27256471Y23211082D01*
X27317547Y23234834D01*
X27374201Y23256835D01*
X27425834Y23276852D01*
X27471844Y23294653D01*
X27511633Y23310007D01*
X27544602Y23322681D01*
X27570149Y23332443D01*
X27587677Y23339060D01*
X27596585Y23342301D01*
X27597603Y23342600D01*
X27598845Y23337656D01*
X27599843Y23323359D01*
X27600581Y23300514D01*
X27601042Y23269926D01*
X27601210Y23232401D01*
X27601068Y23188742D01*
X27600980Y23176652D01*
X27599640Y23010704D01*
X27234432Y22888970D01*
X26869224Y22767235D01*
X27127752Y22684193D01*
X27181270Y22667011D01*
X27235417Y22649642D01*
X27288742Y22632552D01*
X27339791Y22616206D01*
X27387111Y22601067D01*
X27429251Y22587602D01*
X27464757Y22576275D01*
X27492176Y22567552D01*
X27494230Y22566900D01*
X27602180Y22532649D01*
X27602180Y22368665D01*
X27602121Y22329006D01*
G36*
X27619528Y31691152D02*
X27609386Y31621471D01*
X27592182Y31557676D01*
X27567515Y31498711D01*
X27534982Y31443516D01*
X27494180Y31391033D01*
X27469805Y31364710D01*
X27438323Y31332480D01*
X27407222Y31362463D01*
X27393282Y31375783D01*
X27373783Y31394255D01*
X27350601Y31416107D01*
X27325616Y31439568D01*
X27303833Y31459948D01*
X27231545Y31527451D01*
X27263094Y31562259D01*
X27295546Y31601367D01*
X27319663Y31638564D01*
X27336438Y31675963D01*
X27346867Y31715676D01*
X27351221Y31749456D01*
X27350787Y31800900D01*
X27340821Y31848834D01*
X27321357Y31893165D01*
X27292433Y31933800D01*
X27272394Y31954645D01*
X27230824Y31987695D01*
X27185214Y32011965D01*
X27134884Y32027707D01*
X27079155Y32035175D01*
X27053540Y32035904D01*
X26996081Y32031476D01*
X26942664Y32018366D01*
X26894044Y31996866D01*
X26850976Y31967270D01*
X26832349Y31950125D01*
X26801569Y31913558D01*
X26779422Y31874227D01*
X26765374Y31830743D01*
X26758891Y31781717D01*
X26758300Y31757456D01*
X26762435Y31708797D01*
X26774765Y31662376D01*
X26795807Y31616883D01*
X26826084Y31571008D01*
X26838660Y31554986D01*
X26851171Y31539486D01*
X26861550Y31526358D01*
X26867756Y31518187D01*
X26868120Y31517667D01*
X26868246Y31513863D01*
X26864574Y31507237D01*
X26856453Y31497065D01*
X26843231Y31482620D01*
X26824258Y31463180D01*
X26798881Y31438018D01*
X26779549Y31419132D01*
X26685897Y31328002D01*
X26656045Y31357391D01*
X26617483Y31399351D01*
X26581961Y31445736D01*
X26551062Y31494121D01*
X26526369Y31542081D01*
X26512643Y31577009D01*
X26501228Y31619819D01*
X26492648Y31669359D01*
X26487115Y31722540D01*
X26484839Y31776279D01*
X26486029Y31827487D01*
X26490897Y31873079D01*
X26492012Y31879540D01*
X26510108Y31952376D01*
X26536771Y32021596D01*
X26571395Y32086193D01*
X26613375Y32145158D01*
X26662107Y32197482D01*
X26703560Y32232393D01*
X26765485Y32272992D01*
X26831037Y32304723D01*
X26899305Y32327686D01*
X26969378Y32341980D01*
X27040343Y32347704D01*
X27111289Y32344956D01*
X27181304Y32333835D01*
X27249476Y32314441D01*
X27314894Y32286873D01*
X27376646Y32251229D01*
X27433819Y32207608D01*
X27485502Y32156110D01*
X27493634Y32146631D01*
X27537083Y32087598D01*
X27571500Y32024776D01*
X27597035Y31957722D01*
X27613841Y31885993D01*
X27622069Y31809145D01*
X27623011Y31767780D01*
X27619528Y31691152D01*
X27619528Y31691152D01*
G37*
X27619528Y31691152D02*
X27609386Y31621471D01*
X27592182Y31557676D01*
X27567515Y31498711D01*
X27534982Y31443516D01*
X27494180Y31391033D01*
X27469805Y31364710D01*
X27438323Y31332480D01*
X27407222Y31362463D01*
X27393282Y31375783D01*
X27373783Y31394255D01*
X27350601Y31416107D01*
X27325616Y31439568D01*
X27303833Y31459948D01*
X27231545Y31527451D01*
X27263094Y31562259D01*
X27295546Y31601367D01*
X27319663Y31638564D01*
X27336438Y31675963D01*
X27346867Y31715676D01*
X27351221Y31749456D01*
X27350787Y31800900D01*
X27340821Y31848834D01*
X27321357Y31893165D01*
X27292433Y31933800D01*
X27272394Y31954645D01*
X27230824Y31987695D01*
X27185214Y32011965D01*
X27134884Y32027707D01*
X27079155Y32035175D01*
X27053540Y32035904D01*
X26996081Y32031476D01*
X26942664Y32018366D01*
X26894044Y31996866D01*
X26850976Y31967270D01*
X26832349Y31950125D01*
X26801569Y31913558D01*
X26779422Y31874227D01*
X26765374Y31830743D01*
X26758891Y31781717D01*
X26758300Y31757456D01*
X26762435Y31708797D01*
X26774765Y31662376D01*
X26795807Y31616883D01*
X26826084Y31571008D01*
X26838660Y31554986D01*
X26851171Y31539486D01*
X26861550Y31526358D01*
X26867756Y31518187D01*
X26868120Y31517667D01*
X26868246Y31513863D01*
X26864574Y31507237D01*
X26856453Y31497065D01*
X26843231Y31482620D01*
X26824258Y31463180D01*
X26798881Y31438018D01*
X26779549Y31419132D01*
X26685897Y31328002D01*
X26656045Y31357391D01*
X26617483Y31399351D01*
X26581961Y31445736D01*
X26551062Y31494121D01*
X26526369Y31542081D01*
X26512643Y31577009D01*
X26501228Y31619819D01*
X26492648Y31669359D01*
X26487115Y31722540D01*
X26484839Y31776279D01*
X26486029Y31827487D01*
X26490897Y31873079D01*
X26492012Y31879540D01*
X26510108Y31952376D01*
X26536771Y32021596D01*
X26571395Y32086193D01*
X26613375Y32145158D01*
X26662107Y32197482D01*
X26703560Y32232393D01*
X26765485Y32272992D01*
X26831037Y32304723D01*
X26899305Y32327686D01*
X26969378Y32341980D01*
X27040343Y32347704D01*
X27111289Y32344956D01*
X27181304Y32333835D01*
X27249476Y32314441D01*
X27314894Y32286873D01*
X27376646Y32251229D01*
X27433819Y32207608D01*
X27485502Y32156110D01*
X27493634Y32146631D01*
X27537083Y32087598D01*
X27571500Y32024776D01*
X27597035Y31957722D01*
X27613841Y31885993D01*
X27622069Y31809145D01*
X27623011Y31767780D01*
X27619528Y31691152D01*
G36*
X27622020Y30645418D02*
X27618840Y30605648D01*
X27614842Y30578087D01*
X27595823Y30501655D01*
X27568579Y30430234D01*
X27533551Y30364353D01*
X27491181Y30304536D01*
X27441911Y30251310D01*
X27386184Y30205204D01*
X27324440Y30166742D01*
X27257121Y30136452D01*
X27238960Y30130047D01*
X27170367Y30112137D01*
X27099255Y30102899D01*
X27027258Y30102221D01*
X26956006Y30109990D01*
X26887130Y30126094D01*
X26822261Y30150421D01*
X26802420Y30160025D01*
X26735994Y30199608D01*
X26676659Y30246399D01*
X26624623Y30300132D01*
X26580099Y30360536D01*
X26543298Y30427345D01*
X26514430Y30500289D01*
X26502299Y30541807D01*
X26496785Y30564687D01*
X26492828Y30585709D01*
X26490112Y30607642D01*
X26488323Y30633257D01*
X26487147Y30665323D01*
X26486833Y30678120D01*
X26486461Y30724511D01*
X26487695Y30762280D01*
X26490598Y30792849D01*
X26492227Y30803309D01*
X26510423Y30879584D01*
X26536980Y30950886D01*
X26571378Y31016718D01*
X26613097Y31076586D01*
X26661614Y31129991D01*
X26716410Y31176437D01*
X26776963Y31215428D01*
X26842753Y31246468D01*
X26913260Y31269058D01*
X26987962Y31282704D01*
X26995922Y31283587D01*
X27048969Y31285523D01*
X27048969Y30974416D01*
X26996356Y30968907D01*
X26945961Y30955343D01*
X26899234Y30933899D01*
X26857624Y30904750D01*
X26849995Y30897965D01*
X26820165Y30867411D01*
X26797509Y30836854D01*
X26779618Y30802909D01*
X26775524Y30793293D01*
X26764623Y30756484D01*
X26758954Y30714426D01*
X26758558Y30670600D01*
X26763476Y30628492D01*
X26773204Y30592995D01*
X26796256Y30545327D01*
X26826405Y30504517D01*
X26863192Y30471086D01*
X26902080Y30447498D01*
X26940550Y30430943D01*
X26977180Y30420460D01*
X27016047Y30415130D01*
X27051000Y30413960D01*
X27108740Y30418039D01*
X27160827Y30430403D01*
X27207749Y30451240D01*
X27249992Y30480739D01*
X27269697Y30498985D01*
X27303864Y30540318D01*
X27329045Y30585693D01*
X27345106Y30634163D01*
X27351911Y30684781D01*
X27349327Y30736601D01*
X27337218Y30788676D01*
X27317626Y30835845D01*
X27303378Y30857562D01*
X27282575Y30881292D01*
X27257800Y30904614D01*
X27231639Y30925103D01*
X27206675Y30940338D01*
X27205612Y30940865D01*
X27155047Y30960570D01*
X27102349Y30971696D01*
X27048969Y30974416D01*
X27048969Y31285523D01*
X27068266Y31286228D01*
X27140844Y31279458D01*
X27212102Y31263665D01*
X27280484Y31239233D01*
X27344434Y31206549D01*
X27368731Y31191044D01*
X27396813Y31169830D01*
X27427719Y31142947D01*
X27458581Y31113143D01*
X27486534Y31083167D01*
X27506035Y31059380D01*
X27539513Y31008449D01*
X27569044Y30950594D01*
X27593391Y30888687D01*
X27611318Y30825594D01*
X27615550Y30805339D01*
X27620066Y30771936D01*
X27622643Y30731914D01*
X27623291Y30688624D01*
X27622020Y30645418D01*
X27622020Y30645418D01*
G37*
X27622020Y30645418D02*
X27618840Y30605648D01*
X27614842Y30578087D01*
X27595823Y30501655D01*
X27568579Y30430234D01*
X27533551Y30364353D01*
X27491181Y30304536D01*
X27441911Y30251310D01*
X27386184Y30205204D01*
X27324440Y30166742D01*
X27257121Y30136452D01*
X27238960Y30130047D01*
X27170367Y30112137D01*
X27099255Y30102899D01*
X27027258Y30102221D01*
X26956006Y30109990D01*
X26887130Y30126094D01*
X26822261Y30150421D01*
X26802420Y30160025D01*
X26735994Y30199608D01*
X26676659Y30246399D01*
X26624623Y30300132D01*
X26580099Y30360536D01*
X26543298Y30427345D01*
X26514430Y30500289D01*
X26502299Y30541807D01*
X26496785Y30564687D01*
X26492828Y30585709D01*
X26490112Y30607642D01*
X26488323Y30633257D01*
X26487147Y30665323D01*
X26486833Y30678120D01*
X26486461Y30724511D01*
X26487695Y30762280D01*
X26490598Y30792849D01*
X26492227Y30803309D01*
X26510423Y30879584D01*
X26536980Y30950886D01*
X26571378Y31016718D01*
X26613097Y31076586D01*
X26661614Y31129991D01*
X26716410Y31176437D01*
X26776963Y31215428D01*
X26842753Y31246468D01*
X26913260Y31269058D01*
X26987962Y31282704D01*
X26995922Y31283587D01*
X27048969Y31285523D01*
X27048969Y30974416D01*
X26996356Y30968907D01*
X26945961Y30955343D01*
X26899234Y30933899D01*
X26857624Y30904750D01*
X26849995Y30897965D01*
X26820165Y30867411D01*
X26797509Y30836854D01*
X26779618Y30802909D01*
X26775524Y30793293D01*
X26764623Y30756484D01*
X26758954Y30714426D01*
X26758558Y30670600D01*
X26763476Y30628492D01*
X26773204Y30592995D01*
X26796256Y30545327D01*
X26826405Y30504517D01*
X26863192Y30471086D01*
X26902080Y30447498D01*
X26940550Y30430943D01*
X26977180Y30420460D01*
X27016047Y30415130D01*
X27051000Y30413960D01*
X27108740Y30418039D01*
X27160827Y30430403D01*
X27207749Y30451240D01*
X27249992Y30480739D01*
X27269697Y30498985D01*
X27303864Y30540318D01*
X27329045Y30585693D01*
X27345106Y30634163D01*
X27351911Y30684781D01*
X27349327Y30736601D01*
X27337218Y30788676D01*
X27317626Y30835845D01*
X27303378Y30857562D01*
X27282575Y30881292D01*
X27257800Y30904614D01*
X27231639Y30925103D01*
X27206675Y30940338D01*
X27205612Y30940865D01*
X27155047Y30960570D01*
X27102349Y30971696D01*
X27048969Y30974416D01*
X27048969Y31285523D01*
X27068266Y31286228D01*
X27140844Y31279458D01*
X27212102Y31263665D01*
X27280484Y31239233D01*
X27344434Y31206549D01*
X27368731Y31191044D01*
X27396813Y31169830D01*
X27427719Y31142947D01*
X27458581Y31113143D01*
X27486534Y31083167D01*
X27506035Y31059380D01*
X27539513Y31008449D01*
X27569044Y30950594D01*
X27593391Y30888687D01*
X27611318Y30825594D01*
X27615550Y30805339D01*
X27620066Y30771936D01*
X27622643Y30731914D01*
X27623291Y30688624D01*
X27622020Y30645418D01*
G36*
X27620899Y27249719D02*
X27617917Y27208604D01*
X27613327Y27172029D01*
X27607786Y27144980D01*
X27585080Y27078344D01*
X27553960Y27017171D01*
X27514757Y26961750D01*
X27467803Y26912371D01*
X27413427Y26869323D01*
X27351959Y26832895D01*
X27283731Y26803376D01*
X27209073Y26781054D01*
X27185801Y26775873D01*
X27166350Y26772698D01*
X27140901Y26769754D01*
X27111390Y26767139D01*
X27079757Y26764947D01*
X27047938Y26763277D01*
X27017870Y26762225D01*
X26991492Y26761887D01*
X26970740Y26762360D01*
X26957552Y26763741D01*
X26955288Y26764374D01*
X26953699Y26765586D01*
X26952322Y26768371D01*
X26951142Y26773407D01*
X26950143Y26781371D01*
X26949312Y26792940D01*
X26948632Y26808793D01*
X26948089Y26829607D01*
X26947668Y26856060D01*
X26947354Y26888829D01*
X26947132Y26928593D01*
X26946986Y26976029D01*
X26946903Y27031815D01*
X26946866Y27096628D01*
X26946860Y27145524D01*
X26946844Y27206484D01*
X26946796Y27264397D01*
X26946719Y27318474D01*
X26946616Y27367927D01*
X26946489Y27411967D01*
X26946341Y27449806D01*
X26946176Y27480655D01*
X26945994Y27503727D01*
X26945800Y27518232D01*
X26945595Y27523383D01*
X26945590Y27523386D01*
X26935278Y27521099D01*
X26918839Y27515561D01*
X26899292Y27507943D01*
X26879658Y27499413D01*
X26864346Y27491893D01*
X26824725Y27465286D01*
X26792335Y27431798D01*
X26767414Y27391917D01*
X26750202Y27346131D01*
X26740935Y27294929D01*
X26739851Y27238798D01*
X26739971Y27236635D01*
X26747512Y27181183D01*
X26763798Y27128607D01*
X26789285Y27077799D01*
X26824426Y27027655D01*
X26827579Y27023748D01*
X26850905Y26995112D01*
X26773153Y26906578D01*
X26750826Y26881395D01*
X26730535Y26858968D01*
X26713289Y26840371D01*
X26700096Y26826684D01*
X26691964Y26818982D01*
X26689970Y26817682D01*
X26683718Y26821118D01*
X26672393Y26830844D01*
X26657422Y26845343D01*
X26640234Y26863096D01*
X26622255Y26882586D01*
X26604912Y26902294D01*
X26589634Y26920703D01*
X26577847Y26936295D01*
X26576239Y26938637D01*
X26541130Y26999749D01*
X26514020Y27066621D01*
X26495251Y27138334D01*
X26489837Y27170380D01*
X26486955Y27200321D01*
X26485528Y27236837D01*
X26485511Y27276456D01*
X26486857Y27315705D01*
X26489522Y27351110D01*
X26492500Y27373900D01*
X26509650Y27448340D01*
X26535231Y27517232D01*
X26569449Y27580993D01*
X26612510Y27640039D01*
X26638489Y27669043D01*
X26692984Y27718803D01*
X26753110Y27760145D01*
X26818619Y27792940D01*
X26889267Y27817058D01*
X26941780Y27828732D01*
X26972112Y27832512D01*
X27009196Y27834712D01*
X27049878Y27835361D01*
X27091002Y27834486D01*
X27129415Y27832115D01*
X27144980Y27830280D01*
X27144980Y27527569D01*
X27144980Y27299445D01*
X27145000Y27245287D01*
X27145082Y27200421D01*
X27145260Y27163976D01*
X27145567Y27135086D01*
X27146039Y27112881D01*
X27146707Y27096492D01*
X27147607Y27085051D01*
X27148773Y27077689D01*
X27150237Y27073538D01*
X27152035Y27071727D01*
X27153870Y27071381D01*
X27168689Y27073405D01*
X27189399Y27078659D01*
X27212659Y27086137D01*
X27235126Y27094831D01*
X27242320Y27098038D01*
X27284056Y27121964D01*
X27317268Y27151088D01*
X27342463Y27185953D01*
X27358771Y27222889D01*
X27364055Y27240693D01*
X27367080Y27257653D01*
X27368217Y27277265D01*
X27367839Y27303027D01*
X27367698Y27307003D01*
X27366425Y27332270D01*
X27364328Y27350757D01*
X27360680Y27365846D01*
X27354758Y27380917D01*
X27349441Y27392109D01*
X27325606Y27429211D01*
X27293261Y27461668D01*
X27253192Y27488940D01*
X27206186Y27510486D01*
X27156410Y27525027D01*
X27144980Y27527569D01*
X27144980Y27830280D01*
X27161962Y27828277D01*
X27170858Y27826697D01*
X27246103Y27807129D01*
X27316010Y27779531D01*
X27380099Y27744364D01*
X27437887Y27702088D01*
X27488893Y27653164D01*
X27532636Y27598053D01*
X27568634Y27537213D01*
X27596405Y27471107D01*
X27615105Y27402000D01*
X27619376Y27371516D01*
X27621710Y27334055D01*
X27622190Y27292496D01*
X27620899Y27249719D01*
X27620899Y27249719D01*
G37*
X27620899Y27249719D02*
X27617917Y27208604D01*
X27613327Y27172029D01*
X27607786Y27144980D01*
X27585080Y27078344D01*
X27553960Y27017171D01*
X27514757Y26961750D01*
X27467803Y26912371D01*
X27413427Y26869323D01*
X27351959Y26832895D01*
X27283731Y26803376D01*
X27209073Y26781054D01*
X27185801Y26775873D01*
X27166350Y26772698D01*
X27140901Y26769754D01*
X27111390Y26767139D01*
X27079757Y26764947D01*
X27047938Y26763277D01*
X27017870Y26762225D01*
X26991492Y26761887D01*
X26970740Y26762360D01*
X26957552Y26763741D01*
X26955288Y26764374D01*
X26953699Y26765586D01*
X26952322Y26768371D01*
X26951142Y26773407D01*
X26950143Y26781371D01*
X26949312Y26792940D01*
X26948632Y26808793D01*
X26948089Y26829607D01*
X26947668Y26856060D01*
X26947354Y26888829D01*
X26947132Y26928593D01*
X26946986Y26976029D01*
X26946903Y27031815D01*
X26946866Y27096628D01*
X26946860Y27145524D01*
X26946844Y27206484D01*
X26946796Y27264397D01*
X26946719Y27318474D01*
X26946616Y27367927D01*
X26946489Y27411967D01*
X26946341Y27449806D01*
X26946176Y27480655D01*
X26945994Y27503727D01*
X26945800Y27518232D01*
X26945595Y27523383D01*
X26945590Y27523386D01*
X26935278Y27521099D01*
X26918839Y27515561D01*
X26899292Y27507943D01*
X26879658Y27499413D01*
X26864346Y27491893D01*
X26824725Y27465286D01*
X26792335Y27431798D01*
X26767414Y27391917D01*
X26750202Y27346131D01*
X26740935Y27294929D01*
X26739851Y27238798D01*
X26739971Y27236635D01*
X26747512Y27181183D01*
X26763798Y27128607D01*
X26789285Y27077799D01*
X26824426Y27027655D01*
X26827579Y27023748D01*
X26850905Y26995112D01*
X26773153Y26906578D01*
X26750826Y26881395D01*
X26730535Y26858968D01*
X26713289Y26840371D01*
X26700096Y26826684D01*
X26691964Y26818982D01*
X26689970Y26817682D01*
X26683718Y26821118D01*
X26672393Y26830844D01*
X26657422Y26845343D01*
X26640234Y26863096D01*
X26622255Y26882586D01*
X26604912Y26902294D01*
X26589634Y26920703D01*
X26577847Y26936295D01*
X26576239Y26938637D01*
X26541130Y26999749D01*
X26514020Y27066621D01*
X26495251Y27138334D01*
X26489837Y27170380D01*
X26486955Y27200321D01*
X26485528Y27236837D01*
X26485511Y27276456D01*
X26486857Y27315705D01*
X26489522Y27351110D01*
X26492500Y27373900D01*
X26509650Y27448340D01*
X26535231Y27517232D01*
X26569449Y27580993D01*
X26612510Y27640039D01*
X26638489Y27669043D01*
X26692984Y27718803D01*
X26753110Y27760145D01*
X26818619Y27792940D01*
X26889267Y27817058D01*
X26941780Y27828732D01*
X26972112Y27832512D01*
X27009196Y27834712D01*
X27049878Y27835361D01*
X27091002Y27834486D01*
X27129415Y27832115D01*
X27144980Y27830280D01*
X27144980Y27527569D01*
X27144980Y27299445D01*
X27145000Y27245287D01*
X27145082Y27200421D01*
X27145260Y27163976D01*
X27145567Y27135086D01*
X27146039Y27112881D01*
X27146707Y27096492D01*
X27147607Y27085051D01*
X27148773Y27077689D01*
X27150237Y27073538D01*
X27152035Y27071727D01*
X27153870Y27071381D01*
X27168689Y27073405D01*
X27189399Y27078659D01*
X27212659Y27086137D01*
X27235126Y27094831D01*
X27242320Y27098038D01*
X27284056Y27121964D01*
X27317268Y27151088D01*
X27342463Y27185953D01*
X27358771Y27222889D01*
X27364055Y27240693D01*
X27367080Y27257653D01*
X27368217Y27277265D01*
X27367839Y27303027D01*
X27367698Y27307003D01*
X27366425Y27332270D01*
X27364328Y27350757D01*
X27360680Y27365846D01*
X27354758Y27380917D01*
X27349441Y27392109D01*
X27325606Y27429211D01*
X27293261Y27461668D01*
X27253192Y27488940D01*
X27206186Y27510486D01*
X27156410Y27525027D01*
X27144980Y27527569D01*
X27144980Y27830280D01*
X27161962Y27828277D01*
X27170858Y27826697D01*
X27246103Y27807129D01*
X27316010Y27779531D01*
X27380099Y27744364D01*
X27437887Y27702088D01*
X27488893Y27653164D01*
X27532636Y27598053D01*
X27568634Y27537213D01*
X27596405Y27471107D01*
X27615105Y27402000D01*
X27619376Y27371516D01*
X27621710Y27334055D01*
X27622190Y27292496D01*
X27620899Y27249719D01*
G36*
X27619427Y28327827D02*
X27611738Y28257474D01*
X27596350Y28184793D01*
X27573114Y28110407D01*
X27572106Y28107640D01*
X27563553Y28086260D01*
X27552648Y28061863D01*
X27540380Y28036350D01*
X27527733Y28011621D01*
X27515694Y27989577D01*
X27505251Y27972117D01*
X27497390Y27961142D01*
X27494777Y27958705D01*
X27488483Y27959156D01*
X27475064Y27964228D01*
X27454150Y27974096D01*
X27425373Y27988935D01*
X27388364Y28008920D01*
X27383671Y28011497D01*
X27354143Y28027757D01*
X27327687Y28042365D01*
X27305571Y28054619D01*
X27289062Y28063816D01*
X27279427Y28069252D01*
X27277470Y28070418D01*
X27278806Y28075329D01*
X27283895Y28087756D01*
X27292030Y28106086D01*
X27302504Y28128705D01*
X27308793Y28141944D01*
X27321935Y28170239D01*
X27334628Y28199088D01*
X27345614Y28225536D01*
X27353639Y28246628D01*
X27355098Y28250909D01*
X27367607Y28296456D01*
X27374471Y28338801D01*
X27375875Y28377101D01*
X27372008Y28410513D01*
X27363055Y28438195D01*
X27349204Y28459302D01*
X27330640Y28472993D01*
X27307551Y28478424D01*
X27304705Y28478480D01*
X27284326Y28475551D01*
X27267879Y28465825D01*
X27253954Y28449993D01*
X27238620Y28424696D01*
X27221817Y28389802D01*
X27203484Y28345182D01*
X27183557Y28290703D01*
X27178235Y28275280D01*
X27156338Y28213952D01*
X27135525Y28161661D01*
X27115324Y28117406D01*
X27095266Y28080183D01*
X27074879Y28048991D01*
X27067228Y28038866D01*
X27031931Y27999813D01*
X26994249Y27969991D01*
X26952972Y27948826D01*
X26906891Y27935744D01*
X26854798Y27930170D01*
X26837843Y27929876D01*
X26776389Y27934254D01*
X26720327Y27947188D01*
X26669838Y27968513D01*
X26625102Y27998063D01*
X26586301Y28035672D01*
X26553615Y28081175D01*
X26527225Y28134406D01*
X26507313Y28195198D01*
X26497412Y28241656D01*
X26494472Y28265263D01*
X26492263Y28295796D01*
X26490853Y28330150D01*
X26490312Y28365219D01*
X26490706Y28397897D01*
X26492105Y28425078D01*
X26493158Y28435300D01*
X26503822Y28495583D01*
X26520080Y28558686D01*
X26540662Y28620294D01*
X26563587Y28674610D01*
X26573636Y28694257D01*
X26586350Y28717047D01*
X26600575Y28741141D01*
X26615160Y28764699D01*
X26628949Y28785883D01*
X26640790Y28802854D01*
X26649531Y28813774D01*
X26652606Y28816539D01*
X26657775Y28814614D01*
X26669961Y28807998D01*
X26687710Y28797610D01*
X26709570Y28784370D01*
X26734087Y28769197D01*
X26759806Y28753009D01*
X26785276Y28736728D01*
X26809041Y28721270D01*
X26829649Y28707557D01*
X26845646Y28696506D01*
X26855579Y28689037D01*
X26858052Y28686613D01*
X26856461Y28681021D01*
X26850322Y28668760D01*
X26840627Y28651677D01*
X26829192Y28632925D01*
X26795266Y28572933D01*
X26767588Y28511437D01*
X26747543Y28451518D01*
X26747505Y28451379D01*
X26742178Y28428973D01*
X26738742Y28406724D01*
X26736855Y28381377D01*
X26736172Y28349674D01*
X26736152Y28343860D01*
X26736277Y28315924D01*
X26736958Y28295888D01*
X26738493Y28281498D01*
X26741176Y28270498D01*
X26745304Y28260632D01*
X26747675Y28256031D01*
X26764680Y28233377D01*
X26786559Y28219308D01*
X26812498Y28214342D01*
X26813121Y28214339D01*
X26831346Y28217054D01*
X26847659Y28225761D01*
X26862641Y28241258D01*
X26876874Y28264341D01*
X26890941Y28295805D01*
X26905423Y28336447D01*
X26907820Y28343860D01*
X26923416Y28392588D01*
X26936339Y28432724D01*
X26946965Y28465369D01*
X26955673Y28491623D01*
X26962839Y28512586D01*
X26968843Y28529358D01*
X26974061Y28543039D01*
X26978871Y28554728D01*
X26983652Y28565527D01*
X26984786Y28568000D01*
X27015017Y28623303D01*
X27050738Y28670064D01*
X27073482Y28692829D01*
X27109344Y28721005D01*
X27146835Y28741405D01*
X27187852Y28754698D01*
X27234294Y28761556D01*
X27271778Y28762885D01*
X27321888Y28760429D01*
X27365536Y28752855D01*
X27405325Y28739631D01*
X27421790Y28732126D01*
X27470291Y28702812D01*
X27512293Y28666189D01*
X27547646Y28622879D01*
X27576199Y28573506D01*
X27597804Y28518691D01*
X27612310Y28459058D01*
X27619568Y28395229D01*
X27619427Y28327827D01*
X27619427Y28327827D01*
G37*
X27619427Y28327827D02*
X27611738Y28257474D01*
X27596350Y28184793D01*
X27573114Y28110407D01*
X27572106Y28107640D01*
X27563553Y28086260D01*
X27552648Y28061863D01*
X27540380Y28036350D01*
X27527733Y28011621D01*
X27515694Y27989577D01*
X27505251Y27972117D01*
X27497390Y27961142D01*
X27494777Y27958705D01*
X27488483Y27959156D01*
X27475064Y27964228D01*
X27454150Y27974096D01*
X27425373Y27988935D01*
X27388364Y28008920D01*
X27383671Y28011497D01*
X27354143Y28027757D01*
X27327687Y28042365D01*
X27305571Y28054619D01*
X27289062Y28063816D01*
X27279427Y28069252D01*
X27277470Y28070418D01*
X27278806Y28075329D01*
X27283895Y28087756D01*
X27292030Y28106086D01*
X27302504Y28128705D01*
X27308793Y28141944D01*
X27321935Y28170239D01*
X27334628Y28199088D01*
X27345614Y28225536D01*
X27353639Y28246628D01*
X27355098Y28250909D01*
X27367607Y28296456D01*
X27374471Y28338801D01*
X27375875Y28377101D01*
X27372008Y28410513D01*
X27363055Y28438195D01*
X27349204Y28459302D01*
X27330640Y28472993D01*
X27307551Y28478424D01*
X27304705Y28478480D01*
X27284326Y28475551D01*
X27267879Y28465825D01*
X27253954Y28449993D01*
X27238620Y28424696D01*
X27221817Y28389802D01*
X27203484Y28345182D01*
X27183557Y28290703D01*
X27178235Y28275280D01*
X27156338Y28213952D01*
X27135525Y28161661D01*
X27115324Y28117406D01*
X27095266Y28080183D01*
X27074879Y28048991D01*
X27067228Y28038866D01*
X27031931Y27999813D01*
X26994249Y27969991D01*
X26952972Y27948826D01*
X26906891Y27935744D01*
X26854798Y27930170D01*
X26837843Y27929876D01*
X26776389Y27934254D01*
X26720327Y27947188D01*
X26669838Y27968513D01*
X26625102Y27998063D01*
X26586301Y28035672D01*
X26553615Y28081175D01*
X26527225Y28134406D01*
X26507313Y28195198D01*
X26497412Y28241656D01*
X26494472Y28265263D01*
X26492263Y28295796D01*
X26490853Y28330150D01*
X26490312Y28365219D01*
X26490706Y28397897D01*
X26492105Y28425078D01*
X26493158Y28435300D01*
X26503822Y28495583D01*
X26520080Y28558686D01*
X26540662Y28620294D01*
X26563587Y28674610D01*
X26573636Y28694257D01*
X26586350Y28717047D01*
X26600575Y28741141D01*
X26615160Y28764699D01*
X26628949Y28785883D01*
X26640790Y28802854D01*
X26649531Y28813774D01*
X26652606Y28816539D01*
X26657775Y28814614D01*
X26669961Y28807998D01*
X26687710Y28797610D01*
X26709570Y28784370D01*
X26734087Y28769197D01*
X26759806Y28753009D01*
X26785276Y28736728D01*
X26809041Y28721270D01*
X26829649Y28707557D01*
X26845646Y28696506D01*
X26855579Y28689037D01*
X26858052Y28686613D01*
X26856461Y28681021D01*
X26850322Y28668760D01*
X26840627Y28651677D01*
X26829192Y28632925D01*
X26795266Y28572933D01*
X26767588Y28511437D01*
X26747543Y28451518D01*
X26747505Y28451379D01*
X26742178Y28428973D01*
X26738742Y28406724D01*
X26736855Y28381377D01*
X26736172Y28349674D01*
X26736152Y28343860D01*
X26736277Y28315924D01*
X26736958Y28295888D01*
X26738493Y28281498D01*
X26741176Y28270498D01*
X26745304Y28260632D01*
X26747675Y28256031D01*
X26764680Y28233377D01*
X26786559Y28219308D01*
X26812498Y28214342D01*
X26813121Y28214339D01*
X26831346Y28217054D01*
X26847659Y28225761D01*
X26862641Y28241258D01*
X26876874Y28264341D01*
X26890941Y28295805D01*
X26905423Y28336447D01*
X26907820Y28343860D01*
X26923416Y28392588D01*
X26936339Y28432724D01*
X26946965Y28465369D01*
X26955673Y28491623D01*
X26962839Y28512586D01*
X26968843Y28529358D01*
X26974061Y28543039D01*
X26978871Y28554728D01*
X26983652Y28565527D01*
X26984786Y28568000D01*
X27015017Y28623303D01*
X27050738Y28670064D01*
X27073482Y28692829D01*
X27109344Y28721005D01*
X27146835Y28741405D01*
X27187852Y28754698D01*
X27234294Y28761556D01*
X27271778Y28762885D01*
X27321888Y28760429D01*
X27365536Y28752855D01*
X27405325Y28739631D01*
X27421790Y28732126D01*
X27470291Y28702812D01*
X27512293Y28666189D01*
X27547646Y28622879D01*
X27576199Y28573506D01*
X27597804Y28518691D01*
X27612310Y28459058D01*
X27619568Y28395229D01*
X27619427Y28327827D01*
G36*
X27572970Y24720626D02*
X27564368Y24723953D01*
X27546953Y24730725D01*
X27521375Y24740688D01*
X27488283Y24753589D01*
X27448327Y24769175D01*
X27402158Y24787190D01*
X27350424Y24807383D01*
X27293777Y24829499D01*
X27232865Y24853285D01*
X27168339Y24878486D01*
X27100848Y24904851D01*
X27031042Y24932124D01*
X27023060Y24935242D01*
X26502360Y25138699D01*
X26501011Y25282179D01*
X26500654Y25324230D01*
X26500504Y25357242D01*
X26500618Y25382337D01*
X26501057Y25400636D01*
X26501877Y25413260D01*
X26503137Y25421329D01*
X26504895Y25425964D01*
X26507209Y25428286D01*
X26508631Y25428944D01*
X26514459Y25431191D01*
X26529143Y25436897D01*
X26552075Y25445826D01*
X26582649Y25457740D01*
X26620256Y25472402D01*
X26664288Y25489576D01*
X26714139Y25509023D01*
X26769200Y25530508D01*
X26828864Y25553793D01*
X26892523Y25578641D01*
X26959570Y25604815D01*
X27029397Y25632079D01*
X27055254Y25642175D01*
X27125831Y25669719D01*
X27193785Y25696207D01*
X27258512Y25721408D01*
X27319413Y25745088D01*
X27375885Y25767014D01*
X27427328Y25786955D01*
X27473142Y25804677D01*
X27512724Y25819947D01*
X27545474Y25832534D01*
X27570791Y25842204D01*
X27588073Y25848724D01*
X27596720Y25851863D01*
X27597613Y25852120D01*
X27598847Y25847178D01*
X27599841Y25832897D01*
X27600577Y25810096D01*
X27601038Y25779595D01*
X27601208Y25742211D01*
X27601071Y25698764D01*
X27600980Y25686172D01*
X27599640Y25520224D01*
X27242048Y25401028D01*
X27177139Y25379312D01*
X27117542Y25359213D01*
X27063769Y25340909D01*
X27016331Y25324581D01*
X26975740Y25310408D01*
X26942507Y25298568D01*
X26917144Y25289243D01*
X26900162Y25282610D01*
X26892073Y25278850D01*
X26891528Y25278100D01*
X26897394Y25275907D01*
X26912117Y25270749D01*
X26934924Y25262889D01*
X26965039Y25252589D01*
X27001688Y25240114D01*
X27044096Y25225726D01*
X27091487Y25209689D01*
X27143087Y25192266D01*
X27198122Y25173721D01*
X27250390Y25156140D01*
X27602180Y25037914D01*
X27602180Y24709466D01*
X27572970Y24720626D01*
X27572970Y24720626D01*
G37*
X27572970Y24720626D02*
X27564368Y24723953D01*
X27546953Y24730725D01*
X27521375Y24740688D01*
X27488283Y24753589D01*
X27448327Y24769175D01*
X27402158Y24787190D01*
X27350424Y24807383D01*
X27293777Y24829499D01*
X27232865Y24853285D01*
X27168339Y24878486D01*
X27100848Y24904851D01*
X27031042Y24932124D01*
X27023060Y24935242D01*
X26502360Y25138699D01*
X26501011Y25282179D01*
X26500654Y25324230D01*
X26500504Y25357242D01*
X26500618Y25382337D01*
X26501057Y25400636D01*
X26501877Y25413260D01*
X26503137Y25421329D01*
X26504895Y25425964D01*
X26507209Y25428286D01*
X26508631Y25428944D01*
X26514459Y25431191D01*
X26529143Y25436897D01*
X26552075Y25445826D01*
X26582649Y25457740D01*
X26620256Y25472402D01*
X26664288Y25489576D01*
X26714139Y25509023D01*
X26769200Y25530508D01*
X26828864Y25553793D01*
X26892523Y25578641D01*
X26959570Y25604815D01*
X27029397Y25632079D01*
X27055254Y25642175D01*
X27125831Y25669719D01*
X27193785Y25696207D01*
X27258512Y25721408D01*
X27319413Y25745088D01*
X27375885Y25767014D01*
X27427328Y25786955D01*
X27473142Y25804677D01*
X27512724Y25819947D01*
X27545474Y25832534D01*
X27570791Y25842204D01*
X27588073Y25848724D01*
X27596720Y25851863D01*
X27597613Y25852120D01*
X27598847Y25847178D01*
X27599841Y25832897D01*
X27600577Y25810096D01*
X27601038Y25779595D01*
X27601208Y25742211D01*
X27601071Y25698764D01*
X27600980Y25686172D01*
X27599640Y25520224D01*
X27242048Y25401028D01*
X27177139Y25379312D01*
X27117542Y25359213D01*
X27063769Y25340909D01*
X27016331Y25324581D01*
X26975740Y25310408D01*
X26942507Y25298568D01*
X26917144Y25289243D01*
X26900162Y25282610D01*
X26892073Y25278850D01*
X26891528Y25278100D01*
X26897394Y25275907D01*
X26912117Y25270749D01*
X26934924Y25262889D01*
X26965039Y25252589D01*
X27001688Y25240114D01*
X27044096Y25225726D01*
X27091487Y25209689D01*
X27143087Y25192266D01*
X27198122Y25173721D01*
X27250390Y25156140D01*
X27602180Y25037914D01*
X27602180Y24709466D01*
X27572970Y24720626D01*
G36*
X27619812Y29286051D02*
X27619226Y29260837D01*
X27617991Y29241376D01*
X27615898Y29225466D01*
X27612737Y29210905D01*
X27608296Y29195489D01*
X27608069Y29194760D01*
X27591025Y29149134D01*
X27569888Y29110237D01*
X27542782Y29074887D01*
X27528520Y29059675D01*
X27484238Y29022011D01*
X27433409Y28992036D01*
X27376250Y28969855D01*
X27316747Y28956173D01*
X27305113Y28955139D01*
X27283774Y28954201D01*
X27253185Y28953367D01*
X27213801Y28952642D01*
X27166075Y28952032D01*
X27110464Y28951543D01*
X27047421Y28951179D01*
X26977401Y28950948D01*
X26900858Y28950855D01*
X26898600Y28950854D01*
X26512520Y28950767D01*
X26511178Y29108324D01*
X26509836Y29265880D01*
X26841581Y29265880D01*
X26910839Y29265895D01*
X26970733Y29265972D01*
X27022058Y29266161D01*
X27065609Y29266511D01*
X27102182Y29267071D01*
X27132572Y29267891D01*
X27157574Y29269019D01*
X27177985Y29270506D01*
X27194599Y29272400D01*
X27208212Y29274751D01*
X27219619Y29277607D01*
X27229617Y29281019D01*
X27238999Y29285036D01*
X27248562Y29289706D01*
X27251681Y29291291D01*
X27280538Y29311245D01*
X27305464Y29338822D01*
X27322168Y29367041D01*
X27328366Y29381471D01*
X27332297Y29394809D01*
X27334457Y29410106D01*
X27335344Y29430416D01*
X27335472Y29448760D01*
X27335169Y29474280D01*
X27333928Y29492693D01*
X27331257Y29507047D01*
X27326663Y29520386D01*
X27322263Y29530272D01*
X27302163Y29564710D01*
X27277551Y29590999D01*
X27252900Y29607616D01*
X27242490Y29613203D01*
X27232733Y29618025D01*
X27222827Y29622138D01*
X27211972Y29625599D01*
X27199366Y29628464D01*
X27184209Y29630789D01*
X27165700Y29632630D01*
X27143038Y29634045D01*
X27115423Y29635089D01*
X27082053Y29635818D01*
X27042128Y29636290D01*
X26994847Y29636559D01*
X26939409Y29636684D01*
X26875013Y29636719D01*
X26839113Y29636720D01*
X26509980Y29636720D01*
X26509980Y29951680D01*
X27602180Y29951680D01*
X27602180Y29636720D01*
X27532330Y29636730D01*
X27462480Y29636739D01*
X27510740Y29586997D01*
X27540531Y29554749D01*
X27563658Y29525745D01*
X27581810Y29497439D01*
X27596674Y29467288D01*
X27606350Y29442840D01*
X27611383Y29428445D01*
X27614997Y29415711D01*
X27617426Y29402519D01*
X27618903Y29386752D01*
X27619661Y29366292D01*
X27619933Y29339021D01*
X27619960Y29319220D01*
X27619812Y29286051D01*
X27619812Y29286051D01*
G37*
X27619812Y29286051D02*
X27619226Y29260837D01*
X27617991Y29241376D01*
X27615898Y29225466D01*
X27612737Y29210905D01*
X27608296Y29195489D01*
X27608069Y29194760D01*
X27591025Y29149134D01*
X27569888Y29110237D01*
X27542782Y29074887D01*
X27528520Y29059675D01*
X27484238Y29022011D01*
X27433409Y28992036D01*
X27376250Y28969855D01*
X27316747Y28956173D01*
X27305113Y28955139D01*
X27283774Y28954201D01*
X27253185Y28953367D01*
X27213801Y28952642D01*
X27166075Y28952032D01*
X27110464Y28951543D01*
X27047421Y28951179D01*
X26977401Y28950948D01*
X26900858Y28950855D01*
X26898600Y28950854D01*
X26512520Y28950767D01*
X26511178Y29108324D01*
X26509836Y29265880D01*
X26841581Y29265880D01*
X26910839Y29265895D01*
X26970733Y29265972D01*
X27022058Y29266161D01*
X27065609Y29266511D01*
X27102182Y29267071D01*
X27132572Y29267891D01*
X27157574Y29269019D01*
X27177985Y29270506D01*
X27194599Y29272400D01*
X27208212Y29274751D01*
X27219619Y29277607D01*
X27229617Y29281019D01*
X27238999Y29285036D01*
X27248562Y29289706D01*
X27251681Y29291291D01*
X27280538Y29311245D01*
X27305464Y29338822D01*
X27322168Y29367041D01*
X27328366Y29381471D01*
X27332297Y29394809D01*
X27334457Y29410106D01*
X27335344Y29430416D01*
X27335472Y29448760D01*
X27335169Y29474280D01*
X27333928Y29492693D01*
X27331257Y29507047D01*
X27326663Y29520386D01*
X27322263Y29530272D01*
X27302163Y29564710D01*
X27277551Y29590999D01*
X27252900Y29607616D01*
X27242490Y29613203D01*
X27232733Y29618025D01*
X27222827Y29622138D01*
X27211972Y29625599D01*
X27199366Y29628464D01*
X27184209Y29630789D01*
X27165700Y29632630D01*
X27143038Y29634045D01*
X27115423Y29635089D01*
X27082053Y29635818D01*
X27042128Y29636290D01*
X26994847Y29636559D01*
X26939409Y29636684D01*
X26875013Y29636719D01*
X26839113Y29636720D01*
X26509980Y29636720D01*
X26509980Y29951680D01*
X27602180Y29951680D01*
X27602180Y29636720D01*
X27532330Y29636730D01*
X27462480Y29636739D01*
X27510740Y29586997D01*
X27540531Y29554749D01*
X27563658Y29525745D01*
X27581810Y29497439D01*
X27596674Y29467288D01*
X27606350Y29442840D01*
X27611383Y29428445D01*
X27614997Y29415711D01*
X27617426Y29402519D01*
X27618903Y29386752D01*
X27619661Y29366292D01*
X27619933Y29339021D01*
X27619960Y29319220D01*
X27619812Y29286051D01*
G36*
X27624617Y25946223D02*
X27621399Y25933400D01*
X27298778Y25933400D01*
X27295298Y25976281D01*
X27286371Y26037099D01*
X27269968Y26091049D01*
X27246010Y26138229D01*
X27214418Y26178737D01*
X27175111Y26212670D01*
X27128011Y26240127D01*
X27073038Y26261205D01*
X27061160Y26264645D01*
X27051601Y26267178D01*
X27042232Y26269308D01*
X27032086Y26271077D01*
X27020197Y26272528D01*
X27005596Y26273703D01*
X26987318Y26274645D01*
X26964396Y26275396D01*
X26935862Y26275998D01*
X26900750Y26276495D01*
X26858093Y26276928D01*
X26806924Y26277340D01*
X26765250Y26277641D01*
X26509980Y26279438D01*
X26509980Y26593800D01*
X27602180Y26593800D01*
X27602180Y26278840D01*
X27401520Y26278610D01*
X27432708Y26261798D01*
X27480716Y26232058D01*
X27523095Y26198009D01*
X27558786Y26160797D01*
X27586728Y26121568D01*
X27605862Y26081468D01*
X27609253Y26071072D01*
X27614451Y26049965D01*
X27619031Y26025161D01*
X27622648Y25999467D01*
X27624957Y25975683D01*
X27625614Y25956616D01*
X27624617Y25946223D01*
X27624617Y25946223D01*
G37*
X27624617Y25946223D02*
X27621399Y25933400D01*
X27298778Y25933400D01*
X27295298Y25976281D01*
X27286371Y26037099D01*
X27269968Y26091049D01*
X27246010Y26138229D01*
X27214418Y26178737D01*
X27175111Y26212670D01*
X27128011Y26240127D01*
X27073038Y26261205D01*
X27061160Y26264645D01*
X27051601Y26267178D01*
X27042232Y26269308D01*
X27032086Y26271077D01*
X27020197Y26272528D01*
X27005596Y26273703D01*
X26987318Y26274645D01*
X26964396Y26275396D01*
X26935862Y26275998D01*
X26900750Y26276495D01*
X26858093Y26276928D01*
X26806924Y26277340D01*
X26765250Y26277641D01*
X26509980Y26279438D01*
X26509980Y26593800D01*
X27602180Y26593800D01*
X27602180Y26278840D01*
X27401520Y26278610D01*
X27432708Y26261798D01*
X27480716Y26232058D01*
X27523095Y26198009D01*
X27558786Y26160797D01*
X27586728Y26121568D01*
X27605862Y26081468D01*
X27609253Y26071072D01*
X27614451Y26049965D01*
X27619031Y26025161D01*
X27622648Y25999467D01*
X27624957Y25975683D01*
X27625614Y25956616D01*
X27624617Y25946223D01*
G36*
X27057351Y24281083D02*
X26512520Y24282305D01*
X26511178Y24439833D01*
X26509836Y24597360D01*
X27602180Y24597360D01*
X27602181Y24438610D01*
X27602181Y24279860D01*
X27057351Y24281083D01*
X27057351Y24281083D01*
G37*
X27057351Y24281083D02*
X26512520Y24282305D01*
X26511178Y24439833D01*
X26509836Y24597360D01*
X27602180Y24597360D01*
X27602181Y24438610D01*
X27602181Y24279860D01*
X27057351Y24281083D01*
G36*
X28010390Y23637240D02*
X28010053Y23597733D01*
X28008946Y23565666D01*
X28006753Y23538331D01*
X28003157Y23513018D01*
X27997842Y23487018D01*
X27990492Y23457622D01*
X27988603Y23450550D01*
X27982789Y23428960D01*
X27850361Y23428960D01*
X27810277Y23428998D01*
X27779247Y23429160D01*
X27756166Y23429523D01*
X27739928Y23430165D01*
X27729428Y23431160D01*
X27723561Y23432586D01*
X27721221Y23434518D01*
X27721302Y23437033D01*
X27721607Y23437850D01*
X27730385Y23464405D01*
X27737828Y23496824D01*
X27743113Y23530824D01*
X27745413Y23561808D01*
X27743453Y23598913D01*
X27735469Y23628251D01*
X27720828Y23650496D01*
X27698898Y23666325D01*
X27669047Y23676416D01*
X27633733Y23681233D01*
X27592201Y23684224D01*
X27590841Y23558942D01*
X27589480Y23433659D01*
X27335480Y23433659D01*
X27334120Y23555770D01*
X27332760Y23677880D01*
X26509980Y23677880D01*
X26509980Y23992840D01*
X27332940Y23992840D01*
X27332940Y24119840D01*
X27592020Y24119840D01*
X27592020Y23994221D01*
X27666950Y23991584D01*
X27699721Y23989866D01*
X27731602Y23987184D01*
X27759484Y23983850D01*
X27779980Y23980240D01*
X27834248Y23963455D01*
X27881329Y23939497D01*
X27921320Y23908274D01*
X27954318Y23869694D01*
X27980419Y23823663D01*
X27999721Y23770090D01*
X27999732Y23770050D01*
X28003722Y23754305D01*
X28006605Y23738820D01*
X28008546Y23721520D01*
X28009714Y23700330D01*
X28010273Y23673172D01*
X28010391Y23637972D01*
X28010390Y23637240D01*
X28010390Y23637240D01*
G37*
X28010390Y23637240D02*
X28010053Y23597733D01*
X28008946Y23565666D01*
X28006753Y23538331D01*
X28003157Y23513018D01*
X27997842Y23487018D01*
X27990492Y23457622D01*
X27988603Y23450550D01*
X27982789Y23428960D01*
X27850361Y23428960D01*
X27810277Y23428998D01*
X27779247Y23429160D01*
X27756166Y23429523D01*
X27739928Y23430165D01*
X27729428Y23431160D01*
X27723561Y23432586D01*
X27721221Y23434518D01*
X27721302Y23437033D01*
X27721607Y23437850D01*
X27730385Y23464405D01*
X27737828Y23496824D01*
X27743113Y23530824D01*
X27745413Y23561808D01*
X27743453Y23598913D01*
X27735469Y23628251D01*
X27720828Y23650496D01*
X27698898Y23666325D01*
X27669047Y23676416D01*
X27633733Y23681233D01*
X27592201Y23684224D01*
X27590841Y23558942D01*
X27589480Y23433659D01*
X27335480Y23433659D01*
X27334120Y23555770D01*
X27332760Y23677880D01*
X26509980Y23677880D01*
X26509980Y23992840D01*
X27332940Y23992840D01*
X27332940Y24119840D01*
X27592020Y24119840D01*
X27592020Y23994221D01*
X27666950Y23991584D01*
X27699721Y23989866D01*
X27731602Y23987184D01*
X27759484Y23983850D01*
X27779980Y23980240D01*
X27834248Y23963455D01*
X27881329Y23939497D01*
X27921320Y23908274D01*
X27954318Y23869694D01*
X27980419Y23823663D01*
X27999721Y23770090D01*
X27999732Y23770050D01*
X28003722Y23754305D01*
X28006605Y23738820D01*
X28008546Y23721520D01*
X28009714Y23700330D01*
X28010273Y23673172D01*
X28010391Y23637972D01*
X28010390Y23637240D01*
G36*
X27719020Y24272240D02*
X27719020Y24602440D01*
X27998420Y24602440D01*
X27998420Y24272240D01*
X27719020Y24272240D01*
X27719020Y24272240D01*
G37*
X27719020Y24272240D02*
X27719020Y24602440D01*
X27998420Y24602440D01*
X27998420Y24272240D01*
X27719020Y24272240D01*
G36*
X28578892Y34619697D02*
X28566993Y34564419D01*
X28545492Y34507808D01*
X28538900Y34493887D01*
X28525975Y34469189D01*
X28513070Y34448939D01*
X28497687Y34429717D01*
X28477327Y34408104D01*
X28473208Y34403963D01*
X28451970Y34383458D01*
X28433870Y34368221D01*
X28415455Y34355789D01*
X28393270Y34343701D01*
X28378469Y34336430D01*
X28343733Y34320636D01*
X28314164Y34309673D01*
X28286454Y34302769D01*
X28257294Y34299150D01*
X28223378Y34298044D01*
X28214320Y34298065D01*
X28197237Y34298371D01*
X28181242Y34299243D01*
X28165578Y34300994D01*
X28149488Y34303938D01*
X28132216Y34308387D01*
X28113005Y34314655D01*
X28091097Y34323056D01*
X28065737Y34333902D01*
X28036167Y34347507D01*
X28001631Y34364184D01*
X27961371Y34384246D01*
X27914631Y34408007D01*
X27860655Y34435780D01*
X27798685Y34467878D01*
X27777440Y34478907D01*
X27727381Y34504954D01*
X27679850Y34529778D01*
X27635641Y34552959D01*
X27595546Y34574077D01*
X27560359Y34592713D01*
X27530872Y34608445D01*
X27507879Y34620853D01*
X27492173Y34629518D01*
X27484546Y34634019D01*
X27484070Y34634373D01*
X27476960Y34646368D01*
X27475689Y34661663D01*
X27480453Y34675189D01*
X27482397Y34677491D01*
X27489252Y34682225D01*
X27504213Y34691113D01*
X27526347Y34703663D01*
X27554724Y34719385D01*
X27588414Y34737787D01*
X27626484Y34758378D01*
X27668005Y34780666D01*
X27712046Y34804159D01*
X27757675Y34828367D01*
X27803961Y34852798D01*
X27849974Y34876961D01*
X27894783Y34900364D01*
X27937456Y34922516D01*
X27977064Y34942926D01*
X28012674Y34961101D01*
X28043357Y34976552D01*
X28068181Y34988785D01*
X28086215Y34997311D01*
X28096378Y35001586D01*
X28157498Y35017661D01*
X28217952Y35023973D01*
X28227387Y35023432D01*
X28227387Y34914023D01*
X28179961Y34911562D01*
X28135147Y34900632D01*
X28093766Y34882055D01*
X28056639Y34856654D01*
X28024588Y34825250D01*
X27998432Y34788667D01*
X27978994Y34747725D01*
X27967095Y34703248D01*
X27963556Y34656058D01*
X27969198Y34606977D01*
X27970585Y34600770D01*
X27986848Y34552413D01*
X28011085Y34510008D01*
X28042631Y34474160D01*
X28080820Y34445472D01*
X28124988Y34424550D01*
X28174469Y34411999D01*
X28178959Y34411329D01*
X28228023Y34409093D01*
X28274826Y34415900D01*
X28318527Y34430875D01*
X28358288Y34453143D01*
X28393272Y34481827D01*
X28422638Y34516051D01*
X28445548Y34554940D01*
X28461164Y34597618D01*
X28468647Y34643209D01*
X28467158Y34690837D01*
X28464104Y34709100D01*
X28449118Y34759829D01*
X28426502Y34804129D01*
X28396623Y34841613D01*
X28359849Y34871890D01*
X28316548Y34894573D01*
X28276603Y34907192D01*
X28227387Y34914023D01*
X28227387Y35023432D01*
X28277075Y35020579D01*
X28334197Y35007535D01*
X28388653Y34984897D01*
X28405630Y34975504D01*
X28453607Y34941590D01*
X28494866Y34900694D01*
X28528542Y34853866D01*
X28553767Y34802156D01*
X28557840Y34790979D01*
X28574230Y34731633D01*
X28581276Y34674987D01*
X28578892Y34619697D01*
X28578892Y34619697D01*
G37*
X28578892Y34619697D02*
X28566993Y34564419D01*
X28545492Y34507808D01*
X28538900Y34493887D01*
X28525975Y34469189D01*
X28513070Y34448939D01*
X28497687Y34429717D01*
X28477327Y34408104D01*
X28473208Y34403963D01*
X28451970Y34383458D01*
X28433870Y34368221D01*
X28415455Y34355789D01*
X28393270Y34343701D01*
X28378469Y34336430D01*
X28343733Y34320636D01*
X28314164Y34309673D01*
X28286454Y34302769D01*
X28257294Y34299150D01*
X28223378Y34298044D01*
X28214320Y34298065D01*
X28197237Y34298371D01*
X28181242Y34299243D01*
X28165578Y34300994D01*
X28149488Y34303938D01*
X28132216Y34308387D01*
X28113005Y34314655D01*
X28091097Y34323056D01*
X28065737Y34333902D01*
X28036167Y34347507D01*
X28001631Y34364184D01*
X27961371Y34384246D01*
X27914631Y34408007D01*
X27860655Y34435780D01*
X27798685Y34467878D01*
X27777440Y34478907D01*
X27727381Y34504954D01*
X27679850Y34529778D01*
X27635641Y34552959D01*
X27595546Y34574077D01*
X27560359Y34592713D01*
X27530872Y34608445D01*
X27507879Y34620853D01*
X27492173Y34629518D01*
X27484546Y34634019D01*
X27484070Y34634373D01*
X27476960Y34646368D01*
X27475689Y34661663D01*
X27480453Y34675189D01*
X27482397Y34677491D01*
X27489252Y34682225D01*
X27504213Y34691113D01*
X27526347Y34703663D01*
X27554724Y34719385D01*
X27588414Y34737787D01*
X27626484Y34758378D01*
X27668005Y34780666D01*
X27712046Y34804159D01*
X27757675Y34828367D01*
X27803961Y34852798D01*
X27849974Y34876961D01*
X27894783Y34900364D01*
X27937456Y34922516D01*
X27977064Y34942926D01*
X28012674Y34961101D01*
X28043357Y34976552D01*
X28068181Y34988785D01*
X28086215Y34997311D01*
X28096378Y35001586D01*
X28157498Y35017661D01*
X28217952Y35023973D01*
X28227387Y35023432D01*
X28227387Y34914023D01*
X28179961Y34911562D01*
X28135147Y34900632D01*
X28093766Y34882055D01*
X28056639Y34856654D01*
X28024588Y34825250D01*
X27998432Y34788667D01*
X27978994Y34747725D01*
X27967095Y34703248D01*
X27963556Y34656058D01*
X27969198Y34606977D01*
X27970585Y34600770D01*
X27986848Y34552413D01*
X28011085Y34510008D01*
X28042631Y34474160D01*
X28080820Y34445472D01*
X28124988Y34424550D01*
X28174469Y34411999D01*
X28178959Y34411329D01*
X28228023Y34409093D01*
X28274826Y34415900D01*
X28318527Y34430875D01*
X28358288Y34453143D01*
X28393272Y34481827D01*
X28422638Y34516051D01*
X28445548Y34554940D01*
X28461164Y34597618D01*
X28468647Y34643209D01*
X28467158Y34690837D01*
X28464104Y34709100D01*
X28449118Y34759829D01*
X28426502Y34804129D01*
X28396623Y34841613D01*
X28359849Y34871890D01*
X28316548Y34894573D01*
X28276603Y34907192D01*
X28227387Y34914023D01*
X28227387Y35023432D01*
X28277075Y35020579D01*
X28334197Y35007535D01*
X28388653Y34984897D01*
X28405630Y34975504D01*
X28453607Y34941590D01*
X28494866Y34900694D01*
X28528542Y34853866D01*
X28553767Y34802156D01*
X28557840Y34790979D01*
X28574230Y34731633D01*
X28581276Y34674987D01*
X28578892Y34619697D01*
G36*
X23773083Y31304661D02*
X23767482Y31294904D01*
X23756155Y31292800D01*
X23743724Y31291794D01*
X23744590Y31285901D01*
X23752639Y31276524D01*
X23765814Y31251873D01*
X23772265Y31218780D01*
X23771097Y31184701D01*
X23765909Y31165740D01*
X23751464Y31143036D01*
X23730696Y31122504D01*
X23728832Y31121130D01*
X23715221Y31112692D01*
X23700156Y31107205D01*
X23679726Y31104055D01*
X23650023Y31102626D01*
X23609300Y31102300D01*
X23567059Y31102660D01*
X23537835Y31104151D01*
X23517716Y31107389D01*
X23502793Y31112989D01*
X23489768Y31121130D01*
X23468851Y31140972D01*
X23453499Y31163899D01*
X23452692Y31165740D01*
X23446156Y31196515D01*
X23447811Y31231098D01*
X23456766Y31262032D01*
X23465962Y31276524D01*
X23471165Y31282924D01*
X23471704Y31287379D01*
X23465308Y31290241D01*
X23449706Y31291863D01*
X23422627Y31292596D01*
X23381800Y31292793D01*
X23360970Y31292800D01*
X23241249Y31292800D01*
X23258026Y31265283D01*
X23272455Y31226976D01*
X23271412Y31188167D01*
X23255880Y31152357D01*
X23226840Y31123045D01*
X23216257Y31116387D01*
X23201484Y31108999D01*
X23185724Y31103895D01*
X23165564Y31100663D01*
X23137590Y31098891D01*
X23098386Y31098168D01*
X23064164Y31098066D01*
X22944667Y31098066D01*
X22944667Y31174266D01*
X23057655Y31174266D01*
X23109829Y31174886D01*
X23147424Y31177365D01*
X23172768Y31182637D01*
X23188189Y31191635D01*
X23196016Y31205292D01*
X23198576Y31224541D01*
X23198667Y31230771D01*
X23196464Y31251844D01*
X23188382Y31267295D01*
X23172210Y31278049D01*
X23145737Y31285030D01*
X23106753Y31289165D01*
X23053872Y31291356D01*
X22944667Y31294146D01*
X22944667Y31360533D01*
X23623661Y31360533D01*
X23623661Y31288495D01*
X23587118Y31287471D01*
X23553649Y31280559D01*
X23528689Y31268096D01*
X23522218Y31261515D01*
X23515039Y31239559D01*
X23517826Y31213092D01*
X23529209Y31190184D01*
X23535331Y31184222D01*
X23551314Y31178871D01*
X23578250Y31176030D01*
X23610790Y31175556D01*
X23643582Y31177311D01*
X23671275Y31181153D01*
X23688519Y31186943D01*
X23690202Y31188282D01*
X23698510Y31206496D01*
X23699750Y31231814D01*
X23694489Y31256340D01*
X23684230Y31271538D01*
X23657843Y31283297D01*
X23623661Y31288495D01*
X23623661Y31360533D01*
X23774400Y31360533D01*
X23774400Y31326667D01*
X23773083Y31304661D01*
X23773083Y31304661D01*
G37*
X23773083Y31304661D02*
X23767482Y31294904D01*
X23756155Y31292800D01*
X23743724Y31291794D01*
X23744590Y31285901D01*
X23752639Y31276524D01*
X23765814Y31251873D01*
X23772265Y31218780D01*
X23771097Y31184701D01*
X23765909Y31165740D01*
X23751464Y31143036D01*
X23730696Y31122504D01*
X23728832Y31121130D01*
X23715221Y31112692D01*
X23700156Y31107205D01*
X23679726Y31104055D01*
X23650023Y31102626D01*
X23609300Y31102300D01*
X23567059Y31102660D01*
X23537835Y31104151D01*
X23517716Y31107389D01*
X23502793Y31112989D01*
X23489768Y31121130D01*
X23468851Y31140972D01*
X23453499Y31163899D01*
X23452692Y31165740D01*
X23446156Y31196515D01*
X23447811Y31231098D01*
X23456766Y31262032D01*
X23465962Y31276524D01*
X23471165Y31282924D01*
X23471704Y31287379D01*
X23465308Y31290241D01*
X23449706Y31291863D01*
X23422627Y31292596D01*
X23381800Y31292793D01*
X23360970Y31292800D01*
X23241249Y31292800D01*
X23258026Y31265283D01*
X23272455Y31226976D01*
X23271412Y31188167D01*
X23255880Y31152357D01*
X23226840Y31123045D01*
X23216257Y31116387D01*
X23201484Y31108999D01*
X23185724Y31103895D01*
X23165564Y31100663D01*
X23137590Y31098891D01*
X23098386Y31098168D01*
X23064164Y31098066D01*
X22944667Y31098066D01*
X22944667Y31174266D01*
X23057655Y31174266D01*
X23109829Y31174886D01*
X23147424Y31177365D01*
X23172768Y31182637D01*
X23188189Y31191635D01*
X23196016Y31205292D01*
X23198576Y31224541D01*
X23198667Y31230771D01*
X23196464Y31251844D01*
X23188382Y31267295D01*
X23172210Y31278049D01*
X23145737Y31285030D01*
X23106753Y31289165D01*
X23053872Y31291356D01*
X22944667Y31294146D01*
X22944667Y31360533D01*
X23623661Y31360533D01*
X23623661Y31288495D01*
X23587118Y31287471D01*
X23553649Y31280559D01*
X23528689Y31268096D01*
X23522218Y31261515D01*
X23515039Y31239559D01*
X23517826Y31213092D01*
X23529209Y31190184D01*
X23535331Y31184222D01*
X23551314Y31178871D01*
X23578250Y31176030D01*
X23610790Y31175556D01*
X23643582Y31177311D01*
X23671275Y31181153D01*
X23688519Y31186943D01*
X23690202Y31188282D01*
X23698510Y31206496D01*
X23699750Y31231814D01*
X23694489Y31256340D01*
X23684230Y31271538D01*
X23657843Y31283297D01*
X23623661Y31288495D01*
X23623661Y31360533D01*
X23774400Y31360533D01*
X23774400Y31326667D01*
X23773083Y31304661D01*
G36*
X23268875Y30887868D02*
X23251969Y30847206D01*
X23231636Y30823444D01*
X23221221Y30815190D01*
X23210790Y30809347D01*
X23197345Y30805500D01*
X23177886Y30803231D01*
X23149416Y30802125D01*
X23108935Y30801764D01*
X23075251Y30801733D01*
X22944667Y30801733D01*
X22944667Y30835600D01*
X22946611Y30856806D01*
X22951466Y30868602D01*
X22953431Y30869467D01*
X22957871Y30874649D01*
X22953431Y30885843D01*
X22946167Y30911735D01*
X22944667Y30946193D01*
X22948528Y30982010D01*
X22957349Y31011980D01*
X22960835Y31018644D01*
X22983120Y31041777D01*
X23014270Y31058394D01*
X23044134Y31064200D01*
X23047117Y31063462D01*
X23047117Y30995318D01*
X23029792Y30991437D01*
X23021545Y30981650D01*
X23015452Y30962074D01*
X23012991Y30935108D01*
X23014097Y30907540D01*
X23018700Y30886157D01*
X23022560Y30879626D01*
X23038162Y30872030D01*
X23056427Y30869467D01*
X23069610Y30870286D01*
X23076692Y30875421D01*
X23079567Y30888884D01*
X23080131Y30914687D01*
X23080133Y30919662D01*
X23077687Y30956663D01*
X23070118Y30979070D01*
X23066829Y30983162D01*
X23047117Y30995318D01*
X23047117Y31063462D01*
X23071307Y31057476D01*
X23099315Y31040432D01*
X23121153Y31017756D01*
X23126046Y31009349D01*
X23134257Y30981781D01*
X23138826Y30944450D01*
X23139400Y30925337D01*
X23139824Y30895425D01*
X23141953Y30878675D01*
X23147074Y30871323D01*
X23156474Y30869601D01*
X23158450Y30869596D01*
X23182378Y30873966D01*
X23196736Y30888669D01*
X23204332Y30916702D01*
X23204633Y30918868D01*
X23204648Y30952038D01*
X23195131Y30975424D01*
X23186552Y30990725D01*
X23187109Y31002449D01*
X23197667Y31018201D01*
X23200390Y31021665D01*
X23215157Y31037230D01*
X23226778Y31044245D01*
X23228300Y31044222D01*
X23238926Y31034696D01*
X23251194Y31013983D01*
X23262800Y30987364D01*
X23271443Y30960121D01*
X23274820Y30937535D01*
X23274820Y30937523D01*
X23268875Y30887868D01*
X23268875Y30887868D01*
G37*
X23268875Y30887868D02*
X23251969Y30847206D01*
X23231636Y30823444D01*
X23221221Y30815190D01*
X23210790Y30809347D01*
X23197345Y30805500D01*
X23177886Y30803231D01*
X23149416Y30802125D01*
X23108935Y30801764D01*
X23075251Y30801733D01*
X22944667Y30801733D01*
X22944667Y30835600D01*
X22946611Y30856806D01*
X22951466Y30868602D01*
X22953431Y30869467D01*
X22957871Y30874649D01*
X22953431Y30885843D01*
X22946167Y30911735D01*
X22944667Y30946193D01*
X22948528Y30982010D01*
X22957349Y31011980D01*
X22960835Y31018644D01*
X22983120Y31041777D01*
X23014270Y31058394D01*
X23044134Y31064200D01*
X23047117Y31063462D01*
X23047117Y30995318D01*
X23029792Y30991437D01*
X23021545Y30981650D01*
X23015452Y30962074D01*
X23012991Y30935108D01*
X23014097Y30907540D01*
X23018700Y30886157D01*
X23022560Y30879626D01*
X23038162Y30872030D01*
X23056427Y30869467D01*
X23069610Y30870286D01*
X23076692Y30875421D01*
X23079567Y30888884D01*
X23080131Y30914687D01*
X23080133Y30919662D01*
X23077687Y30956663D01*
X23070118Y30979070D01*
X23066829Y30983162D01*
X23047117Y30995318D01*
X23047117Y31063462D01*
X23071307Y31057476D01*
X23099315Y31040432D01*
X23121153Y31017756D01*
X23126046Y31009349D01*
X23134257Y30981781D01*
X23138826Y30944450D01*
X23139400Y30925337D01*
X23139824Y30895425D01*
X23141953Y30878675D01*
X23147074Y30871323D01*
X23156474Y30869601D01*
X23158450Y30869596D01*
X23182378Y30873966D01*
X23196736Y30888669D01*
X23204332Y30916702D01*
X23204633Y30918868D01*
X23204648Y30952038D01*
X23195131Y30975424D01*
X23186552Y30990725D01*
X23187109Y31002449D01*
X23197667Y31018201D01*
X23200390Y31021665D01*
X23215157Y31037230D01*
X23226778Y31044245D01*
X23228300Y31044222D01*
X23238926Y31034696D01*
X23251194Y31013983D01*
X23262800Y30987364D01*
X23271443Y30960121D01*
X23274820Y30937535D01*
X23274820Y30937523D01*
X23268875Y30887868D01*
G36*
X23270910Y30561664D02*
X23261851Y30538656D01*
X23248835Y30513486D01*
X23219789Y30535641D01*
X23201611Y30551143D01*
X23194305Y30565216D01*
X23194638Y30585709D01*
X23195717Y30594086D01*
X23197333Y30619950D01*
X23192041Y30637061D01*
X23182746Y30648321D01*
X23174024Y30655721D01*
X23163190Y30660760D01*
X23147059Y30663886D01*
X23122444Y30665546D01*
X23086160Y30666186D01*
X23054733Y30666266D01*
X22944667Y30666266D01*
X22944667Y30733292D01*
X23106258Y30735762D01*
X23156604Y30736447D01*
X23200723Y30736886D01*
X23235987Y30737065D01*
X23259765Y30736972D01*
X23269427Y30736594D01*
X23269507Y30736556D01*
X23269821Y30727944D01*
X23268596Y30708448D01*
X23267893Y30700573D01*
X23262817Y30676103D01*
X23254062Y30666362D01*
X23252935Y30666266D01*
X23247226Y30662779D01*
X23251323Y30650449D01*
X23258026Y30638750D01*
X23272928Y30600373D01*
X23270910Y30561664D01*
X23270910Y30561664D01*
G37*
X23270910Y30561664D02*
X23261851Y30538656D01*
X23248835Y30513486D01*
X23219789Y30535641D01*
X23201611Y30551143D01*
X23194305Y30565216D01*
X23194638Y30585709D01*
X23195717Y30594086D01*
X23197333Y30619950D01*
X23192041Y30637061D01*
X23182746Y30648321D01*
X23174024Y30655721D01*
X23163190Y30660760D01*
X23147059Y30663886D01*
X23122444Y30665546D01*
X23086160Y30666186D01*
X23054733Y30666266D01*
X22944667Y30666266D01*
X22944667Y30733292D01*
X23106258Y30735762D01*
X23156604Y30736447D01*
X23200723Y30736886D01*
X23235987Y30737065D01*
X23259765Y30736972D01*
X23269427Y30736594D01*
X23269507Y30736556D01*
X23269821Y30727944D01*
X23268596Y30708448D01*
X23267893Y30700573D01*
X23262817Y30676103D01*
X23254062Y30666362D01*
X23252935Y30666266D01*
X23247226Y30662779D01*
X23251323Y30650449D01*
X23258026Y30638750D01*
X23272928Y30600373D01*
X23270910Y30561664D01*
G36*
X22944667Y30259866D02*
X22944667Y30293733D01*
X22946703Y30317139D01*
X22953538Y30326884D01*
X22957584Y30327600D01*
X22965495Y30329298D01*
X22964858Y30337364D01*
X22957584Y30352579D01*
X22949497Y30376945D01*
X22944997Y30407448D01*
X22944667Y30416926D01*
X22946868Y30444851D01*
X22955984Y30465312D01*
X22972636Y30484263D01*
X22993767Y30502032D01*
X23016873Y30512295D01*
X23049365Y30518324D01*
X23049976Y30518401D01*
X23086787Y30520942D01*
X23103205Y30520934D01*
X23103205Y30447523D01*
X23069620Y30444461D01*
X23042187Y30437142D01*
X23029334Y30429200D01*
X23014575Y30403793D01*
X23015383Y30375126D01*
X23024787Y30356016D01*
X23042548Y30343096D01*
X23070981Y30334961D01*
X23104949Y30331658D01*
X23139319Y30333232D01*
X23168956Y30339730D01*
X23188725Y30351200D01*
X23191309Y30354504D01*
X23198069Y30377918D01*
X23196067Y30405859D01*
X23186126Y30428899D01*
X23184655Y30430650D01*
X23166343Y30440670D01*
X23137320Y30446277D01*
X23103205Y30447523D01*
X23103205Y30520934D01*
X23128956Y30520919D01*
X23155067Y30519366D01*
X23187523Y30515259D01*
X23209393Y30508692D01*
X23227025Y30497129D01*
X23239219Y30485732D01*
X23264324Y30450426D01*
X23272978Y30411903D01*
X23264972Y30371479D01*
X23259380Y30359350D01*
X23242826Y30327600D01*
X23401867Y30327600D01*
X23401867Y30259866D01*
X22944667Y30259866D01*
X22944667Y30259866D01*
G37*
X22944667Y30259866D02*
X22944667Y30293733D01*
X22946703Y30317139D01*
X22953538Y30326884D01*
X22957584Y30327600D01*
X22965495Y30329298D01*
X22964858Y30337364D01*
X22957584Y30352579D01*
X22949497Y30376945D01*
X22944997Y30407448D01*
X22944667Y30416926D01*
X22946868Y30444851D01*
X22955984Y30465312D01*
X22972636Y30484263D01*
X22993767Y30502032D01*
X23016873Y30512295D01*
X23049365Y30518324D01*
X23049976Y30518401D01*
X23086787Y30520942D01*
X23103205Y30520934D01*
X23103205Y30447523D01*
X23069620Y30444461D01*
X23042187Y30437142D01*
X23029334Y30429200D01*
X23014575Y30403793D01*
X23015383Y30375126D01*
X23024787Y30356016D01*
X23042548Y30343096D01*
X23070981Y30334961D01*
X23104949Y30331658D01*
X23139319Y30333232D01*
X23168956Y30339730D01*
X23188725Y30351200D01*
X23191309Y30354504D01*
X23198069Y30377918D01*
X23196067Y30405859D01*
X23186126Y30428899D01*
X23184655Y30430650D01*
X23166343Y30440670D01*
X23137320Y30446277D01*
X23103205Y30447523D01*
X23103205Y30520934D01*
X23128956Y30520919D01*
X23155067Y30519366D01*
X23187523Y30515259D01*
X23209393Y30508692D01*
X23227025Y30497129D01*
X23239219Y30485732D01*
X23264324Y30450426D01*
X23272978Y30411903D01*
X23264972Y30371479D01*
X23259380Y30359350D01*
X23242826Y30327600D01*
X23401867Y30327600D01*
X23401867Y30259866D01*
X22944667Y30259866D01*
G36*
X23269109Y29815367D02*
X23267582Y29793261D01*
X23261897Y29783751D01*
X23252858Y29782388D01*
X23239852Y29785229D01*
X23213720Y29792565D01*
X23177392Y29803514D01*
X23133799Y29817196D01*
X23092833Y29830445D01*
X22948900Y29877616D01*
X22948900Y29941620D01*
X23053779Y29972383D01*
X23158657Y30003146D01*
X23087645Y30024992D01*
X23050023Y30036497D01*
X23013801Y30047458D01*
X22985565Y30055884D01*
X22980650Y30057325D01*
X22958255Y30064968D01*
X22947816Y30073974D01*
X22944805Y30089587D01*
X22944667Y30099014D01*
X22944667Y30130215D01*
X23052617Y30165192D01*
X23121080Y30187266D01*
X23174783Y30204320D01*
X23215013Y30216740D01*
X23243058Y30224911D01*
X23260205Y30229220D01*
X23267741Y30230052D01*
X23268226Y30229818D01*
X23269212Y30220582D01*
X23268612Y30200402D01*
X23267912Y30190245D01*
X23263773Y30164876D01*
X23255771Y30153296D01*
X23250870Y30151826D01*
X23230910Y30148279D01*
X23203126Y30141483D01*
X23171114Y30132563D01*
X23138468Y30122642D01*
X23108781Y30112845D01*
X23085649Y30104298D01*
X23072664Y30098124D01*
X23071667Y30095758D01*
X23084616Y30091080D01*
X23109725Y30082457D01*
X23143065Y30071227D01*
X23171833Y30061659D01*
X23207530Y30049682D01*
X23236722Y30039570D01*
X23256004Y30032523D01*
X23262026Y30029878D01*
X23264924Y30020323D01*
X23267693Y30003108D01*
X23268364Y29993333D01*
X23265953Y29985676D01*
X23257994Y29978762D01*
X23242020Y29971211D01*
X23215562Y29961646D01*
X23176154Y29948690D01*
X23162103Y29944150D01*
X23053572Y29909118D01*
X23161421Y29879176D01*
X23269269Y29849233D01*
X23269109Y29815367D01*
X23269109Y29815367D01*
G37*
X23269109Y29815367D02*
X23267582Y29793261D01*
X23261897Y29783751D01*
X23252858Y29782388D01*
X23239852Y29785229D01*
X23213720Y29792565D01*
X23177392Y29803514D01*
X23133799Y29817196D01*
X23092833Y29830445D01*
X22948900Y29877616D01*
X22948900Y29941620D01*
X23053779Y29972383D01*
X23158657Y30003146D01*
X23087645Y30024992D01*
X23050023Y30036497D01*
X23013801Y30047458D01*
X22985565Y30055884D01*
X22980650Y30057325D01*
X22958255Y30064968D01*
X22947816Y30073974D01*
X22944805Y30089587D01*
X22944667Y30099014D01*
X22944667Y30130215D01*
X23052617Y30165192D01*
X23121080Y30187266D01*
X23174783Y30204320D01*
X23215013Y30216740D01*
X23243058Y30224911D01*
X23260205Y30229220D01*
X23267741Y30230052D01*
X23268226Y30229818D01*
X23269212Y30220582D01*
X23268612Y30200402D01*
X23267912Y30190245D01*
X23263773Y30164876D01*
X23255771Y30153296D01*
X23250870Y30151826D01*
X23230910Y30148279D01*
X23203126Y30141483D01*
X23171114Y30132563D01*
X23138468Y30122642D01*
X23108781Y30112845D01*
X23085649Y30104298D01*
X23072664Y30098124D01*
X23071667Y30095758D01*
X23084616Y30091080D01*
X23109725Y30082457D01*
X23143065Y30071227D01*
X23171833Y30061659D01*
X23207530Y30049682D01*
X23236722Y30039570D01*
X23256004Y30032523D01*
X23262026Y30029878D01*
X23264924Y30020323D01*
X23267693Y30003108D01*
X23268364Y29993333D01*
X23265953Y29985676D01*
X23257994Y29978762D01*
X23242020Y29971211D01*
X23215562Y29961646D01*
X23176154Y29948690D01*
X23162103Y29944150D01*
X23053572Y29909118D01*
X23161421Y29879176D01*
X23269269Y29849233D01*
X23269109Y29815367D01*
G36*
X23266014Y29591180D02*
X23254806Y29562664D01*
X23252884Y29559871D01*
X23239270Y29543545D01*
X23224427Y29531705D01*
X23205462Y29523641D01*
X23179484Y29518645D01*
X23143601Y29516007D01*
X23094922Y29515019D01*
X23069550Y29514925D01*
X22944667Y29514800D01*
X22944667Y29547961D01*
X22947168Y29570688D01*
X22953517Y29583957D01*
X22955250Y29585003D01*
X22961588Y29590656D01*
X22955250Y29600101D01*
X22948478Y29616567D01*
X22945468Y29643563D01*
X22946098Y29675137D01*
X22950244Y29705339D01*
X22957781Y29728218D01*
X22957920Y29728477D01*
X22981907Y29756366D01*
X23014702Y29772423D01*
X23047662Y29775100D01*
X23047662Y29709533D01*
X23028600Y29704080D01*
X23017227Y29686566D01*
X23012609Y29655261D01*
X23012400Y29644130D01*
X23013260Y29617329D01*
X23017215Y29602366D01*
X23026327Y29594178D01*
X23034118Y29590790D01*
X23058393Y29583149D01*
X23072260Y29584961D01*
X23078558Y29598623D01*
X23080127Y29626536D01*
X23080133Y29629656D01*
X23077018Y29671718D01*
X23067633Y29698174D01*
X23051917Y29709173D01*
X23047662Y29709533D01*
X23047662Y29775100D01*
X23051933Y29775448D01*
X23088877Y29764423D01*
X23113915Y29745106D01*
X23129959Y29716445D01*
X23137998Y29676048D01*
X23139400Y29642220D01*
X23139851Y29610941D01*
X23141885Y29592976D01*
X23146528Y29584717D01*
X23154802Y29582555D01*
X23156333Y29582533D01*
X23179616Y29589905D01*
X23196574Y29608993D01*
X23205620Y29635258D01*
X23205170Y29664160D01*
X23194064Y29690559D01*
X23186418Y29704197D01*
X23187726Y29716138D01*
X23198935Y29733482D01*
X23199993Y29734916D01*
X23215567Y29752607D01*
X23228428Y29755989D01*
X23242708Y29744807D01*
X23253185Y29731662D01*
X23265064Y29704946D01*
X23271154Y29668505D01*
X23271468Y29628522D01*
X23266014Y29591180D01*
X23266014Y29591180D01*
G37*
X23266014Y29591180D02*
X23254806Y29562664D01*
X23252884Y29559871D01*
X23239270Y29543545D01*
X23224427Y29531705D01*
X23205462Y29523641D01*
X23179484Y29518645D01*
X23143601Y29516007D01*
X23094922Y29515019D01*
X23069550Y29514925D01*
X22944667Y29514800D01*
X22944667Y29547961D01*
X22947168Y29570688D01*
X22953517Y29583957D01*
X22955250Y29585003D01*
X22961588Y29590656D01*
X22955250Y29600101D01*
X22948478Y29616567D01*
X22945468Y29643563D01*
X22946098Y29675137D01*
X22950244Y29705339D01*
X22957781Y29728218D01*
X22957920Y29728477D01*
X22981907Y29756366D01*
X23014702Y29772423D01*
X23047662Y29775100D01*
X23047662Y29709533D01*
X23028600Y29704080D01*
X23017227Y29686566D01*
X23012609Y29655261D01*
X23012400Y29644130D01*
X23013260Y29617329D01*
X23017215Y29602366D01*
X23026327Y29594178D01*
X23034118Y29590790D01*
X23058393Y29583149D01*
X23072260Y29584961D01*
X23078558Y29598623D01*
X23080127Y29626536D01*
X23080133Y29629656D01*
X23077018Y29671718D01*
X23067633Y29698174D01*
X23051917Y29709173D01*
X23047662Y29709533D01*
X23047662Y29775100D01*
X23051933Y29775448D01*
X23088877Y29764423D01*
X23113915Y29745106D01*
X23129959Y29716445D01*
X23137998Y29676048D01*
X23139400Y29642220D01*
X23139851Y29610941D01*
X23141885Y29592976D01*
X23146528Y29584717D01*
X23154802Y29582555D01*
X23156333Y29582533D01*
X23179616Y29589905D01*
X23196574Y29608993D01*
X23205620Y29635258D01*
X23205170Y29664160D01*
X23194064Y29690559D01*
X23186418Y29704197D01*
X23187726Y29716138D01*
X23198935Y29733482D01*
X23199993Y29734916D01*
X23215567Y29752607D01*
X23228428Y29755989D01*
X23242708Y29744807D01*
X23253185Y29731662D01*
X23265064Y29704946D01*
X23271154Y29668505D01*
X23271468Y29628522D01*
X23266014Y29591180D01*
G36*
X23266650Y29265791D02*
X23257661Y29244208D01*
X23247168Y29236916D01*
X23231121Y29242938D01*
X23215798Y29253526D01*
X23200960Y29266227D01*
X23194704Y29279402D01*
X23194735Y29299782D01*
X23196010Y29311587D01*
X23197409Y29335828D01*
X23193606Y29353546D01*
X23182489Y29365739D01*
X23161947Y29373407D01*
X23129869Y29377548D01*
X23084144Y29379161D01*
X23052850Y29379333D01*
X22944667Y29379333D01*
X22944667Y29455533D01*
X23104122Y29455533D01*
X23154301Y29455341D01*
X23198406Y29454807D01*
X23233743Y29453993D01*
X23257615Y29452961D01*
X23267328Y29451776D01*
X23267371Y29451740D01*
X23269023Y29441707D01*
X23268520Y29421286D01*
X23267893Y29413640D01*
X23263021Y29389208D01*
X23254029Y29379625D01*
X23251499Y29379333D01*
X23243197Y29377742D01*
X23246789Y29370265D01*
X23252287Y29363961D01*
X23267864Y29335239D01*
X23272464Y29299074D01*
X23266650Y29265791D01*
X23266650Y29265791D01*
G37*
X23266650Y29265791D02*
X23257661Y29244208D01*
X23247168Y29236916D01*
X23231121Y29242938D01*
X23215798Y29253526D01*
X23200960Y29266227D01*
X23194704Y29279402D01*
X23194735Y29299782D01*
X23196010Y29311587D01*
X23197409Y29335828D01*
X23193606Y29353546D01*
X23182489Y29365739D01*
X23161947Y29373407D01*
X23129869Y29377548D01*
X23084144Y29379161D01*
X23052850Y29379333D01*
X22944667Y29379333D01*
X22944667Y29455533D01*
X23104122Y29455533D01*
X23154301Y29455341D01*
X23198406Y29454807D01*
X23233743Y29453993D01*
X23257615Y29452961D01*
X23267328Y29451776D01*
X23267371Y29451740D01*
X23269023Y29441707D01*
X23268520Y29421286D01*
X23267893Y29413640D01*
X23263021Y29389208D01*
X23254029Y29379625D01*
X23251499Y29379333D01*
X23243197Y29377742D01*
X23246789Y29370265D01*
X23252287Y29363961D01*
X23267864Y29335239D01*
X23272464Y29299074D01*
X23266650Y29265791D01*
G36*
X23267389Y29069721D02*
X23256763Y29043025D01*
X23233397Y29007952D01*
X23202567Y28984542D01*
X23161156Y28970907D01*
X23130886Y28966717D01*
X23080133Y28962115D01*
X23080133Y29065461D01*
X23080045Y29108668D01*
X23079435Y29137590D01*
X23077789Y29154874D01*
X23074590Y29163169D01*
X23069323Y29165122D01*
X23061471Y29163381D01*
X23061083Y29163268D01*
X23035402Y29147852D01*
X23018537Y29122079D01*
X23011920Y29090834D01*
X23016984Y29058998D01*
X23025655Y29042443D01*
X23033448Y29028711D01*
X23032126Y29017066D01*
X23020661Y29000417D01*
X23019305Y28998694D01*
X23005483Y28982443D01*
X22996216Y28973801D01*
X22995242Y28973402D01*
X22988499Y28979592D01*
X22976189Y28995922D01*
X22967725Y29008495D01*
X22952687Y29036517D01*
X22946117Y29064750D01*
X22945204Y29091045D01*
X22946751Y29120608D01*
X22950133Y29145298D01*
X22952790Y29154966D01*
X22975502Y29188403D01*
X23010994Y29213968D01*
X23056343Y29230123D01*
X23105478Y29235353D01*
X23139400Y29231640D01*
X23139400Y29166786D01*
X23139400Y29103726D01*
X23140036Y29070557D01*
X23142380Y29051126D01*
X23147089Y29042270D01*
X23152485Y29040666D01*
X23167036Y29046290D01*
X23184845Y29059974D01*
X23186352Y29061448D01*
X23203835Y29088407D01*
X23205880Y29115834D01*
X23193314Y29139994D01*
X23166967Y29157148D01*
X23164979Y29157869D01*
X23139400Y29166786D01*
X23139400Y29231640D01*
X23160726Y29229305D01*
X23206412Y29212418D01*
X23241229Y29186354D01*
X23263869Y29152775D01*
X23273025Y29113343D01*
X23267389Y29069721D01*
X23267389Y29069721D01*
G37*
X23267389Y29069721D02*
X23256763Y29043025D01*
X23233397Y29007952D01*
X23202567Y28984542D01*
X23161156Y28970907D01*
X23130886Y28966717D01*
X23080133Y28962115D01*
X23080133Y29065461D01*
X23080045Y29108668D01*
X23079435Y29137590D01*
X23077789Y29154874D01*
X23074590Y29163169D01*
X23069323Y29165122D01*
X23061471Y29163381D01*
X23061083Y29163268D01*
X23035402Y29147852D01*
X23018537Y29122079D01*
X23011920Y29090834D01*
X23016984Y29058998D01*
X23025655Y29042443D01*
X23033448Y29028711D01*
X23032126Y29017066D01*
X23020661Y29000417D01*
X23019305Y28998694D01*
X23005483Y28982443D01*
X22996216Y28973801D01*
X22995242Y28973402D01*
X22988499Y28979592D01*
X22976189Y28995922D01*
X22967725Y29008495D01*
X22952687Y29036517D01*
X22946117Y29064750D01*
X22945204Y29091045D01*
X22946751Y29120608D01*
X22950133Y29145298D01*
X22952790Y29154966D01*
X22975502Y29188403D01*
X23010994Y29213968D01*
X23056343Y29230123D01*
X23105478Y29235353D01*
X23139400Y29231640D01*
X23139400Y29166786D01*
X23139400Y29103726D01*
X23140036Y29070557D01*
X23142380Y29051126D01*
X23147089Y29042270D01*
X23152485Y29040666D01*
X23167036Y29046290D01*
X23184845Y29059974D01*
X23186352Y29061448D01*
X23203835Y29088407D01*
X23205880Y29115834D01*
X23193314Y29139994D01*
X23166967Y29157148D01*
X23164979Y29157869D01*
X23139400Y29166786D01*
X23139400Y29231640D01*
X23160726Y29229305D01*
X23206412Y29212418D01*
X23241229Y29186354D01*
X23263869Y29152775D01*
X23273025Y29113343D01*
X23267389Y29069721D01*
G36*
X22957367Y31038800D02*
X22953134Y31043033D01*
X22957367Y31047266D01*
X22961600Y31043033D01*
X22957367Y31038800D01*
X22957367Y31038800D01*
G37*
X22957367Y31038800D02*
X22953134Y31043033D01*
X22957367Y31047266D01*
X22961600Y31043033D01*
X22957367Y31038800D01*
G36*
X23771687Y31520828D02*
X23759067Y31481185D01*
X23734175Y31446740D01*
X23716191Y31431983D01*
X23699344Y31421899D01*
X23681936Y31415723D01*
X23659176Y31412532D01*
X23626271Y31411410D01*
X23608587Y31411333D01*
X23569601Y31411931D01*
X23542810Y31414292D01*
X23523500Y31419274D01*
X23506957Y31427729D01*
X23502602Y31430552D01*
X23471884Y31460444D01*
X23452016Y31499217D01*
X23444054Y31542245D01*
X23449053Y31584904D01*
X23461088Y31612494D01*
X23483020Y31640801D01*
X23510112Y31659441D01*
X23545838Y31669905D01*
X23593669Y31673683D01*
X23603787Y31673768D01*
X23614641Y31673277D01*
X23614641Y31606067D01*
X23569147Y31602295D01*
X23538214Y31590816D01*
X23521205Y31571387D01*
X23520710Y31570206D01*
X23513892Y31550776D01*
X23514026Y31536921D01*
X23521233Y31518720D01*
X23521334Y31518499D01*
X23541027Y31495123D01*
X23573950Y31482091D01*
X23607582Y31479182D01*
X23645819Y31481477D01*
X23671384Y31489069D01*
X23688110Y31503467D01*
X23694130Y31513249D01*
X23701801Y31536519D01*
X23697918Y31560846D01*
X23697134Y31563152D01*
X23685193Y31585969D01*
X23666520Y31599366D01*
X23637375Y31605289D01*
X23614641Y31606067D01*
X23614641Y31673277D01*
X23655958Y31671405D01*
X23693017Y31664154D01*
X23703437Y31660056D01*
X23737910Y31635284D01*
X23760909Y31601444D01*
X23772235Y31562104D01*
X23771687Y31520828D01*
X23771687Y31520828D01*
G37*
X23771687Y31520828D02*
X23759067Y31481185D01*
X23734175Y31446740D01*
X23716191Y31431983D01*
X23699344Y31421899D01*
X23681936Y31415723D01*
X23659176Y31412532D01*
X23626271Y31411410D01*
X23608587Y31411333D01*
X23569601Y31411931D01*
X23542810Y31414292D01*
X23523500Y31419274D01*
X23506957Y31427729D01*
X23502602Y31430552D01*
X23471884Y31460444D01*
X23452016Y31499217D01*
X23444054Y31542245D01*
X23449053Y31584904D01*
X23461088Y31612494D01*
X23483020Y31640801D01*
X23510112Y31659441D01*
X23545838Y31669905D01*
X23593669Y31673683D01*
X23603787Y31673768D01*
X23614641Y31673277D01*
X23614641Y31606067D01*
X23569147Y31602295D01*
X23538214Y31590816D01*
X23521205Y31571387D01*
X23520710Y31570206D01*
X23513892Y31550776D01*
X23514026Y31536921D01*
X23521233Y31518720D01*
X23521334Y31518499D01*
X23541027Y31495123D01*
X23573950Y31482091D01*
X23607582Y31479182D01*
X23645819Y31481477D01*
X23671384Y31489069D01*
X23688110Y31503467D01*
X23694130Y31513249D01*
X23701801Y31536519D01*
X23697918Y31560846D01*
X23697134Y31563152D01*
X23685193Y31585969D01*
X23666520Y31599366D01*
X23637375Y31605289D01*
X23614641Y31606067D01*
X23614641Y31673277D01*
X23655958Y31671405D01*
X23693017Y31664154D01*
X23703437Y31660056D01*
X23737910Y31635284D01*
X23760909Y31601444D01*
X23772235Y31562104D01*
X23771687Y31520828D01*
G36*
X23763773Y30880206D02*
X23744521Y30842613D01*
X23712303Y30815848D01*
X23667011Y30799803D01*
X23635718Y30795447D01*
X23579667Y30790948D01*
X23579667Y30996047D01*
X23557073Y30987457D01*
X23536139Y30975910D01*
X23523476Y30964384D01*
X23514366Y30941089D01*
X23513036Y30911012D01*
X23519339Y30882335D01*
X23525161Y30871282D01*
X23533020Y30857363D01*
X23531821Y30845280D01*
X23520761Y30827640D01*
X23520352Y30827065D01*
X23507119Y30810489D01*
X23497593Y30802061D01*
X23496540Y30801791D01*
X23488688Y30808193D01*
X23475727Y30824237D01*
X23469937Y30832428D01*
X23452574Y30869560D01*
X23444800Y30912215D01*
X23446884Y30954478D01*
X23459091Y30990437D01*
X23462537Y30996009D01*
X23488394Y31026435D01*
X23519088Y31046165D01*
X23558309Y31056806D01*
X23609300Y31059966D01*
X23655867Y31056038D01*
X23655867Y30988000D01*
X23646968Y30986401D01*
X23641870Y30979190D01*
X23639538Y30962747D01*
X23638938Y30933451D01*
X23638933Y30928733D01*
X23639390Y30897587D01*
X23641451Y30879743D01*
X23646149Y30871582D01*
X23654519Y30869483D01*
X23655867Y30869467D01*
X23678255Y30877037D01*
X23696548Y30896180D01*
X23706157Y30921540D01*
X23706667Y30928733D01*
X23700178Y30954852D01*
X23683770Y30976194D01*
X23662032Y30987405D01*
X23655867Y30988000D01*
X23655867Y31056038D01*
X23667661Y31055043D01*
X23712550Y31040067D01*
X23744343Y31014733D01*
X23763417Y30978732D01*
X23770147Y30931759D01*
X23770167Y30928733D01*
X23763773Y30880206D01*
X23763773Y30880206D01*
G37*
X23763773Y30880206D02*
X23744521Y30842613D01*
X23712303Y30815848D01*
X23667011Y30799803D01*
X23635718Y30795447D01*
X23579667Y30790948D01*
X23579667Y30996047D01*
X23557073Y30987457D01*
X23536139Y30975910D01*
X23523476Y30964384D01*
X23514366Y30941089D01*
X23513036Y30911012D01*
X23519339Y30882335D01*
X23525161Y30871282D01*
X23533020Y30857363D01*
X23531821Y30845280D01*
X23520761Y30827640D01*
X23520352Y30827065D01*
X23507119Y30810489D01*
X23497593Y30802061D01*
X23496540Y30801791D01*
X23488688Y30808193D01*
X23475727Y30824237D01*
X23469937Y30832428D01*
X23452574Y30869560D01*
X23444800Y30912215D01*
X23446884Y30954478D01*
X23459091Y30990437D01*
X23462537Y30996009D01*
X23488394Y31026435D01*
X23519088Y31046165D01*
X23558309Y31056806D01*
X23609300Y31059966D01*
X23655867Y31056038D01*
X23655867Y30988000D01*
X23646968Y30986401D01*
X23641870Y30979190D01*
X23639538Y30962747D01*
X23638938Y30933451D01*
X23638933Y30928733D01*
X23639390Y30897587D01*
X23641451Y30879743D01*
X23646149Y30871582D01*
X23654519Y30869483D01*
X23655867Y30869467D01*
X23678255Y30877037D01*
X23696548Y30896180D01*
X23706157Y30921540D01*
X23706667Y30928733D01*
X23700178Y30954852D01*
X23683770Y30976194D01*
X23662032Y30987405D01*
X23655867Y30988000D01*
X23655867Y31056038D01*
X23667661Y31055043D01*
X23712550Y31040067D01*
X23744343Y31014733D01*
X23763417Y30978732D01*
X23770147Y30931759D01*
X23770167Y30928733D01*
X23763773Y30880206D01*
G36*
X23769457Y30568460D02*
X23757810Y30541794D01*
X23744436Y30522927D01*
X23728870Y30509096D01*
X23708334Y30499506D01*
X23680054Y30493358D01*
X23641254Y30489856D01*
X23589157Y30488202D01*
X23570298Y30487945D01*
X23448433Y30486602D01*
X23443227Y30556200D01*
X23552842Y30556200D01*
X23606942Y30557048D01*
X23646359Y30560176D01*
X23673282Y30566462D01*
X23689904Y30576780D01*
X23698414Y30592007D01*
X23701005Y30613021D01*
X23701022Y30615466D01*
X23698889Y30637139D01*
X23691025Y30652921D01*
X23675240Y30663690D01*
X23649341Y30670328D01*
X23611135Y30673714D01*
X23558430Y30674728D01*
X23553329Y30674733D01*
X23444200Y30674733D01*
X23444200Y30708866D01*
X23446760Y30732750D01*
X23453432Y30746216D01*
X23455068Y30747168D01*
X23466714Y30748388D01*
X23492355Y30749206D01*
X23529058Y30749591D01*
X23573888Y30749509D01*
X23618051Y30749019D01*
X23770167Y30746700D01*
X23772799Y30714882D01*
X23772071Y30690484D01*
X23764087Y30678824D01*
X23762425Y30678073D01*
X23754364Y30672777D01*
X23755319Y30662832D01*
X23761910Y30648928D01*
X23773311Y30609446D01*
X23769457Y30568460D01*
X23769457Y30568460D01*
G37*
X23769457Y30568460D02*
X23757810Y30541794D01*
X23744436Y30522927D01*
X23728870Y30509096D01*
X23708334Y30499506D01*
X23680054Y30493358D01*
X23641254Y30489856D01*
X23589157Y30488202D01*
X23570298Y30487945D01*
X23448433Y30486602D01*
X23443227Y30556200D01*
X23552842Y30556200D01*
X23606942Y30557048D01*
X23646359Y30560176D01*
X23673282Y30566462D01*
X23689904Y30576780D01*
X23698414Y30592007D01*
X23701005Y30613021D01*
X23701022Y30615466D01*
X23698889Y30637139D01*
X23691025Y30652921D01*
X23675240Y30663690D01*
X23649341Y30670328D01*
X23611135Y30673714D01*
X23558430Y30674728D01*
X23553329Y30674733D01*
X23444200Y30674733D01*
X23444200Y30708866D01*
X23446760Y30732750D01*
X23453432Y30746216D01*
X23455068Y30747168D01*
X23466714Y30748388D01*
X23492355Y30749206D01*
X23529058Y30749591D01*
X23573888Y30749509D01*
X23618051Y30749019D01*
X23770167Y30746700D01*
X23772799Y30714882D01*
X23772071Y30690484D01*
X23764087Y30678824D01*
X23762425Y30678073D01*
X23754364Y30672777D01*
X23755319Y30662832D01*
X23761910Y30648928D01*
X23773311Y30609446D01*
X23769457Y30568460D01*
G36*
X23766970Y30118403D02*
X23750011Y30078172D01*
X23742227Y30066852D01*
X23727160Y30047404D01*
X23702476Y30068614D01*
X23677793Y30089824D01*
X23692230Y30120099D01*
X23704184Y30155044D01*
X23706290Y30186111D01*
X23699165Y30210128D01*
X23683423Y30223920D01*
X23671677Y30226000D01*
X23662171Y30223885D01*
X23655401Y30215509D01*
X23650262Y30197826D01*
X23645648Y30167789D01*
X23643240Y30147596D01*
X23632072Y30102246D01*
X23611266Y30068796D01*
X23582503Y30048445D01*
X23547462Y30042393D01*
X23508645Y30051493D01*
X23480179Y30071990D01*
X23459364Y30104207D01*
X23447100Y30144334D01*
X23444289Y30188563D01*
X23451830Y30233084D01*
X23460395Y30255633D01*
X23473462Y30281028D01*
X23486413Y30302348D01*
X23489373Y30306433D01*
X23498540Y30316741D01*
X23506574Y30317254D01*
X23518992Y30307046D01*
X23525854Y30300317D01*
X23549181Y30277267D01*
X23530557Y30244131D01*
X23517648Y30212511D01*
X23512531Y30180495D01*
X23514642Y30151650D01*
X23523419Y30129540D01*
X23538299Y30117732D01*
X23550593Y30117195D01*
X23561852Y30123949D01*
X23569549Y30141439D01*
X23573904Y30162566D01*
X23582224Y30208189D01*
X23590541Y30240284D01*
X23600227Y30262200D01*
X23612656Y30277286D01*
X23624578Y30286116D01*
X23657311Y30298125D01*
X23693038Y30298037D01*
X23725040Y30286249D01*
X23733893Y30279634D01*
X23756932Y30248626D01*
X23770247Y30208303D01*
X23773654Y30163337D01*
X23766970Y30118403D01*
X23766970Y30118403D01*
G37*
X23766970Y30118403D02*
X23750011Y30078172D01*
X23742227Y30066852D01*
X23727160Y30047404D01*
X23702476Y30068614D01*
X23677793Y30089824D01*
X23692230Y30120099D01*
X23704184Y30155044D01*
X23706290Y30186111D01*
X23699165Y30210128D01*
X23683423Y30223920D01*
X23671677Y30226000D01*
X23662171Y30223885D01*
X23655401Y30215509D01*
X23650262Y30197826D01*
X23645648Y30167789D01*
X23643240Y30147596D01*
X23632072Y30102246D01*
X23611266Y30068796D01*
X23582503Y30048445D01*
X23547462Y30042393D01*
X23508645Y30051493D01*
X23480179Y30071990D01*
X23459364Y30104207D01*
X23447100Y30144334D01*
X23444289Y30188563D01*
X23451830Y30233084D01*
X23460395Y30255633D01*
X23473462Y30281028D01*
X23486413Y30302348D01*
X23489373Y30306433D01*
X23498540Y30316741D01*
X23506574Y30317254D01*
X23518992Y30307046D01*
X23525854Y30300317D01*
X23549181Y30277267D01*
X23530557Y30244131D01*
X23517648Y30212511D01*
X23512531Y30180495D01*
X23514642Y30151650D01*
X23523419Y30129540D01*
X23538299Y30117732D01*
X23550593Y30117195D01*
X23561852Y30123949D01*
X23569549Y30141439D01*
X23573904Y30162566D01*
X23582224Y30208189D01*
X23590541Y30240284D01*
X23600227Y30262200D01*
X23612656Y30277286D01*
X23624578Y30286116D01*
X23657311Y30298125D01*
X23693038Y30298037D01*
X23725040Y30286249D01*
X23733893Y30279634D01*
X23756932Y30248626D01*
X23770247Y30208303D01*
X23773654Y30163337D01*
X23766970Y30118403D01*
G36*
X23772902Y29874634D02*
X23772486Y29868189D01*
X23768797Y29837207D01*
X23761008Y29815587D01*
X23746026Y29795786D01*
X23740284Y29789709D01*
X23707197Y29763981D01*
X23666965Y29749154D01*
X23616656Y29744382D01*
X23586822Y29745502D01*
X23532577Y29754800D01*
X23491658Y29774205D01*
X23463637Y29803945D01*
X23457802Y29814663D01*
X23445827Y29855691D01*
X23445821Y29898553D01*
X23457524Y29936994D01*
X23463250Y29946686D01*
X23484636Y29974618D01*
X23506321Y29993084D01*
X23532544Y30003924D01*
X23567544Y30008977D01*
X23608602Y30010080D01*
X23608602Y29938133D01*
X23575987Y29937592D01*
X23555502Y29935067D01*
X23542356Y29929209D01*
X23531757Y29918665D01*
X23529481Y29915825D01*
X23515313Y29893512D01*
X23513355Y29873514D01*
X23521685Y29849794D01*
X23534532Y29831941D01*
X23547489Y29823297D01*
X23572058Y29819050D01*
X23604060Y29817938D01*
X23636617Y29819727D01*
X23662851Y29824186D01*
X23671706Y29827481D01*
X23690841Y29845281D01*
X23701642Y29869925D01*
X23700909Y29893610D01*
X23690359Y29915531D01*
X23675139Y29929023D01*
X23651422Y29935931D01*
X23615381Y29938102D01*
X23608602Y29938133D01*
X23608602Y30010080D01*
X23609317Y30010100D01*
X23655498Y30008662D01*
X23689182Y30003096D01*
X23714655Y29991527D01*
X23736204Y29972075D01*
X23756099Y29945821D01*
X23767864Y29925182D01*
X23772948Y29903901D01*
X23772902Y29874634D01*
X23772902Y29874634D01*
G37*
X23772902Y29874634D02*
X23772486Y29868189D01*
X23768797Y29837207D01*
X23761008Y29815587D01*
X23746026Y29795786D01*
X23740284Y29789709D01*
X23707197Y29763981D01*
X23666965Y29749154D01*
X23616656Y29744382D01*
X23586822Y29745502D01*
X23532577Y29754800D01*
X23491658Y29774205D01*
X23463637Y29803945D01*
X23457802Y29814663D01*
X23445827Y29855691D01*
X23445821Y29898553D01*
X23457524Y29936994D01*
X23463250Y29946686D01*
X23484636Y29974618D01*
X23506321Y29993084D01*
X23532544Y30003924D01*
X23567544Y30008977D01*
X23608602Y30010080D01*
X23608602Y29938133D01*
X23575987Y29937592D01*
X23555502Y29935067D01*
X23542356Y29929209D01*
X23531757Y29918665D01*
X23529481Y29915825D01*
X23515313Y29893512D01*
X23513355Y29873514D01*
X23521685Y29849794D01*
X23534532Y29831941D01*
X23547489Y29823297D01*
X23572058Y29819050D01*
X23604060Y29817938D01*
X23636617Y29819727D01*
X23662851Y29824186D01*
X23671706Y29827481D01*
X23690841Y29845281D01*
X23701642Y29869925D01*
X23700909Y29893610D01*
X23690359Y29915531D01*
X23675139Y29929023D01*
X23651422Y29935931D01*
X23615381Y29938102D01*
X23608602Y29938133D01*
X23608602Y30010080D01*
X23609317Y30010100D01*
X23655498Y30008662D01*
X23689182Y30003096D01*
X23714655Y29991527D01*
X23736204Y29972075D01*
X23756099Y29945821D01*
X23767864Y29925182D01*
X23772948Y29903901D01*
X23772902Y29874634D01*
G36*
X23772770Y29472018D02*
X23770167Y29437703D01*
X23448433Y29437703D01*
X23445830Y29472018D01*
X23445619Y29494781D01*
X23450391Y29504828D01*
X23456631Y29506333D01*
X23464908Y29507950D01*
X23464515Y29515793D01*
X23457118Y29531313D01*
X23446447Y29566168D01*
X23446016Y29604343D01*
X23455730Y29638039D01*
X23458456Y29642877D01*
X23472588Y29662350D01*
X23489078Y29676558D01*
X23510720Y29686295D01*
X23540308Y29692359D01*
X23580634Y29695543D01*
X23634493Y29696644D01*
X23647400Y29696685D01*
X23770167Y29696833D01*
X23772770Y29660850D01*
X23775374Y29624866D01*
X23664435Y29624866D01*
X23619016Y29624712D01*
X23587292Y29623907D01*
X23566026Y29621942D01*
X23551981Y29618305D01*
X23541920Y29612486D01*
X23532715Y29604085D01*
X23518400Y29584870D01*
X23511961Y29566547D01*
X23511933Y29565600D01*
X23517685Y29547654D01*
X23531636Y29528218D01*
X23532715Y29527115D01*
X23542021Y29518636D01*
X23552108Y29512844D01*
X23566214Y29509228D01*
X23587578Y29507278D01*
X23619435Y29506484D01*
X23664435Y29506333D01*
X23775374Y29506333D01*
X23772770Y29472018D01*
X23772770Y29472018D01*
G37*
X23772770Y29472018D02*
X23770167Y29437703D01*
X23448433Y29437703D01*
X23445830Y29472018D01*
X23445619Y29494781D01*
X23450391Y29504828D01*
X23456631Y29506333D01*
X23464908Y29507950D01*
X23464515Y29515793D01*
X23457118Y29531313D01*
X23446447Y29566168D01*
X23446016Y29604343D01*
X23455730Y29638039D01*
X23458456Y29642877D01*
X23472588Y29662350D01*
X23489078Y29676558D01*
X23510720Y29686295D01*
X23540308Y29692359D01*
X23580634Y29695543D01*
X23634493Y29696644D01*
X23647400Y29696685D01*
X23770167Y29696833D01*
X23772770Y29660850D01*
X23775374Y29624866D01*
X23664435Y29624866D01*
X23619016Y29624712D01*
X23587292Y29623907D01*
X23566026Y29621942D01*
X23551981Y29618305D01*
X23541920Y29612486D01*
X23532715Y29604085D01*
X23518400Y29584870D01*
X23511961Y29566547D01*
X23511933Y29565600D01*
X23517685Y29547654D01*
X23531636Y29528218D01*
X23532715Y29527115D01*
X23542021Y29518636D01*
X23552108Y29512844D01*
X23566214Y29509228D01*
X23587578Y29507278D01*
X23619435Y29506484D01*
X23664435Y29506333D01*
X23775374Y29506333D01*
X23772770Y29472018D01*
G36*
X23773083Y29314994D02*
X23767482Y29305237D01*
X23756155Y29303133D01*
X23743833Y29302342D01*
X23743922Y29297129D01*
X23754038Y29285311D01*
X23764454Y29264696D01*
X23769897Y29235556D01*
X23770184Y29204384D01*
X23765130Y29177669D01*
X23757467Y29164204D01*
X23747981Y29157683D01*
X23737219Y29159787D01*
X23720184Y29171887D01*
X23715484Y29175708D01*
X23697705Y29191603D01*
X23691289Y29203248D01*
X23693870Y29216309D01*
X23696237Y29221773D01*
X23701197Y29250409D01*
X23692089Y29277003D01*
X23672952Y29294585D01*
X23656179Y29298678D01*
X23625307Y29301423D01*
X23583133Y29302636D01*
X23551897Y29302529D01*
X23448433Y29301058D01*
X23443227Y29370866D01*
X23774400Y29370866D01*
X23774400Y29337000D01*
X23773083Y29314994D01*
X23773083Y29314994D01*
G37*
X23773083Y29314994D02*
X23767482Y29305237D01*
X23756155Y29303133D01*
X23743833Y29302342D01*
X23743922Y29297129D01*
X23754038Y29285311D01*
X23764454Y29264696D01*
X23769897Y29235556D01*
X23770184Y29204384D01*
X23765130Y29177669D01*
X23757467Y29164204D01*
X23747981Y29157683D01*
X23737219Y29159787D01*
X23720184Y29171887D01*
X23715484Y29175708D01*
X23697705Y29191603D01*
X23691289Y29203248D01*
X23693870Y29216309D01*
X23696237Y29221773D01*
X23701197Y29250409D01*
X23692089Y29277003D01*
X23672952Y29294585D01*
X23656179Y29298678D01*
X23625307Y29301423D01*
X23583133Y29302636D01*
X23551897Y29302529D01*
X23448433Y29301058D01*
X23443227Y29370866D01*
X23774400Y29370866D01*
X23774400Y29337000D01*
X23773083Y29314994D01*
G36*
X23771804Y28992557D02*
X23758431Y28951743D01*
X23732914Y28918414D01*
X23719886Y28908044D01*
X23710399Y28907997D01*
X23697447Y28919050D01*
X23693719Y28922766D01*
X23672948Y28943537D01*
X23690212Y28978432D01*
X23701659Y29015659D01*
X23697813Y29047338D01*
X23679889Y29071698D01*
X23649101Y29086963D01*
X23612790Y29091466D01*
X23571603Y29088026D01*
X23543435Y29076727D01*
X23525623Y29056100D01*
X23519152Y29039838D01*
X23514141Y29016951D01*
X23516863Y28998598D01*
X23528231Y28976343D01*
X23546869Y28944754D01*
X23525489Y28923374D01*
X23510717Y28909653D01*
X23501090Y28907121D01*
X23489847Y28914924D01*
X23485988Y28918394D01*
X23460458Y28952192D01*
X23446426Y28994191D01*
X23444952Y29039256D01*
X23453712Y29074529D01*
X23478039Y29114510D01*
X23514264Y29142527D01*
X23562195Y29158471D01*
X23609300Y29162460D01*
X23657920Y29159080D01*
X23695370Y29147822D01*
X23726239Y29127014D01*
X23737853Y29115554D01*
X23761626Y29078891D01*
X23772906Y29036416D01*
X23771804Y28992557D01*
X23771804Y28992557D01*
G37*
X23771804Y28992557D02*
X23758431Y28951743D01*
X23732914Y28918414D01*
X23719886Y28908044D01*
X23710399Y28907997D01*
X23697447Y28919050D01*
X23693719Y28922766D01*
X23672948Y28943537D01*
X23690212Y28978432D01*
X23701659Y29015659D01*
X23697813Y29047338D01*
X23679889Y29071698D01*
X23649101Y29086963D01*
X23612790Y29091466D01*
X23571603Y29088026D01*
X23543435Y29076727D01*
X23525623Y29056100D01*
X23519152Y29039838D01*
X23514141Y29016951D01*
X23516863Y28998598D01*
X23528231Y28976343D01*
X23546869Y28944754D01*
X23525489Y28923374D01*
X23510717Y28909653D01*
X23501090Y28907121D01*
X23489847Y28914924D01*
X23485988Y28918394D01*
X23460458Y28952192D01*
X23446426Y28994191D01*
X23444952Y29039256D01*
X23453712Y29074529D01*
X23478039Y29114510D01*
X23514264Y29142527D01*
X23562195Y29158471D01*
X23609300Y29162460D01*
X23657920Y29159080D01*
X23695370Y29147822D01*
X23726239Y29127014D01*
X23737853Y29115554D01*
X23761626Y29078891D01*
X23772906Y29036416D01*
X23771804Y28992557D01*
G36*
X23772452Y28747791D02*
X23761968Y28700258D01*
X23739154Y28664297D01*
X23704153Y28640029D01*
X23657110Y28627573D01*
X23626505Y28625800D01*
X23579667Y28625800D01*
X23579667Y28723737D01*
X23579567Y28765593D01*
X23578896Y28793227D01*
X23577094Y28809349D01*
X23573603Y28816671D01*
X23567863Y28817903D01*
X23560617Y28816135D01*
X23533082Y28800408D01*
X23516820Y28774608D01*
X23512906Y28742181D01*
X23522415Y28706569D01*
X23524866Y28701551D01*
X23532553Y28683709D01*
X23531347Y28670276D01*
X23520286Y28652861D01*
X23519097Y28651248D01*
X23506054Y28635294D01*
X23497005Y28631630D01*
X23486672Y28638382D01*
X23485598Y28639347D01*
X23462150Y28671092D01*
X23448484Y28712181D01*
X23445420Y28757591D01*
X23453776Y28802299D01*
X23457446Y28812066D01*
X23472706Y28836102D01*
X23495038Y28858560D01*
X23500839Y28862866D01*
X23517683Y28873099D01*
X23534737Y28879406D01*
X23556755Y28882706D01*
X23588491Y28883921D01*
X23610176Y28884033D01*
X23652018Y28882691D01*
X23652018Y28820533D01*
X23645156Y28817484D01*
X23641126Y28806234D01*
X23639278Y28783627D01*
X23638933Y28757033D01*
X23639562Y28723731D01*
X23641880Y28704174D01*
X23646538Y28695207D01*
X23652018Y28693533D01*
X23670068Y28700593D01*
X23688497Y28717896D01*
X23702302Y28739632D01*
X23706667Y28757033D01*
X23700592Y28778007D01*
X23685700Y28799420D01*
X23666994Y28815462D01*
X23652018Y28820533D01*
X23652018Y28882691D01*
X23656222Y28882556D01*
X23689815Y28876855D01*
X23715275Y28865027D01*
X23736923Y28845169D01*
X23756104Y28819755D01*
X23768670Y28797005D01*
X23773245Y28773225D01*
X23772452Y28747791D01*
X23772452Y28747791D01*
G37*
X23772452Y28747791D02*
X23761968Y28700258D01*
X23739154Y28664297D01*
X23704153Y28640029D01*
X23657110Y28627573D01*
X23626505Y28625800D01*
X23579667Y28625800D01*
X23579667Y28723737D01*
X23579567Y28765593D01*
X23578896Y28793227D01*
X23577094Y28809349D01*
X23573603Y28816671D01*
X23567863Y28817903D01*
X23560617Y28816135D01*
X23533082Y28800408D01*
X23516820Y28774608D01*
X23512906Y28742181D01*
X23522415Y28706569D01*
X23524866Y28701551D01*
X23532553Y28683709D01*
X23531347Y28670276D01*
X23520286Y28652861D01*
X23519097Y28651248D01*
X23506054Y28635294D01*
X23497005Y28631630D01*
X23486672Y28638382D01*
X23485598Y28639347D01*
X23462150Y28671092D01*
X23448484Y28712181D01*
X23445420Y28757591D01*
X23453776Y28802299D01*
X23457446Y28812066D01*
X23472706Y28836102D01*
X23495038Y28858560D01*
X23500839Y28862866D01*
X23517683Y28873099D01*
X23534737Y28879406D01*
X23556755Y28882706D01*
X23588491Y28883921D01*
X23610176Y28884033D01*
X23652018Y28882691D01*
X23652018Y28820533D01*
X23645156Y28817484D01*
X23641126Y28806234D01*
X23639278Y28783627D01*
X23638933Y28757033D01*
X23639562Y28723731D01*
X23641880Y28704174D01*
X23646538Y28695207D01*
X23652018Y28693533D01*
X23670068Y28700593D01*
X23688497Y28717896D01*
X23702302Y28739632D01*
X23706667Y28757033D01*
X23700592Y28778007D01*
X23685700Y28799420D01*
X23666994Y28815462D01*
X23652018Y28820533D01*
X23652018Y28882691D01*
X23656222Y28882556D01*
X23689815Y28876855D01*
X23715275Y28865027D01*
X23736923Y28845169D01*
X23756104Y28819755D01*
X23768670Y28797005D01*
X23773245Y28773225D01*
X23772452Y28747791D01*
G36*
X23702433Y29159200D02*
X23698200Y29163433D01*
X23702433Y29167666D01*
X23706667Y29163433D01*
X23702433Y29159200D01*
X23702433Y29159200D01*
G37*
X23702433Y29159200D02*
X23698200Y29163433D01*
X23702433Y29167666D01*
X23706667Y29163433D01*
X23702433Y29159200D01*
G36*
X25990550Y29955218D02*
X25941011Y29945769D01*
X25896982Y29936641D01*
X25861281Y29928478D01*
X25836729Y29921922D01*
X25826249Y29917725D01*
X25819546Y29906742D01*
X25808161Y29883252D01*
X25793587Y29850512D01*
X25777318Y29811783D01*
X25774343Y29804474D01*
X25732223Y29700449D01*
X25753701Y29669008D01*
X25799168Y29602230D01*
X25835616Y29548172D01*
X25863771Y29505705D01*
X25884360Y29473702D01*
X25898110Y29451035D01*
X25905746Y29436575D01*
X25908000Y29429382D01*
X25902202Y29419537D01*
X25886379Y29400512D01*
X25862888Y29374673D01*
X25834085Y29344383D01*
X25802327Y29312009D01*
X25769970Y29279915D01*
X25739370Y29250467D01*
X25712885Y29226030D01*
X25692871Y29208968D01*
X25681684Y29201646D01*
X25680976Y29201533D01*
X25670662Y29206124D01*
X25649029Y29218830D01*
X25618623Y29238052D01*
X25581994Y29262191D01*
X25553042Y29281823D01*
X25513133Y29308953D01*
X25477318Y29332837D01*
X25448248Y29351743D01*
X25428576Y29363938D01*
X25421807Y29367559D01*
X25407406Y29366734D01*
X25381670Y29359529D01*
X25348212Y29347518D01*
X25310648Y29332275D01*
X25272590Y29315375D01*
X25237652Y29298391D01*
X25209449Y29282898D01*
X25191595Y29270469D01*
X25187494Y29265506D01*
X25184262Y29253516D01*
X25178646Y29228332D01*
X25171326Y29193415D01*
X25162979Y29152224D01*
X25154286Y29108221D01*
X25145925Y29064866D01*
X25138574Y29025619D01*
X25132914Y28993940D01*
X25129623Y28973290D01*
X25129067Y28967732D01*
X25121027Y28966735D01*
X25098606Y28966071D01*
X25064356Y28965763D01*
X25020826Y28965829D01*
X24970566Y28966290D01*
X24961882Y28966404D01*
X24794697Y28968700D01*
X24787926Y29002566D01*
X24783807Y29023389D01*
X24777283Y29056629D01*
X24769178Y29098079D01*
X24760314Y29143535D01*
X24758260Y29154086D01*
X24735367Y29271739D01*
X24625300Y29316767D01*
X24584457Y29333124D01*
X24548491Y29346873D01*
X24520650Y29356818D01*
X24504187Y29361766D01*
X24501932Y29362098D01*
X24490786Y29357618D01*
X24468366Y29345025D01*
X24437277Y29325908D01*
X24400125Y29301854D01*
X24370699Y29282108D01*
X24330799Y29255433D01*
X24295109Y29232490D01*
X24266225Y29214876D01*
X24246741Y29204187D01*
X24239945Y29201675D01*
X24230159Y29207401D01*
X24211145Y29223114D01*
X24185274Y29246468D01*
X24154921Y29275115D01*
X24122459Y29306710D01*
X24090262Y29338906D01*
X24060703Y29369358D01*
X24036155Y29395720D01*
X24018993Y29415645D01*
X24011589Y29426787D01*
X24011467Y29427517D01*
X24016068Y29437464D01*
X24028802Y29458744D01*
X24048065Y29488835D01*
X24072255Y29525216D01*
X24091900Y29554003D01*
X24118605Y29593125D01*
X24141560Y29627510D01*
X24159170Y29654708D01*
X24169841Y29672269D01*
X24172333Y29677599D01*
X24168757Y29687976D01*
X24159273Y29709255D01*
X24145750Y29737295D01*
X24142157Y29744479D01*
X24128370Y29772769D01*
X24118615Y29794561D01*
X24114552Y29806087D01*
X24114640Y29806944D01*
X24122937Y29810812D01*
X24144609Y29820162D01*
X24177367Y29834046D01*
X24218921Y29851513D01*
X24266984Y29871611D01*
X24319266Y29893391D01*
X24373478Y29915903D01*
X24427332Y29938195D01*
X24478538Y29959318D01*
X24524809Y29978322D01*
X24563854Y29994255D01*
X24593385Y30006167D01*
X24611114Y30013109D01*
X24611538Y30013267D01*
X24634345Y30021159D01*
X24646763Y30022502D01*
X24654138Y30017011D01*
X24658105Y30010760D01*
X24668020Y29996532D01*
X24685420Y29973957D01*
X24706796Y29947570D01*
X24709967Y29943757D01*
X24762060Y29893306D01*
X24820868Y29856844D01*
X24884172Y29834156D01*
X24949755Y29825027D01*
X25015398Y29829244D01*
X25078883Y29846591D01*
X25137991Y29876855D01*
X25190506Y29919821D01*
X25234209Y29975275D01*
X25245931Y29995550D01*
X25272522Y30062233D01*
X25283719Y30131120D01*
X25280245Y30199804D01*
X25262819Y30265875D01*
X25232160Y30326927D01*
X25188990Y30380552D01*
X25134028Y30424341D01*
X25114268Y30435777D01*
X25045781Y30463222D01*
X24975722Y30474704D01*
X24906189Y30470790D01*
X24839281Y30452047D01*
X24777097Y30419042D01*
X24721735Y30372343D01*
X24678827Y30318076D01*
X24662765Y30295760D01*
X24648908Y30280772D01*
X24642055Y30276800D01*
X24631507Y30279933D01*
X24607865Y30288680D01*
X24573629Y30302058D01*
X24531301Y30319086D01*
X24483383Y30338783D01*
X24472031Y30343505D01*
X24416170Y30366743D01*
X24358747Y30390538D01*
X24304141Y30413084D01*
X24256732Y30432572D01*
X24223134Y30446286D01*
X24186539Y30461467D01*
X24155304Y30475039D01*
X24133068Y30485383D01*
X24123943Y30490441D01*
X24120464Y30498780D01*
X24124072Y30514949D01*
X24135540Y30541605D01*
X24143553Y30557894D01*
X24157256Y30587153D01*
X24166606Y30611146D01*
X24169952Y30625520D01*
X24169722Y30626951D01*
X24163851Y30636930D01*
X24150049Y30658231D01*
X24130035Y30688262D01*
X24105530Y30724431D01*
X24088729Y30748957D01*
X24062545Y30787652D01*
X24040159Y30821932D01*
X24023208Y30849195D01*
X24013326Y30866841D01*
X24011467Y30871846D01*
X24017206Y30880962D01*
X24033142Y30899801D01*
X24057354Y30926259D01*
X24087922Y30958232D01*
X24119535Y30990239D01*
X24154931Y31024873D01*
X24186917Y31054890D01*
X24213337Y31078367D01*
X24232033Y31093380D01*
X24240476Y31098066D01*
X24246917Y31096679D01*
X24257344Y31091829D01*
X24273364Y31082483D01*
X24296581Y31067609D01*
X24328603Y31046174D01*
X24371035Y31017146D01*
X24425483Y30979491D01*
X24433089Y30974213D01*
X24459916Y30956447D01*
X24482111Y30943305D01*
X24495489Y30937232D01*
X24496589Y30937079D01*
X24507799Y30939985D01*
X24531597Y30948048D01*
X24564845Y30960147D01*
X24604405Y30975160D01*
X24618727Y30980726D01*
X24658522Y30996035D01*
X24688550Y31008276D01*
X24710578Y31020012D01*
X24726375Y31033806D01*
X24737709Y31052220D01*
X24746347Y31077817D01*
X24754059Y31113158D01*
X24762611Y31160808D01*
X24769360Y31199046D01*
X24777391Y31242748D01*
X24784707Y31280513D01*
X24790670Y31309198D01*
X24794641Y31325658D01*
X24795558Y31328163D01*
X24804975Y31330322D01*
X24828655Y31332209D01*
X24863930Y31333713D01*
X24908129Y31334724D01*
X24958584Y31335130D01*
X24963530Y31335133D01*
X25127194Y31335133D01*
X25153799Y31193316D01*
X25163053Y31145204D01*
X25171798Y31101959D01*
X25179361Y31066745D01*
X25185069Y31042727D01*
X25187672Y31034093D01*
X25198217Y31024026D01*
X25221120Y31010022D01*
X25252762Y30993658D01*
X25289528Y30976511D01*
X25327801Y30960155D01*
X25363965Y30946168D01*
X25394404Y30936126D01*
X25415501Y30931605D01*
X25421807Y30932040D01*
X25433299Y30938492D01*
X25456050Y30952869D01*
X25487407Y30973440D01*
X25524720Y30998472D01*
X25553042Y31017776D01*
X25592605Y31044479D01*
X25627812Y31067422D01*
X25656109Y31085005D01*
X25674940Y31095627D01*
X25681216Y31098066D01*
X25691274Y31092208D01*
X25710397Y31076220D01*
X25736237Y31052479D01*
X25766445Y31023365D01*
X25798673Y30991255D01*
X25830571Y30958529D01*
X25859793Y30927565D01*
X25883990Y30900741D01*
X25900812Y30880436D01*
X25907913Y30869029D01*
X25908000Y30868374D01*
X25903088Y30852117D01*
X25892468Y30834625D01*
X25882330Y30820623D01*
X25864837Y30795620D01*
X25842096Y30762659D01*
X25816211Y30724780D01*
X25804094Y30706935D01*
X25731252Y30599438D01*
X25773919Y30495269D01*
X25790507Y30455826D01*
X25805632Y30421788D01*
X25817794Y30396400D01*
X25825492Y30382904D01*
X25826310Y30381968D01*
X25838587Y30376487D01*
X25863224Y30369535D01*
X25895853Y30362270D01*
X25912233Y30359162D01*
X25958714Y30350820D01*
X26011513Y30341344D01*
X26060283Y30332591D01*
X26066750Y30331431D01*
X26145067Y30317374D01*
X26145067Y29983487D01*
X25990550Y29955218D01*
X25990550Y29955218D01*
G37*
X25990550Y29955218D02*
X25941011Y29945769D01*
X25896982Y29936641D01*
X25861281Y29928478D01*
X25836729Y29921922D01*
X25826249Y29917725D01*
X25819546Y29906742D01*
X25808161Y29883252D01*
X25793587Y29850512D01*
X25777318Y29811783D01*
X25774343Y29804474D01*
X25732223Y29700449D01*
X25753701Y29669008D01*
X25799168Y29602230D01*
X25835616Y29548172D01*
X25863771Y29505705D01*
X25884360Y29473702D01*
X25898110Y29451035D01*
X25905746Y29436575D01*
X25908000Y29429382D01*
X25902202Y29419537D01*
X25886379Y29400512D01*
X25862888Y29374673D01*
X25834085Y29344383D01*
X25802327Y29312009D01*
X25769970Y29279915D01*
X25739370Y29250467D01*
X25712885Y29226030D01*
X25692871Y29208968D01*
X25681684Y29201646D01*
X25680976Y29201533D01*
X25670662Y29206124D01*
X25649029Y29218830D01*
X25618623Y29238052D01*
X25581994Y29262191D01*
X25553042Y29281823D01*
X25513133Y29308953D01*
X25477318Y29332837D01*
X25448248Y29351743D01*
X25428576Y29363938D01*
X25421807Y29367559D01*
X25407406Y29366734D01*
X25381670Y29359529D01*
X25348212Y29347518D01*
X25310648Y29332275D01*
X25272590Y29315375D01*
X25237652Y29298391D01*
X25209449Y29282898D01*
X25191595Y29270469D01*
X25187494Y29265506D01*
X25184262Y29253516D01*
X25178646Y29228332D01*
X25171326Y29193415D01*
X25162979Y29152224D01*
X25154286Y29108221D01*
X25145925Y29064866D01*
X25138574Y29025619D01*
X25132914Y28993940D01*
X25129623Y28973290D01*
X25129067Y28967732D01*
X25121027Y28966735D01*
X25098606Y28966071D01*
X25064356Y28965763D01*
X25020826Y28965829D01*
X24970566Y28966290D01*
X24961882Y28966404D01*
X24794697Y28968700D01*
X24787926Y29002566D01*
X24783807Y29023389D01*
X24777283Y29056629D01*
X24769178Y29098079D01*
X24760314Y29143535D01*
X24758260Y29154086D01*
X24735367Y29271739D01*
X24625300Y29316767D01*
X24584457Y29333124D01*
X24548491Y29346873D01*
X24520650Y29356818D01*
X24504187Y29361766D01*
X24501932Y29362098D01*
X24490786Y29357618D01*
X24468366Y29345025D01*
X24437277Y29325908D01*
X24400125Y29301854D01*
X24370699Y29282108D01*
X24330799Y29255433D01*
X24295109Y29232490D01*
X24266225Y29214876D01*
X24246741Y29204187D01*
X24239945Y29201675D01*
X24230159Y29207401D01*
X24211145Y29223114D01*
X24185274Y29246468D01*
X24154921Y29275115D01*
X24122459Y29306710D01*
X24090262Y29338906D01*
X24060703Y29369358D01*
X24036155Y29395720D01*
X24018993Y29415645D01*
X24011589Y29426787D01*
X24011467Y29427517D01*
X24016068Y29437464D01*
X24028802Y29458744D01*
X24048065Y29488835D01*
X24072255Y29525216D01*
X24091900Y29554003D01*
X24118605Y29593125D01*
X24141560Y29627510D01*
X24159170Y29654708D01*
X24169841Y29672269D01*
X24172333Y29677599D01*
X24168757Y29687976D01*
X24159273Y29709255D01*
X24145750Y29737295D01*
X24142157Y29744479D01*
X24128370Y29772769D01*
X24118615Y29794561D01*
X24114552Y29806087D01*
X24114640Y29806944D01*
X24122937Y29810812D01*
X24144609Y29820162D01*
X24177367Y29834046D01*
X24218921Y29851513D01*
X24266984Y29871611D01*
X24319266Y29893391D01*
X24373478Y29915903D01*
X24427332Y29938195D01*
X24478538Y29959318D01*
X24524809Y29978322D01*
X24563854Y29994255D01*
X24593385Y30006167D01*
X24611114Y30013109D01*
X24611538Y30013267D01*
X24634345Y30021159D01*
X24646763Y30022502D01*
X24654138Y30017011D01*
X24658105Y30010760D01*
X24668020Y29996532D01*
X24685420Y29973957D01*
X24706796Y29947570D01*
X24709967Y29943757D01*
X24762060Y29893306D01*
X24820868Y29856844D01*
X24884172Y29834156D01*
X24949755Y29825027D01*
X25015398Y29829244D01*
X25078883Y29846591D01*
X25137991Y29876855D01*
X25190506Y29919821D01*
X25234209Y29975275D01*
X25245931Y29995550D01*
X25272522Y30062233D01*
X25283719Y30131120D01*
X25280245Y30199804D01*
X25262819Y30265875D01*
X25232160Y30326927D01*
X25188990Y30380552D01*
X25134028Y30424341D01*
X25114268Y30435777D01*
X25045781Y30463222D01*
X24975722Y30474704D01*
X24906189Y30470790D01*
X24839281Y30452047D01*
X24777097Y30419042D01*
X24721735Y30372343D01*
X24678827Y30318076D01*
X24662765Y30295760D01*
X24648908Y30280772D01*
X24642055Y30276800D01*
X24631507Y30279933D01*
X24607865Y30288680D01*
X24573629Y30302058D01*
X24531301Y30319086D01*
X24483383Y30338783D01*
X24472031Y30343505D01*
X24416170Y30366743D01*
X24358747Y30390538D01*
X24304141Y30413084D01*
X24256732Y30432572D01*
X24223134Y30446286D01*
X24186539Y30461467D01*
X24155304Y30475039D01*
X24133068Y30485383D01*
X24123943Y30490441D01*
X24120464Y30498780D01*
X24124072Y30514949D01*
X24135540Y30541605D01*
X24143553Y30557894D01*
X24157256Y30587153D01*
X24166606Y30611146D01*
X24169952Y30625520D01*
X24169722Y30626951D01*
X24163851Y30636930D01*
X24150049Y30658231D01*
X24130035Y30688262D01*
X24105530Y30724431D01*
X24088729Y30748957D01*
X24062545Y30787652D01*
X24040159Y30821932D01*
X24023208Y30849195D01*
X24013326Y30866841D01*
X24011467Y30871846D01*
X24017206Y30880962D01*
X24033142Y30899801D01*
X24057354Y30926259D01*
X24087922Y30958232D01*
X24119535Y30990239D01*
X24154931Y31024873D01*
X24186917Y31054890D01*
X24213337Y31078367D01*
X24232033Y31093380D01*
X24240476Y31098066D01*
X24246917Y31096679D01*
X24257344Y31091829D01*
X24273364Y31082483D01*
X24296581Y31067609D01*
X24328603Y31046174D01*
X24371035Y31017146D01*
X24425483Y30979491D01*
X24433089Y30974213D01*
X24459916Y30956447D01*
X24482111Y30943305D01*
X24495489Y30937232D01*
X24496589Y30937079D01*
X24507799Y30939985D01*
X24531597Y30948048D01*
X24564845Y30960147D01*
X24604405Y30975160D01*
X24618727Y30980726D01*
X24658522Y30996035D01*
X24688550Y31008276D01*
X24710578Y31020012D01*
X24726375Y31033806D01*
X24737709Y31052220D01*
X24746347Y31077817D01*
X24754059Y31113158D01*
X24762611Y31160808D01*
X24769360Y31199046D01*
X24777391Y31242748D01*
X24784707Y31280513D01*
X24790670Y31309198D01*
X24794641Y31325658D01*
X24795558Y31328163D01*
X24804975Y31330322D01*
X24828655Y31332209D01*
X24863930Y31333713D01*
X24908129Y31334724D01*
X24958584Y31335130D01*
X24963530Y31335133D01*
X25127194Y31335133D01*
X25153799Y31193316D01*
X25163053Y31145204D01*
X25171798Y31101959D01*
X25179361Y31066745D01*
X25185069Y31042727D01*
X25187672Y31034093D01*
X25198217Y31024026D01*
X25221120Y31010022D01*
X25252762Y30993658D01*
X25289528Y30976511D01*
X25327801Y30960155D01*
X25363965Y30946168D01*
X25394404Y30936126D01*
X25415501Y30931605D01*
X25421807Y30932040D01*
X25433299Y30938492D01*
X25456050Y30952869D01*
X25487407Y30973440D01*
X25524720Y30998472D01*
X25553042Y31017776D01*
X25592605Y31044479D01*
X25627812Y31067422D01*
X25656109Y31085005D01*
X25674940Y31095627D01*
X25681216Y31098066D01*
X25691274Y31092208D01*
X25710397Y31076220D01*
X25736237Y31052479D01*
X25766445Y31023365D01*
X25798673Y30991255D01*
X25830571Y30958529D01*
X25859793Y30927565D01*
X25883990Y30900741D01*
X25900812Y30880436D01*
X25907913Y30869029D01*
X25908000Y30868374D01*
X25903088Y30852117D01*
X25892468Y30834625D01*
X25882330Y30820623D01*
X25864837Y30795620D01*
X25842096Y30762659D01*
X25816211Y30724780D01*
X25804094Y30706935D01*
X25731252Y30599438D01*
X25773919Y30495269D01*
X25790507Y30455826D01*
X25805632Y30421788D01*
X25817794Y30396400D01*
X25825492Y30382904D01*
X25826310Y30381968D01*
X25838587Y30376487D01*
X25863224Y30369535D01*
X25895853Y30362270D01*
X25912233Y30359162D01*
X25958714Y30350820D01*
X26011513Y30341344D01*
X26060283Y30332591D01*
X26066750Y30331431D01*
X26145067Y30317374D01*
X26145067Y29983487D01*
X25990550Y29955218D01*
D11*
G04 #@! TO.C,C1*
X3008400Y40729100D02*
X4408400Y40729100D01*
X3008400Y43929100D02*
X4408400Y43929100D01*
X3008400Y40729100D02*
X3008400Y43929100D01*
X4408400Y43929100D02*
X4408400Y40729100D01*
G04 #@! TO.C,C2*
X4761900Y40729100D02*
X6161900Y40729100D01*
X4761900Y43929100D02*
X6161900Y43929100D01*
X4761900Y40729100D02*
X4761900Y43929100D01*
X6161900Y43929100D02*
X6161900Y40729100D01*
G04 #@! TO.C,C3*
X10732896Y44893754D02*
X11722846Y45883704D01*
X8470154Y47156496D02*
X9460104Y48146446D01*
X10732896Y44893754D02*
X8470154Y47156496D01*
X9460104Y48146446D02*
X11722846Y45883704D01*
G04 #@! TO.C,C4*
X11987404Y45619146D02*
X10997454Y44629196D01*
X14250146Y43356404D02*
X13260196Y42366454D01*
X11987404Y45619146D02*
X14250146Y43356404D01*
X13260196Y42366454D02*
X10997454Y44629196D01*
G04 #@! TO.C,C5*
X16025900Y40513200D02*
X17425900Y40513200D01*
X16025900Y43713200D02*
X17425900Y43713200D01*
X16025900Y40513200D02*
X16025900Y43713200D01*
X17425900Y43713200D02*
X17425900Y40513200D01*
G04 #@! TO.C,C6*
X17676900Y40513200D02*
X19076900Y40513200D01*
X17676900Y43713200D02*
X19076900Y43713200D01*
X17676900Y40513200D02*
X17676900Y43713200D01*
X19076900Y43713200D02*
X19076900Y40513200D01*
G04 #@! TO.C,C7*
X1230400Y40729100D02*
X2630400Y40729100D01*
X1230400Y43929100D02*
X2630400Y43929100D01*
X1230400Y40729100D02*
X1230400Y43929100D01*
X2630400Y43929100D02*
X2630400Y40729100D01*
G04 #@! TO.C,C8*
X5258000Y29783000D02*
X5258000Y28383000D01*
X8458000Y29783000D02*
X8458000Y28383000D01*
X5258000Y29783000D02*
X8458000Y29783000D01*
X8458000Y28383000D02*
X5258000Y28383000D01*
G04 #@! TO.C,C9*
X17831000Y33974000D02*
X17831000Y32574000D01*
X21031000Y33974000D02*
X21031000Y32574000D01*
X17831000Y33974000D02*
X21031000Y33974000D01*
X21031000Y32574000D02*
X17831000Y32574000D01*
G04 #@! TO.C,C10*
X17642900Y5624600D02*
X17642900Y7024600D01*
X14442900Y5624600D02*
X14442900Y7024600D01*
X17642900Y5624600D02*
X14442900Y5624600D01*
X14442900Y7024600D02*
X17642900Y7024600D01*
G04 #@! TO.C,C11*
X9884900Y18338600D02*
X8484900Y18338600D01*
X9884900Y15138600D02*
X8484900Y15138600D01*
X9884900Y18338600D02*
X9884900Y15138600D01*
X8484900Y15138600D02*
X8484900Y18338600D01*
G04 #@! TO.C,C12*
X16211174Y48400190D02*
X16211174Y49800190D01*
X13011174Y48400190D02*
X13011174Y49800190D01*
X16211174Y48400190D02*
X13011174Y48400190D01*
X13011174Y49800190D02*
X16211174Y49800190D01*
G04 #@! TO.C,C13*
X16211174Y46685690D02*
X16211174Y48085690D01*
X13011174Y46685690D02*
X13011174Y48085690D01*
X16211174Y46685690D02*
X13011174Y46685690D01*
X13011174Y48085690D02*
X16211174Y48085690D01*
G04 #@! TO.C,C14*
X23176000Y-1295200D02*
X24576000Y-1295200D01*
X23176000Y1904800D02*
X24576000Y1904800D01*
X23176000Y-1295200D02*
X23176000Y1904800D01*
X24576000Y1904800D02*
X24576000Y-1295200D01*
G04 #@! TO.C,C15*
X8791400Y7850100D02*
X8791400Y6450100D01*
X11991400Y7850100D02*
X11991400Y6450100D01*
X8791400Y7850100D02*
X11991400Y7850100D01*
X11991400Y6450100D02*
X8791400Y6450100D01*
G04 #@! TO.C,C16*
X11786900Y15138600D02*
X13186900Y15138600D01*
X11786900Y18338600D02*
X13186900Y18338600D01*
X11786900Y15138600D02*
X11786900Y18338600D01*
X13186900Y18338600D02*
X13186900Y15138600D01*
G04 #@! TO.C,C17*
X22306061Y10394719D02*
X23706061Y10394719D01*
X22306061Y13594719D02*
X23706061Y13594719D01*
X22306061Y10394719D02*
X22306061Y13594719D01*
X23706061Y13594719D02*
X23706061Y10394719D01*
G04 #@! TO.C,C18*
X29230561Y13658219D02*
X27830561Y13658219D01*
X29230561Y10458219D02*
X27830561Y10458219D01*
X29230561Y13658219D02*
X29230561Y10458219D01*
X27830561Y10458219D02*
X27830561Y13658219D01*
G04 #@! TO.C,C19*
X14111400Y19213600D02*
X14111400Y20613600D01*
X10911400Y19213600D02*
X10911400Y20613600D01*
X14111400Y19213600D02*
X10911400Y19213600D01*
X10911400Y20613600D02*
X14111400Y20613600D01*
G04 #@! TO.C,C20*
X13273000Y54520900D02*
X11873000Y54520900D01*
X13273000Y51320900D02*
X11873000Y51320900D01*
X13273000Y54520900D02*
X13273000Y51320900D01*
X11873000Y51320900D02*
X11873000Y54520900D01*
G04 #@! TO.C,C21*
X17870400Y24485400D02*
X16470400Y24485400D01*
X17870400Y21285400D02*
X16470400Y21285400D01*
X17870400Y24485400D02*
X17870400Y21285400D01*
X16470400Y21285400D02*
X16470400Y24485400D01*
G04 #@! TO.C,D5*
X6072200Y15513000D02*
X6072200Y16113000D01*
X4072200Y14113000D02*
X6072200Y14113000D01*
X4072200Y15363000D02*
X4072200Y14863000D01*
X6072200Y16113000D02*
X4072200Y16113000D01*
X6072200Y14113000D02*
X6072200Y14713000D01*
G04 #@! TO.C,D6*
X21619311Y2995800D02*
G75*
G03X21619311Y2995800I-70711J0D01*
G01*
X21198600Y4445800D02*
X21198600Y4895800D01*
X19898600Y4045800D02*
X19898600Y4945800D01*
X19898600Y5945800D02*
X21198600Y5945800D01*
X19898600Y3045800D02*
X21198600Y3045800D01*
G04 #@! TO.C,D7*
X17681400Y12168100D02*
X20881400Y12168100D01*
X20881400Y12168100D02*
X20881400Y10768100D01*
X20881400Y10768100D02*
X17681400Y10768100D01*
X17681400Y10768100D02*
X17681400Y12168100D01*
X17681400Y12168100D02*
X17481400Y12168100D01*
X17481400Y12168100D02*
X17481400Y10768100D01*
X17481400Y10768100D02*
X17681400Y10768100D01*
G04 #@! TO.C,D8*
X17681400Y13882600D02*
X20881400Y13882600D01*
X20881400Y13882600D02*
X20881400Y12482600D01*
X20881400Y12482600D02*
X17681400Y12482600D01*
X17681400Y12482600D02*
X17681400Y13882600D01*
X17681400Y13882600D02*
X17481400Y13882600D01*
X17481400Y13882600D02*
X17481400Y12482600D01*
X17481400Y12482600D02*
X17681400Y12482600D01*
G04 #@! TO.C,F1*
X15896900Y1839600D02*
X16696900Y1839600D01*
X15896900Y3189600D02*
X16696900Y3189600D01*
D13*
G04 #@! TO.C,J9*
X-1682400Y34551800D02*
X-3482400Y34551800D01*
X-3482400Y34551800D02*
X-3482400Y32701800D01*
X-3482400Y32701800D02*
X-4222400Y32701800D01*
X-1682400Y24731800D02*
X-3482400Y24731800D01*
X-3482400Y24731800D02*
X-3482400Y26581800D01*
X1637600Y34551800D02*
X2187600Y34551800D01*
X2187600Y34551800D02*
X2187600Y24731800D01*
X2187600Y24731800D02*
X1637600Y24731800D01*
D11*
G04 #@! TO.C,L1*
X-547600Y40729100D02*
X852400Y40729100D01*
X-547600Y43929100D02*
X852400Y43929100D01*
X-547600Y40729100D02*
X-547600Y43929100D01*
X852400Y43929100D02*
X852400Y40729100D01*
G04 #@! TO.C,L2*
X17642900Y3960900D02*
X17642900Y5360900D01*
X14442900Y3960900D02*
X14442900Y5360900D01*
X17642900Y3960900D02*
X14442900Y3960900D01*
X14442900Y5360900D02*
X17642900Y5360900D01*
G04 #@! TO.C,R2*
X25654200Y38622200D02*
X25654200Y37222200D01*
X28854200Y38622200D02*
X28854200Y37222200D01*
X25654200Y38622200D02*
X28854200Y38622200D01*
X28854200Y37222200D02*
X25654200Y37222200D01*
G04 #@! TO.C,R3*
X25654200Y40324000D02*
X25654200Y38924000D01*
X28854200Y40324000D02*
X28854200Y38924000D01*
X25654200Y40324000D02*
X28854200Y40324000D01*
X28854200Y38924000D02*
X25654200Y38924000D01*
G04 #@! TO.C,R7*
X11535900Y18338600D02*
X10135900Y18338600D01*
X11535900Y15138600D02*
X10135900Y15138600D01*
X11535900Y18338600D02*
X11535900Y15138600D01*
X10135900Y15138600D02*
X10135900Y18338600D01*
G04 #@! TO.C,R8*
X3076400Y12993600D02*
X3076400Y11593600D01*
X6276400Y12993600D02*
X6276400Y11593600D01*
X3076400Y12993600D02*
X6276400Y12993600D01*
X6276400Y11593600D02*
X3076400Y11593600D01*
G04 #@! TO.C,R9*
X20930300Y36650700D02*
X20930300Y38050700D01*
X17730300Y36650700D02*
X17730300Y38050700D01*
X20930300Y36650700D02*
X17730300Y36650700D01*
X17730300Y38050700D02*
X20930300Y38050700D01*
G04 #@! TO.C,R10*
X3076400Y11342600D02*
X3076400Y9942600D01*
X6276400Y11342600D02*
X6276400Y9942600D01*
X3076400Y11342600D02*
X6276400Y11342600D01*
X6276400Y9942600D02*
X3076400Y9942600D01*
G04 #@! TO.C,R11*
X3076400Y9691600D02*
X3076400Y8291600D01*
X6276400Y9691600D02*
X6276400Y8291600D01*
X3076400Y9691600D02*
X6276400Y9691600D01*
X6276400Y8291600D02*
X3076400Y8291600D01*
G04 #@! TO.C,R12*
X20930300Y38301700D02*
X20930300Y39701700D01*
X17730300Y38301700D02*
X17730300Y39701700D01*
X20930300Y38301700D02*
X17730300Y38301700D01*
X17730300Y39701700D02*
X20930300Y39701700D01*
G04 #@! TO.C,R13*
X24581037Y-1783317D02*
X23181037Y-1783317D01*
X24581037Y-4983317D02*
X23181037Y-4983317D01*
X24581037Y-1783317D02*
X24581037Y-4983317D01*
X23181037Y-4983317D02*
X23181037Y-1783317D01*
G04 #@! TO.C,R14*
X21377100Y25274500D02*
X21377100Y23874500D01*
X24577100Y25274500D02*
X24577100Y23874500D01*
X21377100Y25274500D02*
X24577100Y25274500D01*
X24577100Y23874500D02*
X21377100Y23874500D01*
G04 #@! TO.C,R15*
X21389800Y23572700D02*
X21389800Y22172700D01*
X24589800Y23572700D02*
X24589800Y22172700D01*
X21389800Y23572700D02*
X24589800Y23572700D01*
X24589800Y22172700D02*
X21389800Y22172700D01*
G04 #@! TO.C,R16*
X14125400Y12168100D02*
X14125400Y10768100D01*
X17325400Y12168100D02*
X17325400Y10768100D01*
X14125400Y12168100D02*
X17325400Y12168100D01*
X17325400Y10768100D02*
X14125400Y10768100D01*
G04 #@! TO.C,R17*
X14125400Y13882600D02*
X14125400Y12482600D01*
X17325400Y13882600D02*
X17325400Y12482600D01*
X14125400Y13882600D02*
X17325400Y13882600D01*
X17325400Y12482600D02*
X14125400Y12482600D01*
G04 #@! TO.C,R18*
X6276400Y6640600D02*
X6276400Y8040600D01*
X3076400Y6640600D02*
X3076400Y8040600D01*
X6276400Y6640600D02*
X3076400Y6640600D01*
X3076400Y8040600D02*
X6276400Y8040600D01*
G04 #@! TO.C,R19*
X22319561Y10091219D02*
X22319561Y8691219D01*
X25519561Y10091219D02*
X25519561Y8691219D01*
X22319561Y10091219D02*
X25519561Y10091219D01*
X25519561Y8691219D02*
X22319561Y8691219D01*
G04 #@! TO.C,R20*
X29217061Y8691219D02*
X29217061Y10091219D01*
X26017061Y8691219D02*
X26017061Y10091219D01*
X29217061Y8691219D02*
X26017061Y8691219D01*
X26017061Y10091219D02*
X29217061Y10091219D01*
G04 #@! TO.C,R21*
X29227000Y17410600D02*
X27827000Y17410600D01*
X29227000Y14210600D02*
X27827000Y14210600D01*
X29227000Y17410600D02*
X29227000Y14210600D01*
X27827000Y14210600D02*
X27827000Y17410600D01*
G04 #@! TO.C,R22*
X26404600Y18186600D02*
X27804600Y18186600D01*
X26404600Y21386600D02*
X27804600Y21386600D01*
X26404600Y18186600D02*
X26404600Y21386600D01*
X27804600Y21386600D02*
X27804600Y18186600D01*
D12*
G04 #@! TO.C,U1*
X10172938Y40956256D02*
G75*
G03X10172938Y40956256I-70711J0D01*
G01*
D11*
X10915400Y30667853D02*
X15865147Y35617600D01*
X5965653Y35617600D02*
X10915400Y40567347D01*
X10915400Y40567347D02*
X15865147Y35617600D01*
X5965653Y35617600D02*
X10915400Y30667853D01*
G04 #@! TO.C,U3*
X9220900Y12773100D02*
X9220900Y13173100D01*
X9220900Y13173100D02*
X9620900Y13173100D01*
X12220900Y12773100D02*
X12220900Y13173100D01*
X12220900Y13173100D02*
X11820900Y13173100D01*
X11820900Y10173100D02*
X12220900Y10173100D01*
X12220900Y10173100D02*
X12220900Y10573100D01*
D12*
X9491611Y9673100D02*
G75*
G03X9491611Y9673100I-70711J0D01*
G01*
D11*
X9220900Y10573100D02*
X9220900Y10173100D01*
X9220900Y10173100D02*
X9620900Y10173100D01*
G04 #@! TO.C,U5*
X26880061Y12627219D02*
X26880061Y14777219D01*
X24630061Y11802219D02*
X24630061Y14777219D01*
G04 #@! TO.C,U6*
X14658400Y15357600D02*
X20658400Y15357600D01*
X14658400Y15357600D02*
X14658400Y20357600D01*
X14658400Y20357600D02*
X20658400Y20357600D01*
X20658400Y20357600D02*
X20658400Y15357600D01*
G04 #@! TO.C,Y1*
X8920517Y43485823D02*
X9627623Y42778717D01*
X9981177Y44546483D02*
X10688283Y43839377D01*
G04 #@! TO.C,D1*
X13487600Y62726800D02*
X16687600Y62726800D01*
X16687600Y62726800D02*
X16687600Y61326800D01*
X16687600Y61326800D02*
X13487600Y61326800D01*
X13487600Y61326800D02*
X13487600Y62726800D01*
X13487600Y62726800D02*
X13287600Y62726800D01*
X13287600Y62726800D02*
X13287600Y61326800D01*
X13287600Y61326800D02*
X13487600Y61326800D01*
G04 #@! TO.C,Q1*
X17194400Y62344200D02*
X17194400Y60944200D01*
X18094400Y60944200D02*
X17194400Y60944200D01*
X20194400Y60944200D02*
X19194400Y60944200D01*
X20194400Y62344200D02*
X20194400Y60944200D01*
X19094400Y62344200D02*
X18294400Y62344200D01*
G04 #@! TO.C,R1*
X13487600Y61050400D02*
X13487600Y59650400D01*
X16687600Y61050400D02*
X16687600Y59650400D01*
X13487600Y61050400D02*
X16687600Y61050400D01*
X16687600Y59650400D02*
X13487600Y59650400D01*
G04 #@! TO.C,U7*
X11974200Y59222000D02*
X11974200Y59422000D01*
X10424200Y59222000D02*
X11974200Y59222000D01*
X11974200Y61422000D02*
X11974200Y60722000D01*
X6974200Y59222000D02*
X10474200Y59222000D01*
X11974200Y61422000D02*
X11974200Y64022000D01*
X6694621Y64135000D02*
G75*
G03X6694621Y64135000I-141421J0D01*
G01*
X6974200Y60722000D02*
X6974200Y62722000D01*
X6974200Y64022000D02*
X6974200Y64222000D01*
X6974200Y64222000D02*
X11974200Y64222000D01*
X11974200Y64222000D02*
X11974200Y64022000D01*
X6974200Y59222000D02*
X6974200Y59372000D01*
D13*
G04 #@! TO.C,J1*
X-1631600Y12473800D02*
X-3431600Y12473800D01*
X-3431600Y12473800D02*
X-3431600Y10623800D01*
X-3431600Y10623800D02*
X-4171600Y10623800D01*
X-1631600Y5153800D02*
X-3431600Y5153800D01*
X-3431600Y5153800D02*
X-3431600Y7003800D01*
X1688400Y12473800D02*
X2238400Y12473800D01*
X2238400Y12473800D02*
X2238400Y5153800D01*
X2238400Y5153800D02*
X1688400Y5153800D01*
G04 #@! TO.C,J6*
X-1657000Y22725400D02*
X-3457000Y22725400D01*
X-3457000Y22725400D02*
X-3457000Y20875400D01*
X-3457000Y20875400D02*
X-4197000Y20875400D01*
X-1657000Y14155400D02*
X-3457000Y14155400D01*
X-3457000Y14155400D02*
X-3457000Y16005400D01*
X1663000Y22725400D02*
X2213000Y22725400D01*
X2213000Y22725400D02*
X2213000Y14155400D01*
X2213000Y14155400D02*
X1663000Y14155400D01*
D11*
G04 #@! TO.C,C22*
X-874800Y43916400D02*
X-2274800Y43916400D01*
X-874800Y40716400D02*
X-2274800Y40716400D01*
X-874800Y43916400D02*
X-874800Y40716400D01*
X-2274800Y40716400D02*
X-2274800Y43916400D01*
G04 #@! TO.C,C23*
X633897Y50875845D02*
X-2566103Y50875845D01*
X-2566103Y52275845D02*
X633897Y52275845D01*
X633897Y52275845D02*
X633897Y50875845D01*
X-2566103Y52275845D02*
X-2566103Y50875845D01*
G04 #@! TO.C,C24*
X-2566103Y53926845D02*
X-2566103Y52526845D01*
X633897Y53926845D02*
X633897Y52526845D01*
X-2566103Y53926845D02*
X633897Y53926845D01*
X633897Y52526845D02*
X-2566103Y52526845D01*
G04 #@! TO.C,R4*
X-4332200Y50825600D02*
X-2932200Y50825600D01*
X-4332200Y54025600D02*
X-2932200Y54025600D01*
X-4332200Y50825600D02*
X-4332200Y54025600D01*
X-2932200Y54025600D02*
X-2932200Y50825600D01*
D13*
G04 #@! TO.C,U8*
X-4099200Y48626600D02*
X-4099200Y46826600D01*
X-879200Y46826600D02*
X-879200Y49276600D01*
D12*
G04 #@! TO.C,U4*
X3339711Y54493800D02*
G75*
G03X3339711Y54493800I-70711J0D01*
G01*
D11*
X4469000Y54443800D02*
X4469000Y49543800D01*
X4469000Y49543800D02*
X7469000Y49543800D01*
X7469000Y49543800D02*
X7469000Y54443800D01*
X7469000Y54443800D02*
X4469000Y54443800D01*
G04 #@! TO.C,R5*
X877000Y37146000D02*
X-2323000Y37146000D01*
X-2323000Y38546000D02*
X877000Y38546000D01*
X877000Y38546000D02*
X877000Y37146000D01*
X-2323000Y38546000D02*
X-2323000Y37146000D01*
G04 #@! TO.C,R6*
X-2616000Y56834000D02*
X-2616000Y55434000D01*
X584000Y56834000D02*
X584000Y55434000D01*
X-2616000Y56834000D02*
X584000Y56834000D01*
X584000Y55434000D02*
X-2616000Y55434000D01*
G04 #@! TD*
M02*
