G04 #@! TF.GenerationSoftware,KiCad,Pcbnew,(5.0.0)*
G04 #@! TF.CreationDate,2019-01-02T14:49:52-06:00*
G04 #@! TF.ProjectId,fk-sonar,666B2D736F6E61722E6B696361645F70,0.1*
G04 #@! TF.SameCoordinates,PX791ddc0PY791ddc0*
G04 #@! TF.FileFunction,Copper,L3,Inr,Plane*
G04 #@! TF.FilePolarity,Positive*
%FSLAX46Y46*%
G04 Gerber Fmt 4.6, Leading zero omitted, Abs format (unit mm)*
G04 Created by KiCad (PCBNEW (5.0.0)) date 01/02/19 14:49:52*
%MOMM*%
%LPD*%
G01*
G04 APERTURE LIST*
G04 #@! TA.AperFunction,ViaPad*
%ADD10O,1.600000X1.651000*%
G04 #@! TD*
G04 #@! TA.AperFunction,ViaPad*
%ADD11O,1.100000X1.800000*%
G04 #@! TD*
G04 #@! TA.AperFunction,ViaPad*
%ADD12O,1.100000X2.200000*%
G04 #@! TD*
G04 #@! TA.AperFunction,ViaPad*
%ADD13C,0.500000*%
G04 #@! TD*
G04 #@! TA.AperFunction,Conductor*
%ADD14C,0.203200*%
G04 #@! TD*
G04 APERTURE END LIST*
D10*
G04 #@! TO.N,*
G04 #@! TO.C,J3*
X27964500Y24108000D03*
X27964500Y30708000D03*
G04 #@! TD*
D11*
G04 #@! TO.N,Net-(C13-Pad1)*
G04 #@! TO.C,J4*
X24604000Y24608000D03*
G04 #@! TO.N,Net-(J4-Pad7)*
X24604000Y30208000D03*
D12*
G04 #@! TO.N,Net-(J4-Pad8)*
X26754000Y27408000D03*
G04 #@! TD*
D13*
G04 #@! TO.N,GND*
X8974000Y54713000D03*
X7958000Y54713000D03*
X6942000Y54713000D03*
X5926000Y54713000D03*
X2624000Y54713000D03*
X1608000Y54713000D03*
X592000Y54713000D03*
X-424000Y54713000D03*
X-1440000Y54713000D03*
X17610000Y62333000D03*
X10752000Y46966000D03*
X7958000Y63730000D03*
X-1694000Y21312000D03*
X-2710000Y32234000D03*
X14562000Y35028000D03*
X27008000Y2008000D03*
X19451500Y17375000D03*
X19451500Y14263500D03*
X20023000Y15787500D03*
X17483000Y3610000D03*
X15895500Y3610000D03*
X19134000Y3595500D03*
X21483500Y8802500D03*
X25166500Y36615500D03*
X27706500Y32805500D03*
X20023000Y33504000D03*
X2624000Y43409100D03*
X4338500Y43409100D03*
X4084500Y32551500D03*
X8148500Y33821500D03*
X5227500Y801500D03*
X-614500Y1627000D03*
X-2392500Y10453500D03*
X5291000Y10517000D03*
X12339500Y23915500D03*
X8910500Y38774500D03*
X13241776Y37888715D03*
X17483000Y43193200D03*
X14181000Y3571000D03*
X20785000Y3571000D03*
X21356500Y28741500D03*
X23515500Y25312500D03*
X17292500Y26138000D03*
X16594000Y27090500D03*
X20531000Y24550500D03*
X23642500Y46966000D03*
X23642500Y48172500D03*
X22055000Y51411000D03*
X24023500Y16676500D03*
X27198500Y20081000D03*
X13165000Y17946500D03*
X26436500Y46013500D03*
X26436500Y42648000D03*
G04 #@! TO.N,3V3*
X-1440000Y55983000D03*
X-424000Y55983000D03*
X592000Y55983000D03*
X1608000Y55983000D03*
X2624000Y55983000D03*
X5926000Y55983000D03*
X6942000Y55983000D03*
X7958000Y55983000D03*
X8974000Y55983000D03*
X16467000Y62206000D03*
X11768000Y59412000D03*
X-1694000Y18772000D03*
X18168800Y17544400D03*
X18118000Y14136500D03*
X22118500Y14771500D03*
X13038000Y14898500D03*
X25166500Y38139500D03*
X27833500Y34393000D03*
X13609500Y27408000D03*
X13546000Y24868000D03*
X12403000Y25654500D03*
X11831500Y14073000D03*
X28341500Y14009500D03*
X401500Y46966000D03*
X6497500Y47791500D03*
X20500Y44172000D03*
X6513200Y32365700D03*
X14879500Y41060500D03*
X18753000Y35282000D03*
X23642500Y45696000D03*
X17483000Y34266000D03*
X20277000Y16676500D03*
X21166000Y15851000D03*
G04 #@! TO.N,/RST*
X20213500Y50509300D03*
X28443100Y48210600D03*
G04 #@! TO.N,/RESET*
X16086000Y39159490D03*
X25103000Y39854000D03*
G04 #@! TO.N,/A1*
X6116500Y39282500D03*
X-3916500Y20042000D03*
G04 #@! TO.N,/A3*
X7577000Y37250500D03*
X8021500Y60174000D03*
G04 #@! TO.N,/MOSI*
X26754000Y11914000D03*
X8719986Y33250000D03*
G04 #@! TO.N,/SCK*
X25484000Y11914000D03*
X8055621Y30202000D03*
G04 #@! TO.N,/MISO*
X24214000Y5564000D03*
X7704000Y31218000D03*
G04 #@! TO.N,/USB-*
X23134500Y26963500D03*
G04 #@! TO.N,/USB+*
X23864921Y27432441D03*
G04 #@! TO.N,VUSB*
X26690500Y29249500D03*
G04 #@! TO.N,/D13*
X19451500Y62142500D03*
X11577500Y31916500D03*
G04 #@! TO.N,/SCL1*
X2319200Y9206200D03*
X2141402Y-913000D03*
G04 #@! TO.N,/SDA1*
X2725600Y-1827400D03*
X-2913200Y-379600D03*
X5164000Y16740000D03*
G04 #@! TO.N,/SDA3*
X4719500Y33694500D03*
X2941500Y46013500D03*
G04 #@! TO.N,/SCL3*
X4783000Y46013500D03*
X5337574Y33485633D03*
G04 #@! TO.N,/D6_FLASH_CS*
X23198000Y5564000D03*
X14650657Y31569844D03*
G04 #@! TO.N,/PERIPH_3V3*
X19692800Y8256400D03*
X18168800Y8256400D03*
X18168800Y6732400D03*
X19692800Y6732400D03*
X18930800Y7494400D03*
X24214000Y11914000D03*
X22944000Y11914000D03*
X28341500Y10834500D03*
X25674500Y1690500D03*
G04 #@! TO.N,/D8_PERIPH_EN*
X16911500Y17248000D03*
X6751500Y36552000D03*
G04 #@! TO.N,/SENSOR_3V3*
X15120800Y8256400D03*
X16644800Y8256400D03*
X16644800Y6732400D03*
X15120800Y6732400D03*
X15882800Y7494400D03*
X11768000Y10644000D03*
X5227500Y1944500D03*
X-614500Y738000D03*
X-2392500Y11723500D03*
X5227500Y11660000D03*
G04 #@! TO.N,Net-(J3-Pad4)*
X20531000Y35155000D03*
X22499500Y28043000D03*
G04 #@! TO.N,/D7_SENSOR_EN*
X12847500Y33313500D03*
X15705000Y19343496D03*
G04 #@! TD*
D14*
G04 #@! TO.N,3V3*
G36*
X28734493Y64566116D02*
X28933287Y64433286D01*
X29066116Y64234493D01*
X29127498Y63925905D01*
X29184208Y63788995D01*
X29215447Y63757756D01*
X29153111Y63664464D01*
X29135671Y63706569D01*
X28670169Y64172071D01*
X28061960Y64424000D01*
X27403640Y64424000D01*
X26795431Y64172071D01*
X26329929Y63706569D01*
X26078000Y63098360D01*
X26078000Y62440040D01*
X26329929Y61831831D01*
X26795431Y61366329D01*
X27403640Y61114400D01*
X28061960Y61114400D01*
X28670169Y61366329D01*
X29120200Y61816360D01*
X29120201Y12777600D01*
X-4620200Y12777600D01*
X-4620200Y14373857D01*
X18896700Y14373857D01*
X18896700Y14153143D01*
X18981163Y13949231D01*
X19137231Y13793163D01*
X19341143Y13708700D01*
X19561857Y13708700D01*
X19765769Y13793163D01*
X19921837Y13949231D01*
X20006300Y14153143D01*
X20006300Y14373857D01*
X19921837Y14577769D01*
X19765769Y14733837D01*
X19561857Y14818300D01*
X19341143Y14818300D01*
X19137231Y14733837D01*
X18981163Y14577769D01*
X18896700Y14373857D01*
X-4620200Y14373857D01*
X-4620200Y15897857D01*
X19468200Y15897857D01*
X19468200Y15677143D01*
X19552663Y15473231D01*
X19708731Y15317163D01*
X19912643Y15232700D01*
X20133357Y15232700D01*
X20337269Y15317163D01*
X20493337Y15473231D01*
X20577800Y15677143D01*
X20577800Y15897857D01*
X20493337Y16101769D01*
X20337269Y16257837D01*
X20133357Y16342300D01*
X19912643Y16342300D01*
X19708731Y16257837D01*
X19552663Y16101769D01*
X19468200Y15897857D01*
X-4620200Y15897857D01*
X-4620200Y16850357D01*
X4609200Y16850357D01*
X4609200Y16629643D01*
X4693663Y16425731D01*
X4849731Y16269663D01*
X5053643Y16185200D01*
X5274357Y16185200D01*
X5478269Y16269663D01*
X5634337Y16425731D01*
X5718800Y16629643D01*
X5718800Y16850357D01*
X5634337Y17054269D01*
X5478269Y17210337D01*
X5274357Y17294800D01*
X5053643Y17294800D01*
X4849731Y17210337D01*
X4693663Y17054269D01*
X4609200Y16850357D01*
X-4620200Y16850357D01*
X-4620200Y17358357D01*
X16356700Y17358357D01*
X16356700Y17137643D01*
X16441163Y16933731D01*
X16597231Y16777663D01*
X16801143Y16693200D01*
X17021857Y16693200D01*
X17225769Y16777663D01*
X17234963Y16786857D01*
X23468700Y16786857D01*
X23468700Y16566143D01*
X23553163Y16362231D01*
X23709231Y16206163D01*
X23913143Y16121700D01*
X24133857Y16121700D01*
X24337769Y16206163D01*
X24493837Y16362231D01*
X24578300Y16566143D01*
X24578300Y16786857D01*
X24493837Y16990769D01*
X24337769Y17146837D01*
X24133857Y17231300D01*
X23913143Y17231300D01*
X23709231Y17146837D01*
X23553163Y16990769D01*
X23468700Y16786857D01*
X17234963Y16786857D01*
X17381837Y16933731D01*
X17466300Y17137643D01*
X17466300Y17358357D01*
X17413695Y17485357D01*
X18896700Y17485357D01*
X18896700Y17264643D01*
X18981163Y17060731D01*
X19137231Y16904663D01*
X19341143Y16820200D01*
X19561857Y16820200D01*
X19765769Y16904663D01*
X19921837Y17060731D01*
X20006300Y17264643D01*
X20006300Y17485357D01*
X19921837Y17689269D01*
X19765769Y17845337D01*
X19561857Y17929800D01*
X19341143Y17929800D01*
X19137231Y17845337D01*
X18981163Y17689269D01*
X18896700Y17485357D01*
X17413695Y17485357D01*
X17381837Y17562269D01*
X17225769Y17718337D01*
X17021857Y17802800D01*
X16801143Y17802800D01*
X16597231Y17718337D01*
X16441163Y17562269D01*
X16356700Y17358357D01*
X-4620200Y17358357D01*
X-4620200Y18056857D01*
X12610200Y18056857D01*
X12610200Y17836143D01*
X12694663Y17632231D01*
X12850731Y17476163D01*
X13054643Y17391700D01*
X13275357Y17391700D01*
X13479269Y17476163D01*
X13635337Y17632231D01*
X13719800Y17836143D01*
X13719800Y18056857D01*
X13635337Y18260769D01*
X13479269Y18416837D01*
X13275357Y18501300D01*
X13054643Y18501300D01*
X12850731Y18416837D01*
X12694663Y18260769D01*
X12610200Y18056857D01*
X-4620200Y18056857D01*
X-4620200Y19453853D01*
X15150200Y19453853D01*
X15150200Y19233139D01*
X15234663Y19029227D01*
X15390731Y18873159D01*
X15594643Y18788696D01*
X15815357Y18788696D01*
X16019269Y18873159D01*
X16175337Y19029227D01*
X16259800Y19233139D01*
X16259800Y19453853D01*
X16175337Y19657765D01*
X16019269Y19813833D01*
X15815357Y19898296D01*
X15594643Y19898296D01*
X15390731Y19813833D01*
X15234663Y19657765D01*
X15150200Y19453853D01*
X-4620200Y19453853D01*
X-4620200Y20152357D01*
X-4471300Y20152357D01*
X-4471300Y19931643D01*
X-4386837Y19727731D01*
X-4230769Y19571663D01*
X-4026857Y19487200D01*
X-3806143Y19487200D01*
X-3602231Y19571663D01*
X-3446163Y19727731D01*
X-3361700Y19931643D01*
X-3361700Y20152357D01*
X-3377854Y20191357D01*
X26643700Y20191357D01*
X26643700Y19970643D01*
X26728163Y19766731D01*
X26884231Y19610663D01*
X27088143Y19526200D01*
X27308857Y19526200D01*
X27512769Y19610663D01*
X27668837Y19766731D01*
X27753300Y19970643D01*
X27753300Y20191357D01*
X27668837Y20395269D01*
X27512769Y20551337D01*
X27308857Y20635800D01*
X27088143Y20635800D01*
X26884231Y20551337D01*
X26728163Y20395269D01*
X26643700Y20191357D01*
X-3377854Y20191357D01*
X-3446163Y20356269D01*
X-3602231Y20512337D01*
X-3806143Y20596800D01*
X-4026857Y20596800D01*
X-4230769Y20512337D01*
X-4386837Y20356269D01*
X-4471300Y20152357D01*
X-4620200Y20152357D01*
X-4620200Y21422357D01*
X-2248800Y21422357D01*
X-2248800Y21201643D01*
X-2164337Y20997731D01*
X-2008269Y20841663D01*
X-1804357Y20757200D01*
X-1583643Y20757200D01*
X-1379731Y20841663D01*
X-1223663Y20997731D01*
X-1139200Y21201643D01*
X-1139200Y21422357D01*
X-1223663Y21626269D01*
X-1379731Y21782337D01*
X-1583643Y21866800D01*
X-1804357Y21866800D01*
X-2008269Y21782337D01*
X-2164337Y21626269D01*
X-2248800Y21422357D01*
X-4620200Y21422357D01*
X-4620200Y24025857D01*
X11784700Y24025857D01*
X11784700Y23805143D01*
X11869163Y23601231D01*
X12025231Y23445163D01*
X12229143Y23360700D01*
X12449857Y23360700D01*
X12653769Y23445163D01*
X12809837Y23601231D01*
X12894300Y23805143D01*
X12894300Y24025857D01*
X12809837Y24229769D01*
X12653769Y24385837D01*
X12449857Y24470300D01*
X12229143Y24470300D01*
X12025231Y24385837D01*
X11869163Y24229769D01*
X11784700Y24025857D01*
X-4620200Y24025857D01*
X-4620200Y24660857D01*
X19976200Y24660857D01*
X19976200Y24440143D01*
X20060663Y24236231D01*
X20216731Y24080163D01*
X20420643Y23995700D01*
X20641357Y23995700D01*
X20845269Y24080163D01*
X21001337Y24236231D01*
X21085800Y24440143D01*
X21085800Y24660857D01*
X21001337Y24864769D01*
X20845269Y25020837D01*
X20641357Y25105300D01*
X20420643Y25105300D01*
X20216731Y25020837D01*
X20060663Y24864769D01*
X19976200Y24660857D01*
X-4620200Y24660857D01*
X-4620200Y25422857D01*
X22960700Y25422857D01*
X22960700Y25202143D01*
X23045163Y24998231D01*
X23201231Y24842163D01*
X23405143Y24757700D01*
X23625857Y24757700D01*
X23749200Y24808790D01*
X23749200Y24173812D01*
X23798797Y23924474D01*
X23987725Y23641724D01*
X24270475Y23452796D01*
X24604000Y23386454D01*
X24937526Y23452796D01*
X25220276Y23641724D01*
X25409204Y23924474D01*
X25458800Y24173812D01*
X25458800Y24242312D01*
X26859700Y24242312D01*
X26859700Y23973689D01*
X26923801Y23651430D01*
X27167984Y23285984D01*
X27533429Y23041801D01*
X27964500Y22956056D01*
X28395570Y23041801D01*
X28761016Y23285984D01*
X29005199Y23651429D01*
X29069300Y23973688D01*
X29069300Y24242311D01*
X29005199Y24564570D01*
X28761016Y24930016D01*
X28395571Y25174199D01*
X27964500Y25259944D01*
X27533430Y25174199D01*
X27167984Y24930016D01*
X26923801Y24564571D01*
X26859700Y24242312D01*
X25458800Y24242312D01*
X25458800Y25042188D01*
X25409204Y25291526D01*
X25220276Y25574276D01*
X24937525Y25763204D01*
X24604000Y25829546D01*
X24270474Y25763204D01*
X24003276Y25584668D01*
X23985837Y25626769D01*
X23829769Y25782837D01*
X23625857Y25867300D01*
X23405143Y25867300D01*
X23201231Y25782837D01*
X23045163Y25626769D01*
X22960700Y25422857D01*
X-4620200Y25422857D01*
X-4620200Y26248357D01*
X16737700Y26248357D01*
X16737700Y26027643D01*
X16822163Y25823731D01*
X16978231Y25667663D01*
X17182143Y25583200D01*
X17402857Y25583200D01*
X17606769Y25667663D01*
X17762837Y25823731D01*
X17847300Y26027643D01*
X17847300Y26248357D01*
X17762837Y26452269D01*
X17606769Y26608337D01*
X17402857Y26692800D01*
X17182143Y26692800D01*
X16978231Y26608337D01*
X16822163Y26452269D01*
X16737700Y26248357D01*
X-4620200Y26248357D01*
X-4620200Y27200857D01*
X16039200Y27200857D01*
X16039200Y26980143D01*
X16123663Y26776231D01*
X16279731Y26620163D01*
X16483643Y26535700D01*
X16704357Y26535700D01*
X16908269Y26620163D01*
X17064337Y26776231D01*
X17148800Y26980143D01*
X17148800Y27073857D01*
X22579700Y27073857D01*
X22579700Y26853143D01*
X22664163Y26649231D01*
X22820231Y26493163D01*
X23024143Y26408700D01*
X23244857Y26408700D01*
X23448769Y26493163D01*
X23604837Y26649231D01*
X23689300Y26853143D01*
X23689300Y26904674D01*
X23754564Y26877641D01*
X23975278Y26877641D01*
X24179190Y26962104D01*
X24335258Y27118172D01*
X24419721Y27322084D01*
X24419721Y27542798D01*
X24335258Y27746710D01*
X24179190Y27902778D01*
X23975278Y27987241D01*
X23754564Y27987241D01*
X23550652Y27902778D01*
X23394584Y27746710D01*
X23310121Y27542798D01*
X23310121Y27491267D01*
X23244857Y27518300D01*
X23024143Y27518300D01*
X22820231Y27433837D01*
X22664163Y27277769D01*
X22579700Y27073857D01*
X17148800Y27073857D01*
X17148800Y27200857D01*
X17064337Y27404769D01*
X16908269Y27560837D01*
X16704357Y27645300D01*
X16483643Y27645300D01*
X16279731Y27560837D01*
X16123663Y27404769D01*
X16039200Y27200857D01*
X-4620200Y27200857D01*
X-4620200Y28153357D01*
X21944700Y28153357D01*
X21944700Y27932643D01*
X22029163Y27728731D01*
X22185231Y27572663D01*
X22389143Y27488200D01*
X22609857Y27488200D01*
X22813769Y27572663D01*
X22969837Y27728731D01*
X23054300Y27932643D01*
X23054300Y28042187D01*
X25899200Y28042187D01*
X25899201Y26773812D01*
X25948797Y26524474D01*
X26137725Y26241724D01*
X26420475Y26052796D01*
X26754000Y25986454D01*
X27087526Y26052796D01*
X27370276Y26241724D01*
X27559204Y26524474D01*
X27608800Y26773812D01*
X27608800Y28042188D01*
X27559204Y28291526D01*
X27370276Y28574276D01*
X27087525Y28763204D01*
X27005188Y28779582D01*
X27160837Y28935231D01*
X27245300Y29139143D01*
X27245300Y29359857D01*
X27160837Y29563769D01*
X27004769Y29719837D01*
X26800857Y29804300D01*
X26580143Y29804300D01*
X26376231Y29719837D01*
X26220163Y29563769D01*
X26135700Y29359857D01*
X26135700Y29139143D01*
X26220163Y28935231D01*
X26376231Y28779163D01*
X26418287Y28761743D01*
X26137724Y28574276D01*
X25948796Y28291525D01*
X25899200Y28042187D01*
X23054300Y28042187D01*
X23054300Y28153357D01*
X22969837Y28357269D01*
X22813769Y28513337D01*
X22609857Y28597800D01*
X22389143Y28597800D01*
X22185231Y28513337D01*
X22029163Y28357269D01*
X21944700Y28153357D01*
X-4620200Y28153357D01*
X-4620200Y28851857D01*
X20801700Y28851857D01*
X20801700Y28631143D01*
X20886163Y28427231D01*
X21042231Y28271163D01*
X21246143Y28186700D01*
X21466857Y28186700D01*
X21670769Y28271163D01*
X21826837Y28427231D01*
X21911300Y28631143D01*
X21911300Y28851857D01*
X21826837Y29055769D01*
X21670769Y29211837D01*
X21466857Y29296300D01*
X21246143Y29296300D01*
X21042231Y29211837D01*
X20886163Y29055769D01*
X20801700Y28851857D01*
X-4620200Y28851857D01*
X-4620200Y31328357D01*
X7149200Y31328357D01*
X7149200Y31107643D01*
X7233663Y30903731D01*
X7389731Y30747663D01*
X7593643Y30663200D01*
X7732215Y30663200D01*
X7585284Y30516269D01*
X7500821Y30312357D01*
X7500821Y30091643D01*
X7585284Y29887731D01*
X7741352Y29731663D01*
X7945264Y29647200D01*
X8165978Y29647200D01*
X8369890Y29731663D01*
X8525958Y29887731D01*
X8610421Y30091643D01*
X8610421Y30312357D01*
X8525958Y30516269D01*
X8400040Y30642187D01*
X23749200Y30642187D01*
X23749200Y29773812D01*
X23798797Y29524474D01*
X23987725Y29241724D01*
X24270475Y29052796D01*
X24604000Y28986454D01*
X24937526Y29052796D01*
X25220276Y29241724D01*
X25409204Y29524474D01*
X25458800Y29773812D01*
X25458800Y30642188D01*
X25418994Y30842312D01*
X26859700Y30842312D01*
X26859700Y30573689D01*
X26923801Y30251430D01*
X27167984Y29885984D01*
X27533429Y29641801D01*
X27964500Y29556056D01*
X28395570Y29641801D01*
X28761016Y29885984D01*
X29005199Y30251429D01*
X29069300Y30573688D01*
X29069300Y30842311D01*
X29005199Y31164570D01*
X28761016Y31530016D01*
X28395571Y31774199D01*
X27964500Y31859944D01*
X27533430Y31774199D01*
X27167984Y31530016D01*
X26923801Y31164571D01*
X26859700Y30842312D01*
X25418994Y30842312D01*
X25409204Y30891526D01*
X25220276Y31174276D01*
X24937525Y31363204D01*
X24604000Y31429546D01*
X24270474Y31363204D01*
X23987724Y31174276D01*
X23798796Y30891525D01*
X23749200Y30642187D01*
X8400040Y30642187D01*
X8369890Y30672337D01*
X8165978Y30756800D01*
X8027406Y30756800D01*
X8174337Y30903731D01*
X8258800Y31107643D01*
X8258800Y31328357D01*
X8174337Y31532269D01*
X8018269Y31688337D01*
X7814357Y31772800D01*
X7593643Y31772800D01*
X7389731Y31688337D01*
X7233663Y31532269D01*
X7149200Y31328357D01*
X-4620200Y31328357D01*
X-4620200Y32344357D01*
X-3264800Y32344357D01*
X-3264800Y32123643D01*
X-3180337Y31919731D01*
X-3024269Y31763663D01*
X-2820357Y31679200D01*
X-2599643Y31679200D01*
X-2395731Y31763663D01*
X-2239663Y31919731D01*
X-2155200Y32123643D01*
X-2155200Y32344357D01*
X-2239663Y32548269D01*
X-2353251Y32661857D01*
X3529700Y32661857D01*
X3529700Y32441143D01*
X3614163Y32237231D01*
X3770231Y32081163D01*
X3974143Y31996700D01*
X4194857Y31996700D01*
X4267662Y32026857D01*
X11022700Y32026857D01*
X11022700Y31806143D01*
X11107163Y31602231D01*
X11263231Y31446163D01*
X11467143Y31361700D01*
X11687857Y31361700D01*
X11891769Y31446163D01*
X12047837Y31602231D01*
X12080133Y31680201D01*
X14095857Y31680201D01*
X14095857Y31459487D01*
X14180320Y31255575D01*
X14336388Y31099507D01*
X14540300Y31015044D01*
X14761014Y31015044D01*
X14964926Y31099507D01*
X15120994Y31255575D01*
X15205457Y31459487D01*
X15205457Y31680201D01*
X15120994Y31884113D01*
X14964926Y32040181D01*
X14761014Y32124644D01*
X14540300Y32124644D01*
X14336388Y32040181D01*
X14180320Y31884113D01*
X14095857Y31680201D01*
X12080133Y31680201D01*
X12132300Y31806143D01*
X12132300Y32026857D01*
X12047837Y32230769D01*
X11891769Y32386837D01*
X11687857Y32471300D01*
X11467143Y32471300D01*
X11263231Y32386837D01*
X11107163Y32230769D01*
X11022700Y32026857D01*
X4267662Y32026857D01*
X4398769Y32081163D01*
X4554837Y32237231D01*
X4639300Y32441143D01*
X4639300Y32661857D01*
X4554837Y32865769D01*
X4398769Y33021837D01*
X4194857Y33106300D01*
X3974143Y33106300D01*
X3770231Y33021837D01*
X3614163Y32865769D01*
X3529700Y32661857D01*
X-2353251Y32661857D01*
X-2395731Y32704337D01*
X-2599643Y32788800D01*
X-2820357Y32788800D01*
X-3024269Y32704337D01*
X-3180337Y32548269D01*
X-3264800Y32344357D01*
X-4620200Y32344357D01*
X-4620200Y33804857D01*
X4164700Y33804857D01*
X4164700Y33584143D01*
X4249163Y33380231D01*
X4405231Y33224163D01*
X4609143Y33139700D01*
X4829857Y33139700D01*
X4878679Y33159922D01*
X5023305Y33015296D01*
X5227217Y32930833D01*
X5447931Y32930833D01*
X5651843Y33015296D01*
X5807911Y33171364D01*
X5892374Y33375276D01*
X5892374Y33595990D01*
X5807911Y33799902D01*
X5675956Y33931857D01*
X7593700Y33931857D01*
X7593700Y33711143D01*
X7678163Y33507231D01*
X7834231Y33351163D01*
X8038143Y33266700D01*
X8165186Y33266700D01*
X8165186Y33139643D01*
X8249649Y32935731D01*
X8405717Y32779663D01*
X8609629Y32695200D01*
X8830343Y32695200D01*
X9034255Y32779663D01*
X9190323Y32935731D01*
X9274786Y33139643D01*
X9274786Y33360357D01*
X9248484Y33423857D01*
X12292700Y33423857D01*
X12292700Y33203143D01*
X12377163Y32999231D01*
X12533231Y32843163D01*
X12737143Y32758700D01*
X12957857Y32758700D01*
X13161769Y32843163D01*
X13234463Y32915857D01*
X27151700Y32915857D01*
X27151700Y32695143D01*
X27236163Y32491231D01*
X27392231Y32335163D01*
X27596143Y32250700D01*
X27816857Y32250700D01*
X28020769Y32335163D01*
X28176837Y32491231D01*
X28261300Y32695143D01*
X28261300Y32915857D01*
X28176837Y33119769D01*
X28020769Y33275837D01*
X27816857Y33360300D01*
X27596143Y33360300D01*
X27392231Y33275837D01*
X27236163Y33119769D01*
X27151700Y32915857D01*
X13234463Y32915857D01*
X13317837Y32999231D01*
X13402300Y33203143D01*
X13402300Y33423857D01*
X13323393Y33614357D01*
X19468200Y33614357D01*
X19468200Y33393643D01*
X19552663Y33189731D01*
X19708731Y33033663D01*
X19912643Y32949200D01*
X20133357Y32949200D01*
X20337269Y33033663D01*
X20493337Y33189731D01*
X20577800Y33393643D01*
X20577800Y33614357D01*
X20493337Y33818269D01*
X20337269Y33974337D01*
X20133357Y34058800D01*
X19912643Y34058800D01*
X19708731Y33974337D01*
X19552663Y33818269D01*
X19468200Y33614357D01*
X13323393Y33614357D01*
X13317837Y33627769D01*
X13161769Y33783837D01*
X12957857Y33868300D01*
X12737143Y33868300D01*
X12533231Y33783837D01*
X12377163Y33627769D01*
X12292700Y33423857D01*
X9248484Y33423857D01*
X9190323Y33564269D01*
X9034255Y33720337D01*
X8830343Y33804800D01*
X8703300Y33804800D01*
X8703300Y33931857D01*
X8618837Y34135769D01*
X8462769Y34291837D01*
X8258857Y34376300D01*
X8038143Y34376300D01*
X7834231Y34291837D01*
X7678163Y34135769D01*
X7593700Y33931857D01*
X5675956Y33931857D01*
X5651843Y33955970D01*
X5447931Y34040433D01*
X5227217Y34040433D01*
X5178395Y34020211D01*
X5033769Y34164837D01*
X4829857Y34249300D01*
X4609143Y34249300D01*
X4405231Y34164837D01*
X4249163Y34008769D01*
X4164700Y33804857D01*
X-4620200Y33804857D01*
X-4620200Y35138357D01*
X14007200Y35138357D01*
X14007200Y34917643D01*
X14091663Y34713731D01*
X14247731Y34557663D01*
X14451643Y34473200D01*
X14672357Y34473200D01*
X14876269Y34557663D01*
X15032337Y34713731D01*
X15116800Y34917643D01*
X15116800Y35138357D01*
X15064195Y35265357D01*
X19976200Y35265357D01*
X19976200Y35044643D01*
X20060663Y34840731D01*
X20216731Y34684663D01*
X20420643Y34600200D01*
X20641357Y34600200D01*
X20845269Y34684663D01*
X21001337Y34840731D01*
X21085800Y35044643D01*
X21085800Y35265357D01*
X21001337Y35469269D01*
X20845269Y35625337D01*
X20641357Y35709800D01*
X20420643Y35709800D01*
X20216731Y35625337D01*
X20060663Y35469269D01*
X19976200Y35265357D01*
X15064195Y35265357D01*
X15032337Y35342269D01*
X14876269Y35498337D01*
X14672357Y35582800D01*
X14451643Y35582800D01*
X14247731Y35498337D01*
X14091663Y35342269D01*
X14007200Y35138357D01*
X-4620200Y35138357D01*
X-4620200Y36662357D01*
X6196700Y36662357D01*
X6196700Y36441643D01*
X6281163Y36237731D01*
X6437231Y36081663D01*
X6641143Y35997200D01*
X6861857Y35997200D01*
X7065769Y36081663D01*
X7221837Y36237731D01*
X7306300Y36441643D01*
X7306300Y36662357D01*
X7253807Y36789087D01*
X7262731Y36780163D01*
X7466643Y36695700D01*
X7687357Y36695700D01*
X7760162Y36725857D01*
X24611700Y36725857D01*
X24611700Y36505143D01*
X24696163Y36301231D01*
X24852231Y36145163D01*
X25056143Y36060700D01*
X25276857Y36060700D01*
X25480769Y36145163D01*
X25636837Y36301231D01*
X25721300Y36505143D01*
X25721300Y36725857D01*
X25636837Y36929769D01*
X25480769Y37085837D01*
X25276857Y37170300D01*
X25056143Y37170300D01*
X24852231Y37085837D01*
X24696163Y36929769D01*
X24611700Y36725857D01*
X7760162Y36725857D01*
X7891269Y36780163D01*
X8047337Y36936231D01*
X8131800Y37140143D01*
X8131800Y37360857D01*
X8047337Y37564769D01*
X7891269Y37720837D01*
X7687357Y37805300D01*
X7466643Y37805300D01*
X7262731Y37720837D01*
X7106663Y37564769D01*
X7022200Y37360857D01*
X7022200Y37140143D01*
X7074693Y37013413D01*
X7065769Y37022337D01*
X6861857Y37106800D01*
X6641143Y37106800D01*
X6437231Y37022337D01*
X6281163Y36866269D01*
X6196700Y36662357D01*
X-4620200Y36662357D01*
X-4620200Y37999072D01*
X12686976Y37999072D01*
X12686976Y37778358D01*
X12771439Y37574446D01*
X12927507Y37418378D01*
X13131419Y37333915D01*
X13352133Y37333915D01*
X13556045Y37418378D01*
X13712113Y37574446D01*
X13796576Y37778358D01*
X13796576Y37999072D01*
X13712113Y38202984D01*
X13556045Y38359052D01*
X13352133Y38443515D01*
X13131419Y38443515D01*
X12927507Y38359052D01*
X12771439Y38202984D01*
X12686976Y37999072D01*
X-4620200Y37999072D01*
X-4620200Y39392857D01*
X5561700Y39392857D01*
X5561700Y39172143D01*
X5646163Y38968231D01*
X5802231Y38812163D01*
X6006143Y38727700D01*
X6226857Y38727700D01*
X6430769Y38812163D01*
X6503463Y38884857D01*
X8355700Y38884857D01*
X8355700Y38664143D01*
X8440163Y38460231D01*
X8596231Y38304163D01*
X8800143Y38219700D01*
X9020857Y38219700D01*
X9224769Y38304163D01*
X9380837Y38460231D01*
X9465300Y38664143D01*
X9465300Y38884857D01*
X9380837Y39088769D01*
X9224769Y39244837D01*
X9164390Y39269847D01*
X15531200Y39269847D01*
X15531200Y39049133D01*
X15615663Y38845221D01*
X15771731Y38689153D01*
X15975643Y38604690D01*
X16196357Y38604690D01*
X16400269Y38689153D01*
X16556337Y38845221D01*
X16640800Y39049133D01*
X16640800Y39269847D01*
X16556337Y39473759D01*
X16400269Y39629827D01*
X16196357Y39714290D01*
X15975643Y39714290D01*
X15771731Y39629827D01*
X15615663Y39473759D01*
X15531200Y39269847D01*
X9164390Y39269847D01*
X9020857Y39329300D01*
X8800143Y39329300D01*
X8596231Y39244837D01*
X8440163Y39088769D01*
X8355700Y38884857D01*
X6503463Y38884857D01*
X6586837Y38968231D01*
X6671300Y39172143D01*
X6671300Y39392857D01*
X6586837Y39596769D01*
X6430769Y39752837D01*
X6226857Y39837300D01*
X6006143Y39837300D01*
X5802231Y39752837D01*
X5646163Y39596769D01*
X5561700Y39392857D01*
X-4620200Y39392857D01*
X-4620200Y39964357D01*
X24548200Y39964357D01*
X24548200Y39743643D01*
X24632663Y39539731D01*
X24788731Y39383663D01*
X24992643Y39299200D01*
X25213357Y39299200D01*
X25417269Y39383663D01*
X25573337Y39539731D01*
X25657800Y39743643D01*
X25657800Y39964357D01*
X25573337Y40168269D01*
X25417269Y40324337D01*
X25213357Y40408800D01*
X24992643Y40408800D01*
X24788731Y40324337D01*
X24632663Y40168269D01*
X24548200Y39964357D01*
X-4620200Y39964357D01*
X-4620200Y43519457D01*
X2069200Y43519457D01*
X2069200Y43298743D01*
X2153663Y43094831D01*
X2309731Y42938763D01*
X2513643Y42854300D01*
X2734357Y42854300D01*
X2938269Y42938763D01*
X3094337Y43094831D01*
X3178800Y43298743D01*
X3178800Y43519457D01*
X3783700Y43519457D01*
X3783700Y43298743D01*
X3868163Y43094831D01*
X4024231Y42938763D01*
X4228143Y42854300D01*
X4448857Y42854300D01*
X4652769Y42938763D01*
X4808837Y43094831D01*
X4893300Y43298743D01*
X4893300Y43303557D01*
X16928200Y43303557D01*
X16928200Y43082843D01*
X17012663Y42878931D01*
X17168731Y42722863D01*
X17372643Y42638400D01*
X17593357Y42638400D01*
X17797269Y42722863D01*
X17832763Y42758357D01*
X25881700Y42758357D01*
X25881700Y42537643D01*
X25966163Y42333731D01*
X26122231Y42177663D01*
X26326143Y42093200D01*
X26546857Y42093200D01*
X26750769Y42177663D01*
X26906837Y42333731D01*
X26991300Y42537643D01*
X26991300Y42758357D01*
X26906837Y42962269D01*
X26750769Y43118337D01*
X26546857Y43202800D01*
X26326143Y43202800D01*
X26122231Y43118337D01*
X25966163Y42962269D01*
X25881700Y42758357D01*
X17832763Y42758357D01*
X17953337Y42878931D01*
X18037800Y43082843D01*
X18037800Y43303557D01*
X17953337Y43507469D01*
X17797269Y43663537D01*
X17593357Y43748000D01*
X17372643Y43748000D01*
X17168731Y43663537D01*
X17012663Y43507469D01*
X16928200Y43303557D01*
X4893300Y43303557D01*
X4893300Y43519457D01*
X4808837Y43723369D01*
X4652769Y43879437D01*
X4448857Y43963900D01*
X4228143Y43963900D01*
X4024231Y43879437D01*
X3868163Y43723369D01*
X3783700Y43519457D01*
X3178800Y43519457D01*
X3094337Y43723369D01*
X2938269Y43879437D01*
X2734357Y43963900D01*
X2513643Y43963900D01*
X2309731Y43879437D01*
X2153663Y43723369D01*
X2069200Y43519457D01*
X-4620200Y43519457D01*
X-4620200Y46123857D01*
X2386700Y46123857D01*
X2386700Y45903143D01*
X2471163Y45699231D01*
X2627231Y45543163D01*
X2831143Y45458700D01*
X3051857Y45458700D01*
X3255769Y45543163D01*
X3411837Y45699231D01*
X3496300Y45903143D01*
X3496300Y46123857D01*
X4228200Y46123857D01*
X4228200Y45903143D01*
X4312663Y45699231D01*
X4468731Y45543163D01*
X4672643Y45458700D01*
X4893357Y45458700D01*
X5097269Y45543163D01*
X5253337Y45699231D01*
X5337800Y45903143D01*
X5337800Y46123857D01*
X25881700Y46123857D01*
X25881700Y45903143D01*
X25966163Y45699231D01*
X26122231Y45543163D01*
X26326143Y45458700D01*
X26546857Y45458700D01*
X26750769Y45543163D01*
X26906837Y45699231D01*
X26991300Y45903143D01*
X26991300Y46123857D01*
X26906837Y46327769D01*
X26750769Y46483837D01*
X26546857Y46568300D01*
X26326143Y46568300D01*
X26122231Y46483837D01*
X25966163Y46327769D01*
X25881700Y46123857D01*
X5337800Y46123857D01*
X5253337Y46327769D01*
X5097269Y46483837D01*
X4893357Y46568300D01*
X4672643Y46568300D01*
X4468731Y46483837D01*
X4312663Y46327769D01*
X4228200Y46123857D01*
X3496300Y46123857D01*
X3411837Y46327769D01*
X3255769Y46483837D01*
X3051857Y46568300D01*
X2831143Y46568300D01*
X2627231Y46483837D01*
X2471163Y46327769D01*
X2386700Y46123857D01*
X-4620200Y46123857D01*
X-4620200Y47076357D01*
X10197200Y47076357D01*
X10197200Y46855643D01*
X10281663Y46651731D01*
X10437731Y46495663D01*
X10641643Y46411200D01*
X10862357Y46411200D01*
X11066269Y46495663D01*
X11222337Y46651731D01*
X11306800Y46855643D01*
X11306800Y47076357D01*
X23087700Y47076357D01*
X23087700Y46855643D01*
X23172163Y46651731D01*
X23328231Y46495663D01*
X23532143Y46411200D01*
X23752857Y46411200D01*
X23956769Y46495663D01*
X24112837Y46651731D01*
X24197300Y46855643D01*
X24197300Y47076357D01*
X24112837Y47280269D01*
X23956769Y47436337D01*
X23752857Y47520800D01*
X23532143Y47520800D01*
X23328231Y47436337D01*
X23172163Y47280269D01*
X23087700Y47076357D01*
X11306800Y47076357D01*
X11222337Y47280269D01*
X11066269Y47436337D01*
X10862357Y47520800D01*
X10641643Y47520800D01*
X10437731Y47436337D01*
X10281663Y47280269D01*
X10197200Y47076357D01*
X-4620200Y47076357D01*
X-4620200Y48282857D01*
X23087700Y48282857D01*
X23087700Y48062143D01*
X23172163Y47858231D01*
X23328231Y47702163D01*
X23532143Y47617700D01*
X23752857Y47617700D01*
X23956769Y47702163D01*
X24112837Y47858231D01*
X24197300Y48062143D01*
X24197300Y48282857D01*
X24181519Y48320957D01*
X27888300Y48320957D01*
X27888300Y48100243D01*
X27972763Y47896331D01*
X28128831Y47740263D01*
X28332743Y47655800D01*
X28553457Y47655800D01*
X28757369Y47740263D01*
X28913437Y47896331D01*
X28997900Y48100243D01*
X28997900Y48320957D01*
X28913437Y48524869D01*
X28757369Y48680937D01*
X28553457Y48765400D01*
X28332743Y48765400D01*
X28128831Y48680937D01*
X27972763Y48524869D01*
X27888300Y48320957D01*
X24181519Y48320957D01*
X24112837Y48486769D01*
X23956769Y48642837D01*
X23752857Y48727300D01*
X23532143Y48727300D01*
X23328231Y48642837D01*
X23172163Y48486769D01*
X23087700Y48282857D01*
X-4620200Y48282857D01*
X-4620200Y50619657D01*
X19658700Y50619657D01*
X19658700Y50398943D01*
X19743163Y50195031D01*
X19899231Y50038963D01*
X20103143Y49954500D01*
X20323857Y49954500D01*
X20527769Y50038963D01*
X20683837Y50195031D01*
X20768300Y50398943D01*
X20768300Y50619657D01*
X20683837Y50823569D01*
X20527769Y50979637D01*
X20323857Y51064100D01*
X20103143Y51064100D01*
X19899231Y50979637D01*
X19743163Y50823569D01*
X19658700Y50619657D01*
X-4620200Y50619657D01*
X-4620200Y51521357D01*
X21500200Y51521357D01*
X21500200Y51300643D01*
X21584663Y51096731D01*
X21740731Y50940663D01*
X21944643Y50856200D01*
X22165357Y50856200D01*
X22369269Y50940663D01*
X22525337Y51096731D01*
X22609800Y51300643D01*
X22609800Y51521357D01*
X22525337Y51725269D01*
X22369269Y51881337D01*
X22165357Y51965800D01*
X21944643Y51965800D01*
X21740731Y51881337D01*
X21584663Y51725269D01*
X21500200Y51521357D01*
X-4620200Y51521357D01*
X-4620200Y54823357D01*
X-1994800Y54823357D01*
X-1994800Y54602643D01*
X-1910337Y54398731D01*
X-1754269Y54242663D01*
X-1550357Y54158200D01*
X-1329643Y54158200D01*
X-1125731Y54242663D01*
X-969663Y54398731D01*
X-932000Y54489658D01*
X-894337Y54398731D01*
X-738269Y54242663D01*
X-534357Y54158200D01*
X-313643Y54158200D01*
X-109731Y54242663D01*
X46337Y54398731D01*
X84000Y54489658D01*
X121663Y54398731D01*
X277731Y54242663D01*
X481643Y54158200D01*
X702357Y54158200D01*
X906269Y54242663D01*
X1062337Y54398731D01*
X1100000Y54489658D01*
X1137663Y54398731D01*
X1293731Y54242663D01*
X1497643Y54158200D01*
X1718357Y54158200D01*
X1922269Y54242663D01*
X2078337Y54398731D01*
X2116000Y54489658D01*
X2153663Y54398731D01*
X2309731Y54242663D01*
X2513643Y54158200D01*
X2734357Y54158200D01*
X2938269Y54242663D01*
X3094337Y54398731D01*
X3178800Y54602643D01*
X3178800Y54823357D01*
X5371200Y54823357D01*
X5371200Y54602643D01*
X5455663Y54398731D01*
X5611731Y54242663D01*
X5815643Y54158200D01*
X6036357Y54158200D01*
X6240269Y54242663D01*
X6396337Y54398731D01*
X6434000Y54489658D01*
X6471663Y54398731D01*
X6627731Y54242663D01*
X6831643Y54158200D01*
X7052357Y54158200D01*
X7256269Y54242663D01*
X7412337Y54398731D01*
X7450000Y54489658D01*
X7487663Y54398731D01*
X7643731Y54242663D01*
X7847643Y54158200D01*
X8068357Y54158200D01*
X8272269Y54242663D01*
X8428337Y54398731D01*
X8466000Y54489658D01*
X8503663Y54398731D01*
X8659731Y54242663D01*
X8863643Y54158200D01*
X9084357Y54158200D01*
X9288269Y54242663D01*
X9444337Y54398731D01*
X9528800Y54602643D01*
X9528800Y54823357D01*
X9444337Y55027269D01*
X9288269Y55183337D01*
X9084357Y55267800D01*
X8863643Y55267800D01*
X8659731Y55183337D01*
X8503663Y55027269D01*
X8466000Y54936342D01*
X8428337Y55027269D01*
X8272269Y55183337D01*
X8068357Y55267800D01*
X7847643Y55267800D01*
X7643731Y55183337D01*
X7487663Y55027269D01*
X7450000Y54936342D01*
X7412337Y55027269D01*
X7256269Y55183337D01*
X7052357Y55267800D01*
X6831643Y55267800D01*
X6627731Y55183337D01*
X6471663Y55027269D01*
X6434000Y54936342D01*
X6396337Y55027269D01*
X6240269Y55183337D01*
X6036357Y55267800D01*
X5815643Y55267800D01*
X5611731Y55183337D01*
X5455663Y55027269D01*
X5371200Y54823357D01*
X3178800Y54823357D01*
X3094337Y55027269D01*
X2938269Y55183337D01*
X2734357Y55267800D01*
X2513643Y55267800D01*
X2309731Y55183337D01*
X2153663Y55027269D01*
X2116000Y54936342D01*
X2078337Y55027269D01*
X1922269Y55183337D01*
X1718357Y55267800D01*
X1497643Y55267800D01*
X1293731Y55183337D01*
X1137663Y55027269D01*
X1100000Y54936342D01*
X1062337Y55027269D01*
X906269Y55183337D01*
X702357Y55267800D01*
X481643Y55267800D01*
X277731Y55183337D01*
X121663Y55027269D01*
X84000Y54936342D01*
X46337Y55027269D01*
X-109731Y55183337D01*
X-313643Y55267800D01*
X-534357Y55267800D01*
X-738269Y55183337D01*
X-894337Y55027269D01*
X-932000Y54936342D01*
X-969663Y55027269D01*
X-1125731Y55183337D01*
X-1329643Y55267800D01*
X-1550357Y55267800D01*
X-1754269Y55183337D01*
X-1910337Y55027269D01*
X-1994800Y54823357D01*
X-4620200Y54823357D01*
X-4620200Y60284357D01*
X7466700Y60284357D01*
X7466700Y60063643D01*
X7551163Y59859731D01*
X7707231Y59703663D01*
X7911143Y59619200D01*
X8131857Y59619200D01*
X8335769Y59703663D01*
X8491837Y59859731D01*
X8576300Y60063643D01*
X8576300Y60284357D01*
X8491837Y60488269D01*
X8335769Y60644337D01*
X8131857Y60728800D01*
X7911143Y60728800D01*
X7707231Y60644337D01*
X7551163Y60488269D01*
X7466700Y60284357D01*
X-4620200Y60284357D01*
X-4620200Y62187514D01*
X-4472871Y61831831D01*
X-4007369Y61366329D01*
X-3399160Y61114400D01*
X-2740840Y61114400D01*
X-2132631Y61366329D01*
X-1667129Y61831831D01*
X-1415200Y62440040D01*
X-1415200Y62443357D01*
X17055200Y62443357D01*
X17055200Y62222643D01*
X17139663Y62018731D01*
X17295731Y61862663D01*
X17499643Y61778200D01*
X17720357Y61778200D01*
X17924269Y61862663D01*
X18080337Y62018731D01*
X18164800Y62222643D01*
X18164800Y62252857D01*
X18896700Y62252857D01*
X18896700Y62032143D01*
X18981163Y61828231D01*
X19137231Y61672163D01*
X19341143Y61587700D01*
X19561857Y61587700D01*
X19765769Y61672163D01*
X19921837Y61828231D01*
X20006300Y62032143D01*
X20006300Y62252857D01*
X19921837Y62456769D01*
X19765769Y62612837D01*
X19561857Y62697300D01*
X19341143Y62697300D01*
X19137231Y62612837D01*
X18981163Y62456769D01*
X18896700Y62252857D01*
X18164800Y62252857D01*
X18164800Y62443357D01*
X18080337Y62647269D01*
X17924269Y62803337D01*
X17720357Y62887800D01*
X17499643Y62887800D01*
X17295731Y62803337D01*
X17139663Y62647269D01*
X17055200Y62443357D01*
X-1415200Y62443357D01*
X-1415200Y63098360D01*
X-1667129Y63706569D01*
X-1800917Y63840357D01*
X7403200Y63840357D01*
X7403200Y63619643D01*
X7487663Y63415731D01*
X7643731Y63259663D01*
X7847643Y63175200D01*
X8068357Y63175200D01*
X8272269Y63259663D01*
X8428337Y63415731D01*
X8512800Y63619643D01*
X8512800Y63840357D01*
X8428337Y64044269D01*
X8272269Y64200337D01*
X8068357Y64284800D01*
X7847643Y64284800D01*
X7643731Y64200337D01*
X7487663Y64044269D01*
X7403200Y63840357D01*
X-1800917Y63840357D01*
X-2132631Y64172071D01*
X-2740840Y64424000D01*
X-3399160Y64424000D01*
X-4007369Y64172071D01*
X-4472871Y63706569D01*
X-4620200Y63350886D01*
X-4620200Y63962595D01*
X-4566116Y64234493D01*
X-4433286Y64433287D01*
X-4234493Y64566116D01*
X-3962595Y64620200D01*
X28462595Y64620200D01*
X28734493Y64566116D01*
X28734493Y64566116D01*
G37*
X28734493Y64566116D02*
X28933287Y64433286D01*
X29066116Y64234493D01*
X29127498Y63925905D01*
X29184208Y63788995D01*
X29215447Y63757756D01*
X29153111Y63664464D01*
X29135671Y63706569D01*
X28670169Y64172071D01*
X28061960Y64424000D01*
X27403640Y64424000D01*
X26795431Y64172071D01*
X26329929Y63706569D01*
X26078000Y63098360D01*
X26078000Y62440040D01*
X26329929Y61831831D01*
X26795431Y61366329D01*
X27403640Y61114400D01*
X28061960Y61114400D01*
X28670169Y61366329D01*
X29120200Y61816360D01*
X29120201Y12777600D01*
X-4620200Y12777600D01*
X-4620200Y14373857D01*
X18896700Y14373857D01*
X18896700Y14153143D01*
X18981163Y13949231D01*
X19137231Y13793163D01*
X19341143Y13708700D01*
X19561857Y13708700D01*
X19765769Y13793163D01*
X19921837Y13949231D01*
X20006300Y14153143D01*
X20006300Y14373857D01*
X19921837Y14577769D01*
X19765769Y14733837D01*
X19561857Y14818300D01*
X19341143Y14818300D01*
X19137231Y14733837D01*
X18981163Y14577769D01*
X18896700Y14373857D01*
X-4620200Y14373857D01*
X-4620200Y15897857D01*
X19468200Y15897857D01*
X19468200Y15677143D01*
X19552663Y15473231D01*
X19708731Y15317163D01*
X19912643Y15232700D01*
X20133357Y15232700D01*
X20337269Y15317163D01*
X20493337Y15473231D01*
X20577800Y15677143D01*
X20577800Y15897857D01*
X20493337Y16101769D01*
X20337269Y16257837D01*
X20133357Y16342300D01*
X19912643Y16342300D01*
X19708731Y16257837D01*
X19552663Y16101769D01*
X19468200Y15897857D01*
X-4620200Y15897857D01*
X-4620200Y16850357D01*
X4609200Y16850357D01*
X4609200Y16629643D01*
X4693663Y16425731D01*
X4849731Y16269663D01*
X5053643Y16185200D01*
X5274357Y16185200D01*
X5478269Y16269663D01*
X5634337Y16425731D01*
X5718800Y16629643D01*
X5718800Y16850357D01*
X5634337Y17054269D01*
X5478269Y17210337D01*
X5274357Y17294800D01*
X5053643Y17294800D01*
X4849731Y17210337D01*
X4693663Y17054269D01*
X4609200Y16850357D01*
X-4620200Y16850357D01*
X-4620200Y17358357D01*
X16356700Y17358357D01*
X16356700Y17137643D01*
X16441163Y16933731D01*
X16597231Y16777663D01*
X16801143Y16693200D01*
X17021857Y16693200D01*
X17225769Y16777663D01*
X17234963Y16786857D01*
X23468700Y16786857D01*
X23468700Y16566143D01*
X23553163Y16362231D01*
X23709231Y16206163D01*
X23913143Y16121700D01*
X24133857Y16121700D01*
X24337769Y16206163D01*
X24493837Y16362231D01*
X24578300Y16566143D01*
X24578300Y16786857D01*
X24493837Y16990769D01*
X24337769Y17146837D01*
X24133857Y17231300D01*
X23913143Y17231300D01*
X23709231Y17146837D01*
X23553163Y16990769D01*
X23468700Y16786857D01*
X17234963Y16786857D01*
X17381837Y16933731D01*
X17466300Y17137643D01*
X17466300Y17358357D01*
X17413695Y17485357D01*
X18896700Y17485357D01*
X18896700Y17264643D01*
X18981163Y17060731D01*
X19137231Y16904663D01*
X19341143Y16820200D01*
X19561857Y16820200D01*
X19765769Y16904663D01*
X19921837Y17060731D01*
X20006300Y17264643D01*
X20006300Y17485357D01*
X19921837Y17689269D01*
X19765769Y17845337D01*
X19561857Y17929800D01*
X19341143Y17929800D01*
X19137231Y17845337D01*
X18981163Y17689269D01*
X18896700Y17485357D01*
X17413695Y17485357D01*
X17381837Y17562269D01*
X17225769Y17718337D01*
X17021857Y17802800D01*
X16801143Y17802800D01*
X16597231Y17718337D01*
X16441163Y17562269D01*
X16356700Y17358357D01*
X-4620200Y17358357D01*
X-4620200Y18056857D01*
X12610200Y18056857D01*
X12610200Y17836143D01*
X12694663Y17632231D01*
X12850731Y17476163D01*
X13054643Y17391700D01*
X13275357Y17391700D01*
X13479269Y17476163D01*
X13635337Y17632231D01*
X13719800Y17836143D01*
X13719800Y18056857D01*
X13635337Y18260769D01*
X13479269Y18416837D01*
X13275357Y18501300D01*
X13054643Y18501300D01*
X12850731Y18416837D01*
X12694663Y18260769D01*
X12610200Y18056857D01*
X-4620200Y18056857D01*
X-4620200Y19453853D01*
X15150200Y19453853D01*
X15150200Y19233139D01*
X15234663Y19029227D01*
X15390731Y18873159D01*
X15594643Y18788696D01*
X15815357Y18788696D01*
X16019269Y18873159D01*
X16175337Y19029227D01*
X16259800Y19233139D01*
X16259800Y19453853D01*
X16175337Y19657765D01*
X16019269Y19813833D01*
X15815357Y19898296D01*
X15594643Y19898296D01*
X15390731Y19813833D01*
X15234663Y19657765D01*
X15150200Y19453853D01*
X-4620200Y19453853D01*
X-4620200Y20152357D01*
X-4471300Y20152357D01*
X-4471300Y19931643D01*
X-4386837Y19727731D01*
X-4230769Y19571663D01*
X-4026857Y19487200D01*
X-3806143Y19487200D01*
X-3602231Y19571663D01*
X-3446163Y19727731D01*
X-3361700Y19931643D01*
X-3361700Y20152357D01*
X-3377854Y20191357D01*
X26643700Y20191357D01*
X26643700Y19970643D01*
X26728163Y19766731D01*
X26884231Y19610663D01*
X27088143Y19526200D01*
X27308857Y19526200D01*
X27512769Y19610663D01*
X27668837Y19766731D01*
X27753300Y19970643D01*
X27753300Y20191357D01*
X27668837Y20395269D01*
X27512769Y20551337D01*
X27308857Y20635800D01*
X27088143Y20635800D01*
X26884231Y20551337D01*
X26728163Y20395269D01*
X26643700Y20191357D01*
X-3377854Y20191357D01*
X-3446163Y20356269D01*
X-3602231Y20512337D01*
X-3806143Y20596800D01*
X-4026857Y20596800D01*
X-4230769Y20512337D01*
X-4386837Y20356269D01*
X-4471300Y20152357D01*
X-4620200Y20152357D01*
X-4620200Y21422357D01*
X-2248800Y21422357D01*
X-2248800Y21201643D01*
X-2164337Y20997731D01*
X-2008269Y20841663D01*
X-1804357Y20757200D01*
X-1583643Y20757200D01*
X-1379731Y20841663D01*
X-1223663Y20997731D01*
X-1139200Y21201643D01*
X-1139200Y21422357D01*
X-1223663Y21626269D01*
X-1379731Y21782337D01*
X-1583643Y21866800D01*
X-1804357Y21866800D01*
X-2008269Y21782337D01*
X-2164337Y21626269D01*
X-2248800Y21422357D01*
X-4620200Y21422357D01*
X-4620200Y24025857D01*
X11784700Y24025857D01*
X11784700Y23805143D01*
X11869163Y23601231D01*
X12025231Y23445163D01*
X12229143Y23360700D01*
X12449857Y23360700D01*
X12653769Y23445163D01*
X12809837Y23601231D01*
X12894300Y23805143D01*
X12894300Y24025857D01*
X12809837Y24229769D01*
X12653769Y24385837D01*
X12449857Y24470300D01*
X12229143Y24470300D01*
X12025231Y24385837D01*
X11869163Y24229769D01*
X11784700Y24025857D01*
X-4620200Y24025857D01*
X-4620200Y24660857D01*
X19976200Y24660857D01*
X19976200Y24440143D01*
X20060663Y24236231D01*
X20216731Y24080163D01*
X20420643Y23995700D01*
X20641357Y23995700D01*
X20845269Y24080163D01*
X21001337Y24236231D01*
X21085800Y24440143D01*
X21085800Y24660857D01*
X21001337Y24864769D01*
X20845269Y25020837D01*
X20641357Y25105300D01*
X20420643Y25105300D01*
X20216731Y25020837D01*
X20060663Y24864769D01*
X19976200Y24660857D01*
X-4620200Y24660857D01*
X-4620200Y25422857D01*
X22960700Y25422857D01*
X22960700Y25202143D01*
X23045163Y24998231D01*
X23201231Y24842163D01*
X23405143Y24757700D01*
X23625857Y24757700D01*
X23749200Y24808790D01*
X23749200Y24173812D01*
X23798797Y23924474D01*
X23987725Y23641724D01*
X24270475Y23452796D01*
X24604000Y23386454D01*
X24937526Y23452796D01*
X25220276Y23641724D01*
X25409204Y23924474D01*
X25458800Y24173812D01*
X25458800Y24242312D01*
X26859700Y24242312D01*
X26859700Y23973689D01*
X26923801Y23651430D01*
X27167984Y23285984D01*
X27533429Y23041801D01*
X27964500Y22956056D01*
X28395570Y23041801D01*
X28761016Y23285984D01*
X29005199Y23651429D01*
X29069300Y23973688D01*
X29069300Y24242311D01*
X29005199Y24564570D01*
X28761016Y24930016D01*
X28395571Y25174199D01*
X27964500Y25259944D01*
X27533430Y25174199D01*
X27167984Y24930016D01*
X26923801Y24564571D01*
X26859700Y24242312D01*
X25458800Y24242312D01*
X25458800Y25042188D01*
X25409204Y25291526D01*
X25220276Y25574276D01*
X24937525Y25763204D01*
X24604000Y25829546D01*
X24270474Y25763204D01*
X24003276Y25584668D01*
X23985837Y25626769D01*
X23829769Y25782837D01*
X23625857Y25867300D01*
X23405143Y25867300D01*
X23201231Y25782837D01*
X23045163Y25626769D01*
X22960700Y25422857D01*
X-4620200Y25422857D01*
X-4620200Y26248357D01*
X16737700Y26248357D01*
X16737700Y26027643D01*
X16822163Y25823731D01*
X16978231Y25667663D01*
X17182143Y25583200D01*
X17402857Y25583200D01*
X17606769Y25667663D01*
X17762837Y25823731D01*
X17847300Y26027643D01*
X17847300Y26248357D01*
X17762837Y26452269D01*
X17606769Y26608337D01*
X17402857Y26692800D01*
X17182143Y26692800D01*
X16978231Y26608337D01*
X16822163Y26452269D01*
X16737700Y26248357D01*
X-4620200Y26248357D01*
X-4620200Y27200857D01*
X16039200Y27200857D01*
X16039200Y26980143D01*
X16123663Y26776231D01*
X16279731Y26620163D01*
X16483643Y26535700D01*
X16704357Y26535700D01*
X16908269Y26620163D01*
X17064337Y26776231D01*
X17148800Y26980143D01*
X17148800Y27073857D01*
X22579700Y27073857D01*
X22579700Y26853143D01*
X22664163Y26649231D01*
X22820231Y26493163D01*
X23024143Y26408700D01*
X23244857Y26408700D01*
X23448769Y26493163D01*
X23604837Y26649231D01*
X23689300Y26853143D01*
X23689300Y26904674D01*
X23754564Y26877641D01*
X23975278Y26877641D01*
X24179190Y26962104D01*
X24335258Y27118172D01*
X24419721Y27322084D01*
X24419721Y27542798D01*
X24335258Y27746710D01*
X24179190Y27902778D01*
X23975278Y27987241D01*
X23754564Y27987241D01*
X23550652Y27902778D01*
X23394584Y27746710D01*
X23310121Y27542798D01*
X23310121Y27491267D01*
X23244857Y27518300D01*
X23024143Y27518300D01*
X22820231Y27433837D01*
X22664163Y27277769D01*
X22579700Y27073857D01*
X17148800Y27073857D01*
X17148800Y27200857D01*
X17064337Y27404769D01*
X16908269Y27560837D01*
X16704357Y27645300D01*
X16483643Y27645300D01*
X16279731Y27560837D01*
X16123663Y27404769D01*
X16039200Y27200857D01*
X-4620200Y27200857D01*
X-4620200Y28153357D01*
X21944700Y28153357D01*
X21944700Y27932643D01*
X22029163Y27728731D01*
X22185231Y27572663D01*
X22389143Y27488200D01*
X22609857Y27488200D01*
X22813769Y27572663D01*
X22969837Y27728731D01*
X23054300Y27932643D01*
X23054300Y28042187D01*
X25899200Y28042187D01*
X25899201Y26773812D01*
X25948797Y26524474D01*
X26137725Y26241724D01*
X26420475Y26052796D01*
X26754000Y25986454D01*
X27087526Y26052796D01*
X27370276Y26241724D01*
X27559204Y26524474D01*
X27608800Y26773812D01*
X27608800Y28042188D01*
X27559204Y28291526D01*
X27370276Y28574276D01*
X27087525Y28763204D01*
X27005188Y28779582D01*
X27160837Y28935231D01*
X27245300Y29139143D01*
X27245300Y29359857D01*
X27160837Y29563769D01*
X27004769Y29719837D01*
X26800857Y29804300D01*
X26580143Y29804300D01*
X26376231Y29719837D01*
X26220163Y29563769D01*
X26135700Y29359857D01*
X26135700Y29139143D01*
X26220163Y28935231D01*
X26376231Y28779163D01*
X26418287Y28761743D01*
X26137724Y28574276D01*
X25948796Y28291525D01*
X25899200Y28042187D01*
X23054300Y28042187D01*
X23054300Y28153357D01*
X22969837Y28357269D01*
X22813769Y28513337D01*
X22609857Y28597800D01*
X22389143Y28597800D01*
X22185231Y28513337D01*
X22029163Y28357269D01*
X21944700Y28153357D01*
X-4620200Y28153357D01*
X-4620200Y28851857D01*
X20801700Y28851857D01*
X20801700Y28631143D01*
X20886163Y28427231D01*
X21042231Y28271163D01*
X21246143Y28186700D01*
X21466857Y28186700D01*
X21670769Y28271163D01*
X21826837Y28427231D01*
X21911300Y28631143D01*
X21911300Y28851857D01*
X21826837Y29055769D01*
X21670769Y29211837D01*
X21466857Y29296300D01*
X21246143Y29296300D01*
X21042231Y29211837D01*
X20886163Y29055769D01*
X20801700Y28851857D01*
X-4620200Y28851857D01*
X-4620200Y31328357D01*
X7149200Y31328357D01*
X7149200Y31107643D01*
X7233663Y30903731D01*
X7389731Y30747663D01*
X7593643Y30663200D01*
X7732215Y30663200D01*
X7585284Y30516269D01*
X7500821Y30312357D01*
X7500821Y30091643D01*
X7585284Y29887731D01*
X7741352Y29731663D01*
X7945264Y29647200D01*
X8165978Y29647200D01*
X8369890Y29731663D01*
X8525958Y29887731D01*
X8610421Y30091643D01*
X8610421Y30312357D01*
X8525958Y30516269D01*
X8400040Y30642187D01*
X23749200Y30642187D01*
X23749200Y29773812D01*
X23798797Y29524474D01*
X23987725Y29241724D01*
X24270475Y29052796D01*
X24604000Y28986454D01*
X24937526Y29052796D01*
X25220276Y29241724D01*
X25409204Y29524474D01*
X25458800Y29773812D01*
X25458800Y30642188D01*
X25418994Y30842312D01*
X26859700Y30842312D01*
X26859700Y30573689D01*
X26923801Y30251430D01*
X27167984Y29885984D01*
X27533429Y29641801D01*
X27964500Y29556056D01*
X28395570Y29641801D01*
X28761016Y29885984D01*
X29005199Y30251429D01*
X29069300Y30573688D01*
X29069300Y30842311D01*
X29005199Y31164570D01*
X28761016Y31530016D01*
X28395571Y31774199D01*
X27964500Y31859944D01*
X27533430Y31774199D01*
X27167984Y31530016D01*
X26923801Y31164571D01*
X26859700Y30842312D01*
X25418994Y30842312D01*
X25409204Y30891526D01*
X25220276Y31174276D01*
X24937525Y31363204D01*
X24604000Y31429546D01*
X24270474Y31363204D01*
X23987724Y31174276D01*
X23798796Y30891525D01*
X23749200Y30642187D01*
X8400040Y30642187D01*
X8369890Y30672337D01*
X8165978Y30756800D01*
X8027406Y30756800D01*
X8174337Y30903731D01*
X8258800Y31107643D01*
X8258800Y31328357D01*
X8174337Y31532269D01*
X8018269Y31688337D01*
X7814357Y31772800D01*
X7593643Y31772800D01*
X7389731Y31688337D01*
X7233663Y31532269D01*
X7149200Y31328357D01*
X-4620200Y31328357D01*
X-4620200Y32344357D01*
X-3264800Y32344357D01*
X-3264800Y32123643D01*
X-3180337Y31919731D01*
X-3024269Y31763663D01*
X-2820357Y31679200D01*
X-2599643Y31679200D01*
X-2395731Y31763663D01*
X-2239663Y31919731D01*
X-2155200Y32123643D01*
X-2155200Y32344357D01*
X-2239663Y32548269D01*
X-2353251Y32661857D01*
X3529700Y32661857D01*
X3529700Y32441143D01*
X3614163Y32237231D01*
X3770231Y32081163D01*
X3974143Y31996700D01*
X4194857Y31996700D01*
X4267662Y32026857D01*
X11022700Y32026857D01*
X11022700Y31806143D01*
X11107163Y31602231D01*
X11263231Y31446163D01*
X11467143Y31361700D01*
X11687857Y31361700D01*
X11891769Y31446163D01*
X12047837Y31602231D01*
X12080133Y31680201D01*
X14095857Y31680201D01*
X14095857Y31459487D01*
X14180320Y31255575D01*
X14336388Y31099507D01*
X14540300Y31015044D01*
X14761014Y31015044D01*
X14964926Y31099507D01*
X15120994Y31255575D01*
X15205457Y31459487D01*
X15205457Y31680201D01*
X15120994Y31884113D01*
X14964926Y32040181D01*
X14761014Y32124644D01*
X14540300Y32124644D01*
X14336388Y32040181D01*
X14180320Y31884113D01*
X14095857Y31680201D01*
X12080133Y31680201D01*
X12132300Y31806143D01*
X12132300Y32026857D01*
X12047837Y32230769D01*
X11891769Y32386837D01*
X11687857Y32471300D01*
X11467143Y32471300D01*
X11263231Y32386837D01*
X11107163Y32230769D01*
X11022700Y32026857D01*
X4267662Y32026857D01*
X4398769Y32081163D01*
X4554837Y32237231D01*
X4639300Y32441143D01*
X4639300Y32661857D01*
X4554837Y32865769D01*
X4398769Y33021837D01*
X4194857Y33106300D01*
X3974143Y33106300D01*
X3770231Y33021837D01*
X3614163Y32865769D01*
X3529700Y32661857D01*
X-2353251Y32661857D01*
X-2395731Y32704337D01*
X-2599643Y32788800D01*
X-2820357Y32788800D01*
X-3024269Y32704337D01*
X-3180337Y32548269D01*
X-3264800Y32344357D01*
X-4620200Y32344357D01*
X-4620200Y33804857D01*
X4164700Y33804857D01*
X4164700Y33584143D01*
X4249163Y33380231D01*
X4405231Y33224163D01*
X4609143Y33139700D01*
X4829857Y33139700D01*
X4878679Y33159922D01*
X5023305Y33015296D01*
X5227217Y32930833D01*
X5447931Y32930833D01*
X5651843Y33015296D01*
X5807911Y33171364D01*
X5892374Y33375276D01*
X5892374Y33595990D01*
X5807911Y33799902D01*
X5675956Y33931857D01*
X7593700Y33931857D01*
X7593700Y33711143D01*
X7678163Y33507231D01*
X7834231Y33351163D01*
X8038143Y33266700D01*
X8165186Y33266700D01*
X8165186Y33139643D01*
X8249649Y32935731D01*
X8405717Y32779663D01*
X8609629Y32695200D01*
X8830343Y32695200D01*
X9034255Y32779663D01*
X9190323Y32935731D01*
X9274786Y33139643D01*
X9274786Y33360357D01*
X9248484Y33423857D01*
X12292700Y33423857D01*
X12292700Y33203143D01*
X12377163Y32999231D01*
X12533231Y32843163D01*
X12737143Y32758700D01*
X12957857Y32758700D01*
X13161769Y32843163D01*
X13234463Y32915857D01*
X27151700Y32915857D01*
X27151700Y32695143D01*
X27236163Y32491231D01*
X27392231Y32335163D01*
X27596143Y32250700D01*
X27816857Y32250700D01*
X28020769Y32335163D01*
X28176837Y32491231D01*
X28261300Y32695143D01*
X28261300Y32915857D01*
X28176837Y33119769D01*
X28020769Y33275837D01*
X27816857Y33360300D01*
X27596143Y33360300D01*
X27392231Y33275837D01*
X27236163Y33119769D01*
X27151700Y32915857D01*
X13234463Y32915857D01*
X13317837Y32999231D01*
X13402300Y33203143D01*
X13402300Y33423857D01*
X13323393Y33614357D01*
X19468200Y33614357D01*
X19468200Y33393643D01*
X19552663Y33189731D01*
X19708731Y33033663D01*
X19912643Y32949200D01*
X20133357Y32949200D01*
X20337269Y33033663D01*
X20493337Y33189731D01*
X20577800Y33393643D01*
X20577800Y33614357D01*
X20493337Y33818269D01*
X20337269Y33974337D01*
X20133357Y34058800D01*
X19912643Y34058800D01*
X19708731Y33974337D01*
X19552663Y33818269D01*
X19468200Y33614357D01*
X13323393Y33614357D01*
X13317837Y33627769D01*
X13161769Y33783837D01*
X12957857Y33868300D01*
X12737143Y33868300D01*
X12533231Y33783837D01*
X12377163Y33627769D01*
X12292700Y33423857D01*
X9248484Y33423857D01*
X9190323Y33564269D01*
X9034255Y33720337D01*
X8830343Y33804800D01*
X8703300Y33804800D01*
X8703300Y33931857D01*
X8618837Y34135769D01*
X8462769Y34291837D01*
X8258857Y34376300D01*
X8038143Y34376300D01*
X7834231Y34291837D01*
X7678163Y34135769D01*
X7593700Y33931857D01*
X5675956Y33931857D01*
X5651843Y33955970D01*
X5447931Y34040433D01*
X5227217Y34040433D01*
X5178395Y34020211D01*
X5033769Y34164837D01*
X4829857Y34249300D01*
X4609143Y34249300D01*
X4405231Y34164837D01*
X4249163Y34008769D01*
X4164700Y33804857D01*
X-4620200Y33804857D01*
X-4620200Y35138357D01*
X14007200Y35138357D01*
X14007200Y34917643D01*
X14091663Y34713731D01*
X14247731Y34557663D01*
X14451643Y34473200D01*
X14672357Y34473200D01*
X14876269Y34557663D01*
X15032337Y34713731D01*
X15116800Y34917643D01*
X15116800Y35138357D01*
X15064195Y35265357D01*
X19976200Y35265357D01*
X19976200Y35044643D01*
X20060663Y34840731D01*
X20216731Y34684663D01*
X20420643Y34600200D01*
X20641357Y34600200D01*
X20845269Y34684663D01*
X21001337Y34840731D01*
X21085800Y35044643D01*
X21085800Y35265357D01*
X21001337Y35469269D01*
X20845269Y35625337D01*
X20641357Y35709800D01*
X20420643Y35709800D01*
X20216731Y35625337D01*
X20060663Y35469269D01*
X19976200Y35265357D01*
X15064195Y35265357D01*
X15032337Y35342269D01*
X14876269Y35498337D01*
X14672357Y35582800D01*
X14451643Y35582800D01*
X14247731Y35498337D01*
X14091663Y35342269D01*
X14007200Y35138357D01*
X-4620200Y35138357D01*
X-4620200Y36662357D01*
X6196700Y36662357D01*
X6196700Y36441643D01*
X6281163Y36237731D01*
X6437231Y36081663D01*
X6641143Y35997200D01*
X6861857Y35997200D01*
X7065769Y36081663D01*
X7221837Y36237731D01*
X7306300Y36441643D01*
X7306300Y36662357D01*
X7253807Y36789087D01*
X7262731Y36780163D01*
X7466643Y36695700D01*
X7687357Y36695700D01*
X7760162Y36725857D01*
X24611700Y36725857D01*
X24611700Y36505143D01*
X24696163Y36301231D01*
X24852231Y36145163D01*
X25056143Y36060700D01*
X25276857Y36060700D01*
X25480769Y36145163D01*
X25636837Y36301231D01*
X25721300Y36505143D01*
X25721300Y36725857D01*
X25636837Y36929769D01*
X25480769Y37085837D01*
X25276857Y37170300D01*
X25056143Y37170300D01*
X24852231Y37085837D01*
X24696163Y36929769D01*
X24611700Y36725857D01*
X7760162Y36725857D01*
X7891269Y36780163D01*
X8047337Y36936231D01*
X8131800Y37140143D01*
X8131800Y37360857D01*
X8047337Y37564769D01*
X7891269Y37720837D01*
X7687357Y37805300D01*
X7466643Y37805300D01*
X7262731Y37720837D01*
X7106663Y37564769D01*
X7022200Y37360857D01*
X7022200Y37140143D01*
X7074693Y37013413D01*
X7065769Y37022337D01*
X6861857Y37106800D01*
X6641143Y37106800D01*
X6437231Y37022337D01*
X6281163Y36866269D01*
X6196700Y36662357D01*
X-4620200Y36662357D01*
X-4620200Y37999072D01*
X12686976Y37999072D01*
X12686976Y37778358D01*
X12771439Y37574446D01*
X12927507Y37418378D01*
X13131419Y37333915D01*
X13352133Y37333915D01*
X13556045Y37418378D01*
X13712113Y37574446D01*
X13796576Y37778358D01*
X13796576Y37999072D01*
X13712113Y38202984D01*
X13556045Y38359052D01*
X13352133Y38443515D01*
X13131419Y38443515D01*
X12927507Y38359052D01*
X12771439Y38202984D01*
X12686976Y37999072D01*
X-4620200Y37999072D01*
X-4620200Y39392857D01*
X5561700Y39392857D01*
X5561700Y39172143D01*
X5646163Y38968231D01*
X5802231Y38812163D01*
X6006143Y38727700D01*
X6226857Y38727700D01*
X6430769Y38812163D01*
X6503463Y38884857D01*
X8355700Y38884857D01*
X8355700Y38664143D01*
X8440163Y38460231D01*
X8596231Y38304163D01*
X8800143Y38219700D01*
X9020857Y38219700D01*
X9224769Y38304163D01*
X9380837Y38460231D01*
X9465300Y38664143D01*
X9465300Y38884857D01*
X9380837Y39088769D01*
X9224769Y39244837D01*
X9164390Y39269847D01*
X15531200Y39269847D01*
X15531200Y39049133D01*
X15615663Y38845221D01*
X15771731Y38689153D01*
X15975643Y38604690D01*
X16196357Y38604690D01*
X16400269Y38689153D01*
X16556337Y38845221D01*
X16640800Y39049133D01*
X16640800Y39269847D01*
X16556337Y39473759D01*
X16400269Y39629827D01*
X16196357Y39714290D01*
X15975643Y39714290D01*
X15771731Y39629827D01*
X15615663Y39473759D01*
X15531200Y39269847D01*
X9164390Y39269847D01*
X9020857Y39329300D01*
X8800143Y39329300D01*
X8596231Y39244837D01*
X8440163Y39088769D01*
X8355700Y38884857D01*
X6503463Y38884857D01*
X6586837Y38968231D01*
X6671300Y39172143D01*
X6671300Y39392857D01*
X6586837Y39596769D01*
X6430769Y39752837D01*
X6226857Y39837300D01*
X6006143Y39837300D01*
X5802231Y39752837D01*
X5646163Y39596769D01*
X5561700Y39392857D01*
X-4620200Y39392857D01*
X-4620200Y39964357D01*
X24548200Y39964357D01*
X24548200Y39743643D01*
X24632663Y39539731D01*
X24788731Y39383663D01*
X24992643Y39299200D01*
X25213357Y39299200D01*
X25417269Y39383663D01*
X25573337Y39539731D01*
X25657800Y39743643D01*
X25657800Y39964357D01*
X25573337Y40168269D01*
X25417269Y40324337D01*
X25213357Y40408800D01*
X24992643Y40408800D01*
X24788731Y40324337D01*
X24632663Y40168269D01*
X24548200Y39964357D01*
X-4620200Y39964357D01*
X-4620200Y43519457D01*
X2069200Y43519457D01*
X2069200Y43298743D01*
X2153663Y43094831D01*
X2309731Y42938763D01*
X2513643Y42854300D01*
X2734357Y42854300D01*
X2938269Y42938763D01*
X3094337Y43094831D01*
X3178800Y43298743D01*
X3178800Y43519457D01*
X3783700Y43519457D01*
X3783700Y43298743D01*
X3868163Y43094831D01*
X4024231Y42938763D01*
X4228143Y42854300D01*
X4448857Y42854300D01*
X4652769Y42938763D01*
X4808837Y43094831D01*
X4893300Y43298743D01*
X4893300Y43303557D01*
X16928200Y43303557D01*
X16928200Y43082843D01*
X17012663Y42878931D01*
X17168731Y42722863D01*
X17372643Y42638400D01*
X17593357Y42638400D01*
X17797269Y42722863D01*
X17832763Y42758357D01*
X25881700Y42758357D01*
X25881700Y42537643D01*
X25966163Y42333731D01*
X26122231Y42177663D01*
X26326143Y42093200D01*
X26546857Y42093200D01*
X26750769Y42177663D01*
X26906837Y42333731D01*
X26991300Y42537643D01*
X26991300Y42758357D01*
X26906837Y42962269D01*
X26750769Y43118337D01*
X26546857Y43202800D01*
X26326143Y43202800D01*
X26122231Y43118337D01*
X25966163Y42962269D01*
X25881700Y42758357D01*
X17832763Y42758357D01*
X17953337Y42878931D01*
X18037800Y43082843D01*
X18037800Y43303557D01*
X17953337Y43507469D01*
X17797269Y43663537D01*
X17593357Y43748000D01*
X17372643Y43748000D01*
X17168731Y43663537D01*
X17012663Y43507469D01*
X16928200Y43303557D01*
X4893300Y43303557D01*
X4893300Y43519457D01*
X4808837Y43723369D01*
X4652769Y43879437D01*
X4448857Y43963900D01*
X4228143Y43963900D01*
X4024231Y43879437D01*
X3868163Y43723369D01*
X3783700Y43519457D01*
X3178800Y43519457D01*
X3094337Y43723369D01*
X2938269Y43879437D01*
X2734357Y43963900D01*
X2513643Y43963900D01*
X2309731Y43879437D01*
X2153663Y43723369D01*
X2069200Y43519457D01*
X-4620200Y43519457D01*
X-4620200Y46123857D01*
X2386700Y46123857D01*
X2386700Y45903143D01*
X2471163Y45699231D01*
X2627231Y45543163D01*
X2831143Y45458700D01*
X3051857Y45458700D01*
X3255769Y45543163D01*
X3411837Y45699231D01*
X3496300Y45903143D01*
X3496300Y46123857D01*
X4228200Y46123857D01*
X4228200Y45903143D01*
X4312663Y45699231D01*
X4468731Y45543163D01*
X4672643Y45458700D01*
X4893357Y45458700D01*
X5097269Y45543163D01*
X5253337Y45699231D01*
X5337800Y45903143D01*
X5337800Y46123857D01*
X25881700Y46123857D01*
X25881700Y45903143D01*
X25966163Y45699231D01*
X26122231Y45543163D01*
X26326143Y45458700D01*
X26546857Y45458700D01*
X26750769Y45543163D01*
X26906837Y45699231D01*
X26991300Y45903143D01*
X26991300Y46123857D01*
X26906837Y46327769D01*
X26750769Y46483837D01*
X26546857Y46568300D01*
X26326143Y46568300D01*
X26122231Y46483837D01*
X25966163Y46327769D01*
X25881700Y46123857D01*
X5337800Y46123857D01*
X5253337Y46327769D01*
X5097269Y46483837D01*
X4893357Y46568300D01*
X4672643Y46568300D01*
X4468731Y46483837D01*
X4312663Y46327769D01*
X4228200Y46123857D01*
X3496300Y46123857D01*
X3411837Y46327769D01*
X3255769Y46483837D01*
X3051857Y46568300D01*
X2831143Y46568300D01*
X2627231Y46483837D01*
X2471163Y46327769D01*
X2386700Y46123857D01*
X-4620200Y46123857D01*
X-4620200Y47076357D01*
X10197200Y47076357D01*
X10197200Y46855643D01*
X10281663Y46651731D01*
X10437731Y46495663D01*
X10641643Y46411200D01*
X10862357Y46411200D01*
X11066269Y46495663D01*
X11222337Y46651731D01*
X11306800Y46855643D01*
X11306800Y47076357D01*
X23087700Y47076357D01*
X23087700Y46855643D01*
X23172163Y46651731D01*
X23328231Y46495663D01*
X23532143Y46411200D01*
X23752857Y46411200D01*
X23956769Y46495663D01*
X24112837Y46651731D01*
X24197300Y46855643D01*
X24197300Y47076357D01*
X24112837Y47280269D01*
X23956769Y47436337D01*
X23752857Y47520800D01*
X23532143Y47520800D01*
X23328231Y47436337D01*
X23172163Y47280269D01*
X23087700Y47076357D01*
X11306800Y47076357D01*
X11222337Y47280269D01*
X11066269Y47436337D01*
X10862357Y47520800D01*
X10641643Y47520800D01*
X10437731Y47436337D01*
X10281663Y47280269D01*
X10197200Y47076357D01*
X-4620200Y47076357D01*
X-4620200Y48282857D01*
X23087700Y48282857D01*
X23087700Y48062143D01*
X23172163Y47858231D01*
X23328231Y47702163D01*
X23532143Y47617700D01*
X23752857Y47617700D01*
X23956769Y47702163D01*
X24112837Y47858231D01*
X24197300Y48062143D01*
X24197300Y48282857D01*
X24181519Y48320957D01*
X27888300Y48320957D01*
X27888300Y48100243D01*
X27972763Y47896331D01*
X28128831Y47740263D01*
X28332743Y47655800D01*
X28553457Y47655800D01*
X28757369Y47740263D01*
X28913437Y47896331D01*
X28997900Y48100243D01*
X28997900Y48320957D01*
X28913437Y48524869D01*
X28757369Y48680937D01*
X28553457Y48765400D01*
X28332743Y48765400D01*
X28128831Y48680937D01*
X27972763Y48524869D01*
X27888300Y48320957D01*
X24181519Y48320957D01*
X24112837Y48486769D01*
X23956769Y48642837D01*
X23752857Y48727300D01*
X23532143Y48727300D01*
X23328231Y48642837D01*
X23172163Y48486769D01*
X23087700Y48282857D01*
X-4620200Y48282857D01*
X-4620200Y50619657D01*
X19658700Y50619657D01*
X19658700Y50398943D01*
X19743163Y50195031D01*
X19899231Y50038963D01*
X20103143Y49954500D01*
X20323857Y49954500D01*
X20527769Y50038963D01*
X20683837Y50195031D01*
X20768300Y50398943D01*
X20768300Y50619657D01*
X20683837Y50823569D01*
X20527769Y50979637D01*
X20323857Y51064100D01*
X20103143Y51064100D01*
X19899231Y50979637D01*
X19743163Y50823569D01*
X19658700Y50619657D01*
X-4620200Y50619657D01*
X-4620200Y51521357D01*
X21500200Y51521357D01*
X21500200Y51300643D01*
X21584663Y51096731D01*
X21740731Y50940663D01*
X21944643Y50856200D01*
X22165357Y50856200D01*
X22369269Y50940663D01*
X22525337Y51096731D01*
X22609800Y51300643D01*
X22609800Y51521357D01*
X22525337Y51725269D01*
X22369269Y51881337D01*
X22165357Y51965800D01*
X21944643Y51965800D01*
X21740731Y51881337D01*
X21584663Y51725269D01*
X21500200Y51521357D01*
X-4620200Y51521357D01*
X-4620200Y54823357D01*
X-1994800Y54823357D01*
X-1994800Y54602643D01*
X-1910337Y54398731D01*
X-1754269Y54242663D01*
X-1550357Y54158200D01*
X-1329643Y54158200D01*
X-1125731Y54242663D01*
X-969663Y54398731D01*
X-932000Y54489658D01*
X-894337Y54398731D01*
X-738269Y54242663D01*
X-534357Y54158200D01*
X-313643Y54158200D01*
X-109731Y54242663D01*
X46337Y54398731D01*
X84000Y54489658D01*
X121663Y54398731D01*
X277731Y54242663D01*
X481643Y54158200D01*
X702357Y54158200D01*
X906269Y54242663D01*
X1062337Y54398731D01*
X1100000Y54489658D01*
X1137663Y54398731D01*
X1293731Y54242663D01*
X1497643Y54158200D01*
X1718357Y54158200D01*
X1922269Y54242663D01*
X2078337Y54398731D01*
X2116000Y54489658D01*
X2153663Y54398731D01*
X2309731Y54242663D01*
X2513643Y54158200D01*
X2734357Y54158200D01*
X2938269Y54242663D01*
X3094337Y54398731D01*
X3178800Y54602643D01*
X3178800Y54823357D01*
X5371200Y54823357D01*
X5371200Y54602643D01*
X5455663Y54398731D01*
X5611731Y54242663D01*
X5815643Y54158200D01*
X6036357Y54158200D01*
X6240269Y54242663D01*
X6396337Y54398731D01*
X6434000Y54489658D01*
X6471663Y54398731D01*
X6627731Y54242663D01*
X6831643Y54158200D01*
X7052357Y54158200D01*
X7256269Y54242663D01*
X7412337Y54398731D01*
X7450000Y54489658D01*
X7487663Y54398731D01*
X7643731Y54242663D01*
X7847643Y54158200D01*
X8068357Y54158200D01*
X8272269Y54242663D01*
X8428337Y54398731D01*
X8466000Y54489658D01*
X8503663Y54398731D01*
X8659731Y54242663D01*
X8863643Y54158200D01*
X9084357Y54158200D01*
X9288269Y54242663D01*
X9444337Y54398731D01*
X9528800Y54602643D01*
X9528800Y54823357D01*
X9444337Y55027269D01*
X9288269Y55183337D01*
X9084357Y55267800D01*
X8863643Y55267800D01*
X8659731Y55183337D01*
X8503663Y55027269D01*
X8466000Y54936342D01*
X8428337Y55027269D01*
X8272269Y55183337D01*
X8068357Y55267800D01*
X7847643Y55267800D01*
X7643731Y55183337D01*
X7487663Y55027269D01*
X7450000Y54936342D01*
X7412337Y55027269D01*
X7256269Y55183337D01*
X7052357Y55267800D01*
X6831643Y55267800D01*
X6627731Y55183337D01*
X6471663Y55027269D01*
X6434000Y54936342D01*
X6396337Y55027269D01*
X6240269Y55183337D01*
X6036357Y55267800D01*
X5815643Y55267800D01*
X5611731Y55183337D01*
X5455663Y55027269D01*
X5371200Y54823357D01*
X3178800Y54823357D01*
X3094337Y55027269D01*
X2938269Y55183337D01*
X2734357Y55267800D01*
X2513643Y55267800D01*
X2309731Y55183337D01*
X2153663Y55027269D01*
X2116000Y54936342D01*
X2078337Y55027269D01*
X1922269Y55183337D01*
X1718357Y55267800D01*
X1497643Y55267800D01*
X1293731Y55183337D01*
X1137663Y55027269D01*
X1100000Y54936342D01*
X1062337Y55027269D01*
X906269Y55183337D01*
X702357Y55267800D01*
X481643Y55267800D01*
X277731Y55183337D01*
X121663Y55027269D01*
X84000Y54936342D01*
X46337Y55027269D01*
X-109731Y55183337D01*
X-313643Y55267800D01*
X-534357Y55267800D01*
X-738269Y55183337D01*
X-894337Y55027269D01*
X-932000Y54936342D01*
X-969663Y55027269D01*
X-1125731Y55183337D01*
X-1329643Y55267800D01*
X-1550357Y55267800D01*
X-1754269Y55183337D01*
X-1910337Y55027269D01*
X-1994800Y54823357D01*
X-4620200Y54823357D01*
X-4620200Y60284357D01*
X7466700Y60284357D01*
X7466700Y60063643D01*
X7551163Y59859731D01*
X7707231Y59703663D01*
X7911143Y59619200D01*
X8131857Y59619200D01*
X8335769Y59703663D01*
X8491837Y59859731D01*
X8576300Y60063643D01*
X8576300Y60284357D01*
X8491837Y60488269D01*
X8335769Y60644337D01*
X8131857Y60728800D01*
X7911143Y60728800D01*
X7707231Y60644337D01*
X7551163Y60488269D01*
X7466700Y60284357D01*
X-4620200Y60284357D01*
X-4620200Y62187514D01*
X-4472871Y61831831D01*
X-4007369Y61366329D01*
X-3399160Y61114400D01*
X-2740840Y61114400D01*
X-2132631Y61366329D01*
X-1667129Y61831831D01*
X-1415200Y62440040D01*
X-1415200Y62443357D01*
X17055200Y62443357D01*
X17055200Y62222643D01*
X17139663Y62018731D01*
X17295731Y61862663D01*
X17499643Y61778200D01*
X17720357Y61778200D01*
X17924269Y61862663D01*
X18080337Y62018731D01*
X18164800Y62222643D01*
X18164800Y62252857D01*
X18896700Y62252857D01*
X18896700Y62032143D01*
X18981163Y61828231D01*
X19137231Y61672163D01*
X19341143Y61587700D01*
X19561857Y61587700D01*
X19765769Y61672163D01*
X19921837Y61828231D01*
X20006300Y62032143D01*
X20006300Y62252857D01*
X19921837Y62456769D01*
X19765769Y62612837D01*
X19561857Y62697300D01*
X19341143Y62697300D01*
X19137231Y62612837D01*
X18981163Y62456769D01*
X18896700Y62252857D01*
X18164800Y62252857D01*
X18164800Y62443357D01*
X18080337Y62647269D01*
X17924269Y62803337D01*
X17720357Y62887800D01*
X17499643Y62887800D01*
X17295731Y62803337D01*
X17139663Y62647269D01*
X17055200Y62443357D01*
X-1415200Y62443357D01*
X-1415200Y63098360D01*
X-1667129Y63706569D01*
X-1800917Y63840357D01*
X7403200Y63840357D01*
X7403200Y63619643D01*
X7487663Y63415731D01*
X7643731Y63259663D01*
X7847643Y63175200D01*
X8068357Y63175200D01*
X8272269Y63259663D01*
X8428337Y63415731D01*
X8512800Y63619643D01*
X8512800Y63840357D01*
X8428337Y64044269D01*
X8272269Y64200337D01*
X8068357Y64284800D01*
X7847643Y64284800D01*
X7643731Y64200337D01*
X7487663Y64044269D01*
X7403200Y63840357D01*
X-1800917Y63840357D01*
X-2132631Y64172071D01*
X-2740840Y64424000D01*
X-3399160Y64424000D01*
X-4007369Y64172071D01*
X-4472871Y63706569D01*
X-4620200Y63350886D01*
X-4620200Y63962595D01*
X-4566116Y64234493D01*
X-4433286Y64433287D01*
X-4234493Y64566116D01*
X-3962595Y64620200D01*
X28462595Y64620200D01*
X28734493Y64566116D01*
G04 #@! TO.N,/SENSOR_3V3*
G36*
X17254400Y4115822D02*
X17168731Y4080337D01*
X17012663Y3924269D01*
X16928200Y3720357D01*
X16928200Y3499643D01*
X17012663Y3295731D01*
X17168731Y3139663D01*
X17254400Y3104178D01*
X17254400Y-5120200D01*
X-2582951Y-5120200D01*
X-2132631Y-4933671D01*
X-1667129Y-4468169D01*
X-1415200Y-3859960D01*
X-1415200Y-3201640D01*
X-1667129Y-2593431D01*
X-2132631Y-2127929D01*
X-2740840Y-1876000D01*
X-3399160Y-1876000D01*
X-4007369Y-2127929D01*
X-4472871Y-2593431D01*
X-4620200Y-2949114D01*
X-4620200Y-269243D01*
X-3468000Y-269243D01*
X-3468000Y-489957D01*
X-3383537Y-693869D01*
X-3227469Y-849937D01*
X-3023557Y-934400D01*
X-2802843Y-934400D01*
X-2598931Y-849937D01*
X-2551637Y-802643D01*
X1586602Y-802643D01*
X1586602Y-1023357D01*
X1671065Y-1227269D01*
X1827133Y-1383337D01*
X2031045Y-1467800D01*
X2251759Y-1467800D01*
X2335125Y-1433269D01*
X2255263Y-1513131D01*
X2170800Y-1717043D01*
X2170800Y-1937757D01*
X2255263Y-2141669D01*
X2411331Y-2297737D01*
X2615243Y-2382200D01*
X2835957Y-2382200D01*
X3039869Y-2297737D01*
X3195937Y-2141669D01*
X3280400Y-1937757D01*
X3280400Y-1717043D01*
X3195937Y-1513131D01*
X3039869Y-1357063D01*
X2835957Y-1272600D01*
X2615243Y-1272600D01*
X2531877Y-1307131D01*
X2611739Y-1227269D01*
X2696202Y-1023357D01*
X2696202Y-802643D01*
X2611739Y-598731D01*
X2455671Y-442663D01*
X2251759Y-358200D01*
X2031045Y-358200D01*
X1827133Y-442663D01*
X1671065Y-598731D01*
X1586602Y-802643D01*
X-2551637Y-802643D01*
X-2442863Y-693869D01*
X-2358400Y-489957D01*
X-2358400Y-269243D01*
X-2442863Y-65331D01*
X-2598931Y90737D01*
X-2802843Y175200D01*
X-3023557Y175200D01*
X-3227469Y90737D01*
X-3383537Y-65331D01*
X-3468000Y-269243D01*
X-4620200Y-269243D01*
X-4620200Y911857D01*
X4672700Y911857D01*
X4672700Y691143D01*
X4757163Y487231D01*
X4913231Y331163D01*
X5117143Y246700D01*
X5337857Y246700D01*
X5541769Y331163D01*
X5697837Y487231D01*
X5782300Y691143D01*
X5782300Y911857D01*
X5697837Y1115769D01*
X5541769Y1271837D01*
X5337857Y1356300D01*
X5117143Y1356300D01*
X4913231Y1271837D01*
X4757163Y1115769D01*
X4672700Y911857D01*
X-4620200Y911857D01*
X-4620200Y1737357D01*
X-1169300Y1737357D01*
X-1169300Y1516643D01*
X-1084837Y1312731D01*
X-928769Y1156663D01*
X-724857Y1072200D01*
X-504143Y1072200D01*
X-300231Y1156663D01*
X-144163Y1312731D01*
X-59700Y1516643D01*
X-59700Y1737357D01*
X-144163Y1941269D01*
X-300231Y2097337D01*
X-504143Y2181800D01*
X-724857Y2181800D01*
X-928769Y2097337D01*
X-1084837Y1941269D01*
X-1169300Y1737357D01*
X-4620200Y1737357D01*
X-4620200Y3681357D01*
X13626200Y3681357D01*
X13626200Y3460643D01*
X13710663Y3256731D01*
X13866731Y3100663D01*
X14070643Y3016200D01*
X14291357Y3016200D01*
X14495269Y3100663D01*
X14651337Y3256731D01*
X14735800Y3460643D01*
X14735800Y3681357D01*
X14719646Y3720357D01*
X15340700Y3720357D01*
X15340700Y3499643D01*
X15425163Y3295731D01*
X15581231Y3139663D01*
X15785143Y3055200D01*
X16005857Y3055200D01*
X16209769Y3139663D01*
X16365837Y3295731D01*
X16450300Y3499643D01*
X16450300Y3720357D01*
X16365837Y3924269D01*
X16209769Y4080337D01*
X16005857Y4164800D01*
X15785143Y4164800D01*
X15581231Y4080337D01*
X15425163Y3924269D01*
X15340700Y3720357D01*
X14719646Y3720357D01*
X14651337Y3885269D01*
X14495269Y4041337D01*
X14291357Y4125800D01*
X14070643Y4125800D01*
X13866731Y4041337D01*
X13710663Y3885269D01*
X13626200Y3681357D01*
X-4620200Y3681357D01*
X-4620200Y9316557D01*
X1764400Y9316557D01*
X1764400Y9095843D01*
X1848863Y8891931D01*
X2004931Y8735863D01*
X2208843Y8651400D01*
X2429557Y8651400D01*
X2633469Y8735863D01*
X2789537Y8891931D01*
X2874000Y9095843D01*
X2874000Y9316557D01*
X2789537Y9520469D01*
X2633469Y9676537D01*
X2429557Y9761000D01*
X2208843Y9761000D01*
X2004931Y9676537D01*
X1848863Y9520469D01*
X1764400Y9316557D01*
X-4620200Y9316557D01*
X-4620200Y10563857D01*
X-2947300Y10563857D01*
X-2947300Y10343143D01*
X-2862837Y10139231D01*
X-2706769Y9983163D01*
X-2502857Y9898700D01*
X-2282143Y9898700D01*
X-2078231Y9983163D01*
X-1922163Y10139231D01*
X-1837700Y10343143D01*
X-1837700Y10563857D01*
X-1864002Y10627357D01*
X4736200Y10627357D01*
X4736200Y10406643D01*
X4820663Y10202731D01*
X4976731Y10046663D01*
X5180643Y9962200D01*
X5401357Y9962200D01*
X5605269Y10046663D01*
X5761337Y10202731D01*
X5845800Y10406643D01*
X5845800Y10627357D01*
X5761337Y10831269D01*
X5605269Y10987337D01*
X5401357Y11071800D01*
X5180643Y11071800D01*
X4976731Y10987337D01*
X4820663Y10831269D01*
X4736200Y10627357D01*
X-1864002Y10627357D01*
X-1922163Y10767769D01*
X-2078231Y10923837D01*
X-2282143Y11008300D01*
X-2502857Y11008300D01*
X-2706769Y10923837D01*
X-2862837Y10767769D01*
X-2947300Y10563857D01*
X-4620200Y10563857D01*
X-4620200Y12193400D01*
X17254400Y12193400D01*
X17254400Y4115822D01*
X17254400Y4115822D01*
G37*
X17254400Y4115822D02*
X17168731Y4080337D01*
X17012663Y3924269D01*
X16928200Y3720357D01*
X16928200Y3499643D01*
X17012663Y3295731D01*
X17168731Y3139663D01*
X17254400Y3104178D01*
X17254400Y-5120200D01*
X-2582951Y-5120200D01*
X-2132631Y-4933671D01*
X-1667129Y-4468169D01*
X-1415200Y-3859960D01*
X-1415200Y-3201640D01*
X-1667129Y-2593431D01*
X-2132631Y-2127929D01*
X-2740840Y-1876000D01*
X-3399160Y-1876000D01*
X-4007369Y-2127929D01*
X-4472871Y-2593431D01*
X-4620200Y-2949114D01*
X-4620200Y-269243D01*
X-3468000Y-269243D01*
X-3468000Y-489957D01*
X-3383537Y-693869D01*
X-3227469Y-849937D01*
X-3023557Y-934400D01*
X-2802843Y-934400D01*
X-2598931Y-849937D01*
X-2551637Y-802643D01*
X1586602Y-802643D01*
X1586602Y-1023357D01*
X1671065Y-1227269D01*
X1827133Y-1383337D01*
X2031045Y-1467800D01*
X2251759Y-1467800D01*
X2335125Y-1433269D01*
X2255263Y-1513131D01*
X2170800Y-1717043D01*
X2170800Y-1937757D01*
X2255263Y-2141669D01*
X2411331Y-2297737D01*
X2615243Y-2382200D01*
X2835957Y-2382200D01*
X3039869Y-2297737D01*
X3195937Y-2141669D01*
X3280400Y-1937757D01*
X3280400Y-1717043D01*
X3195937Y-1513131D01*
X3039869Y-1357063D01*
X2835957Y-1272600D01*
X2615243Y-1272600D01*
X2531877Y-1307131D01*
X2611739Y-1227269D01*
X2696202Y-1023357D01*
X2696202Y-802643D01*
X2611739Y-598731D01*
X2455671Y-442663D01*
X2251759Y-358200D01*
X2031045Y-358200D01*
X1827133Y-442663D01*
X1671065Y-598731D01*
X1586602Y-802643D01*
X-2551637Y-802643D01*
X-2442863Y-693869D01*
X-2358400Y-489957D01*
X-2358400Y-269243D01*
X-2442863Y-65331D01*
X-2598931Y90737D01*
X-2802843Y175200D01*
X-3023557Y175200D01*
X-3227469Y90737D01*
X-3383537Y-65331D01*
X-3468000Y-269243D01*
X-4620200Y-269243D01*
X-4620200Y911857D01*
X4672700Y911857D01*
X4672700Y691143D01*
X4757163Y487231D01*
X4913231Y331163D01*
X5117143Y246700D01*
X5337857Y246700D01*
X5541769Y331163D01*
X5697837Y487231D01*
X5782300Y691143D01*
X5782300Y911857D01*
X5697837Y1115769D01*
X5541769Y1271837D01*
X5337857Y1356300D01*
X5117143Y1356300D01*
X4913231Y1271837D01*
X4757163Y1115769D01*
X4672700Y911857D01*
X-4620200Y911857D01*
X-4620200Y1737357D01*
X-1169300Y1737357D01*
X-1169300Y1516643D01*
X-1084837Y1312731D01*
X-928769Y1156663D01*
X-724857Y1072200D01*
X-504143Y1072200D01*
X-300231Y1156663D01*
X-144163Y1312731D01*
X-59700Y1516643D01*
X-59700Y1737357D01*
X-144163Y1941269D01*
X-300231Y2097337D01*
X-504143Y2181800D01*
X-724857Y2181800D01*
X-928769Y2097337D01*
X-1084837Y1941269D01*
X-1169300Y1737357D01*
X-4620200Y1737357D01*
X-4620200Y3681357D01*
X13626200Y3681357D01*
X13626200Y3460643D01*
X13710663Y3256731D01*
X13866731Y3100663D01*
X14070643Y3016200D01*
X14291357Y3016200D01*
X14495269Y3100663D01*
X14651337Y3256731D01*
X14735800Y3460643D01*
X14735800Y3681357D01*
X14719646Y3720357D01*
X15340700Y3720357D01*
X15340700Y3499643D01*
X15425163Y3295731D01*
X15581231Y3139663D01*
X15785143Y3055200D01*
X16005857Y3055200D01*
X16209769Y3139663D01*
X16365837Y3295731D01*
X16450300Y3499643D01*
X16450300Y3720357D01*
X16365837Y3924269D01*
X16209769Y4080337D01*
X16005857Y4164800D01*
X15785143Y4164800D01*
X15581231Y4080337D01*
X15425163Y3924269D01*
X15340700Y3720357D01*
X14719646Y3720357D01*
X14651337Y3885269D01*
X14495269Y4041337D01*
X14291357Y4125800D01*
X14070643Y4125800D01*
X13866731Y4041337D01*
X13710663Y3885269D01*
X13626200Y3681357D01*
X-4620200Y3681357D01*
X-4620200Y9316557D01*
X1764400Y9316557D01*
X1764400Y9095843D01*
X1848863Y8891931D01*
X2004931Y8735863D01*
X2208843Y8651400D01*
X2429557Y8651400D01*
X2633469Y8735863D01*
X2789537Y8891931D01*
X2874000Y9095843D01*
X2874000Y9316557D01*
X2789537Y9520469D01*
X2633469Y9676537D01*
X2429557Y9761000D01*
X2208843Y9761000D01*
X2004931Y9676537D01*
X1848863Y9520469D01*
X1764400Y9316557D01*
X-4620200Y9316557D01*
X-4620200Y10563857D01*
X-2947300Y10563857D01*
X-2947300Y10343143D01*
X-2862837Y10139231D01*
X-2706769Y9983163D01*
X-2502857Y9898700D01*
X-2282143Y9898700D01*
X-2078231Y9983163D01*
X-1922163Y10139231D01*
X-1837700Y10343143D01*
X-1837700Y10563857D01*
X-1864002Y10627357D01*
X4736200Y10627357D01*
X4736200Y10406643D01*
X4820663Y10202731D01*
X4976731Y10046663D01*
X5180643Y9962200D01*
X5401357Y9962200D01*
X5605269Y10046663D01*
X5761337Y10202731D01*
X5845800Y10406643D01*
X5845800Y10627357D01*
X5761337Y10831269D01*
X5605269Y10987337D01*
X5401357Y11071800D01*
X5180643Y11071800D01*
X4976731Y10987337D01*
X4820663Y10831269D01*
X4736200Y10627357D01*
X-1864002Y10627357D01*
X-1922163Y10767769D01*
X-2078231Y10923837D01*
X-2282143Y11008300D01*
X-2502857Y11008300D01*
X-2706769Y10923837D01*
X-2862837Y10767769D01*
X-2947300Y10563857D01*
X-4620200Y10563857D01*
X-4620200Y12193400D01*
X17254400Y12193400D01*
X17254400Y4115822D01*
G04 #@! TO.N,/PERIPH_3V3*
G36*
X25013663Y12228269D02*
X24929200Y12024357D01*
X24929200Y11803643D01*
X25013663Y11599731D01*
X25169731Y11443663D01*
X25373643Y11359200D01*
X25594357Y11359200D01*
X25798269Y11443663D01*
X25954337Y11599731D01*
X26038800Y11803643D01*
X26038800Y12024357D01*
X25954337Y12228269D01*
X25862206Y12320400D01*
X26375794Y12320400D01*
X26283663Y12228269D01*
X26199200Y12024357D01*
X26199200Y11803643D01*
X26283663Y11599731D01*
X26439731Y11443663D01*
X26643643Y11359200D01*
X26864357Y11359200D01*
X27068269Y11443663D01*
X27224337Y11599731D01*
X27308800Y11803643D01*
X27308800Y12024357D01*
X27224337Y12228269D01*
X27132206Y12320400D01*
X29120201Y12320400D01*
X29120201Y-2577961D01*
X28670169Y-2127929D01*
X28061960Y-1876000D01*
X27403640Y-1876000D01*
X26795431Y-2127929D01*
X26329929Y-2593431D01*
X26078000Y-3201640D01*
X26078000Y-3859960D01*
X26329929Y-4468169D01*
X26795431Y-4933671D01*
X27245751Y-5120200D01*
X17711600Y-5120200D01*
X17711600Y2118357D01*
X26453200Y2118357D01*
X26453200Y1897643D01*
X26537663Y1693731D01*
X26693731Y1537663D01*
X26897643Y1453200D01*
X27118357Y1453200D01*
X27322269Y1537663D01*
X27478337Y1693731D01*
X27562800Y1897643D01*
X27562800Y2118357D01*
X27478337Y2322269D01*
X27322269Y2478337D01*
X27118357Y2562800D01*
X26897643Y2562800D01*
X26693731Y2478337D01*
X26537663Y2322269D01*
X26453200Y2118357D01*
X17711600Y2118357D01*
X17711600Y3104178D01*
X17797269Y3139663D01*
X17953337Y3295731D01*
X18037800Y3499643D01*
X18037800Y3705857D01*
X18579200Y3705857D01*
X18579200Y3485143D01*
X18663663Y3281231D01*
X18819731Y3125163D01*
X19023643Y3040700D01*
X19244357Y3040700D01*
X19448269Y3125163D01*
X19604337Y3281231D01*
X19688800Y3485143D01*
X19688800Y3681357D01*
X20230200Y3681357D01*
X20230200Y3460643D01*
X20314663Y3256731D01*
X20470731Y3100663D01*
X20674643Y3016200D01*
X20895357Y3016200D01*
X21099269Y3100663D01*
X21255337Y3256731D01*
X21339800Y3460643D01*
X21339800Y3681357D01*
X21255337Y3885269D01*
X21099269Y4041337D01*
X20895357Y4125800D01*
X20674643Y4125800D01*
X20470731Y4041337D01*
X20314663Y3885269D01*
X20230200Y3681357D01*
X19688800Y3681357D01*
X19688800Y3705857D01*
X19604337Y3909769D01*
X19448269Y4065837D01*
X19244357Y4150300D01*
X19023643Y4150300D01*
X18819731Y4065837D01*
X18663663Y3909769D01*
X18579200Y3705857D01*
X18037800Y3705857D01*
X18037800Y3720357D01*
X17953337Y3924269D01*
X17797269Y4080337D01*
X17711600Y4115822D01*
X17711600Y5674357D01*
X22643200Y5674357D01*
X22643200Y5453643D01*
X22727663Y5249731D01*
X22883731Y5093663D01*
X23087643Y5009200D01*
X23308357Y5009200D01*
X23512269Y5093663D01*
X23668337Y5249731D01*
X23706000Y5340658D01*
X23743663Y5249731D01*
X23899731Y5093663D01*
X24103643Y5009200D01*
X24324357Y5009200D01*
X24528269Y5093663D01*
X24684337Y5249731D01*
X24768800Y5453643D01*
X24768800Y5674357D01*
X24684337Y5878269D01*
X24528269Y6034337D01*
X24324357Y6118800D01*
X24103643Y6118800D01*
X23899731Y6034337D01*
X23743663Y5878269D01*
X23706000Y5787342D01*
X23668337Y5878269D01*
X23512269Y6034337D01*
X23308357Y6118800D01*
X23087643Y6118800D01*
X22883731Y6034337D01*
X22727663Y5878269D01*
X22643200Y5674357D01*
X17711600Y5674357D01*
X17711600Y8912857D01*
X20928700Y8912857D01*
X20928700Y8692143D01*
X21013163Y8488231D01*
X21169231Y8332163D01*
X21373143Y8247700D01*
X21593857Y8247700D01*
X21797769Y8332163D01*
X21953837Y8488231D01*
X22038300Y8692143D01*
X22038300Y8912857D01*
X21953837Y9116769D01*
X21797769Y9272837D01*
X21593857Y9357300D01*
X21373143Y9357300D01*
X21169231Y9272837D01*
X21013163Y9116769D01*
X20928700Y8912857D01*
X17711600Y8912857D01*
X17711600Y12320400D01*
X25105794Y12320400D01*
X25013663Y12228269D01*
X25013663Y12228269D01*
G37*
X25013663Y12228269D02*
X24929200Y12024357D01*
X24929200Y11803643D01*
X25013663Y11599731D01*
X25169731Y11443663D01*
X25373643Y11359200D01*
X25594357Y11359200D01*
X25798269Y11443663D01*
X25954337Y11599731D01*
X26038800Y11803643D01*
X26038800Y12024357D01*
X25954337Y12228269D01*
X25862206Y12320400D01*
X26375794Y12320400D01*
X26283663Y12228269D01*
X26199200Y12024357D01*
X26199200Y11803643D01*
X26283663Y11599731D01*
X26439731Y11443663D01*
X26643643Y11359200D01*
X26864357Y11359200D01*
X27068269Y11443663D01*
X27224337Y11599731D01*
X27308800Y11803643D01*
X27308800Y12024357D01*
X27224337Y12228269D01*
X27132206Y12320400D01*
X29120201Y12320400D01*
X29120201Y-2577961D01*
X28670169Y-2127929D01*
X28061960Y-1876000D01*
X27403640Y-1876000D01*
X26795431Y-2127929D01*
X26329929Y-2593431D01*
X26078000Y-3201640D01*
X26078000Y-3859960D01*
X26329929Y-4468169D01*
X26795431Y-4933671D01*
X27245751Y-5120200D01*
X17711600Y-5120200D01*
X17711600Y2118357D01*
X26453200Y2118357D01*
X26453200Y1897643D01*
X26537663Y1693731D01*
X26693731Y1537663D01*
X26897643Y1453200D01*
X27118357Y1453200D01*
X27322269Y1537663D01*
X27478337Y1693731D01*
X27562800Y1897643D01*
X27562800Y2118357D01*
X27478337Y2322269D01*
X27322269Y2478337D01*
X27118357Y2562800D01*
X26897643Y2562800D01*
X26693731Y2478337D01*
X26537663Y2322269D01*
X26453200Y2118357D01*
X17711600Y2118357D01*
X17711600Y3104178D01*
X17797269Y3139663D01*
X17953337Y3295731D01*
X18037800Y3499643D01*
X18037800Y3705857D01*
X18579200Y3705857D01*
X18579200Y3485143D01*
X18663663Y3281231D01*
X18819731Y3125163D01*
X19023643Y3040700D01*
X19244357Y3040700D01*
X19448269Y3125163D01*
X19604337Y3281231D01*
X19688800Y3485143D01*
X19688800Y3681357D01*
X20230200Y3681357D01*
X20230200Y3460643D01*
X20314663Y3256731D01*
X20470731Y3100663D01*
X20674643Y3016200D01*
X20895357Y3016200D01*
X21099269Y3100663D01*
X21255337Y3256731D01*
X21339800Y3460643D01*
X21339800Y3681357D01*
X21255337Y3885269D01*
X21099269Y4041337D01*
X20895357Y4125800D01*
X20674643Y4125800D01*
X20470731Y4041337D01*
X20314663Y3885269D01*
X20230200Y3681357D01*
X19688800Y3681357D01*
X19688800Y3705857D01*
X19604337Y3909769D01*
X19448269Y4065837D01*
X19244357Y4150300D01*
X19023643Y4150300D01*
X18819731Y4065837D01*
X18663663Y3909769D01*
X18579200Y3705857D01*
X18037800Y3705857D01*
X18037800Y3720357D01*
X17953337Y3924269D01*
X17797269Y4080337D01*
X17711600Y4115822D01*
X17711600Y5674357D01*
X22643200Y5674357D01*
X22643200Y5453643D01*
X22727663Y5249731D01*
X22883731Y5093663D01*
X23087643Y5009200D01*
X23308357Y5009200D01*
X23512269Y5093663D01*
X23668337Y5249731D01*
X23706000Y5340658D01*
X23743663Y5249731D01*
X23899731Y5093663D01*
X24103643Y5009200D01*
X24324357Y5009200D01*
X24528269Y5093663D01*
X24684337Y5249731D01*
X24768800Y5453643D01*
X24768800Y5674357D01*
X24684337Y5878269D01*
X24528269Y6034337D01*
X24324357Y6118800D01*
X24103643Y6118800D01*
X23899731Y6034337D01*
X23743663Y5878269D01*
X23706000Y5787342D01*
X23668337Y5878269D01*
X23512269Y6034337D01*
X23308357Y6118800D01*
X23087643Y6118800D01*
X22883731Y6034337D01*
X22727663Y5878269D01*
X22643200Y5674357D01*
X17711600Y5674357D01*
X17711600Y8912857D01*
X20928700Y8912857D01*
X20928700Y8692143D01*
X21013163Y8488231D01*
X21169231Y8332163D01*
X21373143Y8247700D01*
X21593857Y8247700D01*
X21797769Y8332163D01*
X21953837Y8488231D01*
X22038300Y8692143D01*
X22038300Y8912857D01*
X21953837Y9116769D01*
X21797769Y9272837D01*
X21593857Y9357300D01*
X21373143Y9357300D01*
X21169231Y9272837D01*
X21013163Y9116769D01*
X20928700Y8912857D01*
X17711600Y8912857D01*
X17711600Y12320400D01*
X25105794Y12320400D01*
X25013663Y12228269D01*
G04 #@! TD*
M02*
