G04 #@! TF.GenerationSoftware,KiCad,Pcbnew,(5.0.0)*
G04 #@! TF.CreationDate,2019-01-02T14:49:52-06:00*
G04 #@! TF.ProjectId,fk-sonar,666B2D736F6E61722E6B696361645F70,0.1*
G04 #@! TF.SameCoordinates,PX791ddc0PY791ddc0*
G04 #@! TF.FileFunction,Soldermask,Top*
G04 #@! TF.FilePolarity,Negative*
%FSLAX46Y46*%
G04 Gerber Fmt 4.6, Leading zero omitted, Abs format (unit mm)*
G04 Created by KiCad (PCBNEW (5.0.0)) date 01/02/19 14:49:52*
%MOMM*%
%LPD*%
G01*
G04 APERTURE LIST*
%ADD10R,0.600000X2.000000*%
%ADD11R,1.700000X0.600000*%
%ADD12R,2.800000X1.000000*%
%ADD13R,2.700000X0.950000*%
%ADD14R,0.700000X1.450000*%
%ADD15R,1.000000X1.100000*%
%ADD16R,1.100000X1.000000*%
%ADD17R,1.500000X1.000000*%
%ADD18C,0.250000*%
%ADD19C,0.100000*%
%ADD20R,1.100000X1.900000*%
%ADD21R,0.650000X1.050000*%
%ADD22R,1.500000X0.900000*%
%ADD23R,0.600000X3.000000*%
%ADD24C,2.700000*%
%ADD25R,1.000000X0.700000*%
%ADD26R,0.600000X0.700000*%
%ADD27O,1.600000X1.651000*%
%ADD28R,1.500000X0.450000*%
%ADD29O,1.100000X1.800000*%
%ADD30O,1.100000X2.200000*%
%ADD31R,1.550000X0.600000*%
%ADD32R,1.800000X1.200000*%
%ADD33C,2.000000*%
%ADD34R,0.800000X1.200000*%
%ADD35R,0.800000X2.200000*%
%ADD36R,2.000000X2.500000*%
G04 APERTURE END LIST*
D10*
G04 #@! TO.C,U3*
X19438800Y10382400D03*
X18168800Y10382400D03*
X16898800Y10382400D03*
X15628800Y10382400D03*
X15628800Y15782400D03*
X16898800Y15782400D03*
X18168800Y15782400D03*
X19438800Y15782400D03*
G04 #@! TD*
D11*
G04 #@! TO.C,J10*
X4427400Y56033800D03*
X4427400Y54783800D03*
X4427400Y53533800D03*
X4427400Y52283800D03*
X4427400Y51033800D03*
D12*
X7777400Y57883800D03*
X7777400Y49183800D03*
G04 #@! TD*
D11*
G04 #@! TO.C,J9*
X-3136000Y56044600D03*
X-3136000Y54794600D03*
X-3136000Y53544600D03*
X-3136000Y52294600D03*
X-3136000Y51044600D03*
D12*
X214000Y57894600D03*
X214000Y49194600D03*
G04 #@! TD*
D13*
G04 #@! TO.C,J2*
X22010300Y45683300D03*
X18010300Y45683300D03*
X22010300Y46953300D03*
X18010300Y46953300D03*
X22010300Y48223300D03*
X18010300Y48223300D03*
X22010300Y49493300D03*
X18010300Y49493300D03*
X22010300Y50763300D03*
X18010300Y50763300D03*
G04 #@! TD*
D14*
G04 #@! TO.C,SW1*
X26439800Y47031400D03*
X26439800Y41871400D03*
X28439800Y41871400D03*
X28439800Y47031400D03*
G04 #@! TD*
D15*
G04 #@! TO.C,C1*
X3538400Y41709100D03*
X3538400Y43409100D03*
G04 #@! TD*
G04 #@! TO.C,C2*
X5291900Y41709100D03*
X5291900Y43409100D03*
G04 #@! TD*
D16*
G04 #@! TO.C,C3*
X9912000Y46966000D03*
X8212000Y46966000D03*
G04 #@! TD*
G04 #@! TO.C,C4*
X11592000Y46966000D03*
X13292000Y46966000D03*
G04 #@! TD*
D15*
G04 #@! TO.C,C5*
X16555900Y41493200D03*
X16555900Y43193200D03*
G04 #@! TD*
G04 #@! TO.C,C6*
X18206900Y41493200D03*
X18206900Y43193200D03*
G04 #@! TD*
G04 #@! TO.C,C7*
X1760400Y41709100D03*
X1760400Y43409100D03*
G04 #@! TD*
D16*
G04 #@! TO.C,C8*
X5760000Y31662500D03*
X4060000Y31662500D03*
G04 #@! TD*
G04 #@! TO.C,C9*
X17522000Y33504000D03*
X19222000Y33504000D03*
G04 #@! TD*
G04 #@! TO.C,C12*
X18792000Y20423000D03*
X20492000Y20423000D03*
G04 #@! TD*
D15*
G04 #@! TO.C,C13*
X27960500Y21717500D03*
X27960500Y20017500D03*
G04 #@! TD*
G04 #@! TO.C,C14*
X18372000Y5271000D03*
X18372000Y3571000D03*
G04 #@! TD*
G04 #@! TO.C,C17*
X15070000Y5310000D03*
X15070000Y3610000D03*
G04 #@! TD*
G04 #@! TO.C,C18*
X16657500Y5310000D03*
X16657500Y3610000D03*
G04 #@! TD*
D16*
G04 #@! TO.C,C19*
X27921500Y36552000D03*
X26221500Y36552000D03*
G04 #@! TD*
D15*
G04 #@! TO.C,C20*
X21483500Y11367000D03*
X21483500Y9667000D03*
G04 #@! TD*
D17*
G04 #@! TO.C,F1*
X22436000Y21990000D03*
X22436000Y24190000D03*
G04 #@! TD*
D15*
G04 #@! TO.C,L1*
X-17600Y41709100D03*
X-17600Y43409100D03*
G04 #@! TD*
D16*
G04 #@! TO.C,L2*
X18792000Y22074000D03*
X20492000Y22074000D03*
G04 #@! TD*
G04 #@! TO.C,R2*
X26234200Y38152200D03*
X27934200Y38152200D03*
G04 #@! TD*
G04 #@! TO.C,R3*
X26234200Y39854000D03*
X27934200Y39854000D03*
G04 #@! TD*
G04 #@! TO.C,R8*
X17204500Y18835500D03*
X18904500Y18835500D03*
G04 #@! TD*
D15*
G04 #@! TO.C,R9*
X13927000Y13159500D03*
X13927000Y14859500D03*
G04 #@! TD*
D16*
G04 #@! TO.C,R10*
X15641500Y17946500D03*
X13941500Y17946500D03*
G04 #@! TD*
D15*
G04 #@! TO.C,R11*
X21547000Y5271000D03*
X21547000Y3571000D03*
G04 #@! TD*
G04 #@! TO.C,R12*
X13482500Y5271000D03*
X13482500Y3571000D03*
G04 #@! TD*
D16*
G04 #@! TO.C,R13*
X2966000Y46966000D03*
X1266000Y46966000D03*
G04 #@! TD*
G04 #@! TO.C,R14*
X4822000Y46966000D03*
X6522000Y46966000D03*
G04 #@! TD*
G04 #@! TO.C,R15*
X11426000Y7342000D03*
X13126000Y7342000D03*
G04 #@! TD*
D18*
G04 #@! TO.C,U1*
X9614029Y40868058D03*
D19*
G36*
X9066021Y41239289D02*
X9242798Y41416066D01*
X10162037Y40496827D01*
X9985260Y40320050D01*
X9066021Y41239289D01*
X9066021Y41239289D01*
G37*
D18*
X9260476Y40514505D03*
D19*
G36*
X8712468Y40885736D02*
X8889245Y41062513D01*
X9808484Y40143274D01*
X9631707Y39966497D01*
X8712468Y40885736D01*
X8712468Y40885736D01*
G37*
D18*
X8906922Y40160951D03*
D19*
G36*
X8358914Y40532182D02*
X8535691Y40708959D01*
X9454930Y39789720D01*
X9278153Y39612943D01*
X8358914Y40532182D01*
X8358914Y40532182D01*
G37*
D18*
X8553369Y39807398D03*
D19*
G36*
X8005361Y40178629D02*
X8182138Y40355406D01*
X9101377Y39436167D01*
X8924600Y39259390D01*
X8005361Y40178629D01*
X8005361Y40178629D01*
G37*
D18*
X8199816Y39453845D03*
D19*
G36*
X7651808Y39825076D02*
X7828585Y40001853D01*
X8747824Y39082614D01*
X8571047Y38905837D01*
X7651808Y39825076D01*
X7651808Y39825076D01*
G37*
D18*
X7846262Y39100291D03*
D19*
G36*
X7298254Y39471522D02*
X7475031Y39648299D01*
X8394270Y38729060D01*
X8217493Y38552283D01*
X7298254Y39471522D01*
X7298254Y39471522D01*
G37*
D18*
X7492709Y38746738D03*
D19*
G36*
X6944701Y39117969D02*
X7121478Y39294746D01*
X8040717Y38375507D01*
X7863940Y38198730D01*
X6944701Y39117969D01*
X6944701Y39117969D01*
G37*
D18*
X7139155Y38393184D03*
D19*
G36*
X6591147Y38764415D02*
X6767924Y38941192D01*
X7687163Y38021953D01*
X7510386Y37845176D01*
X6591147Y38764415D01*
X6591147Y38764415D01*
G37*
D18*
X6785602Y38039631D03*
D19*
G36*
X6237594Y38410862D02*
X6414371Y38587639D01*
X7333610Y37668400D01*
X7156833Y37491623D01*
X6237594Y38410862D01*
X6237594Y38410862D01*
G37*
D18*
X6432049Y37686078D03*
D19*
G36*
X5884041Y38057309D02*
X6060818Y38234086D01*
X6980057Y37314847D01*
X6803280Y37138070D01*
X5884041Y38057309D01*
X5884041Y38057309D01*
G37*
D18*
X6078495Y37332524D03*
D19*
G36*
X5530487Y37703755D02*
X5707264Y37880532D01*
X6626503Y36961293D01*
X6449726Y36784516D01*
X5530487Y37703755D01*
X5530487Y37703755D01*
G37*
D18*
X5724942Y36978971D03*
D19*
G36*
X5176934Y37350202D02*
X5353711Y37526979D01*
X6272950Y36607740D01*
X6096173Y36430963D01*
X5176934Y37350202D01*
X5176934Y37350202D01*
G37*
D18*
X5724942Y34716229D03*
D19*
G36*
X5353711Y34168221D02*
X5176934Y34344998D01*
X6096173Y35264237D01*
X6272950Y35087460D01*
X5353711Y34168221D01*
X5353711Y34168221D01*
G37*
D18*
X6078495Y34362676D03*
D19*
G36*
X5707264Y33814668D02*
X5530487Y33991445D01*
X6449726Y34910684D01*
X6626503Y34733907D01*
X5707264Y33814668D01*
X5707264Y33814668D01*
G37*
D18*
X6432049Y34009122D03*
D19*
G36*
X6060818Y33461114D02*
X5884041Y33637891D01*
X6803280Y34557130D01*
X6980057Y34380353D01*
X6060818Y33461114D01*
X6060818Y33461114D01*
G37*
D18*
X6785602Y33655569D03*
D19*
G36*
X6414371Y33107561D02*
X6237594Y33284338D01*
X7156833Y34203577D01*
X7333610Y34026800D01*
X6414371Y33107561D01*
X6414371Y33107561D01*
G37*
D18*
X7139155Y33302016D03*
D19*
G36*
X6767924Y32754008D02*
X6591147Y32930785D01*
X7510386Y33850024D01*
X7687163Y33673247D01*
X6767924Y32754008D01*
X6767924Y32754008D01*
G37*
D18*
X7492709Y32948462D03*
D19*
G36*
X7121478Y32400454D02*
X6944701Y32577231D01*
X7863940Y33496470D01*
X8040717Y33319693D01*
X7121478Y32400454D01*
X7121478Y32400454D01*
G37*
D18*
X7846262Y32594909D03*
D19*
G36*
X7475031Y32046901D02*
X7298254Y32223678D01*
X8217493Y33142917D01*
X8394270Y32966140D01*
X7475031Y32046901D01*
X7475031Y32046901D01*
G37*
D18*
X8199816Y32241355D03*
D19*
G36*
X7828585Y31693347D02*
X7651808Y31870124D01*
X8571047Y32789363D01*
X8747824Y32612586D01*
X7828585Y31693347D01*
X7828585Y31693347D01*
G37*
D18*
X8553369Y31887802D03*
D19*
G36*
X8182138Y31339794D02*
X8005361Y31516571D01*
X8924600Y32435810D01*
X9101377Y32259033D01*
X8182138Y31339794D01*
X8182138Y31339794D01*
G37*
D18*
X8906922Y31534249D03*
D19*
G36*
X8535691Y30986241D02*
X8358914Y31163018D01*
X9278153Y32082257D01*
X9454930Y31905480D01*
X8535691Y30986241D01*
X8535691Y30986241D01*
G37*
D18*
X9260476Y31180695D03*
D19*
G36*
X8889245Y30632687D02*
X8712468Y30809464D01*
X9631707Y31728703D01*
X9808484Y31551926D01*
X8889245Y30632687D01*
X8889245Y30632687D01*
G37*
D18*
X9614029Y30827142D03*
D19*
G36*
X9242798Y30279134D02*
X9066021Y30455911D01*
X9985260Y31375150D01*
X10162037Y31198373D01*
X9242798Y30279134D01*
X9242798Y30279134D01*
G37*
D18*
X11876771Y30827142D03*
D19*
G36*
X11328763Y31198373D02*
X11505540Y31375150D01*
X12424779Y30455911D01*
X12248002Y30279134D01*
X11328763Y31198373D01*
X11328763Y31198373D01*
G37*
D18*
X12230324Y31180695D03*
D19*
G36*
X11682316Y31551926D02*
X11859093Y31728703D01*
X12778332Y30809464D01*
X12601555Y30632687D01*
X11682316Y31551926D01*
X11682316Y31551926D01*
G37*
D18*
X12583878Y31534249D03*
D19*
G36*
X12035870Y31905480D02*
X12212647Y32082257D01*
X13131886Y31163018D01*
X12955109Y30986241D01*
X12035870Y31905480D01*
X12035870Y31905480D01*
G37*
D18*
X12937431Y31887802D03*
D19*
G36*
X12389423Y32259033D02*
X12566200Y32435810D01*
X13485439Y31516571D01*
X13308662Y31339794D01*
X12389423Y32259033D01*
X12389423Y32259033D01*
G37*
D18*
X13290984Y32241355D03*
D19*
G36*
X12742976Y32612586D02*
X12919753Y32789363D01*
X13838992Y31870124D01*
X13662215Y31693347D01*
X12742976Y32612586D01*
X12742976Y32612586D01*
G37*
D18*
X13644538Y32594909D03*
D19*
G36*
X13096530Y32966140D02*
X13273307Y33142917D01*
X14192546Y32223678D01*
X14015769Y32046901D01*
X13096530Y32966140D01*
X13096530Y32966140D01*
G37*
D18*
X13998091Y32948462D03*
D19*
G36*
X13450083Y33319693D02*
X13626860Y33496470D01*
X14546099Y32577231D01*
X14369322Y32400454D01*
X13450083Y33319693D01*
X13450083Y33319693D01*
G37*
D18*
X14351645Y33302016D03*
D19*
G36*
X13803637Y33673247D02*
X13980414Y33850024D01*
X14899653Y32930785D01*
X14722876Y32754008D01*
X13803637Y33673247D01*
X13803637Y33673247D01*
G37*
D18*
X14705198Y33655569D03*
D19*
G36*
X14157190Y34026800D02*
X14333967Y34203577D01*
X15253206Y33284338D01*
X15076429Y33107561D01*
X14157190Y34026800D01*
X14157190Y34026800D01*
G37*
D18*
X15058751Y34009122D03*
D19*
G36*
X14510743Y34380353D02*
X14687520Y34557130D01*
X15606759Y33637891D01*
X15429982Y33461114D01*
X14510743Y34380353D01*
X14510743Y34380353D01*
G37*
D18*
X15412305Y34362676D03*
D19*
G36*
X14864297Y34733907D02*
X15041074Y34910684D01*
X15960313Y33991445D01*
X15783536Y33814668D01*
X14864297Y34733907D01*
X14864297Y34733907D01*
G37*
D18*
X15765858Y34716229D03*
D19*
G36*
X15217850Y35087460D02*
X15394627Y35264237D01*
X16313866Y34344998D01*
X16137089Y34168221D01*
X15217850Y35087460D01*
X15217850Y35087460D01*
G37*
D18*
X15765858Y36978971D03*
D19*
G36*
X15394627Y36430963D02*
X15217850Y36607740D01*
X16137089Y37526979D01*
X16313866Y37350202D01*
X15394627Y36430963D01*
X15394627Y36430963D01*
G37*
D18*
X15412305Y37332524D03*
D19*
G36*
X15041074Y36784516D02*
X14864297Y36961293D01*
X15783536Y37880532D01*
X15960313Y37703755D01*
X15041074Y36784516D01*
X15041074Y36784516D01*
G37*
D18*
X15058751Y37686078D03*
D19*
G36*
X14687520Y37138070D02*
X14510743Y37314847D01*
X15429982Y38234086D01*
X15606759Y38057309D01*
X14687520Y37138070D01*
X14687520Y37138070D01*
G37*
D18*
X14705198Y38039631D03*
D19*
G36*
X14333967Y37491623D02*
X14157190Y37668400D01*
X15076429Y38587639D01*
X15253206Y38410862D01*
X14333967Y37491623D01*
X14333967Y37491623D01*
G37*
D18*
X14351645Y38393184D03*
D19*
G36*
X13980414Y37845176D02*
X13803637Y38021953D01*
X14722876Y38941192D01*
X14899653Y38764415D01*
X13980414Y37845176D01*
X13980414Y37845176D01*
G37*
D18*
X13998091Y38746738D03*
D19*
G36*
X13626860Y38198730D02*
X13450083Y38375507D01*
X14369322Y39294746D01*
X14546099Y39117969D01*
X13626860Y38198730D01*
X13626860Y38198730D01*
G37*
D18*
X13644538Y39100291D03*
D19*
G36*
X13273307Y38552283D02*
X13096530Y38729060D01*
X14015769Y39648299D01*
X14192546Y39471522D01*
X13273307Y38552283D01*
X13273307Y38552283D01*
G37*
D18*
X13290984Y39453845D03*
D19*
G36*
X12919753Y38905837D02*
X12742976Y39082614D01*
X13662215Y40001853D01*
X13838992Y39825076D01*
X12919753Y38905837D01*
X12919753Y38905837D01*
G37*
D18*
X12937431Y39807398D03*
D19*
G36*
X12566200Y39259390D02*
X12389423Y39436167D01*
X13308662Y40355406D01*
X13485439Y40178629D01*
X12566200Y39259390D01*
X12566200Y39259390D01*
G37*
D18*
X12583878Y40160951D03*
D19*
G36*
X12212647Y39612943D02*
X12035870Y39789720D01*
X12955109Y40708959D01*
X13131886Y40532182D01*
X12212647Y39612943D01*
X12212647Y39612943D01*
G37*
D18*
X12230324Y40514505D03*
D19*
G36*
X11859093Y39966497D02*
X11682316Y40143274D01*
X12601555Y41062513D01*
X12778332Y40885736D01*
X11859093Y39966497D01*
X11859093Y39966497D01*
G37*
D18*
X11876771Y40868058D03*
D19*
G36*
X11505540Y40320050D02*
X11328763Y40496827D01*
X12248002Y41416066D01*
X12424779Y41239289D01*
X11505540Y40320050D01*
X11505540Y40320050D01*
G37*
G04 #@! TD*
D20*
G04 #@! TO.C,Y1*
X9522002Y44934000D03*
X12022000Y44934000D03*
G04 #@! TD*
D21*
G04 #@! TO.C,Q1*
X19474400Y62924200D03*
X17574400Y62924200D03*
X18524400Y60624200D03*
G04 #@! TD*
D16*
G04 #@! TO.C,R1*
X14067600Y60580400D03*
X15767600Y60580400D03*
G04 #@! TD*
D22*
G04 #@! TO.C,U7*
X11754200Y60302000D03*
X11754200Y63602000D03*
X6854200Y63602000D03*
X6854200Y60302000D03*
G04 #@! TD*
D11*
G04 #@! TO.C,J1*
X-2882000Y21292000D03*
X-2882000Y20042000D03*
X-2882000Y18792000D03*
D12*
X468000Y23142000D03*
X468000Y16942000D03*
G04 #@! TD*
G04 #@! TO.C,J8*
X468000Y27102000D03*
X468000Y33302000D03*
D11*
X-2882000Y28952000D03*
X-2882000Y30202000D03*
X-2882000Y31452000D03*
G04 #@! TD*
D15*
G04 #@! TO.C,R4*
X26373000Y21781000D03*
X26373000Y20081000D03*
G04 #@! TD*
D23*
G04 #@! TO.C,U4*
X23071000Y10034000D03*
X24341000Y10034000D03*
X25611000Y10034000D03*
X26881000Y10034000D03*
X26881000Y3634000D03*
X25611000Y3634000D03*
X24341000Y3634000D03*
X23071000Y3634000D03*
G04 #@! TD*
D16*
G04 #@! TO.C,R5*
X18792000Y37695000D03*
X20492000Y37695000D03*
G04 #@! TD*
G04 #@! TO.C,R6*
X18792000Y36107500D03*
X20492000Y36107500D03*
G04 #@! TD*
D24*
G04 #@! TO.C,M1*
X27732800Y62769200D03*
G04 #@! TD*
G04 #@! TO.C,M3*
X-3070000Y-3530800D03*
G04 #@! TD*
G04 #@! TO.C,M4*
X27732800Y-3530800D03*
G04 #@! TD*
G04 #@! TO.C,M6*
X-3070000Y62769200D03*
G04 #@! TD*
D16*
G04 #@! TO.C,C10*
X20555500Y23661500D03*
X18855500Y23661500D03*
G04 #@! TD*
D15*
G04 #@! TO.C,C11*
X11514000Y25654500D03*
X11514000Y23954500D03*
G04 #@! TD*
D16*
G04 #@! TO.C,C15*
X21395500Y16676500D03*
X23095500Y16676500D03*
G04 #@! TD*
D15*
G04 #@! TO.C,C16*
X19959500Y3571000D03*
X19959500Y5271000D03*
G04 #@! TD*
D16*
G04 #@! TO.C,D1*
X15793000Y62206000D03*
X14093000Y62206000D03*
G04 #@! TD*
D25*
G04 #@! TO.C,D2*
X21408000Y28170000D03*
D26*
X19708000Y28170000D03*
X19708000Y26170000D03*
X21608000Y26170000D03*
G04 #@! TD*
D16*
G04 #@! TO.C,D3*
X24976000Y34393000D03*
X26676000Y34393000D03*
G04 #@! TD*
D27*
G04 #@! TO.C,J3*
X27964500Y24108000D03*
X27964500Y30708000D03*
G04 #@! TD*
D28*
G04 #@! TO.C,J4*
X24854000Y26108000D03*
D29*
X24604000Y24608000D03*
X24604000Y30208000D03*
D28*
X24854000Y27408000D03*
X24854000Y26758000D03*
X24854000Y28058000D03*
X24854000Y28708000D03*
D30*
X26754000Y27408000D03*
G04 #@! TD*
D11*
G04 #@! TO.C,J6*
X4153800Y1952600D03*
X4153800Y702600D03*
X4153800Y-547400D03*
X4153800Y-1797400D03*
D12*
X7503800Y3802600D03*
X7503800Y-3647400D03*
G04 #@! TD*
D31*
G04 #@! TO.C,J11*
X-1596600Y1628400D03*
X-1596600Y628400D03*
X-1596600Y-371600D03*
X-1596600Y-1371600D03*
D32*
X928400Y-2921600D03*
X928400Y3178400D03*
G04 #@! TD*
D12*
G04 #@! TO.C,J12*
X-65400Y6106200D03*
X-65400Y13556200D03*
D11*
X-3415400Y7956200D03*
X-3415400Y9206200D03*
X-3415400Y10456200D03*
X-3415400Y11706200D03*
G04 #@! TD*
G04 #@! TO.C,J13*
X4179200Y11706200D03*
X4179200Y10456200D03*
X4179200Y9206200D03*
X4179200Y7956200D03*
D12*
X7529200Y13556200D03*
X7529200Y6106200D03*
G04 #@! TD*
D33*
G04 #@! TO.C,M2*
X12149000Y-3135500D03*
G04 #@! TD*
G04 #@! TO.C,M5*
X-2075000Y38520500D03*
G04 #@! TD*
D15*
G04 #@! TO.C,R7*
X21102500Y14796000D03*
X21102500Y13096000D03*
G04 #@! TD*
D16*
G04 #@! TO.C,R16*
X11426000Y8866000D03*
X13126000Y8866000D03*
G04 #@! TD*
G04 #@! TO.C,R17*
X25015000Y32805500D03*
X26715000Y32805500D03*
G04 #@! TD*
D34*
G04 #@! TO.C,U2*
X16570000Y26110000D03*
D35*
X15070000Y25610000D03*
D34*
X13570000Y26110000D03*
D36*
X15070000Y23260000D03*
G04 #@! TD*
M02*
