G04 #@! TF.GenerationSoftware,KiCad,Pcbnew,(5.0.0)*
G04 #@! TF.CreationDate,2019-01-02T14:39:16-06:00*
G04 #@! TF.ProjectId,fk-sonar,666B2D736F6E61722E6B696361645F70,0.1*
G04 #@! TF.SameCoordinates,PX791ddc0PY791ddc0*
G04 #@! TF.FileFunction,Copper,L2,Inr,Plane*
G04 #@! TF.FilePolarity,Positive*
%FSLAX46Y46*%
G04 Gerber Fmt 4.6, Leading zero omitted, Abs format (unit mm)*
G04 Created by KiCad (PCBNEW (5.0.0)) date 01/02/19 14:39:16*
%MOMM*%
%LPD*%
G01*
G04 APERTURE LIST*
G04 #@! TA.AperFunction,ViaPad*
%ADD10O,1.600000X1.651000*%
G04 #@! TD*
G04 #@! TA.AperFunction,ViaPad*
%ADD11O,1.100000X1.800000*%
G04 #@! TD*
G04 #@! TA.AperFunction,ViaPad*
%ADD12O,1.100000X2.200000*%
G04 #@! TD*
G04 #@! TA.AperFunction,ViaPad*
%ADD13C,0.500000*%
G04 #@! TD*
G04 #@! TA.AperFunction,Conductor*
%ADD14C,0.203200*%
G04 #@! TD*
G04 APERTURE END LIST*
D10*
G04 #@! TO.N,*
G04 #@! TO.C,J3*
X28134500Y23878000D03*
X28134500Y30478000D03*
G04 #@! TD*
D11*
G04 #@! TO.N,Net-(C13-Pad1)*
G04 #@! TO.C,J4*
X24774000Y24378000D03*
G04 #@! TO.N,Net-(J4-Pad7)*
X24774000Y29978000D03*
D12*
G04 #@! TO.N,Net-(J4-Pad8)*
X26924000Y27178000D03*
G04 #@! TD*
D13*
G04 #@! TO.N,GND*
X9144000Y54483000D03*
X8128000Y54483000D03*
X7112000Y54483000D03*
X6096000Y54483000D03*
X2794000Y54483000D03*
X1778000Y54483000D03*
X762000Y54483000D03*
X-254000Y54483000D03*
X-1270000Y54483000D03*
X17780000Y62103000D03*
X10922000Y46736000D03*
X8128000Y63500000D03*
X-1524000Y21082000D03*
X-2540000Y32004000D03*
X14732000Y34798000D03*
X27178000Y1778000D03*
X19621500Y17145000D03*
X19621500Y14033500D03*
X20193000Y15557500D03*
X17653000Y3380000D03*
X16065500Y3380000D03*
X19304000Y3365500D03*
X21653500Y8572500D03*
X25336500Y36385500D03*
X27876500Y32575500D03*
X20193000Y33274000D03*
X2794000Y43179100D03*
X4508500Y43179100D03*
X4254500Y32321500D03*
X8318500Y33591500D03*
X5397500Y571500D03*
X-444500Y1397000D03*
X-2222500Y10223500D03*
X5461000Y10287000D03*
X12509500Y23685500D03*
X9080500Y38544500D03*
X13411776Y37658715D03*
X17653000Y42963200D03*
X14351000Y3341000D03*
X20955000Y3341000D03*
X21526500Y28511500D03*
X23685500Y25082500D03*
X17462500Y25908000D03*
X16764000Y26860500D03*
X20701000Y24320500D03*
X23812500Y46736000D03*
X23812500Y47942500D03*
X22225000Y51181000D03*
X24193500Y16446500D03*
X27368500Y19851000D03*
X13335000Y17716500D03*
X26606500Y45783500D03*
X26606500Y42418000D03*
G04 #@! TO.N,3V3*
X-1270000Y55753000D03*
X-254000Y55753000D03*
X762000Y55753000D03*
X1778000Y55753000D03*
X2794000Y55753000D03*
X6096000Y55753000D03*
X7112000Y55753000D03*
X8128000Y55753000D03*
X9144000Y55753000D03*
X16637000Y61976000D03*
X11938000Y59182000D03*
X-1524000Y18542000D03*
X18338800Y17314400D03*
X18288000Y13906500D03*
X22288500Y14541500D03*
X13208000Y14668500D03*
X25336500Y37909500D03*
X28003500Y34163000D03*
X13779500Y27178000D03*
X13716000Y24638000D03*
X12573000Y25424500D03*
X12001500Y13843000D03*
X28511500Y13779500D03*
X571500Y46736000D03*
X6667500Y47561500D03*
X190500Y43942000D03*
X6683200Y32135700D03*
X15049500Y40830500D03*
X18923000Y35052000D03*
X23812500Y45466000D03*
X17653000Y34036000D03*
X20447000Y16446500D03*
X21336000Y15621000D03*
G04 #@! TO.N,/RST*
X20383500Y50279300D03*
X28613100Y47980600D03*
G04 #@! TO.N,/RESET*
X16256000Y38929490D03*
X25273000Y39624000D03*
G04 #@! TO.N,/A1*
X6286500Y39052500D03*
X-3746500Y19812000D03*
G04 #@! TO.N,/A3*
X7747000Y37020500D03*
X8191500Y59944000D03*
G04 #@! TO.N,/MOSI*
X26924000Y11684000D03*
X8889986Y33020000D03*
G04 #@! TO.N,/SCK*
X25654000Y11684000D03*
X8225621Y29972000D03*
G04 #@! TO.N,/MISO*
X24384000Y5334000D03*
X7874000Y30988000D03*
G04 #@! TO.N,/USB-*
X23304500Y26733500D03*
G04 #@! TO.N,/USB+*
X24034921Y27202441D03*
G04 #@! TO.N,VUSB*
X26860500Y29019500D03*
G04 #@! TO.N,/D13*
X19621500Y61912500D03*
X11747500Y31686500D03*
G04 #@! TO.N,/SCL1*
X2489200Y8976200D03*
X2311402Y-1143000D03*
G04 #@! TO.N,/SDA1*
X2895600Y-2057400D03*
X-2743200Y-609600D03*
X5334000Y16510000D03*
G04 #@! TO.N,/SDA3*
X4889500Y33464500D03*
X3111500Y45783500D03*
G04 #@! TO.N,/SCL3*
X4953000Y45783500D03*
X5507574Y33255633D03*
G04 #@! TO.N,/D6_FLASH_CS*
X23368000Y5334000D03*
X14820657Y31339844D03*
G04 #@! TO.N,/PERIPH_3V3*
X19862800Y8026400D03*
X18338800Y8026400D03*
X18338800Y6502400D03*
X19862800Y6502400D03*
X19100800Y7264400D03*
X24384000Y11684000D03*
X23114000Y11684000D03*
X28511500Y10604500D03*
X25844500Y1460500D03*
G04 #@! TO.N,/D8_PERIPH_EN*
X17081500Y17018000D03*
X6921500Y36322000D03*
G04 #@! TO.N,/SENSOR_3V3*
X15290800Y8026400D03*
X16814800Y8026400D03*
X16814800Y6502400D03*
X15290800Y6502400D03*
X16052800Y7264400D03*
X11938000Y10414000D03*
X5397500Y1714500D03*
X-444500Y508000D03*
X-2222500Y11493500D03*
X5397500Y11430000D03*
G04 #@! TO.N,Net-(J3-Pad4)*
X20701000Y34925000D03*
X22669500Y27813000D03*
G04 #@! TO.N,/D7_SENSOR_EN*
X13017500Y33083500D03*
X15875000Y19113496D03*
G04 #@! TD*
D14*
G04 #@! TO.N,GND*
G36*
X28904493Y64336116D02*
X29103287Y64203286D01*
X29236116Y64004493D01*
X29297498Y63695905D01*
X29354208Y63558995D01*
X29385447Y63527756D01*
X29323111Y63434464D01*
X29305671Y63476569D01*
X28840169Y63942071D01*
X28231960Y64194000D01*
X27573640Y64194000D01*
X26965431Y63942071D01*
X26499929Y63476569D01*
X26248000Y62868360D01*
X26248000Y62210040D01*
X26499929Y61601831D01*
X26965431Y61136329D01*
X27573640Y60884400D01*
X28231960Y60884400D01*
X28840169Y61136329D01*
X29290200Y61586360D01*
X29290201Y-2807961D01*
X28840169Y-2357929D01*
X28231960Y-2106000D01*
X27573640Y-2106000D01*
X26965431Y-2357929D01*
X26499929Y-2823431D01*
X26248000Y-3431640D01*
X26248000Y-4089960D01*
X26499929Y-4698169D01*
X26965431Y-5163671D01*
X27415751Y-5350200D01*
X-2412951Y-5350200D01*
X-1962631Y-5163671D01*
X-1497129Y-4698169D01*
X-1245200Y-4089960D01*
X-1245200Y-3431640D01*
X-1497129Y-2823431D01*
X-1962631Y-2357929D01*
X-2570840Y-2106000D01*
X-3229160Y-2106000D01*
X-3837369Y-2357929D01*
X-4302871Y-2823431D01*
X-4450200Y-3179114D01*
X-4450200Y-499243D01*
X-3298000Y-499243D01*
X-3298000Y-719957D01*
X-3213537Y-923869D01*
X-3057469Y-1079937D01*
X-2853557Y-1164400D01*
X-2632843Y-1164400D01*
X-2428931Y-1079937D01*
X-2381637Y-1032643D01*
X1756602Y-1032643D01*
X1756602Y-1253357D01*
X1841065Y-1457269D01*
X1997133Y-1613337D01*
X2201045Y-1697800D01*
X2421759Y-1697800D01*
X2505125Y-1663269D01*
X2425263Y-1743131D01*
X2340800Y-1947043D01*
X2340800Y-2167757D01*
X2425263Y-2371669D01*
X2581331Y-2527737D01*
X2785243Y-2612200D01*
X3005957Y-2612200D01*
X3209869Y-2527737D01*
X3365937Y-2371669D01*
X3450400Y-2167757D01*
X3450400Y-1947043D01*
X3365937Y-1743131D01*
X3209869Y-1587063D01*
X3005957Y-1502600D01*
X2785243Y-1502600D01*
X2701877Y-1537131D01*
X2781739Y-1457269D01*
X2866202Y-1253357D01*
X2866202Y-1032643D01*
X2781739Y-828731D01*
X2625671Y-672663D01*
X2421759Y-588200D01*
X2201045Y-588200D01*
X1997133Y-672663D01*
X1841065Y-828731D01*
X1756602Y-1032643D01*
X-2381637Y-1032643D01*
X-2272863Y-923869D01*
X-2188400Y-719957D01*
X-2188400Y-499243D01*
X-2272863Y-295331D01*
X-2428931Y-139263D01*
X-2632843Y-54800D01*
X-2853557Y-54800D01*
X-3057469Y-139263D01*
X-3213537Y-295331D01*
X-3298000Y-499243D01*
X-4450200Y-499243D01*
X-4450200Y618357D01*
X-999300Y618357D01*
X-999300Y397643D01*
X-914837Y193731D01*
X-758769Y37663D01*
X-554857Y-46800D01*
X-334143Y-46800D01*
X-130231Y37663D01*
X25837Y193731D01*
X110300Y397643D01*
X110300Y618357D01*
X25837Y822269D01*
X-130231Y978337D01*
X-334143Y1062800D01*
X-554857Y1062800D01*
X-758769Y978337D01*
X-914837Y822269D01*
X-999300Y618357D01*
X-4450200Y618357D01*
X-4450200Y1824857D01*
X4842700Y1824857D01*
X4842700Y1604143D01*
X4927163Y1400231D01*
X5083231Y1244163D01*
X5287143Y1159700D01*
X5507857Y1159700D01*
X5711769Y1244163D01*
X5867837Y1400231D01*
X5938512Y1570857D01*
X25289700Y1570857D01*
X25289700Y1350143D01*
X25374163Y1146231D01*
X25530231Y990163D01*
X25734143Y905700D01*
X25954857Y905700D01*
X26158769Y990163D01*
X26314837Y1146231D01*
X26399300Y1350143D01*
X26399300Y1570857D01*
X26314837Y1774769D01*
X26158769Y1930837D01*
X25954857Y2015300D01*
X25734143Y2015300D01*
X25530231Y1930837D01*
X25374163Y1774769D01*
X25289700Y1570857D01*
X5938512Y1570857D01*
X5952300Y1604143D01*
X5952300Y1824857D01*
X5867837Y2028769D01*
X5711769Y2184837D01*
X5507857Y2269300D01*
X5287143Y2269300D01*
X5083231Y2184837D01*
X4927163Y2028769D01*
X4842700Y1824857D01*
X-4450200Y1824857D01*
X-4450200Y5444357D01*
X22813200Y5444357D01*
X22813200Y5223643D01*
X22897663Y5019731D01*
X23053731Y4863663D01*
X23257643Y4779200D01*
X23478357Y4779200D01*
X23682269Y4863663D01*
X23838337Y5019731D01*
X23876000Y5110658D01*
X23913663Y5019731D01*
X24069731Y4863663D01*
X24273643Y4779200D01*
X24494357Y4779200D01*
X24698269Y4863663D01*
X24854337Y5019731D01*
X24938800Y5223643D01*
X24938800Y5444357D01*
X24854337Y5648269D01*
X24698269Y5804337D01*
X24494357Y5888800D01*
X24273643Y5888800D01*
X24069731Y5804337D01*
X23913663Y5648269D01*
X23876000Y5557342D01*
X23838337Y5648269D01*
X23682269Y5804337D01*
X23478357Y5888800D01*
X23257643Y5888800D01*
X23053731Y5804337D01*
X22897663Y5648269D01*
X22813200Y5444357D01*
X-4450200Y5444357D01*
X-4450200Y8136757D01*
X14736000Y8136757D01*
X14736000Y7916043D01*
X14820463Y7712131D01*
X14976531Y7556063D01*
X15180443Y7471600D01*
X15401157Y7471600D01*
X15566478Y7540078D01*
X15498000Y7374757D01*
X15498000Y7154043D01*
X15566478Y6988722D01*
X15401157Y7057200D01*
X15180443Y7057200D01*
X14976531Y6972737D01*
X14820463Y6816669D01*
X14736000Y6612757D01*
X14736000Y6392043D01*
X14820463Y6188131D01*
X14976531Y6032063D01*
X15180443Y5947600D01*
X15401157Y5947600D01*
X15605069Y6032063D01*
X15761137Y6188131D01*
X15845600Y6392043D01*
X15845600Y6612757D01*
X15777122Y6778078D01*
X15942443Y6709600D01*
X16163157Y6709600D01*
X16328478Y6778078D01*
X16260000Y6612757D01*
X16260000Y6392043D01*
X16344463Y6188131D01*
X16500531Y6032063D01*
X16704443Y5947600D01*
X16925157Y5947600D01*
X17129069Y6032063D01*
X17285137Y6188131D01*
X17369600Y6392043D01*
X17369600Y6612757D01*
X17285137Y6816669D01*
X17129069Y6972737D01*
X16925157Y7057200D01*
X16704443Y7057200D01*
X16539122Y6988722D01*
X16607600Y7154043D01*
X16607600Y7374757D01*
X16539122Y7540078D01*
X16704443Y7471600D01*
X16925157Y7471600D01*
X17129069Y7556063D01*
X17285137Y7712131D01*
X17369600Y7916043D01*
X17369600Y8136757D01*
X17784000Y8136757D01*
X17784000Y7916043D01*
X17868463Y7712131D01*
X18024531Y7556063D01*
X18228443Y7471600D01*
X18449157Y7471600D01*
X18614478Y7540078D01*
X18546000Y7374757D01*
X18546000Y7154043D01*
X18614478Y6988722D01*
X18449157Y7057200D01*
X18228443Y7057200D01*
X18024531Y6972737D01*
X17868463Y6816669D01*
X17784000Y6612757D01*
X17784000Y6392043D01*
X17868463Y6188131D01*
X18024531Y6032063D01*
X18228443Y5947600D01*
X18449157Y5947600D01*
X18653069Y6032063D01*
X18809137Y6188131D01*
X18893600Y6392043D01*
X18893600Y6612757D01*
X18825122Y6778078D01*
X18990443Y6709600D01*
X19211157Y6709600D01*
X19376478Y6778078D01*
X19308000Y6612757D01*
X19308000Y6392043D01*
X19392463Y6188131D01*
X19548531Y6032063D01*
X19752443Y5947600D01*
X19973157Y5947600D01*
X20177069Y6032063D01*
X20333137Y6188131D01*
X20417600Y6392043D01*
X20417600Y6612757D01*
X20333137Y6816669D01*
X20177069Y6972737D01*
X19973157Y7057200D01*
X19752443Y7057200D01*
X19587122Y6988722D01*
X19655600Y7154043D01*
X19655600Y7374757D01*
X19587122Y7540078D01*
X19752443Y7471600D01*
X19973157Y7471600D01*
X20177069Y7556063D01*
X20333137Y7712131D01*
X20417600Y7916043D01*
X20417600Y8136757D01*
X20333137Y8340669D01*
X20177069Y8496737D01*
X19973157Y8581200D01*
X19752443Y8581200D01*
X19548531Y8496737D01*
X19392463Y8340669D01*
X19308000Y8136757D01*
X19308000Y7916043D01*
X19376478Y7750722D01*
X19211157Y7819200D01*
X18990443Y7819200D01*
X18825122Y7750722D01*
X18893600Y7916043D01*
X18893600Y8136757D01*
X18809137Y8340669D01*
X18653069Y8496737D01*
X18449157Y8581200D01*
X18228443Y8581200D01*
X18024531Y8496737D01*
X17868463Y8340669D01*
X17784000Y8136757D01*
X17369600Y8136757D01*
X17285137Y8340669D01*
X17129069Y8496737D01*
X16925157Y8581200D01*
X16704443Y8581200D01*
X16500531Y8496737D01*
X16344463Y8340669D01*
X16260000Y8136757D01*
X16260000Y7916043D01*
X16328478Y7750722D01*
X16163157Y7819200D01*
X15942443Y7819200D01*
X15777122Y7750722D01*
X15845600Y7916043D01*
X15845600Y8136757D01*
X15761137Y8340669D01*
X15605069Y8496737D01*
X15401157Y8581200D01*
X15180443Y8581200D01*
X14976531Y8496737D01*
X14820463Y8340669D01*
X14736000Y8136757D01*
X-4450200Y8136757D01*
X-4450200Y9086557D01*
X1934400Y9086557D01*
X1934400Y8865843D01*
X2018863Y8661931D01*
X2174931Y8505863D01*
X2378843Y8421400D01*
X2599557Y8421400D01*
X2803469Y8505863D01*
X2959537Y8661931D01*
X3044000Y8865843D01*
X3044000Y9086557D01*
X2959537Y9290469D01*
X2803469Y9446537D01*
X2599557Y9531000D01*
X2378843Y9531000D01*
X2174931Y9446537D01*
X2018863Y9290469D01*
X1934400Y9086557D01*
X-4450200Y9086557D01*
X-4450200Y10524357D01*
X11383200Y10524357D01*
X11383200Y10303643D01*
X11467663Y10099731D01*
X11623731Y9943663D01*
X11827643Y9859200D01*
X12048357Y9859200D01*
X12252269Y9943663D01*
X12408337Y10099731D01*
X12492800Y10303643D01*
X12492800Y10524357D01*
X12413893Y10714857D01*
X27956700Y10714857D01*
X27956700Y10494143D01*
X28041163Y10290231D01*
X28197231Y10134163D01*
X28401143Y10049700D01*
X28621857Y10049700D01*
X28825769Y10134163D01*
X28981837Y10290231D01*
X29066300Y10494143D01*
X29066300Y10714857D01*
X28981837Y10918769D01*
X28825769Y11074837D01*
X28621857Y11159300D01*
X28401143Y11159300D01*
X28197231Y11074837D01*
X28041163Y10918769D01*
X27956700Y10714857D01*
X12413893Y10714857D01*
X12408337Y10728269D01*
X12252269Y10884337D01*
X12048357Y10968800D01*
X11827643Y10968800D01*
X11623731Y10884337D01*
X11467663Y10728269D01*
X11383200Y10524357D01*
X-4450200Y10524357D01*
X-4450200Y11603857D01*
X-2777300Y11603857D01*
X-2777300Y11383143D01*
X-2692837Y11179231D01*
X-2536769Y11023163D01*
X-2332857Y10938700D01*
X-2112143Y10938700D01*
X-1908231Y11023163D01*
X-1752163Y11179231D01*
X-1667700Y11383143D01*
X-1667700Y11540357D01*
X4842700Y11540357D01*
X4842700Y11319643D01*
X4927163Y11115731D01*
X5083231Y10959663D01*
X5287143Y10875200D01*
X5507857Y10875200D01*
X5711769Y10959663D01*
X5867837Y11115731D01*
X5952300Y11319643D01*
X5952300Y11540357D01*
X5867837Y11744269D01*
X5817749Y11794357D01*
X22559200Y11794357D01*
X22559200Y11573643D01*
X22643663Y11369731D01*
X22799731Y11213663D01*
X23003643Y11129200D01*
X23224357Y11129200D01*
X23428269Y11213663D01*
X23584337Y11369731D01*
X23668800Y11573643D01*
X23668800Y11794357D01*
X23829200Y11794357D01*
X23829200Y11573643D01*
X23913663Y11369731D01*
X24069731Y11213663D01*
X24273643Y11129200D01*
X24494357Y11129200D01*
X24698269Y11213663D01*
X24854337Y11369731D01*
X24938800Y11573643D01*
X24938800Y11794357D01*
X25099200Y11794357D01*
X25099200Y11573643D01*
X25183663Y11369731D01*
X25339731Y11213663D01*
X25543643Y11129200D01*
X25764357Y11129200D01*
X25968269Y11213663D01*
X26124337Y11369731D01*
X26208800Y11573643D01*
X26208800Y11794357D01*
X26369200Y11794357D01*
X26369200Y11573643D01*
X26453663Y11369731D01*
X26609731Y11213663D01*
X26813643Y11129200D01*
X27034357Y11129200D01*
X27238269Y11213663D01*
X27394337Y11369731D01*
X27478800Y11573643D01*
X27478800Y11794357D01*
X27394337Y11998269D01*
X27238269Y12154337D01*
X27034357Y12238800D01*
X26813643Y12238800D01*
X26609731Y12154337D01*
X26453663Y11998269D01*
X26369200Y11794357D01*
X26208800Y11794357D01*
X26124337Y11998269D01*
X25968269Y12154337D01*
X25764357Y12238800D01*
X25543643Y12238800D01*
X25339731Y12154337D01*
X25183663Y11998269D01*
X25099200Y11794357D01*
X24938800Y11794357D01*
X24854337Y11998269D01*
X24698269Y12154337D01*
X24494357Y12238800D01*
X24273643Y12238800D01*
X24069731Y12154337D01*
X23913663Y11998269D01*
X23829200Y11794357D01*
X23668800Y11794357D01*
X23584337Y11998269D01*
X23428269Y12154337D01*
X23224357Y12238800D01*
X23003643Y12238800D01*
X22799731Y12154337D01*
X22643663Y11998269D01*
X22559200Y11794357D01*
X5817749Y11794357D01*
X5711769Y11900337D01*
X5507857Y11984800D01*
X5287143Y11984800D01*
X5083231Y11900337D01*
X4927163Y11744269D01*
X4842700Y11540357D01*
X-1667700Y11540357D01*
X-1667700Y11603857D01*
X-1752163Y11807769D01*
X-1908231Y11963837D01*
X-2112143Y12048300D01*
X-2332857Y12048300D01*
X-2536769Y11963837D01*
X-2692837Y11807769D01*
X-2777300Y11603857D01*
X-4450200Y11603857D01*
X-4450200Y13953357D01*
X11446700Y13953357D01*
X11446700Y13732643D01*
X11531163Y13528731D01*
X11687231Y13372663D01*
X11891143Y13288200D01*
X12111857Y13288200D01*
X12315769Y13372663D01*
X12471837Y13528731D01*
X12556300Y13732643D01*
X12556300Y13953357D01*
X12529998Y14016857D01*
X17733200Y14016857D01*
X17733200Y13796143D01*
X17817663Y13592231D01*
X17973731Y13436163D01*
X18177643Y13351700D01*
X18398357Y13351700D01*
X18602269Y13436163D01*
X18758337Y13592231D01*
X18842800Y13796143D01*
X18842800Y13889857D01*
X27956700Y13889857D01*
X27956700Y13669143D01*
X28041163Y13465231D01*
X28197231Y13309163D01*
X28401143Y13224700D01*
X28621857Y13224700D01*
X28825769Y13309163D01*
X28981837Y13465231D01*
X29066300Y13669143D01*
X29066300Y13889857D01*
X28981837Y14093769D01*
X28825769Y14249837D01*
X28621857Y14334300D01*
X28401143Y14334300D01*
X28197231Y14249837D01*
X28041163Y14093769D01*
X27956700Y13889857D01*
X18842800Y13889857D01*
X18842800Y14016857D01*
X18758337Y14220769D01*
X18602269Y14376837D01*
X18398357Y14461300D01*
X18177643Y14461300D01*
X17973731Y14376837D01*
X17817663Y14220769D01*
X17733200Y14016857D01*
X12529998Y14016857D01*
X12471837Y14157269D01*
X12315769Y14313337D01*
X12111857Y14397800D01*
X11891143Y14397800D01*
X11687231Y14313337D01*
X11531163Y14157269D01*
X11446700Y13953357D01*
X-4450200Y13953357D01*
X-4450200Y14778857D01*
X12653200Y14778857D01*
X12653200Y14558143D01*
X12737663Y14354231D01*
X12893731Y14198163D01*
X13097643Y14113700D01*
X13318357Y14113700D01*
X13522269Y14198163D01*
X13678337Y14354231D01*
X13762800Y14558143D01*
X13762800Y14651857D01*
X21733700Y14651857D01*
X21733700Y14431143D01*
X21818163Y14227231D01*
X21974231Y14071163D01*
X22178143Y13986700D01*
X22398857Y13986700D01*
X22602769Y14071163D01*
X22758837Y14227231D01*
X22843300Y14431143D01*
X22843300Y14651857D01*
X22758837Y14855769D01*
X22602769Y15011837D01*
X22398857Y15096300D01*
X22178143Y15096300D01*
X21974231Y15011837D01*
X21818163Y14855769D01*
X21733700Y14651857D01*
X13762800Y14651857D01*
X13762800Y14778857D01*
X13678337Y14982769D01*
X13522269Y15138837D01*
X13318357Y15223300D01*
X13097643Y15223300D01*
X12893731Y15138837D01*
X12737663Y14982769D01*
X12653200Y14778857D01*
X-4450200Y14778857D01*
X-4450200Y15731357D01*
X20781200Y15731357D01*
X20781200Y15510643D01*
X20865663Y15306731D01*
X21021731Y15150663D01*
X21225643Y15066200D01*
X21446357Y15066200D01*
X21650269Y15150663D01*
X21806337Y15306731D01*
X21890800Y15510643D01*
X21890800Y15731357D01*
X21806337Y15935269D01*
X21650269Y16091337D01*
X21446357Y16175800D01*
X21225643Y16175800D01*
X21021731Y16091337D01*
X20865663Y15935269D01*
X20781200Y15731357D01*
X-4450200Y15731357D01*
X-4450200Y16620357D01*
X4779200Y16620357D01*
X4779200Y16399643D01*
X4863663Y16195731D01*
X5019731Y16039663D01*
X5223643Y15955200D01*
X5444357Y15955200D01*
X5648269Y16039663D01*
X5804337Y16195731D01*
X5888800Y16399643D01*
X5888800Y16620357D01*
X5804337Y16824269D01*
X5648269Y16980337D01*
X5444357Y17064800D01*
X5223643Y17064800D01*
X5019731Y16980337D01*
X4863663Y16824269D01*
X4779200Y16620357D01*
X-4450200Y16620357D01*
X-4450200Y17128357D01*
X16526700Y17128357D01*
X16526700Y16907643D01*
X16611163Y16703731D01*
X16767231Y16547663D01*
X16971143Y16463200D01*
X17191857Y16463200D01*
X17395769Y16547663D01*
X17404963Y16556857D01*
X19892200Y16556857D01*
X19892200Y16336143D01*
X19976663Y16132231D01*
X20132731Y15976163D01*
X20336643Y15891700D01*
X20557357Y15891700D01*
X20761269Y15976163D01*
X20917337Y16132231D01*
X21001800Y16336143D01*
X21001800Y16556857D01*
X20917337Y16760769D01*
X20761269Y16916837D01*
X20557357Y17001300D01*
X20336643Y17001300D01*
X20132731Y16916837D01*
X19976663Y16760769D01*
X19892200Y16556857D01*
X17404963Y16556857D01*
X17551837Y16703731D01*
X17636300Y16907643D01*
X17636300Y17128357D01*
X17551837Y17332269D01*
X17459349Y17424757D01*
X17784000Y17424757D01*
X17784000Y17204043D01*
X17868463Y17000131D01*
X18024531Y16844063D01*
X18228443Y16759600D01*
X18449157Y16759600D01*
X18653069Y16844063D01*
X18809137Y17000131D01*
X18893600Y17204043D01*
X18893600Y17424757D01*
X18809137Y17628669D01*
X18653069Y17784737D01*
X18449157Y17869200D01*
X18228443Y17869200D01*
X18024531Y17784737D01*
X17868463Y17628669D01*
X17784000Y17424757D01*
X17459349Y17424757D01*
X17395769Y17488337D01*
X17191857Y17572800D01*
X16971143Y17572800D01*
X16767231Y17488337D01*
X16611163Y17332269D01*
X16526700Y17128357D01*
X-4450200Y17128357D01*
X-4450200Y18652357D01*
X-2078800Y18652357D01*
X-2078800Y18431643D01*
X-1994337Y18227731D01*
X-1838269Y18071663D01*
X-1634357Y17987200D01*
X-1413643Y17987200D01*
X-1209731Y18071663D01*
X-1053663Y18227731D01*
X-969200Y18431643D01*
X-969200Y18652357D01*
X-1053663Y18856269D01*
X-1209731Y19012337D01*
X-1413643Y19096800D01*
X-1634357Y19096800D01*
X-1838269Y19012337D01*
X-1994337Y18856269D01*
X-2078800Y18652357D01*
X-4450200Y18652357D01*
X-4450200Y19223853D01*
X15320200Y19223853D01*
X15320200Y19003139D01*
X15404663Y18799227D01*
X15560731Y18643159D01*
X15764643Y18558696D01*
X15985357Y18558696D01*
X16189269Y18643159D01*
X16345337Y18799227D01*
X16429800Y19003139D01*
X16429800Y19223853D01*
X16345337Y19427765D01*
X16189269Y19583833D01*
X15985357Y19668296D01*
X15764643Y19668296D01*
X15560731Y19583833D01*
X15404663Y19427765D01*
X15320200Y19223853D01*
X-4450200Y19223853D01*
X-4450200Y19922357D01*
X-4301300Y19922357D01*
X-4301300Y19701643D01*
X-4216837Y19497731D01*
X-4060769Y19341663D01*
X-3856857Y19257200D01*
X-3636143Y19257200D01*
X-3432231Y19341663D01*
X-3276163Y19497731D01*
X-3191700Y19701643D01*
X-3191700Y19922357D01*
X-3276163Y20126269D01*
X-3432231Y20282337D01*
X-3636143Y20366800D01*
X-3856857Y20366800D01*
X-4060769Y20282337D01*
X-4216837Y20126269D01*
X-4301300Y19922357D01*
X-4450200Y19922357D01*
X-4450200Y24748357D01*
X13161200Y24748357D01*
X13161200Y24527643D01*
X13245663Y24323731D01*
X13401731Y24167663D01*
X13605643Y24083200D01*
X13826357Y24083200D01*
X14030269Y24167663D01*
X14186337Y24323731D01*
X14270800Y24527643D01*
X14270800Y24748357D01*
X14244361Y24812187D01*
X23919200Y24812187D01*
X23919200Y23943812D01*
X23968797Y23694474D01*
X24157725Y23411724D01*
X24440475Y23222796D01*
X24774000Y23156454D01*
X25107526Y23222796D01*
X25390276Y23411724D01*
X25579204Y23694474D01*
X25628800Y23943812D01*
X25628800Y24012312D01*
X27029700Y24012312D01*
X27029700Y23743689D01*
X27093801Y23421430D01*
X27337984Y23055984D01*
X27703429Y22811801D01*
X28134500Y22726056D01*
X28565570Y22811801D01*
X28931016Y23055984D01*
X29175199Y23421429D01*
X29239300Y23743688D01*
X29239300Y24012311D01*
X29175199Y24334570D01*
X28931016Y24700016D01*
X28565571Y24944199D01*
X28134500Y25029944D01*
X27703430Y24944199D01*
X27337984Y24700016D01*
X27093801Y24334571D01*
X27029700Y24012312D01*
X25628800Y24012312D01*
X25628800Y24812188D01*
X25579204Y25061526D01*
X25390276Y25344276D01*
X25107525Y25533204D01*
X24774000Y25599546D01*
X24440474Y25533204D01*
X24157724Y25344276D01*
X23968796Y25061525D01*
X23919200Y24812187D01*
X14244361Y24812187D01*
X14186337Y24952269D01*
X14030269Y25108337D01*
X13826357Y25192800D01*
X13605643Y25192800D01*
X13401731Y25108337D01*
X13245663Y24952269D01*
X13161200Y24748357D01*
X-4450200Y24748357D01*
X-4450200Y25534857D01*
X12018200Y25534857D01*
X12018200Y25314143D01*
X12102663Y25110231D01*
X12258731Y24954163D01*
X12462643Y24869700D01*
X12683357Y24869700D01*
X12887269Y24954163D01*
X13043337Y25110231D01*
X13127800Y25314143D01*
X13127800Y25534857D01*
X13043337Y25738769D01*
X12887269Y25894837D01*
X12683357Y25979300D01*
X12462643Y25979300D01*
X12258731Y25894837D01*
X12102663Y25738769D01*
X12018200Y25534857D01*
X-4450200Y25534857D01*
X-4450200Y27288357D01*
X13224700Y27288357D01*
X13224700Y27067643D01*
X13309163Y26863731D01*
X13465231Y26707663D01*
X13669143Y26623200D01*
X13889857Y26623200D01*
X14093769Y26707663D01*
X14229963Y26843857D01*
X22749700Y26843857D01*
X22749700Y26623143D01*
X22834163Y26419231D01*
X22990231Y26263163D01*
X23194143Y26178700D01*
X23414857Y26178700D01*
X23618769Y26263163D01*
X23774837Y26419231D01*
X23859300Y26623143D01*
X23859300Y26674674D01*
X23924564Y26647641D01*
X24145278Y26647641D01*
X24349190Y26732104D01*
X24505258Y26888172D01*
X24589721Y27092084D01*
X24589721Y27312798D01*
X24505258Y27516710D01*
X24349190Y27672778D01*
X24145278Y27757241D01*
X23924564Y27757241D01*
X23720652Y27672778D01*
X23564584Y27516710D01*
X23480121Y27312798D01*
X23480121Y27261267D01*
X23414857Y27288300D01*
X23194143Y27288300D01*
X22990231Y27203837D01*
X22834163Y27047769D01*
X22749700Y26843857D01*
X14229963Y26843857D01*
X14249837Y26863731D01*
X14334300Y27067643D01*
X14334300Y27288357D01*
X14249837Y27492269D01*
X14093769Y27648337D01*
X13889857Y27732800D01*
X13669143Y27732800D01*
X13465231Y27648337D01*
X13309163Y27492269D01*
X13224700Y27288357D01*
X-4450200Y27288357D01*
X-4450200Y27923357D01*
X22114700Y27923357D01*
X22114700Y27702643D01*
X22199163Y27498731D01*
X22355231Y27342663D01*
X22559143Y27258200D01*
X22779857Y27258200D01*
X22983769Y27342663D01*
X23139837Y27498731D01*
X23224300Y27702643D01*
X23224300Y27812187D01*
X26069200Y27812187D01*
X26069201Y26543812D01*
X26118797Y26294474D01*
X26307725Y26011724D01*
X26590475Y25822796D01*
X26924000Y25756454D01*
X27257526Y25822796D01*
X27540276Y26011724D01*
X27729204Y26294474D01*
X27778800Y26543812D01*
X27778800Y27812188D01*
X27729204Y28061526D01*
X27540276Y28344276D01*
X27257525Y28533204D01*
X27175188Y28549582D01*
X27330837Y28705231D01*
X27415300Y28909143D01*
X27415300Y29129857D01*
X27330837Y29333769D01*
X27174769Y29489837D01*
X26970857Y29574300D01*
X26750143Y29574300D01*
X26546231Y29489837D01*
X26390163Y29333769D01*
X26305700Y29129857D01*
X26305700Y28909143D01*
X26390163Y28705231D01*
X26546231Y28549163D01*
X26588287Y28531743D01*
X26307724Y28344276D01*
X26118796Y28061525D01*
X26069200Y27812187D01*
X23224300Y27812187D01*
X23224300Y27923357D01*
X23139837Y28127269D01*
X22983769Y28283337D01*
X22779857Y28367800D01*
X22559143Y28367800D01*
X22355231Y28283337D01*
X22199163Y28127269D01*
X22114700Y27923357D01*
X-4450200Y27923357D01*
X-4450200Y31098357D01*
X7319200Y31098357D01*
X7319200Y30877643D01*
X7403663Y30673731D01*
X7559731Y30517663D01*
X7763643Y30433200D01*
X7902215Y30433200D01*
X7755284Y30286269D01*
X7670821Y30082357D01*
X7670821Y29861643D01*
X7755284Y29657731D01*
X7911352Y29501663D01*
X8115264Y29417200D01*
X8335978Y29417200D01*
X8539890Y29501663D01*
X8695958Y29657731D01*
X8780421Y29861643D01*
X8780421Y30082357D01*
X8695958Y30286269D01*
X8570040Y30412187D01*
X23919200Y30412187D01*
X23919200Y29543812D01*
X23968797Y29294474D01*
X24157725Y29011724D01*
X24440475Y28822796D01*
X24774000Y28756454D01*
X25107526Y28822796D01*
X25390276Y29011724D01*
X25579204Y29294474D01*
X25628800Y29543812D01*
X25628800Y30412188D01*
X25588994Y30612312D01*
X27029700Y30612312D01*
X27029700Y30343689D01*
X27093801Y30021430D01*
X27337984Y29655984D01*
X27703429Y29411801D01*
X28134500Y29326056D01*
X28565570Y29411801D01*
X28931016Y29655984D01*
X29175199Y30021429D01*
X29239300Y30343688D01*
X29239300Y30612311D01*
X29175199Y30934570D01*
X28931016Y31300016D01*
X28565571Y31544199D01*
X28134500Y31629944D01*
X27703430Y31544199D01*
X27337984Y31300016D01*
X27093801Y30934571D01*
X27029700Y30612312D01*
X25588994Y30612312D01*
X25579204Y30661526D01*
X25390276Y30944276D01*
X25107525Y31133204D01*
X24774000Y31199546D01*
X24440474Y31133204D01*
X24157724Y30944276D01*
X23968796Y30661525D01*
X23919200Y30412187D01*
X8570040Y30412187D01*
X8539890Y30442337D01*
X8335978Y30526800D01*
X8197406Y30526800D01*
X8344337Y30673731D01*
X8428800Y30877643D01*
X8428800Y31098357D01*
X8344337Y31302269D01*
X8188269Y31458337D01*
X7984357Y31542800D01*
X7763643Y31542800D01*
X7559731Y31458337D01*
X7403663Y31302269D01*
X7319200Y31098357D01*
X-4450200Y31098357D01*
X-4450200Y32246057D01*
X6128400Y32246057D01*
X6128400Y32025343D01*
X6212863Y31821431D01*
X6368931Y31665363D01*
X6572843Y31580900D01*
X6793557Y31580900D01*
X6997469Y31665363D01*
X7128963Y31796857D01*
X11192700Y31796857D01*
X11192700Y31576143D01*
X11277163Y31372231D01*
X11433231Y31216163D01*
X11637143Y31131700D01*
X11857857Y31131700D01*
X12061769Y31216163D01*
X12217837Y31372231D01*
X12250133Y31450201D01*
X14265857Y31450201D01*
X14265857Y31229487D01*
X14350320Y31025575D01*
X14506388Y30869507D01*
X14710300Y30785044D01*
X14931014Y30785044D01*
X15134926Y30869507D01*
X15290994Y31025575D01*
X15375457Y31229487D01*
X15375457Y31450201D01*
X15290994Y31654113D01*
X15134926Y31810181D01*
X14931014Y31894644D01*
X14710300Y31894644D01*
X14506388Y31810181D01*
X14350320Y31654113D01*
X14265857Y31450201D01*
X12250133Y31450201D01*
X12302300Y31576143D01*
X12302300Y31796857D01*
X12217837Y32000769D01*
X12061769Y32156837D01*
X11857857Y32241300D01*
X11637143Y32241300D01*
X11433231Y32156837D01*
X11277163Y32000769D01*
X11192700Y31796857D01*
X7128963Y31796857D01*
X7153537Y31821431D01*
X7238000Y32025343D01*
X7238000Y32246057D01*
X7153537Y32449969D01*
X6997469Y32606037D01*
X6793557Y32690500D01*
X6572843Y32690500D01*
X6368931Y32606037D01*
X6212863Y32449969D01*
X6128400Y32246057D01*
X-4450200Y32246057D01*
X-4450200Y33574857D01*
X4334700Y33574857D01*
X4334700Y33354143D01*
X4419163Y33150231D01*
X4575231Y32994163D01*
X4779143Y32909700D01*
X4999857Y32909700D01*
X5048679Y32929922D01*
X5193305Y32785296D01*
X5397217Y32700833D01*
X5617931Y32700833D01*
X5821843Y32785296D01*
X5977911Y32941364D01*
X6056194Y33130357D01*
X8335186Y33130357D01*
X8335186Y32909643D01*
X8419649Y32705731D01*
X8575717Y32549663D01*
X8779629Y32465200D01*
X9000343Y32465200D01*
X9204255Y32549663D01*
X9360323Y32705731D01*
X9444786Y32909643D01*
X9444786Y33130357D01*
X9418484Y33193857D01*
X12462700Y33193857D01*
X12462700Y32973143D01*
X12547163Y32769231D01*
X12703231Y32613163D01*
X12907143Y32528700D01*
X13127857Y32528700D01*
X13331769Y32613163D01*
X13487837Y32769231D01*
X13572300Y32973143D01*
X13572300Y33193857D01*
X13487837Y33397769D01*
X13331769Y33553837D01*
X13127857Y33638300D01*
X12907143Y33638300D01*
X12703231Y33553837D01*
X12547163Y33397769D01*
X12462700Y33193857D01*
X9418484Y33193857D01*
X9360323Y33334269D01*
X9204255Y33490337D01*
X9000343Y33574800D01*
X8779629Y33574800D01*
X8575717Y33490337D01*
X8419649Y33334269D01*
X8335186Y33130357D01*
X6056194Y33130357D01*
X6062374Y33145276D01*
X6062374Y33365990D01*
X5977911Y33569902D01*
X5821843Y33725970D01*
X5617931Y33810433D01*
X5397217Y33810433D01*
X5348395Y33790211D01*
X5203769Y33934837D01*
X4999857Y34019300D01*
X4779143Y34019300D01*
X4575231Y33934837D01*
X4419163Y33778769D01*
X4334700Y33574857D01*
X-4450200Y33574857D01*
X-4450200Y34146357D01*
X17098200Y34146357D01*
X17098200Y33925643D01*
X17182663Y33721731D01*
X17338731Y33565663D01*
X17542643Y33481200D01*
X17763357Y33481200D01*
X17967269Y33565663D01*
X18123337Y33721731D01*
X18207800Y33925643D01*
X18207800Y34146357D01*
X18155195Y34273357D01*
X27448700Y34273357D01*
X27448700Y34052643D01*
X27533163Y33848731D01*
X27689231Y33692663D01*
X27893143Y33608200D01*
X28113857Y33608200D01*
X28317769Y33692663D01*
X28473837Y33848731D01*
X28558300Y34052643D01*
X28558300Y34273357D01*
X28473837Y34477269D01*
X28317769Y34633337D01*
X28113857Y34717800D01*
X27893143Y34717800D01*
X27689231Y34633337D01*
X27533163Y34477269D01*
X27448700Y34273357D01*
X18155195Y34273357D01*
X18123337Y34350269D01*
X17967269Y34506337D01*
X17763357Y34590800D01*
X17542643Y34590800D01*
X17338731Y34506337D01*
X17182663Y34350269D01*
X17098200Y34146357D01*
X-4450200Y34146357D01*
X-4450200Y35162357D01*
X18368200Y35162357D01*
X18368200Y34941643D01*
X18452663Y34737731D01*
X18608731Y34581663D01*
X18812643Y34497200D01*
X19033357Y34497200D01*
X19237269Y34581663D01*
X19393337Y34737731D01*
X19477800Y34941643D01*
X19477800Y35035357D01*
X20146200Y35035357D01*
X20146200Y34814643D01*
X20230663Y34610731D01*
X20386731Y34454663D01*
X20590643Y34370200D01*
X20811357Y34370200D01*
X21015269Y34454663D01*
X21171337Y34610731D01*
X21255800Y34814643D01*
X21255800Y35035357D01*
X21171337Y35239269D01*
X21015269Y35395337D01*
X20811357Y35479800D01*
X20590643Y35479800D01*
X20386731Y35395337D01*
X20230663Y35239269D01*
X20146200Y35035357D01*
X19477800Y35035357D01*
X19477800Y35162357D01*
X19393337Y35366269D01*
X19237269Y35522337D01*
X19033357Y35606800D01*
X18812643Y35606800D01*
X18608731Y35522337D01*
X18452663Y35366269D01*
X18368200Y35162357D01*
X-4450200Y35162357D01*
X-4450200Y36432357D01*
X6366700Y36432357D01*
X6366700Y36211643D01*
X6451163Y36007731D01*
X6607231Y35851663D01*
X6811143Y35767200D01*
X7031857Y35767200D01*
X7235769Y35851663D01*
X7391837Y36007731D01*
X7476300Y36211643D01*
X7476300Y36432357D01*
X7423807Y36559087D01*
X7432731Y36550163D01*
X7636643Y36465700D01*
X7857357Y36465700D01*
X8061269Y36550163D01*
X8217337Y36706231D01*
X8301800Y36910143D01*
X8301800Y37130857D01*
X8217337Y37334769D01*
X8061269Y37490837D01*
X7857357Y37575300D01*
X7636643Y37575300D01*
X7432731Y37490837D01*
X7276663Y37334769D01*
X7192200Y37130857D01*
X7192200Y36910143D01*
X7244693Y36783413D01*
X7235769Y36792337D01*
X7031857Y36876800D01*
X6811143Y36876800D01*
X6607231Y36792337D01*
X6451163Y36636269D01*
X6366700Y36432357D01*
X-4450200Y36432357D01*
X-4450200Y38019857D01*
X24781700Y38019857D01*
X24781700Y37799143D01*
X24866163Y37595231D01*
X25022231Y37439163D01*
X25226143Y37354700D01*
X25446857Y37354700D01*
X25650769Y37439163D01*
X25806837Y37595231D01*
X25891300Y37799143D01*
X25891300Y38019857D01*
X25806837Y38223769D01*
X25650769Y38379837D01*
X25446857Y38464300D01*
X25226143Y38464300D01*
X25022231Y38379837D01*
X24866163Y38223769D01*
X24781700Y38019857D01*
X-4450200Y38019857D01*
X-4450200Y39162857D01*
X5731700Y39162857D01*
X5731700Y38942143D01*
X5816163Y38738231D01*
X5972231Y38582163D01*
X6176143Y38497700D01*
X6396857Y38497700D01*
X6600769Y38582163D01*
X6756837Y38738231D01*
X6841300Y38942143D01*
X6841300Y39039847D01*
X15701200Y39039847D01*
X15701200Y38819133D01*
X15785663Y38615221D01*
X15941731Y38459153D01*
X16145643Y38374690D01*
X16366357Y38374690D01*
X16570269Y38459153D01*
X16726337Y38615221D01*
X16810800Y38819133D01*
X16810800Y39039847D01*
X16726337Y39243759D01*
X16570269Y39399827D01*
X16366357Y39484290D01*
X16145643Y39484290D01*
X15941731Y39399827D01*
X15785663Y39243759D01*
X15701200Y39039847D01*
X6841300Y39039847D01*
X6841300Y39162857D01*
X6756837Y39366769D01*
X6600769Y39522837D01*
X6396857Y39607300D01*
X6176143Y39607300D01*
X5972231Y39522837D01*
X5816163Y39366769D01*
X5731700Y39162857D01*
X-4450200Y39162857D01*
X-4450200Y39734357D01*
X24718200Y39734357D01*
X24718200Y39513643D01*
X24802663Y39309731D01*
X24958731Y39153663D01*
X25162643Y39069200D01*
X25383357Y39069200D01*
X25587269Y39153663D01*
X25743337Y39309731D01*
X25827800Y39513643D01*
X25827800Y39734357D01*
X25743337Y39938269D01*
X25587269Y40094337D01*
X25383357Y40178800D01*
X25162643Y40178800D01*
X24958731Y40094337D01*
X24802663Y39938269D01*
X24718200Y39734357D01*
X-4450200Y39734357D01*
X-4450200Y40940857D01*
X14494700Y40940857D01*
X14494700Y40720143D01*
X14579163Y40516231D01*
X14735231Y40360163D01*
X14939143Y40275700D01*
X15159857Y40275700D01*
X15363769Y40360163D01*
X15519837Y40516231D01*
X15604300Y40720143D01*
X15604300Y40940857D01*
X15519837Y41144769D01*
X15363769Y41300837D01*
X15159857Y41385300D01*
X14939143Y41385300D01*
X14735231Y41300837D01*
X14579163Y41144769D01*
X14494700Y40940857D01*
X-4450200Y40940857D01*
X-4450200Y44052357D01*
X-364300Y44052357D01*
X-364300Y43831643D01*
X-279837Y43627731D01*
X-123769Y43471663D01*
X80143Y43387200D01*
X300857Y43387200D01*
X504769Y43471663D01*
X660837Y43627731D01*
X745300Y43831643D01*
X745300Y44052357D01*
X660837Y44256269D01*
X504769Y44412337D01*
X300857Y44496800D01*
X80143Y44496800D01*
X-123769Y44412337D01*
X-279837Y44256269D01*
X-364300Y44052357D01*
X-4450200Y44052357D01*
X-4450200Y45893857D01*
X2556700Y45893857D01*
X2556700Y45673143D01*
X2641163Y45469231D01*
X2797231Y45313163D01*
X3001143Y45228700D01*
X3221857Y45228700D01*
X3425769Y45313163D01*
X3581837Y45469231D01*
X3666300Y45673143D01*
X3666300Y45893857D01*
X4398200Y45893857D01*
X4398200Y45673143D01*
X4482663Y45469231D01*
X4638731Y45313163D01*
X4842643Y45228700D01*
X5063357Y45228700D01*
X5267269Y45313163D01*
X5423337Y45469231D01*
X5467709Y45576357D01*
X23257700Y45576357D01*
X23257700Y45355643D01*
X23342163Y45151731D01*
X23498231Y44995663D01*
X23702143Y44911200D01*
X23922857Y44911200D01*
X24126769Y44995663D01*
X24282837Y45151731D01*
X24367300Y45355643D01*
X24367300Y45576357D01*
X24282837Y45780269D01*
X24126769Y45936337D01*
X23922857Y46020800D01*
X23702143Y46020800D01*
X23498231Y45936337D01*
X23342163Y45780269D01*
X23257700Y45576357D01*
X5467709Y45576357D01*
X5507800Y45673143D01*
X5507800Y45893857D01*
X5423337Y46097769D01*
X5267269Y46253837D01*
X5063357Y46338300D01*
X4842643Y46338300D01*
X4638731Y46253837D01*
X4482663Y46097769D01*
X4398200Y45893857D01*
X3666300Y45893857D01*
X3581837Y46097769D01*
X3425769Y46253837D01*
X3221857Y46338300D01*
X3001143Y46338300D01*
X2797231Y46253837D01*
X2641163Y46097769D01*
X2556700Y45893857D01*
X-4450200Y45893857D01*
X-4450200Y46846357D01*
X16700Y46846357D01*
X16700Y46625643D01*
X101163Y46421731D01*
X257231Y46265663D01*
X461143Y46181200D01*
X681857Y46181200D01*
X885769Y46265663D01*
X1041837Y46421731D01*
X1126300Y46625643D01*
X1126300Y46846357D01*
X1041837Y47050269D01*
X885769Y47206337D01*
X681857Y47290800D01*
X461143Y47290800D01*
X257231Y47206337D01*
X101163Y47050269D01*
X16700Y46846357D01*
X-4450200Y46846357D01*
X-4450200Y47671857D01*
X6112700Y47671857D01*
X6112700Y47451143D01*
X6197163Y47247231D01*
X6353231Y47091163D01*
X6557143Y47006700D01*
X6777857Y47006700D01*
X6981769Y47091163D01*
X7137837Y47247231D01*
X7222300Y47451143D01*
X7222300Y47671857D01*
X7137837Y47875769D01*
X6981769Y48031837D01*
X6839041Y48090957D01*
X28058300Y48090957D01*
X28058300Y47870243D01*
X28142763Y47666331D01*
X28298831Y47510263D01*
X28502743Y47425800D01*
X28723457Y47425800D01*
X28927369Y47510263D01*
X29083437Y47666331D01*
X29167900Y47870243D01*
X29167900Y48090957D01*
X29083437Y48294869D01*
X28927369Y48450937D01*
X28723457Y48535400D01*
X28502743Y48535400D01*
X28298831Y48450937D01*
X28142763Y48294869D01*
X28058300Y48090957D01*
X6839041Y48090957D01*
X6777857Y48116300D01*
X6557143Y48116300D01*
X6353231Y48031837D01*
X6197163Y47875769D01*
X6112700Y47671857D01*
X-4450200Y47671857D01*
X-4450200Y50389657D01*
X19828700Y50389657D01*
X19828700Y50168943D01*
X19913163Y49965031D01*
X20069231Y49808963D01*
X20273143Y49724500D01*
X20493857Y49724500D01*
X20697769Y49808963D01*
X20853837Y49965031D01*
X20938300Y50168943D01*
X20938300Y50389657D01*
X20853837Y50593569D01*
X20697769Y50749637D01*
X20493857Y50834100D01*
X20273143Y50834100D01*
X20069231Y50749637D01*
X19913163Y50593569D01*
X19828700Y50389657D01*
X-4450200Y50389657D01*
X-4450200Y55863357D01*
X-1824800Y55863357D01*
X-1824800Y55642643D01*
X-1740337Y55438731D01*
X-1584269Y55282663D01*
X-1380357Y55198200D01*
X-1159643Y55198200D01*
X-955731Y55282663D01*
X-799663Y55438731D01*
X-762000Y55529658D01*
X-724337Y55438731D01*
X-568269Y55282663D01*
X-364357Y55198200D01*
X-143643Y55198200D01*
X60269Y55282663D01*
X216337Y55438731D01*
X254000Y55529658D01*
X291663Y55438731D01*
X447731Y55282663D01*
X651643Y55198200D01*
X872357Y55198200D01*
X1076269Y55282663D01*
X1232337Y55438731D01*
X1270000Y55529658D01*
X1307663Y55438731D01*
X1463731Y55282663D01*
X1667643Y55198200D01*
X1888357Y55198200D01*
X2092269Y55282663D01*
X2248337Y55438731D01*
X2286000Y55529658D01*
X2323663Y55438731D01*
X2479731Y55282663D01*
X2683643Y55198200D01*
X2904357Y55198200D01*
X3108269Y55282663D01*
X3264337Y55438731D01*
X3348800Y55642643D01*
X3348800Y55863357D01*
X5541200Y55863357D01*
X5541200Y55642643D01*
X5625663Y55438731D01*
X5781731Y55282663D01*
X5985643Y55198200D01*
X6206357Y55198200D01*
X6410269Y55282663D01*
X6566337Y55438731D01*
X6604000Y55529658D01*
X6641663Y55438731D01*
X6797731Y55282663D01*
X7001643Y55198200D01*
X7222357Y55198200D01*
X7426269Y55282663D01*
X7582337Y55438731D01*
X7620000Y55529658D01*
X7657663Y55438731D01*
X7813731Y55282663D01*
X8017643Y55198200D01*
X8238357Y55198200D01*
X8442269Y55282663D01*
X8598337Y55438731D01*
X8636000Y55529658D01*
X8673663Y55438731D01*
X8829731Y55282663D01*
X9033643Y55198200D01*
X9254357Y55198200D01*
X9458269Y55282663D01*
X9614337Y55438731D01*
X9698800Y55642643D01*
X9698800Y55863357D01*
X9614337Y56067269D01*
X9458269Y56223337D01*
X9254357Y56307800D01*
X9033643Y56307800D01*
X8829731Y56223337D01*
X8673663Y56067269D01*
X8636000Y55976342D01*
X8598337Y56067269D01*
X8442269Y56223337D01*
X8238357Y56307800D01*
X8017643Y56307800D01*
X7813731Y56223337D01*
X7657663Y56067269D01*
X7620000Y55976342D01*
X7582337Y56067269D01*
X7426269Y56223337D01*
X7222357Y56307800D01*
X7001643Y56307800D01*
X6797731Y56223337D01*
X6641663Y56067269D01*
X6604000Y55976342D01*
X6566337Y56067269D01*
X6410269Y56223337D01*
X6206357Y56307800D01*
X5985643Y56307800D01*
X5781731Y56223337D01*
X5625663Y56067269D01*
X5541200Y55863357D01*
X3348800Y55863357D01*
X3264337Y56067269D01*
X3108269Y56223337D01*
X2904357Y56307800D01*
X2683643Y56307800D01*
X2479731Y56223337D01*
X2323663Y56067269D01*
X2286000Y55976342D01*
X2248337Y56067269D01*
X2092269Y56223337D01*
X1888357Y56307800D01*
X1667643Y56307800D01*
X1463731Y56223337D01*
X1307663Y56067269D01*
X1270000Y55976342D01*
X1232337Y56067269D01*
X1076269Y56223337D01*
X872357Y56307800D01*
X651643Y56307800D01*
X447731Y56223337D01*
X291663Y56067269D01*
X254000Y55976342D01*
X216337Y56067269D01*
X60269Y56223337D01*
X-143643Y56307800D01*
X-364357Y56307800D01*
X-568269Y56223337D01*
X-724337Y56067269D01*
X-762000Y55976342D01*
X-799663Y56067269D01*
X-955731Y56223337D01*
X-1159643Y56307800D01*
X-1380357Y56307800D01*
X-1584269Y56223337D01*
X-1740337Y56067269D01*
X-1824800Y55863357D01*
X-4450200Y55863357D01*
X-4450200Y59292357D01*
X11383200Y59292357D01*
X11383200Y59071643D01*
X11467663Y58867731D01*
X11623731Y58711663D01*
X11827643Y58627200D01*
X12048357Y58627200D01*
X12252269Y58711663D01*
X12408337Y58867731D01*
X12492800Y59071643D01*
X12492800Y59292357D01*
X12408337Y59496269D01*
X12252269Y59652337D01*
X12048357Y59736800D01*
X11827643Y59736800D01*
X11623731Y59652337D01*
X11467663Y59496269D01*
X11383200Y59292357D01*
X-4450200Y59292357D01*
X-4450200Y60054357D01*
X7636700Y60054357D01*
X7636700Y59833643D01*
X7721163Y59629731D01*
X7877231Y59473663D01*
X8081143Y59389200D01*
X8301857Y59389200D01*
X8505769Y59473663D01*
X8661837Y59629731D01*
X8746300Y59833643D01*
X8746300Y60054357D01*
X8661837Y60258269D01*
X8505769Y60414337D01*
X8301857Y60498800D01*
X8081143Y60498800D01*
X7877231Y60414337D01*
X7721163Y60258269D01*
X7636700Y60054357D01*
X-4450200Y60054357D01*
X-4450200Y61957514D01*
X-4302871Y61601831D01*
X-3837369Y61136329D01*
X-3229160Y60884400D01*
X-2570840Y60884400D01*
X-1962631Y61136329D01*
X-1497129Y61601831D01*
X-1296432Y62086357D01*
X16082200Y62086357D01*
X16082200Y61865643D01*
X16166663Y61661731D01*
X16322731Y61505663D01*
X16526643Y61421200D01*
X16747357Y61421200D01*
X16951269Y61505663D01*
X17107337Y61661731D01*
X17191800Y61865643D01*
X17191800Y62022857D01*
X19066700Y62022857D01*
X19066700Y61802143D01*
X19151163Y61598231D01*
X19307231Y61442163D01*
X19511143Y61357700D01*
X19731857Y61357700D01*
X19935769Y61442163D01*
X20091837Y61598231D01*
X20176300Y61802143D01*
X20176300Y62022857D01*
X20091837Y62226769D01*
X19935769Y62382837D01*
X19731857Y62467300D01*
X19511143Y62467300D01*
X19307231Y62382837D01*
X19151163Y62226769D01*
X19066700Y62022857D01*
X17191800Y62022857D01*
X17191800Y62086357D01*
X17107337Y62290269D01*
X16951269Y62446337D01*
X16747357Y62530800D01*
X16526643Y62530800D01*
X16322731Y62446337D01*
X16166663Y62290269D01*
X16082200Y62086357D01*
X-1296432Y62086357D01*
X-1245200Y62210040D01*
X-1245200Y62868360D01*
X-1497129Y63476569D01*
X-1962631Y63942071D01*
X-2570840Y64194000D01*
X-3229160Y64194000D01*
X-3837369Y63942071D01*
X-4302871Y63476569D01*
X-4450200Y63120886D01*
X-4450200Y63732595D01*
X-4396116Y64004493D01*
X-4263286Y64203287D01*
X-4064493Y64336116D01*
X-3792595Y64390200D01*
X28632595Y64390200D01*
X28904493Y64336116D01*
X28904493Y64336116D01*
G37*
X28904493Y64336116D02*
X29103287Y64203286D01*
X29236116Y64004493D01*
X29297498Y63695905D01*
X29354208Y63558995D01*
X29385447Y63527756D01*
X29323111Y63434464D01*
X29305671Y63476569D01*
X28840169Y63942071D01*
X28231960Y64194000D01*
X27573640Y64194000D01*
X26965431Y63942071D01*
X26499929Y63476569D01*
X26248000Y62868360D01*
X26248000Y62210040D01*
X26499929Y61601831D01*
X26965431Y61136329D01*
X27573640Y60884400D01*
X28231960Y60884400D01*
X28840169Y61136329D01*
X29290200Y61586360D01*
X29290201Y-2807961D01*
X28840169Y-2357929D01*
X28231960Y-2106000D01*
X27573640Y-2106000D01*
X26965431Y-2357929D01*
X26499929Y-2823431D01*
X26248000Y-3431640D01*
X26248000Y-4089960D01*
X26499929Y-4698169D01*
X26965431Y-5163671D01*
X27415751Y-5350200D01*
X-2412951Y-5350200D01*
X-1962631Y-5163671D01*
X-1497129Y-4698169D01*
X-1245200Y-4089960D01*
X-1245200Y-3431640D01*
X-1497129Y-2823431D01*
X-1962631Y-2357929D01*
X-2570840Y-2106000D01*
X-3229160Y-2106000D01*
X-3837369Y-2357929D01*
X-4302871Y-2823431D01*
X-4450200Y-3179114D01*
X-4450200Y-499243D01*
X-3298000Y-499243D01*
X-3298000Y-719957D01*
X-3213537Y-923869D01*
X-3057469Y-1079937D01*
X-2853557Y-1164400D01*
X-2632843Y-1164400D01*
X-2428931Y-1079937D01*
X-2381637Y-1032643D01*
X1756602Y-1032643D01*
X1756602Y-1253357D01*
X1841065Y-1457269D01*
X1997133Y-1613337D01*
X2201045Y-1697800D01*
X2421759Y-1697800D01*
X2505125Y-1663269D01*
X2425263Y-1743131D01*
X2340800Y-1947043D01*
X2340800Y-2167757D01*
X2425263Y-2371669D01*
X2581331Y-2527737D01*
X2785243Y-2612200D01*
X3005957Y-2612200D01*
X3209869Y-2527737D01*
X3365937Y-2371669D01*
X3450400Y-2167757D01*
X3450400Y-1947043D01*
X3365937Y-1743131D01*
X3209869Y-1587063D01*
X3005957Y-1502600D01*
X2785243Y-1502600D01*
X2701877Y-1537131D01*
X2781739Y-1457269D01*
X2866202Y-1253357D01*
X2866202Y-1032643D01*
X2781739Y-828731D01*
X2625671Y-672663D01*
X2421759Y-588200D01*
X2201045Y-588200D01*
X1997133Y-672663D01*
X1841065Y-828731D01*
X1756602Y-1032643D01*
X-2381637Y-1032643D01*
X-2272863Y-923869D01*
X-2188400Y-719957D01*
X-2188400Y-499243D01*
X-2272863Y-295331D01*
X-2428931Y-139263D01*
X-2632843Y-54800D01*
X-2853557Y-54800D01*
X-3057469Y-139263D01*
X-3213537Y-295331D01*
X-3298000Y-499243D01*
X-4450200Y-499243D01*
X-4450200Y618357D01*
X-999300Y618357D01*
X-999300Y397643D01*
X-914837Y193731D01*
X-758769Y37663D01*
X-554857Y-46800D01*
X-334143Y-46800D01*
X-130231Y37663D01*
X25837Y193731D01*
X110300Y397643D01*
X110300Y618357D01*
X25837Y822269D01*
X-130231Y978337D01*
X-334143Y1062800D01*
X-554857Y1062800D01*
X-758769Y978337D01*
X-914837Y822269D01*
X-999300Y618357D01*
X-4450200Y618357D01*
X-4450200Y1824857D01*
X4842700Y1824857D01*
X4842700Y1604143D01*
X4927163Y1400231D01*
X5083231Y1244163D01*
X5287143Y1159700D01*
X5507857Y1159700D01*
X5711769Y1244163D01*
X5867837Y1400231D01*
X5938512Y1570857D01*
X25289700Y1570857D01*
X25289700Y1350143D01*
X25374163Y1146231D01*
X25530231Y990163D01*
X25734143Y905700D01*
X25954857Y905700D01*
X26158769Y990163D01*
X26314837Y1146231D01*
X26399300Y1350143D01*
X26399300Y1570857D01*
X26314837Y1774769D01*
X26158769Y1930837D01*
X25954857Y2015300D01*
X25734143Y2015300D01*
X25530231Y1930837D01*
X25374163Y1774769D01*
X25289700Y1570857D01*
X5938512Y1570857D01*
X5952300Y1604143D01*
X5952300Y1824857D01*
X5867837Y2028769D01*
X5711769Y2184837D01*
X5507857Y2269300D01*
X5287143Y2269300D01*
X5083231Y2184837D01*
X4927163Y2028769D01*
X4842700Y1824857D01*
X-4450200Y1824857D01*
X-4450200Y5444357D01*
X22813200Y5444357D01*
X22813200Y5223643D01*
X22897663Y5019731D01*
X23053731Y4863663D01*
X23257643Y4779200D01*
X23478357Y4779200D01*
X23682269Y4863663D01*
X23838337Y5019731D01*
X23876000Y5110658D01*
X23913663Y5019731D01*
X24069731Y4863663D01*
X24273643Y4779200D01*
X24494357Y4779200D01*
X24698269Y4863663D01*
X24854337Y5019731D01*
X24938800Y5223643D01*
X24938800Y5444357D01*
X24854337Y5648269D01*
X24698269Y5804337D01*
X24494357Y5888800D01*
X24273643Y5888800D01*
X24069731Y5804337D01*
X23913663Y5648269D01*
X23876000Y5557342D01*
X23838337Y5648269D01*
X23682269Y5804337D01*
X23478357Y5888800D01*
X23257643Y5888800D01*
X23053731Y5804337D01*
X22897663Y5648269D01*
X22813200Y5444357D01*
X-4450200Y5444357D01*
X-4450200Y8136757D01*
X14736000Y8136757D01*
X14736000Y7916043D01*
X14820463Y7712131D01*
X14976531Y7556063D01*
X15180443Y7471600D01*
X15401157Y7471600D01*
X15566478Y7540078D01*
X15498000Y7374757D01*
X15498000Y7154043D01*
X15566478Y6988722D01*
X15401157Y7057200D01*
X15180443Y7057200D01*
X14976531Y6972737D01*
X14820463Y6816669D01*
X14736000Y6612757D01*
X14736000Y6392043D01*
X14820463Y6188131D01*
X14976531Y6032063D01*
X15180443Y5947600D01*
X15401157Y5947600D01*
X15605069Y6032063D01*
X15761137Y6188131D01*
X15845600Y6392043D01*
X15845600Y6612757D01*
X15777122Y6778078D01*
X15942443Y6709600D01*
X16163157Y6709600D01*
X16328478Y6778078D01*
X16260000Y6612757D01*
X16260000Y6392043D01*
X16344463Y6188131D01*
X16500531Y6032063D01*
X16704443Y5947600D01*
X16925157Y5947600D01*
X17129069Y6032063D01*
X17285137Y6188131D01*
X17369600Y6392043D01*
X17369600Y6612757D01*
X17285137Y6816669D01*
X17129069Y6972737D01*
X16925157Y7057200D01*
X16704443Y7057200D01*
X16539122Y6988722D01*
X16607600Y7154043D01*
X16607600Y7374757D01*
X16539122Y7540078D01*
X16704443Y7471600D01*
X16925157Y7471600D01*
X17129069Y7556063D01*
X17285137Y7712131D01*
X17369600Y7916043D01*
X17369600Y8136757D01*
X17784000Y8136757D01*
X17784000Y7916043D01*
X17868463Y7712131D01*
X18024531Y7556063D01*
X18228443Y7471600D01*
X18449157Y7471600D01*
X18614478Y7540078D01*
X18546000Y7374757D01*
X18546000Y7154043D01*
X18614478Y6988722D01*
X18449157Y7057200D01*
X18228443Y7057200D01*
X18024531Y6972737D01*
X17868463Y6816669D01*
X17784000Y6612757D01*
X17784000Y6392043D01*
X17868463Y6188131D01*
X18024531Y6032063D01*
X18228443Y5947600D01*
X18449157Y5947600D01*
X18653069Y6032063D01*
X18809137Y6188131D01*
X18893600Y6392043D01*
X18893600Y6612757D01*
X18825122Y6778078D01*
X18990443Y6709600D01*
X19211157Y6709600D01*
X19376478Y6778078D01*
X19308000Y6612757D01*
X19308000Y6392043D01*
X19392463Y6188131D01*
X19548531Y6032063D01*
X19752443Y5947600D01*
X19973157Y5947600D01*
X20177069Y6032063D01*
X20333137Y6188131D01*
X20417600Y6392043D01*
X20417600Y6612757D01*
X20333137Y6816669D01*
X20177069Y6972737D01*
X19973157Y7057200D01*
X19752443Y7057200D01*
X19587122Y6988722D01*
X19655600Y7154043D01*
X19655600Y7374757D01*
X19587122Y7540078D01*
X19752443Y7471600D01*
X19973157Y7471600D01*
X20177069Y7556063D01*
X20333137Y7712131D01*
X20417600Y7916043D01*
X20417600Y8136757D01*
X20333137Y8340669D01*
X20177069Y8496737D01*
X19973157Y8581200D01*
X19752443Y8581200D01*
X19548531Y8496737D01*
X19392463Y8340669D01*
X19308000Y8136757D01*
X19308000Y7916043D01*
X19376478Y7750722D01*
X19211157Y7819200D01*
X18990443Y7819200D01*
X18825122Y7750722D01*
X18893600Y7916043D01*
X18893600Y8136757D01*
X18809137Y8340669D01*
X18653069Y8496737D01*
X18449157Y8581200D01*
X18228443Y8581200D01*
X18024531Y8496737D01*
X17868463Y8340669D01*
X17784000Y8136757D01*
X17369600Y8136757D01*
X17285137Y8340669D01*
X17129069Y8496737D01*
X16925157Y8581200D01*
X16704443Y8581200D01*
X16500531Y8496737D01*
X16344463Y8340669D01*
X16260000Y8136757D01*
X16260000Y7916043D01*
X16328478Y7750722D01*
X16163157Y7819200D01*
X15942443Y7819200D01*
X15777122Y7750722D01*
X15845600Y7916043D01*
X15845600Y8136757D01*
X15761137Y8340669D01*
X15605069Y8496737D01*
X15401157Y8581200D01*
X15180443Y8581200D01*
X14976531Y8496737D01*
X14820463Y8340669D01*
X14736000Y8136757D01*
X-4450200Y8136757D01*
X-4450200Y9086557D01*
X1934400Y9086557D01*
X1934400Y8865843D01*
X2018863Y8661931D01*
X2174931Y8505863D01*
X2378843Y8421400D01*
X2599557Y8421400D01*
X2803469Y8505863D01*
X2959537Y8661931D01*
X3044000Y8865843D01*
X3044000Y9086557D01*
X2959537Y9290469D01*
X2803469Y9446537D01*
X2599557Y9531000D01*
X2378843Y9531000D01*
X2174931Y9446537D01*
X2018863Y9290469D01*
X1934400Y9086557D01*
X-4450200Y9086557D01*
X-4450200Y10524357D01*
X11383200Y10524357D01*
X11383200Y10303643D01*
X11467663Y10099731D01*
X11623731Y9943663D01*
X11827643Y9859200D01*
X12048357Y9859200D01*
X12252269Y9943663D01*
X12408337Y10099731D01*
X12492800Y10303643D01*
X12492800Y10524357D01*
X12413893Y10714857D01*
X27956700Y10714857D01*
X27956700Y10494143D01*
X28041163Y10290231D01*
X28197231Y10134163D01*
X28401143Y10049700D01*
X28621857Y10049700D01*
X28825769Y10134163D01*
X28981837Y10290231D01*
X29066300Y10494143D01*
X29066300Y10714857D01*
X28981837Y10918769D01*
X28825769Y11074837D01*
X28621857Y11159300D01*
X28401143Y11159300D01*
X28197231Y11074837D01*
X28041163Y10918769D01*
X27956700Y10714857D01*
X12413893Y10714857D01*
X12408337Y10728269D01*
X12252269Y10884337D01*
X12048357Y10968800D01*
X11827643Y10968800D01*
X11623731Y10884337D01*
X11467663Y10728269D01*
X11383200Y10524357D01*
X-4450200Y10524357D01*
X-4450200Y11603857D01*
X-2777300Y11603857D01*
X-2777300Y11383143D01*
X-2692837Y11179231D01*
X-2536769Y11023163D01*
X-2332857Y10938700D01*
X-2112143Y10938700D01*
X-1908231Y11023163D01*
X-1752163Y11179231D01*
X-1667700Y11383143D01*
X-1667700Y11540357D01*
X4842700Y11540357D01*
X4842700Y11319643D01*
X4927163Y11115731D01*
X5083231Y10959663D01*
X5287143Y10875200D01*
X5507857Y10875200D01*
X5711769Y10959663D01*
X5867837Y11115731D01*
X5952300Y11319643D01*
X5952300Y11540357D01*
X5867837Y11744269D01*
X5817749Y11794357D01*
X22559200Y11794357D01*
X22559200Y11573643D01*
X22643663Y11369731D01*
X22799731Y11213663D01*
X23003643Y11129200D01*
X23224357Y11129200D01*
X23428269Y11213663D01*
X23584337Y11369731D01*
X23668800Y11573643D01*
X23668800Y11794357D01*
X23829200Y11794357D01*
X23829200Y11573643D01*
X23913663Y11369731D01*
X24069731Y11213663D01*
X24273643Y11129200D01*
X24494357Y11129200D01*
X24698269Y11213663D01*
X24854337Y11369731D01*
X24938800Y11573643D01*
X24938800Y11794357D01*
X25099200Y11794357D01*
X25099200Y11573643D01*
X25183663Y11369731D01*
X25339731Y11213663D01*
X25543643Y11129200D01*
X25764357Y11129200D01*
X25968269Y11213663D01*
X26124337Y11369731D01*
X26208800Y11573643D01*
X26208800Y11794357D01*
X26369200Y11794357D01*
X26369200Y11573643D01*
X26453663Y11369731D01*
X26609731Y11213663D01*
X26813643Y11129200D01*
X27034357Y11129200D01*
X27238269Y11213663D01*
X27394337Y11369731D01*
X27478800Y11573643D01*
X27478800Y11794357D01*
X27394337Y11998269D01*
X27238269Y12154337D01*
X27034357Y12238800D01*
X26813643Y12238800D01*
X26609731Y12154337D01*
X26453663Y11998269D01*
X26369200Y11794357D01*
X26208800Y11794357D01*
X26124337Y11998269D01*
X25968269Y12154337D01*
X25764357Y12238800D01*
X25543643Y12238800D01*
X25339731Y12154337D01*
X25183663Y11998269D01*
X25099200Y11794357D01*
X24938800Y11794357D01*
X24854337Y11998269D01*
X24698269Y12154337D01*
X24494357Y12238800D01*
X24273643Y12238800D01*
X24069731Y12154337D01*
X23913663Y11998269D01*
X23829200Y11794357D01*
X23668800Y11794357D01*
X23584337Y11998269D01*
X23428269Y12154337D01*
X23224357Y12238800D01*
X23003643Y12238800D01*
X22799731Y12154337D01*
X22643663Y11998269D01*
X22559200Y11794357D01*
X5817749Y11794357D01*
X5711769Y11900337D01*
X5507857Y11984800D01*
X5287143Y11984800D01*
X5083231Y11900337D01*
X4927163Y11744269D01*
X4842700Y11540357D01*
X-1667700Y11540357D01*
X-1667700Y11603857D01*
X-1752163Y11807769D01*
X-1908231Y11963837D01*
X-2112143Y12048300D01*
X-2332857Y12048300D01*
X-2536769Y11963837D01*
X-2692837Y11807769D01*
X-2777300Y11603857D01*
X-4450200Y11603857D01*
X-4450200Y13953357D01*
X11446700Y13953357D01*
X11446700Y13732643D01*
X11531163Y13528731D01*
X11687231Y13372663D01*
X11891143Y13288200D01*
X12111857Y13288200D01*
X12315769Y13372663D01*
X12471837Y13528731D01*
X12556300Y13732643D01*
X12556300Y13953357D01*
X12529998Y14016857D01*
X17733200Y14016857D01*
X17733200Y13796143D01*
X17817663Y13592231D01*
X17973731Y13436163D01*
X18177643Y13351700D01*
X18398357Y13351700D01*
X18602269Y13436163D01*
X18758337Y13592231D01*
X18842800Y13796143D01*
X18842800Y13889857D01*
X27956700Y13889857D01*
X27956700Y13669143D01*
X28041163Y13465231D01*
X28197231Y13309163D01*
X28401143Y13224700D01*
X28621857Y13224700D01*
X28825769Y13309163D01*
X28981837Y13465231D01*
X29066300Y13669143D01*
X29066300Y13889857D01*
X28981837Y14093769D01*
X28825769Y14249837D01*
X28621857Y14334300D01*
X28401143Y14334300D01*
X28197231Y14249837D01*
X28041163Y14093769D01*
X27956700Y13889857D01*
X18842800Y13889857D01*
X18842800Y14016857D01*
X18758337Y14220769D01*
X18602269Y14376837D01*
X18398357Y14461300D01*
X18177643Y14461300D01*
X17973731Y14376837D01*
X17817663Y14220769D01*
X17733200Y14016857D01*
X12529998Y14016857D01*
X12471837Y14157269D01*
X12315769Y14313337D01*
X12111857Y14397800D01*
X11891143Y14397800D01*
X11687231Y14313337D01*
X11531163Y14157269D01*
X11446700Y13953357D01*
X-4450200Y13953357D01*
X-4450200Y14778857D01*
X12653200Y14778857D01*
X12653200Y14558143D01*
X12737663Y14354231D01*
X12893731Y14198163D01*
X13097643Y14113700D01*
X13318357Y14113700D01*
X13522269Y14198163D01*
X13678337Y14354231D01*
X13762800Y14558143D01*
X13762800Y14651857D01*
X21733700Y14651857D01*
X21733700Y14431143D01*
X21818163Y14227231D01*
X21974231Y14071163D01*
X22178143Y13986700D01*
X22398857Y13986700D01*
X22602769Y14071163D01*
X22758837Y14227231D01*
X22843300Y14431143D01*
X22843300Y14651857D01*
X22758837Y14855769D01*
X22602769Y15011837D01*
X22398857Y15096300D01*
X22178143Y15096300D01*
X21974231Y15011837D01*
X21818163Y14855769D01*
X21733700Y14651857D01*
X13762800Y14651857D01*
X13762800Y14778857D01*
X13678337Y14982769D01*
X13522269Y15138837D01*
X13318357Y15223300D01*
X13097643Y15223300D01*
X12893731Y15138837D01*
X12737663Y14982769D01*
X12653200Y14778857D01*
X-4450200Y14778857D01*
X-4450200Y15731357D01*
X20781200Y15731357D01*
X20781200Y15510643D01*
X20865663Y15306731D01*
X21021731Y15150663D01*
X21225643Y15066200D01*
X21446357Y15066200D01*
X21650269Y15150663D01*
X21806337Y15306731D01*
X21890800Y15510643D01*
X21890800Y15731357D01*
X21806337Y15935269D01*
X21650269Y16091337D01*
X21446357Y16175800D01*
X21225643Y16175800D01*
X21021731Y16091337D01*
X20865663Y15935269D01*
X20781200Y15731357D01*
X-4450200Y15731357D01*
X-4450200Y16620357D01*
X4779200Y16620357D01*
X4779200Y16399643D01*
X4863663Y16195731D01*
X5019731Y16039663D01*
X5223643Y15955200D01*
X5444357Y15955200D01*
X5648269Y16039663D01*
X5804337Y16195731D01*
X5888800Y16399643D01*
X5888800Y16620357D01*
X5804337Y16824269D01*
X5648269Y16980337D01*
X5444357Y17064800D01*
X5223643Y17064800D01*
X5019731Y16980337D01*
X4863663Y16824269D01*
X4779200Y16620357D01*
X-4450200Y16620357D01*
X-4450200Y17128357D01*
X16526700Y17128357D01*
X16526700Y16907643D01*
X16611163Y16703731D01*
X16767231Y16547663D01*
X16971143Y16463200D01*
X17191857Y16463200D01*
X17395769Y16547663D01*
X17404963Y16556857D01*
X19892200Y16556857D01*
X19892200Y16336143D01*
X19976663Y16132231D01*
X20132731Y15976163D01*
X20336643Y15891700D01*
X20557357Y15891700D01*
X20761269Y15976163D01*
X20917337Y16132231D01*
X21001800Y16336143D01*
X21001800Y16556857D01*
X20917337Y16760769D01*
X20761269Y16916837D01*
X20557357Y17001300D01*
X20336643Y17001300D01*
X20132731Y16916837D01*
X19976663Y16760769D01*
X19892200Y16556857D01*
X17404963Y16556857D01*
X17551837Y16703731D01*
X17636300Y16907643D01*
X17636300Y17128357D01*
X17551837Y17332269D01*
X17459349Y17424757D01*
X17784000Y17424757D01*
X17784000Y17204043D01*
X17868463Y17000131D01*
X18024531Y16844063D01*
X18228443Y16759600D01*
X18449157Y16759600D01*
X18653069Y16844063D01*
X18809137Y17000131D01*
X18893600Y17204043D01*
X18893600Y17424757D01*
X18809137Y17628669D01*
X18653069Y17784737D01*
X18449157Y17869200D01*
X18228443Y17869200D01*
X18024531Y17784737D01*
X17868463Y17628669D01*
X17784000Y17424757D01*
X17459349Y17424757D01*
X17395769Y17488337D01*
X17191857Y17572800D01*
X16971143Y17572800D01*
X16767231Y17488337D01*
X16611163Y17332269D01*
X16526700Y17128357D01*
X-4450200Y17128357D01*
X-4450200Y18652357D01*
X-2078800Y18652357D01*
X-2078800Y18431643D01*
X-1994337Y18227731D01*
X-1838269Y18071663D01*
X-1634357Y17987200D01*
X-1413643Y17987200D01*
X-1209731Y18071663D01*
X-1053663Y18227731D01*
X-969200Y18431643D01*
X-969200Y18652357D01*
X-1053663Y18856269D01*
X-1209731Y19012337D01*
X-1413643Y19096800D01*
X-1634357Y19096800D01*
X-1838269Y19012337D01*
X-1994337Y18856269D01*
X-2078800Y18652357D01*
X-4450200Y18652357D01*
X-4450200Y19223853D01*
X15320200Y19223853D01*
X15320200Y19003139D01*
X15404663Y18799227D01*
X15560731Y18643159D01*
X15764643Y18558696D01*
X15985357Y18558696D01*
X16189269Y18643159D01*
X16345337Y18799227D01*
X16429800Y19003139D01*
X16429800Y19223853D01*
X16345337Y19427765D01*
X16189269Y19583833D01*
X15985357Y19668296D01*
X15764643Y19668296D01*
X15560731Y19583833D01*
X15404663Y19427765D01*
X15320200Y19223853D01*
X-4450200Y19223853D01*
X-4450200Y19922357D01*
X-4301300Y19922357D01*
X-4301300Y19701643D01*
X-4216837Y19497731D01*
X-4060769Y19341663D01*
X-3856857Y19257200D01*
X-3636143Y19257200D01*
X-3432231Y19341663D01*
X-3276163Y19497731D01*
X-3191700Y19701643D01*
X-3191700Y19922357D01*
X-3276163Y20126269D01*
X-3432231Y20282337D01*
X-3636143Y20366800D01*
X-3856857Y20366800D01*
X-4060769Y20282337D01*
X-4216837Y20126269D01*
X-4301300Y19922357D01*
X-4450200Y19922357D01*
X-4450200Y24748357D01*
X13161200Y24748357D01*
X13161200Y24527643D01*
X13245663Y24323731D01*
X13401731Y24167663D01*
X13605643Y24083200D01*
X13826357Y24083200D01*
X14030269Y24167663D01*
X14186337Y24323731D01*
X14270800Y24527643D01*
X14270800Y24748357D01*
X14244361Y24812187D01*
X23919200Y24812187D01*
X23919200Y23943812D01*
X23968797Y23694474D01*
X24157725Y23411724D01*
X24440475Y23222796D01*
X24774000Y23156454D01*
X25107526Y23222796D01*
X25390276Y23411724D01*
X25579204Y23694474D01*
X25628800Y23943812D01*
X25628800Y24012312D01*
X27029700Y24012312D01*
X27029700Y23743689D01*
X27093801Y23421430D01*
X27337984Y23055984D01*
X27703429Y22811801D01*
X28134500Y22726056D01*
X28565570Y22811801D01*
X28931016Y23055984D01*
X29175199Y23421429D01*
X29239300Y23743688D01*
X29239300Y24012311D01*
X29175199Y24334570D01*
X28931016Y24700016D01*
X28565571Y24944199D01*
X28134500Y25029944D01*
X27703430Y24944199D01*
X27337984Y24700016D01*
X27093801Y24334571D01*
X27029700Y24012312D01*
X25628800Y24012312D01*
X25628800Y24812188D01*
X25579204Y25061526D01*
X25390276Y25344276D01*
X25107525Y25533204D01*
X24774000Y25599546D01*
X24440474Y25533204D01*
X24157724Y25344276D01*
X23968796Y25061525D01*
X23919200Y24812187D01*
X14244361Y24812187D01*
X14186337Y24952269D01*
X14030269Y25108337D01*
X13826357Y25192800D01*
X13605643Y25192800D01*
X13401731Y25108337D01*
X13245663Y24952269D01*
X13161200Y24748357D01*
X-4450200Y24748357D01*
X-4450200Y25534857D01*
X12018200Y25534857D01*
X12018200Y25314143D01*
X12102663Y25110231D01*
X12258731Y24954163D01*
X12462643Y24869700D01*
X12683357Y24869700D01*
X12887269Y24954163D01*
X13043337Y25110231D01*
X13127800Y25314143D01*
X13127800Y25534857D01*
X13043337Y25738769D01*
X12887269Y25894837D01*
X12683357Y25979300D01*
X12462643Y25979300D01*
X12258731Y25894837D01*
X12102663Y25738769D01*
X12018200Y25534857D01*
X-4450200Y25534857D01*
X-4450200Y27288357D01*
X13224700Y27288357D01*
X13224700Y27067643D01*
X13309163Y26863731D01*
X13465231Y26707663D01*
X13669143Y26623200D01*
X13889857Y26623200D01*
X14093769Y26707663D01*
X14229963Y26843857D01*
X22749700Y26843857D01*
X22749700Y26623143D01*
X22834163Y26419231D01*
X22990231Y26263163D01*
X23194143Y26178700D01*
X23414857Y26178700D01*
X23618769Y26263163D01*
X23774837Y26419231D01*
X23859300Y26623143D01*
X23859300Y26674674D01*
X23924564Y26647641D01*
X24145278Y26647641D01*
X24349190Y26732104D01*
X24505258Y26888172D01*
X24589721Y27092084D01*
X24589721Y27312798D01*
X24505258Y27516710D01*
X24349190Y27672778D01*
X24145278Y27757241D01*
X23924564Y27757241D01*
X23720652Y27672778D01*
X23564584Y27516710D01*
X23480121Y27312798D01*
X23480121Y27261267D01*
X23414857Y27288300D01*
X23194143Y27288300D01*
X22990231Y27203837D01*
X22834163Y27047769D01*
X22749700Y26843857D01*
X14229963Y26843857D01*
X14249837Y26863731D01*
X14334300Y27067643D01*
X14334300Y27288357D01*
X14249837Y27492269D01*
X14093769Y27648337D01*
X13889857Y27732800D01*
X13669143Y27732800D01*
X13465231Y27648337D01*
X13309163Y27492269D01*
X13224700Y27288357D01*
X-4450200Y27288357D01*
X-4450200Y27923357D01*
X22114700Y27923357D01*
X22114700Y27702643D01*
X22199163Y27498731D01*
X22355231Y27342663D01*
X22559143Y27258200D01*
X22779857Y27258200D01*
X22983769Y27342663D01*
X23139837Y27498731D01*
X23224300Y27702643D01*
X23224300Y27812187D01*
X26069200Y27812187D01*
X26069201Y26543812D01*
X26118797Y26294474D01*
X26307725Y26011724D01*
X26590475Y25822796D01*
X26924000Y25756454D01*
X27257526Y25822796D01*
X27540276Y26011724D01*
X27729204Y26294474D01*
X27778800Y26543812D01*
X27778800Y27812188D01*
X27729204Y28061526D01*
X27540276Y28344276D01*
X27257525Y28533204D01*
X27175188Y28549582D01*
X27330837Y28705231D01*
X27415300Y28909143D01*
X27415300Y29129857D01*
X27330837Y29333769D01*
X27174769Y29489837D01*
X26970857Y29574300D01*
X26750143Y29574300D01*
X26546231Y29489837D01*
X26390163Y29333769D01*
X26305700Y29129857D01*
X26305700Y28909143D01*
X26390163Y28705231D01*
X26546231Y28549163D01*
X26588287Y28531743D01*
X26307724Y28344276D01*
X26118796Y28061525D01*
X26069200Y27812187D01*
X23224300Y27812187D01*
X23224300Y27923357D01*
X23139837Y28127269D01*
X22983769Y28283337D01*
X22779857Y28367800D01*
X22559143Y28367800D01*
X22355231Y28283337D01*
X22199163Y28127269D01*
X22114700Y27923357D01*
X-4450200Y27923357D01*
X-4450200Y31098357D01*
X7319200Y31098357D01*
X7319200Y30877643D01*
X7403663Y30673731D01*
X7559731Y30517663D01*
X7763643Y30433200D01*
X7902215Y30433200D01*
X7755284Y30286269D01*
X7670821Y30082357D01*
X7670821Y29861643D01*
X7755284Y29657731D01*
X7911352Y29501663D01*
X8115264Y29417200D01*
X8335978Y29417200D01*
X8539890Y29501663D01*
X8695958Y29657731D01*
X8780421Y29861643D01*
X8780421Y30082357D01*
X8695958Y30286269D01*
X8570040Y30412187D01*
X23919200Y30412187D01*
X23919200Y29543812D01*
X23968797Y29294474D01*
X24157725Y29011724D01*
X24440475Y28822796D01*
X24774000Y28756454D01*
X25107526Y28822796D01*
X25390276Y29011724D01*
X25579204Y29294474D01*
X25628800Y29543812D01*
X25628800Y30412188D01*
X25588994Y30612312D01*
X27029700Y30612312D01*
X27029700Y30343689D01*
X27093801Y30021430D01*
X27337984Y29655984D01*
X27703429Y29411801D01*
X28134500Y29326056D01*
X28565570Y29411801D01*
X28931016Y29655984D01*
X29175199Y30021429D01*
X29239300Y30343688D01*
X29239300Y30612311D01*
X29175199Y30934570D01*
X28931016Y31300016D01*
X28565571Y31544199D01*
X28134500Y31629944D01*
X27703430Y31544199D01*
X27337984Y31300016D01*
X27093801Y30934571D01*
X27029700Y30612312D01*
X25588994Y30612312D01*
X25579204Y30661526D01*
X25390276Y30944276D01*
X25107525Y31133204D01*
X24774000Y31199546D01*
X24440474Y31133204D01*
X24157724Y30944276D01*
X23968796Y30661525D01*
X23919200Y30412187D01*
X8570040Y30412187D01*
X8539890Y30442337D01*
X8335978Y30526800D01*
X8197406Y30526800D01*
X8344337Y30673731D01*
X8428800Y30877643D01*
X8428800Y31098357D01*
X8344337Y31302269D01*
X8188269Y31458337D01*
X7984357Y31542800D01*
X7763643Y31542800D01*
X7559731Y31458337D01*
X7403663Y31302269D01*
X7319200Y31098357D01*
X-4450200Y31098357D01*
X-4450200Y32246057D01*
X6128400Y32246057D01*
X6128400Y32025343D01*
X6212863Y31821431D01*
X6368931Y31665363D01*
X6572843Y31580900D01*
X6793557Y31580900D01*
X6997469Y31665363D01*
X7128963Y31796857D01*
X11192700Y31796857D01*
X11192700Y31576143D01*
X11277163Y31372231D01*
X11433231Y31216163D01*
X11637143Y31131700D01*
X11857857Y31131700D01*
X12061769Y31216163D01*
X12217837Y31372231D01*
X12250133Y31450201D01*
X14265857Y31450201D01*
X14265857Y31229487D01*
X14350320Y31025575D01*
X14506388Y30869507D01*
X14710300Y30785044D01*
X14931014Y30785044D01*
X15134926Y30869507D01*
X15290994Y31025575D01*
X15375457Y31229487D01*
X15375457Y31450201D01*
X15290994Y31654113D01*
X15134926Y31810181D01*
X14931014Y31894644D01*
X14710300Y31894644D01*
X14506388Y31810181D01*
X14350320Y31654113D01*
X14265857Y31450201D01*
X12250133Y31450201D01*
X12302300Y31576143D01*
X12302300Y31796857D01*
X12217837Y32000769D01*
X12061769Y32156837D01*
X11857857Y32241300D01*
X11637143Y32241300D01*
X11433231Y32156837D01*
X11277163Y32000769D01*
X11192700Y31796857D01*
X7128963Y31796857D01*
X7153537Y31821431D01*
X7238000Y32025343D01*
X7238000Y32246057D01*
X7153537Y32449969D01*
X6997469Y32606037D01*
X6793557Y32690500D01*
X6572843Y32690500D01*
X6368931Y32606037D01*
X6212863Y32449969D01*
X6128400Y32246057D01*
X-4450200Y32246057D01*
X-4450200Y33574857D01*
X4334700Y33574857D01*
X4334700Y33354143D01*
X4419163Y33150231D01*
X4575231Y32994163D01*
X4779143Y32909700D01*
X4999857Y32909700D01*
X5048679Y32929922D01*
X5193305Y32785296D01*
X5397217Y32700833D01*
X5617931Y32700833D01*
X5821843Y32785296D01*
X5977911Y32941364D01*
X6056194Y33130357D01*
X8335186Y33130357D01*
X8335186Y32909643D01*
X8419649Y32705731D01*
X8575717Y32549663D01*
X8779629Y32465200D01*
X9000343Y32465200D01*
X9204255Y32549663D01*
X9360323Y32705731D01*
X9444786Y32909643D01*
X9444786Y33130357D01*
X9418484Y33193857D01*
X12462700Y33193857D01*
X12462700Y32973143D01*
X12547163Y32769231D01*
X12703231Y32613163D01*
X12907143Y32528700D01*
X13127857Y32528700D01*
X13331769Y32613163D01*
X13487837Y32769231D01*
X13572300Y32973143D01*
X13572300Y33193857D01*
X13487837Y33397769D01*
X13331769Y33553837D01*
X13127857Y33638300D01*
X12907143Y33638300D01*
X12703231Y33553837D01*
X12547163Y33397769D01*
X12462700Y33193857D01*
X9418484Y33193857D01*
X9360323Y33334269D01*
X9204255Y33490337D01*
X9000343Y33574800D01*
X8779629Y33574800D01*
X8575717Y33490337D01*
X8419649Y33334269D01*
X8335186Y33130357D01*
X6056194Y33130357D01*
X6062374Y33145276D01*
X6062374Y33365990D01*
X5977911Y33569902D01*
X5821843Y33725970D01*
X5617931Y33810433D01*
X5397217Y33810433D01*
X5348395Y33790211D01*
X5203769Y33934837D01*
X4999857Y34019300D01*
X4779143Y34019300D01*
X4575231Y33934837D01*
X4419163Y33778769D01*
X4334700Y33574857D01*
X-4450200Y33574857D01*
X-4450200Y34146357D01*
X17098200Y34146357D01*
X17098200Y33925643D01*
X17182663Y33721731D01*
X17338731Y33565663D01*
X17542643Y33481200D01*
X17763357Y33481200D01*
X17967269Y33565663D01*
X18123337Y33721731D01*
X18207800Y33925643D01*
X18207800Y34146357D01*
X18155195Y34273357D01*
X27448700Y34273357D01*
X27448700Y34052643D01*
X27533163Y33848731D01*
X27689231Y33692663D01*
X27893143Y33608200D01*
X28113857Y33608200D01*
X28317769Y33692663D01*
X28473837Y33848731D01*
X28558300Y34052643D01*
X28558300Y34273357D01*
X28473837Y34477269D01*
X28317769Y34633337D01*
X28113857Y34717800D01*
X27893143Y34717800D01*
X27689231Y34633337D01*
X27533163Y34477269D01*
X27448700Y34273357D01*
X18155195Y34273357D01*
X18123337Y34350269D01*
X17967269Y34506337D01*
X17763357Y34590800D01*
X17542643Y34590800D01*
X17338731Y34506337D01*
X17182663Y34350269D01*
X17098200Y34146357D01*
X-4450200Y34146357D01*
X-4450200Y35162357D01*
X18368200Y35162357D01*
X18368200Y34941643D01*
X18452663Y34737731D01*
X18608731Y34581663D01*
X18812643Y34497200D01*
X19033357Y34497200D01*
X19237269Y34581663D01*
X19393337Y34737731D01*
X19477800Y34941643D01*
X19477800Y35035357D01*
X20146200Y35035357D01*
X20146200Y34814643D01*
X20230663Y34610731D01*
X20386731Y34454663D01*
X20590643Y34370200D01*
X20811357Y34370200D01*
X21015269Y34454663D01*
X21171337Y34610731D01*
X21255800Y34814643D01*
X21255800Y35035357D01*
X21171337Y35239269D01*
X21015269Y35395337D01*
X20811357Y35479800D01*
X20590643Y35479800D01*
X20386731Y35395337D01*
X20230663Y35239269D01*
X20146200Y35035357D01*
X19477800Y35035357D01*
X19477800Y35162357D01*
X19393337Y35366269D01*
X19237269Y35522337D01*
X19033357Y35606800D01*
X18812643Y35606800D01*
X18608731Y35522337D01*
X18452663Y35366269D01*
X18368200Y35162357D01*
X-4450200Y35162357D01*
X-4450200Y36432357D01*
X6366700Y36432357D01*
X6366700Y36211643D01*
X6451163Y36007731D01*
X6607231Y35851663D01*
X6811143Y35767200D01*
X7031857Y35767200D01*
X7235769Y35851663D01*
X7391837Y36007731D01*
X7476300Y36211643D01*
X7476300Y36432357D01*
X7423807Y36559087D01*
X7432731Y36550163D01*
X7636643Y36465700D01*
X7857357Y36465700D01*
X8061269Y36550163D01*
X8217337Y36706231D01*
X8301800Y36910143D01*
X8301800Y37130857D01*
X8217337Y37334769D01*
X8061269Y37490837D01*
X7857357Y37575300D01*
X7636643Y37575300D01*
X7432731Y37490837D01*
X7276663Y37334769D01*
X7192200Y37130857D01*
X7192200Y36910143D01*
X7244693Y36783413D01*
X7235769Y36792337D01*
X7031857Y36876800D01*
X6811143Y36876800D01*
X6607231Y36792337D01*
X6451163Y36636269D01*
X6366700Y36432357D01*
X-4450200Y36432357D01*
X-4450200Y38019857D01*
X24781700Y38019857D01*
X24781700Y37799143D01*
X24866163Y37595231D01*
X25022231Y37439163D01*
X25226143Y37354700D01*
X25446857Y37354700D01*
X25650769Y37439163D01*
X25806837Y37595231D01*
X25891300Y37799143D01*
X25891300Y38019857D01*
X25806837Y38223769D01*
X25650769Y38379837D01*
X25446857Y38464300D01*
X25226143Y38464300D01*
X25022231Y38379837D01*
X24866163Y38223769D01*
X24781700Y38019857D01*
X-4450200Y38019857D01*
X-4450200Y39162857D01*
X5731700Y39162857D01*
X5731700Y38942143D01*
X5816163Y38738231D01*
X5972231Y38582163D01*
X6176143Y38497700D01*
X6396857Y38497700D01*
X6600769Y38582163D01*
X6756837Y38738231D01*
X6841300Y38942143D01*
X6841300Y39039847D01*
X15701200Y39039847D01*
X15701200Y38819133D01*
X15785663Y38615221D01*
X15941731Y38459153D01*
X16145643Y38374690D01*
X16366357Y38374690D01*
X16570269Y38459153D01*
X16726337Y38615221D01*
X16810800Y38819133D01*
X16810800Y39039847D01*
X16726337Y39243759D01*
X16570269Y39399827D01*
X16366357Y39484290D01*
X16145643Y39484290D01*
X15941731Y39399827D01*
X15785663Y39243759D01*
X15701200Y39039847D01*
X6841300Y39039847D01*
X6841300Y39162857D01*
X6756837Y39366769D01*
X6600769Y39522837D01*
X6396857Y39607300D01*
X6176143Y39607300D01*
X5972231Y39522837D01*
X5816163Y39366769D01*
X5731700Y39162857D01*
X-4450200Y39162857D01*
X-4450200Y39734357D01*
X24718200Y39734357D01*
X24718200Y39513643D01*
X24802663Y39309731D01*
X24958731Y39153663D01*
X25162643Y39069200D01*
X25383357Y39069200D01*
X25587269Y39153663D01*
X25743337Y39309731D01*
X25827800Y39513643D01*
X25827800Y39734357D01*
X25743337Y39938269D01*
X25587269Y40094337D01*
X25383357Y40178800D01*
X25162643Y40178800D01*
X24958731Y40094337D01*
X24802663Y39938269D01*
X24718200Y39734357D01*
X-4450200Y39734357D01*
X-4450200Y40940857D01*
X14494700Y40940857D01*
X14494700Y40720143D01*
X14579163Y40516231D01*
X14735231Y40360163D01*
X14939143Y40275700D01*
X15159857Y40275700D01*
X15363769Y40360163D01*
X15519837Y40516231D01*
X15604300Y40720143D01*
X15604300Y40940857D01*
X15519837Y41144769D01*
X15363769Y41300837D01*
X15159857Y41385300D01*
X14939143Y41385300D01*
X14735231Y41300837D01*
X14579163Y41144769D01*
X14494700Y40940857D01*
X-4450200Y40940857D01*
X-4450200Y44052357D01*
X-364300Y44052357D01*
X-364300Y43831643D01*
X-279837Y43627731D01*
X-123769Y43471663D01*
X80143Y43387200D01*
X300857Y43387200D01*
X504769Y43471663D01*
X660837Y43627731D01*
X745300Y43831643D01*
X745300Y44052357D01*
X660837Y44256269D01*
X504769Y44412337D01*
X300857Y44496800D01*
X80143Y44496800D01*
X-123769Y44412337D01*
X-279837Y44256269D01*
X-364300Y44052357D01*
X-4450200Y44052357D01*
X-4450200Y45893857D01*
X2556700Y45893857D01*
X2556700Y45673143D01*
X2641163Y45469231D01*
X2797231Y45313163D01*
X3001143Y45228700D01*
X3221857Y45228700D01*
X3425769Y45313163D01*
X3581837Y45469231D01*
X3666300Y45673143D01*
X3666300Y45893857D01*
X4398200Y45893857D01*
X4398200Y45673143D01*
X4482663Y45469231D01*
X4638731Y45313163D01*
X4842643Y45228700D01*
X5063357Y45228700D01*
X5267269Y45313163D01*
X5423337Y45469231D01*
X5467709Y45576357D01*
X23257700Y45576357D01*
X23257700Y45355643D01*
X23342163Y45151731D01*
X23498231Y44995663D01*
X23702143Y44911200D01*
X23922857Y44911200D01*
X24126769Y44995663D01*
X24282837Y45151731D01*
X24367300Y45355643D01*
X24367300Y45576357D01*
X24282837Y45780269D01*
X24126769Y45936337D01*
X23922857Y46020800D01*
X23702143Y46020800D01*
X23498231Y45936337D01*
X23342163Y45780269D01*
X23257700Y45576357D01*
X5467709Y45576357D01*
X5507800Y45673143D01*
X5507800Y45893857D01*
X5423337Y46097769D01*
X5267269Y46253837D01*
X5063357Y46338300D01*
X4842643Y46338300D01*
X4638731Y46253837D01*
X4482663Y46097769D01*
X4398200Y45893857D01*
X3666300Y45893857D01*
X3581837Y46097769D01*
X3425769Y46253837D01*
X3221857Y46338300D01*
X3001143Y46338300D01*
X2797231Y46253837D01*
X2641163Y46097769D01*
X2556700Y45893857D01*
X-4450200Y45893857D01*
X-4450200Y46846357D01*
X16700Y46846357D01*
X16700Y46625643D01*
X101163Y46421731D01*
X257231Y46265663D01*
X461143Y46181200D01*
X681857Y46181200D01*
X885769Y46265663D01*
X1041837Y46421731D01*
X1126300Y46625643D01*
X1126300Y46846357D01*
X1041837Y47050269D01*
X885769Y47206337D01*
X681857Y47290800D01*
X461143Y47290800D01*
X257231Y47206337D01*
X101163Y47050269D01*
X16700Y46846357D01*
X-4450200Y46846357D01*
X-4450200Y47671857D01*
X6112700Y47671857D01*
X6112700Y47451143D01*
X6197163Y47247231D01*
X6353231Y47091163D01*
X6557143Y47006700D01*
X6777857Y47006700D01*
X6981769Y47091163D01*
X7137837Y47247231D01*
X7222300Y47451143D01*
X7222300Y47671857D01*
X7137837Y47875769D01*
X6981769Y48031837D01*
X6839041Y48090957D01*
X28058300Y48090957D01*
X28058300Y47870243D01*
X28142763Y47666331D01*
X28298831Y47510263D01*
X28502743Y47425800D01*
X28723457Y47425800D01*
X28927369Y47510263D01*
X29083437Y47666331D01*
X29167900Y47870243D01*
X29167900Y48090957D01*
X29083437Y48294869D01*
X28927369Y48450937D01*
X28723457Y48535400D01*
X28502743Y48535400D01*
X28298831Y48450937D01*
X28142763Y48294869D01*
X28058300Y48090957D01*
X6839041Y48090957D01*
X6777857Y48116300D01*
X6557143Y48116300D01*
X6353231Y48031837D01*
X6197163Y47875769D01*
X6112700Y47671857D01*
X-4450200Y47671857D01*
X-4450200Y50389657D01*
X19828700Y50389657D01*
X19828700Y50168943D01*
X19913163Y49965031D01*
X20069231Y49808963D01*
X20273143Y49724500D01*
X20493857Y49724500D01*
X20697769Y49808963D01*
X20853837Y49965031D01*
X20938300Y50168943D01*
X20938300Y50389657D01*
X20853837Y50593569D01*
X20697769Y50749637D01*
X20493857Y50834100D01*
X20273143Y50834100D01*
X20069231Y50749637D01*
X19913163Y50593569D01*
X19828700Y50389657D01*
X-4450200Y50389657D01*
X-4450200Y55863357D01*
X-1824800Y55863357D01*
X-1824800Y55642643D01*
X-1740337Y55438731D01*
X-1584269Y55282663D01*
X-1380357Y55198200D01*
X-1159643Y55198200D01*
X-955731Y55282663D01*
X-799663Y55438731D01*
X-762000Y55529658D01*
X-724337Y55438731D01*
X-568269Y55282663D01*
X-364357Y55198200D01*
X-143643Y55198200D01*
X60269Y55282663D01*
X216337Y55438731D01*
X254000Y55529658D01*
X291663Y55438731D01*
X447731Y55282663D01*
X651643Y55198200D01*
X872357Y55198200D01*
X1076269Y55282663D01*
X1232337Y55438731D01*
X1270000Y55529658D01*
X1307663Y55438731D01*
X1463731Y55282663D01*
X1667643Y55198200D01*
X1888357Y55198200D01*
X2092269Y55282663D01*
X2248337Y55438731D01*
X2286000Y55529658D01*
X2323663Y55438731D01*
X2479731Y55282663D01*
X2683643Y55198200D01*
X2904357Y55198200D01*
X3108269Y55282663D01*
X3264337Y55438731D01*
X3348800Y55642643D01*
X3348800Y55863357D01*
X5541200Y55863357D01*
X5541200Y55642643D01*
X5625663Y55438731D01*
X5781731Y55282663D01*
X5985643Y55198200D01*
X6206357Y55198200D01*
X6410269Y55282663D01*
X6566337Y55438731D01*
X6604000Y55529658D01*
X6641663Y55438731D01*
X6797731Y55282663D01*
X7001643Y55198200D01*
X7222357Y55198200D01*
X7426269Y55282663D01*
X7582337Y55438731D01*
X7620000Y55529658D01*
X7657663Y55438731D01*
X7813731Y55282663D01*
X8017643Y55198200D01*
X8238357Y55198200D01*
X8442269Y55282663D01*
X8598337Y55438731D01*
X8636000Y55529658D01*
X8673663Y55438731D01*
X8829731Y55282663D01*
X9033643Y55198200D01*
X9254357Y55198200D01*
X9458269Y55282663D01*
X9614337Y55438731D01*
X9698800Y55642643D01*
X9698800Y55863357D01*
X9614337Y56067269D01*
X9458269Y56223337D01*
X9254357Y56307800D01*
X9033643Y56307800D01*
X8829731Y56223337D01*
X8673663Y56067269D01*
X8636000Y55976342D01*
X8598337Y56067269D01*
X8442269Y56223337D01*
X8238357Y56307800D01*
X8017643Y56307800D01*
X7813731Y56223337D01*
X7657663Y56067269D01*
X7620000Y55976342D01*
X7582337Y56067269D01*
X7426269Y56223337D01*
X7222357Y56307800D01*
X7001643Y56307800D01*
X6797731Y56223337D01*
X6641663Y56067269D01*
X6604000Y55976342D01*
X6566337Y56067269D01*
X6410269Y56223337D01*
X6206357Y56307800D01*
X5985643Y56307800D01*
X5781731Y56223337D01*
X5625663Y56067269D01*
X5541200Y55863357D01*
X3348800Y55863357D01*
X3264337Y56067269D01*
X3108269Y56223337D01*
X2904357Y56307800D01*
X2683643Y56307800D01*
X2479731Y56223337D01*
X2323663Y56067269D01*
X2286000Y55976342D01*
X2248337Y56067269D01*
X2092269Y56223337D01*
X1888357Y56307800D01*
X1667643Y56307800D01*
X1463731Y56223337D01*
X1307663Y56067269D01*
X1270000Y55976342D01*
X1232337Y56067269D01*
X1076269Y56223337D01*
X872357Y56307800D01*
X651643Y56307800D01*
X447731Y56223337D01*
X291663Y56067269D01*
X254000Y55976342D01*
X216337Y56067269D01*
X60269Y56223337D01*
X-143643Y56307800D01*
X-364357Y56307800D01*
X-568269Y56223337D01*
X-724337Y56067269D01*
X-762000Y55976342D01*
X-799663Y56067269D01*
X-955731Y56223337D01*
X-1159643Y56307800D01*
X-1380357Y56307800D01*
X-1584269Y56223337D01*
X-1740337Y56067269D01*
X-1824800Y55863357D01*
X-4450200Y55863357D01*
X-4450200Y59292357D01*
X11383200Y59292357D01*
X11383200Y59071643D01*
X11467663Y58867731D01*
X11623731Y58711663D01*
X11827643Y58627200D01*
X12048357Y58627200D01*
X12252269Y58711663D01*
X12408337Y58867731D01*
X12492800Y59071643D01*
X12492800Y59292357D01*
X12408337Y59496269D01*
X12252269Y59652337D01*
X12048357Y59736800D01*
X11827643Y59736800D01*
X11623731Y59652337D01*
X11467663Y59496269D01*
X11383200Y59292357D01*
X-4450200Y59292357D01*
X-4450200Y60054357D01*
X7636700Y60054357D01*
X7636700Y59833643D01*
X7721163Y59629731D01*
X7877231Y59473663D01*
X8081143Y59389200D01*
X8301857Y59389200D01*
X8505769Y59473663D01*
X8661837Y59629731D01*
X8746300Y59833643D01*
X8746300Y60054357D01*
X8661837Y60258269D01*
X8505769Y60414337D01*
X8301857Y60498800D01*
X8081143Y60498800D01*
X7877231Y60414337D01*
X7721163Y60258269D01*
X7636700Y60054357D01*
X-4450200Y60054357D01*
X-4450200Y61957514D01*
X-4302871Y61601831D01*
X-3837369Y61136329D01*
X-3229160Y60884400D01*
X-2570840Y60884400D01*
X-1962631Y61136329D01*
X-1497129Y61601831D01*
X-1296432Y62086357D01*
X16082200Y62086357D01*
X16082200Y61865643D01*
X16166663Y61661731D01*
X16322731Y61505663D01*
X16526643Y61421200D01*
X16747357Y61421200D01*
X16951269Y61505663D01*
X17107337Y61661731D01*
X17191800Y61865643D01*
X17191800Y62022857D01*
X19066700Y62022857D01*
X19066700Y61802143D01*
X19151163Y61598231D01*
X19307231Y61442163D01*
X19511143Y61357700D01*
X19731857Y61357700D01*
X19935769Y61442163D01*
X20091837Y61598231D01*
X20176300Y61802143D01*
X20176300Y62022857D01*
X20091837Y62226769D01*
X19935769Y62382837D01*
X19731857Y62467300D01*
X19511143Y62467300D01*
X19307231Y62382837D01*
X19151163Y62226769D01*
X19066700Y62022857D01*
X17191800Y62022857D01*
X17191800Y62086357D01*
X17107337Y62290269D01*
X16951269Y62446337D01*
X16747357Y62530800D01*
X16526643Y62530800D01*
X16322731Y62446337D01*
X16166663Y62290269D01*
X16082200Y62086357D01*
X-1296432Y62086357D01*
X-1245200Y62210040D01*
X-1245200Y62868360D01*
X-1497129Y63476569D01*
X-1962631Y63942071D01*
X-2570840Y64194000D01*
X-3229160Y64194000D01*
X-3837369Y63942071D01*
X-4302871Y63476569D01*
X-4450200Y63120886D01*
X-4450200Y63732595D01*
X-4396116Y64004493D01*
X-4263286Y64203287D01*
X-4064493Y64336116D01*
X-3792595Y64390200D01*
X28632595Y64390200D01*
X28904493Y64336116D01*
G04 #@! TD*
M02*
