M48
;DRILL file {KiCad (5.0.0)} date 01/02/19 14:49:58
;FORMAT={-:-/ absolute / inch / decimal}
FMAT,2
INCH,TZ
T1C0.0118
T2C0.0197
T3C0.0472
T4C0.1063
%
G90
G05
M72
T1
X-0.1542Y0.7891
X-0.1147Y-0.0149
X-0.1067Y1.2691
X-0.0942Y0.4616
X-0.0942Y0.4116
X-0.0667Y0.8391
X-0.0667Y0.7391
X-0.0567Y2.2041
X-0.0567Y2.1541
X-0.0242Y0.0641
X-0.0242Y0.0291
X-0.0167Y2.2041
X-0.0167Y2.1541
X0.0008Y1.7391
X0.0158Y1.8491
X0.0233Y2.2041
X0.0233Y2.1541
X0.0633Y2.2041
X0.0633Y2.1541
X0.0843Y-0.0359
X0.0913Y0.3624
X0.1033Y2.2041
X0.1033Y2.1541
X0.1033Y1.709
X0.1073Y-0.0719
X0.1158Y1.8116
X0.1608Y1.2816
X0.1708Y1.709
X0.1858Y1.3266
X0.1883Y1.8116
X0.2033Y0.6591
X0.2058Y0.4591
X0.2058Y0.0766
X0.2058Y0.0316
X0.2083Y0.4141
X0.2101Y1.3183
X0.2333Y2.2041
X0.2333Y2.1541
X0.2408Y1.5466
X0.2558Y1.8816
X0.2564Y1.2742
X0.2658Y1.4391
X0.2733Y2.2041
X0.2733Y2.1541
X0.2983Y1.4666
X0.3033Y1.2291
X0.3133Y2.5091
X0.3133Y2.2041
X0.3133Y2.1541
X0.3158Y2.3691
X0.3172Y1.1891
X0.3208Y1.3316
X0.3433Y1.3091
X0.3508Y1.5266
X0.3533Y2.2041
X0.3533Y2.1541
X0.4233Y1.8491
X0.4558Y1.2566
X0.4633Y2.3391
X0.4633Y0.4191
X0.4658Y0.5541
X0.4858Y0.9416
X0.4883Y1.01
X0.5058Y1.3116
X0.5133Y0.5866
X0.5183Y0.7066
X0.5213Y1.4917
X0.5333Y0.9791
X0.5358Y1.0791
X0.5583Y0.1406
X0.5733Y1.3791
X0.5768Y1.2429
X0.5858Y1.6166
X0.5953Y0.3251
X0.5953Y0.2651
X0.6183Y0.7616
X0.6253Y0.2951
X0.6258Y0.1421
X0.6333Y1.5417
X0.6483Y2.4491
X0.6533Y1.0666
X0.6553Y0.3251
X0.6553Y0.2651
X0.6658Y0.6791
X0.6808Y1.0291
X0.6883Y1.7005
X0.6883Y1.3491
X0.6883Y0.1421
X0.6933Y2.4541
X0.7133Y0.5566
X0.7153Y0.6907
X0.7153Y0.3251
X0.7153Y0.2651
X0.7383Y1.3891
X0.7453Y0.2951
X0.7533Y0.1416
X0.7658Y2.4466
X0.7658Y0.6841
X0.7658Y0.5616
X0.7753Y0.3251
X0.7753Y0.2651
X0.7883Y1.3191
X0.7883Y0.6216
X0.7958Y1.9886
X0.7983Y0.6566
X0.8083Y1.3841
X0.8083Y0.9666
X0.8183Y0.1406
X0.8333Y0.6241
X0.8408Y1.1316
X0.8458Y0.3466
X0.8683Y2.0241
X0.8708Y0.5816
X0.8858Y1.1041
X0.9033Y0.4691
X0.9108Y1.0616
X0.9133Y0.2191
X0.9258Y0.9966
X0.9308Y1.8966
X0.9308Y1.8491
X0.9308Y1.7991
X0.9396Y1.08
X0.9458Y0.6566
X0.9533Y0.4691
X0.9533Y0.2191
X0.9883Y1.5691
X0.9908Y1.5016
X0.9908Y1.4416
X1.0033Y0.4691
X1.0108Y0.0666
X1.0408Y1.8116
X1.0408Y1.6791
X1.0508Y1.1516
X1.0533Y0.4691
X1.0633Y0.0791
X1.0708Y0.7906
X1.0908Y1.2916
X1.0958Y1.3541
X1.1158Y0.5516
X1.1158Y0.4266
X1.1198Y1.8981
T4
X1.0918Y-0.139
X-0.1209Y-0.139
X-0.1209Y2.4712
X1.0918Y2.4712
T2
X0.9687Y1.1755G85X0.9687Y1.2031
G05
X0.9687Y0.955G85X0.9687Y0.9826
G05
X1.0533Y1.0574G85X1.0533Y1.1007
G05
T3
X1.101Y1.2104G85X1.101Y1.2076
G05
X1.101Y0.9505G85X1.101Y0.9478
G05
T0
M30
