M48
;DRILL file {KiCad (5.0.0)} date 01/02/19 14:39:19
;FORMAT={-:-/ absolute / inch / decimal}
FMAT,2
INCH,TZ
T1C0.0118
T2C0.0197
T3C0.0472
T4C0.1063
%
G90
G05
M72
T1
X-0.1475Y0.78
X-0.108Y-0.024
X-0.1Y1.26
X-0.0875Y0.4525
X-0.0875Y0.4025
X-0.06Y0.83
X-0.06Y0.73
X-0.05Y2.195
X-0.05Y2.145
X-0.0175Y0.055
X-0.0175Y0.02
X-0.01Y2.195
X-0.01Y2.145
X0.0075Y1.73
X0.0225Y1.84
X0.03Y2.195
X0.03Y2.145
X0.07Y2.195
X0.07Y2.145
X0.091Y-0.045
X0.098Y0.3534
X0.11Y2.195
X0.11Y2.145
X0.11Y1.7
X0.114Y-0.081
X0.1225Y1.8025
X0.1675Y1.2725
X0.1775Y1.7
X0.1925Y1.3175
X0.195Y1.8025
X0.21Y0.65
X0.2125Y0.45
X0.2125Y0.0675
X0.2125Y0.0225
X0.215Y0.405
X0.2168Y1.3093
X0.24Y2.195
X0.24Y2.145
X0.2475Y1.5375
X0.2625Y1.8725
X0.2631Y1.2652
X0.2725Y1.43
X0.28Y2.195
X0.28Y2.145
X0.305Y1.4575
X0.31Y1.22
X0.32Y2.5
X0.32Y2.195
X0.32Y2.145
X0.3225Y2.36
X0.3238Y1.18
X0.3275Y1.3225
X0.35Y1.3
X0.3575Y1.5175
X0.36Y2.195
X0.36Y2.145
X0.43Y1.84
X0.4625Y1.2475
X0.47Y2.33
X0.47Y0.41
X0.4725Y0.545
X0.4925Y0.9325
X0.495Y1.001
X0.5125Y1.3025
X0.52Y0.5775
X0.525Y0.6975
X0.528Y1.4826
X0.54Y0.97
X0.5425Y1.07
X0.565Y0.1315
X0.58Y1.37
X0.5835Y1.2339
X0.5925Y1.6075
X0.602Y0.316
X0.602Y0.256
X0.625Y0.7525
X0.632Y0.286
X0.6325Y0.1331
X0.64Y1.5327
X0.655Y2.44
X0.66Y1.0575
X0.662Y0.316
X0.662Y0.256
X0.6725Y0.67
X0.6875Y1.02
X0.695Y1.6915
X0.695Y1.34
X0.695Y0.1331
X0.7Y2.445
X0.72Y0.5475
X0.722Y0.6817
X0.722Y0.316
X0.722Y0.256
X0.745Y1.38
X0.752Y0.286
X0.76Y0.1325
X0.7725Y2.4375
X0.7725Y0.675
X0.7725Y0.5525
X0.782Y0.316
X0.782Y0.256
X0.795Y1.31
X0.795Y0.6125
X0.8025Y1.9795
X0.805Y0.6475
X0.815Y1.375
X0.815Y0.9575
X0.825Y0.1315
X0.84Y0.615
X0.8475Y1.1225
X0.8525Y0.3375
X0.875Y2.015
X0.8775Y0.5725
X0.8925Y1.095
X0.91Y0.46
X0.9175Y1.0525
X0.92Y0.21
X0.9325Y0.9875
X0.9375Y1.8875
X0.9375Y1.84
X0.9375Y1.79
X0.9463Y1.071
X0.9525Y0.6475
X0.96Y0.46
X0.96Y0.21
X0.995Y1.56
X0.9975Y1.4925
X0.9975Y1.4325
X1.01Y0.46
X1.0175Y0.0575
X1.0475Y1.8025
X1.0475Y1.67
X1.0575Y1.1425
X1.06Y0.46
X1.07Y0.07
X1.0775Y0.7815
X1.0975Y1.2825
X1.1025Y1.345
X1.1225Y0.5425
X1.1225Y0.4175
X1.1265Y1.889
T4
X1.0985Y-0.1481
X-0.1142Y-0.1481
X-0.1142Y2.4622
X1.0985Y2.4622
T2
X0.9754Y1.1665G85X0.9754Y1.194
G05
X0.9754Y0.946G85X0.9754Y0.9735
G05
X1.06Y1.0483G85X1.06Y1.0917
G05
T3
X1.1077Y1.2013G85X1.1077Y1.1985
G05
X1.1077Y0.9415G85X1.1077Y0.9387
G05
T0
M30
