G04 #@! TF.GenerationSoftware,KiCad,Pcbnew,(5.0.0)*
G04 #@! TF.CreationDate,2018-12-26T17:42:35-06:00*
G04 #@! TF.ProjectId,fk-sonar,666B2D736F6E61722E6B696361645F70,0.1*
G04 #@! TF.SameCoordinates,PX791ddc0PY791ddc0*
G04 #@! TF.FileFunction,Copper,L4,Bot,Signal*
G04 #@! TF.FilePolarity,Positive*
%FSLAX46Y46*%
G04 Gerber Fmt 4.6, Leading zero omitted, Abs format (unit mm)*
G04 Created by KiCad (PCBNEW (5.0.0)) date 12/26/18 17:42:35*
%MOMM*%
%LPD*%
G01*
G04 APERTURE LIST*
G04 #@! TA.AperFunction,SMDPad,CuDef*
%ADD10R,1.400000X1.600000*%
G04 #@! TD*
G04 #@! TA.AperFunction,SMDPad,CuDef*
%ADD11R,1.350000X0.400000*%
G04 #@! TD*
G04 #@! TA.AperFunction,ComponentPad*
%ADD12O,1.600000X1.651000*%
G04 #@! TD*
G04 #@! TA.AperFunction,SMDPad,CuDef*
%ADD13R,1.400000X1.900000*%
G04 #@! TD*
G04 #@! TA.AperFunction,ComponentPad*
%ADD14O,1.100000X1.800000*%
G04 #@! TD*
G04 #@! TA.AperFunction,ComponentPad*
%ADD15O,1.100000X2.200000*%
G04 #@! TD*
G04 #@! TA.AperFunction,SMDPad,CuDef*
%ADD16R,1.600200X1.168400*%
G04 #@! TD*
G04 #@! TA.AperFunction,ViaPad*
%ADD17C,0.500000*%
G04 #@! TD*
G04 #@! TA.AperFunction,Conductor*
%ADD18C,0.508000*%
G04 #@! TD*
G04 #@! TA.AperFunction,Conductor*
%ADD19C,0.254000*%
G04 #@! TD*
G04 #@! TA.AperFunction,Conductor*
%ADD20C,0.203200*%
G04 #@! TD*
G04 APERTURE END LIST*
D10*
G04 #@! TO.P,J3,6*
G04 #@! TO.N,Net-(J3-Pad6)*
X26384500Y30378000D03*
D11*
G04 #@! TO.P,J3,5*
G04 #@! TO.N,GND*
X25464500Y25878000D03*
G04 #@! TO.P,J3,4*
G04 #@! TO.N,Net-(J3-Pad4)*
X25464500Y26528000D03*
G04 #@! TO.P,J3,1*
G04 #@! TO.N,VUSB*
X25464500Y28478000D03*
G04 #@! TO.P,J3,2*
G04 #@! TO.N,/USB-*
X25464500Y27828000D03*
D12*
G04 #@! TO.P,J3,*
G04 #@! TO.N,*
X28134500Y23878000D03*
D13*
G04 #@! TO.P,J3,8*
G04 #@! TO.N,Net-(J3-Pad8)*
X28384500Y28378000D03*
D12*
G04 #@! TO.P,J3,*
G04 #@! TO.N,*
X28134500Y30478000D03*
D13*
G04 #@! TO.P,J3,9*
G04 #@! TO.N,Net-(J3-Pad9)*
X28384500Y25978000D03*
D11*
G04 #@! TO.P,J3,3*
G04 #@! TO.N,/USB+*
X25464500Y27178000D03*
D10*
G04 #@! TO.P,J3,7*
G04 #@! TO.N,Net-(C13-Pad1)*
X26384500Y23978000D03*
G04 #@! TD*
D14*
G04 #@! TO.P,J4,6*
G04 #@! TO.N,Net-(C13-Pad1)*
X24774000Y24378000D03*
G04 #@! TO.P,J4,7*
G04 #@! TO.N,Net-(J4-Pad7)*
X24774000Y29978000D03*
D15*
G04 #@! TO.P,J4,8*
G04 #@! TO.N,Net-(J4-Pad8)*
X26924000Y27178000D03*
G04 #@! TD*
D16*
G04 #@! TO.P,J5,2*
G04 #@! TO.N,/PERIPH_3V3*
X28511500Y11366500D03*
G04 #@! TO.P,J5,1*
G04 #@! TO.N,3V3*
X28511500Y12890500D03*
G04 #@! TD*
G04 #@! TO.P,J7,1*
G04 #@! TO.N,3V3*
X11938000Y12890500D03*
G04 #@! TO.P,J7,2*
G04 #@! TO.N,/SENSOR_3V3*
X11938000Y11366500D03*
G04 #@! TD*
D17*
G04 #@! TO.N,GND*
X9144000Y54483000D03*
X8128000Y54483000D03*
X7112000Y54483000D03*
X6096000Y54483000D03*
X2794000Y54483000D03*
X1778000Y54483000D03*
X762000Y54483000D03*
X-254000Y54483000D03*
X-1270000Y54483000D03*
X17780000Y62103000D03*
X10922000Y46736000D03*
X8128000Y63500000D03*
X-1524000Y21082000D03*
X-2540000Y32004000D03*
X14732000Y34798000D03*
X27178000Y1778000D03*
X19621500Y17145000D03*
X19621500Y14033500D03*
X20193000Y15557500D03*
X17653000Y3380000D03*
X16065500Y3380000D03*
X19304000Y3365500D03*
X21653500Y8572500D03*
X25336500Y36385500D03*
X27876500Y32575500D03*
X20193000Y33274000D03*
X2794000Y43179100D03*
X4508500Y43179100D03*
X4254500Y32321500D03*
X8318500Y33591500D03*
X5397500Y571500D03*
X-444500Y1397000D03*
X-2222500Y10223500D03*
X5461000Y10287000D03*
X12509500Y23685500D03*
X9080500Y38544500D03*
X13411776Y37658715D03*
X17653000Y42963200D03*
X14351000Y3341000D03*
X20955000Y3341000D03*
X21526500Y28511500D03*
X23685500Y25082500D03*
X17462500Y25908000D03*
X16764000Y26860500D03*
X20701000Y24320500D03*
X23812500Y46736000D03*
X23812500Y47942500D03*
X22225000Y51181000D03*
X24193500Y16446500D03*
X27368500Y19851000D03*
X13335000Y17716500D03*
X26606500Y45783500D03*
X26606500Y42418000D03*
G04 #@! TO.N,3V3*
X-1270000Y55753000D03*
X-254000Y55753000D03*
X762000Y55753000D03*
X1778000Y55753000D03*
X2794000Y55753000D03*
X6096000Y55753000D03*
X7112000Y55753000D03*
X8128000Y55753000D03*
X9144000Y55753000D03*
X16637000Y61976000D03*
X11938000Y59182000D03*
X-1524000Y18542000D03*
X18338800Y17314400D03*
X18288000Y13906500D03*
X22288500Y14541500D03*
X13208000Y14668500D03*
X25336500Y37909500D03*
X28003500Y34163000D03*
X13779500Y27178000D03*
X13716000Y24638000D03*
X12573000Y25424500D03*
X12001500Y13843000D03*
X28511500Y13779500D03*
X571500Y46736000D03*
X6667500Y47561500D03*
X190500Y43942000D03*
X6683200Y32135700D03*
X15049500Y40830500D03*
X18923000Y35052000D03*
X23812500Y45466000D03*
X17653000Y34036000D03*
X20447000Y16446500D03*
X21336000Y15621000D03*
G04 #@! TO.N,/RST*
X20383500Y50279300D03*
X28613100Y47980600D03*
G04 #@! TO.N,/RESET*
X16256000Y38929490D03*
X25273000Y39624000D03*
G04 #@! TO.N,/A1*
X6286500Y39052500D03*
X-3746500Y19812000D03*
G04 #@! TO.N,/A3*
X7747000Y37020500D03*
X8191500Y59944000D03*
G04 #@! TO.N,/MOSI*
X26924000Y11684000D03*
X8889986Y33020000D03*
G04 #@! TO.N,/SCK*
X25654000Y11684000D03*
X8225621Y29972000D03*
G04 #@! TO.N,/MISO*
X24384000Y5334000D03*
X7874000Y30988000D03*
G04 #@! TO.N,/USB-*
X23304500Y26733500D03*
G04 #@! TO.N,/USB+*
X24034921Y27202441D03*
G04 #@! TO.N,VUSB*
X26860500Y29019500D03*
G04 #@! TO.N,/D13*
X19621500Y61912500D03*
X11747500Y31686500D03*
G04 #@! TO.N,/SCL1*
X2489200Y8976200D03*
X2311402Y-1143000D03*
G04 #@! TO.N,/SDA1*
X2895600Y-2057400D03*
X-2743200Y-609600D03*
X5334000Y16510000D03*
G04 #@! TO.N,/SDA3*
X4889500Y33464500D03*
X3111500Y45783500D03*
G04 #@! TO.N,/SCL3*
X4953000Y45783500D03*
X5507574Y33255633D03*
G04 #@! TO.N,/D6_FLASH_CS*
X23368000Y5334000D03*
X14820657Y31339844D03*
G04 #@! TO.N,/PERIPH_3V3*
X19862800Y8026400D03*
X18338800Y8026400D03*
X18338800Y6502400D03*
X19862800Y6502400D03*
X19100800Y7264400D03*
X24384000Y11684000D03*
X23114000Y11684000D03*
X28511500Y10604500D03*
X25844500Y1460500D03*
G04 #@! TO.N,/D8_PERIPH_EN*
X17081500Y17018000D03*
X6921500Y36322000D03*
G04 #@! TO.N,/SENSOR_3V3*
X15290800Y8026400D03*
X16814800Y8026400D03*
X16814800Y6502400D03*
X15290800Y6502400D03*
X16052800Y7264400D03*
X11938000Y10414000D03*
X5397500Y1714500D03*
X-444500Y508000D03*
X-2222500Y11493500D03*
X5397500Y11430000D03*
G04 #@! TO.N,Net-(J3-Pad4)*
X20701000Y34925000D03*
X22669500Y27813000D03*
G04 #@! TO.N,/D7_SENSOR_EN*
X13017500Y33083500D03*
X15875000Y19113496D03*
G04 #@! TD*
D18*
G04 #@! TO.N,GND*
X25464500Y25878000D02*
X24481000Y25878000D01*
X24481000Y25878000D02*
X23685500Y25082500D01*
G04 #@! TO.N,3V3*
X11938000Y12890500D02*
X11938000Y13779500D01*
X11938000Y13779500D02*
X12001500Y13843000D01*
X28511500Y12890500D02*
X28511500Y13779500D01*
D19*
G04 #@! TO.N,/RST*
X26314400Y50279300D02*
X28613100Y47980600D01*
X20383500Y50279300D02*
X26314400Y50279300D01*
G04 #@! TO.N,/RESET*
X24578490Y38929490D02*
X25273000Y39624000D01*
X16256000Y38929490D02*
X24578490Y38929490D01*
D20*
G04 #@! TO.N,/A1*
X6286500Y38698947D02*
X6350000Y38635447D01*
X6350000Y38635447D02*
X6350000Y32548422D01*
X6286500Y39052500D02*
X6286500Y38698947D01*
X6350000Y32548422D02*
X-3746500Y22451922D01*
X-3746500Y20165553D02*
X-3746500Y19812000D01*
X-3746500Y22451922D02*
X-3746500Y20165553D01*
G04 #@! TO.N,/A3*
X9584501Y38858001D02*
X12319000Y41592500D01*
X12319000Y55816500D02*
X8441499Y59694001D01*
X8441499Y59694001D02*
X8191500Y59944000D01*
X12319000Y41592500D02*
X12319000Y55816500D01*
X9584501Y38302579D02*
X9584501Y38858001D01*
X8302422Y37020500D02*
X9584501Y38302579D01*
X7747000Y37020500D02*
X8302422Y37020500D01*
G04 #@! TO.N,/MOSI*
X8889986Y25336514D02*
X8889986Y32666447D01*
X8889986Y32666447D02*
X8889986Y33020000D01*
X26924000Y11684000D02*
X26924000Y12192000D01*
X15370998Y18808078D02*
X15370998Y18855502D01*
X15633078Y18545998D02*
X15370998Y18808078D01*
X15370998Y18855502D02*
X8889986Y25336514D01*
X16189146Y18554722D02*
X16180422Y18545998D01*
X26924000Y12192000D02*
X20561278Y18554722D01*
X16180422Y18545998D02*
X15633078Y18545998D01*
X20561278Y18554722D02*
X16189146Y18554722D01*
G04 #@! TO.N,/SCK*
X8475620Y29722001D02*
X8225621Y29972000D01*
X8475620Y25247971D02*
X8475620Y29722001D01*
X25654000Y11684000D02*
X25654000Y12954000D01*
X25654000Y12954000D02*
X20408889Y18199111D01*
X16336444Y18199111D02*
X16327720Y18190387D01*
X15015387Y18660780D02*
X15015387Y18708204D01*
X20408889Y18199111D02*
X16336444Y18199111D01*
X16327720Y18190387D02*
X15485780Y18190387D01*
X15485780Y18190387D02*
X15015387Y18660780D01*
X15015387Y18708204D02*
X8475620Y25247971D01*
G04 #@! TO.N,/MISO*
X25146000Y6096000D02*
X25146000Y12954000D01*
X15338482Y17834776D02*
X14659776Y18513482D01*
X16475018Y17834776D02*
X15338482Y17834776D01*
X7874000Y25346682D02*
X7874000Y29226062D01*
X14659776Y18513482D02*
X14659776Y18560906D01*
X7624001Y30738001D02*
X7874000Y30988000D01*
X16483742Y17843500D02*
X16475018Y17834776D01*
X14659776Y18560906D02*
X7874000Y25346682D01*
X7874000Y29226062D02*
X7624001Y29476061D01*
X7624001Y29476061D02*
X7624001Y30738001D01*
X25146000Y12954000D02*
X20256500Y17843500D01*
X24384000Y5334000D02*
X25146000Y6096000D01*
X20256500Y17843500D02*
X16483742Y17843500D01*
G04 #@! TO.N,/USB-*
X23304500Y27357828D02*
X23304500Y27087053D01*
X25464500Y27828000D02*
X23774672Y27828000D01*
X23774672Y27828000D02*
X23304500Y27357828D01*
X23304500Y27087053D02*
X23304500Y26733500D01*
G04 #@! TO.N,/USB+*
X24059362Y27178000D02*
X24034921Y27202441D01*
X25464500Y27178000D02*
X24059362Y27178000D01*
D18*
G04 #@! TO.N,VUSB*
X25464500Y28478000D02*
X26319000Y28478000D01*
X26319000Y28478000D02*
X26860500Y29019500D01*
D20*
G04 #@! TO.N,/D13*
X19621500Y61912500D02*
X12890500Y55181500D01*
X12890500Y55181500D02*
X12890500Y35115500D01*
X12890500Y35115500D02*
X11747500Y33972500D01*
X11747500Y33972500D02*
X11747500Y31686500D01*
G04 #@! TO.N,/SCL1*
X2489200Y8976200D02*
X2489200Y-965202D01*
X2489200Y-965202D02*
X2311402Y-1143000D01*
G04 #@! TO.N,/SDA1*
X-1045401Y-2307399D02*
X2645601Y-2307399D01*
X2645601Y-2307399D02*
X2895600Y-2057400D01*
X-2743200Y-609600D02*
X-1045401Y-2307399D01*
X3302000Y14478000D02*
X3302000Y8458200D01*
X5334000Y16510000D02*
X3302000Y14478000D01*
X3302000Y8458200D02*
X2895600Y8051800D01*
X2895600Y8051800D02*
X2895600Y-2057400D01*
G04 #@! TO.N,/SDA3*
X5139499Y33714499D02*
X5139499Y43311001D01*
X4889500Y33464500D02*
X5139499Y33714499D01*
X5139499Y43311001D02*
X3111500Y45339000D01*
X3111500Y45339000D02*
X3111500Y45783500D01*
G04 #@! TO.N,/SCL3*
X4953000Y45783500D02*
X5507574Y45228926D01*
X5507574Y45228926D02*
X5507574Y33609186D01*
X5507574Y33609186D02*
X5507574Y33255633D01*
G04 #@! TO.N,/D6_FLASH_CS*
X15070656Y31089845D02*
X14820657Y31339844D01*
X24003000Y4699000D02*
X25463500Y4699000D01*
X23368000Y5334000D02*
X24003000Y4699000D01*
X27432000Y6667500D02*
X27432000Y12255500D01*
X25463500Y4699000D02*
X27432000Y6667500D01*
X27432000Y12255500D02*
X15070656Y24616844D01*
X15070656Y24616844D02*
X15070656Y31089845D01*
D18*
G04 #@! TO.N,/PERIPH_3V3*
X28511500Y11366500D02*
X28511500Y10604500D01*
D20*
G04 #@! TO.N,/D8_PERIPH_EN*
X17081500Y17018000D02*
X15652349Y17018000D01*
X7171499Y36072001D02*
X6921500Y36322000D01*
X14304165Y18366184D02*
X14304165Y18413608D01*
X15652349Y17018000D02*
X14304165Y18366184D01*
X7187201Y36056299D02*
X7171499Y36072001D01*
X14304165Y18413608D02*
X6921500Y25796273D01*
X6921500Y31628078D02*
X7187201Y31893779D01*
X7187201Y31893779D02*
X7187201Y36056299D01*
X6921500Y25796273D02*
X6921500Y31628078D01*
D18*
G04 #@! TO.N,Net-(C13-Pad1)*
X25174000Y23978000D02*
X24774000Y24378000D01*
X26384500Y23978000D02*
X25174000Y23978000D01*
G04 #@! TO.N,/SENSOR_3V3*
X11938000Y11366500D02*
X11938000Y10414000D01*
D20*
G04 #@! TO.N,Net-(J3-Pad4)*
X24242000Y26528000D02*
X25464500Y26528000D01*
X23876000Y26162000D02*
X24242000Y26528000D01*
X23114000Y26162000D02*
X23876000Y26162000D01*
X22669500Y27813000D02*
X22669500Y26606500D01*
X22669500Y26606500D02*
X23114000Y26162000D01*
X22669500Y32956500D02*
X20701000Y34925000D01*
X22669500Y27813000D02*
X22669500Y32956500D01*
G04 #@! TO.N,/D7_SENSOR_EN*
X13017500Y32729947D02*
X13081000Y32666447D01*
X13017500Y33083500D02*
X13017500Y32729947D01*
X15625001Y19363495D02*
X15875000Y19113496D01*
X13081000Y32666447D02*
X13081000Y21907496D01*
X13081000Y21907496D02*
X15625001Y19363495D01*
G04 #@! TD*
M02*
