G04 #@! TF.GenerationSoftware,KiCad,Pcbnew,(5.0.0)*
G04 #@! TF.CreationDate,2019-01-02T14:39:17-06:00*
G04 #@! TF.ProjectId,fk-sonar,666B2D736F6E61722E6B696361645F70,0.1*
G04 #@! TF.SameCoordinates,PX791ddc0PY791ddc0*
G04 #@! TF.FileFunction,Legend,Top*
G04 #@! TF.FilePolarity,Positive*
%FSLAX46Y46*%
G04 Gerber Fmt 4.6, Leading zero omitted, Abs format (unit mm)*
G04 Created by KiCad (PCBNEW (5.0.0)) date 01/02/19 14:39:17*
%MOMM*%
%LPD*%
G01*
G04 APERTURE LIST*
%ADD10C,0.152400*%
%ADD11C,0.381000*%
%ADD12C,0.200000*%
%ADD13C,0.300000*%
%ADD14C,0.150000*%
%ADD15C,0.120000*%
%ADD16C,0.010000*%
G04 APERTURE END LIST*
D10*
X21780500Y33754786D02*
X21780500Y34516786D01*
X22070785Y34516786D01*
X22143357Y34480500D01*
X22179642Y34444215D01*
X22215928Y34371643D01*
X22215928Y34262786D01*
X22179642Y34190215D01*
X22143357Y34153929D01*
X22070785Y34117643D01*
X21780500Y34117643D01*
X22469928Y34516786D02*
X22651357Y33754786D01*
X22796500Y34299072D01*
X22941642Y33754786D01*
X23123071Y34516786D01*
X23848785Y33754786D02*
X23594785Y34117643D01*
X23413357Y33754786D02*
X23413357Y34516786D01*
X23703642Y34516786D01*
X23776214Y34480500D01*
X23812500Y34444215D01*
X23848785Y34371643D01*
X23848785Y34262786D01*
X23812500Y34190215D01*
X23776214Y34153929D01*
X23703642Y34117643D01*
X23413357Y34117643D01*
X27014714Y48169286D02*
X26760714Y48532143D01*
X26579285Y48169286D02*
X26579285Y48931286D01*
X26869571Y48931286D01*
X26942142Y48895000D01*
X26978428Y48858715D01*
X27014714Y48786143D01*
X27014714Y48677286D01*
X26978428Y48604715D01*
X26942142Y48568429D01*
X26869571Y48532143D01*
X26579285Y48532143D01*
X27305000Y48205572D02*
X27413857Y48169286D01*
X27595285Y48169286D01*
X27667857Y48205572D01*
X27704142Y48241858D01*
X27740428Y48314429D01*
X27740428Y48387000D01*
X27704142Y48459572D01*
X27667857Y48495858D01*
X27595285Y48532143D01*
X27450142Y48568429D01*
X27377571Y48604715D01*
X27341285Y48641000D01*
X27305000Y48713572D01*
X27305000Y48786143D01*
X27341285Y48858715D01*
X27377571Y48895000D01*
X27450142Y48931286D01*
X27631571Y48931286D01*
X27740428Y48895000D01*
X27958142Y48931286D02*
X28393571Y48931286D01*
X28175857Y48169286D02*
X28175857Y48931286D01*
X19222357Y43570072D02*
X19331214Y43533786D01*
X19512642Y43533786D01*
X19585214Y43570072D01*
X19621500Y43606358D01*
X19657785Y43678929D01*
X19657785Y43751500D01*
X19621500Y43824072D01*
X19585214Y43860358D01*
X19512642Y43896643D01*
X19367500Y43932929D01*
X19294928Y43969215D01*
X19258642Y44005500D01*
X19222357Y44078072D01*
X19222357Y44150643D01*
X19258642Y44223215D01*
X19294928Y44259500D01*
X19367500Y44295786D01*
X19548928Y44295786D01*
X19657785Y44259500D01*
X19911785Y44295786D02*
X20093214Y43533786D01*
X20238357Y44078072D01*
X20383500Y43533786D01*
X20564928Y44295786D01*
X20855214Y43533786D02*
X20855214Y44295786D01*
X21036642Y44295786D01*
X21145500Y44259500D01*
X21218071Y44186929D01*
X21254357Y44114358D01*
X21290642Y43969215D01*
X21290642Y43860358D01*
X21254357Y43715215D01*
X21218071Y43642643D01*
X21145500Y43570072D01*
X21036642Y43533786D01*
X20855214Y43533786D01*
X15185571Y-4327071D02*
X14931571Y-4327071D01*
X14931571Y-4726214D02*
X14931571Y-3964214D01*
X15294428Y-3964214D01*
X15584714Y-4726214D02*
X15584714Y-4218214D01*
X15584714Y-3964214D02*
X15548428Y-4000500D01*
X15584714Y-4036785D01*
X15621000Y-4000500D01*
X15584714Y-3964214D01*
X15584714Y-4036785D01*
X16237857Y-4689928D02*
X16165285Y-4726214D01*
X16020142Y-4726214D01*
X15947571Y-4689928D01*
X15911285Y-4617357D01*
X15911285Y-4327071D01*
X15947571Y-4254500D01*
X16020142Y-4218214D01*
X16165285Y-4218214D01*
X16237857Y-4254500D01*
X16274142Y-4327071D01*
X16274142Y-4399642D01*
X15911285Y-4472214D01*
X16709571Y-4726214D02*
X16637000Y-4689928D01*
X16600714Y-4617357D01*
X16600714Y-3964214D01*
X17326428Y-4726214D02*
X17326428Y-3964214D01*
X17326428Y-4689928D02*
X17253857Y-4726214D01*
X17108714Y-4726214D01*
X17036142Y-4689928D01*
X16999857Y-4653642D01*
X16963571Y-4581071D01*
X16963571Y-4363357D01*
X16999857Y-4290785D01*
X17036142Y-4254500D01*
X17108714Y-4218214D01*
X17253857Y-4218214D01*
X17326428Y-4254500D01*
X17689285Y-4726214D02*
X17689285Y-3964214D01*
X18124714Y-4726214D02*
X17798142Y-4290785D01*
X18124714Y-3964214D02*
X17689285Y-4399642D01*
X18451285Y-4726214D02*
X18451285Y-4218214D01*
X18451285Y-3964214D02*
X18415000Y-4000500D01*
X18451285Y-4036785D01*
X18487571Y-4000500D01*
X18451285Y-3964214D01*
X18451285Y-4036785D01*
X18705285Y-4218214D02*
X18995571Y-4218214D01*
X18814142Y-3964214D02*
X18814142Y-4617357D01*
X18850428Y-4689928D01*
X18923000Y-4726214D01*
X18995571Y-4726214D01*
X19793857Y-4689928D02*
X19902714Y-4726214D01*
X20084142Y-4726214D01*
X20156714Y-4689928D01*
X20193000Y-4653642D01*
X20229285Y-4581071D01*
X20229285Y-4508500D01*
X20193000Y-4435928D01*
X20156714Y-4399642D01*
X20084142Y-4363357D01*
X19939000Y-4327071D01*
X19866428Y-4290785D01*
X19830142Y-4254500D01*
X19793857Y-4181928D01*
X19793857Y-4109357D01*
X19830142Y-4036785D01*
X19866428Y-4000500D01*
X19939000Y-3964214D01*
X20120428Y-3964214D01*
X20229285Y-4000500D01*
X20664714Y-4726214D02*
X20592142Y-4689928D01*
X20555857Y-4653642D01*
X20519571Y-4581071D01*
X20519571Y-4363357D01*
X20555857Y-4290785D01*
X20592142Y-4254500D01*
X20664714Y-4218214D01*
X20773571Y-4218214D01*
X20846142Y-4254500D01*
X20882428Y-4290785D01*
X20918714Y-4363357D01*
X20918714Y-4581071D01*
X20882428Y-4653642D01*
X20846142Y-4689928D01*
X20773571Y-4726214D01*
X20664714Y-4726214D01*
X21245285Y-4218214D02*
X21245285Y-4726214D01*
X21245285Y-4290785D02*
X21281571Y-4254500D01*
X21354142Y-4218214D01*
X21463000Y-4218214D01*
X21535571Y-4254500D01*
X21571857Y-4327071D01*
X21571857Y-4726214D01*
X22261285Y-4726214D02*
X22261285Y-4327071D01*
X22225000Y-4254500D01*
X22152428Y-4218214D01*
X22007285Y-4218214D01*
X21934714Y-4254500D01*
X22261285Y-4689928D02*
X22188714Y-4726214D01*
X22007285Y-4726214D01*
X21934714Y-4689928D01*
X21898428Y-4617357D01*
X21898428Y-4544785D01*
X21934714Y-4472214D01*
X22007285Y-4435928D01*
X22188714Y-4435928D01*
X22261285Y-4399642D01*
X22624142Y-4726214D02*
X22624142Y-4218214D01*
X22624142Y-4363357D02*
X22660428Y-4290785D01*
X22696714Y-4254500D01*
X22769285Y-4218214D01*
X22841857Y-4218214D01*
X23603857Y-4218214D02*
X23785285Y-4726214D01*
X23966714Y-4218214D01*
X24402142Y-3964214D02*
X24474714Y-3964214D01*
X24547285Y-4000500D01*
X24583571Y-4036785D01*
X24619857Y-4109357D01*
X24656142Y-4254500D01*
X24656142Y-4435928D01*
X24619857Y-4581071D01*
X24583571Y-4653642D01*
X24547285Y-4689928D01*
X24474714Y-4726214D01*
X24402142Y-4726214D01*
X24329571Y-4689928D01*
X24293285Y-4653642D01*
X24257000Y-4581071D01*
X24220714Y-4435928D01*
X24220714Y-4254500D01*
X24257000Y-4109357D01*
X24293285Y-4036785D01*
X24329571Y-4000500D01*
X24402142Y-3964214D01*
X24982714Y-4653642D02*
X25019000Y-4689928D01*
X24982714Y-4726214D01*
X24946428Y-4689928D01*
X24982714Y-4653642D01*
X24982714Y-4726214D01*
X25273000Y-3964214D02*
X25781000Y-3964214D01*
X25454428Y-4726214D01*
D11*
X-4572000Y-4826000D02*
X10414000Y-4826000D01*
X-4572000Y14224000D02*
X-4572000Y-4826000D01*
X-4572000Y14224000D02*
X10414000Y14224000D01*
X10414000Y14224000D02*
X10414000Y-4826000D01*
X10414000Y58674000D02*
X-4318000Y58674000D01*
X10414000Y48006000D02*
X10414000Y58674000D01*
X-4318000Y48006000D02*
X10414000Y48006000D01*
X-4318000Y58674000D02*
X-4318000Y48006000D01*
D12*
X4858095Y14835239D02*
X5000952Y14787620D01*
X5239047Y14787620D01*
X5334285Y14835239D01*
X5381904Y14882858D01*
X5429523Y14978096D01*
X5429523Y15073334D01*
X5381904Y15168572D01*
X5334285Y15216191D01*
X5239047Y15263810D01*
X5048571Y15311429D01*
X4953333Y15359048D01*
X4905714Y15406667D01*
X4858095Y15501905D01*
X4858095Y15597143D01*
X4905714Y15692381D01*
X4953333Y15740000D01*
X5048571Y15787620D01*
X5286666Y15787620D01*
X5429523Y15740000D01*
X5858095Y15311429D02*
X6191428Y15311429D01*
X6334285Y14787620D02*
X5858095Y14787620D01*
X5858095Y15787620D01*
X6334285Y15787620D01*
X6762857Y14787620D02*
X6762857Y15787620D01*
X7334285Y14787620D01*
X7334285Y15787620D01*
X7762857Y14835239D02*
X7905714Y14787620D01*
X8143809Y14787620D01*
X8239047Y14835239D01*
X8286666Y14882858D01*
X8334285Y14978096D01*
X8334285Y15073334D01*
X8286666Y15168572D01*
X8239047Y15216191D01*
X8143809Y15263810D01*
X7953333Y15311429D01*
X7858095Y15359048D01*
X7810476Y15406667D01*
X7762857Y15501905D01*
X7762857Y15597143D01*
X7810476Y15692381D01*
X7858095Y15740000D01*
X7953333Y15787620D01*
X8191428Y15787620D01*
X8334285Y15740000D01*
X8953333Y15787620D02*
X9143809Y15787620D01*
X9239047Y15740000D01*
X9334285Y15644762D01*
X9381904Y15454286D01*
X9381904Y15120953D01*
X9334285Y14930477D01*
X9239047Y14835239D01*
X9143809Y14787620D01*
X8953333Y14787620D01*
X8858095Y14835239D01*
X8762857Y14930477D01*
X8715238Y15120953D01*
X8715238Y15454286D01*
X8762857Y15644762D01*
X8858095Y15740000D01*
X8953333Y15787620D01*
X10381904Y14787620D02*
X10048571Y15263810D01*
X9810476Y14787620D02*
X9810476Y15787620D01*
X10191428Y15787620D01*
X10286666Y15740000D01*
X10334285Y15692381D01*
X10381904Y15597143D01*
X10381904Y15454286D01*
X10334285Y15359048D01*
X10286666Y15311429D01*
X10191428Y15263810D01*
X9810476Y15263810D01*
D10*
X-1759858Y33981572D02*
X-1651000Y33945286D01*
X-1469572Y33945286D01*
X-1397000Y33981572D01*
X-1360715Y34017858D01*
X-1324429Y34090429D01*
X-1324429Y34163000D01*
X-1360715Y34235572D01*
X-1397000Y34271858D01*
X-1469572Y34308143D01*
X-1614715Y34344429D01*
X-1687286Y34380715D01*
X-1723572Y34417000D01*
X-1759858Y34489572D01*
X-1759858Y34562143D01*
X-1723572Y34634715D01*
X-1687286Y34671000D01*
X-1614715Y34707286D01*
X-1433286Y34707286D01*
X-1324429Y34671000D01*
X-997858Y34344429D02*
X-743858Y34344429D01*
X-635000Y33945286D02*
X-997858Y33945286D01*
X-997858Y34707286D01*
X-635000Y34707286D01*
X127000Y33945286D02*
X-127000Y34308143D01*
X-308429Y33945286D02*
X-308429Y34707286D01*
X-18143Y34707286D01*
X54428Y34671000D01*
X90714Y34634715D01*
X127000Y34562143D01*
X127000Y34453286D01*
X90714Y34380715D01*
X54428Y34344429D01*
X-18143Y34308143D01*
X-308429Y34308143D01*
X453571Y33945286D02*
X453571Y34707286D01*
X780142Y34163000D02*
X1143000Y34163000D01*
X707571Y33945286D02*
X961571Y34707286D01*
X1215571Y33945286D01*
X1832428Y33945286D02*
X1469571Y33945286D01*
X1469571Y34707286D01*
X-2249715Y24003000D02*
X-1886858Y24003000D01*
X-2322286Y23785286D02*
X-2068286Y24547286D01*
X-1814286Y23785286D01*
X-1560286Y23785286D02*
X-1560286Y24547286D01*
X-1124858Y23785286D01*
X-1124858Y24547286D01*
X-798286Y24003000D02*
X-435429Y24003000D01*
X-870858Y23785286D02*
X-616858Y24547286D01*
X-362858Y23785286D01*
X254000Y23785286D02*
X-108858Y23785286D01*
X-108858Y24547286D01*
X653142Y24547286D02*
X798285Y24547286D01*
X870857Y24511000D01*
X943428Y24438429D01*
X979714Y24293286D01*
X979714Y24039286D01*
X943428Y23894143D01*
X870857Y23821572D01*
X798285Y23785286D01*
X653142Y23785286D01*
X580571Y23821572D01*
X508000Y23894143D01*
X471714Y24039286D01*
X471714Y24293286D01*
X508000Y24438429D01*
X580571Y24511000D01*
X653142Y24547286D01*
X1705428Y24511000D02*
X1632857Y24547286D01*
X1524000Y24547286D01*
X1415142Y24511000D01*
X1342571Y24438429D01*
X1306285Y24365858D01*
X1270000Y24220715D01*
X1270000Y24111858D01*
X1306285Y23966715D01*
X1342571Y23894143D01*
X1415142Y23821572D01*
X1524000Y23785286D01*
X1596571Y23785286D01*
X1705428Y23821572D01*
X1741714Y23857858D01*
X1741714Y24111858D01*
X1596571Y24111858D01*
D12*
X-3159000Y46664620D02*
X-3159000Y47664620D01*
X-2349477Y47188429D02*
X-2206620Y47140810D01*
X-2159000Y47093191D01*
X-2111381Y46997953D01*
X-2111381Y46855096D01*
X-2159000Y46759858D01*
X-2206620Y46712239D01*
X-2301858Y46664620D01*
X-2682810Y46664620D01*
X-2682810Y47664620D01*
X-2349477Y47664620D01*
X-2254239Y47617000D01*
X-2206620Y47569381D01*
X-2159000Y47474143D01*
X-2159000Y47378905D01*
X-2206620Y47283667D01*
X-2254239Y47236048D01*
X-2349477Y47188429D01*
X-2682810Y47188429D01*
X-1349477Y47188429D02*
X-1206620Y47140810D01*
X-1159000Y47093191D01*
X-1111381Y46997953D01*
X-1111381Y46855096D01*
X-1159000Y46759858D01*
X-1206620Y46712239D01*
X-1301858Y46664620D01*
X-1682810Y46664620D01*
X-1682810Y47664620D01*
X-1349477Y47664620D01*
X-1254239Y47617000D01*
X-1206620Y47569381D01*
X-1159000Y47474143D01*
X-1159000Y47378905D01*
X-1206620Y47283667D01*
X-1254239Y47236048D01*
X-1349477Y47188429D01*
X-1682810Y47188429D01*
D10*
X14086114Y63231486D02*
X14086114Y63993486D01*
X14267542Y63993486D01*
X14376400Y63957200D01*
X14448971Y63884629D01*
X14485257Y63812058D01*
X14521542Y63666915D01*
X14521542Y63558058D01*
X14485257Y63412915D01*
X14448971Y63340343D01*
X14376400Y63267772D01*
X14267542Y63231486D01*
X14086114Y63231486D01*
X15247257Y63231486D02*
X14811828Y63231486D01*
X15029542Y63231486D02*
X15029542Y63993486D01*
X14956971Y63884629D01*
X14884400Y63812058D01*
X14811828Y63775772D01*
X15501257Y63993486D02*
X15972971Y63993486D01*
X15718971Y63703200D01*
X15827828Y63703200D01*
X15900400Y63666915D01*
X15936685Y63630629D01*
X15972971Y63558058D01*
X15972971Y63376629D01*
X15936685Y63304058D01*
X15900400Y63267772D01*
X15827828Y63231486D01*
X15610114Y63231486D01*
X15537542Y63267772D01*
X15501257Y63304058D01*
D13*
G04 #@! TO.C,U3*
X20274511Y15552400D02*
G75*
G03X20274511Y15552400I-70711J0D01*
G01*
D14*
X20153800Y14352400D02*
X15253800Y14352400D01*
X15253800Y14352400D02*
X15253800Y11352400D01*
X15253800Y11352400D02*
X20153800Y11352400D01*
X20153800Y11352400D02*
X20153800Y14352400D01*
D15*
G04 #@! TO.C,J10*
X6287400Y58213800D02*
X4487400Y58213800D01*
X4487400Y58213800D02*
X4487400Y56363800D01*
X4487400Y56363800D02*
X3747400Y56363800D01*
X6287400Y48393800D02*
X4487400Y48393800D01*
X4487400Y48393800D02*
X4487400Y50243800D01*
X9607400Y58213800D02*
X10157400Y58213800D01*
X10157400Y58213800D02*
X10157400Y48393800D01*
X10157400Y48393800D02*
X9607400Y48393800D01*
G04 #@! TO.C,J9*
X-1276000Y58224600D02*
X-3076000Y58224600D01*
X-3076000Y58224600D02*
X-3076000Y56374600D01*
X-3076000Y56374600D02*
X-3816000Y56374600D01*
X-1276000Y48404600D02*
X-3076000Y48404600D01*
X-3076000Y48404600D02*
X-3076000Y50254600D01*
X2044000Y58224600D02*
X2594000Y58224600D01*
X2594000Y58224600D02*
X2594000Y48404600D01*
X2594000Y48404600D02*
X2044000Y48404600D01*
D14*
G04 #@! TO.C,J2*
X18480300Y44818300D02*
X21880300Y44818300D01*
X18480300Y51168300D02*
X21880300Y51168300D01*
X23672800Y46278800D02*
X24117300Y46278800D01*
X24117300Y46278800D02*
X24117300Y49707800D01*
X24117300Y49707800D02*
X23672800Y49707800D01*
D15*
G04 #@! TO.C,SW1*
X25859800Y46671400D02*
X25959800Y46671400D01*
X29359800Y46671400D02*
X29259800Y46671400D01*
X29259800Y41771400D02*
X29359800Y41771400D01*
X25859800Y41771400D02*
X25959800Y41771400D01*
X27259800Y41771400D02*
X27959800Y41771400D01*
X27259800Y46671400D02*
X27959800Y46671400D01*
X25859800Y46671400D02*
X25859800Y41771400D01*
X29359800Y41771400D02*
X29359800Y46671400D01*
D16*
G04 #@! TO.C,G\002A\002A\002A*
G36*
X15722147Y58280174D02*
X15766850Y58279697D01*
X15805339Y58278722D01*
X15839589Y58277103D01*
X15871572Y58274694D01*
X15903260Y58271346D01*
X15936627Y58266915D01*
X15973644Y58261252D01*
X16013317Y58254712D01*
X16149600Y58226670D01*
X16283128Y58189060D01*
X16413430Y58142210D01*
X16540033Y58086451D01*
X16662467Y58022115D01*
X16780259Y57949531D01*
X16892940Y57869030D01*
X17000036Y57780942D01*
X17101078Y57685598D01*
X17195593Y57583328D01*
X17283110Y57474463D01*
X17363158Y57359333D01*
X17417179Y57270523D01*
X17484063Y57143908D01*
X17541202Y57014481D01*
X17588605Y56882201D01*
X17626284Y56747025D01*
X17654249Y56608912D01*
X17672508Y56467820D01*
X17681073Y56323706D01*
X17680235Y56183809D01*
X17670026Y56043906D01*
X17649904Y55905465D01*
X17620072Y55768998D01*
X17580732Y55635018D01*
X17532087Y55504034D01*
X17474339Y55376559D01*
X17407691Y55253104D01*
X17332344Y55134180D01*
X17248502Y55020298D01*
X17192903Y54953096D01*
X17163048Y54919952D01*
X17127407Y54882648D01*
X17088013Y54843146D01*
X17046899Y54803408D01*
X17006097Y54765397D01*
X16967642Y54731075D01*
X16933565Y54702404D01*
X16931293Y54700577D01*
X16816718Y54615091D01*
X16697163Y54538174D01*
X16573177Y54470129D01*
X16445312Y54411260D01*
X16324580Y54365417D01*
X16186911Y54323588D01*
X16047568Y54291678D01*
X15906938Y54269739D01*
X15765411Y54257824D01*
X15623376Y54255983D01*
X15534640Y54259964D01*
X15393010Y54274511D01*
X15253496Y54298871D01*
X15116565Y54332834D01*
X14982682Y54376186D01*
X14852312Y54428718D01*
X14725921Y54490216D01*
X14603975Y54560470D01*
X14486938Y54639268D01*
X14375277Y54726399D01*
X14269457Y54821650D01*
X14244388Y54846289D01*
X14147513Y54950226D01*
X14058871Y55059828D01*
X13978605Y55174617D01*
X13906856Y55294113D01*
X13843767Y55417838D01*
X13789480Y55545311D01*
X13755587Y55643038D01*
X13953772Y55643038D01*
X13954775Y55636006D01*
X13959437Y55621228D01*
X13967170Y55600188D01*
X13977389Y55574368D01*
X13989505Y55545253D01*
X14002931Y55514326D01*
X14017045Y55483148D01*
X14031121Y55454538D01*
X14049459Y55419929D01*
X14070660Y55381756D01*
X14093324Y55342455D01*
X14116053Y55304463D01*
X14137446Y55270217D01*
X14152314Y55247660D01*
X14222087Y55152400D01*
X14299381Y55060078D01*
X14382701Y54972195D01*
X14470552Y54890252D01*
X14561440Y54815748D01*
X14636250Y54761889D01*
X14684819Y54733786D01*
X14742445Y54708758D01*
X14808439Y54687002D01*
X14882114Y54668719D01*
X14962783Y54654106D01*
X15044420Y54643890D01*
X15071016Y54642171D01*
X15104463Y54641420D01*
X15141501Y54641598D01*
X15178870Y54642668D01*
X15213311Y54644593D01*
X15230227Y54646042D01*
X15297134Y54655626D01*
X15359090Y54670278D01*
X15414943Y54689604D01*
X15463544Y54713204D01*
X15503502Y54740483D01*
X15529728Y54765000D01*
X15549322Y54790999D01*
X15563636Y54820950D01*
X15574021Y54857320D01*
X15577669Y54875847D01*
X15588709Y54924508D01*
X15603483Y54964791D01*
X15622759Y54998034D01*
X15647301Y55025576D01*
X15675923Y55047506D01*
X15702808Y55062940D01*
X15732723Y55076176D01*
X15766491Y55087336D01*
X15804940Y55096547D01*
X15848893Y55103932D01*
X15899177Y55109616D01*
X15956617Y55113724D01*
X16022039Y55116380D01*
X16096267Y55117710D01*
X16142225Y55117922D01*
X16261492Y55119311D01*
X16371088Y55123328D01*
X16470982Y55129969D01*
X16561142Y55139232D01*
X16641540Y55151115D01*
X16695420Y55161747D01*
X16795817Y55188470D01*
X16891507Y55222791D01*
X16981806Y55264332D01*
X17066026Y55312715D01*
X17143485Y55367561D01*
X17213496Y55428492D01*
X17253178Y55469510D01*
X17271775Y55490095D01*
X17218547Y55463382D01*
X17191408Y55450269D01*
X17161719Y55436732D01*
X17133911Y55424760D01*
X17119944Y55419144D01*
X17083371Y55406404D01*
X17039664Y55393406D01*
X16991800Y55380884D01*
X16942755Y55369573D01*
X16895508Y55360209D01*
X16855440Y55353843D01*
X16819708Y55350135D01*
X16776444Y55347367D01*
X16728233Y55345562D01*
X16677660Y55344741D01*
X16627312Y55344925D01*
X16579774Y55346138D01*
X16537631Y55348400D01*
X16510000Y55350926D01*
X16375545Y55371017D01*
X16238974Y55400330D01*
X16101598Y55438523D01*
X15964726Y55485254D01*
X15902076Y55509612D01*
X15880978Y55518190D01*
X15861134Y55526399D01*
X15841371Y55534766D01*
X15820512Y55543815D01*
X15797384Y55554072D01*
X15770812Y55566062D01*
X15739621Y55580311D01*
X15702638Y55597343D01*
X15658686Y55617685D01*
X15612110Y55639299D01*
X15477475Y55697525D01*
X15343823Y55746776D01*
X15211455Y55787032D01*
X15080672Y55818274D01*
X14951777Y55840482D01*
X14825069Y55853636D01*
X14700852Y55857715D01*
X14579426Y55852700D01*
X14461093Y55838570D01*
X14346155Y55815307D01*
X14234914Y55782890D01*
X14127670Y55741299D01*
X14120079Y55737935D01*
X14095361Y55726337D01*
X14068565Y55712835D01*
X14041292Y55698345D01*
X14015141Y55683779D01*
X13991712Y55670051D01*
X13972606Y55658073D01*
X13959424Y55648758D01*
X13953772Y55643038D01*
X13755587Y55643038D01*
X13744136Y55676055D01*
X13707878Y55809590D01*
X13680849Y55945436D01*
X13663189Y56083116D01*
X13655041Y56222149D01*
X13656143Y56324528D01*
X13840781Y56324528D01*
X13840808Y56264455D01*
X13842252Y56202849D01*
X13845037Y56142293D01*
X13849089Y56085366D01*
X13854332Y56034650D01*
X13857429Y56012080D01*
X13863009Y55977741D01*
X13869542Y55941478D01*
X13876732Y55904569D01*
X13884283Y55868294D01*
X13891899Y55833930D01*
X13899285Y55802757D01*
X13906144Y55776053D01*
X13912181Y55755097D01*
X13917099Y55741167D01*
X13920603Y55735542D01*
X13921387Y55735714D01*
X13923981Y55740484D01*
X13930881Y55753720D01*
X13941787Y55774833D01*
X13956395Y55803234D01*
X13974406Y55838334D01*
X13995517Y55879545D01*
X14019426Y55926277D01*
X14045833Y55977941D01*
X14074436Y56033948D01*
X14104933Y56093710D01*
X14137023Y56156637D01*
X14170404Y56222140D01*
X14171514Y56224319D01*
X14204944Y56289879D01*
X14237118Y56352859D01*
X14267736Y56412673D01*
X14296492Y56468733D01*
X14323084Y56520452D01*
X14347209Y56567243D01*
X14368563Y56608518D01*
X14386843Y56643690D01*
X14401746Y56672173D01*
X14412968Y56693378D01*
X14420206Y56706719D01*
X14423158Y56711609D01*
X14423179Y56711619D01*
X14426199Y56707462D01*
X14433564Y56695071D01*
X14444865Y56675190D01*
X14459694Y56648563D01*
X14477641Y56615936D01*
X14498299Y56578052D01*
X14521256Y56535657D01*
X14546106Y56489494D01*
X14572439Y56440310D01*
X14581461Y56423400D01*
X14608196Y56373343D01*
X14633569Y56326029D01*
X14657172Y56282207D01*
X14678596Y56242624D01*
X14697435Y56208028D01*
X14713281Y56179168D01*
X14725724Y56156792D01*
X14734358Y56141649D01*
X14738774Y56134485D01*
X14739236Y56134000D01*
X14742005Y56138416D01*
X14749122Y56151265D01*
X14760278Y56171957D01*
X14775159Y56199896D01*
X14793455Y56234491D01*
X14814854Y56275149D01*
X14839043Y56321275D01*
X14865712Y56372278D01*
X14894549Y56427564D01*
X14925242Y56486539D01*
X14957479Y56548611D01*
X14985482Y56602630D01*
X15018794Y56666916D01*
X15050818Y56728660D01*
X15081242Y56787266D01*
X15109754Y56842134D01*
X15136042Y56892665D01*
X15159794Y56938262D01*
X15180699Y56978325D01*
X15198443Y57012256D01*
X15212715Y57039456D01*
X15223203Y57059326D01*
X15229595Y57071268D01*
X15231566Y57074731D01*
X15234390Y57070861D01*
X15241642Y57058638D01*
X15252987Y57038680D01*
X15268085Y57011606D01*
X15286597Y56978034D01*
X15308187Y56938582D01*
X15332515Y56893870D01*
X15359243Y56844515D01*
X15388033Y56791136D01*
X15418547Y56734351D01*
X15450447Y56674779D01*
X15455900Y56664575D01*
X15488009Y56604525D01*
X15518771Y56547093D01*
X15547848Y56492905D01*
X15574903Y56442585D01*
X15599598Y56396758D01*
X15621596Y56356049D01*
X15640558Y56321082D01*
X15656146Y56292482D01*
X15668025Y56270875D01*
X15675854Y56256884D01*
X15679298Y56251134D01*
X15679420Y56251021D01*
X15682187Y56255407D01*
X15689139Y56267954D01*
X15699811Y56287785D01*
X15713741Y56314024D01*
X15730466Y56345797D01*
X15749525Y56382228D01*
X15770454Y56422440D01*
X15792790Y56465559D01*
X15793466Y56466867D01*
X15815859Y56510063D01*
X15836890Y56550375D01*
X15856095Y56586927D01*
X15873006Y56618844D01*
X15887157Y56645248D01*
X15898082Y56665266D01*
X15905313Y56678021D01*
X15908385Y56682637D01*
X15908407Y56682640D01*
X15911255Y56678263D01*
X15918534Y56665556D01*
X15929896Y56645157D01*
X15944996Y56617703D01*
X15963487Y56583832D01*
X15985023Y56544181D01*
X16009258Y56499388D01*
X16035845Y56450090D01*
X16064437Y56396925D01*
X16094690Y56340531D01*
X16124339Y56285130D01*
X16156077Y56225773D01*
X16186624Y56168667D01*
X16215615Y56114493D01*
X16242688Y56063929D01*
X16267478Y56017654D01*
X16289622Y55976346D01*
X16308755Y55940685D01*
X16324514Y55911348D01*
X16336535Y55889015D01*
X16344455Y55874364D01*
X16347750Y55868350D01*
X16358662Y55849080D01*
X16463198Y56051230D01*
X16484877Y56092974D01*
X16505207Y56131777D01*
X16523703Y56166737D01*
X16539880Y56196955D01*
X16553254Y56221530D01*
X16563338Y56239560D01*
X16569649Y56250145D01*
X16571634Y56252654D01*
X16574838Y56248161D01*
X16582242Y56235694D01*
X16593287Y56216255D01*
X16607414Y56190849D01*
X16624067Y56160477D01*
X16642687Y56126145D01*
X16662676Y56088930D01*
X16682636Y56051822D01*
X16701148Y56017841D01*
X16717664Y55987959D01*
X16731636Y55963151D01*
X16742514Y55944392D01*
X16749750Y55932654D01*
X16752796Y55928911D01*
X16752806Y55928920D01*
X16755565Y55933808D01*
X16762614Y55947018D01*
X16773583Y55967841D01*
X16788105Y55995570D01*
X16805810Y56029498D01*
X16826330Y56068916D01*
X16849295Y56113118D01*
X16874337Y56161395D01*
X16901087Y56213040D01*
X16929177Y56267345D01*
X16930076Y56269085D01*
X16958172Y56323376D01*
X16984932Y56374957D01*
X17009989Y56423129D01*
X17032976Y56467194D01*
X17053525Y56506450D01*
X17071271Y56540200D01*
X17085847Y56567744D01*
X17096884Y56588382D01*
X17104017Y56601414D01*
X17106879Y56606143D01*
X17106900Y56606149D01*
X17109792Y56601843D01*
X17117338Y56589429D01*
X17129130Y56569608D01*
X17144757Y56543081D01*
X17163810Y56510549D01*
X17185879Y56472711D01*
X17210554Y56430269D01*
X17237427Y56383923D01*
X17266087Y56334373D01*
X17289507Y56293799D01*
X17319270Y56242330D01*
X17347596Y56193612D01*
X17374076Y56148336D01*
X17398299Y56107191D01*
X17419853Y56070868D01*
X17438327Y56040056D01*
X17453311Y56015445D01*
X17464394Y55997725D01*
X17471165Y55987587D01*
X17473196Y55985392D01*
X17476575Y55993784D01*
X17479956Y56011001D01*
X17483236Y56035706D01*
X17486313Y56066565D01*
X17489086Y56102242D01*
X17491451Y56141402D01*
X17493306Y56182709D01*
X17494549Y56224829D01*
X17495078Y56266426D01*
X17495089Y56271160D01*
X17493764Y56358532D01*
X17489382Y56439016D01*
X17481620Y56515509D01*
X17470156Y56590908D01*
X17454666Y56668110D01*
X17447204Y56700420D01*
X17411494Y56829595D01*
X17367109Y56953943D01*
X17313707Y57074242D01*
X17250949Y57191268D01*
X17187658Y57292240D01*
X17151255Y57345026D01*
X17115906Y57392784D01*
X17079673Y57437854D01*
X17040614Y57482571D01*
X16996791Y57529275D01*
X16959865Y57566779D01*
X16892641Y57631508D01*
X16827473Y57688962D01*
X16761990Y57741009D01*
X16693821Y57789519D01*
X16620597Y57836360D01*
X16609170Y57843274D01*
X16491239Y57908343D01*
X16369928Y57964048D01*
X16245767Y58010404D01*
X16119284Y58047424D01*
X15991008Y58075123D01*
X15861466Y58093516D01*
X15731187Y58102616D01*
X15600701Y58102438D01*
X15470535Y58092997D01*
X15341217Y58074307D01*
X15213277Y58046382D01*
X15087243Y58009237D01*
X14963643Y57962886D01*
X14843005Y57907343D01*
X14725859Y57842623D01*
X14643100Y57789760D01*
X14533713Y57709631D01*
X14431262Y57622309D01*
X14336018Y57528252D01*
X14248250Y57427920D01*
X14168226Y57321772D01*
X14096217Y57210267D01*
X14032492Y57093864D01*
X13977319Y56973023D01*
X13930970Y56848203D01*
X13893712Y56719864D01*
X13865816Y56588463D01*
X13847550Y56454461D01*
X13845276Y56429756D01*
X13842245Y56380489D01*
X13840781Y56324528D01*
X13656143Y56324528D01*
X13656548Y56362056D01*
X13667851Y56502359D01*
X13689093Y56642578D01*
X13698163Y56688066D01*
X13732160Y56824928D01*
X13775292Y56957882D01*
X13827195Y57086575D01*
X13887505Y57210659D01*
X13955859Y57329783D01*
X14031893Y57443595D01*
X14115242Y57551746D01*
X14205544Y57653885D01*
X14302433Y57749661D01*
X14405548Y57838724D01*
X14514523Y57920723D01*
X14628995Y57995308D01*
X14748599Y58062128D01*
X14872974Y58120832D01*
X15001753Y58171070D01*
X15134574Y58212492D01*
X15271074Y58244746D01*
X15323820Y58254524D01*
X15365605Y58261512D01*
X15402211Y58267129D01*
X15435588Y58271521D01*
X15467685Y58274833D01*
X15500453Y58277212D01*
X15535841Y58278802D01*
X15575800Y58279750D01*
X15622278Y58280200D01*
X15669260Y58280300D01*
X15722147Y58280174D01*
X15722147Y58280174D01*
G37*
X15722147Y58280174D02*
X15766850Y58279697D01*
X15805339Y58278722D01*
X15839589Y58277103D01*
X15871572Y58274694D01*
X15903260Y58271346D01*
X15936627Y58266915D01*
X15973644Y58261252D01*
X16013317Y58254712D01*
X16149600Y58226670D01*
X16283128Y58189060D01*
X16413430Y58142210D01*
X16540033Y58086451D01*
X16662467Y58022115D01*
X16780259Y57949531D01*
X16892940Y57869030D01*
X17000036Y57780942D01*
X17101078Y57685598D01*
X17195593Y57583328D01*
X17283110Y57474463D01*
X17363158Y57359333D01*
X17417179Y57270523D01*
X17484063Y57143908D01*
X17541202Y57014481D01*
X17588605Y56882201D01*
X17626284Y56747025D01*
X17654249Y56608912D01*
X17672508Y56467820D01*
X17681073Y56323706D01*
X17680235Y56183809D01*
X17670026Y56043906D01*
X17649904Y55905465D01*
X17620072Y55768998D01*
X17580732Y55635018D01*
X17532087Y55504034D01*
X17474339Y55376559D01*
X17407691Y55253104D01*
X17332344Y55134180D01*
X17248502Y55020298D01*
X17192903Y54953096D01*
X17163048Y54919952D01*
X17127407Y54882648D01*
X17088013Y54843146D01*
X17046899Y54803408D01*
X17006097Y54765397D01*
X16967642Y54731075D01*
X16933565Y54702404D01*
X16931293Y54700577D01*
X16816718Y54615091D01*
X16697163Y54538174D01*
X16573177Y54470129D01*
X16445312Y54411260D01*
X16324580Y54365417D01*
X16186911Y54323588D01*
X16047568Y54291678D01*
X15906938Y54269739D01*
X15765411Y54257824D01*
X15623376Y54255983D01*
X15534640Y54259964D01*
X15393010Y54274511D01*
X15253496Y54298871D01*
X15116565Y54332834D01*
X14982682Y54376186D01*
X14852312Y54428718D01*
X14725921Y54490216D01*
X14603975Y54560470D01*
X14486938Y54639268D01*
X14375277Y54726399D01*
X14269457Y54821650D01*
X14244388Y54846289D01*
X14147513Y54950226D01*
X14058871Y55059828D01*
X13978605Y55174617D01*
X13906856Y55294113D01*
X13843767Y55417838D01*
X13789480Y55545311D01*
X13755587Y55643038D01*
X13953772Y55643038D01*
X13954775Y55636006D01*
X13959437Y55621228D01*
X13967170Y55600188D01*
X13977389Y55574368D01*
X13989505Y55545253D01*
X14002931Y55514326D01*
X14017045Y55483148D01*
X14031121Y55454538D01*
X14049459Y55419929D01*
X14070660Y55381756D01*
X14093324Y55342455D01*
X14116053Y55304463D01*
X14137446Y55270217D01*
X14152314Y55247660D01*
X14222087Y55152400D01*
X14299381Y55060078D01*
X14382701Y54972195D01*
X14470552Y54890252D01*
X14561440Y54815748D01*
X14636250Y54761889D01*
X14684819Y54733786D01*
X14742445Y54708758D01*
X14808439Y54687002D01*
X14882114Y54668719D01*
X14962783Y54654106D01*
X15044420Y54643890D01*
X15071016Y54642171D01*
X15104463Y54641420D01*
X15141501Y54641598D01*
X15178870Y54642668D01*
X15213311Y54644593D01*
X15230227Y54646042D01*
X15297134Y54655626D01*
X15359090Y54670278D01*
X15414943Y54689604D01*
X15463544Y54713204D01*
X15503502Y54740483D01*
X15529728Y54765000D01*
X15549322Y54790999D01*
X15563636Y54820950D01*
X15574021Y54857320D01*
X15577669Y54875847D01*
X15588709Y54924508D01*
X15603483Y54964791D01*
X15622759Y54998034D01*
X15647301Y55025576D01*
X15675923Y55047506D01*
X15702808Y55062940D01*
X15732723Y55076176D01*
X15766491Y55087336D01*
X15804940Y55096547D01*
X15848893Y55103932D01*
X15899177Y55109616D01*
X15956617Y55113724D01*
X16022039Y55116380D01*
X16096267Y55117710D01*
X16142225Y55117922D01*
X16261492Y55119311D01*
X16371088Y55123328D01*
X16470982Y55129969D01*
X16561142Y55139232D01*
X16641540Y55151115D01*
X16695420Y55161747D01*
X16795817Y55188470D01*
X16891507Y55222791D01*
X16981806Y55264332D01*
X17066026Y55312715D01*
X17143485Y55367561D01*
X17213496Y55428492D01*
X17253178Y55469510D01*
X17271775Y55490095D01*
X17218547Y55463382D01*
X17191408Y55450269D01*
X17161719Y55436732D01*
X17133911Y55424760D01*
X17119944Y55419144D01*
X17083371Y55406404D01*
X17039664Y55393406D01*
X16991800Y55380884D01*
X16942755Y55369573D01*
X16895508Y55360209D01*
X16855440Y55353843D01*
X16819708Y55350135D01*
X16776444Y55347367D01*
X16728233Y55345562D01*
X16677660Y55344741D01*
X16627312Y55344925D01*
X16579774Y55346138D01*
X16537631Y55348400D01*
X16510000Y55350926D01*
X16375545Y55371017D01*
X16238974Y55400330D01*
X16101598Y55438523D01*
X15964726Y55485254D01*
X15902076Y55509612D01*
X15880978Y55518190D01*
X15861134Y55526399D01*
X15841371Y55534766D01*
X15820512Y55543815D01*
X15797384Y55554072D01*
X15770812Y55566062D01*
X15739621Y55580311D01*
X15702638Y55597343D01*
X15658686Y55617685D01*
X15612110Y55639299D01*
X15477475Y55697525D01*
X15343823Y55746776D01*
X15211455Y55787032D01*
X15080672Y55818274D01*
X14951777Y55840482D01*
X14825069Y55853636D01*
X14700852Y55857715D01*
X14579426Y55852700D01*
X14461093Y55838570D01*
X14346155Y55815307D01*
X14234914Y55782890D01*
X14127670Y55741299D01*
X14120079Y55737935D01*
X14095361Y55726337D01*
X14068565Y55712835D01*
X14041292Y55698345D01*
X14015141Y55683779D01*
X13991712Y55670051D01*
X13972606Y55658073D01*
X13959424Y55648758D01*
X13953772Y55643038D01*
X13755587Y55643038D01*
X13744136Y55676055D01*
X13707878Y55809590D01*
X13680849Y55945436D01*
X13663189Y56083116D01*
X13655041Y56222149D01*
X13656143Y56324528D01*
X13840781Y56324528D01*
X13840808Y56264455D01*
X13842252Y56202849D01*
X13845037Y56142293D01*
X13849089Y56085366D01*
X13854332Y56034650D01*
X13857429Y56012080D01*
X13863009Y55977741D01*
X13869542Y55941478D01*
X13876732Y55904569D01*
X13884283Y55868294D01*
X13891899Y55833930D01*
X13899285Y55802757D01*
X13906144Y55776053D01*
X13912181Y55755097D01*
X13917099Y55741167D01*
X13920603Y55735542D01*
X13921387Y55735714D01*
X13923981Y55740484D01*
X13930881Y55753720D01*
X13941787Y55774833D01*
X13956395Y55803234D01*
X13974406Y55838334D01*
X13995517Y55879545D01*
X14019426Y55926277D01*
X14045833Y55977941D01*
X14074436Y56033948D01*
X14104933Y56093710D01*
X14137023Y56156637D01*
X14170404Y56222140D01*
X14171514Y56224319D01*
X14204944Y56289879D01*
X14237118Y56352859D01*
X14267736Y56412673D01*
X14296492Y56468733D01*
X14323084Y56520452D01*
X14347209Y56567243D01*
X14368563Y56608518D01*
X14386843Y56643690D01*
X14401746Y56672173D01*
X14412968Y56693378D01*
X14420206Y56706719D01*
X14423158Y56711609D01*
X14423179Y56711619D01*
X14426199Y56707462D01*
X14433564Y56695071D01*
X14444865Y56675190D01*
X14459694Y56648563D01*
X14477641Y56615936D01*
X14498299Y56578052D01*
X14521256Y56535657D01*
X14546106Y56489494D01*
X14572439Y56440310D01*
X14581461Y56423400D01*
X14608196Y56373343D01*
X14633569Y56326029D01*
X14657172Y56282207D01*
X14678596Y56242624D01*
X14697435Y56208028D01*
X14713281Y56179168D01*
X14725724Y56156792D01*
X14734358Y56141649D01*
X14738774Y56134485D01*
X14739236Y56134000D01*
X14742005Y56138416D01*
X14749122Y56151265D01*
X14760278Y56171957D01*
X14775159Y56199896D01*
X14793455Y56234491D01*
X14814854Y56275149D01*
X14839043Y56321275D01*
X14865712Y56372278D01*
X14894549Y56427564D01*
X14925242Y56486539D01*
X14957479Y56548611D01*
X14985482Y56602630D01*
X15018794Y56666916D01*
X15050818Y56728660D01*
X15081242Y56787266D01*
X15109754Y56842134D01*
X15136042Y56892665D01*
X15159794Y56938262D01*
X15180699Y56978325D01*
X15198443Y57012256D01*
X15212715Y57039456D01*
X15223203Y57059326D01*
X15229595Y57071268D01*
X15231566Y57074731D01*
X15234390Y57070861D01*
X15241642Y57058638D01*
X15252987Y57038680D01*
X15268085Y57011606D01*
X15286597Y56978034D01*
X15308187Y56938582D01*
X15332515Y56893870D01*
X15359243Y56844515D01*
X15388033Y56791136D01*
X15418547Y56734351D01*
X15450447Y56674779D01*
X15455900Y56664575D01*
X15488009Y56604525D01*
X15518771Y56547093D01*
X15547848Y56492905D01*
X15574903Y56442585D01*
X15599598Y56396758D01*
X15621596Y56356049D01*
X15640558Y56321082D01*
X15656146Y56292482D01*
X15668025Y56270875D01*
X15675854Y56256884D01*
X15679298Y56251134D01*
X15679420Y56251021D01*
X15682187Y56255407D01*
X15689139Y56267954D01*
X15699811Y56287785D01*
X15713741Y56314024D01*
X15730466Y56345797D01*
X15749525Y56382228D01*
X15770454Y56422440D01*
X15792790Y56465559D01*
X15793466Y56466867D01*
X15815859Y56510063D01*
X15836890Y56550375D01*
X15856095Y56586927D01*
X15873006Y56618844D01*
X15887157Y56645248D01*
X15898082Y56665266D01*
X15905313Y56678021D01*
X15908385Y56682637D01*
X15908407Y56682640D01*
X15911255Y56678263D01*
X15918534Y56665556D01*
X15929896Y56645157D01*
X15944996Y56617703D01*
X15963487Y56583832D01*
X15985023Y56544181D01*
X16009258Y56499388D01*
X16035845Y56450090D01*
X16064437Y56396925D01*
X16094690Y56340531D01*
X16124339Y56285130D01*
X16156077Y56225773D01*
X16186624Y56168667D01*
X16215615Y56114493D01*
X16242688Y56063929D01*
X16267478Y56017654D01*
X16289622Y55976346D01*
X16308755Y55940685D01*
X16324514Y55911348D01*
X16336535Y55889015D01*
X16344455Y55874364D01*
X16347750Y55868350D01*
X16358662Y55849080D01*
X16463198Y56051230D01*
X16484877Y56092974D01*
X16505207Y56131777D01*
X16523703Y56166737D01*
X16539880Y56196955D01*
X16553254Y56221530D01*
X16563338Y56239560D01*
X16569649Y56250145D01*
X16571634Y56252654D01*
X16574838Y56248161D01*
X16582242Y56235694D01*
X16593287Y56216255D01*
X16607414Y56190849D01*
X16624067Y56160477D01*
X16642687Y56126145D01*
X16662676Y56088930D01*
X16682636Y56051822D01*
X16701148Y56017841D01*
X16717664Y55987959D01*
X16731636Y55963151D01*
X16742514Y55944392D01*
X16749750Y55932654D01*
X16752796Y55928911D01*
X16752806Y55928920D01*
X16755565Y55933808D01*
X16762614Y55947018D01*
X16773583Y55967841D01*
X16788105Y55995570D01*
X16805810Y56029498D01*
X16826330Y56068916D01*
X16849295Y56113118D01*
X16874337Y56161395D01*
X16901087Y56213040D01*
X16929177Y56267345D01*
X16930076Y56269085D01*
X16958172Y56323376D01*
X16984932Y56374957D01*
X17009989Y56423129D01*
X17032976Y56467194D01*
X17053525Y56506450D01*
X17071271Y56540200D01*
X17085847Y56567744D01*
X17096884Y56588382D01*
X17104017Y56601414D01*
X17106879Y56606143D01*
X17106900Y56606149D01*
X17109792Y56601843D01*
X17117338Y56589429D01*
X17129130Y56569608D01*
X17144757Y56543081D01*
X17163810Y56510549D01*
X17185879Y56472711D01*
X17210554Y56430269D01*
X17237427Y56383923D01*
X17266087Y56334373D01*
X17289507Y56293799D01*
X17319270Y56242330D01*
X17347596Y56193612D01*
X17374076Y56148336D01*
X17398299Y56107191D01*
X17419853Y56070868D01*
X17438327Y56040056D01*
X17453311Y56015445D01*
X17464394Y55997725D01*
X17471165Y55987587D01*
X17473196Y55985392D01*
X17476575Y55993784D01*
X17479956Y56011001D01*
X17483236Y56035706D01*
X17486313Y56066565D01*
X17489086Y56102242D01*
X17491451Y56141402D01*
X17493306Y56182709D01*
X17494549Y56224829D01*
X17495078Y56266426D01*
X17495089Y56271160D01*
X17493764Y56358532D01*
X17489382Y56439016D01*
X17481620Y56515509D01*
X17470156Y56590908D01*
X17454666Y56668110D01*
X17447204Y56700420D01*
X17411494Y56829595D01*
X17367109Y56953943D01*
X17313707Y57074242D01*
X17250949Y57191268D01*
X17187658Y57292240D01*
X17151255Y57345026D01*
X17115906Y57392784D01*
X17079673Y57437854D01*
X17040614Y57482571D01*
X16996791Y57529275D01*
X16959865Y57566779D01*
X16892641Y57631508D01*
X16827473Y57688962D01*
X16761990Y57741009D01*
X16693821Y57789519D01*
X16620597Y57836360D01*
X16609170Y57843274D01*
X16491239Y57908343D01*
X16369928Y57964048D01*
X16245767Y58010404D01*
X16119284Y58047424D01*
X15991008Y58075123D01*
X15861466Y58093516D01*
X15731187Y58102616D01*
X15600701Y58102438D01*
X15470535Y58092997D01*
X15341217Y58074307D01*
X15213277Y58046382D01*
X15087243Y58009237D01*
X14963643Y57962886D01*
X14843005Y57907343D01*
X14725859Y57842623D01*
X14643100Y57789760D01*
X14533713Y57709631D01*
X14431262Y57622309D01*
X14336018Y57528252D01*
X14248250Y57427920D01*
X14168226Y57321772D01*
X14096217Y57210267D01*
X14032492Y57093864D01*
X13977319Y56973023D01*
X13930970Y56848203D01*
X13893712Y56719864D01*
X13865816Y56588463D01*
X13847550Y56454461D01*
X13845276Y56429756D01*
X13842245Y56380489D01*
X13840781Y56324528D01*
X13656143Y56324528D01*
X13656548Y56362056D01*
X13667851Y56502359D01*
X13689093Y56642578D01*
X13698163Y56688066D01*
X13732160Y56824928D01*
X13775292Y56957882D01*
X13827195Y57086575D01*
X13887505Y57210659D01*
X13955859Y57329783D01*
X14031893Y57443595D01*
X14115242Y57551746D01*
X14205544Y57653885D01*
X14302433Y57749661D01*
X14405548Y57838724D01*
X14514523Y57920723D01*
X14628995Y57995308D01*
X14748599Y58062128D01*
X14872974Y58120832D01*
X15001753Y58171070D01*
X15134574Y58212492D01*
X15271074Y58244746D01*
X15323820Y58254524D01*
X15365605Y58261512D01*
X15402211Y58267129D01*
X15435588Y58271521D01*
X15467685Y58274833D01*
X15500453Y58277212D01*
X15535841Y58278802D01*
X15575800Y58279750D01*
X15622278Y58280200D01*
X15669260Y58280300D01*
X15722147Y58280174D01*
G36*
X28001094Y56723221D02*
X28037298Y56723052D01*
X28068851Y56722788D01*
X28094554Y56722444D01*
X28113211Y56722034D01*
X28123626Y56721573D01*
X28125420Y56721277D01*
X28123646Y56715494D01*
X28118502Y56700916D01*
X28110249Y56678235D01*
X28099150Y56648146D01*
X28085470Y56611340D01*
X28069471Y56568510D01*
X28051415Y56520349D01*
X28031566Y56467551D01*
X28010187Y56410807D01*
X27987541Y56350811D01*
X27963891Y56288256D01*
X27939500Y56223834D01*
X27914631Y56158238D01*
X27889547Y56092161D01*
X27864511Y56026296D01*
X27839786Y55961335D01*
X27815636Y55897972D01*
X27792322Y55836900D01*
X27770109Y55778810D01*
X27749259Y55724396D01*
X27730036Y55674351D01*
X27712701Y55629368D01*
X27697519Y55590139D01*
X27684752Y55557357D01*
X27674664Y55531716D01*
X27667517Y55513907D01*
X27663575Y55504624D01*
X27663312Y55504080D01*
X27631347Y55447886D01*
X27596547Y55401262D01*
X27558616Y55363940D01*
X27517256Y55335652D01*
X27472169Y55316131D01*
X27447240Y55309374D01*
X27410577Y55303335D01*
X27368497Y55299692D01*
X27325504Y55298658D01*
X27286105Y55300444D01*
X27277166Y55301378D01*
X27224169Y55310712D01*
X27171175Y55326489D01*
X27155140Y55332436D01*
X27133701Y55341217D01*
X27112427Y55350798D01*
X27093359Y55360153D01*
X27078537Y55368255D01*
X27070002Y55374078D01*
X27068726Y55375884D01*
X27070787Y55382206D01*
X27076542Y55395873D01*
X27085261Y55415355D01*
X27096213Y55439128D01*
X27108666Y55465663D01*
X27121889Y55493434D01*
X27135150Y55520913D01*
X27147720Y55546575D01*
X27158865Y55568892D01*
X27167856Y55586337D01*
X27173961Y55597383D01*
X27176341Y55600600D01*
X27183081Y55598457D01*
X27195615Y55592941D01*
X27206023Y55587858D01*
X27247276Y55570931D01*
X27287456Y55562144D01*
X27325011Y55561743D01*
X27345640Y55565631D01*
X27362188Y55573371D01*
X27379553Y55586374D01*
X27394751Y55601873D01*
X27404803Y55617095D01*
X27406681Y55622343D01*
X27405295Y55629180D01*
X27400103Y55645437D01*
X27391106Y55671112D01*
X27378304Y55706204D01*
X27361698Y55750713D01*
X27341287Y55804636D01*
X27317073Y55867973D01*
X27289056Y55940724D01*
X27257235Y56022886D01*
X27221612Y56114460D01*
X27198460Y56173803D01*
X27170847Y56244549D01*
X27144289Y56312672D01*
X27119018Y56377571D01*
X27095266Y56438647D01*
X27073265Y56495301D01*
X27053248Y56546934D01*
X27035447Y56592944D01*
X27020093Y56632733D01*
X27007419Y56665702D01*
X26997657Y56691249D01*
X26991040Y56708777D01*
X26987799Y56717685D01*
X26987500Y56718703D01*
X26992444Y56719945D01*
X27006741Y56720943D01*
X27029586Y56721681D01*
X27060174Y56722142D01*
X27097699Y56722310D01*
X27141358Y56722168D01*
X27153448Y56722080D01*
X27319396Y56720740D01*
X27441130Y56355532D01*
X27562865Y55990324D01*
X27645907Y56248852D01*
X27663089Y56302370D01*
X27680458Y56356517D01*
X27697548Y56409842D01*
X27713894Y56460891D01*
X27729033Y56508211D01*
X27742498Y56550351D01*
X27753825Y56585857D01*
X27762548Y56613276D01*
X27763200Y56615330D01*
X27797451Y56723280D01*
X27961435Y56723280D01*
X28001094Y56723221D01*
X28001094Y56723221D01*
G37*
X28001094Y56723221D02*
X28037298Y56723052D01*
X28068851Y56722788D01*
X28094554Y56722444D01*
X28113211Y56722034D01*
X28123626Y56721573D01*
X28125420Y56721277D01*
X28123646Y56715494D01*
X28118502Y56700916D01*
X28110249Y56678235D01*
X28099150Y56648146D01*
X28085470Y56611340D01*
X28069471Y56568510D01*
X28051415Y56520349D01*
X28031566Y56467551D01*
X28010187Y56410807D01*
X27987541Y56350811D01*
X27963891Y56288256D01*
X27939500Y56223834D01*
X27914631Y56158238D01*
X27889547Y56092161D01*
X27864511Y56026296D01*
X27839786Y55961335D01*
X27815636Y55897972D01*
X27792322Y55836900D01*
X27770109Y55778810D01*
X27749259Y55724396D01*
X27730036Y55674351D01*
X27712701Y55629368D01*
X27697519Y55590139D01*
X27684752Y55557357D01*
X27674664Y55531716D01*
X27667517Y55513907D01*
X27663575Y55504624D01*
X27663312Y55504080D01*
X27631347Y55447886D01*
X27596547Y55401262D01*
X27558616Y55363940D01*
X27517256Y55335652D01*
X27472169Y55316131D01*
X27447240Y55309374D01*
X27410577Y55303335D01*
X27368497Y55299692D01*
X27325504Y55298658D01*
X27286105Y55300444D01*
X27277166Y55301378D01*
X27224169Y55310712D01*
X27171175Y55326489D01*
X27155140Y55332436D01*
X27133701Y55341217D01*
X27112427Y55350798D01*
X27093359Y55360153D01*
X27078537Y55368255D01*
X27070002Y55374078D01*
X27068726Y55375884D01*
X27070787Y55382206D01*
X27076542Y55395873D01*
X27085261Y55415355D01*
X27096213Y55439128D01*
X27108666Y55465663D01*
X27121889Y55493434D01*
X27135150Y55520913D01*
X27147720Y55546575D01*
X27158865Y55568892D01*
X27167856Y55586337D01*
X27173961Y55597383D01*
X27176341Y55600600D01*
X27183081Y55598457D01*
X27195615Y55592941D01*
X27206023Y55587858D01*
X27247276Y55570931D01*
X27287456Y55562144D01*
X27325011Y55561743D01*
X27345640Y55565631D01*
X27362188Y55573371D01*
X27379553Y55586374D01*
X27394751Y55601873D01*
X27404803Y55617095D01*
X27406681Y55622343D01*
X27405295Y55629180D01*
X27400103Y55645437D01*
X27391106Y55671112D01*
X27378304Y55706204D01*
X27361698Y55750713D01*
X27341287Y55804636D01*
X27317073Y55867973D01*
X27289056Y55940724D01*
X27257235Y56022886D01*
X27221612Y56114460D01*
X27198460Y56173803D01*
X27170847Y56244549D01*
X27144289Y56312672D01*
X27119018Y56377571D01*
X27095266Y56438647D01*
X27073265Y56495301D01*
X27053248Y56546934D01*
X27035447Y56592944D01*
X27020093Y56632733D01*
X27007419Y56665702D01*
X26997657Y56691249D01*
X26991040Y56708777D01*
X26987799Y56717685D01*
X26987500Y56718703D01*
X26992444Y56719945D01*
X27006741Y56720943D01*
X27029586Y56721681D01*
X27060174Y56722142D01*
X27097699Y56722310D01*
X27141358Y56722168D01*
X27153448Y56722080D01*
X27319396Y56720740D01*
X27441130Y56355532D01*
X27562865Y55990324D01*
X27645907Y56248852D01*
X27663089Y56302370D01*
X27680458Y56356517D01*
X27697548Y56409842D01*
X27713894Y56460891D01*
X27729033Y56508211D01*
X27742498Y56550351D01*
X27753825Y56585857D01*
X27762548Y56613276D01*
X27763200Y56615330D01*
X27797451Y56723280D01*
X27961435Y56723280D01*
X28001094Y56723221D01*
G36*
X18638948Y56740628D02*
X18708629Y56730486D01*
X18772424Y56713282D01*
X18831389Y56688615D01*
X18886584Y56656082D01*
X18939067Y56615280D01*
X18965390Y56590905D01*
X18997620Y56559423D01*
X18967637Y56528322D01*
X18954317Y56514382D01*
X18935845Y56494883D01*
X18913993Y56471701D01*
X18890532Y56446716D01*
X18870152Y56424933D01*
X18802649Y56352645D01*
X18767841Y56384194D01*
X18728733Y56416646D01*
X18691536Y56440763D01*
X18654137Y56457538D01*
X18614424Y56467967D01*
X18580644Y56472321D01*
X18529200Y56471887D01*
X18481266Y56461921D01*
X18436935Y56442457D01*
X18396300Y56413533D01*
X18375455Y56393494D01*
X18342405Y56351924D01*
X18318135Y56306314D01*
X18302393Y56255984D01*
X18294925Y56200255D01*
X18294196Y56174640D01*
X18298624Y56117181D01*
X18311734Y56063764D01*
X18333234Y56015144D01*
X18362830Y55972076D01*
X18379975Y55953449D01*
X18416542Y55922669D01*
X18455873Y55900522D01*
X18499357Y55886474D01*
X18548383Y55879991D01*
X18572644Y55879400D01*
X18621303Y55883535D01*
X18667724Y55895865D01*
X18713217Y55916907D01*
X18759092Y55947184D01*
X18775114Y55959760D01*
X18790614Y55972271D01*
X18803742Y55982650D01*
X18811913Y55988856D01*
X18812433Y55989220D01*
X18816237Y55989346D01*
X18822863Y55985674D01*
X18833035Y55977553D01*
X18847480Y55964331D01*
X18866920Y55945358D01*
X18892082Y55919981D01*
X18910968Y55900649D01*
X19002098Y55806997D01*
X18972709Y55777145D01*
X18930749Y55738583D01*
X18884364Y55703061D01*
X18835979Y55672162D01*
X18788019Y55647469D01*
X18753091Y55633743D01*
X18710281Y55622328D01*
X18660741Y55613748D01*
X18607560Y55608215D01*
X18553821Y55605939D01*
X18502613Y55607129D01*
X18457021Y55611997D01*
X18450560Y55613112D01*
X18377724Y55631208D01*
X18308504Y55657871D01*
X18243907Y55692495D01*
X18184942Y55734475D01*
X18132618Y55783207D01*
X18097707Y55824660D01*
X18057108Y55886585D01*
X18025377Y55952137D01*
X18002414Y56020405D01*
X17988120Y56090478D01*
X17982396Y56161443D01*
X17985144Y56232389D01*
X17996265Y56302404D01*
X18015659Y56370576D01*
X18043227Y56435994D01*
X18078871Y56497746D01*
X18122492Y56554919D01*
X18173990Y56606602D01*
X18183469Y56614734D01*
X18242502Y56658183D01*
X18305324Y56692600D01*
X18372378Y56718135D01*
X18444107Y56734941D01*
X18520955Y56743169D01*
X18562320Y56744111D01*
X18638948Y56740628D01*
X18638948Y56740628D01*
G37*
X18638948Y56740628D02*
X18708629Y56730486D01*
X18772424Y56713282D01*
X18831389Y56688615D01*
X18886584Y56656082D01*
X18939067Y56615280D01*
X18965390Y56590905D01*
X18997620Y56559423D01*
X18967637Y56528322D01*
X18954317Y56514382D01*
X18935845Y56494883D01*
X18913993Y56471701D01*
X18890532Y56446716D01*
X18870152Y56424933D01*
X18802649Y56352645D01*
X18767841Y56384194D01*
X18728733Y56416646D01*
X18691536Y56440763D01*
X18654137Y56457538D01*
X18614424Y56467967D01*
X18580644Y56472321D01*
X18529200Y56471887D01*
X18481266Y56461921D01*
X18436935Y56442457D01*
X18396300Y56413533D01*
X18375455Y56393494D01*
X18342405Y56351924D01*
X18318135Y56306314D01*
X18302393Y56255984D01*
X18294925Y56200255D01*
X18294196Y56174640D01*
X18298624Y56117181D01*
X18311734Y56063764D01*
X18333234Y56015144D01*
X18362830Y55972076D01*
X18379975Y55953449D01*
X18416542Y55922669D01*
X18455873Y55900522D01*
X18499357Y55886474D01*
X18548383Y55879991D01*
X18572644Y55879400D01*
X18621303Y55883535D01*
X18667724Y55895865D01*
X18713217Y55916907D01*
X18759092Y55947184D01*
X18775114Y55959760D01*
X18790614Y55972271D01*
X18803742Y55982650D01*
X18811913Y55988856D01*
X18812433Y55989220D01*
X18816237Y55989346D01*
X18822863Y55985674D01*
X18833035Y55977553D01*
X18847480Y55964331D01*
X18866920Y55945358D01*
X18892082Y55919981D01*
X18910968Y55900649D01*
X19002098Y55806997D01*
X18972709Y55777145D01*
X18930749Y55738583D01*
X18884364Y55703061D01*
X18835979Y55672162D01*
X18788019Y55647469D01*
X18753091Y55633743D01*
X18710281Y55622328D01*
X18660741Y55613748D01*
X18607560Y55608215D01*
X18553821Y55605939D01*
X18502613Y55607129D01*
X18457021Y55611997D01*
X18450560Y55613112D01*
X18377724Y55631208D01*
X18308504Y55657871D01*
X18243907Y55692495D01*
X18184942Y55734475D01*
X18132618Y55783207D01*
X18097707Y55824660D01*
X18057108Y55886585D01*
X18025377Y55952137D01*
X18002414Y56020405D01*
X17988120Y56090478D01*
X17982396Y56161443D01*
X17985144Y56232389D01*
X17996265Y56302404D01*
X18015659Y56370576D01*
X18043227Y56435994D01*
X18078871Y56497746D01*
X18122492Y56554919D01*
X18173990Y56606602D01*
X18183469Y56614734D01*
X18242502Y56658183D01*
X18305324Y56692600D01*
X18372378Y56718135D01*
X18444107Y56734941D01*
X18520955Y56743169D01*
X18562320Y56744111D01*
X18638948Y56740628D01*
G36*
X19684682Y56743120D02*
X19724452Y56739940D01*
X19752013Y56735942D01*
X19828445Y56716923D01*
X19899866Y56689679D01*
X19965747Y56654651D01*
X20025564Y56612281D01*
X20078790Y56563011D01*
X20124896Y56507284D01*
X20163358Y56445540D01*
X20193648Y56378221D01*
X20200053Y56360060D01*
X20217963Y56291467D01*
X20227201Y56220355D01*
X20227879Y56148358D01*
X20220110Y56077106D01*
X20204006Y56008230D01*
X20179679Y55943361D01*
X20170075Y55923520D01*
X20130492Y55857094D01*
X20083701Y55797759D01*
X20029968Y55745723D01*
X19969564Y55701199D01*
X19902755Y55664398D01*
X19829811Y55635530D01*
X19788293Y55623399D01*
X19765413Y55617885D01*
X19744391Y55613928D01*
X19722458Y55611212D01*
X19696843Y55609423D01*
X19664777Y55608247D01*
X19651980Y55607933D01*
X19605589Y55607561D01*
X19567820Y55608795D01*
X19537251Y55611698D01*
X19526791Y55613327D01*
X19450516Y55631523D01*
X19379214Y55658080D01*
X19313382Y55692478D01*
X19253514Y55734197D01*
X19200109Y55782714D01*
X19153663Y55837510D01*
X19114672Y55898063D01*
X19083632Y55963853D01*
X19061042Y56034360D01*
X19047396Y56109062D01*
X19046513Y56117022D01*
X19044577Y56170069D01*
X19355684Y56170069D01*
X19361193Y56117456D01*
X19374757Y56067061D01*
X19396201Y56020334D01*
X19425350Y55978724D01*
X19432135Y55971095D01*
X19462689Y55941265D01*
X19493246Y55918609D01*
X19527191Y55900718D01*
X19536807Y55896624D01*
X19573616Y55885723D01*
X19615674Y55880054D01*
X19659500Y55879658D01*
X19701608Y55884576D01*
X19737105Y55894304D01*
X19784773Y55917356D01*
X19825583Y55947505D01*
X19859014Y55984292D01*
X19882602Y56023180D01*
X19899157Y56061650D01*
X19909640Y56098280D01*
X19914970Y56137147D01*
X19916140Y56172100D01*
X19912061Y56229840D01*
X19899697Y56281927D01*
X19878860Y56328849D01*
X19849361Y56371092D01*
X19831115Y56390797D01*
X19789782Y56424964D01*
X19744407Y56450145D01*
X19695937Y56466206D01*
X19645319Y56473011D01*
X19593499Y56470427D01*
X19541424Y56458318D01*
X19494255Y56438726D01*
X19472538Y56424478D01*
X19448808Y56403675D01*
X19425486Y56378900D01*
X19404997Y56352739D01*
X19389762Y56327775D01*
X19389235Y56326712D01*
X19369530Y56276147D01*
X19358404Y56223449D01*
X19355684Y56170069D01*
X19044577Y56170069D01*
X19043872Y56189366D01*
X19050642Y56261944D01*
X19066435Y56333202D01*
X19090867Y56401584D01*
X19123551Y56465534D01*
X19139056Y56489831D01*
X19160270Y56517913D01*
X19187153Y56548819D01*
X19216957Y56579681D01*
X19246933Y56607634D01*
X19270720Y56627135D01*
X19321651Y56660613D01*
X19379506Y56690144D01*
X19441413Y56714491D01*
X19504506Y56732418D01*
X19524761Y56736650D01*
X19558164Y56741166D01*
X19598186Y56743743D01*
X19641476Y56744391D01*
X19684682Y56743120D01*
X19684682Y56743120D01*
G37*
X19684682Y56743120D02*
X19724452Y56739940D01*
X19752013Y56735942D01*
X19828445Y56716923D01*
X19899866Y56689679D01*
X19965747Y56654651D01*
X20025564Y56612281D01*
X20078790Y56563011D01*
X20124896Y56507284D01*
X20163358Y56445540D01*
X20193648Y56378221D01*
X20200053Y56360060D01*
X20217963Y56291467D01*
X20227201Y56220355D01*
X20227879Y56148358D01*
X20220110Y56077106D01*
X20204006Y56008230D01*
X20179679Y55943361D01*
X20170075Y55923520D01*
X20130492Y55857094D01*
X20083701Y55797759D01*
X20029968Y55745723D01*
X19969564Y55701199D01*
X19902755Y55664398D01*
X19829811Y55635530D01*
X19788293Y55623399D01*
X19765413Y55617885D01*
X19744391Y55613928D01*
X19722458Y55611212D01*
X19696843Y55609423D01*
X19664777Y55608247D01*
X19651980Y55607933D01*
X19605589Y55607561D01*
X19567820Y55608795D01*
X19537251Y55611698D01*
X19526791Y55613327D01*
X19450516Y55631523D01*
X19379214Y55658080D01*
X19313382Y55692478D01*
X19253514Y55734197D01*
X19200109Y55782714D01*
X19153663Y55837510D01*
X19114672Y55898063D01*
X19083632Y55963853D01*
X19061042Y56034360D01*
X19047396Y56109062D01*
X19046513Y56117022D01*
X19044577Y56170069D01*
X19355684Y56170069D01*
X19361193Y56117456D01*
X19374757Y56067061D01*
X19396201Y56020334D01*
X19425350Y55978724D01*
X19432135Y55971095D01*
X19462689Y55941265D01*
X19493246Y55918609D01*
X19527191Y55900718D01*
X19536807Y55896624D01*
X19573616Y55885723D01*
X19615674Y55880054D01*
X19659500Y55879658D01*
X19701608Y55884576D01*
X19737105Y55894304D01*
X19784773Y55917356D01*
X19825583Y55947505D01*
X19859014Y55984292D01*
X19882602Y56023180D01*
X19899157Y56061650D01*
X19909640Y56098280D01*
X19914970Y56137147D01*
X19916140Y56172100D01*
X19912061Y56229840D01*
X19899697Y56281927D01*
X19878860Y56328849D01*
X19849361Y56371092D01*
X19831115Y56390797D01*
X19789782Y56424964D01*
X19744407Y56450145D01*
X19695937Y56466206D01*
X19645319Y56473011D01*
X19593499Y56470427D01*
X19541424Y56458318D01*
X19494255Y56438726D01*
X19472538Y56424478D01*
X19448808Y56403675D01*
X19425486Y56378900D01*
X19404997Y56352739D01*
X19389762Y56327775D01*
X19389235Y56326712D01*
X19369530Y56276147D01*
X19358404Y56223449D01*
X19355684Y56170069D01*
X19044577Y56170069D01*
X19043872Y56189366D01*
X19050642Y56261944D01*
X19066435Y56333202D01*
X19090867Y56401584D01*
X19123551Y56465534D01*
X19139056Y56489831D01*
X19160270Y56517913D01*
X19187153Y56548819D01*
X19216957Y56579681D01*
X19246933Y56607634D01*
X19270720Y56627135D01*
X19321651Y56660613D01*
X19379506Y56690144D01*
X19441413Y56714491D01*
X19504506Y56732418D01*
X19524761Y56736650D01*
X19558164Y56741166D01*
X19598186Y56743743D01*
X19641476Y56744391D01*
X19684682Y56743120D01*
G36*
X23080381Y56741999D02*
X23121496Y56739017D01*
X23158071Y56734427D01*
X23185120Y56728886D01*
X23251756Y56706180D01*
X23312929Y56675060D01*
X23368350Y56635857D01*
X23417729Y56588903D01*
X23460777Y56534527D01*
X23497205Y56473059D01*
X23526724Y56404831D01*
X23549046Y56330173D01*
X23554227Y56306901D01*
X23557402Y56287450D01*
X23560346Y56262001D01*
X23562961Y56232490D01*
X23565153Y56200857D01*
X23566823Y56169038D01*
X23567875Y56138970D01*
X23568213Y56112592D01*
X23567740Y56091840D01*
X23566359Y56078652D01*
X23565726Y56076388D01*
X23564514Y56074799D01*
X23561729Y56073422D01*
X23556693Y56072242D01*
X23548729Y56071243D01*
X23537160Y56070412D01*
X23521307Y56069732D01*
X23500493Y56069189D01*
X23474040Y56068768D01*
X23441271Y56068454D01*
X23401507Y56068232D01*
X23354071Y56068086D01*
X23298285Y56068003D01*
X23233472Y56067966D01*
X23184576Y56067960D01*
X23123616Y56067944D01*
X23065703Y56067896D01*
X23011626Y56067819D01*
X22962173Y56067716D01*
X22918133Y56067589D01*
X22880294Y56067441D01*
X22849445Y56067276D01*
X22826373Y56067094D01*
X22811868Y56066900D01*
X22806717Y56066695D01*
X22806714Y56066690D01*
X22809001Y56056378D01*
X22814539Y56039939D01*
X22822157Y56020392D01*
X22830687Y56000758D01*
X22838207Y55985446D01*
X22864814Y55945825D01*
X22898302Y55913435D01*
X22938183Y55888514D01*
X22983969Y55871302D01*
X23035171Y55862035D01*
X23091302Y55860951D01*
X23093465Y55861071D01*
X23148917Y55868612D01*
X23201493Y55884898D01*
X23252301Y55910385D01*
X23302445Y55945526D01*
X23306352Y55948679D01*
X23334988Y55972005D01*
X23423522Y55894253D01*
X23448705Y55871926D01*
X23471132Y55851635D01*
X23489729Y55834389D01*
X23503416Y55821196D01*
X23511118Y55813064D01*
X23512418Y55811070D01*
X23508982Y55804818D01*
X23499256Y55793493D01*
X23484757Y55778522D01*
X23467004Y55761334D01*
X23447514Y55743355D01*
X23427806Y55726012D01*
X23409397Y55710734D01*
X23393805Y55698947D01*
X23391463Y55697339D01*
X23330351Y55662230D01*
X23263479Y55635120D01*
X23191766Y55616351D01*
X23159720Y55610937D01*
X23129779Y55608055D01*
X23093263Y55606628D01*
X23053644Y55606611D01*
X23014395Y55607957D01*
X22978990Y55610622D01*
X22956200Y55613600D01*
X22881760Y55630750D01*
X22812868Y55656331D01*
X22749107Y55690549D01*
X22690061Y55733610D01*
X22661057Y55759589D01*
X22611297Y55814084D01*
X22569955Y55874210D01*
X22537160Y55939719D01*
X22513042Y56010367D01*
X22501368Y56062880D01*
X22497588Y56093212D01*
X22495388Y56130296D01*
X22494739Y56170978D01*
X22495614Y56212102D01*
X22497985Y56250515D01*
X22499820Y56266080D01*
X22802531Y56266080D01*
X23030655Y56266080D01*
X23084813Y56266100D01*
X23129679Y56266182D01*
X23166124Y56266360D01*
X23195014Y56266667D01*
X23217219Y56267139D01*
X23233608Y56267807D01*
X23245049Y56268707D01*
X23252411Y56269873D01*
X23256562Y56271337D01*
X23258373Y56273135D01*
X23258719Y56274970D01*
X23256695Y56289789D01*
X23251441Y56310499D01*
X23243963Y56333759D01*
X23235269Y56356226D01*
X23232062Y56363420D01*
X23208136Y56405156D01*
X23179012Y56438368D01*
X23144147Y56463563D01*
X23107211Y56479871D01*
X23089407Y56485155D01*
X23072447Y56488180D01*
X23052835Y56489317D01*
X23027073Y56488939D01*
X23023097Y56488798D01*
X22997830Y56487525D01*
X22979343Y56485428D01*
X22964254Y56481780D01*
X22949183Y56475858D01*
X22937991Y56470541D01*
X22900889Y56446706D01*
X22868432Y56414361D01*
X22841160Y56374292D01*
X22819614Y56327286D01*
X22805073Y56277510D01*
X22802531Y56266080D01*
X22499820Y56266080D01*
X22501823Y56283062D01*
X22503403Y56291958D01*
X22522971Y56367203D01*
X22550569Y56437110D01*
X22585736Y56501199D01*
X22628012Y56558987D01*
X22676936Y56609993D01*
X22732047Y56653736D01*
X22792887Y56689734D01*
X22858993Y56717505D01*
X22928100Y56736205D01*
X22958584Y56740476D01*
X22996045Y56742810D01*
X23037604Y56743290D01*
X23080381Y56741999D01*
X23080381Y56741999D01*
G37*
X23080381Y56741999D02*
X23121496Y56739017D01*
X23158071Y56734427D01*
X23185120Y56728886D01*
X23251756Y56706180D01*
X23312929Y56675060D01*
X23368350Y56635857D01*
X23417729Y56588903D01*
X23460777Y56534527D01*
X23497205Y56473059D01*
X23526724Y56404831D01*
X23549046Y56330173D01*
X23554227Y56306901D01*
X23557402Y56287450D01*
X23560346Y56262001D01*
X23562961Y56232490D01*
X23565153Y56200857D01*
X23566823Y56169038D01*
X23567875Y56138970D01*
X23568213Y56112592D01*
X23567740Y56091840D01*
X23566359Y56078652D01*
X23565726Y56076388D01*
X23564514Y56074799D01*
X23561729Y56073422D01*
X23556693Y56072242D01*
X23548729Y56071243D01*
X23537160Y56070412D01*
X23521307Y56069732D01*
X23500493Y56069189D01*
X23474040Y56068768D01*
X23441271Y56068454D01*
X23401507Y56068232D01*
X23354071Y56068086D01*
X23298285Y56068003D01*
X23233472Y56067966D01*
X23184576Y56067960D01*
X23123616Y56067944D01*
X23065703Y56067896D01*
X23011626Y56067819D01*
X22962173Y56067716D01*
X22918133Y56067589D01*
X22880294Y56067441D01*
X22849445Y56067276D01*
X22826373Y56067094D01*
X22811868Y56066900D01*
X22806717Y56066695D01*
X22806714Y56066690D01*
X22809001Y56056378D01*
X22814539Y56039939D01*
X22822157Y56020392D01*
X22830687Y56000758D01*
X22838207Y55985446D01*
X22864814Y55945825D01*
X22898302Y55913435D01*
X22938183Y55888514D01*
X22983969Y55871302D01*
X23035171Y55862035D01*
X23091302Y55860951D01*
X23093465Y55861071D01*
X23148917Y55868612D01*
X23201493Y55884898D01*
X23252301Y55910385D01*
X23302445Y55945526D01*
X23306352Y55948679D01*
X23334988Y55972005D01*
X23423522Y55894253D01*
X23448705Y55871926D01*
X23471132Y55851635D01*
X23489729Y55834389D01*
X23503416Y55821196D01*
X23511118Y55813064D01*
X23512418Y55811070D01*
X23508982Y55804818D01*
X23499256Y55793493D01*
X23484757Y55778522D01*
X23467004Y55761334D01*
X23447514Y55743355D01*
X23427806Y55726012D01*
X23409397Y55710734D01*
X23393805Y55698947D01*
X23391463Y55697339D01*
X23330351Y55662230D01*
X23263479Y55635120D01*
X23191766Y55616351D01*
X23159720Y55610937D01*
X23129779Y55608055D01*
X23093263Y55606628D01*
X23053644Y55606611D01*
X23014395Y55607957D01*
X22978990Y55610622D01*
X22956200Y55613600D01*
X22881760Y55630750D01*
X22812868Y55656331D01*
X22749107Y55690549D01*
X22690061Y55733610D01*
X22661057Y55759589D01*
X22611297Y55814084D01*
X22569955Y55874210D01*
X22537160Y55939719D01*
X22513042Y56010367D01*
X22501368Y56062880D01*
X22497588Y56093212D01*
X22495388Y56130296D01*
X22494739Y56170978D01*
X22495614Y56212102D01*
X22497985Y56250515D01*
X22499820Y56266080D01*
X22802531Y56266080D01*
X23030655Y56266080D01*
X23084813Y56266100D01*
X23129679Y56266182D01*
X23166124Y56266360D01*
X23195014Y56266667D01*
X23217219Y56267139D01*
X23233608Y56267807D01*
X23245049Y56268707D01*
X23252411Y56269873D01*
X23256562Y56271337D01*
X23258373Y56273135D01*
X23258719Y56274970D01*
X23256695Y56289789D01*
X23251441Y56310499D01*
X23243963Y56333759D01*
X23235269Y56356226D01*
X23232062Y56363420D01*
X23208136Y56405156D01*
X23179012Y56438368D01*
X23144147Y56463563D01*
X23107211Y56479871D01*
X23089407Y56485155D01*
X23072447Y56488180D01*
X23052835Y56489317D01*
X23027073Y56488939D01*
X23023097Y56488798D01*
X22997830Y56487525D01*
X22979343Y56485428D01*
X22964254Y56481780D01*
X22949183Y56475858D01*
X22937991Y56470541D01*
X22900889Y56446706D01*
X22868432Y56414361D01*
X22841160Y56374292D01*
X22819614Y56327286D01*
X22805073Y56277510D01*
X22802531Y56266080D01*
X22499820Y56266080D01*
X22501823Y56283062D01*
X22503403Y56291958D01*
X22522971Y56367203D01*
X22550569Y56437110D01*
X22585736Y56501199D01*
X22628012Y56558987D01*
X22676936Y56609993D01*
X22732047Y56653736D01*
X22792887Y56689734D01*
X22858993Y56717505D01*
X22928100Y56736205D01*
X22958584Y56740476D01*
X22996045Y56742810D01*
X23037604Y56743290D01*
X23080381Y56741999D01*
G36*
X22002273Y56740527D02*
X22072626Y56732838D01*
X22145307Y56717450D01*
X22219693Y56694214D01*
X22222460Y56693206D01*
X22243840Y56684653D01*
X22268237Y56673748D01*
X22293750Y56661480D01*
X22318479Y56648833D01*
X22340523Y56636794D01*
X22357983Y56626351D01*
X22368958Y56618490D01*
X22371395Y56615877D01*
X22370944Y56609583D01*
X22365872Y56596164D01*
X22356004Y56575250D01*
X22341165Y56546473D01*
X22321180Y56509464D01*
X22318603Y56504771D01*
X22302343Y56475243D01*
X22287735Y56448787D01*
X22275481Y56426671D01*
X22266284Y56410162D01*
X22260848Y56400527D01*
X22259682Y56398570D01*
X22254771Y56399906D01*
X22242344Y56404995D01*
X22224014Y56413130D01*
X22201395Y56423604D01*
X22188156Y56429893D01*
X22159861Y56443035D01*
X22131012Y56455728D01*
X22104564Y56466714D01*
X22083472Y56474739D01*
X22079191Y56476198D01*
X22033644Y56488707D01*
X21991299Y56495571D01*
X21952999Y56496975D01*
X21919587Y56493108D01*
X21891905Y56484155D01*
X21870798Y56470304D01*
X21857107Y56451740D01*
X21851676Y56428651D01*
X21851620Y56425805D01*
X21854549Y56405426D01*
X21864275Y56388979D01*
X21880107Y56375054D01*
X21905404Y56359720D01*
X21940298Y56342917D01*
X21984918Y56324584D01*
X22039397Y56304657D01*
X22054820Y56299335D01*
X22116148Y56277438D01*
X22168439Y56256625D01*
X22212694Y56236424D01*
X22249917Y56216366D01*
X22281109Y56195979D01*
X22291234Y56188328D01*
X22330287Y56153031D01*
X22360109Y56115349D01*
X22381274Y56074072D01*
X22394356Y56027991D01*
X22399930Y55975898D01*
X22400224Y55958943D01*
X22395846Y55897489D01*
X22382912Y55841427D01*
X22361587Y55790938D01*
X22332037Y55746202D01*
X22294428Y55707401D01*
X22248925Y55674715D01*
X22195694Y55648325D01*
X22134902Y55628413D01*
X22088444Y55618512D01*
X22064837Y55615572D01*
X22034304Y55613363D01*
X21999950Y55611953D01*
X21964881Y55611412D01*
X21932203Y55611806D01*
X21905022Y55613205D01*
X21894800Y55614258D01*
X21834517Y55624922D01*
X21771414Y55641180D01*
X21709806Y55661762D01*
X21655490Y55684687D01*
X21635843Y55694736D01*
X21613053Y55707450D01*
X21588959Y55721675D01*
X21565401Y55736260D01*
X21544217Y55750049D01*
X21527246Y55761890D01*
X21516326Y55770631D01*
X21513561Y55773706D01*
X21515486Y55778875D01*
X21522102Y55791061D01*
X21532490Y55808810D01*
X21545730Y55830670D01*
X21560903Y55855187D01*
X21577091Y55880906D01*
X21593372Y55906376D01*
X21608830Y55930141D01*
X21622543Y55950749D01*
X21633594Y55966746D01*
X21641063Y55976679D01*
X21643487Y55979152D01*
X21649079Y55977561D01*
X21661340Y55971422D01*
X21678423Y55961727D01*
X21697175Y55950292D01*
X21757167Y55916366D01*
X21818663Y55888688D01*
X21878582Y55868643D01*
X21878721Y55868605D01*
X21901127Y55863278D01*
X21923376Y55859842D01*
X21948723Y55857955D01*
X21980426Y55857272D01*
X21986240Y55857252D01*
X22014176Y55857377D01*
X22034212Y55858058D01*
X22048602Y55859593D01*
X22059602Y55862276D01*
X22069468Y55866404D01*
X22074069Y55868775D01*
X22096723Y55885780D01*
X22110792Y55907659D01*
X22115758Y55933598D01*
X22115761Y55934221D01*
X22113046Y55952446D01*
X22104339Y55968759D01*
X22088842Y55983741D01*
X22065759Y55997974D01*
X22034295Y56012041D01*
X21993653Y56026523D01*
X21986240Y56028920D01*
X21937512Y56044516D01*
X21897376Y56057439D01*
X21864731Y56068065D01*
X21838477Y56076773D01*
X21817514Y56083939D01*
X21800742Y56089943D01*
X21787061Y56095161D01*
X21775372Y56099971D01*
X21764573Y56104752D01*
X21762100Y56105886D01*
X21706797Y56136117D01*
X21660036Y56171838D01*
X21637271Y56194582D01*
X21609095Y56230444D01*
X21588695Y56267935D01*
X21575402Y56308952D01*
X21568544Y56355394D01*
X21567215Y56392878D01*
X21569671Y56442988D01*
X21577245Y56486636D01*
X21590469Y56526425D01*
X21597974Y56542890D01*
X21627288Y56591391D01*
X21663911Y56633393D01*
X21707221Y56668746D01*
X21756594Y56697299D01*
X21811409Y56718904D01*
X21871042Y56733410D01*
X21934871Y56740668D01*
X22002273Y56740527D01*
X22002273Y56740527D01*
G37*
X22002273Y56740527D02*
X22072626Y56732838D01*
X22145307Y56717450D01*
X22219693Y56694214D01*
X22222460Y56693206D01*
X22243840Y56684653D01*
X22268237Y56673748D01*
X22293750Y56661480D01*
X22318479Y56648833D01*
X22340523Y56636794D01*
X22357983Y56626351D01*
X22368958Y56618490D01*
X22371395Y56615877D01*
X22370944Y56609583D01*
X22365872Y56596164D01*
X22356004Y56575250D01*
X22341165Y56546473D01*
X22321180Y56509464D01*
X22318603Y56504771D01*
X22302343Y56475243D01*
X22287735Y56448787D01*
X22275481Y56426671D01*
X22266284Y56410162D01*
X22260848Y56400527D01*
X22259682Y56398570D01*
X22254771Y56399906D01*
X22242344Y56404995D01*
X22224014Y56413130D01*
X22201395Y56423604D01*
X22188156Y56429893D01*
X22159861Y56443035D01*
X22131012Y56455728D01*
X22104564Y56466714D01*
X22083472Y56474739D01*
X22079191Y56476198D01*
X22033644Y56488707D01*
X21991299Y56495571D01*
X21952999Y56496975D01*
X21919587Y56493108D01*
X21891905Y56484155D01*
X21870798Y56470304D01*
X21857107Y56451740D01*
X21851676Y56428651D01*
X21851620Y56425805D01*
X21854549Y56405426D01*
X21864275Y56388979D01*
X21880107Y56375054D01*
X21905404Y56359720D01*
X21940298Y56342917D01*
X21984918Y56324584D01*
X22039397Y56304657D01*
X22054820Y56299335D01*
X22116148Y56277438D01*
X22168439Y56256625D01*
X22212694Y56236424D01*
X22249917Y56216366D01*
X22281109Y56195979D01*
X22291234Y56188328D01*
X22330287Y56153031D01*
X22360109Y56115349D01*
X22381274Y56074072D01*
X22394356Y56027991D01*
X22399930Y55975898D01*
X22400224Y55958943D01*
X22395846Y55897489D01*
X22382912Y55841427D01*
X22361587Y55790938D01*
X22332037Y55746202D01*
X22294428Y55707401D01*
X22248925Y55674715D01*
X22195694Y55648325D01*
X22134902Y55628413D01*
X22088444Y55618512D01*
X22064837Y55615572D01*
X22034304Y55613363D01*
X21999950Y55611953D01*
X21964881Y55611412D01*
X21932203Y55611806D01*
X21905022Y55613205D01*
X21894800Y55614258D01*
X21834517Y55624922D01*
X21771414Y55641180D01*
X21709806Y55661762D01*
X21655490Y55684687D01*
X21635843Y55694736D01*
X21613053Y55707450D01*
X21588959Y55721675D01*
X21565401Y55736260D01*
X21544217Y55750049D01*
X21527246Y55761890D01*
X21516326Y55770631D01*
X21513561Y55773706D01*
X21515486Y55778875D01*
X21522102Y55791061D01*
X21532490Y55808810D01*
X21545730Y55830670D01*
X21560903Y55855187D01*
X21577091Y55880906D01*
X21593372Y55906376D01*
X21608830Y55930141D01*
X21622543Y55950749D01*
X21633594Y55966746D01*
X21641063Y55976679D01*
X21643487Y55979152D01*
X21649079Y55977561D01*
X21661340Y55971422D01*
X21678423Y55961727D01*
X21697175Y55950292D01*
X21757167Y55916366D01*
X21818663Y55888688D01*
X21878582Y55868643D01*
X21878721Y55868605D01*
X21901127Y55863278D01*
X21923376Y55859842D01*
X21948723Y55857955D01*
X21980426Y55857272D01*
X21986240Y55857252D01*
X22014176Y55857377D01*
X22034212Y55858058D01*
X22048602Y55859593D01*
X22059602Y55862276D01*
X22069468Y55866404D01*
X22074069Y55868775D01*
X22096723Y55885780D01*
X22110792Y55907659D01*
X22115758Y55933598D01*
X22115761Y55934221D01*
X22113046Y55952446D01*
X22104339Y55968759D01*
X22088842Y55983741D01*
X22065759Y55997974D01*
X22034295Y56012041D01*
X21993653Y56026523D01*
X21986240Y56028920D01*
X21937512Y56044516D01*
X21897376Y56057439D01*
X21864731Y56068065D01*
X21838477Y56076773D01*
X21817514Y56083939D01*
X21800742Y56089943D01*
X21787061Y56095161D01*
X21775372Y56099971D01*
X21764573Y56104752D01*
X21762100Y56105886D01*
X21706797Y56136117D01*
X21660036Y56171838D01*
X21637271Y56194582D01*
X21609095Y56230444D01*
X21588695Y56267935D01*
X21575402Y56308952D01*
X21568544Y56355394D01*
X21567215Y56392878D01*
X21569671Y56442988D01*
X21577245Y56486636D01*
X21590469Y56526425D01*
X21597974Y56542890D01*
X21627288Y56591391D01*
X21663911Y56633393D01*
X21707221Y56668746D01*
X21756594Y56697299D01*
X21811409Y56718904D01*
X21871042Y56733410D01*
X21934871Y56740668D01*
X22002273Y56740527D01*
G36*
X25609474Y56694070D02*
X25606147Y56685468D01*
X25599375Y56668053D01*
X25589412Y56642475D01*
X25576511Y56609383D01*
X25560925Y56569427D01*
X25542910Y56523258D01*
X25522717Y56471524D01*
X25500601Y56414877D01*
X25476815Y56353965D01*
X25451614Y56289439D01*
X25425249Y56221948D01*
X25397976Y56152142D01*
X25394858Y56144160D01*
X25191401Y55623460D01*
X25047921Y55622111D01*
X25005870Y55621754D01*
X24972858Y55621604D01*
X24947763Y55621718D01*
X24929464Y55622157D01*
X24916840Y55622977D01*
X24908771Y55624237D01*
X24904136Y55625995D01*
X24901814Y55628309D01*
X24901156Y55629731D01*
X24898909Y55635559D01*
X24893203Y55650243D01*
X24884274Y55673175D01*
X24872360Y55703749D01*
X24857698Y55741356D01*
X24840524Y55785388D01*
X24821077Y55835239D01*
X24799592Y55890300D01*
X24776307Y55949964D01*
X24751459Y56013623D01*
X24725285Y56080670D01*
X24698021Y56150497D01*
X24687925Y56176354D01*
X24660381Y56246931D01*
X24633893Y56314885D01*
X24608692Y56379612D01*
X24585012Y56440513D01*
X24563086Y56496985D01*
X24543145Y56548428D01*
X24525423Y56594242D01*
X24510153Y56633824D01*
X24497566Y56666574D01*
X24487896Y56691891D01*
X24481376Y56709173D01*
X24478237Y56717820D01*
X24477980Y56718713D01*
X24482922Y56719947D01*
X24497203Y56720941D01*
X24520004Y56721677D01*
X24550505Y56722138D01*
X24587889Y56722308D01*
X24631336Y56722171D01*
X24643928Y56722080D01*
X24809876Y56720740D01*
X24929072Y56363148D01*
X24950788Y56298239D01*
X24970887Y56238642D01*
X24989191Y56184869D01*
X25005519Y56137431D01*
X25019692Y56096840D01*
X25031532Y56063607D01*
X25040857Y56038244D01*
X25047490Y56021262D01*
X25051250Y56013173D01*
X25052000Y56012628D01*
X25054193Y56018494D01*
X25059351Y56033217D01*
X25067211Y56056024D01*
X25077511Y56086139D01*
X25089986Y56122788D01*
X25104374Y56165196D01*
X25120411Y56212587D01*
X25137834Y56264187D01*
X25156379Y56319222D01*
X25173960Y56371490D01*
X25292186Y56723280D01*
X25620634Y56723280D01*
X25609474Y56694070D01*
X25609474Y56694070D01*
G37*
X25609474Y56694070D02*
X25606147Y56685468D01*
X25599375Y56668053D01*
X25589412Y56642475D01*
X25576511Y56609383D01*
X25560925Y56569427D01*
X25542910Y56523258D01*
X25522717Y56471524D01*
X25500601Y56414877D01*
X25476815Y56353965D01*
X25451614Y56289439D01*
X25425249Y56221948D01*
X25397976Y56152142D01*
X25394858Y56144160D01*
X25191401Y55623460D01*
X25047921Y55622111D01*
X25005870Y55621754D01*
X24972858Y55621604D01*
X24947763Y55621718D01*
X24929464Y55622157D01*
X24916840Y55622977D01*
X24908771Y55624237D01*
X24904136Y55625995D01*
X24901814Y55628309D01*
X24901156Y55629731D01*
X24898909Y55635559D01*
X24893203Y55650243D01*
X24884274Y55673175D01*
X24872360Y55703749D01*
X24857698Y55741356D01*
X24840524Y55785388D01*
X24821077Y55835239D01*
X24799592Y55890300D01*
X24776307Y55949964D01*
X24751459Y56013623D01*
X24725285Y56080670D01*
X24698021Y56150497D01*
X24687925Y56176354D01*
X24660381Y56246931D01*
X24633893Y56314885D01*
X24608692Y56379612D01*
X24585012Y56440513D01*
X24563086Y56496985D01*
X24543145Y56548428D01*
X24525423Y56594242D01*
X24510153Y56633824D01*
X24497566Y56666574D01*
X24487896Y56691891D01*
X24481376Y56709173D01*
X24478237Y56717820D01*
X24477980Y56718713D01*
X24482922Y56719947D01*
X24497203Y56720941D01*
X24520004Y56721677D01*
X24550505Y56722138D01*
X24587889Y56722308D01*
X24631336Y56722171D01*
X24643928Y56722080D01*
X24809876Y56720740D01*
X24929072Y56363148D01*
X24950788Y56298239D01*
X24970887Y56238642D01*
X24989191Y56184869D01*
X25005519Y56137431D01*
X25019692Y56096840D01*
X25031532Y56063607D01*
X25040857Y56038244D01*
X25047490Y56021262D01*
X25051250Y56013173D01*
X25052000Y56012628D01*
X25054193Y56018494D01*
X25059351Y56033217D01*
X25067211Y56056024D01*
X25077511Y56086139D01*
X25089986Y56122788D01*
X25104374Y56165196D01*
X25120411Y56212587D01*
X25137834Y56264187D01*
X25156379Y56319222D01*
X25173960Y56371490D01*
X25292186Y56723280D01*
X25620634Y56723280D01*
X25609474Y56694070D01*
G36*
X21044049Y56740912D02*
X21069263Y56740326D01*
X21088724Y56739091D01*
X21104634Y56736998D01*
X21119195Y56733837D01*
X21134611Y56729396D01*
X21135340Y56729169D01*
X21180966Y56712125D01*
X21219863Y56690988D01*
X21255213Y56663882D01*
X21270425Y56649620D01*
X21308089Y56605338D01*
X21338064Y56554509D01*
X21360245Y56497350D01*
X21373927Y56437847D01*
X21374961Y56426213D01*
X21375899Y56404874D01*
X21376733Y56374285D01*
X21377458Y56334901D01*
X21378068Y56287175D01*
X21378557Y56231564D01*
X21378921Y56168521D01*
X21379152Y56098501D01*
X21379245Y56021958D01*
X21379246Y56019700D01*
X21379333Y55633620D01*
X21221776Y55632278D01*
X21064220Y55630936D01*
X21064220Y55962681D01*
X21064205Y56031939D01*
X21064128Y56091833D01*
X21063939Y56143158D01*
X21063589Y56186709D01*
X21063029Y56223282D01*
X21062209Y56253672D01*
X21061081Y56278674D01*
X21059594Y56299085D01*
X21057700Y56315699D01*
X21055349Y56329312D01*
X21052493Y56340719D01*
X21049081Y56350717D01*
X21045064Y56360099D01*
X21040394Y56369662D01*
X21038809Y56372781D01*
X21018855Y56401638D01*
X20991278Y56426564D01*
X20963059Y56443268D01*
X20948629Y56449466D01*
X20935291Y56453397D01*
X20919994Y56455557D01*
X20899684Y56456444D01*
X20881340Y56456572D01*
X20855820Y56456269D01*
X20837407Y56455028D01*
X20823053Y56452357D01*
X20809714Y56447763D01*
X20799828Y56443363D01*
X20765390Y56423263D01*
X20739101Y56398651D01*
X20722484Y56374000D01*
X20716897Y56363590D01*
X20712075Y56353833D01*
X20707962Y56343927D01*
X20704501Y56333072D01*
X20701636Y56320466D01*
X20699311Y56305309D01*
X20697470Y56286800D01*
X20696055Y56264138D01*
X20695011Y56236523D01*
X20694282Y56203153D01*
X20693810Y56163228D01*
X20693541Y56115947D01*
X20693416Y56060509D01*
X20693381Y55996113D01*
X20693380Y55960213D01*
X20693380Y55631080D01*
X20378420Y55631080D01*
X20378420Y56723280D01*
X20693380Y56723280D01*
X20693370Y56653430D01*
X20693361Y56583580D01*
X20743103Y56631840D01*
X20775351Y56661631D01*
X20804355Y56684758D01*
X20832661Y56702910D01*
X20862812Y56717774D01*
X20887260Y56727450D01*
X20901655Y56732483D01*
X20914389Y56736097D01*
X20927581Y56738526D01*
X20943348Y56740003D01*
X20963808Y56740761D01*
X20991079Y56741033D01*
X21010880Y56741060D01*
X21044049Y56740912D01*
X21044049Y56740912D01*
G37*
X21044049Y56740912D02*
X21069263Y56740326D01*
X21088724Y56739091D01*
X21104634Y56736998D01*
X21119195Y56733837D01*
X21134611Y56729396D01*
X21135340Y56729169D01*
X21180966Y56712125D01*
X21219863Y56690988D01*
X21255213Y56663882D01*
X21270425Y56649620D01*
X21308089Y56605338D01*
X21338064Y56554509D01*
X21360245Y56497350D01*
X21373927Y56437847D01*
X21374961Y56426213D01*
X21375899Y56404874D01*
X21376733Y56374285D01*
X21377458Y56334901D01*
X21378068Y56287175D01*
X21378557Y56231564D01*
X21378921Y56168521D01*
X21379152Y56098501D01*
X21379245Y56021958D01*
X21379246Y56019700D01*
X21379333Y55633620D01*
X21221776Y55632278D01*
X21064220Y55630936D01*
X21064220Y55962681D01*
X21064205Y56031939D01*
X21064128Y56091833D01*
X21063939Y56143158D01*
X21063589Y56186709D01*
X21063029Y56223282D01*
X21062209Y56253672D01*
X21061081Y56278674D01*
X21059594Y56299085D01*
X21057700Y56315699D01*
X21055349Y56329312D01*
X21052493Y56340719D01*
X21049081Y56350717D01*
X21045064Y56360099D01*
X21040394Y56369662D01*
X21038809Y56372781D01*
X21018855Y56401638D01*
X20991278Y56426564D01*
X20963059Y56443268D01*
X20948629Y56449466D01*
X20935291Y56453397D01*
X20919994Y56455557D01*
X20899684Y56456444D01*
X20881340Y56456572D01*
X20855820Y56456269D01*
X20837407Y56455028D01*
X20823053Y56452357D01*
X20809714Y56447763D01*
X20799828Y56443363D01*
X20765390Y56423263D01*
X20739101Y56398651D01*
X20722484Y56374000D01*
X20716897Y56363590D01*
X20712075Y56353833D01*
X20707962Y56343927D01*
X20704501Y56333072D01*
X20701636Y56320466D01*
X20699311Y56305309D01*
X20697470Y56286800D01*
X20696055Y56264138D01*
X20695011Y56236523D01*
X20694282Y56203153D01*
X20693810Y56163228D01*
X20693541Y56115947D01*
X20693416Y56060509D01*
X20693381Y55996113D01*
X20693380Y55960213D01*
X20693380Y55631080D01*
X20378420Y55631080D01*
X20378420Y56723280D01*
X20693380Y56723280D01*
X20693370Y56653430D01*
X20693361Y56583580D01*
X20743103Y56631840D01*
X20775351Y56661631D01*
X20804355Y56684758D01*
X20832661Y56702910D01*
X20862812Y56717774D01*
X20887260Y56727450D01*
X20901655Y56732483D01*
X20914389Y56736097D01*
X20927581Y56738526D01*
X20943348Y56740003D01*
X20963808Y56740761D01*
X20991079Y56741033D01*
X21010880Y56741060D01*
X21044049Y56740912D01*
G36*
X24383877Y56745717D02*
X24396700Y56742499D01*
X24396700Y56419878D01*
X24353819Y56416398D01*
X24293001Y56407471D01*
X24239051Y56391068D01*
X24191871Y56367110D01*
X24151363Y56335518D01*
X24117430Y56296211D01*
X24089973Y56249111D01*
X24068895Y56194138D01*
X24065455Y56182260D01*
X24062922Y56172701D01*
X24060792Y56163332D01*
X24059023Y56153186D01*
X24057572Y56141297D01*
X24056397Y56126696D01*
X24055455Y56108418D01*
X24054704Y56085496D01*
X24054102Y56056962D01*
X24053605Y56021850D01*
X24053172Y55979193D01*
X24052760Y55928024D01*
X24052459Y55886350D01*
X24050662Y55631080D01*
X23736300Y55631080D01*
X23736300Y56723280D01*
X24051260Y56723280D01*
X24051490Y56522620D01*
X24068302Y56553808D01*
X24098042Y56601816D01*
X24132091Y56644195D01*
X24169303Y56679886D01*
X24208532Y56707828D01*
X24248632Y56726962D01*
X24259028Y56730353D01*
X24280135Y56735551D01*
X24304939Y56740131D01*
X24330633Y56743748D01*
X24354417Y56746057D01*
X24373484Y56746714D01*
X24383877Y56745717D01*
X24383877Y56745717D01*
G37*
X24383877Y56745717D02*
X24396700Y56742499D01*
X24396700Y56419878D01*
X24353819Y56416398D01*
X24293001Y56407471D01*
X24239051Y56391068D01*
X24191871Y56367110D01*
X24151363Y56335518D01*
X24117430Y56296211D01*
X24089973Y56249111D01*
X24068895Y56194138D01*
X24065455Y56182260D01*
X24062922Y56172701D01*
X24060792Y56163332D01*
X24059023Y56153186D01*
X24057572Y56141297D01*
X24056397Y56126696D01*
X24055455Y56108418D01*
X24054704Y56085496D01*
X24054102Y56056962D01*
X24053605Y56021850D01*
X24053172Y55979193D01*
X24052760Y55928024D01*
X24052459Y55886350D01*
X24050662Y55631080D01*
X23736300Y55631080D01*
X23736300Y56723280D01*
X24051260Y56723280D01*
X24051490Y56522620D01*
X24068302Y56553808D01*
X24098042Y56601816D01*
X24132091Y56644195D01*
X24169303Y56679886D01*
X24208532Y56707828D01*
X24248632Y56726962D01*
X24259028Y56730353D01*
X24280135Y56735551D01*
X24304939Y56740131D01*
X24330633Y56743748D01*
X24354417Y56746057D01*
X24373484Y56746714D01*
X24383877Y56745717D01*
G36*
X26049017Y56178451D02*
X26047795Y55633620D01*
X25890267Y55632278D01*
X25732740Y55630936D01*
X25732740Y56723280D01*
X25891490Y56723281D01*
X26050240Y56723281D01*
X26049017Y56178451D01*
X26049017Y56178451D01*
G37*
X26049017Y56178451D02*
X26047795Y55633620D01*
X25890267Y55632278D01*
X25732740Y55630936D01*
X25732740Y56723280D01*
X25891490Y56723281D01*
X26050240Y56723281D01*
X26049017Y56178451D01*
G36*
X26692860Y57131490D02*
X26732367Y57131153D01*
X26764434Y57130046D01*
X26791769Y57127853D01*
X26817082Y57124257D01*
X26843082Y57118942D01*
X26872478Y57111592D01*
X26879550Y57109703D01*
X26901140Y57103889D01*
X26901140Y56971461D01*
X26901102Y56931377D01*
X26900940Y56900347D01*
X26900577Y56877266D01*
X26899935Y56861028D01*
X26898940Y56850528D01*
X26897514Y56844661D01*
X26895582Y56842321D01*
X26893067Y56842402D01*
X26892250Y56842707D01*
X26865695Y56851485D01*
X26833276Y56858928D01*
X26799276Y56864213D01*
X26768292Y56866513D01*
X26731187Y56864553D01*
X26701849Y56856569D01*
X26679604Y56841928D01*
X26663775Y56819998D01*
X26653684Y56790147D01*
X26648867Y56754833D01*
X26645876Y56713301D01*
X26771158Y56711941D01*
X26896441Y56710580D01*
X26896441Y56456580D01*
X26774330Y56455220D01*
X26652220Y56453860D01*
X26652220Y55631080D01*
X26337260Y55631080D01*
X26337260Y56454040D01*
X26210260Y56454040D01*
X26210260Y56713120D01*
X26335879Y56713120D01*
X26338516Y56788050D01*
X26340234Y56820821D01*
X26342916Y56852702D01*
X26346250Y56880584D01*
X26349860Y56901080D01*
X26366645Y56955348D01*
X26390603Y57002429D01*
X26421826Y57042420D01*
X26460406Y57075418D01*
X26506437Y57101519D01*
X26560010Y57120821D01*
X26560050Y57120832D01*
X26575795Y57124822D01*
X26591280Y57127705D01*
X26608580Y57129646D01*
X26629770Y57130814D01*
X26656928Y57131373D01*
X26692128Y57131491D01*
X26692860Y57131490D01*
X26692860Y57131490D01*
G37*
X26692860Y57131490D02*
X26732367Y57131153D01*
X26764434Y57130046D01*
X26791769Y57127853D01*
X26817082Y57124257D01*
X26843082Y57118942D01*
X26872478Y57111592D01*
X26879550Y57109703D01*
X26901140Y57103889D01*
X26901140Y56971461D01*
X26901102Y56931377D01*
X26900940Y56900347D01*
X26900577Y56877266D01*
X26899935Y56861028D01*
X26898940Y56850528D01*
X26897514Y56844661D01*
X26895582Y56842321D01*
X26893067Y56842402D01*
X26892250Y56842707D01*
X26865695Y56851485D01*
X26833276Y56858928D01*
X26799276Y56864213D01*
X26768292Y56866513D01*
X26731187Y56864553D01*
X26701849Y56856569D01*
X26679604Y56841928D01*
X26663775Y56819998D01*
X26653684Y56790147D01*
X26648867Y56754833D01*
X26645876Y56713301D01*
X26771158Y56711941D01*
X26896441Y56710580D01*
X26896441Y56456580D01*
X26774330Y56455220D01*
X26652220Y56453860D01*
X26652220Y55631080D01*
X26337260Y55631080D01*
X26337260Y56454040D01*
X26210260Y56454040D01*
X26210260Y56713120D01*
X26335879Y56713120D01*
X26338516Y56788050D01*
X26340234Y56820821D01*
X26342916Y56852702D01*
X26346250Y56880584D01*
X26349860Y56901080D01*
X26366645Y56955348D01*
X26390603Y57002429D01*
X26421826Y57042420D01*
X26460406Y57075418D01*
X26506437Y57101519D01*
X26560010Y57120821D01*
X26560050Y57120832D01*
X26575795Y57124822D01*
X26591280Y57127705D01*
X26608580Y57129646D01*
X26629770Y57130814D01*
X26656928Y57131373D01*
X26692128Y57131491D01*
X26692860Y57131490D01*
G36*
X26057860Y56840120D02*
X25727660Y56840120D01*
X25727660Y57119520D01*
X26057860Y57119520D01*
X26057860Y56840120D01*
X26057860Y56840120D01*
G37*
X26057860Y56840120D02*
X25727660Y56840120D01*
X25727660Y57119520D01*
X26057860Y57119520D01*
X26057860Y56840120D01*
G36*
X15710403Y57699992D02*
X15765681Y57688093D01*
X15822292Y57666592D01*
X15836213Y57660000D01*
X15860911Y57647075D01*
X15881161Y57634170D01*
X15900383Y57618787D01*
X15921996Y57598427D01*
X15926137Y57594308D01*
X15946642Y57573070D01*
X15961879Y57554970D01*
X15974311Y57536555D01*
X15986399Y57514370D01*
X15993670Y57499569D01*
X16009464Y57464833D01*
X16020427Y57435264D01*
X16027331Y57407554D01*
X16030950Y57378394D01*
X16032056Y57344478D01*
X16032035Y57335420D01*
X16031729Y57318337D01*
X16030857Y57302342D01*
X16029106Y57286678D01*
X16026162Y57270588D01*
X16021713Y57253316D01*
X16015445Y57234105D01*
X16007044Y57212197D01*
X15996198Y57186837D01*
X15982593Y57157267D01*
X15965916Y57122731D01*
X15945854Y57082471D01*
X15922093Y57035731D01*
X15894320Y56981755D01*
X15862222Y56919785D01*
X15851193Y56898540D01*
X15825146Y56848481D01*
X15800322Y56800950D01*
X15777141Y56756741D01*
X15756023Y56716646D01*
X15737387Y56681459D01*
X15721655Y56651972D01*
X15709247Y56628979D01*
X15700582Y56613273D01*
X15696081Y56605646D01*
X15695727Y56605170D01*
X15683732Y56598060D01*
X15668437Y56596789D01*
X15654911Y56601553D01*
X15652609Y56603497D01*
X15647875Y56610352D01*
X15638987Y56625313D01*
X15626437Y56647447D01*
X15610715Y56675824D01*
X15592313Y56709514D01*
X15571722Y56747584D01*
X15549434Y56789105D01*
X15525941Y56833146D01*
X15501733Y56878775D01*
X15477302Y56925061D01*
X15453139Y56971074D01*
X15429736Y57015883D01*
X15407584Y57058556D01*
X15387174Y57098164D01*
X15368999Y57133774D01*
X15353548Y57164457D01*
X15341315Y57189281D01*
X15332789Y57207315D01*
X15328514Y57217478D01*
X15312439Y57278598D01*
X15306127Y57339052D01*
X15306668Y57348487D01*
X15416077Y57348487D01*
X15418538Y57301061D01*
X15429468Y57256247D01*
X15448045Y57214866D01*
X15473446Y57177739D01*
X15504850Y57145688D01*
X15541433Y57119532D01*
X15582375Y57100094D01*
X15626852Y57088195D01*
X15674042Y57084656D01*
X15723123Y57090298D01*
X15729330Y57091685D01*
X15777687Y57107948D01*
X15820092Y57132185D01*
X15855940Y57163731D01*
X15884628Y57201920D01*
X15905550Y57246088D01*
X15918101Y57295569D01*
X15918771Y57300059D01*
X15921007Y57349123D01*
X15914200Y57395926D01*
X15899225Y57439627D01*
X15876957Y57479388D01*
X15848273Y57514372D01*
X15814049Y57543738D01*
X15775160Y57566648D01*
X15732482Y57582264D01*
X15686891Y57589747D01*
X15639263Y57588258D01*
X15621000Y57585204D01*
X15570271Y57570218D01*
X15525971Y57547602D01*
X15488487Y57517723D01*
X15458210Y57480949D01*
X15435527Y57437648D01*
X15422908Y57397703D01*
X15416077Y57348487D01*
X15306668Y57348487D01*
X15309521Y57398175D01*
X15322565Y57455297D01*
X15345203Y57509753D01*
X15354596Y57526730D01*
X15388510Y57574707D01*
X15429406Y57615966D01*
X15476234Y57649642D01*
X15527944Y57674867D01*
X15539121Y57678940D01*
X15598467Y57695330D01*
X15655113Y57702376D01*
X15710403Y57699992D01*
X15710403Y57699992D01*
G37*
X15710403Y57699992D02*
X15765681Y57688093D01*
X15822292Y57666592D01*
X15836213Y57660000D01*
X15860911Y57647075D01*
X15881161Y57634170D01*
X15900383Y57618787D01*
X15921996Y57598427D01*
X15926137Y57594308D01*
X15946642Y57573070D01*
X15961879Y57554970D01*
X15974311Y57536555D01*
X15986399Y57514370D01*
X15993670Y57499569D01*
X16009464Y57464833D01*
X16020427Y57435264D01*
X16027331Y57407554D01*
X16030950Y57378394D01*
X16032056Y57344478D01*
X16032035Y57335420D01*
X16031729Y57318337D01*
X16030857Y57302342D01*
X16029106Y57286678D01*
X16026162Y57270588D01*
X16021713Y57253316D01*
X16015445Y57234105D01*
X16007044Y57212197D01*
X15996198Y57186837D01*
X15982593Y57157267D01*
X15965916Y57122731D01*
X15945854Y57082471D01*
X15922093Y57035731D01*
X15894320Y56981755D01*
X15862222Y56919785D01*
X15851193Y56898540D01*
X15825146Y56848481D01*
X15800322Y56800950D01*
X15777141Y56756741D01*
X15756023Y56716646D01*
X15737387Y56681459D01*
X15721655Y56651972D01*
X15709247Y56628979D01*
X15700582Y56613273D01*
X15696081Y56605646D01*
X15695727Y56605170D01*
X15683732Y56598060D01*
X15668437Y56596789D01*
X15654911Y56601553D01*
X15652609Y56603497D01*
X15647875Y56610352D01*
X15638987Y56625313D01*
X15626437Y56647447D01*
X15610715Y56675824D01*
X15592313Y56709514D01*
X15571722Y56747584D01*
X15549434Y56789105D01*
X15525941Y56833146D01*
X15501733Y56878775D01*
X15477302Y56925061D01*
X15453139Y56971074D01*
X15429736Y57015883D01*
X15407584Y57058556D01*
X15387174Y57098164D01*
X15368999Y57133774D01*
X15353548Y57164457D01*
X15341315Y57189281D01*
X15332789Y57207315D01*
X15328514Y57217478D01*
X15312439Y57278598D01*
X15306127Y57339052D01*
X15306668Y57348487D01*
X15416077Y57348487D01*
X15418538Y57301061D01*
X15429468Y57256247D01*
X15448045Y57214866D01*
X15473446Y57177739D01*
X15504850Y57145688D01*
X15541433Y57119532D01*
X15582375Y57100094D01*
X15626852Y57088195D01*
X15674042Y57084656D01*
X15723123Y57090298D01*
X15729330Y57091685D01*
X15777687Y57107948D01*
X15820092Y57132185D01*
X15855940Y57163731D01*
X15884628Y57201920D01*
X15905550Y57246088D01*
X15918101Y57295569D01*
X15918771Y57300059D01*
X15921007Y57349123D01*
X15914200Y57395926D01*
X15899225Y57439627D01*
X15876957Y57479388D01*
X15848273Y57514372D01*
X15814049Y57543738D01*
X15775160Y57566648D01*
X15732482Y57582264D01*
X15686891Y57589747D01*
X15639263Y57588258D01*
X15621000Y57585204D01*
X15570271Y57570218D01*
X15525971Y57547602D01*
X15488487Y57517723D01*
X15458210Y57480949D01*
X15435527Y57437648D01*
X15422908Y57397703D01*
X15416077Y57348487D01*
X15306668Y57348487D01*
X15309521Y57398175D01*
X15322565Y57455297D01*
X15345203Y57509753D01*
X15354596Y57526730D01*
X15388510Y57574707D01*
X15429406Y57615966D01*
X15476234Y57649642D01*
X15527944Y57674867D01*
X15539121Y57678940D01*
X15598467Y57695330D01*
X15655113Y57702376D01*
X15710403Y57699992D01*
G36*
X22975139Y61695283D02*
X22984896Y61689682D01*
X22987000Y61678355D01*
X22988006Y61665924D01*
X22993899Y61666790D01*
X23003276Y61674839D01*
X23027927Y61688014D01*
X23061020Y61694465D01*
X23095099Y61693297D01*
X23114060Y61688109D01*
X23136764Y61673664D01*
X23157296Y61652896D01*
X23158670Y61651032D01*
X23167108Y61637421D01*
X23172595Y61622356D01*
X23175745Y61601926D01*
X23177174Y61572223D01*
X23177500Y61531500D01*
X23177140Y61489259D01*
X23175649Y61460035D01*
X23172411Y61439916D01*
X23166811Y61424993D01*
X23158670Y61411968D01*
X23138828Y61391051D01*
X23115901Y61375699D01*
X23114060Y61374892D01*
X23083285Y61368356D01*
X23048702Y61370011D01*
X23017768Y61378966D01*
X23003276Y61388162D01*
X22996876Y61393365D01*
X22992421Y61393904D01*
X22989559Y61387508D01*
X22987937Y61371906D01*
X22987204Y61344827D01*
X22987007Y61304000D01*
X22987000Y61283170D01*
X22987000Y61163449D01*
X23014517Y61180226D01*
X23052824Y61194655D01*
X23091633Y61193612D01*
X23127443Y61178080D01*
X23156755Y61149040D01*
X23163413Y61138457D01*
X23170801Y61123684D01*
X23175905Y61107924D01*
X23179137Y61087764D01*
X23180909Y61059790D01*
X23181632Y61020586D01*
X23181734Y60986364D01*
X23181734Y60866867D01*
X23105534Y60866867D01*
X23105534Y60979855D01*
X23104914Y61032029D01*
X23102435Y61069624D01*
X23097163Y61094968D01*
X23088165Y61110389D01*
X23074508Y61118216D01*
X23055259Y61120776D01*
X23049029Y61120867D01*
X23027956Y61118664D01*
X23012505Y61110582D01*
X23001751Y61094410D01*
X22994770Y61067937D01*
X22990635Y61028953D01*
X22988444Y60976072D01*
X22985654Y60866867D01*
X22919267Y60866867D01*
X22919267Y61545861D01*
X22991305Y61545861D01*
X22992329Y61509318D01*
X22999241Y61475849D01*
X23011704Y61450889D01*
X23018285Y61444418D01*
X23040241Y61437239D01*
X23066708Y61440026D01*
X23089616Y61451409D01*
X23095578Y61457531D01*
X23100929Y61473514D01*
X23103770Y61500450D01*
X23104244Y61532990D01*
X23102489Y61565782D01*
X23098647Y61593475D01*
X23092857Y61610719D01*
X23091518Y61612402D01*
X23073304Y61620710D01*
X23047986Y61621950D01*
X23023460Y61616689D01*
X23008262Y61606430D01*
X22996503Y61580043D01*
X22991305Y61545861D01*
X22919267Y61545861D01*
X22919267Y61696600D01*
X22953133Y61696600D01*
X22975139Y61695283D01*
X22975139Y61695283D01*
G37*
X22975139Y61695283D02*
X22984896Y61689682D01*
X22987000Y61678355D01*
X22988006Y61665924D01*
X22993899Y61666790D01*
X23003276Y61674839D01*
X23027927Y61688014D01*
X23061020Y61694465D01*
X23095099Y61693297D01*
X23114060Y61688109D01*
X23136764Y61673664D01*
X23157296Y61652896D01*
X23158670Y61651032D01*
X23167108Y61637421D01*
X23172595Y61622356D01*
X23175745Y61601926D01*
X23177174Y61572223D01*
X23177500Y61531500D01*
X23177140Y61489259D01*
X23175649Y61460035D01*
X23172411Y61439916D01*
X23166811Y61424993D01*
X23158670Y61411968D01*
X23138828Y61391051D01*
X23115901Y61375699D01*
X23114060Y61374892D01*
X23083285Y61368356D01*
X23048702Y61370011D01*
X23017768Y61378966D01*
X23003276Y61388162D01*
X22996876Y61393365D01*
X22992421Y61393904D01*
X22989559Y61387508D01*
X22987937Y61371906D01*
X22987204Y61344827D01*
X22987007Y61304000D01*
X22987000Y61283170D01*
X22987000Y61163449D01*
X23014517Y61180226D01*
X23052824Y61194655D01*
X23091633Y61193612D01*
X23127443Y61178080D01*
X23156755Y61149040D01*
X23163413Y61138457D01*
X23170801Y61123684D01*
X23175905Y61107924D01*
X23179137Y61087764D01*
X23180909Y61059790D01*
X23181632Y61020586D01*
X23181734Y60986364D01*
X23181734Y60866867D01*
X23105534Y60866867D01*
X23105534Y60979855D01*
X23104914Y61032029D01*
X23102435Y61069624D01*
X23097163Y61094968D01*
X23088165Y61110389D01*
X23074508Y61118216D01*
X23055259Y61120776D01*
X23049029Y61120867D01*
X23027956Y61118664D01*
X23012505Y61110582D01*
X23001751Y61094410D01*
X22994770Y61067937D01*
X22990635Y61028953D01*
X22988444Y60976072D01*
X22985654Y60866867D01*
X22919267Y60866867D01*
X22919267Y61545861D01*
X22991305Y61545861D01*
X22992329Y61509318D01*
X22999241Y61475849D01*
X23011704Y61450889D01*
X23018285Y61444418D01*
X23040241Y61437239D01*
X23066708Y61440026D01*
X23089616Y61451409D01*
X23095578Y61457531D01*
X23100929Y61473514D01*
X23103770Y61500450D01*
X23104244Y61532990D01*
X23102489Y61565782D01*
X23098647Y61593475D01*
X23092857Y61610719D01*
X23091518Y61612402D01*
X23073304Y61620710D01*
X23047986Y61621950D01*
X23023460Y61616689D01*
X23008262Y61606430D01*
X22996503Y61580043D01*
X22991305Y61545861D01*
X22919267Y61545861D01*
X22919267Y61696600D01*
X22953133Y61696600D01*
X22975139Y61695283D01*
G36*
X23391932Y61191075D02*
X23432594Y61174169D01*
X23456356Y61153836D01*
X23464610Y61143421D01*
X23470453Y61132990D01*
X23474300Y61119545D01*
X23476569Y61100086D01*
X23477675Y61071616D01*
X23478036Y61031135D01*
X23478067Y60997451D01*
X23478067Y60866867D01*
X23444200Y60866867D01*
X23422994Y60868811D01*
X23411198Y60873666D01*
X23410333Y60875631D01*
X23405151Y60880071D01*
X23393957Y60875631D01*
X23368065Y60868367D01*
X23333607Y60866867D01*
X23297790Y60870728D01*
X23267820Y60879549D01*
X23261156Y60883035D01*
X23238023Y60905320D01*
X23221406Y60936470D01*
X23215600Y60966334D01*
X23216338Y60969317D01*
X23284482Y60969317D01*
X23288363Y60951992D01*
X23298150Y60943745D01*
X23317726Y60937652D01*
X23344692Y60935191D01*
X23372260Y60936297D01*
X23393643Y60940900D01*
X23400174Y60944760D01*
X23407770Y60960362D01*
X23410333Y60978627D01*
X23409514Y60991810D01*
X23404379Y60998892D01*
X23390916Y61001767D01*
X23365113Y61002331D01*
X23360138Y61002333D01*
X23323137Y60999887D01*
X23300730Y60992318D01*
X23296638Y60989029D01*
X23284482Y60969317D01*
X23216338Y60969317D01*
X23222324Y60993507D01*
X23239368Y61021515D01*
X23262044Y61043353D01*
X23270451Y61048246D01*
X23298019Y61056457D01*
X23335350Y61061026D01*
X23354463Y61061600D01*
X23384375Y61062024D01*
X23401125Y61064153D01*
X23408477Y61069274D01*
X23410199Y61078674D01*
X23410204Y61080650D01*
X23405834Y61104578D01*
X23391131Y61118936D01*
X23363098Y61126532D01*
X23360932Y61126833D01*
X23327762Y61126848D01*
X23304376Y61117331D01*
X23289075Y61108752D01*
X23277351Y61109309D01*
X23261599Y61119867D01*
X23258135Y61122590D01*
X23242570Y61137357D01*
X23235555Y61148978D01*
X23235578Y61150500D01*
X23245104Y61161126D01*
X23265817Y61173394D01*
X23292436Y61185000D01*
X23319679Y61193643D01*
X23342265Y61197020D01*
X23342277Y61197020D01*
X23391932Y61191075D01*
X23391932Y61191075D01*
G37*
X23391932Y61191075D02*
X23432594Y61174169D01*
X23456356Y61153836D01*
X23464610Y61143421D01*
X23470453Y61132990D01*
X23474300Y61119545D01*
X23476569Y61100086D01*
X23477675Y61071616D01*
X23478036Y61031135D01*
X23478067Y60997451D01*
X23478067Y60866867D01*
X23444200Y60866867D01*
X23422994Y60868811D01*
X23411198Y60873666D01*
X23410333Y60875631D01*
X23405151Y60880071D01*
X23393957Y60875631D01*
X23368065Y60868367D01*
X23333607Y60866867D01*
X23297790Y60870728D01*
X23267820Y60879549D01*
X23261156Y60883035D01*
X23238023Y60905320D01*
X23221406Y60936470D01*
X23215600Y60966334D01*
X23216338Y60969317D01*
X23284482Y60969317D01*
X23288363Y60951992D01*
X23298150Y60943745D01*
X23317726Y60937652D01*
X23344692Y60935191D01*
X23372260Y60936297D01*
X23393643Y60940900D01*
X23400174Y60944760D01*
X23407770Y60960362D01*
X23410333Y60978627D01*
X23409514Y60991810D01*
X23404379Y60998892D01*
X23390916Y61001767D01*
X23365113Y61002331D01*
X23360138Y61002333D01*
X23323137Y60999887D01*
X23300730Y60992318D01*
X23296638Y60989029D01*
X23284482Y60969317D01*
X23216338Y60969317D01*
X23222324Y60993507D01*
X23239368Y61021515D01*
X23262044Y61043353D01*
X23270451Y61048246D01*
X23298019Y61056457D01*
X23335350Y61061026D01*
X23354463Y61061600D01*
X23384375Y61062024D01*
X23401125Y61064153D01*
X23408477Y61069274D01*
X23410199Y61078674D01*
X23410204Y61080650D01*
X23405834Y61104578D01*
X23391131Y61118936D01*
X23363098Y61126532D01*
X23360932Y61126833D01*
X23327762Y61126848D01*
X23304376Y61117331D01*
X23289075Y61108752D01*
X23277351Y61109309D01*
X23261599Y61119867D01*
X23258135Y61122590D01*
X23242570Y61137357D01*
X23235555Y61148978D01*
X23235578Y61150500D01*
X23245104Y61161126D01*
X23265817Y61173394D01*
X23292436Y61185000D01*
X23319679Y61193643D01*
X23342265Y61197020D01*
X23342277Y61197020D01*
X23391932Y61191075D01*
G36*
X23718136Y61193110D02*
X23741144Y61184051D01*
X23766314Y61171035D01*
X23744159Y61141989D01*
X23728657Y61123811D01*
X23714584Y61116505D01*
X23694091Y61116838D01*
X23685714Y61117917D01*
X23659850Y61119533D01*
X23642739Y61114241D01*
X23631479Y61104946D01*
X23624079Y61096224D01*
X23619040Y61085390D01*
X23615914Y61069259D01*
X23614254Y61044644D01*
X23613614Y61008360D01*
X23613534Y60976933D01*
X23613534Y60866867D01*
X23546508Y60866867D01*
X23544038Y61028458D01*
X23543353Y61078804D01*
X23542914Y61122923D01*
X23542735Y61158187D01*
X23542828Y61181965D01*
X23543206Y61191627D01*
X23543244Y61191707D01*
X23551856Y61192021D01*
X23571352Y61190796D01*
X23579227Y61190093D01*
X23603697Y61185017D01*
X23613438Y61176262D01*
X23613534Y61175135D01*
X23617021Y61169426D01*
X23629351Y61173523D01*
X23641050Y61180226D01*
X23679427Y61195128D01*
X23718136Y61193110D01*
X23718136Y61193110D01*
G37*
X23718136Y61193110D02*
X23741144Y61184051D01*
X23766314Y61171035D01*
X23744159Y61141989D01*
X23728657Y61123811D01*
X23714584Y61116505D01*
X23694091Y61116838D01*
X23685714Y61117917D01*
X23659850Y61119533D01*
X23642739Y61114241D01*
X23631479Y61104946D01*
X23624079Y61096224D01*
X23619040Y61085390D01*
X23615914Y61069259D01*
X23614254Y61044644D01*
X23613614Y61008360D01*
X23613534Y60976933D01*
X23613534Y60866867D01*
X23546508Y60866867D01*
X23544038Y61028458D01*
X23543353Y61078804D01*
X23542914Y61122923D01*
X23542735Y61158187D01*
X23542828Y61181965D01*
X23543206Y61191627D01*
X23543244Y61191707D01*
X23551856Y61192021D01*
X23571352Y61190796D01*
X23579227Y61190093D01*
X23603697Y61185017D01*
X23613438Y61176262D01*
X23613534Y61175135D01*
X23617021Y61169426D01*
X23629351Y61173523D01*
X23641050Y61180226D01*
X23679427Y61195128D01*
X23718136Y61193110D01*
G36*
X24019934Y60866867D02*
X23986067Y60866867D01*
X23962661Y60868903D01*
X23952916Y60875738D01*
X23952200Y60879784D01*
X23950502Y60887695D01*
X23942436Y60887058D01*
X23927221Y60879784D01*
X23902855Y60871697D01*
X23872352Y60867197D01*
X23862874Y60866867D01*
X23834949Y60869068D01*
X23814488Y60878184D01*
X23795537Y60894836D01*
X23777768Y60915967D01*
X23767505Y60939073D01*
X23761476Y60971565D01*
X23761399Y60972176D01*
X23758858Y61008987D01*
X23758866Y61025405D01*
X23832277Y61025405D01*
X23835339Y60991820D01*
X23842658Y60964387D01*
X23850600Y60951534D01*
X23876007Y60936775D01*
X23904674Y60937583D01*
X23923784Y60946987D01*
X23936704Y60964748D01*
X23944839Y60993181D01*
X23948142Y61027149D01*
X23946568Y61061519D01*
X23940070Y61091156D01*
X23928600Y61110925D01*
X23925296Y61113509D01*
X23901882Y61120269D01*
X23873941Y61118267D01*
X23850901Y61108326D01*
X23849150Y61106855D01*
X23839130Y61088543D01*
X23833523Y61059520D01*
X23832277Y61025405D01*
X23758866Y61025405D01*
X23758881Y61051156D01*
X23760434Y61077267D01*
X23764541Y61109723D01*
X23771108Y61131593D01*
X23782671Y61149225D01*
X23794068Y61161419D01*
X23829374Y61186524D01*
X23867897Y61195178D01*
X23908321Y61187172D01*
X23920450Y61181580D01*
X23952200Y61165026D01*
X23952200Y61324067D01*
X24019934Y61324067D01*
X24019934Y60866867D01*
X24019934Y60866867D01*
G37*
X24019934Y60866867D02*
X23986067Y60866867D01*
X23962661Y60868903D01*
X23952916Y60875738D01*
X23952200Y60879784D01*
X23950502Y60887695D01*
X23942436Y60887058D01*
X23927221Y60879784D01*
X23902855Y60871697D01*
X23872352Y60867197D01*
X23862874Y60866867D01*
X23834949Y60869068D01*
X23814488Y60878184D01*
X23795537Y60894836D01*
X23777768Y60915967D01*
X23767505Y60939073D01*
X23761476Y60971565D01*
X23761399Y60972176D01*
X23758858Y61008987D01*
X23758866Y61025405D01*
X23832277Y61025405D01*
X23835339Y60991820D01*
X23842658Y60964387D01*
X23850600Y60951534D01*
X23876007Y60936775D01*
X23904674Y60937583D01*
X23923784Y60946987D01*
X23936704Y60964748D01*
X23944839Y60993181D01*
X23948142Y61027149D01*
X23946568Y61061519D01*
X23940070Y61091156D01*
X23928600Y61110925D01*
X23925296Y61113509D01*
X23901882Y61120269D01*
X23873941Y61118267D01*
X23850901Y61108326D01*
X23849150Y61106855D01*
X23839130Y61088543D01*
X23833523Y61059520D01*
X23832277Y61025405D01*
X23758866Y61025405D01*
X23758881Y61051156D01*
X23760434Y61077267D01*
X23764541Y61109723D01*
X23771108Y61131593D01*
X23782671Y61149225D01*
X23794068Y61161419D01*
X23829374Y61186524D01*
X23867897Y61195178D01*
X23908321Y61187172D01*
X23920450Y61181580D01*
X23952200Y61165026D01*
X23952200Y61324067D01*
X24019934Y61324067D01*
X24019934Y60866867D01*
G36*
X24464433Y61191309D02*
X24486539Y61189782D01*
X24496049Y61184097D01*
X24497412Y61175058D01*
X24494571Y61162052D01*
X24487235Y61135920D01*
X24476286Y61099592D01*
X24462604Y61055999D01*
X24449355Y61015033D01*
X24402184Y60871100D01*
X24338180Y60871100D01*
X24307417Y60975979D01*
X24276654Y61080857D01*
X24254808Y61009845D01*
X24243303Y60972223D01*
X24232342Y60936001D01*
X24223916Y60907765D01*
X24222475Y60902850D01*
X24214832Y60880455D01*
X24205826Y60870016D01*
X24190213Y60867005D01*
X24180786Y60866867D01*
X24149585Y60866867D01*
X24114608Y60974817D01*
X24092534Y61043280D01*
X24075480Y61096983D01*
X24063060Y61137213D01*
X24054889Y61165258D01*
X24050580Y61182405D01*
X24049748Y61189941D01*
X24049982Y61190426D01*
X24059218Y61191412D01*
X24079398Y61190812D01*
X24089555Y61190112D01*
X24114924Y61185973D01*
X24126504Y61177971D01*
X24127974Y61173070D01*
X24131521Y61153110D01*
X24138317Y61125326D01*
X24147237Y61093314D01*
X24157158Y61060668D01*
X24166955Y61030981D01*
X24175502Y61007849D01*
X24181676Y60994864D01*
X24184042Y60993867D01*
X24188720Y61006816D01*
X24197343Y61031925D01*
X24208573Y61065265D01*
X24218141Y61094033D01*
X24230118Y61129730D01*
X24240230Y61158922D01*
X24247277Y61178204D01*
X24249922Y61184226D01*
X24259477Y61187124D01*
X24276692Y61189893D01*
X24286467Y61190564D01*
X24294124Y61188153D01*
X24301038Y61180194D01*
X24308589Y61164220D01*
X24318154Y61137762D01*
X24331110Y61098354D01*
X24335650Y61084303D01*
X24370682Y60975772D01*
X24400624Y61083621D01*
X24430567Y61191469D01*
X24464433Y61191309D01*
X24464433Y61191309D01*
G37*
X24464433Y61191309D02*
X24486539Y61189782D01*
X24496049Y61184097D01*
X24497412Y61175058D01*
X24494571Y61162052D01*
X24487235Y61135920D01*
X24476286Y61099592D01*
X24462604Y61055999D01*
X24449355Y61015033D01*
X24402184Y60871100D01*
X24338180Y60871100D01*
X24307417Y60975979D01*
X24276654Y61080857D01*
X24254808Y61009845D01*
X24243303Y60972223D01*
X24232342Y60936001D01*
X24223916Y60907765D01*
X24222475Y60902850D01*
X24214832Y60880455D01*
X24205826Y60870016D01*
X24190213Y60867005D01*
X24180786Y60866867D01*
X24149585Y60866867D01*
X24114608Y60974817D01*
X24092534Y61043280D01*
X24075480Y61096983D01*
X24063060Y61137213D01*
X24054889Y61165258D01*
X24050580Y61182405D01*
X24049748Y61189941D01*
X24049982Y61190426D01*
X24059218Y61191412D01*
X24079398Y61190812D01*
X24089555Y61190112D01*
X24114924Y61185973D01*
X24126504Y61177971D01*
X24127974Y61173070D01*
X24131521Y61153110D01*
X24138317Y61125326D01*
X24147237Y61093314D01*
X24157158Y61060668D01*
X24166955Y61030981D01*
X24175502Y61007849D01*
X24181676Y60994864D01*
X24184042Y60993867D01*
X24188720Y61006816D01*
X24197343Y61031925D01*
X24208573Y61065265D01*
X24218141Y61094033D01*
X24230118Y61129730D01*
X24240230Y61158922D01*
X24247277Y61178204D01*
X24249922Y61184226D01*
X24259477Y61187124D01*
X24276692Y61189893D01*
X24286467Y61190564D01*
X24294124Y61188153D01*
X24301038Y61180194D01*
X24308589Y61164220D01*
X24318154Y61137762D01*
X24331110Y61098354D01*
X24335650Y61084303D01*
X24370682Y60975772D01*
X24400624Y61083621D01*
X24430567Y61191469D01*
X24464433Y61191309D01*
G36*
X24688620Y61188214D02*
X24717136Y61177006D01*
X24719929Y61175084D01*
X24736255Y61161470D01*
X24748095Y61146627D01*
X24756159Y61127662D01*
X24761155Y61101684D01*
X24763793Y61065801D01*
X24764781Y61017122D01*
X24764875Y60991750D01*
X24765000Y60866867D01*
X24731839Y60866867D01*
X24709112Y60869368D01*
X24695843Y60875717D01*
X24694797Y60877450D01*
X24689144Y60883788D01*
X24679699Y60877450D01*
X24663233Y60870678D01*
X24636237Y60867668D01*
X24604663Y60868298D01*
X24574461Y60872444D01*
X24551582Y60879981D01*
X24551323Y60880120D01*
X24523434Y60904107D01*
X24507377Y60936902D01*
X24504700Y60969862D01*
X24570267Y60969862D01*
X24575720Y60950800D01*
X24593234Y60939427D01*
X24624539Y60934809D01*
X24635670Y60934600D01*
X24662471Y60935460D01*
X24677434Y60939415D01*
X24685622Y60948527D01*
X24689010Y60956318D01*
X24696651Y60980593D01*
X24694839Y60994460D01*
X24681177Y61000758D01*
X24653264Y61002327D01*
X24650144Y61002333D01*
X24608082Y60999218D01*
X24581626Y60989833D01*
X24570627Y60974117D01*
X24570267Y60969862D01*
X24504700Y60969862D01*
X24504352Y60974133D01*
X24515377Y61011077D01*
X24534694Y61036115D01*
X24563355Y61052159D01*
X24603752Y61060198D01*
X24637580Y61061600D01*
X24668859Y61062051D01*
X24686824Y61064085D01*
X24695083Y61068728D01*
X24697245Y61077002D01*
X24697267Y61078533D01*
X24689895Y61101816D01*
X24670807Y61118774D01*
X24644542Y61127820D01*
X24615640Y61127370D01*
X24589241Y61116264D01*
X24575603Y61108618D01*
X24563662Y61109926D01*
X24546318Y61121135D01*
X24544884Y61122193D01*
X24527193Y61137767D01*
X24523811Y61150628D01*
X24534993Y61164908D01*
X24548138Y61175385D01*
X24574854Y61187264D01*
X24611295Y61193354D01*
X24651278Y61193668D01*
X24688620Y61188214D01*
X24688620Y61188214D01*
G37*
X24688620Y61188214D02*
X24717136Y61177006D01*
X24719929Y61175084D01*
X24736255Y61161470D01*
X24748095Y61146627D01*
X24756159Y61127662D01*
X24761155Y61101684D01*
X24763793Y61065801D01*
X24764781Y61017122D01*
X24764875Y60991750D01*
X24765000Y60866867D01*
X24731839Y60866867D01*
X24709112Y60869368D01*
X24695843Y60875717D01*
X24694797Y60877450D01*
X24689144Y60883788D01*
X24679699Y60877450D01*
X24663233Y60870678D01*
X24636237Y60867668D01*
X24604663Y60868298D01*
X24574461Y60872444D01*
X24551582Y60879981D01*
X24551323Y60880120D01*
X24523434Y60904107D01*
X24507377Y60936902D01*
X24504700Y60969862D01*
X24570267Y60969862D01*
X24575720Y60950800D01*
X24593234Y60939427D01*
X24624539Y60934809D01*
X24635670Y60934600D01*
X24662471Y60935460D01*
X24677434Y60939415D01*
X24685622Y60948527D01*
X24689010Y60956318D01*
X24696651Y60980593D01*
X24694839Y60994460D01*
X24681177Y61000758D01*
X24653264Y61002327D01*
X24650144Y61002333D01*
X24608082Y60999218D01*
X24581626Y60989833D01*
X24570627Y60974117D01*
X24570267Y60969862D01*
X24504700Y60969862D01*
X24504352Y60974133D01*
X24515377Y61011077D01*
X24534694Y61036115D01*
X24563355Y61052159D01*
X24603752Y61060198D01*
X24637580Y61061600D01*
X24668859Y61062051D01*
X24686824Y61064085D01*
X24695083Y61068728D01*
X24697245Y61077002D01*
X24697267Y61078533D01*
X24689895Y61101816D01*
X24670807Y61118774D01*
X24644542Y61127820D01*
X24615640Y61127370D01*
X24589241Y61116264D01*
X24575603Y61108618D01*
X24563662Y61109926D01*
X24546318Y61121135D01*
X24544884Y61122193D01*
X24527193Y61137767D01*
X24523811Y61150628D01*
X24534993Y61164908D01*
X24548138Y61175385D01*
X24574854Y61187264D01*
X24611295Y61193354D01*
X24651278Y61193668D01*
X24688620Y61188214D01*
G36*
X25014009Y61188850D02*
X25035592Y61179861D01*
X25042884Y61169368D01*
X25036862Y61153321D01*
X25026274Y61137998D01*
X25013573Y61123160D01*
X25000398Y61116904D01*
X24980018Y61116935D01*
X24968213Y61118210D01*
X24943972Y61119609D01*
X24926254Y61115806D01*
X24914061Y61104689D01*
X24906393Y61084147D01*
X24902252Y61052069D01*
X24900639Y61006344D01*
X24900467Y60975050D01*
X24900467Y60866867D01*
X24824267Y60866867D01*
X24824267Y61026322D01*
X24824459Y61076501D01*
X24824993Y61120606D01*
X24825807Y61155943D01*
X24826839Y61179815D01*
X24828024Y61189528D01*
X24828060Y61189571D01*
X24838093Y61191223D01*
X24858514Y61190720D01*
X24866160Y61190093D01*
X24890592Y61185221D01*
X24900175Y61176229D01*
X24900467Y61173699D01*
X24902058Y61165397D01*
X24909535Y61168989D01*
X24915839Y61174487D01*
X24944561Y61190064D01*
X24980726Y61194664D01*
X25014009Y61188850D01*
X25014009Y61188850D01*
G37*
X25014009Y61188850D02*
X25035592Y61179861D01*
X25042884Y61169368D01*
X25036862Y61153321D01*
X25026274Y61137998D01*
X25013573Y61123160D01*
X25000398Y61116904D01*
X24980018Y61116935D01*
X24968213Y61118210D01*
X24943972Y61119609D01*
X24926254Y61115806D01*
X24914061Y61104689D01*
X24906393Y61084147D01*
X24902252Y61052069D01*
X24900639Y61006344D01*
X24900467Y60975050D01*
X24900467Y60866867D01*
X24824267Y60866867D01*
X24824267Y61026322D01*
X24824459Y61076501D01*
X24824993Y61120606D01*
X24825807Y61155943D01*
X24826839Y61179815D01*
X24828024Y61189528D01*
X24828060Y61189571D01*
X24838093Y61191223D01*
X24858514Y61190720D01*
X24866160Y61190093D01*
X24890592Y61185221D01*
X24900175Y61176229D01*
X24900467Y61173699D01*
X24902058Y61165397D01*
X24909535Y61168989D01*
X24915839Y61174487D01*
X24944561Y61190064D01*
X24980726Y61194664D01*
X25014009Y61188850D01*
G36*
X25210079Y61189589D02*
X25236775Y61178963D01*
X25271848Y61155597D01*
X25295258Y61124767D01*
X25308893Y61083356D01*
X25313083Y61053086D01*
X25317685Y61002333D01*
X25214339Y61002333D01*
X25171132Y61002245D01*
X25142210Y61001635D01*
X25124926Y60999989D01*
X25116631Y60996790D01*
X25114678Y60991523D01*
X25116419Y60983671D01*
X25116532Y60983283D01*
X25131948Y60957602D01*
X25157721Y60940737D01*
X25188966Y60934120D01*
X25220802Y60939184D01*
X25237357Y60947855D01*
X25251089Y60955648D01*
X25262734Y60954326D01*
X25279383Y60942861D01*
X25281106Y60941505D01*
X25297357Y60927683D01*
X25305999Y60918416D01*
X25306398Y60917442D01*
X25300208Y60910699D01*
X25283878Y60898389D01*
X25271305Y60889925D01*
X25243283Y60874887D01*
X25215050Y60868317D01*
X25188755Y60867404D01*
X25159192Y60868951D01*
X25134502Y60872333D01*
X25124834Y60874990D01*
X25091397Y60897702D01*
X25065832Y60933194D01*
X25049677Y60978543D01*
X25044447Y61027678D01*
X25048160Y61061600D01*
X25113014Y61061600D01*
X25176074Y61061600D01*
X25209243Y61062236D01*
X25228674Y61064580D01*
X25237530Y61069289D01*
X25239134Y61074685D01*
X25233510Y61089236D01*
X25219826Y61107045D01*
X25218352Y61108552D01*
X25191393Y61126035D01*
X25163966Y61128080D01*
X25139806Y61115514D01*
X25122652Y61089167D01*
X25121931Y61087179D01*
X25113014Y61061600D01*
X25048160Y61061600D01*
X25050495Y61082926D01*
X25067382Y61128612D01*
X25093446Y61163429D01*
X25127025Y61186069D01*
X25166457Y61195225D01*
X25210079Y61189589D01*
X25210079Y61189589D01*
G37*
X25210079Y61189589D02*
X25236775Y61178963D01*
X25271848Y61155597D01*
X25295258Y61124767D01*
X25308893Y61083356D01*
X25313083Y61053086D01*
X25317685Y61002333D01*
X25214339Y61002333D01*
X25171132Y61002245D01*
X25142210Y61001635D01*
X25124926Y60999989D01*
X25116631Y60996790D01*
X25114678Y60991523D01*
X25116419Y60983671D01*
X25116532Y60983283D01*
X25131948Y60957602D01*
X25157721Y60940737D01*
X25188966Y60934120D01*
X25220802Y60939184D01*
X25237357Y60947855D01*
X25251089Y60955648D01*
X25262734Y60954326D01*
X25279383Y60942861D01*
X25281106Y60941505D01*
X25297357Y60927683D01*
X25305999Y60918416D01*
X25306398Y60917442D01*
X25300208Y60910699D01*
X25283878Y60898389D01*
X25271305Y60889925D01*
X25243283Y60874887D01*
X25215050Y60868317D01*
X25188755Y60867404D01*
X25159192Y60868951D01*
X25134502Y60872333D01*
X25124834Y60874990D01*
X25091397Y60897702D01*
X25065832Y60933194D01*
X25049677Y60978543D01*
X25044447Y61027678D01*
X25048160Y61061600D01*
X25113014Y61061600D01*
X25176074Y61061600D01*
X25209243Y61062236D01*
X25228674Y61064580D01*
X25237530Y61069289D01*
X25239134Y61074685D01*
X25233510Y61089236D01*
X25219826Y61107045D01*
X25218352Y61108552D01*
X25191393Y61126035D01*
X25163966Y61128080D01*
X25139806Y61115514D01*
X25122652Y61089167D01*
X25121931Y61087179D01*
X25113014Y61061600D01*
X25048160Y61061600D01*
X25050495Y61082926D01*
X25067382Y61128612D01*
X25093446Y61163429D01*
X25127025Y61186069D01*
X25166457Y61195225D01*
X25210079Y61189589D01*
G36*
X23241000Y60879567D02*
X23236767Y60875334D01*
X23232534Y60879567D01*
X23236767Y60883800D01*
X23241000Y60879567D01*
X23241000Y60879567D01*
G37*
X23241000Y60879567D02*
X23236767Y60875334D01*
X23232534Y60879567D01*
X23236767Y60883800D01*
X23241000Y60879567D01*
G36*
X22758972Y61693887D02*
X22798615Y61681267D01*
X22833060Y61656375D01*
X22847817Y61638391D01*
X22857901Y61621544D01*
X22864077Y61604136D01*
X22867268Y61581376D01*
X22868390Y61548471D01*
X22868467Y61530787D01*
X22867869Y61491801D01*
X22865508Y61465010D01*
X22860526Y61445700D01*
X22852071Y61429157D01*
X22849248Y61424802D01*
X22819356Y61394084D01*
X22780583Y61374216D01*
X22737555Y61366254D01*
X22694896Y61371253D01*
X22667306Y61383288D01*
X22638999Y61405220D01*
X22620359Y61432312D01*
X22609895Y61468038D01*
X22606117Y61515869D01*
X22606032Y61525987D01*
X22606523Y61536841D01*
X22673733Y61536841D01*
X22677505Y61491347D01*
X22688984Y61460414D01*
X22708413Y61443405D01*
X22709594Y61442910D01*
X22729024Y61436092D01*
X22742879Y61436226D01*
X22761080Y61443433D01*
X22761301Y61443534D01*
X22784677Y61463227D01*
X22797709Y61496150D01*
X22800618Y61529782D01*
X22798323Y61568019D01*
X22790731Y61593584D01*
X22776333Y61610310D01*
X22766551Y61616330D01*
X22743281Y61624001D01*
X22718954Y61620118D01*
X22716648Y61619334D01*
X22693831Y61607393D01*
X22680434Y61588720D01*
X22674511Y61559575D01*
X22673733Y61536841D01*
X22606523Y61536841D01*
X22608395Y61578158D01*
X22615646Y61615217D01*
X22619744Y61625637D01*
X22644516Y61660110D01*
X22678356Y61683109D01*
X22717696Y61694435D01*
X22758972Y61693887D01*
X22758972Y61693887D01*
G37*
X22758972Y61693887D02*
X22798615Y61681267D01*
X22833060Y61656375D01*
X22847817Y61638391D01*
X22857901Y61621544D01*
X22864077Y61604136D01*
X22867268Y61581376D01*
X22868390Y61548471D01*
X22868467Y61530787D01*
X22867869Y61491801D01*
X22865508Y61465010D01*
X22860526Y61445700D01*
X22852071Y61429157D01*
X22849248Y61424802D01*
X22819356Y61394084D01*
X22780583Y61374216D01*
X22737555Y61366254D01*
X22694896Y61371253D01*
X22667306Y61383288D01*
X22638999Y61405220D01*
X22620359Y61432312D01*
X22609895Y61468038D01*
X22606117Y61515869D01*
X22606032Y61525987D01*
X22606523Y61536841D01*
X22673733Y61536841D01*
X22677505Y61491347D01*
X22688984Y61460414D01*
X22708413Y61443405D01*
X22709594Y61442910D01*
X22729024Y61436092D01*
X22742879Y61436226D01*
X22761080Y61443433D01*
X22761301Y61443534D01*
X22784677Y61463227D01*
X22797709Y61496150D01*
X22800618Y61529782D01*
X22798323Y61568019D01*
X22790731Y61593584D01*
X22776333Y61610310D01*
X22766551Y61616330D01*
X22743281Y61624001D01*
X22718954Y61620118D01*
X22716648Y61619334D01*
X22693831Y61607393D01*
X22680434Y61588720D01*
X22674511Y61559575D01*
X22673733Y61536841D01*
X22606523Y61536841D01*
X22608395Y61578158D01*
X22615646Y61615217D01*
X22619744Y61625637D01*
X22644516Y61660110D01*
X22678356Y61683109D01*
X22717696Y61694435D01*
X22758972Y61693887D01*
G36*
X23399594Y61685973D02*
X23437187Y61666721D01*
X23463952Y61634503D01*
X23479997Y61589211D01*
X23484353Y61557918D01*
X23488852Y61501867D01*
X23283753Y61501867D01*
X23292343Y61479273D01*
X23303890Y61458339D01*
X23315416Y61445676D01*
X23338711Y61436566D01*
X23368788Y61435236D01*
X23397465Y61441539D01*
X23408518Y61447361D01*
X23422437Y61455220D01*
X23434520Y61454021D01*
X23452160Y61442961D01*
X23452735Y61442552D01*
X23469311Y61429319D01*
X23477739Y61419793D01*
X23478009Y61418740D01*
X23471607Y61410888D01*
X23455563Y61397927D01*
X23447372Y61392137D01*
X23410240Y61374774D01*
X23367585Y61367000D01*
X23325322Y61369084D01*
X23289363Y61381291D01*
X23283791Y61384737D01*
X23253365Y61410594D01*
X23233635Y61441288D01*
X23222994Y61480509D01*
X23219834Y61531500D01*
X23223762Y61578067D01*
X23291800Y61578067D01*
X23293399Y61569168D01*
X23300610Y61564070D01*
X23317053Y61561738D01*
X23346349Y61561138D01*
X23351067Y61561133D01*
X23382213Y61561590D01*
X23400057Y61563651D01*
X23408218Y61568349D01*
X23410317Y61576719D01*
X23410333Y61578067D01*
X23402763Y61600455D01*
X23383620Y61618748D01*
X23358260Y61628357D01*
X23351067Y61628867D01*
X23324948Y61622378D01*
X23303606Y61605970D01*
X23292395Y61584232D01*
X23291800Y61578067D01*
X23223762Y61578067D01*
X23224757Y61589861D01*
X23239733Y61634750D01*
X23265067Y61666543D01*
X23301068Y61685617D01*
X23348041Y61692347D01*
X23351067Y61692367D01*
X23399594Y61685973D01*
X23399594Y61685973D01*
G37*
X23399594Y61685973D02*
X23437187Y61666721D01*
X23463952Y61634503D01*
X23479997Y61589211D01*
X23484353Y61557918D01*
X23488852Y61501867D01*
X23283753Y61501867D01*
X23292343Y61479273D01*
X23303890Y61458339D01*
X23315416Y61445676D01*
X23338711Y61436566D01*
X23368788Y61435236D01*
X23397465Y61441539D01*
X23408518Y61447361D01*
X23422437Y61455220D01*
X23434520Y61454021D01*
X23452160Y61442961D01*
X23452735Y61442552D01*
X23469311Y61429319D01*
X23477739Y61419793D01*
X23478009Y61418740D01*
X23471607Y61410888D01*
X23455563Y61397927D01*
X23447372Y61392137D01*
X23410240Y61374774D01*
X23367585Y61367000D01*
X23325322Y61369084D01*
X23289363Y61381291D01*
X23283791Y61384737D01*
X23253365Y61410594D01*
X23233635Y61441288D01*
X23222994Y61480509D01*
X23219834Y61531500D01*
X23223762Y61578067D01*
X23291800Y61578067D01*
X23293399Y61569168D01*
X23300610Y61564070D01*
X23317053Y61561738D01*
X23346349Y61561138D01*
X23351067Y61561133D01*
X23382213Y61561590D01*
X23400057Y61563651D01*
X23408218Y61568349D01*
X23410317Y61576719D01*
X23410333Y61578067D01*
X23402763Y61600455D01*
X23383620Y61618748D01*
X23358260Y61628357D01*
X23351067Y61628867D01*
X23324948Y61622378D01*
X23303606Y61605970D01*
X23292395Y61584232D01*
X23291800Y61578067D01*
X23223762Y61578067D01*
X23224757Y61589861D01*
X23239733Y61634750D01*
X23265067Y61666543D01*
X23301068Y61685617D01*
X23348041Y61692347D01*
X23351067Y61692367D01*
X23399594Y61685973D01*
G36*
X23711340Y61691657D02*
X23738006Y61680010D01*
X23756873Y61666636D01*
X23770704Y61651070D01*
X23780294Y61630534D01*
X23786442Y61602254D01*
X23789944Y61563454D01*
X23791598Y61511357D01*
X23791855Y61492498D01*
X23793198Y61370633D01*
X23723600Y61365427D01*
X23723600Y61475042D01*
X23722752Y61529142D01*
X23719624Y61568559D01*
X23713338Y61595482D01*
X23703020Y61612104D01*
X23687793Y61620614D01*
X23666779Y61623205D01*
X23664334Y61623222D01*
X23642661Y61621089D01*
X23626879Y61613225D01*
X23616110Y61597440D01*
X23609472Y61571541D01*
X23606086Y61533335D01*
X23605072Y61480630D01*
X23605067Y61475529D01*
X23605067Y61366400D01*
X23570934Y61366400D01*
X23547050Y61368960D01*
X23533584Y61375632D01*
X23532632Y61377268D01*
X23531412Y61388914D01*
X23530594Y61414555D01*
X23530209Y61451258D01*
X23530291Y61496088D01*
X23530781Y61540251D01*
X23533100Y61692367D01*
X23564918Y61694999D01*
X23589316Y61694271D01*
X23600976Y61686287D01*
X23601727Y61684625D01*
X23607023Y61676564D01*
X23616968Y61677519D01*
X23630872Y61684110D01*
X23670354Y61695511D01*
X23711340Y61691657D01*
X23711340Y61691657D01*
G37*
X23711340Y61691657D02*
X23738006Y61680010D01*
X23756873Y61666636D01*
X23770704Y61651070D01*
X23780294Y61630534D01*
X23786442Y61602254D01*
X23789944Y61563454D01*
X23791598Y61511357D01*
X23791855Y61492498D01*
X23793198Y61370633D01*
X23723600Y61365427D01*
X23723600Y61475042D01*
X23722752Y61529142D01*
X23719624Y61568559D01*
X23713338Y61595482D01*
X23703020Y61612104D01*
X23687793Y61620614D01*
X23666779Y61623205D01*
X23664334Y61623222D01*
X23642661Y61621089D01*
X23626879Y61613225D01*
X23616110Y61597440D01*
X23609472Y61571541D01*
X23606086Y61533335D01*
X23605072Y61480630D01*
X23605067Y61475529D01*
X23605067Y61366400D01*
X23570934Y61366400D01*
X23547050Y61368960D01*
X23533584Y61375632D01*
X23532632Y61377268D01*
X23531412Y61388914D01*
X23530594Y61414555D01*
X23530209Y61451258D01*
X23530291Y61496088D01*
X23530781Y61540251D01*
X23533100Y61692367D01*
X23564918Y61694999D01*
X23589316Y61694271D01*
X23600976Y61686287D01*
X23601727Y61684625D01*
X23607023Y61676564D01*
X23616968Y61677519D01*
X23630872Y61684110D01*
X23670354Y61695511D01*
X23711340Y61691657D01*
G36*
X24161397Y61689170D02*
X24201628Y61672211D01*
X24212948Y61664427D01*
X24232396Y61649360D01*
X24211186Y61624676D01*
X24189976Y61599993D01*
X24159701Y61614430D01*
X24124756Y61626384D01*
X24093689Y61628490D01*
X24069672Y61621365D01*
X24055880Y61605623D01*
X24053800Y61593877D01*
X24055915Y61584371D01*
X24064291Y61577601D01*
X24081974Y61572462D01*
X24112011Y61567848D01*
X24132204Y61565440D01*
X24177554Y61554272D01*
X24211004Y61533466D01*
X24231355Y61504703D01*
X24237407Y61469662D01*
X24228307Y61430845D01*
X24207810Y61402379D01*
X24175593Y61381564D01*
X24135466Y61369300D01*
X24091237Y61366489D01*
X24046716Y61374030D01*
X24024167Y61382595D01*
X23998772Y61395662D01*
X23977452Y61408613D01*
X23973367Y61411573D01*
X23963059Y61420740D01*
X23962546Y61428774D01*
X23972754Y61441192D01*
X23979483Y61448054D01*
X24002533Y61471381D01*
X24035669Y61452757D01*
X24067289Y61439848D01*
X24099305Y61434731D01*
X24128150Y61436842D01*
X24150260Y61445619D01*
X24162068Y61460499D01*
X24162605Y61472793D01*
X24155851Y61484052D01*
X24138361Y61491749D01*
X24117234Y61496104D01*
X24071611Y61504424D01*
X24039516Y61512741D01*
X24017600Y61522427D01*
X24002514Y61534856D01*
X23993684Y61546778D01*
X23981675Y61579511D01*
X23981763Y61615238D01*
X23993551Y61647240D01*
X24000166Y61656093D01*
X24031174Y61679132D01*
X24071497Y61692447D01*
X24116463Y61695854D01*
X24161397Y61689170D01*
X24161397Y61689170D01*
G37*
X24161397Y61689170D02*
X24201628Y61672211D01*
X24212948Y61664427D01*
X24232396Y61649360D01*
X24211186Y61624676D01*
X24189976Y61599993D01*
X24159701Y61614430D01*
X24124756Y61626384D01*
X24093689Y61628490D01*
X24069672Y61621365D01*
X24055880Y61605623D01*
X24053800Y61593877D01*
X24055915Y61584371D01*
X24064291Y61577601D01*
X24081974Y61572462D01*
X24112011Y61567848D01*
X24132204Y61565440D01*
X24177554Y61554272D01*
X24211004Y61533466D01*
X24231355Y61504703D01*
X24237407Y61469662D01*
X24228307Y61430845D01*
X24207810Y61402379D01*
X24175593Y61381564D01*
X24135466Y61369300D01*
X24091237Y61366489D01*
X24046716Y61374030D01*
X24024167Y61382595D01*
X23998772Y61395662D01*
X23977452Y61408613D01*
X23973367Y61411573D01*
X23963059Y61420740D01*
X23962546Y61428774D01*
X23972754Y61441192D01*
X23979483Y61448054D01*
X24002533Y61471381D01*
X24035669Y61452757D01*
X24067289Y61439848D01*
X24099305Y61434731D01*
X24128150Y61436842D01*
X24150260Y61445619D01*
X24162068Y61460499D01*
X24162605Y61472793D01*
X24155851Y61484052D01*
X24138361Y61491749D01*
X24117234Y61496104D01*
X24071611Y61504424D01*
X24039516Y61512741D01*
X24017600Y61522427D01*
X24002514Y61534856D01*
X23993684Y61546778D01*
X23981675Y61579511D01*
X23981763Y61615238D01*
X23993551Y61647240D01*
X24000166Y61656093D01*
X24031174Y61679132D01*
X24071497Y61692447D01*
X24116463Y61695854D01*
X24161397Y61689170D01*
G36*
X24405166Y61695102D02*
X24411611Y61694686D01*
X24442593Y61690997D01*
X24464213Y61683208D01*
X24484014Y61668226D01*
X24490091Y61662484D01*
X24515819Y61629397D01*
X24530646Y61589165D01*
X24535418Y61538856D01*
X24534298Y61509022D01*
X24525000Y61454777D01*
X24505595Y61413858D01*
X24475855Y61385837D01*
X24465137Y61380002D01*
X24424109Y61368027D01*
X24381247Y61368021D01*
X24342806Y61379724D01*
X24333114Y61385450D01*
X24305182Y61406836D01*
X24286716Y61428521D01*
X24275876Y61454744D01*
X24270823Y61489744D01*
X24269720Y61530802D01*
X24341667Y61530802D01*
X24342208Y61498187D01*
X24344733Y61477702D01*
X24350591Y61464556D01*
X24361135Y61453957D01*
X24363975Y61451681D01*
X24386288Y61437513D01*
X24406286Y61435555D01*
X24430006Y61443885D01*
X24447859Y61456732D01*
X24456503Y61469689D01*
X24460750Y61494258D01*
X24461862Y61526260D01*
X24460073Y61558817D01*
X24455614Y61585051D01*
X24452319Y61593906D01*
X24434519Y61613041D01*
X24409875Y61623842D01*
X24386190Y61623109D01*
X24364269Y61612559D01*
X24350777Y61597339D01*
X24343869Y61573622D01*
X24341698Y61537581D01*
X24341667Y61530802D01*
X24269720Y61530802D01*
X24269700Y61531517D01*
X24271138Y61577698D01*
X24276704Y61611382D01*
X24288273Y61636855D01*
X24307725Y61658404D01*
X24333979Y61678299D01*
X24354618Y61690064D01*
X24375899Y61695148D01*
X24405166Y61695102D01*
X24405166Y61695102D01*
G37*
X24405166Y61695102D02*
X24411611Y61694686D01*
X24442593Y61690997D01*
X24464213Y61683208D01*
X24484014Y61668226D01*
X24490091Y61662484D01*
X24515819Y61629397D01*
X24530646Y61589165D01*
X24535418Y61538856D01*
X24534298Y61509022D01*
X24525000Y61454777D01*
X24505595Y61413858D01*
X24475855Y61385837D01*
X24465137Y61380002D01*
X24424109Y61368027D01*
X24381247Y61368021D01*
X24342806Y61379724D01*
X24333114Y61385450D01*
X24305182Y61406836D01*
X24286716Y61428521D01*
X24275876Y61454744D01*
X24270823Y61489744D01*
X24269720Y61530802D01*
X24341667Y61530802D01*
X24342208Y61498187D01*
X24344733Y61477702D01*
X24350591Y61464556D01*
X24361135Y61453957D01*
X24363975Y61451681D01*
X24386288Y61437513D01*
X24406286Y61435555D01*
X24430006Y61443885D01*
X24447859Y61456732D01*
X24456503Y61469689D01*
X24460750Y61494258D01*
X24461862Y61526260D01*
X24460073Y61558817D01*
X24455614Y61585051D01*
X24452319Y61593906D01*
X24434519Y61613041D01*
X24409875Y61623842D01*
X24386190Y61623109D01*
X24364269Y61612559D01*
X24350777Y61597339D01*
X24343869Y61573622D01*
X24341698Y61537581D01*
X24341667Y61530802D01*
X24269720Y61530802D01*
X24269700Y61531517D01*
X24271138Y61577698D01*
X24276704Y61611382D01*
X24288273Y61636855D01*
X24307725Y61658404D01*
X24333979Y61678299D01*
X24354618Y61690064D01*
X24375899Y61695148D01*
X24405166Y61695102D01*
G36*
X24807782Y61694970D02*
X24842097Y61692367D01*
X24842097Y61370633D01*
X24807782Y61368030D01*
X24785019Y61367819D01*
X24774972Y61372591D01*
X24773467Y61378831D01*
X24771850Y61387108D01*
X24764007Y61386715D01*
X24748487Y61379318D01*
X24713632Y61368647D01*
X24675457Y61368216D01*
X24641761Y61377930D01*
X24636923Y61380656D01*
X24617450Y61394788D01*
X24603242Y61411278D01*
X24593505Y61432920D01*
X24587441Y61462508D01*
X24584257Y61502834D01*
X24583156Y61556693D01*
X24583115Y61569600D01*
X24582967Y61692367D01*
X24618950Y61694970D01*
X24654934Y61697574D01*
X24654934Y61586635D01*
X24655088Y61541216D01*
X24655893Y61509492D01*
X24657858Y61488226D01*
X24661495Y61474181D01*
X24667314Y61464120D01*
X24675715Y61454915D01*
X24694930Y61440600D01*
X24713253Y61434161D01*
X24714200Y61434133D01*
X24732146Y61439885D01*
X24751582Y61453836D01*
X24752685Y61454915D01*
X24761164Y61464221D01*
X24766956Y61474308D01*
X24770572Y61488414D01*
X24772522Y61509778D01*
X24773316Y61541635D01*
X24773467Y61586635D01*
X24773467Y61697574D01*
X24807782Y61694970D01*
X24807782Y61694970D01*
G37*
X24807782Y61694970D02*
X24842097Y61692367D01*
X24842097Y61370633D01*
X24807782Y61368030D01*
X24785019Y61367819D01*
X24774972Y61372591D01*
X24773467Y61378831D01*
X24771850Y61387108D01*
X24764007Y61386715D01*
X24748487Y61379318D01*
X24713632Y61368647D01*
X24675457Y61368216D01*
X24641761Y61377930D01*
X24636923Y61380656D01*
X24617450Y61394788D01*
X24603242Y61411278D01*
X24593505Y61432920D01*
X24587441Y61462508D01*
X24584257Y61502834D01*
X24583156Y61556693D01*
X24583115Y61569600D01*
X24582967Y61692367D01*
X24618950Y61694970D01*
X24654934Y61697574D01*
X24654934Y61586635D01*
X24655088Y61541216D01*
X24655893Y61509492D01*
X24657858Y61488226D01*
X24661495Y61474181D01*
X24667314Y61464120D01*
X24675715Y61454915D01*
X24694930Y61440600D01*
X24713253Y61434161D01*
X24714200Y61434133D01*
X24732146Y61439885D01*
X24751582Y61453836D01*
X24752685Y61454915D01*
X24761164Y61464221D01*
X24766956Y61474308D01*
X24770572Y61488414D01*
X24772522Y61509778D01*
X24773316Y61541635D01*
X24773467Y61586635D01*
X24773467Y61697574D01*
X24807782Y61694970D01*
G36*
X24964806Y61695283D02*
X24974563Y61689682D01*
X24976667Y61678355D01*
X24977458Y61666033D01*
X24982671Y61666122D01*
X24994489Y61676238D01*
X25015104Y61686654D01*
X25044244Y61692097D01*
X25075416Y61692384D01*
X25102131Y61687330D01*
X25115596Y61679667D01*
X25122117Y61670181D01*
X25120013Y61659419D01*
X25107913Y61642384D01*
X25104092Y61637684D01*
X25088197Y61619905D01*
X25076552Y61613489D01*
X25063491Y61616070D01*
X25058027Y61618437D01*
X25029391Y61623397D01*
X25002797Y61614289D01*
X24985215Y61595152D01*
X24981122Y61578379D01*
X24978377Y61547507D01*
X24977164Y61505333D01*
X24977271Y61474097D01*
X24978742Y61370633D01*
X24908934Y61365427D01*
X24908934Y61696600D01*
X24942800Y61696600D01*
X24964806Y61695283D01*
X24964806Y61695283D01*
G37*
X24964806Y61695283D02*
X24974563Y61689682D01*
X24976667Y61678355D01*
X24977458Y61666033D01*
X24982671Y61666122D01*
X24994489Y61676238D01*
X25015104Y61686654D01*
X25044244Y61692097D01*
X25075416Y61692384D01*
X25102131Y61687330D01*
X25115596Y61679667D01*
X25122117Y61670181D01*
X25120013Y61659419D01*
X25107913Y61642384D01*
X25104092Y61637684D01*
X25088197Y61619905D01*
X25076552Y61613489D01*
X25063491Y61616070D01*
X25058027Y61618437D01*
X25029391Y61623397D01*
X25002797Y61614289D01*
X24985215Y61595152D01*
X24981122Y61578379D01*
X24978377Y61547507D01*
X24977164Y61505333D01*
X24977271Y61474097D01*
X24978742Y61370633D01*
X24908934Y61365427D01*
X24908934Y61696600D01*
X24942800Y61696600D01*
X24964806Y61695283D01*
G36*
X25287243Y61694004D02*
X25328057Y61680631D01*
X25361386Y61655114D01*
X25371756Y61642086D01*
X25371803Y61632599D01*
X25360750Y61619647D01*
X25357034Y61615919D01*
X25336263Y61595148D01*
X25301368Y61612412D01*
X25264141Y61623859D01*
X25232462Y61620013D01*
X25208102Y61602089D01*
X25192837Y61571301D01*
X25188334Y61534990D01*
X25191774Y61493803D01*
X25203073Y61465635D01*
X25223700Y61447823D01*
X25239962Y61441352D01*
X25262849Y61436341D01*
X25281202Y61439063D01*
X25303457Y61450431D01*
X25335046Y61469069D01*
X25356426Y61447689D01*
X25370147Y61432917D01*
X25372679Y61423290D01*
X25364876Y61412047D01*
X25361406Y61408188D01*
X25327608Y61382658D01*
X25285609Y61368626D01*
X25240544Y61367152D01*
X25205271Y61375912D01*
X25165290Y61400239D01*
X25137273Y61436464D01*
X25121329Y61484395D01*
X25117340Y61531500D01*
X25120720Y61580120D01*
X25131978Y61617570D01*
X25152786Y61648439D01*
X25164246Y61660053D01*
X25200909Y61683826D01*
X25243384Y61695106D01*
X25287243Y61694004D01*
X25287243Y61694004D01*
G37*
X25287243Y61694004D02*
X25328057Y61680631D01*
X25361386Y61655114D01*
X25371756Y61642086D01*
X25371803Y61632599D01*
X25360750Y61619647D01*
X25357034Y61615919D01*
X25336263Y61595148D01*
X25301368Y61612412D01*
X25264141Y61623859D01*
X25232462Y61620013D01*
X25208102Y61602089D01*
X25192837Y61571301D01*
X25188334Y61534990D01*
X25191774Y61493803D01*
X25203073Y61465635D01*
X25223700Y61447823D01*
X25239962Y61441352D01*
X25262849Y61436341D01*
X25281202Y61439063D01*
X25303457Y61450431D01*
X25335046Y61469069D01*
X25356426Y61447689D01*
X25370147Y61432917D01*
X25372679Y61423290D01*
X25364876Y61412047D01*
X25361406Y61408188D01*
X25327608Y61382658D01*
X25285609Y61368626D01*
X25240544Y61367152D01*
X25205271Y61375912D01*
X25165290Y61400239D01*
X25137273Y61436464D01*
X25121329Y61484395D01*
X25117340Y61531500D01*
X25120720Y61580120D01*
X25131978Y61617570D01*
X25152786Y61648439D01*
X25164246Y61660053D01*
X25200909Y61683826D01*
X25243384Y61695106D01*
X25287243Y61694004D01*
G36*
X25532009Y61694652D02*
X25579542Y61684168D01*
X25615503Y61661354D01*
X25639771Y61626353D01*
X25652227Y61579310D01*
X25654000Y61548705D01*
X25654000Y61501867D01*
X25556063Y61501867D01*
X25514207Y61501767D01*
X25486573Y61501096D01*
X25470451Y61499294D01*
X25463129Y61495803D01*
X25461897Y61490063D01*
X25463665Y61482817D01*
X25479392Y61455282D01*
X25505192Y61439020D01*
X25537619Y61435106D01*
X25573231Y61444615D01*
X25578249Y61447066D01*
X25596091Y61454753D01*
X25609524Y61453547D01*
X25626939Y61442486D01*
X25628552Y61441297D01*
X25644506Y61428254D01*
X25648170Y61419205D01*
X25641418Y61408872D01*
X25640453Y61407798D01*
X25608708Y61384350D01*
X25567619Y61370684D01*
X25522209Y61367620D01*
X25477501Y61375976D01*
X25467734Y61379646D01*
X25443698Y61394906D01*
X25421240Y61417238D01*
X25416934Y61423039D01*
X25406701Y61439883D01*
X25400394Y61456937D01*
X25397094Y61478955D01*
X25395879Y61510691D01*
X25395767Y61532376D01*
X25397109Y61574218D01*
X25459267Y61574218D01*
X25462316Y61567356D01*
X25473566Y61563326D01*
X25496173Y61561478D01*
X25522767Y61561133D01*
X25556069Y61561762D01*
X25575626Y61564080D01*
X25584593Y61568738D01*
X25586267Y61574218D01*
X25579207Y61592268D01*
X25561904Y61610697D01*
X25540168Y61624502D01*
X25522767Y61628867D01*
X25501793Y61622792D01*
X25480380Y61607900D01*
X25464338Y61589194D01*
X25459267Y61574218D01*
X25397109Y61574218D01*
X25397244Y61578422D01*
X25402945Y61612015D01*
X25414773Y61637475D01*
X25434631Y61659123D01*
X25460045Y61678304D01*
X25482795Y61690870D01*
X25506575Y61695445D01*
X25532009Y61694652D01*
X25532009Y61694652D01*
G37*
X25532009Y61694652D02*
X25579542Y61684168D01*
X25615503Y61661354D01*
X25639771Y61626353D01*
X25652227Y61579310D01*
X25654000Y61548705D01*
X25654000Y61501867D01*
X25556063Y61501867D01*
X25514207Y61501767D01*
X25486573Y61501096D01*
X25470451Y61499294D01*
X25463129Y61495803D01*
X25461897Y61490063D01*
X25463665Y61482817D01*
X25479392Y61455282D01*
X25505192Y61439020D01*
X25537619Y61435106D01*
X25573231Y61444615D01*
X25578249Y61447066D01*
X25596091Y61454753D01*
X25609524Y61453547D01*
X25626939Y61442486D01*
X25628552Y61441297D01*
X25644506Y61428254D01*
X25648170Y61419205D01*
X25641418Y61408872D01*
X25640453Y61407798D01*
X25608708Y61384350D01*
X25567619Y61370684D01*
X25522209Y61367620D01*
X25477501Y61375976D01*
X25467734Y61379646D01*
X25443698Y61394906D01*
X25421240Y61417238D01*
X25416934Y61423039D01*
X25406701Y61439883D01*
X25400394Y61456937D01*
X25397094Y61478955D01*
X25395879Y61510691D01*
X25395767Y61532376D01*
X25397109Y61574218D01*
X25459267Y61574218D01*
X25462316Y61567356D01*
X25473566Y61563326D01*
X25496173Y61561478D01*
X25522767Y61561133D01*
X25556069Y61561762D01*
X25575626Y61564080D01*
X25584593Y61568738D01*
X25586267Y61574218D01*
X25579207Y61592268D01*
X25561904Y61610697D01*
X25540168Y61624502D01*
X25522767Y61628867D01*
X25501793Y61622792D01*
X25480380Y61607900D01*
X25464338Y61589194D01*
X25459267Y61574218D01*
X25397109Y61574218D01*
X25397244Y61578422D01*
X25402945Y61612015D01*
X25414773Y61637475D01*
X25434631Y61659123D01*
X25460045Y61678304D01*
X25482795Y61690870D01*
X25506575Y61695445D01*
X25532009Y61694652D01*
G36*
X25120600Y61624633D02*
X25116367Y61620400D01*
X25112134Y61624633D01*
X25116367Y61628867D01*
X25120600Y61624633D01*
X25120600Y61624633D01*
G37*
X25120600Y61624633D02*
X25116367Y61620400D01*
X25112134Y61624633D01*
X25116367Y61628867D01*
X25120600Y61624633D01*
G36*
X24324582Y63912750D02*
X24334031Y63863211D01*
X24343159Y63819182D01*
X24351322Y63783481D01*
X24357878Y63758929D01*
X24362075Y63748449D01*
X24373058Y63741746D01*
X24396548Y63730361D01*
X24429288Y63715787D01*
X24468017Y63699518D01*
X24475326Y63696543D01*
X24579351Y63654423D01*
X24610792Y63675901D01*
X24677570Y63721368D01*
X24731628Y63757816D01*
X24774095Y63785971D01*
X24806098Y63806560D01*
X24828765Y63820310D01*
X24843225Y63827946D01*
X24850418Y63830200D01*
X24860263Y63824402D01*
X24879288Y63808579D01*
X24905127Y63785088D01*
X24935417Y63756285D01*
X24967791Y63724527D01*
X24999885Y63692170D01*
X25029333Y63661570D01*
X25053770Y63635085D01*
X25070832Y63615071D01*
X25078154Y63603884D01*
X25078267Y63603176D01*
X25073676Y63592862D01*
X25060970Y63571229D01*
X25041748Y63540823D01*
X25017609Y63504194D01*
X24997977Y63475242D01*
X24970847Y63435333D01*
X24946963Y63399518D01*
X24928057Y63370448D01*
X24915862Y63350776D01*
X24912241Y63344007D01*
X24913066Y63329606D01*
X24920271Y63303870D01*
X24932282Y63270412D01*
X24947525Y63232848D01*
X24964425Y63194790D01*
X24981409Y63159852D01*
X24996902Y63131649D01*
X25009331Y63113795D01*
X25014294Y63109694D01*
X25026284Y63106462D01*
X25051468Y63100846D01*
X25086385Y63093526D01*
X25127576Y63085179D01*
X25171579Y63076486D01*
X25214934Y63068125D01*
X25254181Y63060774D01*
X25285860Y63055114D01*
X25306510Y63051823D01*
X25312068Y63051267D01*
X25313065Y63043227D01*
X25313729Y63020806D01*
X25314037Y62986556D01*
X25313971Y62943026D01*
X25313510Y62892766D01*
X25313396Y62884082D01*
X25311100Y62716897D01*
X25277234Y62710126D01*
X25256411Y62706007D01*
X25223171Y62699483D01*
X25181721Y62691378D01*
X25136265Y62682514D01*
X25125714Y62680460D01*
X25008061Y62657567D01*
X24963033Y62547500D01*
X24946676Y62506657D01*
X24932927Y62470691D01*
X24922982Y62442850D01*
X24918034Y62426387D01*
X24917702Y62424132D01*
X24922182Y62412986D01*
X24934775Y62390566D01*
X24953892Y62359477D01*
X24977946Y62322325D01*
X24997692Y62292899D01*
X25024367Y62252999D01*
X25047310Y62217309D01*
X25064924Y62188425D01*
X25075613Y62168941D01*
X25078125Y62162145D01*
X25072399Y62152359D01*
X25056686Y62133345D01*
X25033332Y62107474D01*
X25004685Y62077121D01*
X24973090Y62044659D01*
X24940894Y62012462D01*
X24910442Y61982903D01*
X24884080Y61958355D01*
X24864155Y61941193D01*
X24853013Y61933789D01*
X24852283Y61933667D01*
X24842336Y61938268D01*
X24821056Y61951002D01*
X24790965Y61970265D01*
X24754584Y61994455D01*
X24725797Y62014100D01*
X24686675Y62040805D01*
X24652290Y62063760D01*
X24625092Y62081370D01*
X24607531Y62092041D01*
X24602201Y62094533D01*
X24591824Y62090957D01*
X24570545Y62081473D01*
X24542505Y62067950D01*
X24535321Y62064357D01*
X24507031Y62050570D01*
X24485239Y62040815D01*
X24473713Y62036752D01*
X24472856Y62036840D01*
X24468988Y62045137D01*
X24459638Y62066809D01*
X24445754Y62099567D01*
X24428287Y62141121D01*
X24408189Y62189184D01*
X24386409Y62241466D01*
X24363897Y62295678D01*
X24341605Y62349532D01*
X24320482Y62400738D01*
X24301478Y62447009D01*
X24285545Y62486054D01*
X24273633Y62515585D01*
X24266691Y62533314D01*
X24266533Y62533738D01*
X24258641Y62556545D01*
X24257298Y62568963D01*
X24262789Y62576338D01*
X24269040Y62580305D01*
X24283268Y62590220D01*
X24305843Y62607620D01*
X24332230Y62628996D01*
X24336043Y62632167D01*
X24386494Y62684260D01*
X24422956Y62743068D01*
X24445644Y62806372D01*
X24454773Y62871955D01*
X24450556Y62937598D01*
X24433209Y63001083D01*
X24402945Y63060191D01*
X24359979Y63112706D01*
X24304525Y63156409D01*
X24284250Y63168131D01*
X24217567Y63194722D01*
X24148680Y63205919D01*
X24079996Y63202445D01*
X24013925Y63185019D01*
X23952873Y63154360D01*
X23899248Y63111190D01*
X23855459Y63056228D01*
X23844023Y63036468D01*
X23816578Y62967981D01*
X23805096Y62897922D01*
X23809010Y62828389D01*
X23827753Y62761481D01*
X23860758Y62699297D01*
X23907457Y62643935D01*
X23961724Y62601027D01*
X23984040Y62584965D01*
X23999028Y62571108D01*
X24003000Y62564255D01*
X23999867Y62553707D01*
X23991120Y62530065D01*
X23977742Y62495829D01*
X23960714Y62453501D01*
X23941017Y62405583D01*
X23936295Y62394231D01*
X23913057Y62338370D01*
X23889262Y62280947D01*
X23866716Y62226341D01*
X23847228Y62178932D01*
X23833514Y62145334D01*
X23818333Y62108739D01*
X23804761Y62077504D01*
X23794417Y62055268D01*
X23789359Y62046143D01*
X23781020Y62042664D01*
X23764851Y62046272D01*
X23738195Y62057740D01*
X23721906Y62065753D01*
X23692647Y62079456D01*
X23668654Y62088806D01*
X23654280Y62092152D01*
X23652849Y62091922D01*
X23642870Y62086051D01*
X23621569Y62072249D01*
X23591538Y62052235D01*
X23555369Y62027730D01*
X23530843Y62010929D01*
X23492148Y61984745D01*
X23457868Y61962359D01*
X23430605Y61945408D01*
X23412959Y61935526D01*
X23407954Y61933667D01*
X23398838Y61939406D01*
X23379999Y61955342D01*
X23353541Y61979554D01*
X23321568Y62010122D01*
X23289561Y62041735D01*
X23254927Y62077131D01*
X23224910Y62109117D01*
X23201433Y62135537D01*
X23186420Y62154233D01*
X23181734Y62162676D01*
X23183121Y62169117D01*
X23187971Y62179544D01*
X23197317Y62195564D01*
X23212191Y62218781D01*
X23233626Y62250803D01*
X23262654Y62293235D01*
X23300309Y62347683D01*
X23305587Y62355289D01*
X23323353Y62382116D01*
X23336495Y62404311D01*
X23342568Y62417689D01*
X23342721Y62418789D01*
X23339815Y62429999D01*
X23331752Y62453797D01*
X23319653Y62487045D01*
X23304640Y62526605D01*
X23299074Y62540927D01*
X23283765Y62580722D01*
X23271524Y62610750D01*
X23259788Y62632778D01*
X23245994Y62648575D01*
X23227580Y62659909D01*
X23201983Y62668547D01*
X23166642Y62676259D01*
X23118992Y62684811D01*
X23080754Y62691560D01*
X23037052Y62699591D01*
X22999287Y62706907D01*
X22970602Y62712870D01*
X22954142Y62716841D01*
X22951637Y62717758D01*
X22949478Y62727175D01*
X22947591Y62750855D01*
X22946087Y62786130D01*
X22945076Y62830329D01*
X22944670Y62880784D01*
X22944667Y62885730D01*
X22944667Y63049394D01*
X23086484Y63075999D01*
X23134596Y63085253D01*
X23177841Y63093998D01*
X23213055Y63101561D01*
X23237073Y63107269D01*
X23245707Y63109872D01*
X23255774Y63120417D01*
X23269778Y63143320D01*
X23286142Y63174962D01*
X23303289Y63211728D01*
X23319645Y63250001D01*
X23333632Y63286165D01*
X23343674Y63316604D01*
X23348195Y63337701D01*
X23347760Y63344007D01*
X23341308Y63355499D01*
X23326931Y63378250D01*
X23306360Y63409607D01*
X23281328Y63446920D01*
X23262024Y63475242D01*
X23235321Y63514805D01*
X23212378Y63550012D01*
X23194795Y63578309D01*
X23184173Y63597140D01*
X23181734Y63603416D01*
X23187592Y63613474D01*
X23203580Y63632597D01*
X23227321Y63658437D01*
X23256435Y63688645D01*
X23288545Y63720873D01*
X23321271Y63752771D01*
X23352235Y63781993D01*
X23379059Y63806190D01*
X23399364Y63823012D01*
X23410771Y63830113D01*
X23411426Y63830200D01*
X23427683Y63825288D01*
X23445175Y63814668D01*
X23459177Y63804530D01*
X23484180Y63787037D01*
X23517141Y63764296D01*
X23555020Y63738411D01*
X23572865Y63726294D01*
X23680362Y63653452D01*
X23784531Y63696119D01*
X23823974Y63712707D01*
X23858012Y63727832D01*
X23883400Y63739994D01*
X23896896Y63747692D01*
X23897832Y63748510D01*
X23903313Y63760787D01*
X23910265Y63785424D01*
X23917530Y63818053D01*
X23920638Y63834433D01*
X23928980Y63880914D01*
X23938456Y63933713D01*
X23947209Y63982483D01*
X23948369Y63988950D01*
X23962426Y64067267D01*
X24296313Y64067267D01*
X24324582Y63912750D01*
X24324582Y63912750D01*
G37*
X24324582Y63912750D02*
X24334031Y63863211D01*
X24343159Y63819182D01*
X24351322Y63783481D01*
X24357878Y63758929D01*
X24362075Y63748449D01*
X24373058Y63741746D01*
X24396548Y63730361D01*
X24429288Y63715787D01*
X24468017Y63699518D01*
X24475326Y63696543D01*
X24579351Y63654423D01*
X24610792Y63675901D01*
X24677570Y63721368D01*
X24731628Y63757816D01*
X24774095Y63785971D01*
X24806098Y63806560D01*
X24828765Y63820310D01*
X24843225Y63827946D01*
X24850418Y63830200D01*
X24860263Y63824402D01*
X24879288Y63808579D01*
X24905127Y63785088D01*
X24935417Y63756285D01*
X24967791Y63724527D01*
X24999885Y63692170D01*
X25029333Y63661570D01*
X25053770Y63635085D01*
X25070832Y63615071D01*
X25078154Y63603884D01*
X25078267Y63603176D01*
X25073676Y63592862D01*
X25060970Y63571229D01*
X25041748Y63540823D01*
X25017609Y63504194D01*
X24997977Y63475242D01*
X24970847Y63435333D01*
X24946963Y63399518D01*
X24928057Y63370448D01*
X24915862Y63350776D01*
X24912241Y63344007D01*
X24913066Y63329606D01*
X24920271Y63303870D01*
X24932282Y63270412D01*
X24947525Y63232848D01*
X24964425Y63194790D01*
X24981409Y63159852D01*
X24996902Y63131649D01*
X25009331Y63113795D01*
X25014294Y63109694D01*
X25026284Y63106462D01*
X25051468Y63100846D01*
X25086385Y63093526D01*
X25127576Y63085179D01*
X25171579Y63076486D01*
X25214934Y63068125D01*
X25254181Y63060774D01*
X25285860Y63055114D01*
X25306510Y63051823D01*
X25312068Y63051267D01*
X25313065Y63043227D01*
X25313729Y63020806D01*
X25314037Y62986556D01*
X25313971Y62943026D01*
X25313510Y62892766D01*
X25313396Y62884082D01*
X25311100Y62716897D01*
X25277234Y62710126D01*
X25256411Y62706007D01*
X25223171Y62699483D01*
X25181721Y62691378D01*
X25136265Y62682514D01*
X25125714Y62680460D01*
X25008061Y62657567D01*
X24963033Y62547500D01*
X24946676Y62506657D01*
X24932927Y62470691D01*
X24922982Y62442850D01*
X24918034Y62426387D01*
X24917702Y62424132D01*
X24922182Y62412986D01*
X24934775Y62390566D01*
X24953892Y62359477D01*
X24977946Y62322325D01*
X24997692Y62292899D01*
X25024367Y62252999D01*
X25047310Y62217309D01*
X25064924Y62188425D01*
X25075613Y62168941D01*
X25078125Y62162145D01*
X25072399Y62152359D01*
X25056686Y62133345D01*
X25033332Y62107474D01*
X25004685Y62077121D01*
X24973090Y62044659D01*
X24940894Y62012462D01*
X24910442Y61982903D01*
X24884080Y61958355D01*
X24864155Y61941193D01*
X24853013Y61933789D01*
X24852283Y61933667D01*
X24842336Y61938268D01*
X24821056Y61951002D01*
X24790965Y61970265D01*
X24754584Y61994455D01*
X24725797Y62014100D01*
X24686675Y62040805D01*
X24652290Y62063760D01*
X24625092Y62081370D01*
X24607531Y62092041D01*
X24602201Y62094533D01*
X24591824Y62090957D01*
X24570545Y62081473D01*
X24542505Y62067950D01*
X24535321Y62064357D01*
X24507031Y62050570D01*
X24485239Y62040815D01*
X24473713Y62036752D01*
X24472856Y62036840D01*
X24468988Y62045137D01*
X24459638Y62066809D01*
X24445754Y62099567D01*
X24428287Y62141121D01*
X24408189Y62189184D01*
X24386409Y62241466D01*
X24363897Y62295678D01*
X24341605Y62349532D01*
X24320482Y62400738D01*
X24301478Y62447009D01*
X24285545Y62486054D01*
X24273633Y62515585D01*
X24266691Y62533314D01*
X24266533Y62533738D01*
X24258641Y62556545D01*
X24257298Y62568963D01*
X24262789Y62576338D01*
X24269040Y62580305D01*
X24283268Y62590220D01*
X24305843Y62607620D01*
X24332230Y62628996D01*
X24336043Y62632167D01*
X24386494Y62684260D01*
X24422956Y62743068D01*
X24445644Y62806372D01*
X24454773Y62871955D01*
X24450556Y62937598D01*
X24433209Y63001083D01*
X24402945Y63060191D01*
X24359979Y63112706D01*
X24304525Y63156409D01*
X24284250Y63168131D01*
X24217567Y63194722D01*
X24148680Y63205919D01*
X24079996Y63202445D01*
X24013925Y63185019D01*
X23952873Y63154360D01*
X23899248Y63111190D01*
X23855459Y63056228D01*
X23844023Y63036468D01*
X23816578Y62967981D01*
X23805096Y62897922D01*
X23809010Y62828389D01*
X23827753Y62761481D01*
X23860758Y62699297D01*
X23907457Y62643935D01*
X23961724Y62601027D01*
X23984040Y62584965D01*
X23999028Y62571108D01*
X24003000Y62564255D01*
X23999867Y62553707D01*
X23991120Y62530065D01*
X23977742Y62495829D01*
X23960714Y62453501D01*
X23941017Y62405583D01*
X23936295Y62394231D01*
X23913057Y62338370D01*
X23889262Y62280947D01*
X23866716Y62226341D01*
X23847228Y62178932D01*
X23833514Y62145334D01*
X23818333Y62108739D01*
X23804761Y62077504D01*
X23794417Y62055268D01*
X23789359Y62046143D01*
X23781020Y62042664D01*
X23764851Y62046272D01*
X23738195Y62057740D01*
X23721906Y62065753D01*
X23692647Y62079456D01*
X23668654Y62088806D01*
X23654280Y62092152D01*
X23652849Y62091922D01*
X23642870Y62086051D01*
X23621569Y62072249D01*
X23591538Y62052235D01*
X23555369Y62027730D01*
X23530843Y62010929D01*
X23492148Y61984745D01*
X23457868Y61962359D01*
X23430605Y61945408D01*
X23412959Y61935526D01*
X23407954Y61933667D01*
X23398838Y61939406D01*
X23379999Y61955342D01*
X23353541Y61979554D01*
X23321568Y62010122D01*
X23289561Y62041735D01*
X23254927Y62077131D01*
X23224910Y62109117D01*
X23201433Y62135537D01*
X23186420Y62154233D01*
X23181734Y62162676D01*
X23183121Y62169117D01*
X23187971Y62179544D01*
X23197317Y62195564D01*
X23212191Y62218781D01*
X23233626Y62250803D01*
X23262654Y62293235D01*
X23300309Y62347683D01*
X23305587Y62355289D01*
X23323353Y62382116D01*
X23336495Y62404311D01*
X23342568Y62417689D01*
X23342721Y62418789D01*
X23339815Y62429999D01*
X23331752Y62453797D01*
X23319653Y62487045D01*
X23304640Y62526605D01*
X23299074Y62540927D01*
X23283765Y62580722D01*
X23271524Y62610750D01*
X23259788Y62632778D01*
X23245994Y62648575D01*
X23227580Y62659909D01*
X23201983Y62668547D01*
X23166642Y62676259D01*
X23118992Y62684811D01*
X23080754Y62691560D01*
X23037052Y62699591D01*
X22999287Y62706907D01*
X22970602Y62712870D01*
X22954142Y62716841D01*
X22951637Y62717758D01*
X22949478Y62727175D01*
X22947591Y62750855D01*
X22946087Y62786130D01*
X22945076Y62830329D01*
X22944670Y62880784D01*
X22944667Y62885730D01*
X22944667Y63049394D01*
X23086484Y63075999D01*
X23134596Y63085253D01*
X23177841Y63093998D01*
X23213055Y63101561D01*
X23237073Y63107269D01*
X23245707Y63109872D01*
X23255774Y63120417D01*
X23269778Y63143320D01*
X23286142Y63174962D01*
X23303289Y63211728D01*
X23319645Y63250001D01*
X23333632Y63286165D01*
X23343674Y63316604D01*
X23348195Y63337701D01*
X23347760Y63344007D01*
X23341308Y63355499D01*
X23326931Y63378250D01*
X23306360Y63409607D01*
X23281328Y63446920D01*
X23262024Y63475242D01*
X23235321Y63514805D01*
X23212378Y63550012D01*
X23194795Y63578309D01*
X23184173Y63597140D01*
X23181734Y63603416D01*
X23187592Y63613474D01*
X23203580Y63632597D01*
X23227321Y63658437D01*
X23256435Y63688645D01*
X23288545Y63720873D01*
X23321271Y63752771D01*
X23352235Y63781993D01*
X23379059Y63806190D01*
X23399364Y63823012D01*
X23410771Y63830113D01*
X23411426Y63830200D01*
X23427683Y63825288D01*
X23445175Y63814668D01*
X23459177Y63804530D01*
X23484180Y63787037D01*
X23517141Y63764296D01*
X23555020Y63738411D01*
X23572865Y63726294D01*
X23680362Y63653452D01*
X23784531Y63696119D01*
X23823974Y63712707D01*
X23858012Y63727832D01*
X23883400Y63739994D01*
X23896896Y63747692D01*
X23897832Y63748510D01*
X23903313Y63760787D01*
X23910265Y63785424D01*
X23917530Y63818053D01*
X23920638Y63834433D01*
X23928980Y63880914D01*
X23938456Y63933713D01*
X23947209Y63982483D01*
X23948369Y63988950D01*
X23962426Y64067267D01*
X24296313Y64067267D01*
X24324582Y63912750D01*
D14*
G04 #@! TO.C,C1*
X3008400Y40729100D02*
X4408400Y40729100D01*
X3008400Y43929100D02*
X4408400Y43929100D01*
X3008400Y40729100D02*
X3008400Y43929100D01*
X4408400Y43929100D02*
X4408400Y40729100D01*
G04 #@! TO.C,C2*
X4761900Y40729100D02*
X6161900Y40729100D01*
X4761900Y43929100D02*
X6161900Y43929100D01*
X4761900Y40729100D02*
X4761900Y43929100D01*
X6161900Y43929100D02*
X6161900Y40729100D01*
G04 #@! TO.C,C3*
X10832000Y46036000D02*
X10832000Y47436000D01*
X7632000Y46036000D02*
X7632000Y47436000D01*
X10832000Y46036000D02*
X7632000Y46036000D01*
X7632000Y47436000D02*
X10832000Y47436000D01*
G04 #@! TO.C,C4*
X11012000Y47436000D02*
X11012000Y46036000D01*
X14212000Y47436000D02*
X14212000Y46036000D01*
X11012000Y47436000D02*
X14212000Y47436000D01*
X14212000Y46036000D02*
X11012000Y46036000D01*
G04 #@! TO.C,C5*
X16025900Y40513200D02*
X17425900Y40513200D01*
X16025900Y43713200D02*
X17425900Y43713200D01*
X16025900Y40513200D02*
X16025900Y43713200D01*
X17425900Y43713200D02*
X17425900Y40513200D01*
G04 #@! TO.C,C6*
X17676900Y40513200D02*
X19076900Y40513200D01*
X17676900Y43713200D02*
X19076900Y43713200D01*
X17676900Y40513200D02*
X17676900Y43713200D01*
X19076900Y43713200D02*
X19076900Y40513200D01*
G04 #@! TO.C,C7*
X1230400Y40729100D02*
X2630400Y40729100D01*
X1230400Y43929100D02*
X2630400Y43929100D01*
X1230400Y40729100D02*
X1230400Y43929100D01*
X2630400Y43929100D02*
X2630400Y40729100D01*
G04 #@! TO.C,C8*
X6680000Y30732500D02*
X6680000Y32132500D01*
X3480000Y30732500D02*
X3480000Y32132500D01*
X6680000Y30732500D02*
X3480000Y30732500D01*
X3480000Y32132500D02*
X6680000Y32132500D01*
G04 #@! TO.C,C9*
X16942000Y33974000D02*
X16942000Y32574000D01*
X20142000Y33974000D02*
X20142000Y32574000D01*
X16942000Y33974000D02*
X20142000Y33974000D01*
X20142000Y32574000D02*
X16942000Y32574000D01*
G04 #@! TO.C,C12*
X18212000Y20893000D02*
X18212000Y19493000D01*
X21412000Y20893000D02*
X21412000Y19493000D01*
X18212000Y20893000D02*
X21412000Y20893000D01*
X21412000Y19493000D02*
X18212000Y19493000D01*
G04 #@! TO.C,C13*
X28830500Y22237500D02*
X27430500Y22237500D01*
X28830500Y19037500D02*
X27430500Y19037500D01*
X28830500Y22237500D02*
X28830500Y19037500D01*
X27430500Y19037500D02*
X27430500Y22237500D01*
G04 #@! TO.C,C14*
X19242000Y5791000D02*
X17842000Y5791000D01*
X19242000Y2591000D02*
X17842000Y2591000D01*
X19242000Y5791000D02*
X19242000Y2591000D01*
X17842000Y2591000D02*
X17842000Y5791000D01*
G04 #@! TO.C,C17*
X15940000Y5830000D02*
X14540000Y5830000D01*
X15940000Y2630000D02*
X14540000Y2630000D01*
X15940000Y5830000D02*
X15940000Y2630000D01*
X14540000Y2630000D02*
X14540000Y5830000D01*
G04 #@! TO.C,C18*
X17527500Y5830000D02*
X16127500Y5830000D01*
X17527500Y2630000D02*
X16127500Y2630000D01*
X17527500Y5830000D02*
X17527500Y2630000D01*
X16127500Y2630000D02*
X16127500Y5830000D01*
G04 #@! TO.C,C19*
X28841500Y35622000D02*
X28841500Y37022000D01*
X25641500Y35622000D02*
X25641500Y37022000D01*
X28841500Y35622000D02*
X25641500Y35622000D01*
X25641500Y37022000D02*
X28841500Y37022000D01*
G04 #@! TO.C,C20*
X22353500Y11887000D02*
X20953500Y11887000D01*
X22353500Y8687000D02*
X20953500Y8687000D01*
X22353500Y11887000D02*
X22353500Y8687000D01*
X20953500Y8687000D02*
X20953500Y11887000D01*
G04 #@! TO.C,F1*
X23281000Y22460000D02*
X23281000Y23260000D01*
X21931000Y22460000D02*
X21931000Y23260000D01*
G04 #@! TO.C,L1*
X-547600Y40729100D02*
X852400Y40729100D01*
X-547600Y43929100D02*
X852400Y43929100D01*
X-547600Y40729100D02*
X-547600Y43929100D01*
X852400Y43929100D02*
X852400Y40729100D01*
G04 #@! TO.C,L2*
X18212000Y22544000D02*
X18212000Y21144000D01*
X21412000Y22544000D02*
X21412000Y21144000D01*
X18212000Y22544000D02*
X21412000Y22544000D01*
X21412000Y21144000D02*
X18212000Y21144000D01*
G04 #@! TO.C,R2*
X25654200Y38622200D02*
X25654200Y37222200D01*
X28854200Y38622200D02*
X28854200Y37222200D01*
X25654200Y38622200D02*
X28854200Y38622200D01*
X28854200Y37222200D02*
X25654200Y37222200D01*
G04 #@! TO.C,R3*
X25654200Y40324000D02*
X25654200Y38924000D01*
X28854200Y40324000D02*
X28854200Y38924000D01*
X25654200Y40324000D02*
X28854200Y40324000D01*
X28854200Y38924000D02*
X25654200Y38924000D01*
G04 #@! TO.C,R8*
X16624500Y19305500D02*
X16624500Y17905500D01*
X19824500Y19305500D02*
X19824500Y17905500D01*
X16624500Y19305500D02*
X19824500Y19305500D01*
X19824500Y17905500D02*
X16624500Y17905500D01*
G04 #@! TO.C,R9*
X13397000Y12179500D02*
X14797000Y12179500D01*
X13397000Y15379500D02*
X14797000Y15379500D01*
X13397000Y12179500D02*
X13397000Y15379500D01*
X14797000Y15379500D02*
X14797000Y12179500D01*
G04 #@! TO.C,R10*
X16561500Y17016500D02*
X16561500Y18416500D01*
X13361500Y17016500D02*
X13361500Y18416500D01*
X16561500Y17016500D02*
X13361500Y17016500D01*
X13361500Y18416500D02*
X16561500Y18416500D01*
G04 #@! TO.C,R11*
X22417000Y5791000D02*
X21017000Y5791000D01*
X22417000Y2591000D02*
X21017000Y2591000D01*
X22417000Y5791000D02*
X22417000Y2591000D01*
X21017000Y2591000D02*
X21017000Y5791000D01*
G04 #@! TO.C,R12*
X14352500Y5791000D02*
X12952500Y5791000D01*
X14352500Y2591000D02*
X12952500Y2591000D01*
X14352500Y5791000D02*
X14352500Y2591000D01*
X12952500Y2591000D02*
X12952500Y5791000D01*
G04 #@! TO.C,R13*
X3886000Y46036000D02*
X3886000Y47436000D01*
X686000Y46036000D02*
X686000Y47436000D01*
X3886000Y46036000D02*
X686000Y46036000D01*
X686000Y47436000D02*
X3886000Y47436000D01*
G04 #@! TO.C,R14*
X4242000Y47436000D02*
X4242000Y46036000D01*
X7442000Y47436000D02*
X7442000Y46036000D01*
X4242000Y47436000D02*
X7442000Y47436000D01*
X7442000Y46036000D02*
X4242000Y46036000D01*
G04 #@! TO.C,R15*
X10846000Y7812000D02*
X10846000Y6412000D01*
X14046000Y7812000D02*
X14046000Y6412000D01*
X10846000Y7812000D02*
X14046000Y7812000D01*
X14046000Y6412000D02*
X10846000Y6412000D01*
D13*
G04 #@! TO.C,U1*
X10172938Y40956256D02*
G75*
G03X10172938Y40956256I-70711J0D01*
G01*
D14*
X10915400Y30667853D02*
X15865147Y35617600D01*
X5965653Y35617600D02*
X10915400Y40567347D01*
X10915400Y40567347D02*
X15865147Y35617600D01*
X5965653Y35617600D02*
X10915400Y30667853D01*
G04 #@! TO.C,Y1*
X10442001Y43954000D02*
X11442001Y43954000D01*
X10442001Y45454000D02*
X11442001Y45454000D01*
G04 #@! TO.C,Q1*
X17194400Y62344200D02*
X17194400Y60944200D01*
X18094400Y60944200D02*
X17194400Y60944200D01*
X20194400Y60944200D02*
X19194400Y60944200D01*
X20194400Y62344200D02*
X20194400Y60944200D01*
X19094400Y62344200D02*
X18294400Y62344200D01*
G04 #@! TO.C,R1*
X13487600Y61050400D02*
X13487600Y59650400D01*
X16687600Y61050400D02*
X16687600Y59650400D01*
X13487600Y61050400D02*
X16687600Y61050400D01*
X16687600Y59650400D02*
X13487600Y59650400D01*
G04 #@! TO.C,U7*
X11974200Y59222000D02*
X11974200Y59422000D01*
X10424200Y59222000D02*
X11974200Y59222000D01*
X11974200Y61422000D02*
X11974200Y60722000D01*
X6974200Y59222000D02*
X10474200Y59222000D01*
X11974200Y61422000D02*
X11974200Y64022000D01*
X6694621Y64135000D02*
G75*
G03X6694621Y64135000I-141421J0D01*
G01*
X6974200Y60722000D02*
X6974200Y62722000D01*
X6974200Y64022000D02*
X6974200Y64222000D01*
X6974200Y64222000D02*
X11974200Y64222000D01*
X11974200Y64222000D02*
X11974200Y64022000D01*
X6974200Y59222000D02*
X6974200Y59372000D01*
D15*
G04 #@! TO.C,J1*
X-1022000Y23472000D02*
X-2822000Y23472000D01*
X-2822000Y23472000D02*
X-2822000Y21622000D01*
X-2822000Y21622000D02*
X-3562000Y21622000D01*
X-1022000Y16152000D02*
X-2822000Y16152000D01*
X-2822000Y16152000D02*
X-2822000Y18002000D01*
X2298000Y23472000D02*
X2848000Y23472000D01*
X2848000Y23472000D02*
X2848000Y16152000D01*
X2848000Y16152000D02*
X2298000Y16152000D01*
G04 #@! TO.C,J8*
X2848000Y26312000D02*
X2298000Y26312000D01*
X2848000Y33632000D02*
X2848000Y26312000D01*
X2298000Y33632000D02*
X2848000Y33632000D01*
X-2822000Y26312000D02*
X-2822000Y28162000D01*
X-1022000Y26312000D02*
X-2822000Y26312000D01*
X-2822000Y31782000D02*
X-3562000Y31782000D01*
X-2822000Y33632000D02*
X-2822000Y31782000D01*
X-1022000Y33632000D02*
X-2822000Y33632000D01*
D14*
G04 #@! TO.C,R4*
X27243000Y22301000D02*
X25843000Y22301000D01*
X27243000Y19101000D02*
X25843000Y19101000D01*
X27243000Y22301000D02*
X27243000Y19101000D01*
X25843000Y19101000D02*
X25843000Y22301000D01*
D13*
G04 #@! TO.C,U4*
X22716711Y3904000D02*
G75*
G03X22716711Y3904000I-70711J0D01*
G01*
D14*
X22696000Y5104000D02*
X27596000Y5104000D01*
X27596000Y5104000D02*
X27596000Y8104000D01*
X27596000Y8104000D02*
X22696000Y8104000D01*
X22696000Y8104000D02*
X22696000Y5104000D01*
G04 #@! TO.C,R5*
X18212000Y38165000D02*
X21412000Y38165000D01*
X21412000Y36765000D02*
X18212000Y36765000D01*
X18212000Y36765000D02*
X18212000Y38165000D01*
X21412000Y36765000D02*
X21412000Y38165000D01*
G04 #@! TO.C,R6*
X18212000Y36577500D02*
X18212000Y35177500D01*
X21412000Y36577500D02*
X21412000Y35177500D01*
X18212000Y36577500D02*
X21412000Y36577500D01*
X21412000Y35177500D02*
X18212000Y35177500D01*
G04 #@! TO.C,C10*
X21475500Y22731500D02*
X18275500Y22731500D01*
X18275500Y24131500D02*
X21475500Y24131500D01*
X21475500Y24131500D02*
X21475500Y22731500D01*
X18275500Y24131500D02*
X18275500Y22731500D01*
G04 #@! TO.C,C11*
X12384000Y26174500D02*
X10984000Y26174500D01*
X12384000Y22974500D02*
X10984000Y22974500D01*
X12384000Y26174500D02*
X12384000Y22974500D01*
X10984000Y22974500D02*
X10984000Y26174500D01*
G04 #@! TO.C,C15*
X20815500Y17146500D02*
X20815500Y15746500D01*
X24015500Y17146500D02*
X24015500Y15746500D01*
X20815500Y17146500D02*
X24015500Y17146500D01*
X24015500Y15746500D02*
X20815500Y15746500D01*
G04 #@! TO.C,C16*
X19429500Y2591000D02*
X19429500Y5791000D01*
X20829500Y5791000D02*
X20829500Y2591000D01*
X20829500Y2591000D02*
X19429500Y2591000D01*
X20829500Y5791000D02*
X19429500Y5791000D01*
G04 #@! TO.C,D1*
X13513000Y62676000D02*
X16713000Y62676000D01*
X16713000Y62676000D02*
X16713000Y61276000D01*
X16713000Y61276000D02*
X13513000Y61276000D01*
X13513000Y61276000D02*
X13513000Y62676000D01*
X13513000Y62676000D02*
X13313000Y62676000D01*
X13313000Y62676000D02*
X13313000Y61276000D01*
X13313000Y61276000D02*
X13513000Y61276000D01*
G04 #@! TO.C,D2*
X22398711Y27940000D02*
G75*
G03X22398711Y27940000I-70711J0D01*
G01*
X20878000Y27590000D02*
X20428000Y27590000D01*
X21278000Y26290000D02*
X20378000Y26290000D01*
X19378000Y26290000D02*
X19378000Y27590000D01*
X22278000Y26290000D02*
X22278000Y27590000D01*
G04 #@! TO.C,D3*
X24196000Y33463000D02*
X24396000Y33463000D01*
X24196000Y34863000D02*
X24196000Y33463000D01*
X24396000Y34863000D02*
X24196000Y34863000D01*
X24396000Y33463000D02*
X24396000Y34863000D01*
X27596000Y33463000D02*
X24396000Y33463000D01*
X27596000Y34863000D02*
X27596000Y33463000D01*
X24396000Y34863000D02*
X27596000Y34863000D01*
G04 #@! TO.C,J4*
X23774000Y23178000D02*
X27774000Y23178000D01*
X27774000Y23178000D02*
X27774000Y31178000D01*
X27774000Y31178000D02*
X23774000Y31178000D01*
X23774000Y31178000D02*
X23774000Y23178000D01*
D15*
G04 #@! TO.C,J6*
X6013800Y4132600D02*
X4213800Y4132600D01*
X4213800Y4132600D02*
X4213800Y2282600D01*
X4213800Y2282600D02*
X3473800Y2282600D01*
X6013800Y-4437400D02*
X4213800Y-4437400D01*
X4213800Y-4437400D02*
X4213800Y-2587400D01*
X9333800Y4132600D02*
X9883800Y4132600D01*
X9883800Y4132600D02*
X9883800Y-4437400D01*
X9883800Y-4437400D02*
X9333800Y-4437400D01*
D14*
G04 #@! TO.C,J11*
X1848400Y3398400D02*
X1848400Y-3601600D01*
X1848400Y-3601600D02*
X-1101600Y-3601600D01*
X-1101600Y-3601600D02*
X-1101600Y3398400D01*
X-1101600Y3398400D02*
X1848400Y3398400D01*
D15*
G04 #@! TO.C,J12*
X2314600Y5316200D02*
X1764600Y5316200D01*
X2314600Y13886200D02*
X2314600Y5316200D01*
X1764600Y13886200D02*
X2314600Y13886200D01*
X-3355400Y5316200D02*
X-3355400Y7166200D01*
X-1555400Y5316200D02*
X-3355400Y5316200D01*
X-3355400Y12036200D02*
X-4095400Y12036200D01*
X-3355400Y13886200D02*
X-3355400Y12036200D01*
X-1555400Y13886200D02*
X-3355400Y13886200D01*
G04 #@! TO.C,J13*
X6039200Y13886200D02*
X4239200Y13886200D01*
X4239200Y13886200D02*
X4239200Y12036200D01*
X4239200Y12036200D02*
X3499200Y12036200D01*
X6039200Y5316200D02*
X4239200Y5316200D01*
X4239200Y5316200D02*
X4239200Y7166200D01*
X9359200Y13886200D02*
X9909200Y13886200D01*
X9909200Y13886200D02*
X9909200Y5316200D01*
X9909200Y5316200D02*
X9359200Y5316200D01*
D14*
G04 #@! TO.C,R7*
X21972500Y15316000D02*
X21972500Y12116000D01*
X20572500Y12116000D02*
X20572500Y15316000D01*
X20572500Y15316000D02*
X21972500Y15316000D01*
X20572500Y12116000D02*
X21972500Y12116000D01*
G04 #@! TO.C,R16*
X10846000Y9336000D02*
X10846000Y7936000D01*
X14046000Y9336000D02*
X14046000Y7936000D01*
X10846000Y9336000D02*
X14046000Y9336000D01*
X14046000Y7936000D02*
X10846000Y7936000D01*
G04 #@! TO.C,R17*
X24435000Y33275500D02*
X24435000Y31875500D01*
X27635000Y33275500D02*
X27635000Y31875500D01*
X24435000Y33275500D02*
X27635000Y33275500D01*
X27635000Y31875500D02*
X24435000Y31875500D01*
G04 #@! TO.C,U2*
X17740000Y21130000D02*
X17740000Y27130000D01*
X17740000Y21130000D02*
X12740000Y21130000D01*
X12740000Y21130000D02*
X12740000Y27130000D01*
X12740000Y27130000D02*
X17740000Y27130000D01*
D16*
G04 #@! TO.C,G\002A\002A\002A*
G36*
X26936700Y54461228D02*
X26508228Y54461228D01*
X26510192Y54608185D01*
X26512157Y54755143D01*
X26724428Y54757067D01*
X26936700Y54758990D01*
X26936700Y54461228D01*
X26936700Y54461228D01*
G37*
X26936700Y54461228D02*
X26508228Y54461228D01*
X26510192Y54608185D01*
X26512157Y54755143D01*
X26724428Y54757067D01*
X26936700Y54758990D01*
X26936700Y54461228D01*
G36*
X21842185Y54461228D02*
X21413713Y54461228D01*
X21415678Y54608185D01*
X21417643Y54755143D01*
X21629914Y54757067D01*
X21842185Y54758990D01*
X21842185Y54461228D01*
X21842185Y54461228D01*
G37*
X21842185Y54461228D02*
X21413713Y54461228D01*
X21415678Y54608185D01*
X21417643Y54755143D01*
X21629914Y54757067D01*
X21842185Y54758990D01*
X21842185Y54461228D01*
G36*
X24458693Y53889255D02*
X24494666Y53871363D01*
X24514774Y53852288D01*
X24536869Y53816027D01*
X24546430Y53776927D01*
X24544009Y53737746D01*
X24530156Y53701239D01*
X24505420Y53670161D01*
X24474186Y53649051D01*
X24435025Y53636055D01*
X24397424Y53636781D01*
X24361635Y53649486D01*
X24327617Y53673651D01*
X24304116Y53705614D01*
X24291669Y53742636D01*
X24290812Y53781977D01*
X24302081Y53820898D01*
X24321988Y53852073D01*
X24352080Y53878906D01*
X24387252Y53892666D01*
X24414715Y53895171D01*
X24458693Y53889255D01*
X24458693Y53889255D01*
G37*
X24458693Y53889255D02*
X24494666Y53871363D01*
X24514774Y53852288D01*
X24536869Y53816027D01*
X24546430Y53776927D01*
X24544009Y53737746D01*
X24530156Y53701239D01*
X24505420Y53670161D01*
X24474186Y53649051D01*
X24435025Y53636055D01*
X24397424Y53636781D01*
X24361635Y53649486D01*
X24327617Y53673651D01*
X24304116Y53705614D01*
X24291669Y53742636D01*
X24290812Y53781977D01*
X24302081Y53820898D01*
X24321988Y53852073D01*
X24352080Y53878906D01*
X24387252Y53892666D01*
X24414715Y53895171D01*
X24458693Y53889255D01*
G36*
X26922185Y53213000D02*
X26508528Y53213000D01*
X26508528Y54352371D01*
X26922185Y54352371D01*
X26922185Y53213000D01*
X26922185Y53213000D01*
G37*
X26922185Y53213000D02*
X26508528Y53213000D01*
X26508528Y54352371D01*
X26922185Y54352371D01*
X26922185Y53213000D01*
G36*
X25653937Y54370120D02*
X25655814Y53981469D01*
X25974596Y54352371D01*
X26201648Y54352371D01*
X26257391Y54352252D01*
X26308171Y54351913D01*
X26352252Y54351386D01*
X26387896Y54350698D01*
X26413368Y54349881D01*
X26426928Y54348965D01*
X26428700Y54348479D01*
X26424123Y54342554D01*
X26411218Y54327133D01*
X26391216Y54303638D01*
X26365354Y54273490D01*
X26334864Y54238110D01*
X26300982Y54198920D01*
X26264941Y54157343D01*
X26227975Y54114799D01*
X26191319Y54072710D01*
X26156207Y54032498D01*
X26123873Y53995585D01*
X26095551Y53963391D01*
X26072475Y53937339D01*
X26055880Y53918850D01*
X26052660Y53915328D01*
X26034482Y53895571D01*
X26229200Y53570614D01*
X26266933Y53507665D01*
X26302655Y53448114D01*
X26335623Y53393194D01*
X26365098Y53344137D01*
X26390338Y53302175D01*
X26410602Y53268541D01*
X26425150Y53244468D01*
X26433239Y53231188D01*
X26434401Y53229328D01*
X26444883Y53213000D01*
X25995662Y53213000D01*
X25877962Y53405110D01*
X25760262Y53597221D01*
X25706329Y53537553D01*
X25652397Y53477885D01*
X25652291Y53345443D01*
X25652185Y53213000D01*
X25245785Y53213000D01*
X25245785Y54758771D01*
X25652059Y54758771D01*
X25653937Y54370120D01*
X25653937Y54370120D01*
G37*
X25653937Y54370120D02*
X25655814Y53981469D01*
X25974596Y54352371D01*
X26201648Y54352371D01*
X26257391Y54352252D01*
X26308171Y54351913D01*
X26352252Y54351386D01*
X26387896Y54350698D01*
X26413368Y54349881D01*
X26426928Y54348965D01*
X26428700Y54348479D01*
X26424123Y54342554D01*
X26411218Y54327133D01*
X26391216Y54303638D01*
X26365354Y54273490D01*
X26334864Y54238110D01*
X26300982Y54198920D01*
X26264941Y54157343D01*
X26227975Y54114799D01*
X26191319Y54072710D01*
X26156207Y54032498D01*
X26123873Y53995585D01*
X26095551Y53963391D01*
X26072475Y53937339D01*
X26055880Y53918850D01*
X26052660Y53915328D01*
X26034482Y53895571D01*
X26229200Y53570614D01*
X26266933Y53507665D01*
X26302655Y53448114D01*
X26335623Y53393194D01*
X26365098Y53344137D01*
X26390338Y53302175D01*
X26410602Y53268541D01*
X26425150Y53244468D01*
X26433239Y53231188D01*
X26434401Y53229328D01*
X26444883Y53213000D01*
X25995662Y53213000D01*
X25877962Y53405110D01*
X25760262Y53597221D01*
X25706329Y53537553D01*
X25652397Y53477885D01*
X25652291Y53345443D01*
X25652185Y53213000D01*
X25245785Y53213000D01*
X25245785Y54758771D01*
X25652059Y54758771D01*
X25653937Y54370120D01*
G36*
X23683718Y53984071D02*
X23685566Y53213000D01*
X23271777Y53213000D01*
X23273624Y53984071D01*
X23275471Y54755143D01*
X23681871Y54755143D01*
X23683718Y53984071D01*
X23683718Y53984071D01*
G37*
X23683718Y53984071D02*
X23685566Y53213000D01*
X23271777Y53213000D01*
X23273624Y53984071D01*
X23275471Y54755143D01*
X23681871Y54755143D01*
X23683718Y53984071D01*
G36*
X21842185Y53213000D02*
X21435785Y53213000D01*
X21435785Y54352371D01*
X21842185Y54352371D01*
X21842185Y53213000D01*
X21842185Y53213000D01*
G37*
X21842185Y53213000D02*
X21435785Y53213000D01*
X21435785Y54352371D01*
X21842185Y54352371D01*
X21842185Y53213000D01*
G36*
X21076087Y54771174D02*
X21127882Y54767986D01*
X21176069Y54763070D01*
X21217653Y54756588D01*
X21249636Y54748705D01*
X21263428Y54743134D01*
X21267900Y54739545D01*
X21271190Y54732805D01*
X21273475Y54720914D01*
X21274933Y54701872D01*
X21275742Y54673681D01*
X21276078Y54634341D01*
X21276128Y54600068D01*
X21275938Y54557058D01*
X21275409Y54519216D01*
X21274604Y54488866D01*
X21273583Y54468330D01*
X21272411Y54459934D01*
X21272383Y54459903D01*
X21263858Y54459487D01*
X21245946Y54462422D01*
X21230888Y54465950D01*
X21195529Y54472420D01*
X21156143Y54475363D01*
X21117375Y54474824D01*
X21083867Y54470849D01*
X21061889Y54464298D01*
X21039668Y54446190D01*
X21023709Y54417596D01*
X21015580Y54381765D01*
X21014871Y54366906D01*
X21014871Y54338192D01*
X21143685Y54336210D01*
X21272500Y54334228D01*
X21274464Y54187271D01*
X21276429Y54040314D01*
X21014871Y54040314D01*
X21014871Y53213000D01*
X20608471Y53213000D01*
X20608471Y54040314D01*
X20477843Y54040314D01*
X20477843Y54352371D01*
X20606339Y54352371D01*
X20610575Y54419500D01*
X20621396Y54498090D01*
X20643221Y54567467D01*
X20675825Y54627359D01*
X20718987Y54677494D01*
X20772483Y54717600D01*
X20836091Y54747407D01*
X20892746Y54763366D01*
X20929013Y54768729D01*
X20973657Y54771709D01*
X21023680Y54772469D01*
X21076087Y54771174D01*
X21076087Y54771174D01*
G37*
X21076087Y54771174D02*
X21127882Y54767986D01*
X21176069Y54763070D01*
X21217653Y54756588D01*
X21249636Y54748705D01*
X21263428Y54743134D01*
X21267900Y54739545D01*
X21271190Y54732805D01*
X21273475Y54720914D01*
X21274933Y54701872D01*
X21275742Y54673681D01*
X21276078Y54634341D01*
X21276128Y54600068D01*
X21275938Y54557058D01*
X21275409Y54519216D01*
X21274604Y54488866D01*
X21273583Y54468330D01*
X21272411Y54459934D01*
X21272383Y54459903D01*
X21263858Y54459487D01*
X21245946Y54462422D01*
X21230888Y54465950D01*
X21195529Y54472420D01*
X21156143Y54475363D01*
X21117375Y54474824D01*
X21083867Y54470849D01*
X21061889Y54464298D01*
X21039668Y54446190D01*
X21023709Y54417596D01*
X21015580Y54381765D01*
X21014871Y54366906D01*
X21014871Y54338192D01*
X21143685Y54336210D01*
X21272500Y54334228D01*
X21274464Y54187271D01*
X21276429Y54040314D01*
X21014871Y54040314D01*
X21014871Y53213000D01*
X20608471Y53213000D01*
X20608471Y54040314D01*
X20477843Y54040314D01*
X20477843Y54352371D01*
X20606339Y54352371D01*
X20610575Y54419500D01*
X20621396Y54498090D01*
X20643221Y54567467D01*
X20675825Y54627359D01*
X20718987Y54677494D01*
X20772483Y54717600D01*
X20836091Y54747407D01*
X20892746Y54763366D01*
X20929013Y54768729D01*
X20973657Y54771709D01*
X21023680Y54772469D01*
X21076087Y54771174D01*
G36*
X27638978Y54499328D02*
X27640943Y54352371D01*
X27916686Y54352371D01*
X27914736Y54187271D01*
X27912785Y54022171D01*
X27776714Y54020197D01*
X27640643Y54018222D01*
X27640643Y53807565D01*
X27640748Y53741762D01*
X27641236Y53688882D01*
X27642370Y53647333D01*
X27644409Y53615524D01*
X27647614Y53591864D01*
X27652247Y53574762D01*
X27658567Y53562627D01*
X27666835Y53553866D01*
X27677313Y53546890D01*
X27683948Y53543323D01*
X27707810Y53536159D01*
X27741084Y53532894D01*
X27779209Y53533514D01*
X27817620Y53538000D01*
X27843843Y53543885D01*
X27869060Y53550951D01*
X27890804Y53556810D01*
X27900085Y53559160D01*
X27916414Y53563035D01*
X27916414Y53248487D01*
X27877244Y53231164D01*
X27838124Y53215235D01*
X27801154Y53203649D01*
X27762498Y53195677D01*
X27718321Y53190596D01*
X27664788Y53187678D01*
X27644271Y53187062D01*
X27586325Y53186426D01*
X27540778Y53187900D01*
X27505658Y53191577D01*
X27490961Y53194369D01*
X27422826Y53216024D01*
X27365012Y53247835D01*
X27317245Y53290060D01*
X27279253Y53342960D01*
X27250764Y53406791D01*
X27243836Y53428778D01*
X27240592Y53442132D01*
X27237896Y53458611D01*
X27235678Y53479740D01*
X27233864Y53507045D01*
X27232381Y53542049D01*
X27231157Y53586280D01*
X27230119Y53641261D01*
X27229193Y53708519D01*
X27228779Y53744585D01*
X27225779Y54018543D01*
X27103614Y54018543D01*
X27103614Y54352371D01*
X27226685Y54352371D01*
X27228649Y54499328D01*
X27230614Y54646285D01*
X27637014Y54646285D01*
X27638978Y54499328D01*
X27638978Y54499328D01*
G37*
X27638978Y54499328D02*
X27640943Y54352371D01*
X27916686Y54352371D01*
X27914736Y54187271D01*
X27912785Y54022171D01*
X27776714Y54020197D01*
X27640643Y54018222D01*
X27640643Y53807565D01*
X27640748Y53741762D01*
X27641236Y53688882D01*
X27642370Y53647333D01*
X27644409Y53615524D01*
X27647614Y53591864D01*
X27652247Y53574762D01*
X27658567Y53562627D01*
X27666835Y53553866D01*
X27677313Y53546890D01*
X27683948Y53543323D01*
X27707810Y53536159D01*
X27741084Y53532894D01*
X27779209Y53533514D01*
X27817620Y53538000D01*
X27843843Y53543885D01*
X27869060Y53550951D01*
X27890804Y53556810D01*
X27900085Y53559160D01*
X27916414Y53563035D01*
X27916414Y53248487D01*
X27877244Y53231164D01*
X27838124Y53215235D01*
X27801154Y53203649D01*
X27762498Y53195677D01*
X27718321Y53190596D01*
X27664788Y53187678D01*
X27644271Y53187062D01*
X27586325Y53186426D01*
X27540778Y53187900D01*
X27505658Y53191577D01*
X27490961Y53194369D01*
X27422826Y53216024D01*
X27365012Y53247835D01*
X27317245Y53290060D01*
X27279253Y53342960D01*
X27250764Y53406791D01*
X27243836Y53428778D01*
X27240592Y53442132D01*
X27237896Y53458611D01*
X27235678Y53479740D01*
X27233864Y53507045D01*
X27232381Y53542049D01*
X27231157Y53586280D01*
X27230119Y53641261D01*
X27229193Y53708519D01*
X27228779Y53744585D01*
X27225779Y54018543D01*
X27103614Y54018543D01*
X27103614Y54352371D01*
X27226685Y54352371D01*
X27228649Y54499328D01*
X27230614Y54646285D01*
X27637014Y54646285D01*
X27638978Y54499328D01*
G36*
X25062580Y53982257D02*
X25064431Y53209371D01*
X24857565Y53211403D01*
X24650700Y53213435D01*
X24650700Y53352644D01*
X24599949Y53304768D01*
X24572538Y53280461D01*
X24543628Y53257321D01*
X24518190Y53239258D01*
X24511049Y53234871D01*
X24446535Y53205452D01*
X24375615Y53186913D01*
X24302167Y53179889D01*
X24230067Y53185015D01*
X24218900Y53187008D01*
X24136229Y53210070D01*
X24060971Y53245361D01*
X23993639Y53292342D01*
X23934743Y53350473D01*
X23884794Y53419216D01*
X23844304Y53498031D01*
X23813783Y53586380D01*
X23804542Y53623991D01*
X23795631Y53681987D01*
X23791686Y53748274D01*
X23792603Y53817579D01*
X23798278Y53884632D01*
X23808606Y53944160D01*
X23811062Y53954091D01*
X23820595Y53986686D01*
X23832449Y54021543D01*
X23845489Y54055940D01*
X23858579Y54087159D01*
X23870583Y54112479D01*
X23880367Y54129180D01*
X23886413Y54134594D01*
X23891525Y54128876D01*
X23903885Y54112733D01*
X23922441Y54087645D01*
X23946140Y54055095D01*
X23973930Y54016562D01*
X24004758Y53973528D01*
X24037571Y53927474D01*
X24071315Y53879879D01*
X24104939Y53832226D01*
X24137390Y53785996D01*
X24167614Y53742668D01*
X24194560Y53703723D01*
X24217173Y53670644D01*
X24232693Y53647503D01*
X24259689Y53606663D01*
X24648079Y53416449D01*
X24717952Y53382291D01*
X24783872Y53350183D01*
X24844702Y53320673D01*
X24899302Y53294307D01*
X24946533Y53271632D01*
X24985257Y53253195D01*
X25014336Y53239543D01*
X25032630Y53231222D01*
X25038992Y53228759D01*
X25035498Y53235052D01*
X25024545Y53252283D01*
X25006843Y53279390D01*
X24983096Y53315312D01*
X24954013Y53358986D01*
X24920301Y53409350D01*
X24882665Y53465342D01*
X24841814Y53525900D01*
X24804379Y53581220D01*
X24567243Y53931158D01*
X24272281Y54083707D01*
X24211809Y54114927D01*
X24155293Y54143998D01*
X24104036Y54170257D01*
X24059342Y54193042D01*
X24022514Y54211689D01*
X23994855Y54225536D01*
X23977670Y54233921D01*
X23972273Y54236257D01*
X23963062Y54230186D01*
X23947257Y54212620D01*
X23925697Y54184529D01*
X23917103Y54172608D01*
X23903658Y54155941D01*
X23892824Y54146444D01*
X23888659Y54145567D01*
X23882390Y54152653D01*
X23869527Y54169424D01*
X23851740Y54193631D01*
X23830700Y54223027D01*
X23822531Y54234617D01*
X23799303Y54267582D01*
X23777427Y54298406D01*
X23759042Y54324086D01*
X23746291Y54341621D01*
X23744232Y54344383D01*
X23738315Y54352662D01*
X23736221Y54357623D01*
X23739387Y54358747D01*
X23749253Y54355517D01*
X23767256Y54347415D01*
X23794834Y54333924D01*
X23833425Y54314525D01*
X23848912Y54306694D01*
X23972157Y54244335D01*
X23993928Y54264935D01*
X24030264Y54293894D01*
X24076287Y54322291D01*
X24127334Y54347386D01*
X24149957Y54356589D01*
X24173051Y54364955D01*
X24192983Y54370709D01*
X24213408Y54374339D01*
X24237984Y54376330D01*
X24270366Y54377170D01*
X24305985Y54377340D01*
X24349204Y54377060D01*
X24381498Y54375871D01*
X24406448Y54373375D01*
X24427634Y54369171D01*
X24448638Y54362860D01*
X24454757Y54360737D01*
X24506855Y54337723D01*
X24558510Y54306778D01*
X24603817Y54271615D01*
X24618096Y54257967D01*
X24647071Y54228287D01*
X24650700Y54491715D01*
X24654328Y54755143D01*
X25060728Y54755143D01*
X25062580Y53982257D01*
X25062580Y53982257D01*
G37*
X25062580Y53982257D02*
X25064431Y53209371D01*
X24857565Y53211403D01*
X24650700Y53213435D01*
X24650700Y53352644D01*
X24599949Y53304768D01*
X24572538Y53280461D01*
X24543628Y53257321D01*
X24518190Y53239258D01*
X24511049Y53234871D01*
X24446535Y53205452D01*
X24375615Y53186913D01*
X24302167Y53179889D01*
X24230067Y53185015D01*
X24218900Y53187008D01*
X24136229Y53210070D01*
X24060971Y53245361D01*
X23993639Y53292342D01*
X23934743Y53350473D01*
X23884794Y53419216D01*
X23844304Y53498031D01*
X23813783Y53586380D01*
X23804542Y53623991D01*
X23795631Y53681987D01*
X23791686Y53748274D01*
X23792603Y53817579D01*
X23798278Y53884632D01*
X23808606Y53944160D01*
X23811062Y53954091D01*
X23820595Y53986686D01*
X23832449Y54021543D01*
X23845489Y54055940D01*
X23858579Y54087159D01*
X23870583Y54112479D01*
X23880367Y54129180D01*
X23886413Y54134594D01*
X23891525Y54128876D01*
X23903885Y54112733D01*
X23922441Y54087645D01*
X23946140Y54055095D01*
X23973930Y54016562D01*
X24004758Y53973528D01*
X24037571Y53927474D01*
X24071315Y53879879D01*
X24104939Y53832226D01*
X24137390Y53785996D01*
X24167614Y53742668D01*
X24194560Y53703723D01*
X24217173Y53670644D01*
X24232693Y53647503D01*
X24259689Y53606663D01*
X24648079Y53416449D01*
X24717952Y53382291D01*
X24783872Y53350183D01*
X24844702Y53320673D01*
X24899302Y53294307D01*
X24946533Y53271632D01*
X24985257Y53253195D01*
X25014336Y53239543D01*
X25032630Y53231222D01*
X25038992Y53228759D01*
X25035498Y53235052D01*
X25024545Y53252283D01*
X25006843Y53279390D01*
X24983096Y53315312D01*
X24954013Y53358986D01*
X24920301Y53409350D01*
X24882665Y53465342D01*
X24841814Y53525900D01*
X24804379Y53581220D01*
X24567243Y53931158D01*
X24272281Y54083707D01*
X24211809Y54114927D01*
X24155293Y54143998D01*
X24104036Y54170257D01*
X24059342Y54193042D01*
X24022514Y54211689D01*
X23994855Y54225536D01*
X23977670Y54233921D01*
X23972273Y54236257D01*
X23963062Y54230186D01*
X23947257Y54212620D01*
X23925697Y54184529D01*
X23917103Y54172608D01*
X23903658Y54155941D01*
X23892824Y54146444D01*
X23888659Y54145567D01*
X23882390Y54152653D01*
X23869527Y54169424D01*
X23851740Y54193631D01*
X23830700Y54223027D01*
X23822531Y54234617D01*
X23799303Y54267582D01*
X23777427Y54298406D01*
X23759042Y54324086D01*
X23746291Y54341621D01*
X23744232Y54344383D01*
X23738315Y54352662D01*
X23736221Y54357623D01*
X23739387Y54358747D01*
X23749253Y54355517D01*
X23767256Y54347415D01*
X23794834Y54333924D01*
X23833425Y54314525D01*
X23848912Y54306694D01*
X23972157Y54244335D01*
X23993928Y54264935D01*
X24030264Y54293894D01*
X24076287Y54322291D01*
X24127334Y54347386D01*
X24149957Y54356589D01*
X24173051Y54364955D01*
X24192983Y54370709D01*
X24213408Y54374339D01*
X24237984Y54376330D01*
X24270366Y54377170D01*
X24305985Y54377340D01*
X24349204Y54377060D01*
X24381498Y54375871D01*
X24406448Y54373375D01*
X24427634Y54369171D01*
X24448638Y54362860D01*
X24454757Y54360737D01*
X24506855Y54337723D01*
X24558510Y54306778D01*
X24603817Y54271615D01*
X24618096Y54257967D01*
X24647071Y54228287D01*
X24650700Y54491715D01*
X24654328Y54755143D01*
X25060728Y54755143D01*
X25062580Y53982257D01*
G36*
X22625192Y54377711D02*
X22679625Y54373714D01*
X22727146Y54366939D01*
X22752546Y54361006D01*
X22836854Y54329602D01*
X22912614Y54286746D01*
X22979150Y54233055D01*
X23035790Y54169149D01*
X23081856Y54095647D01*
X23109547Y54033308D01*
X23129430Y53973687D01*
X23143858Y53914076D01*
X23153692Y53849939D01*
X23159792Y53776742D01*
X23160416Y53765131D01*
X23165221Y53670200D01*
X22392155Y53670200D01*
X22397067Y53650243D01*
X22413782Y53608637D01*
X22441533Y53568472D01*
X22477042Y53533575D01*
X22517026Y53507773D01*
X22520684Y53506049D01*
X22577852Y53487717D01*
X22638510Y53482492D01*
X22700710Y53490024D01*
X22762501Y53509964D01*
X22821934Y53541964D01*
X22854474Y53565845D01*
X22894356Y53598332D01*
X23003271Y53506962D01*
X23036785Y53478588D01*
X23066119Y53453256D01*
X23089579Y53432472D01*
X23105469Y53417741D01*
X23112093Y53410568D01*
X23112185Y53410272D01*
X23107055Y53402136D01*
X23093292Y53386909D01*
X23073337Y53366885D01*
X23049630Y53344354D01*
X23024612Y53321609D01*
X23000723Y53300943D01*
X22980405Y53284648D01*
X22972031Y53278642D01*
X22909379Y53243205D01*
X22836987Y53213727D01*
X22784944Y53198159D01*
X22741492Y53189662D01*
X22688750Y53183478D01*
X22631776Y53179852D01*
X22575629Y53179030D01*
X22525368Y53181257D01*
X22499239Y53184299D01*
X22406175Y53205565D01*
X22319628Y53238789D01*
X22240690Y53283298D01*
X22170450Y53338417D01*
X22109998Y53403472D01*
X22081747Y53442588D01*
X22040664Y53517582D01*
X22011552Y53598024D01*
X21994129Y53682185D01*
X21988117Y53768334D01*
X21993237Y53854741D01*
X21996745Y53873400D01*
X22384657Y53873400D01*
X22778357Y53873400D01*
X22778357Y53891270D01*
X22774120Y53917317D01*
X22762916Y53949375D01*
X22747000Y53982251D01*
X22728632Y54010752D01*
X22723851Y54016666D01*
X22690057Y54048031D01*
X22651531Y54067361D01*
X22605562Y54075827D01*
X22585566Y54076440D01*
X22536517Y54071863D01*
X22496285Y54057689D01*
X22461863Y54032741D01*
X22453993Y54024872D01*
X22434536Y53999194D01*
X22415257Y53965273D01*
X22399175Y53929101D01*
X22389311Y53896669D01*
X22389283Y53896531D01*
X22384657Y53873400D01*
X21996745Y53873400D01*
X22009207Y53939676D01*
X22035749Y54021407D01*
X22072583Y54098206D01*
X22119429Y54168340D01*
X22176007Y54230082D01*
X22214218Y54262157D01*
X22262300Y54294066D01*
X22318336Y54324164D01*
X22376097Y54349380D01*
X22422757Y54364918D01*
X22462627Y54372534D01*
X22512471Y54377171D01*
X22568067Y54378880D01*
X22625192Y54377711D01*
X22625192Y54377711D01*
G37*
X22625192Y54377711D02*
X22679625Y54373714D01*
X22727146Y54366939D01*
X22752546Y54361006D01*
X22836854Y54329602D01*
X22912614Y54286746D01*
X22979150Y54233055D01*
X23035790Y54169149D01*
X23081856Y54095647D01*
X23109547Y54033308D01*
X23129430Y53973687D01*
X23143858Y53914076D01*
X23153692Y53849939D01*
X23159792Y53776742D01*
X23160416Y53765131D01*
X23165221Y53670200D01*
X22392155Y53670200D01*
X22397067Y53650243D01*
X22413782Y53608637D01*
X22441533Y53568472D01*
X22477042Y53533575D01*
X22517026Y53507773D01*
X22520684Y53506049D01*
X22577852Y53487717D01*
X22638510Y53482492D01*
X22700710Y53490024D01*
X22762501Y53509964D01*
X22821934Y53541964D01*
X22854474Y53565845D01*
X22894356Y53598332D01*
X23003271Y53506962D01*
X23036785Y53478588D01*
X23066119Y53453256D01*
X23089579Y53432472D01*
X23105469Y53417741D01*
X23112093Y53410568D01*
X23112185Y53410272D01*
X23107055Y53402136D01*
X23093292Y53386909D01*
X23073337Y53366885D01*
X23049630Y53344354D01*
X23024612Y53321609D01*
X23000723Y53300943D01*
X22980405Y53284648D01*
X22972031Y53278642D01*
X22909379Y53243205D01*
X22836987Y53213727D01*
X22784944Y53198159D01*
X22741492Y53189662D01*
X22688750Y53183478D01*
X22631776Y53179852D01*
X22575629Y53179030D01*
X22525368Y53181257D01*
X22499239Y53184299D01*
X22406175Y53205565D01*
X22319628Y53238789D01*
X22240690Y53283298D01*
X22170450Y53338417D01*
X22109998Y53403472D01*
X22081747Y53442588D01*
X22040664Y53517582D01*
X22011552Y53598024D01*
X21994129Y53682185D01*
X21988117Y53768334D01*
X21993237Y53854741D01*
X21996745Y53873400D01*
X22384657Y53873400D01*
X22778357Y53873400D01*
X22778357Y53891270D01*
X22774120Y53917317D01*
X22762916Y53949375D01*
X22747000Y53982251D01*
X22728632Y54010752D01*
X22723851Y54016666D01*
X22690057Y54048031D01*
X22651531Y54067361D01*
X22605562Y54075827D01*
X22585566Y54076440D01*
X22536517Y54071863D01*
X22496285Y54057689D01*
X22461863Y54032741D01*
X22453993Y54024872D01*
X22434536Y53999194D01*
X22415257Y53965273D01*
X22399175Y53929101D01*
X22389311Y53896669D01*
X22389283Y53896531D01*
X22384657Y53873400D01*
X21996745Y53873400D01*
X22009207Y53939676D01*
X22035749Y54021407D01*
X22072583Y54098206D01*
X22119429Y54168340D01*
X22176007Y54230082D01*
X22214218Y54262157D01*
X22262300Y54294066D01*
X22318336Y54324164D01*
X22376097Y54349380D01*
X22422757Y54364918D01*
X22462627Y54372534D01*
X22512471Y54377171D01*
X22568067Y54378880D01*
X22625192Y54377711D01*
G04 #@! TD*
M02*
