G04 #@! TF.GenerationSoftware,KiCad,Pcbnew,(5.0.0)*
G04 #@! TF.CreationDate,2018-12-26T17:42:35-06:00*
G04 #@! TF.ProjectId,fk-sonar,666B2D736F6E61722E6B696361645F70,0.1*
G04 #@! TF.SameCoordinates,PX791ddc0PY791ddc0*
G04 #@! TF.FileFunction,Copper,L3,Inr,Plane*
G04 #@! TF.FilePolarity,Positive*
%FSLAX46Y46*%
G04 Gerber Fmt 4.6, Leading zero omitted, Abs format (unit mm)*
G04 Created by KiCad (PCBNEW (5.0.0)) date 12/26/18 17:42:35*
%MOMM*%
%LPD*%
G01*
G04 APERTURE LIST*
G04 #@! TA.AperFunction,ViaPad*
%ADD10O,1.600000X1.651000*%
G04 #@! TD*
G04 #@! TA.AperFunction,ViaPad*
%ADD11O,1.100000X1.800000*%
G04 #@! TD*
G04 #@! TA.AperFunction,ViaPad*
%ADD12O,1.100000X2.200000*%
G04 #@! TD*
G04 #@! TA.AperFunction,ViaPad*
%ADD13C,0.500000*%
G04 #@! TD*
G04 #@! TA.AperFunction,Conductor*
%ADD14C,0.203200*%
G04 #@! TD*
G04 APERTURE END LIST*
D10*
G04 #@! TO.N,*
G04 #@! TO.C,J3*
X28134500Y23878000D03*
X28134500Y30478000D03*
G04 #@! TD*
D11*
G04 #@! TO.N,Net-(C13-Pad1)*
G04 #@! TO.C,J4*
X24774000Y24378000D03*
G04 #@! TO.N,Net-(J4-Pad7)*
X24774000Y29978000D03*
D12*
G04 #@! TO.N,Net-(J4-Pad8)*
X26924000Y27178000D03*
G04 #@! TD*
D13*
G04 #@! TO.N,GND*
X9144000Y54483000D03*
X8128000Y54483000D03*
X7112000Y54483000D03*
X6096000Y54483000D03*
X2794000Y54483000D03*
X1778000Y54483000D03*
X762000Y54483000D03*
X-254000Y54483000D03*
X-1270000Y54483000D03*
X17780000Y62103000D03*
X10922000Y46736000D03*
X8128000Y63500000D03*
X-1524000Y21082000D03*
X-2540000Y32004000D03*
X14732000Y34798000D03*
X27178000Y1778000D03*
X19621500Y17145000D03*
X19621500Y14033500D03*
X20193000Y15557500D03*
X17653000Y3380000D03*
X16065500Y3380000D03*
X19304000Y3365500D03*
X21653500Y8572500D03*
X25336500Y36385500D03*
X27876500Y32575500D03*
X20193000Y33274000D03*
X2794000Y43179100D03*
X4508500Y43179100D03*
X4254500Y32321500D03*
X8318500Y33591500D03*
X5397500Y571500D03*
X-444500Y1397000D03*
X-2222500Y10223500D03*
X5461000Y10287000D03*
X12509500Y23685500D03*
X9080500Y38544500D03*
X13411776Y37658715D03*
X17653000Y42963200D03*
X14351000Y3341000D03*
X20955000Y3341000D03*
X21526500Y28511500D03*
X23685500Y25082500D03*
X17462500Y25908000D03*
X16764000Y26860500D03*
X20701000Y24320500D03*
X23812500Y46736000D03*
X23812500Y47942500D03*
X22225000Y51181000D03*
X24193500Y16446500D03*
X27368500Y19851000D03*
X13335000Y17716500D03*
X26606500Y45783500D03*
X26606500Y42418000D03*
G04 #@! TO.N,3V3*
X-1270000Y55753000D03*
X-254000Y55753000D03*
X762000Y55753000D03*
X1778000Y55753000D03*
X2794000Y55753000D03*
X6096000Y55753000D03*
X7112000Y55753000D03*
X8128000Y55753000D03*
X9144000Y55753000D03*
X16637000Y61976000D03*
X11938000Y59182000D03*
X-1524000Y18542000D03*
X18338800Y17314400D03*
X18288000Y13906500D03*
X22288500Y14541500D03*
X13208000Y14668500D03*
X25336500Y37909500D03*
X28003500Y34163000D03*
X13779500Y27178000D03*
X13716000Y24638000D03*
X12573000Y25424500D03*
X12001500Y13843000D03*
X28511500Y13779500D03*
X571500Y46736000D03*
X6667500Y47561500D03*
X190500Y43942000D03*
X6683200Y32135700D03*
X15049500Y40830500D03*
X18923000Y35052000D03*
X23812500Y45466000D03*
X17653000Y34036000D03*
X20447000Y16446500D03*
X21336000Y15621000D03*
G04 #@! TO.N,/RST*
X20383500Y50279300D03*
X28613100Y47980600D03*
G04 #@! TO.N,/RESET*
X16256000Y38929490D03*
X25273000Y39624000D03*
G04 #@! TO.N,/A1*
X6286500Y39052500D03*
X-3746500Y19812000D03*
G04 #@! TO.N,/A3*
X7747000Y37020500D03*
X8191500Y59944000D03*
G04 #@! TO.N,/MOSI*
X26924000Y11684000D03*
X8889986Y33020000D03*
G04 #@! TO.N,/SCK*
X25654000Y11684000D03*
X8225621Y29972000D03*
G04 #@! TO.N,/MISO*
X24384000Y5334000D03*
X7874000Y30988000D03*
G04 #@! TO.N,/USB-*
X23304500Y26733500D03*
G04 #@! TO.N,/USB+*
X24034921Y27202441D03*
G04 #@! TO.N,VUSB*
X26860500Y29019500D03*
G04 #@! TO.N,/D13*
X19621500Y61912500D03*
X11747500Y31686500D03*
G04 #@! TO.N,/SCL1*
X2489200Y8976200D03*
X2311402Y-1143000D03*
G04 #@! TO.N,/SDA1*
X2895600Y-2057400D03*
X-2743200Y-609600D03*
X5334000Y16510000D03*
G04 #@! TO.N,/SDA3*
X4889500Y33464500D03*
X3111500Y45783500D03*
G04 #@! TO.N,/SCL3*
X4953000Y45783500D03*
X5507574Y33255633D03*
G04 #@! TO.N,/D6_FLASH_CS*
X23368000Y5334000D03*
X14820657Y31339844D03*
G04 #@! TO.N,/PERIPH_3V3*
X19862800Y8026400D03*
X18338800Y8026400D03*
X18338800Y6502400D03*
X19862800Y6502400D03*
X19100800Y7264400D03*
X24384000Y11684000D03*
X23114000Y11684000D03*
X28511500Y10604500D03*
X25844500Y1460500D03*
G04 #@! TO.N,/D8_PERIPH_EN*
X17081500Y17018000D03*
X6921500Y36322000D03*
G04 #@! TO.N,/SENSOR_3V3*
X15290800Y8026400D03*
X16814800Y8026400D03*
X16814800Y6502400D03*
X15290800Y6502400D03*
X16052800Y7264400D03*
X11938000Y10414000D03*
X5397500Y1714500D03*
X-444500Y508000D03*
X-2222500Y11493500D03*
X5397500Y11430000D03*
G04 #@! TO.N,Net-(J3-Pad4)*
X20701000Y34925000D03*
X22669500Y27813000D03*
G04 #@! TO.N,/D7_SENSOR_EN*
X13017500Y33083500D03*
X15875000Y19113496D03*
G04 #@! TD*
D14*
G04 #@! TO.N,3V3*
G36*
X28942614Y64334899D02*
X29146599Y64198599D01*
X29282899Y63994614D01*
X29338201Y63716590D01*
X29338201Y63398035D01*
X29305671Y63476569D01*
X28840169Y63942071D01*
X28231960Y64194000D01*
X27573640Y64194000D01*
X26965431Y63942071D01*
X26499929Y63476569D01*
X26248000Y62868360D01*
X26248000Y62210040D01*
X26499929Y61601831D01*
X26965431Y61136329D01*
X27573640Y60884400D01*
X28231960Y60884400D01*
X28840169Y61136329D01*
X29305671Y61601831D01*
X29338201Y61680365D01*
X29338200Y12547600D01*
X-4446200Y12547600D01*
X-4446200Y14143857D01*
X19066700Y14143857D01*
X19066700Y13923143D01*
X19151163Y13719231D01*
X19307231Y13563163D01*
X19511143Y13478700D01*
X19731857Y13478700D01*
X19935769Y13563163D01*
X20091837Y13719231D01*
X20176300Y13923143D01*
X20176300Y14143857D01*
X20091837Y14347769D01*
X19935769Y14503837D01*
X19731857Y14588300D01*
X19511143Y14588300D01*
X19307231Y14503837D01*
X19151163Y14347769D01*
X19066700Y14143857D01*
X-4446200Y14143857D01*
X-4446200Y15667857D01*
X19638200Y15667857D01*
X19638200Y15447143D01*
X19722663Y15243231D01*
X19878731Y15087163D01*
X20082643Y15002700D01*
X20303357Y15002700D01*
X20507269Y15087163D01*
X20663337Y15243231D01*
X20747800Y15447143D01*
X20747800Y15667857D01*
X20663337Y15871769D01*
X20507269Y16027837D01*
X20303357Y16112300D01*
X20082643Y16112300D01*
X19878731Y16027837D01*
X19722663Y15871769D01*
X19638200Y15667857D01*
X-4446200Y15667857D01*
X-4446200Y16620357D01*
X4779200Y16620357D01*
X4779200Y16399643D01*
X4863663Y16195731D01*
X5019731Y16039663D01*
X5223643Y15955200D01*
X5444357Y15955200D01*
X5648269Y16039663D01*
X5804337Y16195731D01*
X5888800Y16399643D01*
X5888800Y16620357D01*
X5804337Y16824269D01*
X5648269Y16980337D01*
X5444357Y17064800D01*
X5223643Y17064800D01*
X5019731Y16980337D01*
X4863663Y16824269D01*
X4779200Y16620357D01*
X-4446200Y16620357D01*
X-4446200Y17128357D01*
X16526700Y17128357D01*
X16526700Y16907643D01*
X16611163Y16703731D01*
X16767231Y16547663D01*
X16971143Y16463200D01*
X17191857Y16463200D01*
X17395769Y16547663D01*
X17404963Y16556857D01*
X23638700Y16556857D01*
X23638700Y16336143D01*
X23723163Y16132231D01*
X23879231Y15976163D01*
X24083143Y15891700D01*
X24303857Y15891700D01*
X24507769Y15976163D01*
X24663837Y16132231D01*
X24748300Y16336143D01*
X24748300Y16556857D01*
X24663837Y16760769D01*
X24507769Y16916837D01*
X24303857Y17001300D01*
X24083143Y17001300D01*
X23879231Y16916837D01*
X23723163Y16760769D01*
X23638700Y16556857D01*
X17404963Y16556857D01*
X17551837Y16703731D01*
X17636300Y16907643D01*
X17636300Y17128357D01*
X17583695Y17255357D01*
X19066700Y17255357D01*
X19066700Y17034643D01*
X19151163Y16830731D01*
X19307231Y16674663D01*
X19511143Y16590200D01*
X19731857Y16590200D01*
X19935769Y16674663D01*
X20091837Y16830731D01*
X20176300Y17034643D01*
X20176300Y17255357D01*
X20091837Y17459269D01*
X19935769Y17615337D01*
X19731857Y17699800D01*
X19511143Y17699800D01*
X19307231Y17615337D01*
X19151163Y17459269D01*
X19066700Y17255357D01*
X17583695Y17255357D01*
X17551837Y17332269D01*
X17395769Y17488337D01*
X17191857Y17572800D01*
X16971143Y17572800D01*
X16767231Y17488337D01*
X16611163Y17332269D01*
X16526700Y17128357D01*
X-4446200Y17128357D01*
X-4446200Y17826857D01*
X12780200Y17826857D01*
X12780200Y17606143D01*
X12864663Y17402231D01*
X13020731Y17246163D01*
X13224643Y17161700D01*
X13445357Y17161700D01*
X13649269Y17246163D01*
X13805337Y17402231D01*
X13889800Y17606143D01*
X13889800Y17826857D01*
X13805337Y18030769D01*
X13649269Y18186837D01*
X13445357Y18271300D01*
X13224643Y18271300D01*
X13020731Y18186837D01*
X12864663Y18030769D01*
X12780200Y17826857D01*
X-4446200Y17826857D01*
X-4446200Y19223853D01*
X15320200Y19223853D01*
X15320200Y19003139D01*
X15404663Y18799227D01*
X15560731Y18643159D01*
X15764643Y18558696D01*
X15985357Y18558696D01*
X16189269Y18643159D01*
X16345337Y18799227D01*
X16429800Y19003139D01*
X16429800Y19223853D01*
X16345337Y19427765D01*
X16189269Y19583833D01*
X15985357Y19668296D01*
X15764643Y19668296D01*
X15560731Y19583833D01*
X15404663Y19427765D01*
X15320200Y19223853D01*
X-4446200Y19223853D01*
X-4446200Y19922357D01*
X-4301300Y19922357D01*
X-4301300Y19701643D01*
X-4216837Y19497731D01*
X-4060769Y19341663D01*
X-3856857Y19257200D01*
X-3636143Y19257200D01*
X-3432231Y19341663D01*
X-3276163Y19497731D01*
X-3191700Y19701643D01*
X-3191700Y19922357D01*
X-3207854Y19961357D01*
X26813700Y19961357D01*
X26813700Y19740643D01*
X26898163Y19536731D01*
X27054231Y19380663D01*
X27258143Y19296200D01*
X27478857Y19296200D01*
X27682769Y19380663D01*
X27838837Y19536731D01*
X27923300Y19740643D01*
X27923300Y19961357D01*
X27838837Y20165269D01*
X27682769Y20321337D01*
X27478857Y20405800D01*
X27258143Y20405800D01*
X27054231Y20321337D01*
X26898163Y20165269D01*
X26813700Y19961357D01*
X-3207854Y19961357D01*
X-3276163Y20126269D01*
X-3432231Y20282337D01*
X-3636143Y20366800D01*
X-3856857Y20366800D01*
X-4060769Y20282337D01*
X-4216837Y20126269D01*
X-4301300Y19922357D01*
X-4446200Y19922357D01*
X-4446200Y21192357D01*
X-2078800Y21192357D01*
X-2078800Y20971643D01*
X-1994337Y20767731D01*
X-1838269Y20611663D01*
X-1634357Y20527200D01*
X-1413643Y20527200D01*
X-1209731Y20611663D01*
X-1053663Y20767731D01*
X-969200Y20971643D01*
X-969200Y21192357D01*
X-1053663Y21396269D01*
X-1209731Y21552337D01*
X-1413643Y21636800D01*
X-1634357Y21636800D01*
X-1838269Y21552337D01*
X-1994337Y21396269D01*
X-2078800Y21192357D01*
X-4446200Y21192357D01*
X-4446200Y23795857D01*
X11954700Y23795857D01*
X11954700Y23575143D01*
X12039163Y23371231D01*
X12195231Y23215163D01*
X12399143Y23130700D01*
X12619857Y23130700D01*
X12823769Y23215163D01*
X12979837Y23371231D01*
X13064300Y23575143D01*
X13064300Y23795857D01*
X12979837Y23999769D01*
X12823769Y24155837D01*
X12619857Y24240300D01*
X12399143Y24240300D01*
X12195231Y24155837D01*
X12039163Y23999769D01*
X11954700Y23795857D01*
X-4446200Y23795857D01*
X-4446200Y24430857D01*
X20146200Y24430857D01*
X20146200Y24210143D01*
X20230663Y24006231D01*
X20386731Y23850163D01*
X20590643Y23765700D01*
X20811357Y23765700D01*
X21015269Y23850163D01*
X21171337Y24006231D01*
X21255800Y24210143D01*
X21255800Y24430857D01*
X21171337Y24634769D01*
X21015269Y24790837D01*
X20811357Y24875300D01*
X20590643Y24875300D01*
X20386731Y24790837D01*
X20230663Y24634769D01*
X20146200Y24430857D01*
X-4446200Y24430857D01*
X-4446200Y25192857D01*
X23130700Y25192857D01*
X23130700Y24972143D01*
X23215163Y24768231D01*
X23371231Y24612163D01*
X23575143Y24527700D01*
X23795857Y24527700D01*
X23919200Y24578790D01*
X23919200Y23943812D01*
X23968797Y23694474D01*
X24157725Y23411724D01*
X24440475Y23222796D01*
X24774000Y23156454D01*
X25107526Y23222796D01*
X25390276Y23411724D01*
X25579204Y23694474D01*
X25628800Y23943812D01*
X25628800Y24012312D01*
X27029700Y24012312D01*
X27029700Y23743689D01*
X27093801Y23421430D01*
X27337984Y23055984D01*
X27703429Y22811801D01*
X28134500Y22726056D01*
X28565570Y22811801D01*
X28931016Y23055984D01*
X29175199Y23421429D01*
X29239300Y23743688D01*
X29239300Y24012311D01*
X29175199Y24334570D01*
X28931016Y24700016D01*
X28565571Y24944199D01*
X28134500Y25029944D01*
X27703430Y24944199D01*
X27337984Y24700016D01*
X27093801Y24334571D01*
X27029700Y24012312D01*
X25628800Y24012312D01*
X25628800Y24812188D01*
X25579204Y25061526D01*
X25390276Y25344276D01*
X25107525Y25533204D01*
X24774000Y25599546D01*
X24440474Y25533204D01*
X24173276Y25354668D01*
X24155837Y25396769D01*
X23999769Y25552837D01*
X23795857Y25637300D01*
X23575143Y25637300D01*
X23371231Y25552837D01*
X23215163Y25396769D01*
X23130700Y25192857D01*
X-4446200Y25192857D01*
X-4446200Y26018357D01*
X16907700Y26018357D01*
X16907700Y25797643D01*
X16992163Y25593731D01*
X17148231Y25437663D01*
X17352143Y25353200D01*
X17572857Y25353200D01*
X17776769Y25437663D01*
X17932837Y25593731D01*
X18017300Y25797643D01*
X18017300Y26018357D01*
X17932837Y26222269D01*
X17776769Y26378337D01*
X17572857Y26462800D01*
X17352143Y26462800D01*
X17148231Y26378337D01*
X16992163Y26222269D01*
X16907700Y26018357D01*
X-4446200Y26018357D01*
X-4446200Y26970857D01*
X16209200Y26970857D01*
X16209200Y26750143D01*
X16293663Y26546231D01*
X16449731Y26390163D01*
X16653643Y26305700D01*
X16874357Y26305700D01*
X17078269Y26390163D01*
X17234337Y26546231D01*
X17318800Y26750143D01*
X17318800Y26843857D01*
X22749700Y26843857D01*
X22749700Y26623143D01*
X22834163Y26419231D01*
X22990231Y26263163D01*
X23194143Y26178700D01*
X23414857Y26178700D01*
X23618769Y26263163D01*
X23774837Y26419231D01*
X23859300Y26623143D01*
X23859300Y26674674D01*
X23924564Y26647641D01*
X24145278Y26647641D01*
X24349190Y26732104D01*
X24505258Y26888172D01*
X24589721Y27092084D01*
X24589721Y27312798D01*
X24505258Y27516710D01*
X24349190Y27672778D01*
X24145278Y27757241D01*
X23924564Y27757241D01*
X23720652Y27672778D01*
X23564584Y27516710D01*
X23480121Y27312798D01*
X23480121Y27261267D01*
X23414857Y27288300D01*
X23194143Y27288300D01*
X22990231Y27203837D01*
X22834163Y27047769D01*
X22749700Y26843857D01*
X17318800Y26843857D01*
X17318800Y26970857D01*
X17234337Y27174769D01*
X17078269Y27330837D01*
X16874357Y27415300D01*
X16653643Y27415300D01*
X16449731Y27330837D01*
X16293663Y27174769D01*
X16209200Y26970857D01*
X-4446200Y26970857D01*
X-4446200Y27923357D01*
X22114700Y27923357D01*
X22114700Y27702643D01*
X22199163Y27498731D01*
X22355231Y27342663D01*
X22559143Y27258200D01*
X22779857Y27258200D01*
X22983769Y27342663D01*
X23139837Y27498731D01*
X23224300Y27702643D01*
X23224300Y27812187D01*
X26069200Y27812187D01*
X26069201Y26543812D01*
X26118797Y26294474D01*
X26307725Y26011724D01*
X26590475Y25822796D01*
X26924000Y25756454D01*
X27257526Y25822796D01*
X27540276Y26011724D01*
X27729204Y26294474D01*
X27778800Y26543812D01*
X27778800Y27812188D01*
X27729204Y28061526D01*
X27540276Y28344276D01*
X27257525Y28533204D01*
X27175188Y28549582D01*
X27330837Y28705231D01*
X27415300Y28909143D01*
X27415300Y29129857D01*
X27330837Y29333769D01*
X27174769Y29489837D01*
X26970857Y29574300D01*
X26750143Y29574300D01*
X26546231Y29489837D01*
X26390163Y29333769D01*
X26305700Y29129857D01*
X26305700Y28909143D01*
X26390163Y28705231D01*
X26546231Y28549163D01*
X26588287Y28531743D01*
X26307724Y28344276D01*
X26118796Y28061525D01*
X26069200Y27812187D01*
X23224300Y27812187D01*
X23224300Y27923357D01*
X23139837Y28127269D01*
X22983769Y28283337D01*
X22779857Y28367800D01*
X22559143Y28367800D01*
X22355231Y28283337D01*
X22199163Y28127269D01*
X22114700Y27923357D01*
X-4446200Y27923357D01*
X-4446200Y28621857D01*
X20971700Y28621857D01*
X20971700Y28401143D01*
X21056163Y28197231D01*
X21212231Y28041163D01*
X21416143Y27956700D01*
X21636857Y27956700D01*
X21840769Y28041163D01*
X21996837Y28197231D01*
X22081300Y28401143D01*
X22081300Y28621857D01*
X21996837Y28825769D01*
X21840769Y28981837D01*
X21636857Y29066300D01*
X21416143Y29066300D01*
X21212231Y28981837D01*
X21056163Y28825769D01*
X20971700Y28621857D01*
X-4446200Y28621857D01*
X-4446200Y31098357D01*
X7319200Y31098357D01*
X7319200Y30877643D01*
X7403663Y30673731D01*
X7559731Y30517663D01*
X7763643Y30433200D01*
X7902215Y30433200D01*
X7755284Y30286269D01*
X7670821Y30082357D01*
X7670821Y29861643D01*
X7755284Y29657731D01*
X7911352Y29501663D01*
X8115264Y29417200D01*
X8335978Y29417200D01*
X8539890Y29501663D01*
X8695958Y29657731D01*
X8780421Y29861643D01*
X8780421Y30082357D01*
X8695958Y30286269D01*
X8570040Y30412187D01*
X23919200Y30412187D01*
X23919200Y29543812D01*
X23968797Y29294474D01*
X24157725Y29011724D01*
X24440475Y28822796D01*
X24774000Y28756454D01*
X25107526Y28822796D01*
X25390276Y29011724D01*
X25579204Y29294474D01*
X25628800Y29543812D01*
X25628800Y30412188D01*
X25588994Y30612312D01*
X27029700Y30612312D01*
X27029700Y30343689D01*
X27093801Y30021430D01*
X27337984Y29655984D01*
X27703429Y29411801D01*
X28134500Y29326056D01*
X28565570Y29411801D01*
X28931016Y29655984D01*
X29175199Y30021429D01*
X29239300Y30343688D01*
X29239300Y30612311D01*
X29175199Y30934570D01*
X28931016Y31300016D01*
X28565571Y31544199D01*
X28134500Y31629944D01*
X27703430Y31544199D01*
X27337984Y31300016D01*
X27093801Y30934571D01*
X27029700Y30612312D01*
X25588994Y30612312D01*
X25579204Y30661526D01*
X25390276Y30944276D01*
X25107525Y31133204D01*
X24774000Y31199546D01*
X24440474Y31133204D01*
X24157724Y30944276D01*
X23968796Y30661525D01*
X23919200Y30412187D01*
X8570040Y30412187D01*
X8539890Y30442337D01*
X8335978Y30526800D01*
X8197406Y30526800D01*
X8344337Y30673731D01*
X8428800Y30877643D01*
X8428800Y31098357D01*
X8344337Y31302269D01*
X8188269Y31458337D01*
X7984357Y31542800D01*
X7763643Y31542800D01*
X7559731Y31458337D01*
X7403663Y31302269D01*
X7319200Y31098357D01*
X-4446200Y31098357D01*
X-4446200Y32114357D01*
X-3094800Y32114357D01*
X-3094800Y31893643D01*
X-3010337Y31689731D01*
X-2854269Y31533663D01*
X-2650357Y31449200D01*
X-2429643Y31449200D01*
X-2225731Y31533663D01*
X-2069663Y31689731D01*
X-1985200Y31893643D01*
X-1985200Y32114357D01*
X-2069663Y32318269D01*
X-2183251Y32431857D01*
X3699700Y32431857D01*
X3699700Y32211143D01*
X3784163Y32007231D01*
X3940231Y31851163D01*
X4144143Y31766700D01*
X4364857Y31766700D01*
X4437662Y31796857D01*
X11192700Y31796857D01*
X11192700Y31576143D01*
X11277163Y31372231D01*
X11433231Y31216163D01*
X11637143Y31131700D01*
X11857857Y31131700D01*
X12061769Y31216163D01*
X12217837Y31372231D01*
X12250133Y31450201D01*
X14265857Y31450201D01*
X14265857Y31229487D01*
X14350320Y31025575D01*
X14506388Y30869507D01*
X14710300Y30785044D01*
X14931014Y30785044D01*
X15134926Y30869507D01*
X15290994Y31025575D01*
X15375457Y31229487D01*
X15375457Y31450201D01*
X15290994Y31654113D01*
X15134926Y31810181D01*
X14931014Y31894644D01*
X14710300Y31894644D01*
X14506388Y31810181D01*
X14350320Y31654113D01*
X14265857Y31450201D01*
X12250133Y31450201D01*
X12302300Y31576143D01*
X12302300Y31796857D01*
X12217837Y32000769D01*
X12061769Y32156837D01*
X11857857Y32241300D01*
X11637143Y32241300D01*
X11433231Y32156837D01*
X11277163Y32000769D01*
X11192700Y31796857D01*
X4437662Y31796857D01*
X4568769Y31851163D01*
X4724837Y32007231D01*
X4809300Y32211143D01*
X4809300Y32431857D01*
X4724837Y32635769D01*
X4568769Y32791837D01*
X4364857Y32876300D01*
X4144143Y32876300D01*
X3940231Y32791837D01*
X3784163Y32635769D01*
X3699700Y32431857D01*
X-2183251Y32431857D01*
X-2225731Y32474337D01*
X-2429643Y32558800D01*
X-2650357Y32558800D01*
X-2854269Y32474337D01*
X-3010337Y32318269D01*
X-3094800Y32114357D01*
X-4446200Y32114357D01*
X-4446200Y33574857D01*
X4334700Y33574857D01*
X4334700Y33354143D01*
X4419163Y33150231D01*
X4575231Y32994163D01*
X4779143Y32909700D01*
X4999857Y32909700D01*
X5048679Y32929922D01*
X5193305Y32785296D01*
X5397217Y32700833D01*
X5617931Y32700833D01*
X5821843Y32785296D01*
X5977911Y32941364D01*
X6062374Y33145276D01*
X6062374Y33365990D01*
X5977911Y33569902D01*
X5845956Y33701857D01*
X7763700Y33701857D01*
X7763700Y33481143D01*
X7848163Y33277231D01*
X8004231Y33121163D01*
X8208143Y33036700D01*
X8335186Y33036700D01*
X8335186Y32909643D01*
X8419649Y32705731D01*
X8575717Y32549663D01*
X8779629Y32465200D01*
X9000343Y32465200D01*
X9204255Y32549663D01*
X9360323Y32705731D01*
X9444786Y32909643D01*
X9444786Y33130357D01*
X9418484Y33193857D01*
X12462700Y33193857D01*
X12462700Y32973143D01*
X12547163Y32769231D01*
X12703231Y32613163D01*
X12907143Y32528700D01*
X13127857Y32528700D01*
X13331769Y32613163D01*
X13404463Y32685857D01*
X27321700Y32685857D01*
X27321700Y32465143D01*
X27406163Y32261231D01*
X27562231Y32105163D01*
X27766143Y32020700D01*
X27986857Y32020700D01*
X28190769Y32105163D01*
X28346837Y32261231D01*
X28431300Y32465143D01*
X28431300Y32685857D01*
X28346837Y32889769D01*
X28190769Y33045837D01*
X27986857Y33130300D01*
X27766143Y33130300D01*
X27562231Y33045837D01*
X27406163Y32889769D01*
X27321700Y32685857D01*
X13404463Y32685857D01*
X13487837Y32769231D01*
X13572300Y32973143D01*
X13572300Y33193857D01*
X13493393Y33384357D01*
X19638200Y33384357D01*
X19638200Y33163643D01*
X19722663Y32959731D01*
X19878731Y32803663D01*
X20082643Y32719200D01*
X20303357Y32719200D01*
X20507269Y32803663D01*
X20663337Y32959731D01*
X20747800Y33163643D01*
X20747800Y33384357D01*
X20663337Y33588269D01*
X20507269Y33744337D01*
X20303357Y33828800D01*
X20082643Y33828800D01*
X19878731Y33744337D01*
X19722663Y33588269D01*
X19638200Y33384357D01*
X13493393Y33384357D01*
X13487837Y33397769D01*
X13331769Y33553837D01*
X13127857Y33638300D01*
X12907143Y33638300D01*
X12703231Y33553837D01*
X12547163Y33397769D01*
X12462700Y33193857D01*
X9418484Y33193857D01*
X9360323Y33334269D01*
X9204255Y33490337D01*
X9000343Y33574800D01*
X8873300Y33574800D01*
X8873300Y33701857D01*
X8788837Y33905769D01*
X8632769Y34061837D01*
X8428857Y34146300D01*
X8208143Y34146300D01*
X8004231Y34061837D01*
X7848163Y33905769D01*
X7763700Y33701857D01*
X5845956Y33701857D01*
X5821843Y33725970D01*
X5617931Y33810433D01*
X5397217Y33810433D01*
X5348395Y33790211D01*
X5203769Y33934837D01*
X4999857Y34019300D01*
X4779143Y34019300D01*
X4575231Y33934837D01*
X4419163Y33778769D01*
X4334700Y33574857D01*
X-4446200Y33574857D01*
X-4446200Y34908357D01*
X14177200Y34908357D01*
X14177200Y34687643D01*
X14261663Y34483731D01*
X14417731Y34327663D01*
X14621643Y34243200D01*
X14842357Y34243200D01*
X15046269Y34327663D01*
X15202337Y34483731D01*
X15286800Y34687643D01*
X15286800Y34908357D01*
X15234195Y35035357D01*
X20146200Y35035357D01*
X20146200Y34814643D01*
X20230663Y34610731D01*
X20386731Y34454663D01*
X20590643Y34370200D01*
X20811357Y34370200D01*
X21015269Y34454663D01*
X21171337Y34610731D01*
X21255800Y34814643D01*
X21255800Y35035357D01*
X21171337Y35239269D01*
X21015269Y35395337D01*
X20811357Y35479800D01*
X20590643Y35479800D01*
X20386731Y35395337D01*
X20230663Y35239269D01*
X20146200Y35035357D01*
X15234195Y35035357D01*
X15202337Y35112269D01*
X15046269Y35268337D01*
X14842357Y35352800D01*
X14621643Y35352800D01*
X14417731Y35268337D01*
X14261663Y35112269D01*
X14177200Y34908357D01*
X-4446200Y34908357D01*
X-4446200Y36432357D01*
X6366700Y36432357D01*
X6366700Y36211643D01*
X6451163Y36007731D01*
X6607231Y35851663D01*
X6811143Y35767200D01*
X7031857Y35767200D01*
X7235769Y35851663D01*
X7391837Y36007731D01*
X7476300Y36211643D01*
X7476300Y36432357D01*
X7423807Y36559087D01*
X7432731Y36550163D01*
X7636643Y36465700D01*
X7857357Y36465700D01*
X7930162Y36495857D01*
X24781700Y36495857D01*
X24781700Y36275143D01*
X24866163Y36071231D01*
X25022231Y35915163D01*
X25226143Y35830700D01*
X25446857Y35830700D01*
X25650769Y35915163D01*
X25806837Y36071231D01*
X25891300Y36275143D01*
X25891300Y36495857D01*
X25806837Y36699769D01*
X25650769Y36855837D01*
X25446857Y36940300D01*
X25226143Y36940300D01*
X25022231Y36855837D01*
X24866163Y36699769D01*
X24781700Y36495857D01*
X7930162Y36495857D01*
X8061269Y36550163D01*
X8217337Y36706231D01*
X8301800Y36910143D01*
X8301800Y37130857D01*
X8217337Y37334769D01*
X8061269Y37490837D01*
X7857357Y37575300D01*
X7636643Y37575300D01*
X7432731Y37490837D01*
X7276663Y37334769D01*
X7192200Y37130857D01*
X7192200Y36910143D01*
X7244693Y36783413D01*
X7235769Y36792337D01*
X7031857Y36876800D01*
X6811143Y36876800D01*
X6607231Y36792337D01*
X6451163Y36636269D01*
X6366700Y36432357D01*
X-4446200Y36432357D01*
X-4446200Y37769072D01*
X12856976Y37769072D01*
X12856976Y37548358D01*
X12941439Y37344446D01*
X13097507Y37188378D01*
X13301419Y37103915D01*
X13522133Y37103915D01*
X13726045Y37188378D01*
X13882113Y37344446D01*
X13966576Y37548358D01*
X13966576Y37769072D01*
X13882113Y37972984D01*
X13726045Y38129052D01*
X13522133Y38213515D01*
X13301419Y38213515D01*
X13097507Y38129052D01*
X12941439Y37972984D01*
X12856976Y37769072D01*
X-4446200Y37769072D01*
X-4446200Y39162857D01*
X5731700Y39162857D01*
X5731700Y38942143D01*
X5816163Y38738231D01*
X5972231Y38582163D01*
X6176143Y38497700D01*
X6396857Y38497700D01*
X6600769Y38582163D01*
X6673463Y38654857D01*
X8525700Y38654857D01*
X8525700Y38434143D01*
X8610163Y38230231D01*
X8766231Y38074163D01*
X8970143Y37989700D01*
X9190857Y37989700D01*
X9394769Y38074163D01*
X9550837Y38230231D01*
X9635300Y38434143D01*
X9635300Y38654857D01*
X9550837Y38858769D01*
X9394769Y39014837D01*
X9334390Y39039847D01*
X15701200Y39039847D01*
X15701200Y38819133D01*
X15785663Y38615221D01*
X15941731Y38459153D01*
X16145643Y38374690D01*
X16366357Y38374690D01*
X16570269Y38459153D01*
X16726337Y38615221D01*
X16810800Y38819133D01*
X16810800Y39039847D01*
X16726337Y39243759D01*
X16570269Y39399827D01*
X16366357Y39484290D01*
X16145643Y39484290D01*
X15941731Y39399827D01*
X15785663Y39243759D01*
X15701200Y39039847D01*
X9334390Y39039847D01*
X9190857Y39099300D01*
X8970143Y39099300D01*
X8766231Y39014837D01*
X8610163Y38858769D01*
X8525700Y38654857D01*
X6673463Y38654857D01*
X6756837Y38738231D01*
X6841300Y38942143D01*
X6841300Y39162857D01*
X6756837Y39366769D01*
X6600769Y39522837D01*
X6396857Y39607300D01*
X6176143Y39607300D01*
X5972231Y39522837D01*
X5816163Y39366769D01*
X5731700Y39162857D01*
X-4446200Y39162857D01*
X-4446200Y39734357D01*
X24718200Y39734357D01*
X24718200Y39513643D01*
X24802663Y39309731D01*
X24958731Y39153663D01*
X25162643Y39069200D01*
X25383357Y39069200D01*
X25587269Y39153663D01*
X25743337Y39309731D01*
X25827800Y39513643D01*
X25827800Y39734357D01*
X25743337Y39938269D01*
X25587269Y40094337D01*
X25383357Y40178800D01*
X25162643Y40178800D01*
X24958731Y40094337D01*
X24802663Y39938269D01*
X24718200Y39734357D01*
X-4446200Y39734357D01*
X-4446200Y43289457D01*
X2239200Y43289457D01*
X2239200Y43068743D01*
X2323663Y42864831D01*
X2479731Y42708763D01*
X2683643Y42624300D01*
X2904357Y42624300D01*
X3108269Y42708763D01*
X3264337Y42864831D01*
X3348800Y43068743D01*
X3348800Y43289457D01*
X3953700Y43289457D01*
X3953700Y43068743D01*
X4038163Y42864831D01*
X4194231Y42708763D01*
X4398143Y42624300D01*
X4618857Y42624300D01*
X4822769Y42708763D01*
X4978837Y42864831D01*
X5063300Y43068743D01*
X5063300Y43073557D01*
X17098200Y43073557D01*
X17098200Y42852843D01*
X17182663Y42648931D01*
X17338731Y42492863D01*
X17542643Y42408400D01*
X17763357Y42408400D01*
X17967269Y42492863D01*
X18002763Y42528357D01*
X26051700Y42528357D01*
X26051700Y42307643D01*
X26136163Y42103731D01*
X26292231Y41947663D01*
X26496143Y41863200D01*
X26716857Y41863200D01*
X26920769Y41947663D01*
X27076837Y42103731D01*
X27161300Y42307643D01*
X27161300Y42528357D01*
X27076837Y42732269D01*
X26920769Y42888337D01*
X26716857Y42972800D01*
X26496143Y42972800D01*
X26292231Y42888337D01*
X26136163Y42732269D01*
X26051700Y42528357D01*
X18002763Y42528357D01*
X18123337Y42648931D01*
X18207800Y42852843D01*
X18207800Y43073557D01*
X18123337Y43277469D01*
X17967269Y43433537D01*
X17763357Y43518000D01*
X17542643Y43518000D01*
X17338731Y43433537D01*
X17182663Y43277469D01*
X17098200Y43073557D01*
X5063300Y43073557D01*
X5063300Y43289457D01*
X4978837Y43493369D01*
X4822769Y43649437D01*
X4618857Y43733900D01*
X4398143Y43733900D01*
X4194231Y43649437D01*
X4038163Y43493369D01*
X3953700Y43289457D01*
X3348800Y43289457D01*
X3264337Y43493369D01*
X3108269Y43649437D01*
X2904357Y43733900D01*
X2683643Y43733900D01*
X2479731Y43649437D01*
X2323663Y43493369D01*
X2239200Y43289457D01*
X-4446200Y43289457D01*
X-4446200Y45893857D01*
X2556700Y45893857D01*
X2556700Y45673143D01*
X2641163Y45469231D01*
X2797231Y45313163D01*
X3001143Y45228700D01*
X3221857Y45228700D01*
X3425769Y45313163D01*
X3581837Y45469231D01*
X3666300Y45673143D01*
X3666300Y45893857D01*
X4398200Y45893857D01*
X4398200Y45673143D01*
X4482663Y45469231D01*
X4638731Y45313163D01*
X4842643Y45228700D01*
X5063357Y45228700D01*
X5267269Y45313163D01*
X5423337Y45469231D01*
X5507800Y45673143D01*
X5507800Y45893857D01*
X26051700Y45893857D01*
X26051700Y45673143D01*
X26136163Y45469231D01*
X26292231Y45313163D01*
X26496143Y45228700D01*
X26716857Y45228700D01*
X26920769Y45313163D01*
X27076837Y45469231D01*
X27161300Y45673143D01*
X27161300Y45893857D01*
X27076837Y46097769D01*
X26920769Y46253837D01*
X26716857Y46338300D01*
X26496143Y46338300D01*
X26292231Y46253837D01*
X26136163Y46097769D01*
X26051700Y45893857D01*
X5507800Y45893857D01*
X5423337Y46097769D01*
X5267269Y46253837D01*
X5063357Y46338300D01*
X4842643Y46338300D01*
X4638731Y46253837D01*
X4482663Y46097769D01*
X4398200Y45893857D01*
X3666300Y45893857D01*
X3581837Y46097769D01*
X3425769Y46253837D01*
X3221857Y46338300D01*
X3001143Y46338300D01*
X2797231Y46253837D01*
X2641163Y46097769D01*
X2556700Y45893857D01*
X-4446200Y45893857D01*
X-4446200Y46846357D01*
X10367200Y46846357D01*
X10367200Y46625643D01*
X10451663Y46421731D01*
X10607731Y46265663D01*
X10811643Y46181200D01*
X11032357Y46181200D01*
X11236269Y46265663D01*
X11392337Y46421731D01*
X11476800Y46625643D01*
X11476800Y46846357D01*
X23257700Y46846357D01*
X23257700Y46625643D01*
X23342163Y46421731D01*
X23498231Y46265663D01*
X23702143Y46181200D01*
X23922857Y46181200D01*
X24126769Y46265663D01*
X24282837Y46421731D01*
X24367300Y46625643D01*
X24367300Y46846357D01*
X24282837Y47050269D01*
X24126769Y47206337D01*
X23922857Y47290800D01*
X23702143Y47290800D01*
X23498231Y47206337D01*
X23342163Y47050269D01*
X23257700Y46846357D01*
X11476800Y46846357D01*
X11392337Y47050269D01*
X11236269Y47206337D01*
X11032357Y47290800D01*
X10811643Y47290800D01*
X10607731Y47206337D01*
X10451663Y47050269D01*
X10367200Y46846357D01*
X-4446200Y46846357D01*
X-4446200Y48052857D01*
X23257700Y48052857D01*
X23257700Y47832143D01*
X23342163Y47628231D01*
X23498231Y47472163D01*
X23702143Y47387700D01*
X23922857Y47387700D01*
X24126769Y47472163D01*
X24282837Y47628231D01*
X24367300Y47832143D01*
X24367300Y48052857D01*
X24351519Y48090957D01*
X28058300Y48090957D01*
X28058300Y47870243D01*
X28142763Y47666331D01*
X28298831Y47510263D01*
X28502743Y47425800D01*
X28723457Y47425800D01*
X28927369Y47510263D01*
X29083437Y47666331D01*
X29167900Y47870243D01*
X29167900Y48090957D01*
X29083437Y48294869D01*
X28927369Y48450937D01*
X28723457Y48535400D01*
X28502743Y48535400D01*
X28298831Y48450937D01*
X28142763Y48294869D01*
X28058300Y48090957D01*
X24351519Y48090957D01*
X24282837Y48256769D01*
X24126769Y48412837D01*
X23922857Y48497300D01*
X23702143Y48497300D01*
X23498231Y48412837D01*
X23342163Y48256769D01*
X23257700Y48052857D01*
X-4446200Y48052857D01*
X-4446200Y50389657D01*
X19828700Y50389657D01*
X19828700Y50168943D01*
X19913163Y49965031D01*
X20069231Y49808963D01*
X20273143Y49724500D01*
X20493857Y49724500D01*
X20697769Y49808963D01*
X20853837Y49965031D01*
X20938300Y50168943D01*
X20938300Y50389657D01*
X20853837Y50593569D01*
X20697769Y50749637D01*
X20493857Y50834100D01*
X20273143Y50834100D01*
X20069231Y50749637D01*
X19913163Y50593569D01*
X19828700Y50389657D01*
X-4446200Y50389657D01*
X-4446200Y51291357D01*
X21670200Y51291357D01*
X21670200Y51070643D01*
X21754663Y50866731D01*
X21910731Y50710663D01*
X22114643Y50626200D01*
X22335357Y50626200D01*
X22539269Y50710663D01*
X22695337Y50866731D01*
X22779800Y51070643D01*
X22779800Y51291357D01*
X22695337Y51495269D01*
X22539269Y51651337D01*
X22335357Y51735800D01*
X22114643Y51735800D01*
X21910731Y51651337D01*
X21754663Y51495269D01*
X21670200Y51291357D01*
X-4446200Y51291357D01*
X-4446200Y54593357D01*
X-1824800Y54593357D01*
X-1824800Y54372643D01*
X-1740337Y54168731D01*
X-1584269Y54012663D01*
X-1380357Y53928200D01*
X-1159643Y53928200D01*
X-955731Y54012663D01*
X-799663Y54168731D01*
X-762000Y54259658D01*
X-724337Y54168731D01*
X-568269Y54012663D01*
X-364357Y53928200D01*
X-143643Y53928200D01*
X60269Y54012663D01*
X216337Y54168731D01*
X254000Y54259658D01*
X291663Y54168731D01*
X447731Y54012663D01*
X651643Y53928200D01*
X872357Y53928200D01*
X1076269Y54012663D01*
X1232337Y54168731D01*
X1270000Y54259658D01*
X1307663Y54168731D01*
X1463731Y54012663D01*
X1667643Y53928200D01*
X1888357Y53928200D01*
X2092269Y54012663D01*
X2248337Y54168731D01*
X2286000Y54259658D01*
X2323663Y54168731D01*
X2479731Y54012663D01*
X2683643Y53928200D01*
X2904357Y53928200D01*
X3108269Y54012663D01*
X3264337Y54168731D01*
X3348800Y54372643D01*
X3348800Y54593357D01*
X5541200Y54593357D01*
X5541200Y54372643D01*
X5625663Y54168731D01*
X5781731Y54012663D01*
X5985643Y53928200D01*
X6206357Y53928200D01*
X6410269Y54012663D01*
X6566337Y54168731D01*
X6604000Y54259658D01*
X6641663Y54168731D01*
X6797731Y54012663D01*
X7001643Y53928200D01*
X7222357Y53928200D01*
X7426269Y54012663D01*
X7582337Y54168731D01*
X7620000Y54259658D01*
X7657663Y54168731D01*
X7813731Y54012663D01*
X8017643Y53928200D01*
X8238357Y53928200D01*
X8442269Y54012663D01*
X8598337Y54168731D01*
X8636000Y54259658D01*
X8673663Y54168731D01*
X8829731Y54012663D01*
X9033643Y53928200D01*
X9254357Y53928200D01*
X9458269Y54012663D01*
X9614337Y54168731D01*
X9698800Y54372643D01*
X9698800Y54593357D01*
X9614337Y54797269D01*
X9458269Y54953337D01*
X9254357Y55037800D01*
X9033643Y55037800D01*
X8829731Y54953337D01*
X8673663Y54797269D01*
X8636000Y54706342D01*
X8598337Y54797269D01*
X8442269Y54953337D01*
X8238357Y55037800D01*
X8017643Y55037800D01*
X7813731Y54953337D01*
X7657663Y54797269D01*
X7620000Y54706342D01*
X7582337Y54797269D01*
X7426269Y54953337D01*
X7222357Y55037800D01*
X7001643Y55037800D01*
X6797731Y54953337D01*
X6641663Y54797269D01*
X6604000Y54706342D01*
X6566337Y54797269D01*
X6410269Y54953337D01*
X6206357Y55037800D01*
X5985643Y55037800D01*
X5781731Y54953337D01*
X5625663Y54797269D01*
X5541200Y54593357D01*
X3348800Y54593357D01*
X3264337Y54797269D01*
X3108269Y54953337D01*
X2904357Y55037800D01*
X2683643Y55037800D01*
X2479731Y54953337D01*
X2323663Y54797269D01*
X2286000Y54706342D01*
X2248337Y54797269D01*
X2092269Y54953337D01*
X1888357Y55037800D01*
X1667643Y55037800D01*
X1463731Y54953337D01*
X1307663Y54797269D01*
X1270000Y54706342D01*
X1232337Y54797269D01*
X1076269Y54953337D01*
X872357Y55037800D01*
X651643Y55037800D01*
X447731Y54953337D01*
X291663Y54797269D01*
X254000Y54706342D01*
X216337Y54797269D01*
X60269Y54953337D01*
X-143643Y55037800D01*
X-364357Y55037800D01*
X-568269Y54953337D01*
X-724337Y54797269D01*
X-762000Y54706342D01*
X-799663Y54797269D01*
X-955731Y54953337D01*
X-1159643Y55037800D01*
X-1380357Y55037800D01*
X-1584269Y54953337D01*
X-1740337Y54797269D01*
X-1824800Y54593357D01*
X-4446200Y54593357D01*
X-4446200Y60054357D01*
X7636700Y60054357D01*
X7636700Y59833643D01*
X7721163Y59629731D01*
X7877231Y59473663D01*
X8081143Y59389200D01*
X8301857Y59389200D01*
X8505769Y59473663D01*
X8661837Y59629731D01*
X8746300Y59833643D01*
X8746300Y60054357D01*
X8661837Y60258269D01*
X8505769Y60414337D01*
X8301857Y60498800D01*
X8081143Y60498800D01*
X7877231Y60414337D01*
X7721163Y60258269D01*
X7636700Y60054357D01*
X-4446200Y60054357D01*
X-4446200Y61947857D01*
X-4302871Y61601831D01*
X-3837369Y61136329D01*
X-3229160Y60884400D01*
X-2570840Y60884400D01*
X-1962631Y61136329D01*
X-1497129Y61601831D01*
X-1245200Y62210040D01*
X-1245200Y62213357D01*
X17225200Y62213357D01*
X17225200Y61992643D01*
X17309663Y61788731D01*
X17465731Y61632663D01*
X17669643Y61548200D01*
X17890357Y61548200D01*
X18094269Y61632663D01*
X18250337Y61788731D01*
X18334800Y61992643D01*
X18334800Y62022857D01*
X19066700Y62022857D01*
X19066700Y61802143D01*
X19151163Y61598231D01*
X19307231Y61442163D01*
X19511143Y61357700D01*
X19731857Y61357700D01*
X19935769Y61442163D01*
X20091837Y61598231D01*
X20176300Y61802143D01*
X20176300Y62022857D01*
X20091837Y62226769D01*
X19935769Y62382837D01*
X19731857Y62467300D01*
X19511143Y62467300D01*
X19307231Y62382837D01*
X19151163Y62226769D01*
X19066700Y62022857D01*
X18334800Y62022857D01*
X18334800Y62213357D01*
X18250337Y62417269D01*
X18094269Y62573337D01*
X17890357Y62657800D01*
X17669643Y62657800D01*
X17465731Y62573337D01*
X17309663Y62417269D01*
X17225200Y62213357D01*
X-1245200Y62213357D01*
X-1245200Y62868360D01*
X-1497129Y63476569D01*
X-1630917Y63610357D01*
X7573200Y63610357D01*
X7573200Y63389643D01*
X7657663Y63185731D01*
X7813731Y63029663D01*
X8017643Y62945200D01*
X8238357Y62945200D01*
X8442269Y63029663D01*
X8598337Y63185731D01*
X8682800Y63389643D01*
X8682800Y63610357D01*
X8598337Y63814269D01*
X8442269Y63970337D01*
X8238357Y64054800D01*
X8017643Y64054800D01*
X7813731Y63970337D01*
X7657663Y63814269D01*
X7573200Y63610357D01*
X-1630917Y63610357D01*
X-1962631Y63942071D01*
X-2570840Y64194000D01*
X-3229160Y64194000D01*
X-3837369Y63942071D01*
X-4302871Y63476569D01*
X-4446200Y63130543D01*
X-4446200Y63716595D01*
X-4390899Y63994614D01*
X-4254599Y64198599D01*
X-4050614Y64334899D01*
X-3772595Y64390200D01*
X28664595Y64390200D01*
X28942614Y64334899D01*
X28942614Y64334899D01*
G37*
X28942614Y64334899D02*
X29146599Y64198599D01*
X29282899Y63994614D01*
X29338201Y63716590D01*
X29338201Y63398035D01*
X29305671Y63476569D01*
X28840169Y63942071D01*
X28231960Y64194000D01*
X27573640Y64194000D01*
X26965431Y63942071D01*
X26499929Y63476569D01*
X26248000Y62868360D01*
X26248000Y62210040D01*
X26499929Y61601831D01*
X26965431Y61136329D01*
X27573640Y60884400D01*
X28231960Y60884400D01*
X28840169Y61136329D01*
X29305671Y61601831D01*
X29338201Y61680365D01*
X29338200Y12547600D01*
X-4446200Y12547600D01*
X-4446200Y14143857D01*
X19066700Y14143857D01*
X19066700Y13923143D01*
X19151163Y13719231D01*
X19307231Y13563163D01*
X19511143Y13478700D01*
X19731857Y13478700D01*
X19935769Y13563163D01*
X20091837Y13719231D01*
X20176300Y13923143D01*
X20176300Y14143857D01*
X20091837Y14347769D01*
X19935769Y14503837D01*
X19731857Y14588300D01*
X19511143Y14588300D01*
X19307231Y14503837D01*
X19151163Y14347769D01*
X19066700Y14143857D01*
X-4446200Y14143857D01*
X-4446200Y15667857D01*
X19638200Y15667857D01*
X19638200Y15447143D01*
X19722663Y15243231D01*
X19878731Y15087163D01*
X20082643Y15002700D01*
X20303357Y15002700D01*
X20507269Y15087163D01*
X20663337Y15243231D01*
X20747800Y15447143D01*
X20747800Y15667857D01*
X20663337Y15871769D01*
X20507269Y16027837D01*
X20303357Y16112300D01*
X20082643Y16112300D01*
X19878731Y16027837D01*
X19722663Y15871769D01*
X19638200Y15667857D01*
X-4446200Y15667857D01*
X-4446200Y16620357D01*
X4779200Y16620357D01*
X4779200Y16399643D01*
X4863663Y16195731D01*
X5019731Y16039663D01*
X5223643Y15955200D01*
X5444357Y15955200D01*
X5648269Y16039663D01*
X5804337Y16195731D01*
X5888800Y16399643D01*
X5888800Y16620357D01*
X5804337Y16824269D01*
X5648269Y16980337D01*
X5444357Y17064800D01*
X5223643Y17064800D01*
X5019731Y16980337D01*
X4863663Y16824269D01*
X4779200Y16620357D01*
X-4446200Y16620357D01*
X-4446200Y17128357D01*
X16526700Y17128357D01*
X16526700Y16907643D01*
X16611163Y16703731D01*
X16767231Y16547663D01*
X16971143Y16463200D01*
X17191857Y16463200D01*
X17395769Y16547663D01*
X17404963Y16556857D01*
X23638700Y16556857D01*
X23638700Y16336143D01*
X23723163Y16132231D01*
X23879231Y15976163D01*
X24083143Y15891700D01*
X24303857Y15891700D01*
X24507769Y15976163D01*
X24663837Y16132231D01*
X24748300Y16336143D01*
X24748300Y16556857D01*
X24663837Y16760769D01*
X24507769Y16916837D01*
X24303857Y17001300D01*
X24083143Y17001300D01*
X23879231Y16916837D01*
X23723163Y16760769D01*
X23638700Y16556857D01*
X17404963Y16556857D01*
X17551837Y16703731D01*
X17636300Y16907643D01*
X17636300Y17128357D01*
X17583695Y17255357D01*
X19066700Y17255357D01*
X19066700Y17034643D01*
X19151163Y16830731D01*
X19307231Y16674663D01*
X19511143Y16590200D01*
X19731857Y16590200D01*
X19935769Y16674663D01*
X20091837Y16830731D01*
X20176300Y17034643D01*
X20176300Y17255357D01*
X20091837Y17459269D01*
X19935769Y17615337D01*
X19731857Y17699800D01*
X19511143Y17699800D01*
X19307231Y17615337D01*
X19151163Y17459269D01*
X19066700Y17255357D01*
X17583695Y17255357D01*
X17551837Y17332269D01*
X17395769Y17488337D01*
X17191857Y17572800D01*
X16971143Y17572800D01*
X16767231Y17488337D01*
X16611163Y17332269D01*
X16526700Y17128357D01*
X-4446200Y17128357D01*
X-4446200Y17826857D01*
X12780200Y17826857D01*
X12780200Y17606143D01*
X12864663Y17402231D01*
X13020731Y17246163D01*
X13224643Y17161700D01*
X13445357Y17161700D01*
X13649269Y17246163D01*
X13805337Y17402231D01*
X13889800Y17606143D01*
X13889800Y17826857D01*
X13805337Y18030769D01*
X13649269Y18186837D01*
X13445357Y18271300D01*
X13224643Y18271300D01*
X13020731Y18186837D01*
X12864663Y18030769D01*
X12780200Y17826857D01*
X-4446200Y17826857D01*
X-4446200Y19223853D01*
X15320200Y19223853D01*
X15320200Y19003139D01*
X15404663Y18799227D01*
X15560731Y18643159D01*
X15764643Y18558696D01*
X15985357Y18558696D01*
X16189269Y18643159D01*
X16345337Y18799227D01*
X16429800Y19003139D01*
X16429800Y19223853D01*
X16345337Y19427765D01*
X16189269Y19583833D01*
X15985357Y19668296D01*
X15764643Y19668296D01*
X15560731Y19583833D01*
X15404663Y19427765D01*
X15320200Y19223853D01*
X-4446200Y19223853D01*
X-4446200Y19922357D01*
X-4301300Y19922357D01*
X-4301300Y19701643D01*
X-4216837Y19497731D01*
X-4060769Y19341663D01*
X-3856857Y19257200D01*
X-3636143Y19257200D01*
X-3432231Y19341663D01*
X-3276163Y19497731D01*
X-3191700Y19701643D01*
X-3191700Y19922357D01*
X-3207854Y19961357D01*
X26813700Y19961357D01*
X26813700Y19740643D01*
X26898163Y19536731D01*
X27054231Y19380663D01*
X27258143Y19296200D01*
X27478857Y19296200D01*
X27682769Y19380663D01*
X27838837Y19536731D01*
X27923300Y19740643D01*
X27923300Y19961357D01*
X27838837Y20165269D01*
X27682769Y20321337D01*
X27478857Y20405800D01*
X27258143Y20405800D01*
X27054231Y20321337D01*
X26898163Y20165269D01*
X26813700Y19961357D01*
X-3207854Y19961357D01*
X-3276163Y20126269D01*
X-3432231Y20282337D01*
X-3636143Y20366800D01*
X-3856857Y20366800D01*
X-4060769Y20282337D01*
X-4216837Y20126269D01*
X-4301300Y19922357D01*
X-4446200Y19922357D01*
X-4446200Y21192357D01*
X-2078800Y21192357D01*
X-2078800Y20971643D01*
X-1994337Y20767731D01*
X-1838269Y20611663D01*
X-1634357Y20527200D01*
X-1413643Y20527200D01*
X-1209731Y20611663D01*
X-1053663Y20767731D01*
X-969200Y20971643D01*
X-969200Y21192357D01*
X-1053663Y21396269D01*
X-1209731Y21552337D01*
X-1413643Y21636800D01*
X-1634357Y21636800D01*
X-1838269Y21552337D01*
X-1994337Y21396269D01*
X-2078800Y21192357D01*
X-4446200Y21192357D01*
X-4446200Y23795857D01*
X11954700Y23795857D01*
X11954700Y23575143D01*
X12039163Y23371231D01*
X12195231Y23215163D01*
X12399143Y23130700D01*
X12619857Y23130700D01*
X12823769Y23215163D01*
X12979837Y23371231D01*
X13064300Y23575143D01*
X13064300Y23795857D01*
X12979837Y23999769D01*
X12823769Y24155837D01*
X12619857Y24240300D01*
X12399143Y24240300D01*
X12195231Y24155837D01*
X12039163Y23999769D01*
X11954700Y23795857D01*
X-4446200Y23795857D01*
X-4446200Y24430857D01*
X20146200Y24430857D01*
X20146200Y24210143D01*
X20230663Y24006231D01*
X20386731Y23850163D01*
X20590643Y23765700D01*
X20811357Y23765700D01*
X21015269Y23850163D01*
X21171337Y24006231D01*
X21255800Y24210143D01*
X21255800Y24430857D01*
X21171337Y24634769D01*
X21015269Y24790837D01*
X20811357Y24875300D01*
X20590643Y24875300D01*
X20386731Y24790837D01*
X20230663Y24634769D01*
X20146200Y24430857D01*
X-4446200Y24430857D01*
X-4446200Y25192857D01*
X23130700Y25192857D01*
X23130700Y24972143D01*
X23215163Y24768231D01*
X23371231Y24612163D01*
X23575143Y24527700D01*
X23795857Y24527700D01*
X23919200Y24578790D01*
X23919200Y23943812D01*
X23968797Y23694474D01*
X24157725Y23411724D01*
X24440475Y23222796D01*
X24774000Y23156454D01*
X25107526Y23222796D01*
X25390276Y23411724D01*
X25579204Y23694474D01*
X25628800Y23943812D01*
X25628800Y24012312D01*
X27029700Y24012312D01*
X27029700Y23743689D01*
X27093801Y23421430D01*
X27337984Y23055984D01*
X27703429Y22811801D01*
X28134500Y22726056D01*
X28565570Y22811801D01*
X28931016Y23055984D01*
X29175199Y23421429D01*
X29239300Y23743688D01*
X29239300Y24012311D01*
X29175199Y24334570D01*
X28931016Y24700016D01*
X28565571Y24944199D01*
X28134500Y25029944D01*
X27703430Y24944199D01*
X27337984Y24700016D01*
X27093801Y24334571D01*
X27029700Y24012312D01*
X25628800Y24012312D01*
X25628800Y24812188D01*
X25579204Y25061526D01*
X25390276Y25344276D01*
X25107525Y25533204D01*
X24774000Y25599546D01*
X24440474Y25533204D01*
X24173276Y25354668D01*
X24155837Y25396769D01*
X23999769Y25552837D01*
X23795857Y25637300D01*
X23575143Y25637300D01*
X23371231Y25552837D01*
X23215163Y25396769D01*
X23130700Y25192857D01*
X-4446200Y25192857D01*
X-4446200Y26018357D01*
X16907700Y26018357D01*
X16907700Y25797643D01*
X16992163Y25593731D01*
X17148231Y25437663D01*
X17352143Y25353200D01*
X17572857Y25353200D01*
X17776769Y25437663D01*
X17932837Y25593731D01*
X18017300Y25797643D01*
X18017300Y26018357D01*
X17932837Y26222269D01*
X17776769Y26378337D01*
X17572857Y26462800D01*
X17352143Y26462800D01*
X17148231Y26378337D01*
X16992163Y26222269D01*
X16907700Y26018357D01*
X-4446200Y26018357D01*
X-4446200Y26970857D01*
X16209200Y26970857D01*
X16209200Y26750143D01*
X16293663Y26546231D01*
X16449731Y26390163D01*
X16653643Y26305700D01*
X16874357Y26305700D01*
X17078269Y26390163D01*
X17234337Y26546231D01*
X17318800Y26750143D01*
X17318800Y26843857D01*
X22749700Y26843857D01*
X22749700Y26623143D01*
X22834163Y26419231D01*
X22990231Y26263163D01*
X23194143Y26178700D01*
X23414857Y26178700D01*
X23618769Y26263163D01*
X23774837Y26419231D01*
X23859300Y26623143D01*
X23859300Y26674674D01*
X23924564Y26647641D01*
X24145278Y26647641D01*
X24349190Y26732104D01*
X24505258Y26888172D01*
X24589721Y27092084D01*
X24589721Y27312798D01*
X24505258Y27516710D01*
X24349190Y27672778D01*
X24145278Y27757241D01*
X23924564Y27757241D01*
X23720652Y27672778D01*
X23564584Y27516710D01*
X23480121Y27312798D01*
X23480121Y27261267D01*
X23414857Y27288300D01*
X23194143Y27288300D01*
X22990231Y27203837D01*
X22834163Y27047769D01*
X22749700Y26843857D01*
X17318800Y26843857D01*
X17318800Y26970857D01*
X17234337Y27174769D01*
X17078269Y27330837D01*
X16874357Y27415300D01*
X16653643Y27415300D01*
X16449731Y27330837D01*
X16293663Y27174769D01*
X16209200Y26970857D01*
X-4446200Y26970857D01*
X-4446200Y27923357D01*
X22114700Y27923357D01*
X22114700Y27702643D01*
X22199163Y27498731D01*
X22355231Y27342663D01*
X22559143Y27258200D01*
X22779857Y27258200D01*
X22983769Y27342663D01*
X23139837Y27498731D01*
X23224300Y27702643D01*
X23224300Y27812187D01*
X26069200Y27812187D01*
X26069201Y26543812D01*
X26118797Y26294474D01*
X26307725Y26011724D01*
X26590475Y25822796D01*
X26924000Y25756454D01*
X27257526Y25822796D01*
X27540276Y26011724D01*
X27729204Y26294474D01*
X27778800Y26543812D01*
X27778800Y27812188D01*
X27729204Y28061526D01*
X27540276Y28344276D01*
X27257525Y28533204D01*
X27175188Y28549582D01*
X27330837Y28705231D01*
X27415300Y28909143D01*
X27415300Y29129857D01*
X27330837Y29333769D01*
X27174769Y29489837D01*
X26970857Y29574300D01*
X26750143Y29574300D01*
X26546231Y29489837D01*
X26390163Y29333769D01*
X26305700Y29129857D01*
X26305700Y28909143D01*
X26390163Y28705231D01*
X26546231Y28549163D01*
X26588287Y28531743D01*
X26307724Y28344276D01*
X26118796Y28061525D01*
X26069200Y27812187D01*
X23224300Y27812187D01*
X23224300Y27923357D01*
X23139837Y28127269D01*
X22983769Y28283337D01*
X22779857Y28367800D01*
X22559143Y28367800D01*
X22355231Y28283337D01*
X22199163Y28127269D01*
X22114700Y27923357D01*
X-4446200Y27923357D01*
X-4446200Y28621857D01*
X20971700Y28621857D01*
X20971700Y28401143D01*
X21056163Y28197231D01*
X21212231Y28041163D01*
X21416143Y27956700D01*
X21636857Y27956700D01*
X21840769Y28041163D01*
X21996837Y28197231D01*
X22081300Y28401143D01*
X22081300Y28621857D01*
X21996837Y28825769D01*
X21840769Y28981837D01*
X21636857Y29066300D01*
X21416143Y29066300D01*
X21212231Y28981837D01*
X21056163Y28825769D01*
X20971700Y28621857D01*
X-4446200Y28621857D01*
X-4446200Y31098357D01*
X7319200Y31098357D01*
X7319200Y30877643D01*
X7403663Y30673731D01*
X7559731Y30517663D01*
X7763643Y30433200D01*
X7902215Y30433200D01*
X7755284Y30286269D01*
X7670821Y30082357D01*
X7670821Y29861643D01*
X7755284Y29657731D01*
X7911352Y29501663D01*
X8115264Y29417200D01*
X8335978Y29417200D01*
X8539890Y29501663D01*
X8695958Y29657731D01*
X8780421Y29861643D01*
X8780421Y30082357D01*
X8695958Y30286269D01*
X8570040Y30412187D01*
X23919200Y30412187D01*
X23919200Y29543812D01*
X23968797Y29294474D01*
X24157725Y29011724D01*
X24440475Y28822796D01*
X24774000Y28756454D01*
X25107526Y28822796D01*
X25390276Y29011724D01*
X25579204Y29294474D01*
X25628800Y29543812D01*
X25628800Y30412188D01*
X25588994Y30612312D01*
X27029700Y30612312D01*
X27029700Y30343689D01*
X27093801Y30021430D01*
X27337984Y29655984D01*
X27703429Y29411801D01*
X28134500Y29326056D01*
X28565570Y29411801D01*
X28931016Y29655984D01*
X29175199Y30021429D01*
X29239300Y30343688D01*
X29239300Y30612311D01*
X29175199Y30934570D01*
X28931016Y31300016D01*
X28565571Y31544199D01*
X28134500Y31629944D01*
X27703430Y31544199D01*
X27337984Y31300016D01*
X27093801Y30934571D01*
X27029700Y30612312D01*
X25588994Y30612312D01*
X25579204Y30661526D01*
X25390276Y30944276D01*
X25107525Y31133204D01*
X24774000Y31199546D01*
X24440474Y31133204D01*
X24157724Y30944276D01*
X23968796Y30661525D01*
X23919200Y30412187D01*
X8570040Y30412187D01*
X8539890Y30442337D01*
X8335978Y30526800D01*
X8197406Y30526800D01*
X8344337Y30673731D01*
X8428800Y30877643D01*
X8428800Y31098357D01*
X8344337Y31302269D01*
X8188269Y31458337D01*
X7984357Y31542800D01*
X7763643Y31542800D01*
X7559731Y31458337D01*
X7403663Y31302269D01*
X7319200Y31098357D01*
X-4446200Y31098357D01*
X-4446200Y32114357D01*
X-3094800Y32114357D01*
X-3094800Y31893643D01*
X-3010337Y31689731D01*
X-2854269Y31533663D01*
X-2650357Y31449200D01*
X-2429643Y31449200D01*
X-2225731Y31533663D01*
X-2069663Y31689731D01*
X-1985200Y31893643D01*
X-1985200Y32114357D01*
X-2069663Y32318269D01*
X-2183251Y32431857D01*
X3699700Y32431857D01*
X3699700Y32211143D01*
X3784163Y32007231D01*
X3940231Y31851163D01*
X4144143Y31766700D01*
X4364857Y31766700D01*
X4437662Y31796857D01*
X11192700Y31796857D01*
X11192700Y31576143D01*
X11277163Y31372231D01*
X11433231Y31216163D01*
X11637143Y31131700D01*
X11857857Y31131700D01*
X12061769Y31216163D01*
X12217837Y31372231D01*
X12250133Y31450201D01*
X14265857Y31450201D01*
X14265857Y31229487D01*
X14350320Y31025575D01*
X14506388Y30869507D01*
X14710300Y30785044D01*
X14931014Y30785044D01*
X15134926Y30869507D01*
X15290994Y31025575D01*
X15375457Y31229487D01*
X15375457Y31450201D01*
X15290994Y31654113D01*
X15134926Y31810181D01*
X14931014Y31894644D01*
X14710300Y31894644D01*
X14506388Y31810181D01*
X14350320Y31654113D01*
X14265857Y31450201D01*
X12250133Y31450201D01*
X12302300Y31576143D01*
X12302300Y31796857D01*
X12217837Y32000769D01*
X12061769Y32156837D01*
X11857857Y32241300D01*
X11637143Y32241300D01*
X11433231Y32156837D01*
X11277163Y32000769D01*
X11192700Y31796857D01*
X4437662Y31796857D01*
X4568769Y31851163D01*
X4724837Y32007231D01*
X4809300Y32211143D01*
X4809300Y32431857D01*
X4724837Y32635769D01*
X4568769Y32791837D01*
X4364857Y32876300D01*
X4144143Y32876300D01*
X3940231Y32791837D01*
X3784163Y32635769D01*
X3699700Y32431857D01*
X-2183251Y32431857D01*
X-2225731Y32474337D01*
X-2429643Y32558800D01*
X-2650357Y32558800D01*
X-2854269Y32474337D01*
X-3010337Y32318269D01*
X-3094800Y32114357D01*
X-4446200Y32114357D01*
X-4446200Y33574857D01*
X4334700Y33574857D01*
X4334700Y33354143D01*
X4419163Y33150231D01*
X4575231Y32994163D01*
X4779143Y32909700D01*
X4999857Y32909700D01*
X5048679Y32929922D01*
X5193305Y32785296D01*
X5397217Y32700833D01*
X5617931Y32700833D01*
X5821843Y32785296D01*
X5977911Y32941364D01*
X6062374Y33145276D01*
X6062374Y33365990D01*
X5977911Y33569902D01*
X5845956Y33701857D01*
X7763700Y33701857D01*
X7763700Y33481143D01*
X7848163Y33277231D01*
X8004231Y33121163D01*
X8208143Y33036700D01*
X8335186Y33036700D01*
X8335186Y32909643D01*
X8419649Y32705731D01*
X8575717Y32549663D01*
X8779629Y32465200D01*
X9000343Y32465200D01*
X9204255Y32549663D01*
X9360323Y32705731D01*
X9444786Y32909643D01*
X9444786Y33130357D01*
X9418484Y33193857D01*
X12462700Y33193857D01*
X12462700Y32973143D01*
X12547163Y32769231D01*
X12703231Y32613163D01*
X12907143Y32528700D01*
X13127857Y32528700D01*
X13331769Y32613163D01*
X13404463Y32685857D01*
X27321700Y32685857D01*
X27321700Y32465143D01*
X27406163Y32261231D01*
X27562231Y32105163D01*
X27766143Y32020700D01*
X27986857Y32020700D01*
X28190769Y32105163D01*
X28346837Y32261231D01*
X28431300Y32465143D01*
X28431300Y32685857D01*
X28346837Y32889769D01*
X28190769Y33045837D01*
X27986857Y33130300D01*
X27766143Y33130300D01*
X27562231Y33045837D01*
X27406163Y32889769D01*
X27321700Y32685857D01*
X13404463Y32685857D01*
X13487837Y32769231D01*
X13572300Y32973143D01*
X13572300Y33193857D01*
X13493393Y33384357D01*
X19638200Y33384357D01*
X19638200Y33163643D01*
X19722663Y32959731D01*
X19878731Y32803663D01*
X20082643Y32719200D01*
X20303357Y32719200D01*
X20507269Y32803663D01*
X20663337Y32959731D01*
X20747800Y33163643D01*
X20747800Y33384357D01*
X20663337Y33588269D01*
X20507269Y33744337D01*
X20303357Y33828800D01*
X20082643Y33828800D01*
X19878731Y33744337D01*
X19722663Y33588269D01*
X19638200Y33384357D01*
X13493393Y33384357D01*
X13487837Y33397769D01*
X13331769Y33553837D01*
X13127857Y33638300D01*
X12907143Y33638300D01*
X12703231Y33553837D01*
X12547163Y33397769D01*
X12462700Y33193857D01*
X9418484Y33193857D01*
X9360323Y33334269D01*
X9204255Y33490337D01*
X9000343Y33574800D01*
X8873300Y33574800D01*
X8873300Y33701857D01*
X8788837Y33905769D01*
X8632769Y34061837D01*
X8428857Y34146300D01*
X8208143Y34146300D01*
X8004231Y34061837D01*
X7848163Y33905769D01*
X7763700Y33701857D01*
X5845956Y33701857D01*
X5821843Y33725970D01*
X5617931Y33810433D01*
X5397217Y33810433D01*
X5348395Y33790211D01*
X5203769Y33934837D01*
X4999857Y34019300D01*
X4779143Y34019300D01*
X4575231Y33934837D01*
X4419163Y33778769D01*
X4334700Y33574857D01*
X-4446200Y33574857D01*
X-4446200Y34908357D01*
X14177200Y34908357D01*
X14177200Y34687643D01*
X14261663Y34483731D01*
X14417731Y34327663D01*
X14621643Y34243200D01*
X14842357Y34243200D01*
X15046269Y34327663D01*
X15202337Y34483731D01*
X15286800Y34687643D01*
X15286800Y34908357D01*
X15234195Y35035357D01*
X20146200Y35035357D01*
X20146200Y34814643D01*
X20230663Y34610731D01*
X20386731Y34454663D01*
X20590643Y34370200D01*
X20811357Y34370200D01*
X21015269Y34454663D01*
X21171337Y34610731D01*
X21255800Y34814643D01*
X21255800Y35035357D01*
X21171337Y35239269D01*
X21015269Y35395337D01*
X20811357Y35479800D01*
X20590643Y35479800D01*
X20386731Y35395337D01*
X20230663Y35239269D01*
X20146200Y35035357D01*
X15234195Y35035357D01*
X15202337Y35112269D01*
X15046269Y35268337D01*
X14842357Y35352800D01*
X14621643Y35352800D01*
X14417731Y35268337D01*
X14261663Y35112269D01*
X14177200Y34908357D01*
X-4446200Y34908357D01*
X-4446200Y36432357D01*
X6366700Y36432357D01*
X6366700Y36211643D01*
X6451163Y36007731D01*
X6607231Y35851663D01*
X6811143Y35767200D01*
X7031857Y35767200D01*
X7235769Y35851663D01*
X7391837Y36007731D01*
X7476300Y36211643D01*
X7476300Y36432357D01*
X7423807Y36559087D01*
X7432731Y36550163D01*
X7636643Y36465700D01*
X7857357Y36465700D01*
X7930162Y36495857D01*
X24781700Y36495857D01*
X24781700Y36275143D01*
X24866163Y36071231D01*
X25022231Y35915163D01*
X25226143Y35830700D01*
X25446857Y35830700D01*
X25650769Y35915163D01*
X25806837Y36071231D01*
X25891300Y36275143D01*
X25891300Y36495857D01*
X25806837Y36699769D01*
X25650769Y36855837D01*
X25446857Y36940300D01*
X25226143Y36940300D01*
X25022231Y36855837D01*
X24866163Y36699769D01*
X24781700Y36495857D01*
X7930162Y36495857D01*
X8061269Y36550163D01*
X8217337Y36706231D01*
X8301800Y36910143D01*
X8301800Y37130857D01*
X8217337Y37334769D01*
X8061269Y37490837D01*
X7857357Y37575300D01*
X7636643Y37575300D01*
X7432731Y37490837D01*
X7276663Y37334769D01*
X7192200Y37130857D01*
X7192200Y36910143D01*
X7244693Y36783413D01*
X7235769Y36792337D01*
X7031857Y36876800D01*
X6811143Y36876800D01*
X6607231Y36792337D01*
X6451163Y36636269D01*
X6366700Y36432357D01*
X-4446200Y36432357D01*
X-4446200Y37769072D01*
X12856976Y37769072D01*
X12856976Y37548358D01*
X12941439Y37344446D01*
X13097507Y37188378D01*
X13301419Y37103915D01*
X13522133Y37103915D01*
X13726045Y37188378D01*
X13882113Y37344446D01*
X13966576Y37548358D01*
X13966576Y37769072D01*
X13882113Y37972984D01*
X13726045Y38129052D01*
X13522133Y38213515D01*
X13301419Y38213515D01*
X13097507Y38129052D01*
X12941439Y37972984D01*
X12856976Y37769072D01*
X-4446200Y37769072D01*
X-4446200Y39162857D01*
X5731700Y39162857D01*
X5731700Y38942143D01*
X5816163Y38738231D01*
X5972231Y38582163D01*
X6176143Y38497700D01*
X6396857Y38497700D01*
X6600769Y38582163D01*
X6673463Y38654857D01*
X8525700Y38654857D01*
X8525700Y38434143D01*
X8610163Y38230231D01*
X8766231Y38074163D01*
X8970143Y37989700D01*
X9190857Y37989700D01*
X9394769Y38074163D01*
X9550837Y38230231D01*
X9635300Y38434143D01*
X9635300Y38654857D01*
X9550837Y38858769D01*
X9394769Y39014837D01*
X9334390Y39039847D01*
X15701200Y39039847D01*
X15701200Y38819133D01*
X15785663Y38615221D01*
X15941731Y38459153D01*
X16145643Y38374690D01*
X16366357Y38374690D01*
X16570269Y38459153D01*
X16726337Y38615221D01*
X16810800Y38819133D01*
X16810800Y39039847D01*
X16726337Y39243759D01*
X16570269Y39399827D01*
X16366357Y39484290D01*
X16145643Y39484290D01*
X15941731Y39399827D01*
X15785663Y39243759D01*
X15701200Y39039847D01*
X9334390Y39039847D01*
X9190857Y39099300D01*
X8970143Y39099300D01*
X8766231Y39014837D01*
X8610163Y38858769D01*
X8525700Y38654857D01*
X6673463Y38654857D01*
X6756837Y38738231D01*
X6841300Y38942143D01*
X6841300Y39162857D01*
X6756837Y39366769D01*
X6600769Y39522837D01*
X6396857Y39607300D01*
X6176143Y39607300D01*
X5972231Y39522837D01*
X5816163Y39366769D01*
X5731700Y39162857D01*
X-4446200Y39162857D01*
X-4446200Y39734357D01*
X24718200Y39734357D01*
X24718200Y39513643D01*
X24802663Y39309731D01*
X24958731Y39153663D01*
X25162643Y39069200D01*
X25383357Y39069200D01*
X25587269Y39153663D01*
X25743337Y39309731D01*
X25827800Y39513643D01*
X25827800Y39734357D01*
X25743337Y39938269D01*
X25587269Y40094337D01*
X25383357Y40178800D01*
X25162643Y40178800D01*
X24958731Y40094337D01*
X24802663Y39938269D01*
X24718200Y39734357D01*
X-4446200Y39734357D01*
X-4446200Y43289457D01*
X2239200Y43289457D01*
X2239200Y43068743D01*
X2323663Y42864831D01*
X2479731Y42708763D01*
X2683643Y42624300D01*
X2904357Y42624300D01*
X3108269Y42708763D01*
X3264337Y42864831D01*
X3348800Y43068743D01*
X3348800Y43289457D01*
X3953700Y43289457D01*
X3953700Y43068743D01*
X4038163Y42864831D01*
X4194231Y42708763D01*
X4398143Y42624300D01*
X4618857Y42624300D01*
X4822769Y42708763D01*
X4978837Y42864831D01*
X5063300Y43068743D01*
X5063300Y43073557D01*
X17098200Y43073557D01*
X17098200Y42852843D01*
X17182663Y42648931D01*
X17338731Y42492863D01*
X17542643Y42408400D01*
X17763357Y42408400D01*
X17967269Y42492863D01*
X18002763Y42528357D01*
X26051700Y42528357D01*
X26051700Y42307643D01*
X26136163Y42103731D01*
X26292231Y41947663D01*
X26496143Y41863200D01*
X26716857Y41863200D01*
X26920769Y41947663D01*
X27076837Y42103731D01*
X27161300Y42307643D01*
X27161300Y42528357D01*
X27076837Y42732269D01*
X26920769Y42888337D01*
X26716857Y42972800D01*
X26496143Y42972800D01*
X26292231Y42888337D01*
X26136163Y42732269D01*
X26051700Y42528357D01*
X18002763Y42528357D01*
X18123337Y42648931D01*
X18207800Y42852843D01*
X18207800Y43073557D01*
X18123337Y43277469D01*
X17967269Y43433537D01*
X17763357Y43518000D01*
X17542643Y43518000D01*
X17338731Y43433537D01*
X17182663Y43277469D01*
X17098200Y43073557D01*
X5063300Y43073557D01*
X5063300Y43289457D01*
X4978837Y43493369D01*
X4822769Y43649437D01*
X4618857Y43733900D01*
X4398143Y43733900D01*
X4194231Y43649437D01*
X4038163Y43493369D01*
X3953700Y43289457D01*
X3348800Y43289457D01*
X3264337Y43493369D01*
X3108269Y43649437D01*
X2904357Y43733900D01*
X2683643Y43733900D01*
X2479731Y43649437D01*
X2323663Y43493369D01*
X2239200Y43289457D01*
X-4446200Y43289457D01*
X-4446200Y45893857D01*
X2556700Y45893857D01*
X2556700Y45673143D01*
X2641163Y45469231D01*
X2797231Y45313163D01*
X3001143Y45228700D01*
X3221857Y45228700D01*
X3425769Y45313163D01*
X3581837Y45469231D01*
X3666300Y45673143D01*
X3666300Y45893857D01*
X4398200Y45893857D01*
X4398200Y45673143D01*
X4482663Y45469231D01*
X4638731Y45313163D01*
X4842643Y45228700D01*
X5063357Y45228700D01*
X5267269Y45313163D01*
X5423337Y45469231D01*
X5507800Y45673143D01*
X5507800Y45893857D01*
X26051700Y45893857D01*
X26051700Y45673143D01*
X26136163Y45469231D01*
X26292231Y45313163D01*
X26496143Y45228700D01*
X26716857Y45228700D01*
X26920769Y45313163D01*
X27076837Y45469231D01*
X27161300Y45673143D01*
X27161300Y45893857D01*
X27076837Y46097769D01*
X26920769Y46253837D01*
X26716857Y46338300D01*
X26496143Y46338300D01*
X26292231Y46253837D01*
X26136163Y46097769D01*
X26051700Y45893857D01*
X5507800Y45893857D01*
X5423337Y46097769D01*
X5267269Y46253837D01*
X5063357Y46338300D01*
X4842643Y46338300D01*
X4638731Y46253837D01*
X4482663Y46097769D01*
X4398200Y45893857D01*
X3666300Y45893857D01*
X3581837Y46097769D01*
X3425769Y46253837D01*
X3221857Y46338300D01*
X3001143Y46338300D01*
X2797231Y46253837D01*
X2641163Y46097769D01*
X2556700Y45893857D01*
X-4446200Y45893857D01*
X-4446200Y46846357D01*
X10367200Y46846357D01*
X10367200Y46625643D01*
X10451663Y46421731D01*
X10607731Y46265663D01*
X10811643Y46181200D01*
X11032357Y46181200D01*
X11236269Y46265663D01*
X11392337Y46421731D01*
X11476800Y46625643D01*
X11476800Y46846357D01*
X23257700Y46846357D01*
X23257700Y46625643D01*
X23342163Y46421731D01*
X23498231Y46265663D01*
X23702143Y46181200D01*
X23922857Y46181200D01*
X24126769Y46265663D01*
X24282837Y46421731D01*
X24367300Y46625643D01*
X24367300Y46846357D01*
X24282837Y47050269D01*
X24126769Y47206337D01*
X23922857Y47290800D01*
X23702143Y47290800D01*
X23498231Y47206337D01*
X23342163Y47050269D01*
X23257700Y46846357D01*
X11476800Y46846357D01*
X11392337Y47050269D01*
X11236269Y47206337D01*
X11032357Y47290800D01*
X10811643Y47290800D01*
X10607731Y47206337D01*
X10451663Y47050269D01*
X10367200Y46846357D01*
X-4446200Y46846357D01*
X-4446200Y48052857D01*
X23257700Y48052857D01*
X23257700Y47832143D01*
X23342163Y47628231D01*
X23498231Y47472163D01*
X23702143Y47387700D01*
X23922857Y47387700D01*
X24126769Y47472163D01*
X24282837Y47628231D01*
X24367300Y47832143D01*
X24367300Y48052857D01*
X24351519Y48090957D01*
X28058300Y48090957D01*
X28058300Y47870243D01*
X28142763Y47666331D01*
X28298831Y47510263D01*
X28502743Y47425800D01*
X28723457Y47425800D01*
X28927369Y47510263D01*
X29083437Y47666331D01*
X29167900Y47870243D01*
X29167900Y48090957D01*
X29083437Y48294869D01*
X28927369Y48450937D01*
X28723457Y48535400D01*
X28502743Y48535400D01*
X28298831Y48450937D01*
X28142763Y48294869D01*
X28058300Y48090957D01*
X24351519Y48090957D01*
X24282837Y48256769D01*
X24126769Y48412837D01*
X23922857Y48497300D01*
X23702143Y48497300D01*
X23498231Y48412837D01*
X23342163Y48256769D01*
X23257700Y48052857D01*
X-4446200Y48052857D01*
X-4446200Y50389657D01*
X19828700Y50389657D01*
X19828700Y50168943D01*
X19913163Y49965031D01*
X20069231Y49808963D01*
X20273143Y49724500D01*
X20493857Y49724500D01*
X20697769Y49808963D01*
X20853837Y49965031D01*
X20938300Y50168943D01*
X20938300Y50389657D01*
X20853837Y50593569D01*
X20697769Y50749637D01*
X20493857Y50834100D01*
X20273143Y50834100D01*
X20069231Y50749637D01*
X19913163Y50593569D01*
X19828700Y50389657D01*
X-4446200Y50389657D01*
X-4446200Y51291357D01*
X21670200Y51291357D01*
X21670200Y51070643D01*
X21754663Y50866731D01*
X21910731Y50710663D01*
X22114643Y50626200D01*
X22335357Y50626200D01*
X22539269Y50710663D01*
X22695337Y50866731D01*
X22779800Y51070643D01*
X22779800Y51291357D01*
X22695337Y51495269D01*
X22539269Y51651337D01*
X22335357Y51735800D01*
X22114643Y51735800D01*
X21910731Y51651337D01*
X21754663Y51495269D01*
X21670200Y51291357D01*
X-4446200Y51291357D01*
X-4446200Y54593357D01*
X-1824800Y54593357D01*
X-1824800Y54372643D01*
X-1740337Y54168731D01*
X-1584269Y54012663D01*
X-1380357Y53928200D01*
X-1159643Y53928200D01*
X-955731Y54012663D01*
X-799663Y54168731D01*
X-762000Y54259658D01*
X-724337Y54168731D01*
X-568269Y54012663D01*
X-364357Y53928200D01*
X-143643Y53928200D01*
X60269Y54012663D01*
X216337Y54168731D01*
X254000Y54259658D01*
X291663Y54168731D01*
X447731Y54012663D01*
X651643Y53928200D01*
X872357Y53928200D01*
X1076269Y54012663D01*
X1232337Y54168731D01*
X1270000Y54259658D01*
X1307663Y54168731D01*
X1463731Y54012663D01*
X1667643Y53928200D01*
X1888357Y53928200D01*
X2092269Y54012663D01*
X2248337Y54168731D01*
X2286000Y54259658D01*
X2323663Y54168731D01*
X2479731Y54012663D01*
X2683643Y53928200D01*
X2904357Y53928200D01*
X3108269Y54012663D01*
X3264337Y54168731D01*
X3348800Y54372643D01*
X3348800Y54593357D01*
X5541200Y54593357D01*
X5541200Y54372643D01*
X5625663Y54168731D01*
X5781731Y54012663D01*
X5985643Y53928200D01*
X6206357Y53928200D01*
X6410269Y54012663D01*
X6566337Y54168731D01*
X6604000Y54259658D01*
X6641663Y54168731D01*
X6797731Y54012663D01*
X7001643Y53928200D01*
X7222357Y53928200D01*
X7426269Y54012663D01*
X7582337Y54168731D01*
X7620000Y54259658D01*
X7657663Y54168731D01*
X7813731Y54012663D01*
X8017643Y53928200D01*
X8238357Y53928200D01*
X8442269Y54012663D01*
X8598337Y54168731D01*
X8636000Y54259658D01*
X8673663Y54168731D01*
X8829731Y54012663D01*
X9033643Y53928200D01*
X9254357Y53928200D01*
X9458269Y54012663D01*
X9614337Y54168731D01*
X9698800Y54372643D01*
X9698800Y54593357D01*
X9614337Y54797269D01*
X9458269Y54953337D01*
X9254357Y55037800D01*
X9033643Y55037800D01*
X8829731Y54953337D01*
X8673663Y54797269D01*
X8636000Y54706342D01*
X8598337Y54797269D01*
X8442269Y54953337D01*
X8238357Y55037800D01*
X8017643Y55037800D01*
X7813731Y54953337D01*
X7657663Y54797269D01*
X7620000Y54706342D01*
X7582337Y54797269D01*
X7426269Y54953337D01*
X7222357Y55037800D01*
X7001643Y55037800D01*
X6797731Y54953337D01*
X6641663Y54797269D01*
X6604000Y54706342D01*
X6566337Y54797269D01*
X6410269Y54953337D01*
X6206357Y55037800D01*
X5985643Y55037800D01*
X5781731Y54953337D01*
X5625663Y54797269D01*
X5541200Y54593357D01*
X3348800Y54593357D01*
X3264337Y54797269D01*
X3108269Y54953337D01*
X2904357Y55037800D01*
X2683643Y55037800D01*
X2479731Y54953337D01*
X2323663Y54797269D01*
X2286000Y54706342D01*
X2248337Y54797269D01*
X2092269Y54953337D01*
X1888357Y55037800D01*
X1667643Y55037800D01*
X1463731Y54953337D01*
X1307663Y54797269D01*
X1270000Y54706342D01*
X1232337Y54797269D01*
X1076269Y54953337D01*
X872357Y55037800D01*
X651643Y55037800D01*
X447731Y54953337D01*
X291663Y54797269D01*
X254000Y54706342D01*
X216337Y54797269D01*
X60269Y54953337D01*
X-143643Y55037800D01*
X-364357Y55037800D01*
X-568269Y54953337D01*
X-724337Y54797269D01*
X-762000Y54706342D01*
X-799663Y54797269D01*
X-955731Y54953337D01*
X-1159643Y55037800D01*
X-1380357Y55037800D01*
X-1584269Y54953337D01*
X-1740337Y54797269D01*
X-1824800Y54593357D01*
X-4446200Y54593357D01*
X-4446200Y60054357D01*
X7636700Y60054357D01*
X7636700Y59833643D01*
X7721163Y59629731D01*
X7877231Y59473663D01*
X8081143Y59389200D01*
X8301857Y59389200D01*
X8505769Y59473663D01*
X8661837Y59629731D01*
X8746300Y59833643D01*
X8746300Y60054357D01*
X8661837Y60258269D01*
X8505769Y60414337D01*
X8301857Y60498800D01*
X8081143Y60498800D01*
X7877231Y60414337D01*
X7721163Y60258269D01*
X7636700Y60054357D01*
X-4446200Y60054357D01*
X-4446200Y61947857D01*
X-4302871Y61601831D01*
X-3837369Y61136329D01*
X-3229160Y60884400D01*
X-2570840Y60884400D01*
X-1962631Y61136329D01*
X-1497129Y61601831D01*
X-1245200Y62210040D01*
X-1245200Y62213357D01*
X17225200Y62213357D01*
X17225200Y61992643D01*
X17309663Y61788731D01*
X17465731Y61632663D01*
X17669643Y61548200D01*
X17890357Y61548200D01*
X18094269Y61632663D01*
X18250337Y61788731D01*
X18334800Y61992643D01*
X18334800Y62022857D01*
X19066700Y62022857D01*
X19066700Y61802143D01*
X19151163Y61598231D01*
X19307231Y61442163D01*
X19511143Y61357700D01*
X19731857Y61357700D01*
X19935769Y61442163D01*
X20091837Y61598231D01*
X20176300Y61802143D01*
X20176300Y62022857D01*
X20091837Y62226769D01*
X19935769Y62382837D01*
X19731857Y62467300D01*
X19511143Y62467300D01*
X19307231Y62382837D01*
X19151163Y62226769D01*
X19066700Y62022857D01*
X18334800Y62022857D01*
X18334800Y62213357D01*
X18250337Y62417269D01*
X18094269Y62573337D01*
X17890357Y62657800D01*
X17669643Y62657800D01*
X17465731Y62573337D01*
X17309663Y62417269D01*
X17225200Y62213357D01*
X-1245200Y62213357D01*
X-1245200Y62868360D01*
X-1497129Y63476569D01*
X-1630917Y63610357D01*
X7573200Y63610357D01*
X7573200Y63389643D01*
X7657663Y63185731D01*
X7813731Y63029663D01*
X8017643Y62945200D01*
X8238357Y62945200D01*
X8442269Y63029663D01*
X8598337Y63185731D01*
X8682800Y63389643D01*
X8682800Y63610357D01*
X8598337Y63814269D01*
X8442269Y63970337D01*
X8238357Y64054800D01*
X8017643Y64054800D01*
X7813731Y63970337D01*
X7657663Y63814269D01*
X7573200Y63610357D01*
X-1630917Y63610357D01*
X-1962631Y63942071D01*
X-2570840Y64194000D01*
X-3229160Y64194000D01*
X-3837369Y63942071D01*
X-4302871Y63476569D01*
X-4446200Y63130543D01*
X-4446200Y63716595D01*
X-4390899Y63994614D01*
X-4254599Y64198599D01*
X-4050614Y64334899D01*
X-3772595Y64390200D01*
X28664595Y64390200D01*
X28942614Y64334899D01*
G04 #@! TO.N,/SENSOR_3V3*
G36*
X17424400Y3885822D02*
X17338731Y3850337D01*
X17182663Y3694269D01*
X17098200Y3490357D01*
X17098200Y3269643D01*
X17182663Y3065731D01*
X17338731Y2909663D01*
X17424400Y2874178D01*
X17424400Y-5208200D01*
X-2070133Y-5208200D01*
X-1962631Y-5163671D01*
X-1497129Y-4698169D01*
X-1245200Y-4089960D01*
X-1245200Y-3431640D01*
X-1497129Y-2823431D01*
X-1962631Y-2357929D01*
X-2570840Y-2106000D01*
X-3229160Y-2106000D01*
X-3837369Y-2357929D01*
X-4302871Y-2823431D01*
X-4446200Y-3169457D01*
X-4446200Y-499243D01*
X-3298000Y-499243D01*
X-3298000Y-719957D01*
X-3213537Y-923869D01*
X-3057469Y-1079937D01*
X-2853557Y-1164400D01*
X-2632843Y-1164400D01*
X-2428931Y-1079937D01*
X-2381637Y-1032643D01*
X1756602Y-1032643D01*
X1756602Y-1253357D01*
X1841065Y-1457269D01*
X1997133Y-1613337D01*
X2201045Y-1697800D01*
X2421759Y-1697800D01*
X2505125Y-1663269D01*
X2425263Y-1743131D01*
X2340800Y-1947043D01*
X2340800Y-2167757D01*
X2425263Y-2371669D01*
X2581331Y-2527737D01*
X2785243Y-2612200D01*
X3005957Y-2612200D01*
X3209869Y-2527737D01*
X3365937Y-2371669D01*
X3450400Y-2167757D01*
X3450400Y-1947043D01*
X3365937Y-1743131D01*
X3209869Y-1587063D01*
X3005957Y-1502600D01*
X2785243Y-1502600D01*
X2701877Y-1537131D01*
X2781739Y-1457269D01*
X2866202Y-1253357D01*
X2866202Y-1032643D01*
X2781739Y-828731D01*
X2625671Y-672663D01*
X2421759Y-588200D01*
X2201045Y-588200D01*
X1997133Y-672663D01*
X1841065Y-828731D01*
X1756602Y-1032643D01*
X-2381637Y-1032643D01*
X-2272863Y-923869D01*
X-2188400Y-719957D01*
X-2188400Y-499243D01*
X-2272863Y-295331D01*
X-2428931Y-139263D01*
X-2632843Y-54800D01*
X-2853557Y-54800D01*
X-3057469Y-139263D01*
X-3213537Y-295331D01*
X-3298000Y-499243D01*
X-4446200Y-499243D01*
X-4446200Y681857D01*
X4842700Y681857D01*
X4842700Y461143D01*
X4927163Y257231D01*
X5083231Y101163D01*
X5287143Y16700D01*
X5507857Y16700D01*
X5711769Y101163D01*
X5867837Y257231D01*
X5952300Y461143D01*
X5952300Y681857D01*
X5867837Y885769D01*
X5711769Y1041837D01*
X5507857Y1126300D01*
X5287143Y1126300D01*
X5083231Y1041837D01*
X4927163Y885769D01*
X4842700Y681857D01*
X-4446200Y681857D01*
X-4446200Y1507357D01*
X-999300Y1507357D01*
X-999300Y1286643D01*
X-914837Y1082731D01*
X-758769Y926663D01*
X-554857Y842200D01*
X-334143Y842200D01*
X-130231Y926663D01*
X25837Y1082731D01*
X110300Y1286643D01*
X110300Y1507357D01*
X25837Y1711269D01*
X-130231Y1867337D01*
X-334143Y1951800D01*
X-554857Y1951800D01*
X-758769Y1867337D01*
X-914837Y1711269D01*
X-999300Y1507357D01*
X-4446200Y1507357D01*
X-4446200Y3451357D01*
X13796200Y3451357D01*
X13796200Y3230643D01*
X13880663Y3026731D01*
X14036731Y2870663D01*
X14240643Y2786200D01*
X14461357Y2786200D01*
X14665269Y2870663D01*
X14821337Y3026731D01*
X14905800Y3230643D01*
X14905800Y3451357D01*
X14889646Y3490357D01*
X15510700Y3490357D01*
X15510700Y3269643D01*
X15595163Y3065731D01*
X15751231Y2909663D01*
X15955143Y2825200D01*
X16175857Y2825200D01*
X16379769Y2909663D01*
X16535837Y3065731D01*
X16620300Y3269643D01*
X16620300Y3490357D01*
X16535837Y3694269D01*
X16379769Y3850337D01*
X16175857Y3934800D01*
X15955143Y3934800D01*
X15751231Y3850337D01*
X15595163Y3694269D01*
X15510700Y3490357D01*
X14889646Y3490357D01*
X14821337Y3655269D01*
X14665269Y3811337D01*
X14461357Y3895800D01*
X14240643Y3895800D01*
X14036731Y3811337D01*
X13880663Y3655269D01*
X13796200Y3451357D01*
X-4446200Y3451357D01*
X-4446200Y9086557D01*
X1934400Y9086557D01*
X1934400Y8865843D01*
X2018863Y8661931D01*
X2174931Y8505863D01*
X2378843Y8421400D01*
X2599557Y8421400D01*
X2803469Y8505863D01*
X2959537Y8661931D01*
X3044000Y8865843D01*
X3044000Y9086557D01*
X2959537Y9290469D01*
X2803469Y9446537D01*
X2599557Y9531000D01*
X2378843Y9531000D01*
X2174931Y9446537D01*
X2018863Y9290469D01*
X1934400Y9086557D01*
X-4446200Y9086557D01*
X-4446200Y10333857D01*
X-2777300Y10333857D01*
X-2777300Y10113143D01*
X-2692837Y9909231D01*
X-2536769Y9753163D01*
X-2332857Y9668700D01*
X-2112143Y9668700D01*
X-1908231Y9753163D01*
X-1752163Y9909231D01*
X-1667700Y10113143D01*
X-1667700Y10333857D01*
X-1694002Y10397357D01*
X4906200Y10397357D01*
X4906200Y10176643D01*
X4990663Y9972731D01*
X5146731Y9816663D01*
X5350643Y9732200D01*
X5571357Y9732200D01*
X5775269Y9816663D01*
X5931337Y9972731D01*
X6015800Y10176643D01*
X6015800Y10397357D01*
X5931337Y10601269D01*
X5775269Y10757337D01*
X5571357Y10841800D01*
X5350643Y10841800D01*
X5146731Y10757337D01*
X4990663Y10601269D01*
X4906200Y10397357D01*
X-1694002Y10397357D01*
X-1752163Y10537769D01*
X-1908231Y10693837D01*
X-2112143Y10778300D01*
X-2332857Y10778300D01*
X-2536769Y10693837D01*
X-2692837Y10537769D01*
X-2777300Y10333857D01*
X-4446200Y10333857D01*
X-4446200Y11963400D01*
X17424400Y11963400D01*
X17424400Y3885822D01*
X17424400Y3885822D01*
G37*
X17424400Y3885822D02*
X17338731Y3850337D01*
X17182663Y3694269D01*
X17098200Y3490357D01*
X17098200Y3269643D01*
X17182663Y3065731D01*
X17338731Y2909663D01*
X17424400Y2874178D01*
X17424400Y-5208200D01*
X-2070133Y-5208200D01*
X-1962631Y-5163671D01*
X-1497129Y-4698169D01*
X-1245200Y-4089960D01*
X-1245200Y-3431640D01*
X-1497129Y-2823431D01*
X-1962631Y-2357929D01*
X-2570840Y-2106000D01*
X-3229160Y-2106000D01*
X-3837369Y-2357929D01*
X-4302871Y-2823431D01*
X-4446200Y-3169457D01*
X-4446200Y-499243D01*
X-3298000Y-499243D01*
X-3298000Y-719957D01*
X-3213537Y-923869D01*
X-3057469Y-1079937D01*
X-2853557Y-1164400D01*
X-2632843Y-1164400D01*
X-2428931Y-1079937D01*
X-2381637Y-1032643D01*
X1756602Y-1032643D01*
X1756602Y-1253357D01*
X1841065Y-1457269D01*
X1997133Y-1613337D01*
X2201045Y-1697800D01*
X2421759Y-1697800D01*
X2505125Y-1663269D01*
X2425263Y-1743131D01*
X2340800Y-1947043D01*
X2340800Y-2167757D01*
X2425263Y-2371669D01*
X2581331Y-2527737D01*
X2785243Y-2612200D01*
X3005957Y-2612200D01*
X3209869Y-2527737D01*
X3365937Y-2371669D01*
X3450400Y-2167757D01*
X3450400Y-1947043D01*
X3365937Y-1743131D01*
X3209869Y-1587063D01*
X3005957Y-1502600D01*
X2785243Y-1502600D01*
X2701877Y-1537131D01*
X2781739Y-1457269D01*
X2866202Y-1253357D01*
X2866202Y-1032643D01*
X2781739Y-828731D01*
X2625671Y-672663D01*
X2421759Y-588200D01*
X2201045Y-588200D01*
X1997133Y-672663D01*
X1841065Y-828731D01*
X1756602Y-1032643D01*
X-2381637Y-1032643D01*
X-2272863Y-923869D01*
X-2188400Y-719957D01*
X-2188400Y-499243D01*
X-2272863Y-295331D01*
X-2428931Y-139263D01*
X-2632843Y-54800D01*
X-2853557Y-54800D01*
X-3057469Y-139263D01*
X-3213537Y-295331D01*
X-3298000Y-499243D01*
X-4446200Y-499243D01*
X-4446200Y681857D01*
X4842700Y681857D01*
X4842700Y461143D01*
X4927163Y257231D01*
X5083231Y101163D01*
X5287143Y16700D01*
X5507857Y16700D01*
X5711769Y101163D01*
X5867837Y257231D01*
X5952300Y461143D01*
X5952300Y681857D01*
X5867837Y885769D01*
X5711769Y1041837D01*
X5507857Y1126300D01*
X5287143Y1126300D01*
X5083231Y1041837D01*
X4927163Y885769D01*
X4842700Y681857D01*
X-4446200Y681857D01*
X-4446200Y1507357D01*
X-999300Y1507357D01*
X-999300Y1286643D01*
X-914837Y1082731D01*
X-758769Y926663D01*
X-554857Y842200D01*
X-334143Y842200D01*
X-130231Y926663D01*
X25837Y1082731D01*
X110300Y1286643D01*
X110300Y1507357D01*
X25837Y1711269D01*
X-130231Y1867337D01*
X-334143Y1951800D01*
X-554857Y1951800D01*
X-758769Y1867337D01*
X-914837Y1711269D01*
X-999300Y1507357D01*
X-4446200Y1507357D01*
X-4446200Y3451357D01*
X13796200Y3451357D01*
X13796200Y3230643D01*
X13880663Y3026731D01*
X14036731Y2870663D01*
X14240643Y2786200D01*
X14461357Y2786200D01*
X14665269Y2870663D01*
X14821337Y3026731D01*
X14905800Y3230643D01*
X14905800Y3451357D01*
X14889646Y3490357D01*
X15510700Y3490357D01*
X15510700Y3269643D01*
X15595163Y3065731D01*
X15751231Y2909663D01*
X15955143Y2825200D01*
X16175857Y2825200D01*
X16379769Y2909663D01*
X16535837Y3065731D01*
X16620300Y3269643D01*
X16620300Y3490357D01*
X16535837Y3694269D01*
X16379769Y3850337D01*
X16175857Y3934800D01*
X15955143Y3934800D01*
X15751231Y3850337D01*
X15595163Y3694269D01*
X15510700Y3490357D01*
X14889646Y3490357D01*
X14821337Y3655269D01*
X14665269Y3811337D01*
X14461357Y3895800D01*
X14240643Y3895800D01*
X14036731Y3811337D01*
X13880663Y3655269D01*
X13796200Y3451357D01*
X-4446200Y3451357D01*
X-4446200Y9086557D01*
X1934400Y9086557D01*
X1934400Y8865843D01*
X2018863Y8661931D01*
X2174931Y8505863D01*
X2378843Y8421400D01*
X2599557Y8421400D01*
X2803469Y8505863D01*
X2959537Y8661931D01*
X3044000Y8865843D01*
X3044000Y9086557D01*
X2959537Y9290469D01*
X2803469Y9446537D01*
X2599557Y9531000D01*
X2378843Y9531000D01*
X2174931Y9446537D01*
X2018863Y9290469D01*
X1934400Y9086557D01*
X-4446200Y9086557D01*
X-4446200Y10333857D01*
X-2777300Y10333857D01*
X-2777300Y10113143D01*
X-2692837Y9909231D01*
X-2536769Y9753163D01*
X-2332857Y9668700D01*
X-2112143Y9668700D01*
X-1908231Y9753163D01*
X-1752163Y9909231D01*
X-1667700Y10113143D01*
X-1667700Y10333857D01*
X-1694002Y10397357D01*
X4906200Y10397357D01*
X4906200Y10176643D01*
X4990663Y9972731D01*
X5146731Y9816663D01*
X5350643Y9732200D01*
X5571357Y9732200D01*
X5775269Y9816663D01*
X5931337Y9972731D01*
X6015800Y10176643D01*
X6015800Y10397357D01*
X5931337Y10601269D01*
X5775269Y10757337D01*
X5571357Y10841800D01*
X5350643Y10841800D01*
X5146731Y10757337D01*
X4990663Y10601269D01*
X4906200Y10397357D01*
X-1694002Y10397357D01*
X-1752163Y10537769D01*
X-1908231Y10693837D01*
X-2112143Y10778300D01*
X-2332857Y10778300D01*
X-2536769Y10693837D01*
X-2692837Y10537769D01*
X-2777300Y10333857D01*
X-4446200Y10333857D01*
X-4446200Y11963400D01*
X17424400Y11963400D01*
X17424400Y3885822D01*
G04 #@! TO.N,/PERIPH_3V3*
G36*
X25183663Y11998269D02*
X25099200Y11794357D01*
X25099200Y11573643D01*
X25183663Y11369731D01*
X25339731Y11213663D01*
X25543643Y11129200D01*
X25764357Y11129200D01*
X25968269Y11213663D01*
X26124337Y11369731D01*
X26208800Y11573643D01*
X26208800Y11794357D01*
X26124337Y11998269D01*
X26032206Y12090400D01*
X26545794Y12090400D01*
X26453663Y11998269D01*
X26369200Y11794357D01*
X26369200Y11573643D01*
X26453663Y11369731D01*
X26609731Y11213663D01*
X26813643Y11129200D01*
X27034357Y11129200D01*
X27238269Y11213663D01*
X27394337Y11369731D01*
X27478800Y11573643D01*
X27478800Y11794357D01*
X27394337Y11998269D01*
X27302206Y12090400D01*
X29338200Y12090400D01*
X29338200Y-2901963D01*
X29305671Y-2823431D01*
X28840169Y-2357929D01*
X28231960Y-2106000D01*
X27573640Y-2106000D01*
X26965431Y-2357929D01*
X26499929Y-2823431D01*
X26248000Y-3431640D01*
X26248000Y-4089960D01*
X26499929Y-4698169D01*
X26965431Y-5163671D01*
X27072933Y-5208200D01*
X17881600Y-5208200D01*
X17881600Y1888357D01*
X26623200Y1888357D01*
X26623200Y1667643D01*
X26707663Y1463731D01*
X26863731Y1307663D01*
X27067643Y1223200D01*
X27288357Y1223200D01*
X27492269Y1307663D01*
X27648337Y1463731D01*
X27732800Y1667643D01*
X27732800Y1888357D01*
X27648337Y2092269D01*
X27492269Y2248337D01*
X27288357Y2332800D01*
X27067643Y2332800D01*
X26863731Y2248337D01*
X26707663Y2092269D01*
X26623200Y1888357D01*
X17881600Y1888357D01*
X17881600Y2874178D01*
X17967269Y2909663D01*
X18123337Y3065731D01*
X18207800Y3269643D01*
X18207800Y3475857D01*
X18749200Y3475857D01*
X18749200Y3255143D01*
X18833663Y3051231D01*
X18989731Y2895163D01*
X19193643Y2810700D01*
X19414357Y2810700D01*
X19618269Y2895163D01*
X19774337Y3051231D01*
X19858800Y3255143D01*
X19858800Y3451357D01*
X20400200Y3451357D01*
X20400200Y3230643D01*
X20484663Y3026731D01*
X20640731Y2870663D01*
X20844643Y2786200D01*
X21065357Y2786200D01*
X21269269Y2870663D01*
X21425337Y3026731D01*
X21509800Y3230643D01*
X21509800Y3451357D01*
X21425337Y3655269D01*
X21269269Y3811337D01*
X21065357Y3895800D01*
X20844643Y3895800D01*
X20640731Y3811337D01*
X20484663Y3655269D01*
X20400200Y3451357D01*
X19858800Y3451357D01*
X19858800Y3475857D01*
X19774337Y3679769D01*
X19618269Y3835837D01*
X19414357Y3920300D01*
X19193643Y3920300D01*
X18989731Y3835837D01*
X18833663Y3679769D01*
X18749200Y3475857D01*
X18207800Y3475857D01*
X18207800Y3490357D01*
X18123337Y3694269D01*
X17967269Y3850337D01*
X17881600Y3885822D01*
X17881600Y5444357D01*
X22813200Y5444357D01*
X22813200Y5223643D01*
X22897663Y5019731D01*
X23053731Y4863663D01*
X23257643Y4779200D01*
X23478357Y4779200D01*
X23682269Y4863663D01*
X23838337Y5019731D01*
X23876000Y5110658D01*
X23913663Y5019731D01*
X24069731Y4863663D01*
X24273643Y4779200D01*
X24494357Y4779200D01*
X24698269Y4863663D01*
X24854337Y5019731D01*
X24938800Y5223643D01*
X24938800Y5444357D01*
X24854337Y5648269D01*
X24698269Y5804337D01*
X24494357Y5888800D01*
X24273643Y5888800D01*
X24069731Y5804337D01*
X23913663Y5648269D01*
X23876000Y5557342D01*
X23838337Y5648269D01*
X23682269Y5804337D01*
X23478357Y5888800D01*
X23257643Y5888800D01*
X23053731Y5804337D01*
X22897663Y5648269D01*
X22813200Y5444357D01*
X17881600Y5444357D01*
X17881600Y8682857D01*
X21098700Y8682857D01*
X21098700Y8462143D01*
X21183163Y8258231D01*
X21339231Y8102163D01*
X21543143Y8017700D01*
X21763857Y8017700D01*
X21967769Y8102163D01*
X22123837Y8258231D01*
X22208300Y8462143D01*
X22208300Y8682857D01*
X22123837Y8886769D01*
X21967769Y9042837D01*
X21763857Y9127300D01*
X21543143Y9127300D01*
X21339231Y9042837D01*
X21183163Y8886769D01*
X21098700Y8682857D01*
X17881600Y8682857D01*
X17881600Y12090400D01*
X25275794Y12090400D01*
X25183663Y11998269D01*
X25183663Y11998269D01*
G37*
X25183663Y11998269D02*
X25099200Y11794357D01*
X25099200Y11573643D01*
X25183663Y11369731D01*
X25339731Y11213663D01*
X25543643Y11129200D01*
X25764357Y11129200D01*
X25968269Y11213663D01*
X26124337Y11369731D01*
X26208800Y11573643D01*
X26208800Y11794357D01*
X26124337Y11998269D01*
X26032206Y12090400D01*
X26545794Y12090400D01*
X26453663Y11998269D01*
X26369200Y11794357D01*
X26369200Y11573643D01*
X26453663Y11369731D01*
X26609731Y11213663D01*
X26813643Y11129200D01*
X27034357Y11129200D01*
X27238269Y11213663D01*
X27394337Y11369731D01*
X27478800Y11573643D01*
X27478800Y11794357D01*
X27394337Y11998269D01*
X27302206Y12090400D01*
X29338200Y12090400D01*
X29338200Y-2901963D01*
X29305671Y-2823431D01*
X28840169Y-2357929D01*
X28231960Y-2106000D01*
X27573640Y-2106000D01*
X26965431Y-2357929D01*
X26499929Y-2823431D01*
X26248000Y-3431640D01*
X26248000Y-4089960D01*
X26499929Y-4698169D01*
X26965431Y-5163671D01*
X27072933Y-5208200D01*
X17881600Y-5208200D01*
X17881600Y1888357D01*
X26623200Y1888357D01*
X26623200Y1667643D01*
X26707663Y1463731D01*
X26863731Y1307663D01*
X27067643Y1223200D01*
X27288357Y1223200D01*
X27492269Y1307663D01*
X27648337Y1463731D01*
X27732800Y1667643D01*
X27732800Y1888357D01*
X27648337Y2092269D01*
X27492269Y2248337D01*
X27288357Y2332800D01*
X27067643Y2332800D01*
X26863731Y2248337D01*
X26707663Y2092269D01*
X26623200Y1888357D01*
X17881600Y1888357D01*
X17881600Y2874178D01*
X17967269Y2909663D01*
X18123337Y3065731D01*
X18207800Y3269643D01*
X18207800Y3475857D01*
X18749200Y3475857D01*
X18749200Y3255143D01*
X18833663Y3051231D01*
X18989731Y2895163D01*
X19193643Y2810700D01*
X19414357Y2810700D01*
X19618269Y2895163D01*
X19774337Y3051231D01*
X19858800Y3255143D01*
X19858800Y3451357D01*
X20400200Y3451357D01*
X20400200Y3230643D01*
X20484663Y3026731D01*
X20640731Y2870663D01*
X20844643Y2786200D01*
X21065357Y2786200D01*
X21269269Y2870663D01*
X21425337Y3026731D01*
X21509800Y3230643D01*
X21509800Y3451357D01*
X21425337Y3655269D01*
X21269269Y3811337D01*
X21065357Y3895800D01*
X20844643Y3895800D01*
X20640731Y3811337D01*
X20484663Y3655269D01*
X20400200Y3451357D01*
X19858800Y3451357D01*
X19858800Y3475857D01*
X19774337Y3679769D01*
X19618269Y3835837D01*
X19414357Y3920300D01*
X19193643Y3920300D01*
X18989731Y3835837D01*
X18833663Y3679769D01*
X18749200Y3475857D01*
X18207800Y3475857D01*
X18207800Y3490357D01*
X18123337Y3694269D01*
X17967269Y3850337D01*
X17881600Y3885822D01*
X17881600Y5444357D01*
X22813200Y5444357D01*
X22813200Y5223643D01*
X22897663Y5019731D01*
X23053731Y4863663D01*
X23257643Y4779200D01*
X23478357Y4779200D01*
X23682269Y4863663D01*
X23838337Y5019731D01*
X23876000Y5110658D01*
X23913663Y5019731D01*
X24069731Y4863663D01*
X24273643Y4779200D01*
X24494357Y4779200D01*
X24698269Y4863663D01*
X24854337Y5019731D01*
X24938800Y5223643D01*
X24938800Y5444357D01*
X24854337Y5648269D01*
X24698269Y5804337D01*
X24494357Y5888800D01*
X24273643Y5888800D01*
X24069731Y5804337D01*
X23913663Y5648269D01*
X23876000Y5557342D01*
X23838337Y5648269D01*
X23682269Y5804337D01*
X23478357Y5888800D01*
X23257643Y5888800D01*
X23053731Y5804337D01*
X22897663Y5648269D01*
X22813200Y5444357D01*
X17881600Y5444357D01*
X17881600Y8682857D01*
X21098700Y8682857D01*
X21098700Y8462143D01*
X21183163Y8258231D01*
X21339231Y8102163D01*
X21543143Y8017700D01*
X21763857Y8017700D01*
X21967769Y8102163D01*
X22123837Y8258231D01*
X22208300Y8462143D01*
X22208300Y8682857D01*
X22123837Y8886769D01*
X21967769Y9042837D01*
X21763857Y9127300D01*
X21543143Y9127300D01*
X21339231Y9042837D01*
X21183163Y8886769D01*
X21098700Y8682857D01*
X17881600Y8682857D01*
X17881600Y12090400D01*
X25275794Y12090400D01*
X25183663Y11998269D01*
G04 #@! TD*
M02*
