G04 #@! TF.GenerationSoftware,KiCad,Pcbnew,(5.0.0)*
G04 #@! TF.CreationDate,2019-01-02T14:39:17-06:00*
G04 #@! TF.ProjectId,fk-sonar,666B2D736F6E61722E6B696361645F70,0.1*
G04 #@! TF.SameCoordinates,PX791ddc0PY791ddc0*
G04 #@! TF.FileFunction,Soldermask,Top*
G04 #@! TF.FilePolarity,Negative*
%FSLAX46Y46*%
G04 Gerber Fmt 4.6, Leading zero omitted, Abs format (unit mm)*
G04 Created by KiCad (PCBNEW (5.0.0)) date 01/02/19 14:39:17*
%MOMM*%
%LPD*%
G01*
G04 APERTURE LIST*
%ADD10R,0.600000X2.000000*%
%ADD11R,1.700000X0.600000*%
%ADD12R,2.800000X1.000000*%
%ADD13R,2.700000X0.950000*%
%ADD14R,0.700000X1.450000*%
%ADD15R,1.000000X1.100000*%
%ADD16R,1.100000X1.000000*%
%ADD17R,1.500000X1.000000*%
%ADD18C,0.250000*%
%ADD19C,0.100000*%
%ADD20R,1.100000X1.900000*%
%ADD21R,0.650000X1.050000*%
%ADD22R,1.500000X0.900000*%
%ADD23R,0.600000X3.000000*%
%ADD24C,2.700000*%
%ADD25R,1.000000X0.700000*%
%ADD26R,0.600000X0.700000*%
%ADD27O,1.600000X1.651000*%
%ADD28R,1.500000X0.450000*%
%ADD29O,1.100000X1.800000*%
%ADD30O,1.100000X2.200000*%
%ADD31R,1.550000X0.600000*%
%ADD32R,1.800000X1.200000*%
%ADD33C,2.000000*%
%ADD34R,0.800000X1.200000*%
%ADD35R,0.800000X2.200000*%
%ADD36R,2.000000X2.500000*%
G04 APERTURE END LIST*
D10*
G04 #@! TO.C,U3*
X19608800Y10152400D03*
X18338800Y10152400D03*
X17068800Y10152400D03*
X15798800Y10152400D03*
X15798800Y15552400D03*
X17068800Y15552400D03*
X18338800Y15552400D03*
X19608800Y15552400D03*
G04 #@! TD*
D11*
G04 #@! TO.C,J10*
X4597400Y55803800D03*
X4597400Y54553800D03*
X4597400Y53303800D03*
X4597400Y52053800D03*
X4597400Y50803800D03*
D12*
X7947400Y57653800D03*
X7947400Y48953800D03*
G04 #@! TD*
D11*
G04 #@! TO.C,J9*
X-2966000Y55814600D03*
X-2966000Y54564600D03*
X-2966000Y53314600D03*
X-2966000Y52064600D03*
X-2966000Y50814600D03*
D12*
X384000Y57664600D03*
X384000Y48964600D03*
G04 #@! TD*
D13*
G04 #@! TO.C,J2*
X22180300Y45453300D03*
X18180300Y45453300D03*
X22180300Y46723300D03*
X18180300Y46723300D03*
X22180300Y47993300D03*
X18180300Y47993300D03*
X22180300Y49263300D03*
X18180300Y49263300D03*
X22180300Y50533300D03*
X18180300Y50533300D03*
G04 #@! TD*
D14*
G04 #@! TO.C,SW1*
X26609800Y46801400D03*
X26609800Y41641400D03*
X28609800Y41641400D03*
X28609800Y46801400D03*
G04 #@! TD*
D15*
G04 #@! TO.C,C1*
X3708400Y41479100D03*
X3708400Y43179100D03*
G04 #@! TD*
G04 #@! TO.C,C2*
X5461900Y41479100D03*
X5461900Y43179100D03*
G04 #@! TD*
D16*
G04 #@! TO.C,C3*
X10082000Y46736000D03*
X8382000Y46736000D03*
G04 #@! TD*
G04 #@! TO.C,C4*
X11762000Y46736000D03*
X13462000Y46736000D03*
G04 #@! TD*
D15*
G04 #@! TO.C,C5*
X16725900Y41263200D03*
X16725900Y42963200D03*
G04 #@! TD*
G04 #@! TO.C,C6*
X18376900Y41263200D03*
X18376900Y42963200D03*
G04 #@! TD*
G04 #@! TO.C,C7*
X1930400Y41479100D03*
X1930400Y43179100D03*
G04 #@! TD*
D16*
G04 #@! TO.C,C8*
X5930000Y31432500D03*
X4230000Y31432500D03*
G04 #@! TD*
G04 #@! TO.C,C9*
X17692000Y33274000D03*
X19392000Y33274000D03*
G04 #@! TD*
G04 #@! TO.C,C12*
X18962000Y20193000D03*
X20662000Y20193000D03*
G04 #@! TD*
D15*
G04 #@! TO.C,C13*
X28130500Y21487500D03*
X28130500Y19787500D03*
G04 #@! TD*
G04 #@! TO.C,C14*
X18542000Y5041000D03*
X18542000Y3341000D03*
G04 #@! TD*
G04 #@! TO.C,C17*
X15240000Y5080000D03*
X15240000Y3380000D03*
G04 #@! TD*
G04 #@! TO.C,C18*
X16827500Y5080000D03*
X16827500Y3380000D03*
G04 #@! TD*
D16*
G04 #@! TO.C,C19*
X28091500Y36322000D03*
X26391500Y36322000D03*
G04 #@! TD*
D15*
G04 #@! TO.C,C20*
X21653500Y11137000D03*
X21653500Y9437000D03*
G04 #@! TD*
D17*
G04 #@! TO.C,F1*
X22606000Y21760000D03*
X22606000Y23960000D03*
G04 #@! TD*
D15*
G04 #@! TO.C,L1*
X152400Y41479100D03*
X152400Y43179100D03*
G04 #@! TD*
D16*
G04 #@! TO.C,L2*
X18962000Y21844000D03*
X20662000Y21844000D03*
G04 #@! TD*
G04 #@! TO.C,R2*
X26404200Y37922200D03*
X28104200Y37922200D03*
G04 #@! TD*
G04 #@! TO.C,R3*
X26404200Y39624000D03*
X28104200Y39624000D03*
G04 #@! TD*
G04 #@! TO.C,R8*
X17374500Y18605500D03*
X19074500Y18605500D03*
G04 #@! TD*
D15*
G04 #@! TO.C,R9*
X14097000Y12929500D03*
X14097000Y14629500D03*
G04 #@! TD*
D16*
G04 #@! TO.C,R10*
X15811500Y17716500D03*
X14111500Y17716500D03*
G04 #@! TD*
D15*
G04 #@! TO.C,R11*
X21717000Y5041000D03*
X21717000Y3341000D03*
G04 #@! TD*
G04 #@! TO.C,R12*
X13652500Y5041000D03*
X13652500Y3341000D03*
G04 #@! TD*
D16*
G04 #@! TO.C,R13*
X3136000Y46736000D03*
X1436000Y46736000D03*
G04 #@! TD*
G04 #@! TO.C,R14*
X4992000Y46736000D03*
X6692000Y46736000D03*
G04 #@! TD*
G04 #@! TO.C,R15*
X11596000Y7112000D03*
X13296000Y7112000D03*
G04 #@! TD*
D18*
G04 #@! TO.C,U1*
X9784029Y40638058D03*
D19*
G36*
X9236021Y41009289D02*
X9412798Y41186066D01*
X10332037Y40266827D01*
X10155260Y40090050D01*
X9236021Y41009289D01*
X9236021Y41009289D01*
G37*
D18*
X9430476Y40284505D03*
D19*
G36*
X8882468Y40655736D02*
X9059245Y40832513D01*
X9978484Y39913274D01*
X9801707Y39736497D01*
X8882468Y40655736D01*
X8882468Y40655736D01*
G37*
D18*
X9076922Y39930951D03*
D19*
G36*
X8528914Y40302182D02*
X8705691Y40478959D01*
X9624930Y39559720D01*
X9448153Y39382943D01*
X8528914Y40302182D01*
X8528914Y40302182D01*
G37*
D18*
X8723369Y39577398D03*
D19*
G36*
X8175361Y39948629D02*
X8352138Y40125406D01*
X9271377Y39206167D01*
X9094600Y39029390D01*
X8175361Y39948629D01*
X8175361Y39948629D01*
G37*
D18*
X8369816Y39223845D03*
D19*
G36*
X7821808Y39595076D02*
X7998585Y39771853D01*
X8917824Y38852614D01*
X8741047Y38675837D01*
X7821808Y39595076D01*
X7821808Y39595076D01*
G37*
D18*
X8016262Y38870291D03*
D19*
G36*
X7468254Y39241522D02*
X7645031Y39418299D01*
X8564270Y38499060D01*
X8387493Y38322283D01*
X7468254Y39241522D01*
X7468254Y39241522D01*
G37*
D18*
X7662709Y38516738D03*
D19*
G36*
X7114701Y38887969D02*
X7291478Y39064746D01*
X8210717Y38145507D01*
X8033940Y37968730D01*
X7114701Y38887969D01*
X7114701Y38887969D01*
G37*
D18*
X7309155Y38163184D03*
D19*
G36*
X6761147Y38534415D02*
X6937924Y38711192D01*
X7857163Y37791953D01*
X7680386Y37615176D01*
X6761147Y38534415D01*
X6761147Y38534415D01*
G37*
D18*
X6955602Y37809631D03*
D19*
G36*
X6407594Y38180862D02*
X6584371Y38357639D01*
X7503610Y37438400D01*
X7326833Y37261623D01*
X6407594Y38180862D01*
X6407594Y38180862D01*
G37*
D18*
X6602049Y37456078D03*
D19*
G36*
X6054041Y37827309D02*
X6230818Y38004086D01*
X7150057Y37084847D01*
X6973280Y36908070D01*
X6054041Y37827309D01*
X6054041Y37827309D01*
G37*
D18*
X6248495Y37102524D03*
D19*
G36*
X5700487Y37473755D02*
X5877264Y37650532D01*
X6796503Y36731293D01*
X6619726Y36554516D01*
X5700487Y37473755D01*
X5700487Y37473755D01*
G37*
D18*
X5894942Y36748971D03*
D19*
G36*
X5346934Y37120202D02*
X5523711Y37296979D01*
X6442950Y36377740D01*
X6266173Y36200963D01*
X5346934Y37120202D01*
X5346934Y37120202D01*
G37*
D18*
X5894942Y34486229D03*
D19*
G36*
X5523711Y33938221D02*
X5346934Y34114998D01*
X6266173Y35034237D01*
X6442950Y34857460D01*
X5523711Y33938221D01*
X5523711Y33938221D01*
G37*
D18*
X6248495Y34132676D03*
D19*
G36*
X5877264Y33584668D02*
X5700487Y33761445D01*
X6619726Y34680684D01*
X6796503Y34503907D01*
X5877264Y33584668D01*
X5877264Y33584668D01*
G37*
D18*
X6602049Y33779122D03*
D19*
G36*
X6230818Y33231114D02*
X6054041Y33407891D01*
X6973280Y34327130D01*
X7150057Y34150353D01*
X6230818Y33231114D01*
X6230818Y33231114D01*
G37*
D18*
X6955602Y33425569D03*
D19*
G36*
X6584371Y32877561D02*
X6407594Y33054338D01*
X7326833Y33973577D01*
X7503610Y33796800D01*
X6584371Y32877561D01*
X6584371Y32877561D01*
G37*
D18*
X7309155Y33072016D03*
D19*
G36*
X6937924Y32524008D02*
X6761147Y32700785D01*
X7680386Y33620024D01*
X7857163Y33443247D01*
X6937924Y32524008D01*
X6937924Y32524008D01*
G37*
D18*
X7662709Y32718462D03*
D19*
G36*
X7291478Y32170454D02*
X7114701Y32347231D01*
X8033940Y33266470D01*
X8210717Y33089693D01*
X7291478Y32170454D01*
X7291478Y32170454D01*
G37*
D18*
X8016262Y32364909D03*
D19*
G36*
X7645031Y31816901D02*
X7468254Y31993678D01*
X8387493Y32912917D01*
X8564270Y32736140D01*
X7645031Y31816901D01*
X7645031Y31816901D01*
G37*
D18*
X8369816Y32011355D03*
D19*
G36*
X7998585Y31463347D02*
X7821808Y31640124D01*
X8741047Y32559363D01*
X8917824Y32382586D01*
X7998585Y31463347D01*
X7998585Y31463347D01*
G37*
D18*
X8723369Y31657802D03*
D19*
G36*
X8352138Y31109794D02*
X8175361Y31286571D01*
X9094600Y32205810D01*
X9271377Y32029033D01*
X8352138Y31109794D01*
X8352138Y31109794D01*
G37*
D18*
X9076922Y31304249D03*
D19*
G36*
X8705691Y30756241D02*
X8528914Y30933018D01*
X9448153Y31852257D01*
X9624930Y31675480D01*
X8705691Y30756241D01*
X8705691Y30756241D01*
G37*
D18*
X9430476Y30950695D03*
D19*
G36*
X9059245Y30402687D02*
X8882468Y30579464D01*
X9801707Y31498703D01*
X9978484Y31321926D01*
X9059245Y30402687D01*
X9059245Y30402687D01*
G37*
D18*
X9784029Y30597142D03*
D19*
G36*
X9412798Y30049134D02*
X9236021Y30225911D01*
X10155260Y31145150D01*
X10332037Y30968373D01*
X9412798Y30049134D01*
X9412798Y30049134D01*
G37*
D18*
X12046771Y30597142D03*
D19*
G36*
X11498763Y30968373D02*
X11675540Y31145150D01*
X12594779Y30225911D01*
X12418002Y30049134D01*
X11498763Y30968373D01*
X11498763Y30968373D01*
G37*
D18*
X12400324Y30950695D03*
D19*
G36*
X11852316Y31321926D02*
X12029093Y31498703D01*
X12948332Y30579464D01*
X12771555Y30402687D01*
X11852316Y31321926D01*
X11852316Y31321926D01*
G37*
D18*
X12753878Y31304249D03*
D19*
G36*
X12205870Y31675480D02*
X12382647Y31852257D01*
X13301886Y30933018D01*
X13125109Y30756241D01*
X12205870Y31675480D01*
X12205870Y31675480D01*
G37*
D18*
X13107431Y31657802D03*
D19*
G36*
X12559423Y32029033D02*
X12736200Y32205810D01*
X13655439Y31286571D01*
X13478662Y31109794D01*
X12559423Y32029033D01*
X12559423Y32029033D01*
G37*
D18*
X13460984Y32011355D03*
D19*
G36*
X12912976Y32382586D02*
X13089753Y32559363D01*
X14008992Y31640124D01*
X13832215Y31463347D01*
X12912976Y32382586D01*
X12912976Y32382586D01*
G37*
D18*
X13814538Y32364909D03*
D19*
G36*
X13266530Y32736140D02*
X13443307Y32912917D01*
X14362546Y31993678D01*
X14185769Y31816901D01*
X13266530Y32736140D01*
X13266530Y32736140D01*
G37*
D18*
X14168091Y32718462D03*
D19*
G36*
X13620083Y33089693D02*
X13796860Y33266470D01*
X14716099Y32347231D01*
X14539322Y32170454D01*
X13620083Y33089693D01*
X13620083Y33089693D01*
G37*
D18*
X14521645Y33072016D03*
D19*
G36*
X13973637Y33443247D02*
X14150414Y33620024D01*
X15069653Y32700785D01*
X14892876Y32524008D01*
X13973637Y33443247D01*
X13973637Y33443247D01*
G37*
D18*
X14875198Y33425569D03*
D19*
G36*
X14327190Y33796800D02*
X14503967Y33973577D01*
X15423206Y33054338D01*
X15246429Y32877561D01*
X14327190Y33796800D01*
X14327190Y33796800D01*
G37*
D18*
X15228751Y33779122D03*
D19*
G36*
X14680743Y34150353D02*
X14857520Y34327130D01*
X15776759Y33407891D01*
X15599982Y33231114D01*
X14680743Y34150353D01*
X14680743Y34150353D01*
G37*
D18*
X15582305Y34132676D03*
D19*
G36*
X15034297Y34503907D02*
X15211074Y34680684D01*
X16130313Y33761445D01*
X15953536Y33584668D01*
X15034297Y34503907D01*
X15034297Y34503907D01*
G37*
D18*
X15935858Y34486229D03*
D19*
G36*
X15387850Y34857460D02*
X15564627Y35034237D01*
X16483866Y34114998D01*
X16307089Y33938221D01*
X15387850Y34857460D01*
X15387850Y34857460D01*
G37*
D18*
X15935858Y36748971D03*
D19*
G36*
X15564627Y36200963D02*
X15387850Y36377740D01*
X16307089Y37296979D01*
X16483866Y37120202D01*
X15564627Y36200963D01*
X15564627Y36200963D01*
G37*
D18*
X15582305Y37102524D03*
D19*
G36*
X15211074Y36554516D02*
X15034297Y36731293D01*
X15953536Y37650532D01*
X16130313Y37473755D01*
X15211074Y36554516D01*
X15211074Y36554516D01*
G37*
D18*
X15228751Y37456078D03*
D19*
G36*
X14857520Y36908070D02*
X14680743Y37084847D01*
X15599982Y38004086D01*
X15776759Y37827309D01*
X14857520Y36908070D01*
X14857520Y36908070D01*
G37*
D18*
X14875198Y37809631D03*
D19*
G36*
X14503967Y37261623D02*
X14327190Y37438400D01*
X15246429Y38357639D01*
X15423206Y38180862D01*
X14503967Y37261623D01*
X14503967Y37261623D01*
G37*
D18*
X14521645Y38163184D03*
D19*
G36*
X14150414Y37615176D02*
X13973637Y37791953D01*
X14892876Y38711192D01*
X15069653Y38534415D01*
X14150414Y37615176D01*
X14150414Y37615176D01*
G37*
D18*
X14168091Y38516738D03*
D19*
G36*
X13796860Y37968730D02*
X13620083Y38145507D01*
X14539322Y39064746D01*
X14716099Y38887969D01*
X13796860Y37968730D01*
X13796860Y37968730D01*
G37*
D18*
X13814538Y38870291D03*
D19*
G36*
X13443307Y38322283D02*
X13266530Y38499060D01*
X14185769Y39418299D01*
X14362546Y39241522D01*
X13443307Y38322283D01*
X13443307Y38322283D01*
G37*
D18*
X13460984Y39223845D03*
D19*
G36*
X13089753Y38675837D02*
X12912976Y38852614D01*
X13832215Y39771853D01*
X14008992Y39595076D01*
X13089753Y38675837D01*
X13089753Y38675837D01*
G37*
D18*
X13107431Y39577398D03*
D19*
G36*
X12736200Y39029390D02*
X12559423Y39206167D01*
X13478662Y40125406D01*
X13655439Y39948629D01*
X12736200Y39029390D01*
X12736200Y39029390D01*
G37*
D18*
X12753878Y39930951D03*
D19*
G36*
X12382647Y39382943D02*
X12205870Y39559720D01*
X13125109Y40478959D01*
X13301886Y40302182D01*
X12382647Y39382943D01*
X12382647Y39382943D01*
G37*
D18*
X12400324Y40284505D03*
D19*
G36*
X12029093Y39736497D02*
X11852316Y39913274D01*
X12771555Y40832513D01*
X12948332Y40655736D01*
X12029093Y39736497D01*
X12029093Y39736497D01*
G37*
D18*
X12046771Y40638058D03*
D19*
G36*
X11675540Y40090050D02*
X11498763Y40266827D01*
X12418002Y41186066D01*
X12594779Y41009289D01*
X11675540Y40090050D01*
X11675540Y40090050D01*
G37*
G04 #@! TD*
D20*
G04 #@! TO.C,Y1*
X9692002Y44704000D03*
X12192000Y44704000D03*
G04 #@! TD*
D21*
G04 #@! TO.C,Q1*
X19644400Y62694200D03*
X17744400Y62694200D03*
X18694400Y60394200D03*
G04 #@! TD*
D16*
G04 #@! TO.C,R1*
X14237600Y60350400D03*
X15937600Y60350400D03*
G04 #@! TD*
D22*
G04 #@! TO.C,U7*
X11924200Y60072000D03*
X11924200Y63372000D03*
X7024200Y63372000D03*
X7024200Y60072000D03*
G04 #@! TD*
D11*
G04 #@! TO.C,J1*
X-2712000Y21062000D03*
X-2712000Y19812000D03*
X-2712000Y18562000D03*
D12*
X638000Y22912000D03*
X638000Y16712000D03*
G04 #@! TD*
G04 #@! TO.C,J8*
X638000Y26872000D03*
X638000Y33072000D03*
D11*
X-2712000Y28722000D03*
X-2712000Y29972000D03*
X-2712000Y31222000D03*
G04 #@! TD*
D15*
G04 #@! TO.C,R4*
X26543000Y21551000D03*
X26543000Y19851000D03*
G04 #@! TD*
D23*
G04 #@! TO.C,U4*
X23241000Y9804000D03*
X24511000Y9804000D03*
X25781000Y9804000D03*
X27051000Y9804000D03*
X27051000Y3404000D03*
X25781000Y3404000D03*
X24511000Y3404000D03*
X23241000Y3404000D03*
G04 #@! TD*
D16*
G04 #@! TO.C,R5*
X18962000Y37465000D03*
X20662000Y37465000D03*
G04 #@! TD*
G04 #@! TO.C,R6*
X18962000Y35877500D03*
X20662000Y35877500D03*
G04 #@! TD*
D24*
G04 #@! TO.C,M1*
X27902800Y62539200D03*
G04 #@! TD*
G04 #@! TO.C,M3*
X-2900000Y-3760800D03*
G04 #@! TD*
G04 #@! TO.C,M4*
X27902800Y-3760800D03*
G04 #@! TD*
G04 #@! TO.C,M6*
X-2900000Y62539200D03*
G04 #@! TD*
D16*
G04 #@! TO.C,C10*
X20725500Y23431500D03*
X19025500Y23431500D03*
G04 #@! TD*
D15*
G04 #@! TO.C,C11*
X11684000Y25424500D03*
X11684000Y23724500D03*
G04 #@! TD*
D16*
G04 #@! TO.C,C15*
X21565500Y16446500D03*
X23265500Y16446500D03*
G04 #@! TD*
D15*
G04 #@! TO.C,C16*
X20129500Y3341000D03*
X20129500Y5041000D03*
G04 #@! TD*
D16*
G04 #@! TO.C,D1*
X15963000Y61976000D03*
X14263000Y61976000D03*
G04 #@! TD*
D25*
G04 #@! TO.C,D2*
X21578000Y27940000D03*
D26*
X19878000Y27940000D03*
X19878000Y25940000D03*
X21778000Y25940000D03*
G04 #@! TD*
D16*
G04 #@! TO.C,D3*
X25146000Y34163000D03*
X26846000Y34163000D03*
G04 #@! TD*
D27*
G04 #@! TO.C,J3*
X28134500Y23878000D03*
X28134500Y30478000D03*
G04 #@! TD*
D28*
G04 #@! TO.C,J4*
X25024000Y25878000D03*
D29*
X24774000Y24378000D03*
X24774000Y29978000D03*
D28*
X25024000Y27178000D03*
X25024000Y26528000D03*
X25024000Y27828000D03*
X25024000Y28478000D03*
D30*
X26924000Y27178000D03*
G04 #@! TD*
D11*
G04 #@! TO.C,J6*
X4323800Y1722600D03*
X4323800Y472600D03*
X4323800Y-777400D03*
X4323800Y-2027400D03*
D12*
X7673800Y3572600D03*
X7673800Y-3877400D03*
G04 #@! TD*
D31*
G04 #@! TO.C,J11*
X-1426600Y1398400D03*
X-1426600Y398400D03*
X-1426600Y-601600D03*
X-1426600Y-1601600D03*
D32*
X1098400Y-3151600D03*
X1098400Y2948400D03*
G04 #@! TD*
D12*
G04 #@! TO.C,J12*
X104600Y5876200D03*
X104600Y13326200D03*
D11*
X-3245400Y7726200D03*
X-3245400Y8976200D03*
X-3245400Y10226200D03*
X-3245400Y11476200D03*
G04 #@! TD*
G04 #@! TO.C,J13*
X4349200Y11476200D03*
X4349200Y10226200D03*
X4349200Y8976200D03*
X4349200Y7726200D03*
D12*
X7699200Y13326200D03*
X7699200Y5876200D03*
G04 #@! TD*
D33*
G04 #@! TO.C,M2*
X12319000Y-3365500D03*
G04 #@! TD*
G04 #@! TO.C,M5*
X-1905000Y38290500D03*
G04 #@! TD*
D15*
G04 #@! TO.C,R7*
X21272500Y14566000D03*
X21272500Y12866000D03*
G04 #@! TD*
D16*
G04 #@! TO.C,R16*
X11596000Y8636000D03*
X13296000Y8636000D03*
G04 #@! TD*
G04 #@! TO.C,R17*
X25185000Y32575500D03*
X26885000Y32575500D03*
G04 #@! TD*
D34*
G04 #@! TO.C,U2*
X16740000Y25880000D03*
D35*
X15240000Y25380000D03*
D34*
X13740000Y25880000D03*
D36*
X15240000Y23030000D03*
G04 #@! TD*
M02*
