G04 #@! TF.GenerationSoftware,KiCad,Pcbnew,(5.0.0)*
G04 #@! TF.CreationDate,2019-01-02T14:49:52-06:00*
G04 #@! TF.ProjectId,fk-sonar,666B2D736F6E61722E6B696361645F70,0.1*
G04 #@! TF.SameCoordinates,PX791ddc0PY791ddc0*
G04 #@! TF.FileFunction,Paste,Top*
G04 #@! TF.FilePolarity,Positive*
%FSLAX46Y46*%
G04 Gerber Fmt 4.6, Leading zero omitted, Abs format (unit mm)*
G04 Created by KiCad (PCBNEW (5.0.0)) date 01/02/19 14:49:52*
%MOMM*%
%LPD*%
G01*
G04 APERTURE LIST*
%ADD10R,0.540000X1.800000*%
%ADD11R,1.530000X0.540000*%
%ADD12R,2.520000X0.900000*%
%ADD13R,2.250000X0.675000*%
%ADD14R,0.630000X1.305000*%
%ADD15R,0.900000X0.990000*%
%ADD16R,0.990000X0.900000*%
%ADD17R,1.350000X0.900000*%
%ADD18C,0.225000*%
%ADD19C,0.100000*%
%ADD20R,0.990000X1.710000*%
%ADD21R,0.585000X0.945000*%
%ADD22R,1.350000X0.810000*%
%ADD23R,0.540000X2.700000*%
%ADD24R,0.900000X0.630000*%
%ADD25R,0.540000X0.630000*%
%ADD26R,1.350000X0.405000*%
%ADD27R,1.395000X0.540000*%
%ADD28R,1.620000X1.080000*%
%ADD29R,0.720000X1.080000*%
%ADD30R,0.720000X1.980000*%
%ADD31R,1.800000X2.250000*%
G04 APERTURE END LIST*
D10*
G04 #@! TO.C,U3*
X19438800Y10382400D03*
X18168800Y10382400D03*
X16898800Y10382400D03*
X15628800Y10382400D03*
X15628800Y15782400D03*
X16898800Y15782400D03*
X18168800Y15782400D03*
X19438800Y15782400D03*
G04 #@! TD*
D11*
G04 #@! TO.C,J10*
X4427400Y56033800D03*
X4427400Y54783800D03*
X4427400Y53533800D03*
X4427400Y52283800D03*
X4427400Y51033800D03*
D12*
X7777400Y57883800D03*
X7777400Y49183800D03*
G04 #@! TD*
D11*
G04 #@! TO.C,J9*
X-3136000Y56044600D03*
X-3136000Y54794600D03*
X-3136000Y53544600D03*
X-3136000Y52294600D03*
X-3136000Y51044600D03*
D12*
X214000Y57894600D03*
X214000Y49194600D03*
G04 #@! TD*
D13*
G04 #@! TO.C,J2*
X22010300Y45683300D03*
X18010300Y45683300D03*
X22010300Y46953300D03*
X18010300Y46953300D03*
X22010300Y48223300D03*
X18010300Y48223300D03*
X22010300Y49493300D03*
X18010300Y49493300D03*
X22010300Y50763300D03*
X18010300Y50763300D03*
G04 #@! TD*
D14*
G04 #@! TO.C,SW1*
X26439800Y47031400D03*
X26439800Y41871400D03*
X28439800Y41871400D03*
X28439800Y47031400D03*
G04 #@! TD*
D15*
G04 #@! TO.C,C1*
X3538400Y41709100D03*
X3538400Y43409100D03*
G04 #@! TD*
G04 #@! TO.C,C2*
X5291900Y41709100D03*
X5291900Y43409100D03*
G04 #@! TD*
D16*
G04 #@! TO.C,C3*
X9912000Y46966000D03*
X8212000Y46966000D03*
G04 #@! TD*
G04 #@! TO.C,C4*
X11592000Y46966000D03*
X13292000Y46966000D03*
G04 #@! TD*
D15*
G04 #@! TO.C,C5*
X16555900Y41493200D03*
X16555900Y43193200D03*
G04 #@! TD*
G04 #@! TO.C,C6*
X18206900Y41493200D03*
X18206900Y43193200D03*
G04 #@! TD*
G04 #@! TO.C,C7*
X1760400Y41709100D03*
X1760400Y43409100D03*
G04 #@! TD*
D16*
G04 #@! TO.C,C8*
X5760000Y31662500D03*
X4060000Y31662500D03*
G04 #@! TD*
G04 #@! TO.C,C9*
X17522000Y33504000D03*
X19222000Y33504000D03*
G04 #@! TD*
G04 #@! TO.C,C12*
X18792000Y20423000D03*
X20492000Y20423000D03*
G04 #@! TD*
D15*
G04 #@! TO.C,C13*
X27960500Y21717500D03*
X27960500Y20017500D03*
G04 #@! TD*
G04 #@! TO.C,C14*
X18372000Y5271000D03*
X18372000Y3571000D03*
G04 #@! TD*
G04 #@! TO.C,C17*
X15070000Y5310000D03*
X15070000Y3610000D03*
G04 #@! TD*
G04 #@! TO.C,C18*
X16657500Y5310000D03*
X16657500Y3610000D03*
G04 #@! TD*
D16*
G04 #@! TO.C,C19*
X27921500Y36552000D03*
X26221500Y36552000D03*
G04 #@! TD*
D15*
G04 #@! TO.C,C20*
X21483500Y11367000D03*
X21483500Y9667000D03*
G04 #@! TD*
D17*
G04 #@! TO.C,F1*
X22436000Y21990000D03*
X22436000Y24190000D03*
G04 #@! TD*
D15*
G04 #@! TO.C,L1*
X-17600Y41709100D03*
X-17600Y43409100D03*
G04 #@! TD*
D16*
G04 #@! TO.C,L2*
X18792000Y22074000D03*
X20492000Y22074000D03*
G04 #@! TD*
G04 #@! TO.C,R2*
X26234200Y38152200D03*
X27934200Y38152200D03*
G04 #@! TD*
G04 #@! TO.C,R3*
X26234200Y39854000D03*
X27934200Y39854000D03*
G04 #@! TD*
G04 #@! TO.C,R8*
X17204500Y18835500D03*
X18904500Y18835500D03*
G04 #@! TD*
D15*
G04 #@! TO.C,R9*
X13927000Y13159500D03*
X13927000Y14859500D03*
G04 #@! TD*
D16*
G04 #@! TO.C,R10*
X15641500Y17946500D03*
X13941500Y17946500D03*
G04 #@! TD*
D15*
G04 #@! TO.C,R11*
X21547000Y5271000D03*
X21547000Y3571000D03*
G04 #@! TD*
G04 #@! TO.C,R12*
X13482500Y5271000D03*
X13482500Y3571000D03*
G04 #@! TD*
D16*
G04 #@! TO.C,R13*
X2966000Y46966000D03*
X1266000Y46966000D03*
G04 #@! TD*
G04 #@! TO.C,R14*
X4822000Y46966000D03*
X6522000Y46966000D03*
G04 #@! TD*
G04 #@! TO.C,R15*
X11426000Y7342000D03*
X13126000Y7342000D03*
G04 #@! TD*
D18*
G04 #@! TO.C,U1*
X9614029Y40868058D03*
D19*
G36*
X9120822Y41202166D02*
X9279921Y41361265D01*
X10107236Y40533950D01*
X9948137Y40374851D01*
X9120822Y41202166D01*
X9120822Y41202166D01*
G37*
D18*
X9260476Y40514505D03*
D19*
G36*
X8767269Y40848613D02*
X8926368Y41007712D01*
X9753683Y40180397D01*
X9594584Y40021298D01*
X8767269Y40848613D01*
X8767269Y40848613D01*
G37*
D18*
X8906922Y40160951D03*
D19*
G36*
X8413715Y40495059D02*
X8572814Y40654158D01*
X9400129Y39826843D01*
X9241030Y39667744D01*
X8413715Y40495059D01*
X8413715Y40495059D01*
G37*
D18*
X8553369Y39807398D03*
D19*
G36*
X8060162Y40141506D02*
X8219261Y40300605D01*
X9046576Y39473290D01*
X8887477Y39314191D01*
X8060162Y40141506D01*
X8060162Y40141506D01*
G37*
D18*
X8199816Y39453845D03*
D19*
G36*
X7706609Y39787953D02*
X7865708Y39947052D01*
X8693023Y39119737D01*
X8533924Y38960638D01*
X7706609Y39787953D01*
X7706609Y39787953D01*
G37*
D18*
X7846262Y39100291D03*
D19*
G36*
X7353055Y39434399D02*
X7512154Y39593498D01*
X8339469Y38766183D01*
X8180370Y38607084D01*
X7353055Y39434399D01*
X7353055Y39434399D01*
G37*
D18*
X7492709Y38746738D03*
D19*
G36*
X6999502Y39080846D02*
X7158601Y39239945D01*
X7985916Y38412630D01*
X7826817Y38253531D01*
X6999502Y39080846D01*
X6999502Y39080846D01*
G37*
D18*
X7139155Y38393184D03*
D19*
G36*
X6645948Y38727292D02*
X6805047Y38886391D01*
X7632362Y38059076D01*
X7473263Y37899977D01*
X6645948Y38727292D01*
X6645948Y38727292D01*
G37*
D18*
X6785602Y38039631D03*
D19*
G36*
X6292395Y38373739D02*
X6451494Y38532838D01*
X7278809Y37705523D01*
X7119710Y37546424D01*
X6292395Y38373739D01*
X6292395Y38373739D01*
G37*
D18*
X6432049Y37686078D03*
D19*
G36*
X5938842Y38020186D02*
X6097941Y38179285D01*
X6925256Y37351970D01*
X6766157Y37192871D01*
X5938842Y38020186D01*
X5938842Y38020186D01*
G37*
D18*
X6078495Y37332524D03*
D19*
G36*
X5585288Y37666632D02*
X5744387Y37825731D01*
X6571702Y36998416D01*
X6412603Y36839317D01*
X5585288Y37666632D01*
X5585288Y37666632D01*
G37*
D18*
X5724942Y36978971D03*
D19*
G36*
X5231735Y37313079D02*
X5390834Y37472178D01*
X6218149Y36644863D01*
X6059050Y36485764D01*
X5231735Y37313079D01*
X5231735Y37313079D01*
G37*
D18*
X5724942Y34716229D03*
D19*
G36*
X5390834Y34223022D02*
X5231735Y34382121D01*
X6059050Y35209436D01*
X6218149Y35050337D01*
X5390834Y34223022D01*
X5390834Y34223022D01*
G37*
D18*
X6078495Y34362676D03*
D19*
G36*
X5744387Y33869469D02*
X5585288Y34028568D01*
X6412603Y34855883D01*
X6571702Y34696784D01*
X5744387Y33869469D01*
X5744387Y33869469D01*
G37*
D18*
X6432049Y34009122D03*
D19*
G36*
X6097941Y33515915D02*
X5938842Y33675014D01*
X6766157Y34502329D01*
X6925256Y34343230D01*
X6097941Y33515915D01*
X6097941Y33515915D01*
G37*
D18*
X6785602Y33655569D03*
D19*
G36*
X6451494Y33162362D02*
X6292395Y33321461D01*
X7119710Y34148776D01*
X7278809Y33989677D01*
X6451494Y33162362D01*
X6451494Y33162362D01*
G37*
D18*
X7139155Y33302016D03*
D19*
G36*
X6805047Y32808809D02*
X6645948Y32967908D01*
X7473263Y33795223D01*
X7632362Y33636124D01*
X6805047Y32808809D01*
X6805047Y32808809D01*
G37*
D18*
X7492709Y32948462D03*
D19*
G36*
X7158601Y32455255D02*
X6999502Y32614354D01*
X7826817Y33441669D01*
X7985916Y33282570D01*
X7158601Y32455255D01*
X7158601Y32455255D01*
G37*
D18*
X7846262Y32594909D03*
D19*
G36*
X7512154Y32101702D02*
X7353055Y32260801D01*
X8180370Y33088116D01*
X8339469Y32929017D01*
X7512154Y32101702D01*
X7512154Y32101702D01*
G37*
D18*
X8199816Y32241355D03*
D19*
G36*
X7865708Y31748148D02*
X7706609Y31907247D01*
X8533924Y32734562D01*
X8693023Y32575463D01*
X7865708Y31748148D01*
X7865708Y31748148D01*
G37*
D18*
X8553369Y31887802D03*
D19*
G36*
X8219261Y31394595D02*
X8060162Y31553694D01*
X8887477Y32381009D01*
X9046576Y32221910D01*
X8219261Y31394595D01*
X8219261Y31394595D01*
G37*
D18*
X8906922Y31534249D03*
D19*
G36*
X8572814Y31041042D02*
X8413715Y31200141D01*
X9241030Y32027456D01*
X9400129Y31868357D01*
X8572814Y31041042D01*
X8572814Y31041042D01*
G37*
D18*
X9260476Y31180695D03*
D19*
G36*
X8926368Y30687488D02*
X8767269Y30846587D01*
X9594584Y31673902D01*
X9753683Y31514803D01*
X8926368Y30687488D01*
X8926368Y30687488D01*
G37*
D18*
X9614029Y30827142D03*
D19*
G36*
X9279921Y30333935D02*
X9120822Y30493034D01*
X9948137Y31320349D01*
X10107236Y31161250D01*
X9279921Y30333935D01*
X9279921Y30333935D01*
G37*
D18*
X11876771Y30827142D03*
D19*
G36*
X11383564Y31161250D02*
X11542663Y31320349D01*
X12369978Y30493034D01*
X12210879Y30333935D01*
X11383564Y31161250D01*
X11383564Y31161250D01*
G37*
D18*
X12230324Y31180695D03*
D19*
G36*
X11737117Y31514803D02*
X11896216Y31673902D01*
X12723531Y30846587D01*
X12564432Y30687488D01*
X11737117Y31514803D01*
X11737117Y31514803D01*
G37*
D18*
X12583878Y31534249D03*
D19*
G36*
X12090671Y31868357D02*
X12249770Y32027456D01*
X13077085Y31200141D01*
X12917986Y31041042D01*
X12090671Y31868357D01*
X12090671Y31868357D01*
G37*
D18*
X12937431Y31887802D03*
D19*
G36*
X12444224Y32221910D02*
X12603323Y32381009D01*
X13430638Y31553694D01*
X13271539Y31394595D01*
X12444224Y32221910D01*
X12444224Y32221910D01*
G37*
D18*
X13290984Y32241355D03*
D19*
G36*
X12797777Y32575463D02*
X12956876Y32734562D01*
X13784191Y31907247D01*
X13625092Y31748148D01*
X12797777Y32575463D01*
X12797777Y32575463D01*
G37*
D18*
X13644538Y32594909D03*
D19*
G36*
X13151331Y32929017D02*
X13310430Y33088116D01*
X14137745Y32260801D01*
X13978646Y32101702D01*
X13151331Y32929017D01*
X13151331Y32929017D01*
G37*
D18*
X13998091Y32948462D03*
D19*
G36*
X13504884Y33282570D02*
X13663983Y33441669D01*
X14491298Y32614354D01*
X14332199Y32455255D01*
X13504884Y33282570D01*
X13504884Y33282570D01*
G37*
D18*
X14351645Y33302016D03*
D19*
G36*
X13858438Y33636124D02*
X14017537Y33795223D01*
X14844852Y32967908D01*
X14685753Y32808809D01*
X13858438Y33636124D01*
X13858438Y33636124D01*
G37*
D18*
X14705198Y33655569D03*
D19*
G36*
X14211991Y33989677D02*
X14371090Y34148776D01*
X15198405Y33321461D01*
X15039306Y33162362D01*
X14211991Y33989677D01*
X14211991Y33989677D01*
G37*
D18*
X15058751Y34009122D03*
D19*
G36*
X14565544Y34343230D02*
X14724643Y34502329D01*
X15551958Y33675014D01*
X15392859Y33515915D01*
X14565544Y34343230D01*
X14565544Y34343230D01*
G37*
D18*
X15412305Y34362676D03*
D19*
G36*
X14919098Y34696784D02*
X15078197Y34855883D01*
X15905512Y34028568D01*
X15746413Y33869469D01*
X14919098Y34696784D01*
X14919098Y34696784D01*
G37*
D18*
X15765858Y34716229D03*
D19*
G36*
X15272651Y35050337D02*
X15431750Y35209436D01*
X16259065Y34382121D01*
X16099966Y34223022D01*
X15272651Y35050337D01*
X15272651Y35050337D01*
G37*
D18*
X15765858Y36978971D03*
D19*
G36*
X15431750Y36485764D02*
X15272651Y36644863D01*
X16099966Y37472178D01*
X16259065Y37313079D01*
X15431750Y36485764D01*
X15431750Y36485764D01*
G37*
D18*
X15412305Y37332524D03*
D19*
G36*
X15078197Y36839317D02*
X14919098Y36998416D01*
X15746413Y37825731D01*
X15905512Y37666632D01*
X15078197Y36839317D01*
X15078197Y36839317D01*
G37*
D18*
X15058751Y37686078D03*
D19*
G36*
X14724643Y37192871D02*
X14565544Y37351970D01*
X15392859Y38179285D01*
X15551958Y38020186D01*
X14724643Y37192871D01*
X14724643Y37192871D01*
G37*
D18*
X14705198Y38039631D03*
D19*
G36*
X14371090Y37546424D02*
X14211991Y37705523D01*
X15039306Y38532838D01*
X15198405Y38373739D01*
X14371090Y37546424D01*
X14371090Y37546424D01*
G37*
D18*
X14351645Y38393184D03*
D19*
G36*
X14017537Y37899977D02*
X13858438Y38059076D01*
X14685753Y38886391D01*
X14844852Y38727292D01*
X14017537Y37899977D01*
X14017537Y37899977D01*
G37*
D18*
X13998091Y38746738D03*
D19*
G36*
X13663983Y38253531D02*
X13504884Y38412630D01*
X14332199Y39239945D01*
X14491298Y39080846D01*
X13663983Y38253531D01*
X13663983Y38253531D01*
G37*
D18*
X13644538Y39100291D03*
D19*
G36*
X13310430Y38607084D02*
X13151331Y38766183D01*
X13978646Y39593498D01*
X14137745Y39434399D01*
X13310430Y38607084D01*
X13310430Y38607084D01*
G37*
D18*
X13290984Y39453845D03*
D19*
G36*
X12956876Y38960638D02*
X12797777Y39119737D01*
X13625092Y39947052D01*
X13784191Y39787953D01*
X12956876Y38960638D01*
X12956876Y38960638D01*
G37*
D18*
X12937431Y39807398D03*
D19*
G36*
X12603323Y39314191D02*
X12444224Y39473290D01*
X13271539Y40300605D01*
X13430638Y40141506D01*
X12603323Y39314191D01*
X12603323Y39314191D01*
G37*
D18*
X12583878Y40160951D03*
D19*
G36*
X12249770Y39667744D02*
X12090671Y39826843D01*
X12917986Y40654158D01*
X13077085Y40495059D01*
X12249770Y39667744D01*
X12249770Y39667744D01*
G37*
D18*
X12230324Y40514505D03*
D19*
G36*
X11896216Y40021298D02*
X11737117Y40180397D01*
X12564432Y41007712D01*
X12723531Y40848613D01*
X11896216Y40021298D01*
X11896216Y40021298D01*
G37*
D18*
X11876771Y40868058D03*
D19*
G36*
X11542663Y40374851D02*
X11383564Y40533950D01*
X12210879Y41361265D01*
X12369978Y41202166D01*
X11542663Y40374851D01*
X11542663Y40374851D01*
G37*
G04 #@! TD*
D20*
G04 #@! TO.C,Y1*
X9522002Y44934000D03*
X12022000Y44934000D03*
G04 #@! TD*
D21*
G04 #@! TO.C,Q1*
X19474400Y62924200D03*
X17574400Y62924200D03*
X18524400Y60624200D03*
G04 #@! TD*
D16*
G04 #@! TO.C,R1*
X14067600Y60580400D03*
X15767600Y60580400D03*
G04 #@! TD*
D22*
G04 #@! TO.C,U7*
X11754200Y60302000D03*
X11754200Y63602000D03*
X6854200Y63602000D03*
X6854200Y60302000D03*
G04 #@! TD*
D11*
G04 #@! TO.C,J1*
X-2882000Y21292000D03*
X-2882000Y20042000D03*
X-2882000Y18792000D03*
D12*
X468000Y23142000D03*
X468000Y16942000D03*
G04 #@! TD*
G04 #@! TO.C,J8*
X468000Y27102000D03*
X468000Y33302000D03*
D11*
X-2882000Y28952000D03*
X-2882000Y30202000D03*
X-2882000Y31452000D03*
G04 #@! TD*
D15*
G04 #@! TO.C,R4*
X26373000Y21781000D03*
X26373000Y20081000D03*
G04 #@! TD*
D23*
G04 #@! TO.C,U4*
X23071000Y10034000D03*
X24341000Y10034000D03*
X25611000Y10034000D03*
X26881000Y10034000D03*
X26881000Y3634000D03*
X25611000Y3634000D03*
X24341000Y3634000D03*
X23071000Y3634000D03*
G04 #@! TD*
D16*
G04 #@! TO.C,R5*
X18792000Y37695000D03*
X20492000Y37695000D03*
G04 #@! TD*
G04 #@! TO.C,R6*
X18792000Y36107500D03*
X20492000Y36107500D03*
G04 #@! TD*
G04 #@! TO.C,C10*
X20555500Y23661500D03*
X18855500Y23661500D03*
G04 #@! TD*
D15*
G04 #@! TO.C,C11*
X11514000Y25654500D03*
X11514000Y23954500D03*
G04 #@! TD*
D16*
G04 #@! TO.C,C15*
X21395500Y16676500D03*
X23095500Y16676500D03*
G04 #@! TD*
D15*
G04 #@! TO.C,C16*
X19959500Y3571000D03*
X19959500Y5271000D03*
G04 #@! TD*
D16*
G04 #@! TO.C,D1*
X15793000Y62206000D03*
X14093000Y62206000D03*
G04 #@! TD*
D24*
G04 #@! TO.C,D2*
X21408000Y28170000D03*
D25*
X19708000Y28170000D03*
X19708000Y26170000D03*
X21608000Y26170000D03*
G04 #@! TD*
D16*
G04 #@! TO.C,D3*
X24976000Y34393000D03*
X26676000Y34393000D03*
G04 #@! TD*
D26*
G04 #@! TO.C,J4*
X24854000Y26108000D03*
X24854000Y27408000D03*
X24854000Y26758000D03*
X24854000Y28058000D03*
X24854000Y28708000D03*
G04 #@! TD*
D11*
G04 #@! TO.C,J6*
X4153800Y1952600D03*
X4153800Y702600D03*
X4153800Y-547400D03*
X4153800Y-1797400D03*
D12*
X7503800Y3802600D03*
X7503800Y-3647400D03*
G04 #@! TD*
D27*
G04 #@! TO.C,J11*
X-1596600Y1628400D03*
X-1596600Y628400D03*
X-1596600Y-371600D03*
X-1596600Y-1371600D03*
D28*
X928400Y-2921600D03*
X928400Y3178400D03*
G04 #@! TD*
D12*
G04 #@! TO.C,J12*
X-65400Y6106200D03*
X-65400Y13556200D03*
D11*
X-3415400Y7956200D03*
X-3415400Y9206200D03*
X-3415400Y10456200D03*
X-3415400Y11706200D03*
G04 #@! TD*
G04 #@! TO.C,J13*
X4179200Y11706200D03*
X4179200Y10456200D03*
X4179200Y9206200D03*
X4179200Y7956200D03*
D12*
X7529200Y13556200D03*
X7529200Y6106200D03*
G04 #@! TD*
D15*
G04 #@! TO.C,R7*
X21102500Y14796000D03*
X21102500Y13096000D03*
G04 #@! TD*
D16*
G04 #@! TO.C,R16*
X11426000Y8866000D03*
X13126000Y8866000D03*
G04 #@! TD*
G04 #@! TO.C,R17*
X25015000Y32805500D03*
X26715000Y32805500D03*
G04 #@! TD*
D29*
G04 #@! TO.C,U2*
X16570000Y26110000D03*
D30*
X15070000Y25610000D03*
D29*
X13570000Y26110000D03*
D31*
X15070000Y23260000D03*
G04 #@! TD*
M02*
