G04 #@! TF.GenerationSoftware,KiCad,Pcbnew,(5.0.0)*
G04 #@! TF.CreationDate,2019-01-02T15:44:26-06:00*
G04 #@! TF.ProjectId,fk-sonar-v0.07-03x03,666B2D736F6E61722D76302E30372D30,0.1*
G04 #@! TF.SameCoordinates,Original*
G04 #@! TF.FileFunction,Paste,Top*
G04 #@! TF.FilePolarity,Positive*
%FSLAX46Y46*%
G04 Gerber Fmt 4.6, Leading zero omitted, Abs format (unit mm)*
G04 Created by KiCad (PCBNEW (5.0.0)) date 01/02/19 15:44:26*
%MOMM*%
%LPD*%
G01*
G04 APERTURE LIST*
%ADD10C,2.250000*%
%ADD11R,0.630000X1.305000*%
%ADD12R,2.250000X0.675000*%
%ADD13R,2.520000X0.900000*%
%ADD14R,1.530000X0.540000*%
%ADD15R,0.540000X1.800000*%
%ADD16R,0.900000X0.990000*%
%ADD17R,1.350000X0.405000*%
%ADD18R,0.990000X0.900000*%
%ADD19R,0.540000X2.700000*%
%ADD20R,0.540000X0.630000*%
%ADD21R,0.900000X0.630000*%
%ADD22R,1.350000X0.810000*%
%ADD23C,0.225000*%
%ADD24C,0.100000*%
%ADD25R,0.585000X0.945000*%
%ADD26R,0.990000X1.710000*%
%ADD27R,1.350000X0.900000*%
%ADD28R,1.620000X1.080000*%
%ADD29R,1.395000X0.540000*%
%ADD30R,1.800000X2.250000*%
%ADD31R,0.720000X1.080000*%
%ADD32R,0.720000X1.980000*%
G04 APERTURE END LIST*
D10*
G04 #@! TO.C,REF\002A\002A*
X67100000Y-240520000D03*
G04 #@! TD*
G04 #@! TO.C,REF\002A\002A*
X188451400Y-11020000D03*
G04 #@! TD*
G04 #@! TO.C,REF\002A\002A*
X67100000Y-11020000D03*
G04 #@! TD*
D11*
G04 #@! TO.C,SW1*
X181539800Y-181988600D03*
X181539800Y-187148600D03*
X179539800Y-187148600D03*
X179539800Y-181988600D03*
G04 #@! TD*
G04 #@! TO.C,SW1*
X144039800Y-181988600D03*
X144039800Y-187148600D03*
X142039800Y-187148600D03*
X142039800Y-181988600D03*
G04 #@! TD*
G04 #@! TO.C,SW1*
X106539800Y-181988600D03*
X106539800Y-187148600D03*
X104539800Y-187148600D03*
X104539800Y-181988600D03*
G04 #@! TD*
G04 #@! TO.C,SW1*
X181539800Y-108488600D03*
X181539800Y-113648600D03*
X179539800Y-113648600D03*
X179539800Y-108488600D03*
G04 #@! TD*
G04 #@! TO.C,SW1*
X144039800Y-108488600D03*
X144039800Y-113648600D03*
X142039800Y-113648600D03*
X142039800Y-108488600D03*
G04 #@! TD*
G04 #@! TO.C,SW1*
X106539800Y-108488600D03*
X106539800Y-113648600D03*
X104539800Y-113648600D03*
X104539800Y-108488600D03*
G04 #@! TD*
G04 #@! TO.C,SW1*
X181539800Y-34988600D03*
X181539800Y-40148600D03*
X179539800Y-40148600D03*
X179539800Y-34988600D03*
G04 #@! TD*
G04 #@! TO.C,SW1*
X144039800Y-34988600D03*
X144039800Y-40148600D03*
X142039800Y-40148600D03*
X142039800Y-34988600D03*
G04 #@! TD*
D12*
G04 #@! TO.C,J2*
X171110300Y-178256700D03*
X175110300Y-178256700D03*
X171110300Y-179526700D03*
X175110300Y-179526700D03*
X171110300Y-180796700D03*
X175110300Y-180796700D03*
X171110300Y-182066700D03*
X175110300Y-182066700D03*
X171110300Y-183336700D03*
X175110300Y-183336700D03*
G04 #@! TD*
G04 #@! TO.C,J2*
X133610300Y-178256700D03*
X137610300Y-178256700D03*
X133610300Y-179526700D03*
X137610300Y-179526700D03*
X133610300Y-180796700D03*
X137610300Y-180796700D03*
X133610300Y-182066700D03*
X137610300Y-182066700D03*
X133610300Y-183336700D03*
X137610300Y-183336700D03*
G04 #@! TD*
G04 #@! TO.C,J2*
X96110300Y-178256700D03*
X100110300Y-178256700D03*
X96110300Y-179526700D03*
X100110300Y-179526700D03*
X96110300Y-180796700D03*
X100110300Y-180796700D03*
X96110300Y-182066700D03*
X100110300Y-182066700D03*
X96110300Y-183336700D03*
X100110300Y-183336700D03*
G04 #@! TD*
G04 #@! TO.C,J2*
X171110300Y-104756700D03*
X175110300Y-104756700D03*
X171110300Y-106026700D03*
X175110300Y-106026700D03*
X171110300Y-107296700D03*
X175110300Y-107296700D03*
X171110300Y-108566700D03*
X175110300Y-108566700D03*
X171110300Y-109836700D03*
X175110300Y-109836700D03*
G04 #@! TD*
G04 #@! TO.C,J2*
X133610300Y-104756700D03*
X137610300Y-104756700D03*
X133610300Y-106026700D03*
X137610300Y-106026700D03*
X133610300Y-107296700D03*
X137610300Y-107296700D03*
X133610300Y-108566700D03*
X137610300Y-108566700D03*
X133610300Y-109836700D03*
X137610300Y-109836700D03*
G04 #@! TD*
G04 #@! TO.C,J2*
X96110300Y-104756700D03*
X100110300Y-104756700D03*
X96110300Y-106026700D03*
X100110300Y-106026700D03*
X96110300Y-107296700D03*
X100110300Y-107296700D03*
X96110300Y-108566700D03*
X100110300Y-108566700D03*
X96110300Y-109836700D03*
X100110300Y-109836700D03*
G04 #@! TD*
G04 #@! TO.C,J2*
X171110300Y-31256700D03*
X175110300Y-31256700D03*
X171110300Y-32526700D03*
X175110300Y-32526700D03*
X171110300Y-33796700D03*
X175110300Y-33796700D03*
X171110300Y-35066700D03*
X175110300Y-35066700D03*
X171110300Y-36336700D03*
X175110300Y-36336700D03*
G04 #@! TD*
G04 #@! TO.C,J2*
X133610300Y-31256700D03*
X137610300Y-31256700D03*
X133610300Y-32526700D03*
X137610300Y-32526700D03*
X133610300Y-33796700D03*
X137610300Y-33796700D03*
X133610300Y-35066700D03*
X137610300Y-35066700D03*
X133610300Y-36336700D03*
X137610300Y-36336700D03*
G04 #@! TD*
D13*
G04 #@! TO.C,J10*
X160877400Y-179836200D03*
X160877400Y-171136200D03*
D14*
X157527400Y-177986200D03*
X157527400Y-176736200D03*
X157527400Y-175486200D03*
X157527400Y-174236200D03*
X157527400Y-172986200D03*
G04 #@! TD*
D13*
G04 #@! TO.C,J10*
X123377400Y-179836200D03*
X123377400Y-171136200D03*
D14*
X120027400Y-177986200D03*
X120027400Y-176736200D03*
X120027400Y-175486200D03*
X120027400Y-174236200D03*
X120027400Y-172986200D03*
G04 #@! TD*
D13*
G04 #@! TO.C,J10*
X85877400Y-179836200D03*
X85877400Y-171136200D03*
D14*
X82527400Y-177986200D03*
X82527400Y-176736200D03*
X82527400Y-175486200D03*
X82527400Y-174236200D03*
X82527400Y-172986200D03*
G04 #@! TD*
D13*
G04 #@! TO.C,J10*
X160877400Y-106336200D03*
X160877400Y-97636200D03*
D14*
X157527400Y-104486200D03*
X157527400Y-103236200D03*
X157527400Y-101986200D03*
X157527400Y-100736200D03*
X157527400Y-99486200D03*
G04 #@! TD*
D13*
G04 #@! TO.C,J10*
X123377400Y-106336200D03*
X123377400Y-97636200D03*
D14*
X120027400Y-104486200D03*
X120027400Y-103236200D03*
X120027400Y-101986200D03*
X120027400Y-100736200D03*
X120027400Y-99486200D03*
G04 #@! TD*
D13*
G04 #@! TO.C,J10*
X85877400Y-106336200D03*
X85877400Y-97636200D03*
D14*
X82527400Y-104486200D03*
X82527400Y-103236200D03*
X82527400Y-101986200D03*
X82527400Y-100736200D03*
X82527400Y-99486200D03*
G04 #@! TD*
D13*
G04 #@! TO.C,J10*
X160877400Y-32836200D03*
X160877400Y-24136200D03*
D14*
X157527400Y-30986200D03*
X157527400Y-29736200D03*
X157527400Y-28486200D03*
X157527400Y-27236200D03*
X157527400Y-25986200D03*
G04 #@! TD*
D13*
G04 #@! TO.C,J10*
X123377400Y-32836200D03*
X123377400Y-24136200D03*
D14*
X120027400Y-30986200D03*
X120027400Y-29736200D03*
X120027400Y-28486200D03*
X120027400Y-27236200D03*
X120027400Y-25986200D03*
G04 #@! TD*
D13*
G04 #@! TO.C,J9*
X153314000Y-179825400D03*
X153314000Y-171125400D03*
D14*
X149964000Y-177975400D03*
X149964000Y-176725400D03*
X149964000Y-175475400D03*
X149964000Y-174225400D03*
X149964000Y-172975400D03*
G04 #@! TD*
D13*
G04 #@! TO.C,J9*
X115814000Y-179825400D03*
X115814000Y-171125400D03*
D14*
X112464000Y-177975400D03*
X112464000Y-176725400D03*
X112464000Y-175475400D03*
X112464000Y-174225400D03*
X112464000Y-172975400D03*
G04 #@! TD*
D13*
G04 #@! TO.C,J9*
X78314000Y-179825400D03*
X78314000Y-171125400D03*
D14*
X74964000Y-177975400D03*
X74964000Y-176725400D03*
X74964000Y-175475400D03*
X74964000Y-174225400D03*
X74964000Y-172975400D03*
G04 #@! TD*
D13*
G04 #@! TO.C,J9*
X153314000Y-106325400D03*
X153314000Y-97625400D03*
D14*
X149964000Y-104475400D03*
X149964000Y-103225400D03*
X149964000Y-101975400D03*
X149964000Y-100725400D03*
X149964000Y-99475400D03*
G04 #@! TD*
D13*
G04 #@! TO.C,J9*
X115814000Y-106325400D03*
X115814000Y-97625400D03*
D14*
X112464000Y-104475400D03*
X112464000Y-103225400D03*
X112464000Y-101975400D03*
X112464000Y-100725400D03*
X112464000Y-99475400D03*
G04 #@! TD*
D13*
G04 #@! TO.C,J9*
X78314000Y-106325400D03*
X78314000Y-97625400D03*
D14*
X74964000Y-104475400D03*
X74964000Y-103225400D03*
X74964000Y-101975400D03*
X74964000Y-100725400D03*
X74964000Y-99475400D03*
G04 #@! TD*
D13*
G04 #@! TO.C,J9*
X153314000Y-32825400D03*
X153314000Y-24125400D03*
D14*
X149964000Y-30975400D03*
X149964000Y-29725400D03*
X149964000Y-28475400D03*
X149964000Y-27225400D03*
X149964000Y-25975400D03*
G04 #@! TD*
D13*
G04 #@! TO.C,J9*
X115814000Y-32825400D03*
X115814000Y-24125400D03*
D14*
X112464000Y-30975400D03*
X112464000Y-29725400D03*
X112464000Y-28475400D03*
X112464000Y-27225400D03*
X112464000Y-25975400D03*
G04 #@! TD*
D15*
G04 #@! TO.C,U3*
X172538800Y-213237600D03*
X171268800Y-213237600D03*
X169998800Y-213237600D03*
X168728800Y-213237600D03*
X168728800Y-218637600D03*
X169998800Y-218637600D03*
X171268800Y-218637600D03*
X172538800Y-218637600D03*
G04 #@! TD*
G04 #@! TO.C,U3*
X135038800Y-213237600D03*
X133768800Y-213237600D03*
X132498800Y-213237600D03*
X131228800Y-213237600D03*
X131228800Y-218637600D03*
X132498800Y-218637600D03*
X133768800Y-218637600D03*
X135038800Y-218637600D03*
G04 #@! TD*
G04 #@! TO.C,U3*
X97538800Y-213237600D03*
X96268800Y-213237600D03*
X94998800Y-213237600D03*
X93728800Y-213237600D03*
X93728800Y-218637600D03*
X94998800Y-218637600D03*
X96268800Y-218637600D03*
X97538800Y-218637600D03*
G04 #@! TD*
G04 #@! TO.C,U3*
X172538800Y-139737600D03*
X171268800Y-139737600D03*
X169998800Y-139737600D03*
X168728800Y-139737600D03*
X168728800Y-145137600D03*
X169998800Y-145137600D03*
X171268800Y-145137600D03*
X172538800Y-145137600D03*
G04 #@! TD*
G04 #@! TO.C,U3*
X135038800Y-139737600D03*
X133768800Y-139737600D03*
X132498800Y-139737600D03*
X131228800Y-139737600D03*
X131228800Y-145137600D03*
X132498800Y-145137600D03*
X133768800Y-145137600D03*
X135038800Y-145137600D03*
G04 #@! TD*
G04 #@! TO.C,U3*
X97538800Y-139737600D03*
X96268800Y-139737600D03*
X94998800Y-139737600D03*
X93728800Y-139737600D03*
X93728800Y-145137600D03*
X94998800Y-145137600D03*
X96268800Y-145137600D03*
X97538800Y-145137600D03*
G04 #@! TD*
G04 #@! TO.C,U3*
X172538800Y-66237600D03*
X171268800Y-66237600D03*
X169998800Y-66237600D03*
X168728800Y-66237600D03*
X168728800Y-71637600D03*
X169998800Y-71637600D03*
X171268800Y-71637600D03*
X172538800Y-71637600D03*
G04 #@! TD*
G04 #@! TO.C,U3*
X135038800Y-66237600D03*
X133768800Y-66237600D03*
X132498800Y-66237600D03*
X131228800Y-66237600D03*
X131228800Y-71637600D03*
X132498800Y-71637600D03*
X133768800Y-71637600D03*
X135038800Y-71637600D03*
G04 #@! TD*
D16*
G04 #@! TO.C,R4*
X179473000Y-208939000D03*
X179473000Y-207239000D03*
G04 #@! TD*
G04 #@! TO.C,R4*
X141973000Y-208939000D03*
X141973000Y-207239000D03*
G04 #@! TD*
G04 #@! TO.C,R4*
X104473000Y-208939000D03*
X104473000Y-207239000D03*
G04 #@! TD*
G04 #@! TO.C,R4*
X179473000Y-135439000D03*
X179473000Y-133739000D03*
G04 #@! TD*
G04 #@! TO.C,R4*
X141973000Y-135439000D03*
X141973000Y-133739000D03*
G04 #@! TD*
G04 #@! TO.C,R4*
X104473000Y-135439000D03*
X104473000Y-133739000D03*
G04 #@! TD*
G04 #@! TO.C,R4*
X179473000Y-61939000D03*
X179473000Y-60239000D03*
G04 #@! TD*
G04 #@! TO.C,R4*
X141973000Y-61939000D03*
X141973000Y-60239000D03*
G04 #@! TD*
D17*
G04 #@! TO.C,J4*
X177954000Y-200312000D03*
X177954000Y-200962000D03*
X177954000Y-202262000D03*
X177954000Y-201612000D03*
X177954000Y-202912000D03*
G04 #@! TD*
G04 #@! TO.C,J4*
X140454000Y-200312000D03*
X140454000Y-200962000D03*
X140454000Y-202262000D03*
X140454000Y-201612000D03*
X140454000Y-202912000D03*
G04 #@! TD*
G04 #@! TO.C,J4*
X102954000Y-200312000D03*
X102954000Y-200962000D03*
X102954000Y-202262000D03*
X102954000Y-201612000D03*
X102954000Y-202912000D03*
G04 #@! TD*
G04 #@! TO.C,J4*
X177954000Y-126812000D03*
X177954000Y-127462000D03*
X177954000Y-128762000D03*
X177954000Y-128112000D03*
X177954000Y-129412000D03*
G04 #@! TD*
G04 #@! TO.C,J4*
X140454000Y-126812000D03*
X140454000Y-127462000D03*
X140454000Y-128762000D03*
X140454000Y-128112000D03*
X140454000Y-129412000D03*
G04 #@! TD*
G04 #@! TO.C,J4*
X102954000Y-126812000D03*
X102954000Y-127462000D03*
X102954000Y-128762000D03*
X102954000Y-128112000D03*
X102954000Y-129412000D03*
G04 #@! TD*
G04 #@! TO.C,J4*
X177954000Y-53312000D03*
X177954000Y-53962000D03*
X177954000Y-55262000D03*
X177954000Y-54612000D03*
X177954000Y-55912000D03*
G04 #@! TD*
G04 #@! TO.C,J4*
X140454000Y-53312000D03*
X140454000Y-53962000D03*
X140454000Y-55262000D03*
X140454000Y-54612000D03*
X140454000Y-55912000D03*
G04 #@! TD*
D18*
G04 #@! TO.C,D3*
X179776000Y-194627000D03*
X178076000Y-194627000D03*
G04 #@! TD*
G04 #@! TO.C,D3*
X142276000Y-194627000D03*
X140576000Y-194627000D03*
G04 #@! TD*
G04 #@! TO.C,D3*
X104776000Y-194627000D03*
X103076000Y-194627000D03*
G04 #@! TD*
G04 #@! TO.C,D3*
X179776000Y-121127000D03*
X178076000Y-121127000D03*
G04 #@! TD*
G04 #@! TO.C,D3*
X142276000Y-121127000D03*
X140576000Y-121127000D03*
G04 #@! TD*
G04 #@! TO.C,D3*
X104776000Y-121127000D03*
X103076000Y-121127000D03*
G04 #@! TD*
G04 #@! TO.C,D3*
X179776000Y-47627000D03*
X178076000Y-47627000D03*
G04 #@! TD*
G04 #@! TO.C,D3*
X142276000Y-47627000D03*
X140576000Y-47627000D03*
G04 #@! TD*
D19*
G04 #@! TO.C,U4*
X176171000Y-225386000D03*
X177441000Y-225386000D03*
X178711000Y-225386000D03*
X179981000Y-225386000D03*
X179981000Y-218986000D03*
X178711000Y-218986000D03*
X177441000Y-218986000D03*
X176171000Y-218986000D03*
G04 #@! TD*
G04 #@! TO.C,U4*
X138671000Y-225386000D03*
X139941000Y-225386000D03*
X141211000Y-225386000D03*
X142481000Y-225386000D03*
X142481000Y-218986000D03*
X141211000Y-218986000D03*
X139941000Y-218986000D03*
X138671000Y-218986000D03*
G04 #@! TD*
G04 #@! TO.C,U4*
X101171000Y-225386000D03*
X102441000Y-225386000D03*
X103711000Y-225386000D03*
X104981000Y-225386000D03*
X104981000Y-218986000D03*
X103711000Y-218986000D03*
X102441000Y-218986000D03*
X101171000Y-218986000D03*
G04 #@! TD*
G04 #@! TO.C,U4*
X176171000Y-151886000D03*
X177441000Y-151886000D03*
X178711000Y-151886000D03*
X179981000Y-151886000D03*
X179981000Y-145486000D03*
X178711000Y-145486000D03*
X177441000Y-145486000D03*
X176171000Y-145486000D03*
G04 #@! TD*
G04 #@! TO.C,U4*
X138671000Y-151886000D03*
X139941000Y-151886000D03*
X141211000Y-151886000D03*
X142481000Y-151886000D03*
X142481000Y-145486000D03*
X141211000Y-145486000D03*
X139941000Y-145486000D03*
X138671000Y-145486000D03*
G04 #@! TD*
G04 #@! TO.C,U4*
X101171000Y-151886000D03*
X102441000Y-151886000D03*
X103711000Y-151886000D03*
X104981000Y-151886000D03*
X104981000Y-145486000D03*
X103711000Y-145486000D03*
X102441000Y-145486000D03*
X101171000Y-145486000D03*
G04 #@! TD*
G04 #@! TO.C,U4*
X176171000Y-78386000D03*
X177441000Y-78386000D03*
X178711000Y-78386000D03*
X179981000Y-78386000D03*
X179981000Y-71986000D03*
X178711000Y-71986000D03*
X177441000Y-71986000D03*
X176171000Y-71986000D03*
G04 #@! TD*
G04 #@! TO.C,U4*
X138671000Y-78386000D03*
X139941000Y-78386000D03*
X141211000Y-78386000D03*
X142481000Y-78386000D03*
X142481000Y-71986000D03*
X141211000Y-71986000D03*
X139941000Y-71986000D03*
X138671000Y-71986000D03*
G04 #@! TD*
D20*
G04 #@! TO.C,D2*
X174708000Y-202850000D03*
X172808000Y-202850000D03*
X172808000Y-200850000D03*
D21*
X174508000Y-200850000D03*
G04 #@! TD*
D20*
G04 #@! TO.C,D2*
X137208000Y-202850000D03*
X135308000Y-202850000D03*
X135308000Y-200850000D03*
D21*
X137008000Y-200850000D03*
G04 #@! TD*
D20*
G04 #@! TO.C,D2*
X99708000Y-202850000D03*
X97808000Y-202850000D03*
X97808000Y-200850000D03*
D21*
X99508000Y-200850000D03*
G04 #@! TD*
D20*
G04 #@! TO.C,D2*
X174708000Y-129350000D03*
X172808000Y-129350000D03*
X172808000Y-127350000D03*
D21*
X174508000Y-127350000D03*
G04 #@! TD*
D20*
G04 #@! TO.C,D2*
X137208000Y-129350000D03*
X135308000Y-129350000D03*
X135308000Y-127350000D03*
D21*
X137008000Y-127350000D03*
G04 #@! TD*
D20*
G04 #@! TO.C,D2*
X99708000Y-129350000D03*
X97808000Y-129350000D03*
X97808000Y-127350000D03*
D21*
X99508000Y-127350000D03*
G04 #@! TD*
D20*
G04 #@! TO.C,D2*
X174708000Y-55850000D03*
X172808000Y-55850000D03*
X172808000Y-53850000D03*
D21*
X174508000Y-53850000D03*
G04 #@! TD*
D20*
G04 #@! TO.C,D2*
X137208000Y-55850000D03*
X135308000Y-55850000D03*
X135308000Y-53850000D03*
D21*
X137008000Y-53850000D03*
G04 #@! TD*
D18*
G04 #@! TO.C,R6*
X173592000Y-192912500D03*
X171892000Y-192912500D03*
G04 #@! TD*
G04 #@! TO.C,R6*
X136092000Y-192912500D03*
X134392000Y-192912500D03*
G04 #@! TD*
G04 #@! TO.C,R6*
X98592000Y-192912500D03*
X96892000Y-192912500D03*
G04 #@! TD*
G04 #@! TO.C,R6*
X173592000Y-119412500D03*
X171892000Y-119412500D03*
G04 #@! TD*
G04 #@! TO.C,R6*
X136092000Y-119412500D03*
X134392000Y-119412500D03*
G04 #@! TD*
G04 #@! TO.C,R6*
X98592000Y-119412500D03*
X96892000Y-119412500D03*
G04 #@! TD*
G04 #@! TO.C,R6*
X173592000Y-45912500D03*
X171892000Y-45912500D03*
G04 #@! TD*
G04 #@! TO.C,R6*
X136092000Y-45912500D03*
X134392000Y-45912500D03*
G04 #@! TD*
G04 #@! TO.C,C15*
X176195500Y-212343500D03*
X174495500Y-212343500D03*
G04 #@! TD*
G04 #@! TO.C,C15*
X138695500Y-212343500D03*
X136995500Y-212343500D03*
G04 #@! TD*
G04 #@! TO.C,C15*
X101195500Y-212343500D03*
X99495500Y-212343500D03*
G04 #@! TD*
G04 #@! TO.C,C15*
X176195500Y-138843500D03*
X174495500Y-138843500D03*
G04 #@! TD*
G04 #@! TO.C,C15*
X138695500Y-138843500D03*
X136995500Y-138843500D03*
G04 #@! TD*
G04 #@! TO.C,C15*
X101195500Y-138843500D03*
X99495500Y-138843500D03*
G04 #@! TD*
G04 #@! TO.C,C15*
X176195500Y-65343500D03*
X174495500Y-65343500D03*
G04 #@! TD*
G04 #@! TO.C,C15*
X138695500Y-65343500D03*
X136995500Y-65343500D03*
G04 #@! TD*
G04 #@! TO.C,C10*
X171955500Y-205358500D03*
X173655500Y-205358500D03*
G04 #@! TD*
G04 #@! TO.C,C10*
X134455500Y-205358500D03*
X136155500Y-205358500D03*
G04 #@! TD*
G04 #@! TO.C,C10*
X96955500Y-205358500D03*
X98655500Y-205358500D03*
G04 #@! TD*
G04 #@! TO.C,C10*
X171955500Y-131858500D03*
X173655500Y-131858500D03*
G04 #@! TD*
G04 #@! TO.C,C10*
X134455500Y-131858500D03*
X136155500Y-131858500D03*
G04 #@! TD*
G04 #@! TO.C,C10*
X96955500Y-131858500D03*
X98655500Y-131858500D03*
G04 #@! TD*
G04 #@! TO.C,C10*
X171955500Y-58358500D03*
X173655500Y-58358500D03*
G04 #@! TD*
G04 #@! TO.C,C10*
X134455500Y-58358500D03*
X136155500Y-58358500D03*
G04 #@! TD*
D16*
G04 #@! TO.C,C11*
X164614000Y-205065500D03*
X164614000Y-203365500D03*
G04 #@! TD*
G04 #@! TO.C,C11*
X127114000Y-205065500D03*
X127114000Y-203365500D03*
G04 #@! TD*
G04 #@! TO.C,C11*
X89614000Y-205065500D03*
X89614000Y-203365500D03*
G04 #@! TD*
G04 #@! TO.C,C11*
X164614000Y-131565500D03*
X164614000Y-129865500D03*
G04 #@! TD*
G04 #@! TO.C,C11*
X127114000Y-131565500D03*
X127114000Y-129865500D03*
G04 #@! TD*
G04 #@! TO.C,C11*
X89614000Y-131565500D03*
X89614000Y-129865500D03*
G04 #@! TD*
G04 #@! TO.C,C11*
X164614000Y-58065500D03*
X164614000Y-56365500D03*
G04 #@! TD*
G04 #@! TO.C,C11*
X127114000Y-58065500D03*
X127114000Y-56365500D03*
G04 #@! TD*
D18*
G04 #@! TO.C,R5*
X173592000Y-191325000D03*
X171892000Y-191325000D03*
G04 #@! TD*
G04 #@! TO.C,R5*
X136092000Y-191325000D03*
X134392000Y-191325000D03*
G04 #@! TD*
G04 #@! TO.C,R5*
X98592000Y-191325000D03*
X96892000Y-191325000D03*
G04 #@! TD*
G04 #@! TO.C,R5*
X173592000Y-117825000D03*
X171892000Y-117825000D03*
G04 #@! TD*
G04 #@! TO.C,R5*
X136092000Y-117825000D03*
X134392000Y-117825000D03*
G04 #@! TD*
G04 #@! TO.C,R5*
X98592000Y-117825000D03*
X96892000Y-117825000D03*
G04 #@! TD*
G04 #@! TO.C,R5*
X173592000Y-44325000D03*
X171892000Y-44325000D03*
G04 #@! TD*
G04 #@! TO.C,R5*
X136092000Y-44325000D03*
X134392000Y-44325000D03*
G04 #@! TD*
G04 #@! TO.C,D1*
X167193000Y-166814000D03*
X168893000Y-166814000D03*
G04 #@! TD*
G04 #@! TO.C,D1*
X129693000Y-166814000D03*
X131393000Y-166814000D03*
G04 #@! TD*
G04 #@! TO.C,D1*
X92193000Y-166814000D03*
X93893000Y-166814000D03*
G04 #@! TD*
G04 #@! TO.C,D1*
X167193000Y-93314000D03*
X168893000Y-93314000D03*
G04 #@! TD*
G04 #@! TO.C,D1*
X129693000Y-93314000D03*
X131393000Y-93314000D03*
G04 #@! TD*
G04 #@! TO.C,D1*
X92193000Y-93314000D03*
X93893000Y-93314000D03*
G04 #@! TD*
G04 #@! TO.C,D1*
X167193000Y-19814000D03*
X168893000Y-19814000D03*
G04 #@! TD*
G04 #@! TO.C,D1*
X129693000Y-19814000D03*
X131393000Y-19814000D03*
G04 #@! TD*
D16*
G04 #@! TO.C,C16*
X173059500Y-223749000D03*
X173059500Y-225449000D03*
G04 #@! TD*
G04 #@! TO.C,C16*
X135559500Y-223749000D03*
X135559500Y-225449000D03*
G04 #@! TD*
G04 #@! TO.C,C16*
X98059500Y-223749000D03*
X98059500Y-225449000D03*
G04 #@! TD*
G04 #@! TO.C,C16*
X173059500Y-150249000D03*
X173059500Y-151949000D03*
G04 #@! TD*
G04 #@! TO.C,C16*
X135559500Y-150249000D03*
X135559500Y-151949000D03*
G04 #@! TD*
G04 #@! TO.C,C16*
X98059500Y-150249000D03*
X98059500Y-151949000D03*
G04 #@! TD*
G04 #@! TO.C,C16*
X173059500Y-76749000D03*
X173059500Y-78449000D03*
G04 #@! TD*
G04 #@! TO.C,C16*
X135559500Y-76749000D03*
X135559500Y-78449000D03*
G04 #@! TD*
D18*
G04 #@! TO.C,L2*
X173592000Y-206946000D03*
X171892000Y-206946000D03*
G04 #@! TD*
G04 #@! TO.C,L2*
X136092000Y-206946000D03*
X134392000Y-206946000D03*
G04 #@! TD*
G04 #@! TO.C,L2*
X98592000Y-206946000D03*
X96892000Y-206946000D03*
G04 #@! TD*
G04 #@! TO.C,L2*
X173592000Y-133446000D03*
X171892000Y-133446000D03*
G04 #@! TD*
G04 #@! TO.C,L2*
X136092000Y-133446000D03*
X134392000Y-133446000D03*
G04 #@! TD*
G04 #@! TO.C,L2*
X98592000Y-133446000D03*
X96892000Y-133446000D03*
G04 #@! TD*
G04 #@! TO.C,L2*
X173592000Y-59946000D03*
X171892000Y-59946000D03*
G04 #@! TD*
G04 #@! TO.C,L2*
X136092000Y-59946000D03*
X134392000Y-59946000D03*
G04 #@! TD*
G04 #@! TO.C,R14*
X159622000Y-182054000D03*
X157922000Y-182054000D03*
G04 #@! TD*
G04 #@! TO.C,R14*
X122122000Y-182054000D03*
X120422000Y-182054000D03*
G04 #@! TD*
G04 #@! TO.C,R14*
X84622000Y-182054000D03*
X82922000Y-182054000D03*
G04 #@! TD*
G04 #@! TO.C,R14*
X159622000Y-108554000D03*
X157922000Y-108554000D03*
G04 #@! TD*
G04 #@! TO.C,R14*
X122122000Y-108554000D03*
X120422000Y-108554000D03*
G04 #@! TD*
G04 #@! TO.C,R14*
X84622000Y-108554000D03*
X82922000Y-108554000D03*
G04 #@! TD*
G04 #@! TO.C,R14*
X159622000Y-35054000D03*
X157922000Y-35054000D03*
G04 #@! TD*
G04 #@! TO.C,R14*
X122122000Y-35054000D03*
X120422000Y-35054000D03*
G04 #@! TD*
D22*
G04 #@! TO.C,U7*
X159954200Y-168718000D03*
X159954200Y-165418000D03*
X164854200Y-165418000D03*
X164854200Y-168718000D03*
G04 #@! TD*
G04 #@! TO.C,U7*
X122454200Y-168718000D03*
X122454200Y-165418000D03*
X127354200Y-165418000D03*
X127354200Y-168718000D03*
G04 #@! TD*
G04 #@! TO.C,U7*
X84954200Y-168718000D03*
X84954200Y-165418000D03*
X89854200Y-165418000D03*
X89854200Y-168718000D03*
G04 #@! TD*
G04 #@! TO.C,U7*
X159954200Y-95218000D03*
X159954200Y-91918000D03*
X164854200Y-91918000D03*
X164854200Y-95218000D03*
G04 #@! TD*
G04 #@! TO.C,U7*
X122454200Y-95218000D03*
X122454200Y-91918000D03*
X127354200Y-91918000D03*
X127354200Y-95218000D03*
G04 #@! TD*
G04 #@! TO.C,U7*
X84954200Y-95218000D03*
X84954200Y-91918000D03*
X89854200Y-91918000D03*
X89854200Y-95218000D03*
G04 #@! TD*
G04 #@! TO.C,U7*
X159954200Y-21718000D03*
X159954200Y-18418000D03*
X164854200Y-18418000D03*
X164854200Y-21718000D03*
G04 #@! TD*
G04 #@! TO.C,U7*
X122454200Y-21718000D03*
X122454200Y-18418000D03*
X127354200Y-18418000D03*
X127354200Y-21718000D03*
G04 #@! TD*
D18*
G04 #@! TO.C,R8*
X172004500Y-210184500D03*
X170304500Y-210184500D03*
G04 #@! TD*
G04 #@! TO.C,R8*
X134504500Y-210184500D03*
X132804500Y-210184500D03*
G04 #@! TD*
G04 #@! TO.C,R8*
X97004500Y-210184500D03*
X95304500Y-210184500D03*
G04 #@! TD*
G04 #@! TO.C,R8*
X172004500Y-136684500D03*
X170304500Y-136684500D03*
G04 #@! TD*
G04 #@! TO.C,R8*
X134504500Y-136684500D03*
X132804500Y-136684500D03*
G04 #@! TD*
G04 #@! TO.C,R8*
X97004500Y-136684500D03*
X95304500Y-136684500D03*
G04 #@! TD*
G04 #@! TO.C,R8*
X172004500Y-63184500D03*
X170304500Y-63184500D03*
G04 #@! TD*
G04 #@! TO.C,R8*
X134504500Y-63184500D03*
X132804500Y-63184500D03*
G04 #@! TD*
D23*
G04 #@! TO.C,U1*
X164976771Y-188151942D03*
D24*
G36*
X164642663Y-188645149D02*
X164483564Y-188486050D01*
X165310879Y-187658735D01*
X165469978Y-187817834D01*
X164642663Y-188645149D01*
X164642663Y-188645149D01*
G37*
D23*
X165330324Y-188505495D03*
D24*
G36*
X164996216Y-188998702D02*
X164837117Y-188839603D01*
X165664432Y-188012288D01*
X165823531Y-188171387D01*
X164996216Y-188998702D01*
X164996216Y-188998702D01*
G37*
D23*
X165683878Y-188859049D03*
D24*
G36*
X165349770Y-189352256D02*
X165190671Y-189193157D01*
X166017986Y-188365842D01*
X166177085Y-188524941D01*
X165349770Y-189352256D01*
X165349770Y-189352256D01*
G37*
D23*
X166037431Y-189212602D03*
D24*
G36*
X165703323Y-189705809D02*
X165544224Y-189546710D01*
X166371539Y-188719395D01*
X166530638Y-188878494D01*
X165703323Y-189705809D01*
X165703323Y-189705809D01*
G37*
D23*
X166390984Y-189566155D03*
D24*
G36*
X166056876Y-190059362D02*
X165897777Y-189900263D01*
X166725092Y-189072948D01*
X166884191Y-189232047D01*
X166056876Y-190059362D01*
X166056876Y-190059362D01*
G37*
D23*
X166744538Y-189919709D03*
D24*
G36*
X166410430Y-190412916D02*
X166251331Y-190253817D01*
X167078646Y-189426502D01*
X167237745Y-189585601D01*
X166410430Y-190412916D01*
X166410430Y-190412916D01*
G37*
D23*
X167098091Y-190273262D03*
D24*
G36*
X166763983Y-190766469D02*
X166604884Y-190607370D01*
X167432199Y-189780055D01*
X167591298Y-189939154D01*
X166763983Y-190766469D01*
X166763983Y-190766469D01*
G37*
D23*
X167451645Y-190626816D03*
D24*
G36*
X167117537Y-191120023D02*
X166958438Y-190960924D01*
X167785753Y-190133609D01*
X167944852Y-190292708D01*
X167117537Y-191120023D01*
X167117537Y-191120023D01*
G37*
D23*
X167805198Y-190980369D03*
D24*
G36*
X167471090Y-191473576D02*
X167311991Y-191314477D01*
X168139306Y-190487162D01*
X168298405Y-190646261D01*
X167471090Y-191473576D01*
X167471090Y-191473576D01*
G37*
D23*
X168158751Y-191333922D03*
D24*
G36*
X167824643Y-191827129D02*
X167665544Y-191668030D01*
X168492859Y-190840715D01*
X168651958Y-190999814D01*
X167824643Y-191827129D01*
X167824643Y-191827129D01*
G37*
D23*
X168512305Y-191687476D03*
D24*
G36*
X168178197Y-192180683D02*
X168019098Y-192021584D01*
X168846413Y-191194269D01*
X169005512Y-191353368D01*
X168178197Y-192180683D01*
X168178197Y-192180683D01*
G37*
D23*
X168865858Y-192041029D03*
D24*
G36*
X168531750Y-192534236D02*
X168372651Y-192375137D01*
X169199966Y-191547822D01*
X169359065Y-191706921D01*
X168531750Y-192534236D01*
X168531750Y-192534236D01*
G37*
D23*
X168865858Y-194303771D03*
D24*
G36*
X168372651Y-193969663D02*
X168531750Y-193810564D01*
X169359065Y-194637879D01*
X169199966Y-194796978D01*
X168372651Y-193969663D01*
X168372651Y-193969663D01*
G37*
D23*
X168512305Y-194657324D03*
D24*
G36*
X168019098Y-194323216D02*
X168178197Y-194164117D01*
X169005512Y-194991432D01*
X168846413Y-195150531D01*
X168019098Y-194323216D01*
X168019098Y-194323216D01*
G37*
D23*
X168158751Y-195010878D03*
D24*
G36*
X167665544Y-194676770D02*
X167824643Y-194517671D01*
X168651958Y-195344986D01*
X168492859Y-195504085D01*
X167665544Y-194676770D01*
X167665544Y-194676770D01*
G37*
D23*
X167805198Y-195364431D03*
D24*
G36*
X167311991Y-195030323D02*
X167471090Y-194871224D01*
X168298405Y-195698539D01*
X168139306Y-195857638D01*
X167311991Y-195030323D01*
X167311991Y-195030323D01*
G37*
D23*
X167451645Y-195717984D03*
D24*
G36*
X166958438Y-195383876D02*
X167117537Y-195224777D01*
X167944852Y-196052092D01*
X167785753Y-196211191D01*
X166958438Y-195383876D01*
X166958438Y-195383876D01*
G37*
D23*
X167098091Y-196071538D03*
D24*
G36*
X166604884Y-195737430D02*
X166763983Y-195578331D01*
X167591298Y-196405646D01*
X167432199Y-196564745D01*
X166604884Y-195737430D01*
X166604884Y-195737430D01*
G37*
D23*
X166744538Y-196425091D03*
D24*
G36*
X166251331Y-196090983D02*
X166410430Y-195931884D01*
X167237745Y-196759199D01*
X167078646Y-196918298D01*
X166251331Y-196090983D01*
X166251331Y-196090983D01*
G37*
D23*
X166390984Y-196778645D03*
D24*
G36*
X165897777Y-196444537D02*
X166056876Y-196285438D01*
X166884191Y-197112753D01*
X166725092Y-197271852D01*
X165897777Y-196444537D01*
X165897777Y-196444537D01*
G37*
D23*
X166037431Y-197132198D03*
D24*
G36*
X165544224Y-196798090D02*
X165703323Y-196638991D01*
X166530638Y-197466306D01*
X166371539Y-197625405D01*
X165544224Y-196798090D01*
X165544224Y-196798090D01*
G37*
D23*
X165683878Y-197485751D03*
D24*
G36*
X165190671Y-197151643D02*
X165349770Y-196992544D01*
X166177085Y-197819859D01*
X166017986Y-197978958D01*
X165190671Y-197151643D01*
X165190671Y-197151643D01*
G37*
D23*
X165330324Y-197839305D03*
D24*
G36*
X164837117Y-197505197D02*
X164996216Y-197346098D01*
X165823531Y-198173413D01*
X165664432Y-198332512D01*
X164837117Y-197505197D01*
X164837117Y-197505197D01*
G37*
D23*
X164976771Y-198192858D03*
D24*
G36*
X164483564Y-197858750D02*
X164642663Y-197699651D01*
X165469978Y-198526966D01*
X165310879Y-198686065D01*
X164483564Y-197858750D01*
X164483564Y-197858750D01*
G37*
D23*
X162714029Y-198192858D03*
D24*
G36*
X162379921Y-198686065D02*
X162220822Y-198526966D01*
X163048137Y-197699651D01*
X163207236Y-197858750D01*
X162379921Y-198686065D01*
X162379921Y-198686065D01*
G37*
D23*
X162360476Y-197839305D03*
D24*
G36*
X162026368Y-198332512D02*
X161867269Y-198173413D01*
X162694584Y-197346098D01*
X162853683Y-197505197D01*
X162026368Y-198332512D01*
X162026368Y-198332512D01*
G37*
D23*
X162006922Y-197485751D03*
D24*
G36*
X161672814Y-197978958D02*
X161513715Y-197819859D01*
X162341030Y-196992544D01*
X162500129Y-197151643D01*
X161672814Y-197978958D01*
X161672814Y-197978958D01*
G37*
D23*
X161653369Y-197132198D03*
D24*
G36*
X161319261Y-197625405D02*
X161160162Y-197466306D01*
X161987477Y-196638991D01*
X162146576Y-196798090D01*
X161319261Y-197625405D01*
X161319261Y-197625405D01*
G37*
D23*
X161299816Y-196778645D03*
D24*
G36*
X160965708Y-197271852D02*
X160806609Y-197112753D01*
X161633924Y-196285438D01*
X161793023Y-196444537D01*
X160965708Y-197271852D01*
X160965708Y-197271852D01*
G37*
D23*
X160946262Y-196425091D03*
D24*
G36*
X160612154Y-196918298D02*
X160453055Y-196759199D01*
X161280370Y-195931884D01*
X161439469Y-196090983D01*
X160612154Y-196918298D01*
X160612154Y-196918298D01*
G37*
D23*
X160592709Y-196071538D03*
D24*
G36*
X160258601Y-196564745D02*
X160099502Y-196405646D01*
X160926817Y-195578331D01*
X161085916Y-195737430D01*
X160258601Y-196564745D01*
X160258601Y-196564745D01*
G37*
D23*
X160239155Y-195717984D03*
D24*
G36*
X159905047Y-196211191D02*
X159745948Y-196052092D01*
X160573263Y-195224777D01*
X160732362Y-195383876D01*
X159905047Y-196211191D01*
X159905047Y-196211191D01*
G37*
D23*
X159885602Y-195364431D03*
D24*
G36*
X159551494Y-195857638D02*
X159392395Y-195698539D01*
X160219710Y-194871224D01*
X160378809Y-195030323D01*
X159551494Y-195857638D01*
X159551494Y-195857638D01*
G37*
D23*
X159532049Y-195010878D03*
D24*
G36*
X159197941Y-195504085D02*
X159038842Y-195344986D01*
X159866157Y-194517671D01*
X160025256Y-194676770D01*
X159197941Y-195504085D01*
X159197941Y-195504085D01*
G37*
D23*
X159178495Y-194657324D03*
D24*
G36*
X158844387Y-195150531D02*
X158685288Y-194991432D01*
X159512603Y-194164117D01*
X159671702Y-194323216D01*
X158844387Y-195150531D01*
X158844387Y-195150531D01*
G37*
D23*
X158824942Y-194303771D03*
D24*
G36*
X158490834Y-194796978D02*
X158331735Y-194637879D01*
X159159050Y-193810564D01*
X159318149Y-193969663D01*
X158490834Y-194796978D01*
X158490834Y-194796978D01*
G37*
D23*
X158824942Y-192041029D03*
D24*
G36*
X158331735Y-191706921D02*
X158490834Y-191547822D01*
X159318149Y-192375137D01*
X159159050Y-192534236D01*
X158331735Y-191706921D01*
X158331735Y-191706921D01*
G37*
D23*
X159178495Y-191687476D03*
D24*
G36*
X158685288Y-191353368D02*
X158844387Y-191194269D01*
X159671702Y-192021584D01*
X159512603Y-192180683D01*
X158685288Y-191353368D01*
X158685288Y-191353368D01*
G37*
D23*
X159532049Y-191333922D03*
D24*
G36*
X159038842Y-190999814D02*
X159197941Y-190840715D01*
X160025256Y-191668030D01*
X159866157Y-191827129D01*
X159038842Y-190999814D01*
X159038842Y-190999814D01*
G37*
D23*
X159885602Y-190980369D03*
D24*
G36*
X159392395Y-190646261D02*
X159551494Y-190487162D01*
X160378809Y-191314477D01*
X160219710Y-191473576D01*
X159392395Y-190646261D01*
X159392395Y-190646261D01*
G37*
D23*
X160239155Y-190626816D03*
D24*
G36*
X159745948Y-190292708D02*
X159905047Y-190133609D01*
X160732362Y-190960924D01*
X160573263Y-191120023D01*
X159745948Y-190292708D01*
X159745948Y-190292708D01*
G37*
D23*
X160592709Y-190273262D03*
D24*
G36*
X160099502Y-189939154D02*
X160258601Y-189780055D01*
X161085916Y-190607370D01*
X160926817Y-190766469D01*
X160099502Y-189939154D01*
X160099502Y-189939154D01*
G37*
D23*
X160946262Y-189919709D03*
D24*
G36*
X160453055Y-189585601D02*
X160612154Y-189426502D01*
X161439469Y-190253817D01*
X161280370Y-190412916D01*
X160453055Y-189585601D01*
X160453055Y-189585601D01*
G37*
D23*
X161299816Y-189566155D03*
D24*
G36*
X160806609Y-189232047D02*
X160965708Y-189072948D01*
X161793023Y-189900263D01*
X161633924Y-190059362D01*
X160806609Y-189232047D01*
X160806609Y-189232047D01*
G37*
D23*
X161653369Y-189212602D03*
D24*
G36*
X161160162Y-188878494D02*
X161319261Y-188719395D01*
X162146576Y-189546710D01*
X161987477Y-189705809D01*
X161160162Y-188878494D01*
X161160162Y-188878494D01*
G37*
D23*
X162006922Y-188859049D03*
D24*
G36*
X161513715Y-188524941D02*
X161672814Y-188365842D01*
X162500129Y-189193157D01*
X162341030Y-189352256D01*
X161513715Y-188524941D01*
X161513715Y-188524941D01*
G37*
D23*
X162360476Y-188505495D03*
D24*
G36*
X161867269Y-188171387D02*
X162026368Y-188012288D01*
X162853683Y-188839603D01*
X162694584Y-188998702D01*
X161867269Y-188171387D01*
X161867269Y-188171387D01*
G37*
D23*
X162714029Y-188151942D03*
D24*
G36*
X162220822Y-187817834D02*
X162379921Y-187658735D01*
X163207236Y-188486050D01*
X163048137Y-188645149D01*
X162220822Y-187817834D01*
X162220822Y-187817834D01*
G37*
G04 #@! TD*
D23*
G04 #@! TO.C,U1*
X127476771Y-188151942D03*
D24*
G36*
X127142663Y-188645149D02*
X126983564Y-188486050D01*
X127810879Y-187658735D01*
X127969978Y-187817834D01*
X127142663Y-188645149D01*
X127142663Y-188645149D01*
G37*
D23*
X127830324Y-188505495D03*
D24*
G36*
X127496216Y-188998702D02*
X127337117Y-188839603D01*
X128164432Y-188012288D01*
X128323531Y-188171387D01*
X127496216Y-188998702D01*
X127496216Y-188998702D01*
G37*
D23*
X128183878Y-188859049D03*
D24*
G36*
X127849770Y-189352256D02*
X127690671Y-189193157D01*
X128517986Y-188365842D01*
X128677085Y-188524941D01*
X127849770Y-189352256D01*
X127849770Y-189352256D01*
G37*
D23*
X128537431Y-189212602D03*
D24*
G36*
X128203323Y-189705809D02*
X128044224Y-189546710D01*
X128871539Y-188719395D01*
X129030638Y-188878494D01*
X128203323Y-189705809D01*
X128203323Y-189705809D01*
G37*
D23*
X128890984Y-189566155D03*
D24*
G36*
X128556876Y-190059362D02*
X128397777Y-189900263D01*
X129225092Y-189072948D01*
X129384191Y-189232047D01*
X128556876Y-190059362D01*
X128556876Y-190059362D01*
G37*
D23*
X129244538Y-189919709D03*
D24*
G36*
X128910430Y-190412916D02*
X128751331Y-190253817D01*
X129578646Y-189426502D01*
X129737745Y-189585601D01*
X128910430Y-190412916D01*
X128910430Y-190412916D01*
G37*
D23*
X129598091Y-190273262D03*
D24*
G36*
X129263983Y-190766469D02*
X129104884Y-190607370D01*
X129932199Y-189780055D01*
X130091298Y-189939154D01*
X129263983Y-190766469D01*
X129263983Y-190766469D01*
G37*
D23*
X129951645Y-190626816D03*
D24*
G36*
X129617537Y-191120023D02*
X129458438Y-190960924D01*
X130285753Y-190133609D01*
X130444852Y-190292708D01*
X129617537Y-191120023D01*
X129617537Y-191120023D01*
G37*
D23*
X130305198Y-190980369D03*
D24*
G36*
X129971090Y-191473576D02*
X129811991Y-191314477D01*
X130639306Y-190487162D01*
X130798405Y-190646261D01*
X129971090Y-191473576D01*
X129971090Y-191473576D01*
G37*
D23*
X130658751Y-191333922D03*
D24*
G36*
X130324643Y-191827129D02*
X130165544Y-191668030D01*
X130992859Y-190840715D01*
X131151958Y-190999814D01*
X130324643Y-191827129D01*
X130324643Y-191827129D01*
G37*
D23*
X131012305Y-191687476D03*
D24*
G36*
X130678197Y-192180683D02*
X130519098Y-192021584D01*
X131346413Y-191194269D01*
X131505512Y-191353368D01*
X130678197Y-192180683D01*
X130678197Y-192180683D01*
G37*
D23*
X131365858Y-192041029D03*
D24*
G36*
X131031750Y-192534236D02*
X130872651Y-192375137D01*
X131699966Y-191547822D01*
X131859065Y-191706921D01*
X131031750Y-192534236D01*
X131031750Y-192534236D01*
G37*
D23*
X131365858Y-194303771D03*
D24*
G36*
X130872651Y-193969663D02*
X131031750Y-193810564D01*
X131859065Y-194637879D01*
X131699966Y-194796978D01*
X130872651Y-193969663D01*
X130872651Y-193969663D01*
G37*
D23*
X131012305Y-194657324D03*
D24*
G36*
X130519098Y-194323216D02*
X130678197Y-194164117D01*
X131505512Y-194991432D01*
X131346413Y-195150531D01*
X130519098Y-194323216D01*
X130519098Y-194323216D01*
G37*
D23*
X130658751Y-195010878D03*
D24*
G36*
X130165544Y-194676770D02*
X130324643Y-194517671D01*
X131151958Y-195344986D01*
X130992859Y-195504085D01*
X130165544Y-194676770D01*
X130165544Y-194676770D01*
G37*
D23*
X130305198Y-195364431D03*
D24*
G36*
X129811991Y-195030323D02*
X129971090Y-194871224D01*
X130798405Y-195698539D01*
X130639306Y-195857638D01*
X129811991Y-195030323D01*
X129811991Y-195030323D01*
G37*
D23*
X129951645Y-195717984D03*
D24*
G36*
X129458438Y-195383876D02*
X129617537Y-195224777D01*
X130444852Y-196052092D01*
X130285753Y-196211191D01*
X129458438Y-195383876D01*
X129458438Y-195383876D01*
G37*
D23*
X129598091Y-196071538D03*
D24*
G36*
X129104884Y-195737430D02*
X129263983Y-195578331D01*
X130091298Y-196405646D01*
X129932199Y-196564745D01*
X129104884Y-195737430D01*
X129104884Y-195737430D01*
G37*
D23*
X129244538Y-196425091D03*
D24*
G36*
X128751331Y-196090983D02*
X128910430Y-195931884D01*
X129737745Y-196759199D01*
X129578646Y-196918298D01*
X128751331Y-196090983D01*
X128751331Y-196090983D01*
G37*
D23*
X128890984Y-196778645D03*
D24*
G36*
X128397777Y-196444537D02*
X128556876Y-196285438D01*
X129384191Y-197112753D01*
X129225092Y-197271852D01*
X128397777Y-196444537D01*
X128397777Y-196444537D01*
G37*
D23*
X128537431Y-197132198D03*
D24*
G36*
X128044224Y-196798090D02*
X128203323Y-196638991D01*
X129030638Y-197466306D01*
X128871539Y-197625405D01*
X128044224Y-196798090D01*
X128044224Y-196798090D01*
G37*
D23*
X128183878Y-197485751D03*
D24*
G36*
X127690671Y-197151643D02*
X127849770Y-196992544D01*
X128677085Y-197819859D01*
X128517986Y-197978958D01*
X127690671Y-197151643D01*
X127690671Y-197151643D01*
G37*
D23*
X127830324Y-197839305D03*
D24*
G36*
X127337117Y-197505197D02*
X127496216Y-197346098D01*
X128323531Y-198173413D01*
X128164432Y-198332512D01*
X127337117Y-197505197D01*
X127337117Y-197505197D01*
G37*
D23*
X127476771Y-198192858D03*
D24*
G36*
X126983564Y-197858750D02*
X127142663Y-197699651D01*
X127969978Y-198526966D01*
X127810879Y-198686065D01*
X126983564Y-197858750D01*
X126983564Y-197858750D01*
G37*
D23*
X125214029Y-198192858D03*
D24*
G36*
X124879921Y-198686065D02*
X124720822Y-198526966D01*
X125548137Y-197699651D01*
X125707236Y-197858750D01*
X124879921Y-198686065D01*
X124879921Y-198686065D01*
G37*
D23*
X124860476Y-197839305D03*
D24*
G36*
X124526368Y-198332512D02*
X124367269Y-198173413D01*
X125194584Y-197346098D01*
X125353683Y-197505197D01*
X124526368Y-198332512D01*
X124526368Y-198332512D01*
G37*
D23*
X124506922Y-197485751D03*
D24*
G36*
X124172814Y-197978958D02*
X124013715Y-197819859D01*
X124841030Y-196992544D01*
X125000129Y-197151643D01*
X124172814Y-197978958D01*
X124172814Y-197978958D01*
G37*
D23*
X124153369Y-197132198D03*
D24*
G36*
X123819261Y-197625405D02*
X123660162Y-197466306D01*
X124487477Y-196638991D01*
X124646576Y-196798090D01*
X123819261Y-197625405D01*
X123819261Y-197625405D01*
G37*
D23*
X123799816Y-196778645D03*
D24*
G36*
X123465708Y-197271852D02*
X123306609Y-197112753D01*
X124133924Y-196285438D01*
X124293023Y-196444537D01*
X123465708Y-197271852D01*
X123465708Y-197271852D01*
G37*
D23*
X123446262Y-196425091D03*
D24*
G36*
X123112154Y-196918298D02*
X122953055Y-196759199D01*
X123780370Y-195931884D01*
X123939469Y-196090983D01*
X123112154Y-196918298D01*
X123112154Y-196918298D01*
G37*
D23*
X123092709Y-196071538D03*
D24*
G36*
X122758601Y-196564745D02*
X122599502Y-196405646D01*
X123426817Y-195578331D01*
X123585916Y-195737430D01*
X122758601Y-196564745D01*
X122758601Y-196564745D01*
G37*
D23*
X122739155Y-195717984D03*
D24*
G36*
X122405047Y-196211191D02*
X122245948Y-196052092D01*
X123073263Y-195224777D01*
X123232362Y-195383876D01*
X122405047Y-196211191D01*
X122405047Y-196211191D01*
G37*
D23*
X122385602Y-195364431D03*
D24*
G36*
X122051494Y-195857638D02*
X121892395Y-195698539D01*
X122719710Y-194871224D01*
X122878809Y-195030323D01*
X122051494Y-195857638D01*
X122051494Y-195857638D01*
G37*
D23*
X122032049Y-195010878D03*
D24*
G36*
X121697941Y-195504085D02*
X121538842Y-195344986D01*
X122366157Y-194517671D01*
X122525256Y-194676770D01*
X121697941Y-195504085D01*
X121697941Y-195504085D01*
G37*
D23*
X121678495Y-194657324D03*
D24*
G36*
X121344387Y-195150531D02*
X121185288Y-194991432D01*
X122012603Y-194164117D01*
X122171702Y-194323216D01*
X121344387Y-195150531D01*
X121344387Y-195150531D01*
G37*
D23*
X121324942Y-194303771D03*
D24*
G36*
X120990834Y-194796978D02*
X120831735Y-194637879D01*
X121659050Y-193810564D01*
X121818149Y-193969663D01*
X120990834Y-194796978D01*
X120990834Y-194796978D01*
G37*
D23*
X121324942Y-192041029D03*
D24*
G36*
X120831735Y-191706921D02*
X120990834Y-191547822D01*
X121818149Y-192375137D01*
X121659050Y-192534236D01*
X120831735Y-191706921D01*
X120831735Y-191706921D01*
G37*
D23*
X121678495Y-191687476D03*
D24*
G36*
X121185288Y-191353368D02*
X121344387Y-191194269D01*
X122171702Y-192021584D01*
X122012603Y-192180683D01*
X121185288Y-191353368D01*
X121185288Y-191353368D01*
G37*
D23*
X122032049Y-191333922D03*
D24*
G36*
X121538842Y-190999814D02*
X121697941Y-190840715D01*
X122525256Y-191668030D01*
X122366157Y-191827129D01*
X121538842Y-190999814D01*
X121538842Y-190999814D01*
G37*
D23*
X122385602Y-190980369D03*
D24*
G36*
X121892395Y-190646261D02*
X122051494Y-190487162D01*
X122878809Y-191314477D01*
X122719710Y-191473576D01*
X121892395Y-190646261D01*
X121892395Y-190646261D01*
G37*
D23*
X122739155Y-190626816D03*
D24*
G36*
X122245948Y-190292708D02*
X122405047Y-190133609D01*
X123232362Y-190960924D01*
X123073263Y-191120023D01*
X122245948Y-190292708D01*
X122245948Y-190292708D01*
G37*
D23*
X123092709Y-190273262D03*
D24*
G36*
X122599502Y-189939154D02*
X122758601Y-189780055D01*
X123585916Y-190607370D01*
X123426817Y-190766469D01*
X122599502Y-189939154D01*
X122599502Y-189939154D01*
G37*
D23*
X123446262Y-189919709D03*
D24*
G36*
X122953055Y-189585601D02*
X123112154Y-189426502D01*
X123939469Y-190253817D01*
X123780370Y-190412916D01*
X122953055Y-189585601D01*
X122953055Y-189585601D01*
G37*
D23*
X123799816Y-189566155D03*
D24*
G36*
X123306609Y-189232047D02*
X123465708Y-189072948D01*
X124293023Y-189900263D01*
X124133924Y-190059362D01*
X123306609Y-189232047D01*
X123306609Y-189232047D01*
G37*
D23*
X124153369Y-189212602D03*
D24*
G36*
X123660162Y-188878494D02*
X123819261Y-188719395D01*
X124646576Y-189546710D01*
X124487477Y-189705809D01*
X123660162Y-188878494D01*
X123660162Y-188878494D01*
G37*
D23*
X124506922Y-188859049D03*
D24*
G36*
X124013715Y-188524941D02*
X124172814Y-188365842D01*
X125000129Y-189193157D01*
X124841030Y-189352256D01*
X124013715Y-188524941D01*
X124013715Y-188524941D01*
G37*
D23*
X124860476Y-188505495D03*
D24*
G36*
X124367269Y-188171387D02*
X124526368Y-188012288D01*
X125353683Y-188839603D01*
X125194584Y-188998702D01*
X124367269Y-188171387D01*
X124367269Y-188171387D01*
G37*
D23*
X125214029Y-188151942D03*
D24*
G36*
X124720822Y-187817834D02*
X124879921Y-187658735D01*
X125707236Y-188486050D01*
X125548137Y-188645149D01*
X124720822Y-187817834D01*
X124720822Y-187817834D01*
G37*
G04 #@! TD*
D23*
G04 #@! TO.C,U1*
X89976771Y-188151942D03*
D24*
G36*
X89642663Y-188645149D02*
X89483564Y-188486050D01*
X90310879Y-187658735D01*
X90469978Y-187817834D01*
X89642663Y-188645149D01*
X89642663Y-188645149D01*
G37*
D23*
X90330324Y-188505495D03*
D24*
G36*
X89996216Y-188998702D02*
X89837117Y-188839603D01*
X90664432Y-188012288D01*
X90823531Y-188171387D01*
X89996216Y-188998702D01*
X89996216Y-188998702D01*
G37*
D23*
X90683878Y-188859049D03*
D24*
G36*
X90349770Y-189352256D02*
X90190671Y-189193157D01*
X91017986Y-188365842D01*
X91177085Y-188524941D01*
X90349770Y-189352256D01*
X90349770Y-189352256D01*
G37*
D23*
X91037431Y-189212602D03*
D24*
G36*
X90703323Y-189705809D02*
X90544224Y-189546710D01*
X91371539Y-188719395D01*
X91530638Y-188878494D01*
X90703323Y-189705809D01*
X90703323Y-189705809D01*
G37*
D23*
X91390984Y-189566155D03*
D24*
G36*
X91056876Y-190059362D02*
X90897777Y-189900263D01*
X91725092Y-189072948D01*
X91884191Y-189232047D01*
X91056876Y-190059362D01*
X91056876Y-190059362D01*
G37*
D23*
X91744538Y-189919709D03*
D24*
G36*
X91410430Y-190412916D02*
X91251331Y-190253817D01*
X92078646Y-189426502D01*
X92237745Y-189585601D01*
X91410430Y-190412916D01*
X91410430Y-190412916D01*
G37*
D23*
X92098091Y-190273262D03*
D24*
G36*
X91763983Y-190766469D02*
X91604884Y-190607370D01*
X92432199Y-189780055D01*
X92591298Y-189939154D01*
X91763983Y-190766469D01*
X91763983Y-190766469D01*
G37*
D23*
X92451645Y-190626816D03*
D24*
G36*
X92117537Y-191120023D02*
X91958438Y-190960924D01*
X92785753Y-190133609D01*
X92944852Y-190292708D01*
X92117537Y-191120023D01*
X92117537Y-191120023D01*
G37*
D23*
X92805198Y-190980369D03*
D24*
G36*
X92471090Y-191473576D02*
X92311991Y-191314477D01*
X93139306Y-190487162D01*
X93298405Y-190646261D01*
X92471090Y-191473576D01*
X92471090Y-191473576D01*
G37*
D23*
X93158751Y-191333922D03*
D24*
G36*
X92824643Y-191827129D02*
X92665544Y-191668030D01*
X93492859Y-190840715D01*
X93651958Y-190999814D01*
X92824643Y-191827129D01*
X92824643Y-191827129D01*
G37*
D23*
X93512305Y-191687476D03*
D24*
G36*
X93178197Y-192180683D02*
X93019098Y-192021584D01*
X93846413Y-191194269D01*
X94005512Y-191353368D01*
X93178197Y-192180683D01*
X93178197Y-192180683D01*
G37*
D23*
X93865858Y-192041029D03*
D24*
G36*
X93531750Y-192534236D02*
X93372651Y-192375137D01*
X94199966Y-191547822D01*
X94359065Y-191706921D01*
X93531750Y-192534236D01*
X93531750Y-192534236D01*
G37*
D23*
X93865858Y-194303771D03*
D24*
G36*
X93372651Y-193969663D02*
X93531750Y-193810564D01*
X94359065Y-194637879D01*
X94199966Y-194796978D01*
X93372651Y-193969663D01*
X93372651Y-193969663D01*
G37*
D23*
X93512305Y-194657324D03*
D24*
G36*
X93019098Y-194323216D02*
X93178197Y-194164117D01*
X94005512Y-194991432D01*
X93846413Y-195150531D01*
X93019098Y-194323216D01*
X93019098Y-194323216D01*
G37*
D23*
X93158751Y-195010878D03*
D24*
G36*
X92665544Y-194676770D02*
X92824643Y-194517671D01*
X93651958Y-195344986D01*
X93492859Y-195504085D01*
X92665544Y-194676770D01*
X92665544Y-194676770D01*
G37*
D23*
X92805198Y-195364431D03*
D24*
G36*
X92311991Y-195030323D02*
X92471090Y-194871224D01*
X93298405Y-195698539D01*
X93139306Y-195857638D01*
X92311991Y-195030323D01*
X92311991Y-195030323D01*
G37*
D23*
X92451645Y-195717984D03*
D24*
G36*
X91958438Y-195383876D02*
X92117537Y-195224777D01*
X92944852Y-196052092D01*
X92785753Y-196211191D01*
X91958438Y-195383876D01*
X91958438Y-195383876D01*
G37*
D23*
X92098091Y-196071538D03*
D24*
G36*
X91604884Y-195737430D02*
X91763983Y-195578331D01*
X92591298Y-196405646D01*
X92432199Y-196564745D01*
X91604884Y-195737430D01*
X91604884Y-195737430D01*
G37*
D23*
X91744538Y-196425091D03*
D24*
G36*
X91251331Y-196090983D02*
X91410430Y-195931884D01*
X92237745Y-196759199D01*
X92078646Y-196918298D01*
X91251331Y-196090983D01*
X91251331Y-196090983D01*
G37*
D23*
X91390984Y-196778645D03*
D24*
G36*
X90897777Y-196444537D02*
X91056876Y-196285438D01*
X91884191Y-197112753D01*
X91725092Y-197271852D01*
X90897777Y-196444537D01*
X90897777Y-196444537D01*
G37*
D23*
X91037431Y-197132198D03*
D24*
G36*
X90544224Y-196798090D02*
X90703323Y-196638991D01*
X91530638Y-197466306D01*
X91371539Y-197625405D01*
X90544224Y-196798090D01*
X90544224Y-196798090D01*
G37*
D23*
X90683878Y-197485751D03*
D24*
G36*
X90190671Y-197151643D02*
X90349770Y-196992544D01*
X91177085Y-197819859D01*
X91017986Y-197978958D01*
X90190671Y-197151643D01*
X90190671Y-197151643D01*
G37*
D23*
X90330324Y-197839305D03*
D24*
G36*
X89837117Y-197505197D02*
X89996216Y-197346098D01*
X90823531Y-198173413D01*
X90664432Y-198332512D01*
X89837117Y-197505197D01*
X89837117Y-197505197D01*
G37*
D23*
X89976771Y-198192858D03*
D24*
G36*
X89483564Y-197858750D02*
X89642663Y-197699651D01*
X90469978Y-198526966D01*
X90310879Y-198686065D01*
X89483564Y-197858750D01*
X89483564Y-197858750D01*
G37*
D23*
X87714029Y-198192858D03*
D24*
G36*
X87379921Y-198686065D02*
X87220822Y-198526966D01*
X88048137Y-197699651D01*
X88207236Y-197858750D01*
X87379921Y-198686065D01*
X87379921Y-198686065D01*
G37*
D23*
X87360476Y-197839305D03*
D24*
G36*
X87026368Y-198332512D02*
X86867269Y-198173413D01*
X87694584Y-197346098D01*
X87853683Y-197505197D01*
X87026368Y-198332512D01*
X87026368Y-198332512D01*
G37*
D23*
X87006922Y-197485751D03*
D24*
G36*
X86672814Y-197978958D02*
X86513715Y-197819859D01*
X87341030Y-196992544D01*
X87500129Y-197151643D01*
X86672814Y-197978958D01*
X86672814Y-197978958D01*
G37*
D23*
X86653369Y-197132198D03*
D24*
G36*
X86319261Y-197625405D02*
X86160162Y-197466306D01*
X86987477Y-196638991D01*
X87146576Y-196798090D01*
X86319261Y-197625405D01*
X86319261Y-197625405D01*
G37*
D23*
X86299816Y-196778645D03*
D24*
G36*
X85965708Y-197271852D02*
X85806609Y-197112753D01*
X86633924Y-196285438D01*
X86793023Y-196444537D01*
X85965708Y-197271852D01*
X85965708Y-197271852D01*
G37*
D23*
X85946262Y-196425091D03*
D24*
G36*
X85612154Y-196918298D02*
X85453055Y-196759199D01*
X86280370Y-195931884D01*
X86439469Y-196090983D01*
X85612154Y-196918298D01*
X85612154Y-196918298D01*
G37*
D23*
X85592709Y-196071538D03*
D24*
G36*
X85258601Y-196564745D02*
X85099502Y-196405646D01*
X85926817Y-195578331D01*
X86085916Y-195737430D01*
X85258601Y-196564745D01*
X85258601Y-196564745D01*
G37*
D23*
X85239155Y-195717984D03*
D24*
G36*
X84905047Y-196211191D02*
X84745948Y-196052092D01*
X85573263Y-195224777D01*
X85732362Y-195383876D01*
X84905047Y-196211191D01*
X84905047Y-196211191D01*
G37*
D23*
X84885602Y-195364431D03*
D24*
G36*
X84551494Y-195857638D02*
X84392395Y-195698539D01*
X85219710Y-194871224D01*
X85378809Y-195030323D01*
X84551494Y-195857638D01*
X84551494Y-195857638D01*
G37*
D23*
X84532049Y-195010878D03*
D24*
G36*
X84197941Y-195504085D02*
X84038842Y-195344986D01*
X84866157Y-194517671D01*
X85025256Y-194676770D01*
X84197941Y-195504085D01*
X84197941Y-195504085D01*
G37*
D23*
X84178495Y-194657324D03*
D24*
G36*
X83844387Y-195150531D02*
X83685288Y-194991432D01*
X84512603Y-194164117D01*
X84671702Y-194323216D01*
X83844387Y-195150531D01*
X83844387Y-195150531D01*
G37*
D23*
X83824942Y-194303771D03*
D24*
G36*
X83490834Y-194796978D02*
X83331735Y-194637879D01*
X84159050Y-193810564D01*
X84318149Y-193969663D01*
X83490834Y-194796978D01*
X83490834Y-194796978D01*
G37*
D23*
X83824942Y-192041029D03*
D24*
G36*
X83331735Y-191706921D02*
X83490834Y-191547822D01*
X84318149Y-192375137D01*
X84159050Y-192534236D01*
X83331735Y-191706921D01*
X83331735Y-191706921D01*
G37*
D23*
X84178495Y-191687476D03*
D24*
G36*
X83685288Y-191353368D02*
X83844387Y-191194269D01*
X84671702Y-192021584D01*
X84512603Y-192180683D01*
X83685288Y-191353368D01*
X83685288Y-191353368D01*
G37*
D23*
X84532049Y-191333922D03*
D24*
G36*
X84038842Y-190999814D02*
X84197941Y-190840715D01*
X85025256Y-191668030D01*
X84866157Y-191827129D01*
X84038842Y-190999814D01*
X84038842Y-190999814D01*
G37*
D23*
X84885602Y-190980369D03*
D24*
G36*
X84392395Y-190646261D02*
X84551494Y-190487162D01*
X85378809Y-191314477D01*
X85219710Y-191473576D01*
X84392395Y-190646261D01*
X84392395Y-190646261D01*
G37*
D23*
X85239155Y-190626816D03*
D24*
G36*
X84745948Y-190292708D02*
X84905047Y-190133609D01*
X85732362Y-190960924D01*
X85573263Y-191120023D01*
X84745948Y-190292708D01*
X84745948Y-190292708D01*
G37*
D23*
X85592709Y-190273262D03*
D24*
G36*
X85099502Y-189939154D02*
X85258601Y-189780055D01*
X86085916Y-190607370D01*
X85926817Y-190766469D01*
X85099502Y-189939154D01*
X85099502Y-189939154D01*
G37*
D23*
X85946262Y-189919709D03*
D24*
G36*
X85453055Y-189585601D02*
X85612154Y-189426502D01*
X86439469Y-190253817D01*
X86280370Y-190412916D01*
X85453055Y-189585601D01*
X85453055Y-189585601D01*
G37*
D23*
X86299816Y-189566155D03*
D24*
G36*
X85806609Y-189232047D02*
X85965708Y-189072948D01*
X86793023Y-189900263D01*
X86633924Y-190059362D01*
X85806609Y-189232047D01*
X85806609Y-189232047D01*
G37*
D23*
X86653369Y-189212602D03*
D24*
G36*
X86160162Y-188878494D02*
X86319261Y-188719395D01*
X87146576Y-189546710D01*
X86987477Y-189705809D01*
X86160162Y-188878494D01*
X86160162Y-188878494D01*
G37*
D23*
X87006922Y-188859049D03*
D24*
G36*
X86513715Y-188524941D02*
X86672814Y-188365842D01*
X87500129Y-189193157D01*
X87341030Y-189352256D01*
X86513715Y-188524941D01*
X86513715Y-188524941D01*
G37*
D23*
X87360476Y-188505495D03*
D24*
G36*
X86867269Y-188171387D02*
X87026368Y-188012288D01*
X87853683Y-188839603D01*
X87694584Y-188998702D01*
X86867269Y-188171387D01*
X86867269Y-188171387D01*
G37*
D23*
X87714029Y-188151942D03*
D24*
G36*
X87220822Y-187817834D02*
X87379921Y-187658735D01*
X88207236Y-188486050D01*
X88048137Y-188645149D01*
X87220822Y-187817834D01*
X87220822Y-187817834D01*
G37*
G04 #@! TD*
D23*
G04 #@! TO.C,U1*
X164976771Y-114651942D03*
D24*
G36*
X164642663Y-115145149D02*
X164483564Y-114986050D01*
X165310879Y-114158735D01*
X165469978Y-114317834D01*
X164642663Y-115145149D01*
X164642663Y-115145149D01*
G37*
D23*
X165330324Y-115005495D03*
D24*
G36*
X164996216Y-115498702D02*
X164837117Y-115339603D01*
X165664432Y-114512288D01*
X165823531Y-114671387D01*
X164996216Y-115498702D01*
X164996216Y-115498702D01*
G37*
D23*
X165683878Y-115359049D03*
D24*
G36*
X165349770Y-115852256D02*
X165190671Y-115693157D01*
X166017986Y-114865842D01*
X166177085Y-115024941D01*
X165349770Y-115852256D01*
X165349770Y-115852256D01*
G37*
D23*
X166037431Y-115712602D03*
D24*
G36*
X165703323Y-116205809D02*
X165544224Y-116046710D01*
X166371539Y-115219395D01*
X166530638Y-115378494D01*
X165703323Y-116205809D01*
X165703323Y-116205809D01*
G37*
D23*
X166390984Y-116066155D03*
D24*
G36*
X166056876Y-116559362D02*
X165897777Y-116400263D01*
X166725092Y-115572948D01*
X166884191Y-115732047D01*
X166056876Y-116559362D01*
X166056876Y-116559362D01*
G37*
D23*
X166744538Y-116419709D03*
D24*
G36*
X166410430Y-116912916D02*
X166251331Y-116753817D01*
X167078646Y-115926502D01*
X167237745Y-116085601D01*
X166410430Y-116912916D01*
X166410430Y-116912916D01*
G37*
D23*
X167098091Y-116773262D03*
D24*
G36*
X166763983Y-117266469D02*
X166604884Y-117107370D01*
X167432199Y-116280055D01*
X167591298Y-116439154D01*
X166763983Y-117266469D01*
X166763983Y-117266469D01*
G37*
D23*
X167451645Y-117126816D03*
D24*
G36*
X167117537Y-117620023D02*
X166958438Y-117460924D01*
X167785753Y-116633609D01*
X167944852Y-116792708D01*
X167117537Y-117620023D01*
X167117537Y-117620023D01*
G37*
D23*
X167805198Y-117480369D03*
D24*
G36*
X167471090Y-117973576D02*
X167311991Y-117814477D01*
X168139306Y-116987162D01*
X168298405Y-117146261D01*
X167471090Y-117973576D01*
X167471090Y-117973576D01*
G37*
D23*
X168158751Y-117833922D03*
D24*
G36*
X167824643Y-118327129D02*
X167665544Y-118168030D01*
X168492859Y-117340715D01*
X168651958Y-117499814D01*
X167824643Y-118327129D01*
X167824643Y-118327129D01*
G37*
D23*
X168512305Y-118187476D03*
D24*
G36*
X168178197Y-118680683D02*
X168019098Y-118521584D01*
X168846413Y-117694269D01*
X169005512Y-117853368D01*
X168178197Y-118680683D01*
X168178197Y-118680683D01*
G37*
D23*
X168865858Y-118541029D03*
D24*
G36*
X168531750Y-119034236D02*
X168372651Y-118875137D01*
X169199966Y-118047822D01*
X169359065Y-118206921D01*
X168531750Y-119034236D01*
X168531750Y-119034236D01*
G37*
D23*
X168865858Y-120803771D03*
D24*
G36*
X168372651Y-120469663D02*
X168531750Y-120310564D01*
X169359065Y-121137879D01*
X169199966Y-121296978D01*
X168372651Y-120469663D01*
X168372651Y-120469663D01*
G37*
D23*
X168512305Y-121157324D03*
D24*
G36*
X168019098Y-120823216D02*
X168178197Y-120664117D01*
X169005512Y-121491432D01*
X168846413Y-121650531D01*
X168019098Y-120823216D01*
X168019098Y-120823216D01*
G37*
D23*
X168158751Y-121510878D03*
D24*
G36*
X167665544Y-121176770D02*
X167824643Y-121017671D01*
X168651958Y-121844986D01*
X168492859Y-122004085D01*
X167665544Y-121176770D01*
X167665544Y-121176770D01*
G37*
D23*
X167805198Y-121864431D03*
D24*
G36*
X167311991Y-121530323D02*
X167471090Y-121371224D01*
X168298405Y-122198539D01*
X168139306Y-122357638D01*
X167311991Y-121530323D01*
X167311991Y-121530323D01*
G37*
D23*
X167451645Y-122217984D03*
D24*
G36*
X166958438Y-121883876D02*
X167117537Y-121724777D01*
X167944852Y-122552092D01*
X167785753Y-122711191D01*
X166958438Y-121883876D01*
X166958438Y-121883876D01*
G37*
D23*
X167098091Y-122571538D03*
D24*
G36*
X166604884Y-122237430D02*
X166763983Y-122078331D01*
X167591298Y-122905646D01*
X167432199Y-123064745D01*
X166604884Y-122237430D01*
X166604884Y-122237430D01*
G37*
D23*
X166744538Y-122925091D03*
D24*
G36*
X166251331Y-122590983D02*
X166410430Y-122431884D01*
X167237745Y-123259199D01*
X167078646Y-123418298D01*
X166251331Y-122590983D01*
X166251331Y-122590983D01*
G37*
D23*
X166390984Y-123278645D03*
D24*
G36*
X165897777Y-122944537D02*
X166056876Y-122785438D01*
X166884191Y-123612753D01*
X166725092Y-123771852D01*
X165897777Y-122944537D01*
X165897777Y-122944537D01*
G37*
D23*
X166037431Y-123632198D03*
D24*
G36*
X165544224Y-123298090D02*
X165703323Y-123138991D01*
X166530638Y-123966306D01*
X166371539Y-124125405D01*
X165544224Y-123298090D01*
X165544224Y-123298090D01*
G37*
D23*
X165683878Y-123985751D03*
D24*
G36*
X165190671Y-123651643D02*
X165349770Y-123492544D01*
X166177085Y-124319859D01*
X166017986Y-124478958D01*
X165190671Y-123651643D01*
X165190671Y-123651643D01*
G37*
D23*
X165330324Y-124339305D03*
D24*
G36*
X164837117Y-124005197D02*
X164996216Y-123846098D01*
X165823531Y-124673413D01*
X165664432Y-124832512D01*
X164837117Y-124005197D01*
X164837117Y-124005197D01*
G37*
D23*
X164976771Y-124692858D03*
D24*
G36*
X164483564Y-124358750D02*
X164642663Y-124199651D01*
X165469978Y-125026966D01*
X165310879Y-125186065D01*
X164483564Y-124358750D01*
X164483564Y-124358750D01*
G37*
D23*
X162714029Y-124692858D03*
D24*
G36*
X162379921Y-125186065D02*
X162220822Y-125026966D01*
X163048137Y-124199651D01*
X163207236Y-124358750D01*
X162379921Y-125186065D01*
X162379921Y-125186065D01*
G37*
D23*
X162360476Y-124339305D03*
D24*
G36*
X162026368Y-124832512D02*
X161867269Y-124673413D01*
X162694584Y-123846098D01*
X162853683Y-124005197D01*
X162026368Y-124832512D01*
X162026368Y-124832512D01*
G37*
D23*
X162006922Y-123985751D03*
D24*
G36*
X161672814Y-124478958D02*
X161513715Y-124319859D01*
X162341030Y-123492544D01*
X162500129Y-123651643D01*
X161672814Y-124478958D01*
X161672814Y-124478958D01*
G37*
D23*
X161653369Y-123632198D03*
D24*
G36*
X161319261Y-124125405D02*
X161160162Y-123966306D01*
X161987477Y-123138991D01*
X162146576Y-123298090D01*
X161319261Y-124125405D01*
X161319261Y-124125405D01*
G37*
D23*
X161299816Y-123278645D03*
D24*
G36*
X160965708Y-123771852D02*
X160806609Y-123612753D01*
X161633924Y-122785438D01*
X161793023Y-122944537D01*
X160965708Y-123771852D01*
X160965708Y-123771852D01*
G37*
D23*
X160946262Y-122925091D03*
D24*
G36*
X160612154Y-123418298D02*
X160453055Y-123259199D01*
X161280370Y-122431884D01*
X161439469Y-122590983D01*
X160612154Y-123418298D01*
X160612154Y-123418298D01*
G37*
D23*
X160592709Y-122571538D03*
D24*
G36*
X160258601Y-123064745D02*
X160099502Y-122905646D01*
X160926817Y-122078331D01*
X161085916Y-122237430D01*
X160258601Y-123064745D01*
X160258601Y-123064745D01*
G37*
D23*
X160239155Y-122217984D03*
D24*
G36*
X159905047Y-122711191D02*
X159745948Y-122552092D01*
X160573263Y-121724777D01*
X160732362Y-121883876D01*
X159905047Y-122711191D01*
X159905047Y-122711191D01*
G37*
D23*
X159885602Y-121864431D03*
D24*
G36*
X159551494Y-122357638D02*
X159392395Y-122198539D01*
X160219710Y-121371224D01*
X160378809Y-121530323D01*
X159551494Y-122357638D01*
X159551494Y-122357638D01*
G37*
D23*
X159532049Y-121510878D03*
D24*
G36*
X159197941Y-122004085D02*
X159038842Y-121844986D01*
X159866157Y-121017671D01*
X160025256Y-121176770D01*
X159197941Y-122004085D01*
X159197941Y-122004085D01*
G37*
D23*
X159178495Y-121157324D03*
D24*
G36*
X158844387Y-121650531D02*
X158685288Y-121491432D01*
X159512603Y-120664117D01*
X159671702Y-120823216D01*
X158844387Y-121650531D01*
X158844387Y-121650531D01*
G37*
D23*
X158824942Y-120803771D03*
D24*
G36*
X158490834Y-121296978D02*
X158331735Y-121137879D01*
X159159050Y-120310564D01*
X159318149Y-120469663D01*
X158490834Y-121296978D01*
X158490834Y-121296978D01*
G37*
D23*
X158824942Y-118541029D03*
D24*
G36*
X158331735Y-118206921D02*
X158490834Y-118047822D01*
X159318149Y-118875137D01*
X159159050Y-119034236D01*
X158331735Y-118206921D01*
X158331735Y-118206921D01*
G37*
D23*
X159178495Y-118187476D03*
D24*
G36*
X158685288Y-117853368D02*
X158844387Y-117694269D01*
X159671702Y-118521584D01*
X159512603Y-118680683D01*
X158685288Y-117853368D01*
X158685288Y-117853368D01*
G37*
D23*
X159532049Y-117833922D03*
D24*
G36*
X159038842Y-117499814D02*
X159197941Y-117340715D01*
X160025256Y-118168030D01*
X159866157Y-118327129D01*
X159038842Y-117499814D01*
X159038842Y-117499814D01*
G37*
D23*
X159885602Y-117480369D03*
D24*
G36*
X159392395Y-117146261D02*
X159551494Y-116987162D01*
X160378809Y-117814477D01*
X160219710Y-117973576D01*
X159392395Y-117146261D01*
X159392395Y-117146261D01*
G37*
D23*
X160239155Y-117126816D03*
D24*
G36*
X159745948Y-116792708D02*
X159905047Y-116633609D01*
X160732362Y-117460924D01*
X160573263Y-117620023D01*
X159745948Y-116792708D01*
X159745948Y-116792708D01*
G37*
D23*
X160592709Y-116773262D03*
D24*
G36*
X160099502Y-116439154D02*
X160258601Y-116280055D01*
X161085916Y-117107370D01*
X160926817Y-117266469D01*
X160099502Y-116439154D01*
X160099502Y-116439154D01*
G37*
D23*
X160946262Y-116419709D03*
D24*
G36*
X160453055Y-116085601D02*
X160612154Y-115926502D01*
X161439469Y-116753817D01*
X161280370Y-116912916D01*
X160453055Y-116085601D01*
X160453055Y-116085601D01*
G37*
D23*
X161299816Y-116066155D03*
D24*
G36*
X160806609Y-115732047D02*
X160965708Y-115572948D01*
X161793023Y-116400263D01*
X161633924Y-116559362D01*
X160806609Y-115732047D01*
X160806609Y-115732047D01*
G37*
D23*
X161653369Y-115712602D03*
D24*
G36*
X161160162Y-115378494D02*
X161319261Y-115219395D01*
X162146576Y-116046710D01*
X161987477Y-116205809D01*
X161160162Y-115378494D01*
X161160162Y-115378494D01*
G37*
D23*
X162006922Y-115359049D03*
D24*
G36*
X161513715Y-115024941D02*
X161672814Y-114865842D01*
X162500129Y-115693157D01*
X162341030Y-115852256D01*
X161513715Y-115024941D01*
X161513715Y-115024941D01*
G37*
D23*
X162360476Y-115005495D03*
D24*
G36*
X161867269Y-114671387D02*
X162026368Y-114512288D01*
X162853683Y-115339603D01*
X162694584Y-115498702D01*
X161867269Y-114671387D01*
X161867269Y-114671387D01*
G37*
D23*
X162714029Y-114651942D03*
D24*
G36*
X162220822Y-114317834D02*
X162379921Y-114158735D01*
X163207236Y-114986050D01*
X163048137Y-115145149D01*
X162220822Y-114317834D01*
X162220822Y-114317834D01*
G37*
G04 #@! TD*
D23*
G04 #@! TO.C,U1*
X127476771Y-114651942D03*
D24*
G36*
X127142663Y-115145149D02*
X126983564Y-114986050D01*
X127810879Y-114158735D01*
X127969978Y-114317834D01*
X127142663Y-115145149D01*
X127142663Y-115145149D01*
G37*
D23*
X127830324Y-115005495D03*
D24*
G36*
X127496216Y-115498702D02*
X127337117Y-115339603D01*
X128164432Y-114512288D01*
X128323531Y-114671387D01*
X127496216Y-115498702D01*
X127496216Y-115498702D01*
G37*
D23*
X128183878Y-115359049D03*
D24*
G36*
X127849770Y-115852256D02*
X127690671Y-115693157D01*
X128517986Y-114865842D01*
X128677085Y-115024941D01*
X127849770Y-115852256D01*
X127849770Y-115852256D01*
G37*
D23*
X128537431Y-115712602D03*
D24*
G36*
X128203323Y-116205809D02*
X128044224Y-116046710D01*
X128871539Y-115219395D01*
X129030638Y-115378494D01*
X128203323Y-116205809D01*
X128203323Y-116205809D01*
G37*
D23*
X128890984Y-116066155D03*
D24*
G36*
X128556876Y-116559362D02*
X128397777Y-116400263D01*
X129225092Y-115572948D01*
X129384191Y-115732047D01*
X128556876Y-116559362D01*
X128556876Y-116559362D01*
G37*
D23*
X129244538Y-116419709D03*
D24*
G36*
X128910430Y-116912916D02*
X128751331Y-116753817D01*
X129578646Y-115926502D01*
X129737745Y-116085601D01*
X128910430Y-116912916D01*
X128910430Y-116912916D01*
G37*
D23*
X129598091Y-116773262D03*
D24*
G36*
X129263983Y-117266469D02*
X129104884Y-117107370D01*
X129932199Y-116280055D01*
X130091298Y-116439154D01*
X129263983Y-117266469D01*
X129263983Y-117266469D01*
G37*
D23*
X129951645Y-117126816D03*
D24*
G36*
X129617537Y-117620023D02*
X129458438Y-117460924D01*
X130285753Y-116633609D01*
X130444852Y-116792708D01*
X129617537Y-117620023D01*
X129617537Y-117620023D01*
G37*
D23*
X130305198Y-117480369D03*
D24*
G36*
X129971090Y-117973576D02*
X129811991Y-117814477D01*
X130639306Y-116987162D01*
X130798405Y-117146261D01*
X129971090Y-117973576D01*
X129971090Y-117973576D01*
G37*
D23*
X130658751Y-117833922D03*
D24*
G36*
X130324643Y-118327129D02*
X130165544Y-118168030D01*
X130992859Y-117340715D01*
X131151958Y-117499814D01*
X130324643Y-118327129D01*
X130324643Y-118327129D01*
G37*
D23*
X131012305Y-118187476D03*
D24*
G36*
X130678197Y-118680683D02*
X130519098Y-118521584D01*
X131346413Y-117694269D01*
X131505512Y-117853368D01*
X130678197Y-118680683D01*
X130678197Y-118680683D01*
G37*
D23*
X131365858Y-118541029D03*
D24*
G36*
X131031750Y-119034236D02*
X130872651Y-118875137D01*
X131699966Y-118047822D01*
X131859065Y-118206921D01*
X131031750Y-119034236D01*
X131031750Y-119034236D01*
G37*
D23*
X131365858Y-120803771D03*
D24*
G36*
X130872651Y-120469663D02*
X131031750Y-120310564D01*
X131859065Y-121137879D01*
X131699966Y-121296978D01*
X130872651Y-120469663D01*
X130872651Y-120469663D01*
G37*
D23*
X131012305Y-121157324D03*
D24*
G36*
X130519098Y-120823216D02*
X130678197Y-120664117D01*
X131505512Y-121491432D01*
X131346413Y-121650531D01*
X130519098Y-120823216D01*
X130519098Y-120823216D01*
G37*
D23*
X130658751Y-121510878D03*
D24*
G36*
X130165544Y-121176770D02*
X130324643Y-121017671D01*
X131151958Y-121844986D01*
X130992859Y-122004085D01*
X130165544Y-121176770D01*
X130165544Y-121176770D01*
G37*
D23*
X130305198Y-121864431D03*
D24*
G36*
X129811991Y-121530323D02*
X129971090Y-121371224D01*
X130798405Y-122198539D01*
X130639306Y-122357638D01*
X129811991Y-121530323D01*
X129811991Y-121530323D01*
G37*
D23*
X129951645Y-122217984D03*
D24*
G36*
X129458438Y-121883876D02*
X129617537Y-121724777D01*
X130444852Y-122552092D01*
X130285753Y-122711191D01*
X129458438Y-121883876D01*
X129458438Y-121883876D01*
G37*
D23*
X129598091Y-122571538D03*
D24*
G36*
X129104884Y-122237430D02*
X129263983Y-122078331D01*
X130091298Y-122905646D01*
X129932199Y-123064745D01*
X129104884Y-122237430D01*
X129104884Y-122237430D01*
G37*
D23*
X129244538Y-122925091D03*
D24*
G36*
X128751331Y-122590983D02*
X128910430Y-122431884D01*
X129737745Y-123259199D01*
X129578646Y-123418298D01*
X128751331Y-122590983D01*
X128751331Y-122590983D01*
G37*
D23*
X128890984Y-123278645D03*
D24*
G36*
X128397777Y-122944537D02*
X128556876Y-122785438D01*
X129384191Y-123612753D01*
X129225092Y-123771852D01*
X128397777Y-122944537D01*
X128397777Y-122944537D01*
G37*
D23*
X128537431Y-123632198D03*
D24*
G36*
X128044224Y-123298090D02*
X128203323Y-123138991D01*
X129030638Y-123966306D01*
X128871539Y-124125405D01*
X128044224Y-123298090D01*
X128044224Y-123298090D01*
G37*
D23*
X128183878Y-123985751D03*
D24*
G36*
X127690671Y-123651643D02*
X127849770Y-123492544D01*
X128677085Y-124319859D01*
X128517986Y-124478958D01*
X127690671Y-123651643D01*
X127690671Y-123651643D01*
G37*
D23*
X127830324Y-124339305D03*
D24*
G36*
X127337117Y-124005197D02*
X127496216Y-123846098D01*
X128323531Y-124673413D01*
X128164432Y-124832512D01*
X127337117Y-124005197D01*
X127337117Y-124005197D01*
G37*
D23*
X127476771Y-124692858D03*
D24*
G36*
X126983564Y-124358750D02*
X127142663Y-124199651D01*
X127969978Y-125026966D01*
X127810879Y-125186065D01*
X126983564Y-124358750D01*
X126983564Y-124358750D01*
G37*
D23*
X125214029Y-124692858D03*
D24*
G36*
X124879921Y-125186065D02*
X124720822Y-125026966D01*
X125548137Y-124199651D01*
X125707236Y-124358750D01*
X124879921Y-125186065D01*
X124879921Y-125186065D01*
G37*
D23*
X124860476Y-124339305D03*
D24*
G36*
X124526368Y-124832512D02*
X124367269Y-124673413D01*
X125194584Y-123846098D01*
X125353683Y-124005197D01*
X124526368Y-124832512D01*
X124526368Y-124832512D01*
G37*
D23*
X124506922Y-123985751D03*
D24*
G36*
X124172814Y-124478958D02*
X124013715Y-124319859D01*
X124841030Y-123492544D01*
X125000129Y-123651643D01*
X124172814Y-124478958D01*
X124172814Y-124478958D01*
G37*
D23*
X124153369Y-123632198D03*
D24*
G36*
X123819261Y-124125405D02*
X123660162Y-123966306D01*
X124487477Y-123138991D01*
X124646576Y-123298090D01*
X123819261Y-124125405D01*
X123819261Y-124125405D01*
G37*
D23*
X123799816Y-123278645D03*
D24*
G36*
X123465708Y-123771852D02*
X123306609Y-123612753D01*
X124133924Y-122785438D01*
X124293023Y-122944537D01*
X123465708Y-123771852D01*
X123465708Y-123771852D01*
G37*
D23*
X123446262Y-122925091D03*
D24*
G36*
X123112154Y-123418298D02*
X122953055Y-123259199D01*
X123780370Y-122431884D01*
X123939469Y-122590983D01*
X123112154Y-123418298D01*
X123112154Y-123418298D01*
G37*
D23*
X123092709Y-122571538D03*
D24*
G36*
X122758601Y-123064745D02*
X122599502Y-122905646D01*
X123426817Y-122078331D01*
X123585916Y-122237430D01*
X122758601Y-123064745D01*
X122758601Y-123064745D01*
G37*
D23*
X122739155Y-122217984D03*
D24*
G36*
X122405047Y-122711191D02*
X122245948Y-122552092D01*
X123073263Y-121724777D01*
X123232362Y-121883876D01*
X122405047Y-122711191D01*
X122405047Y-122711191D01*
G37*
D23*
X122385602Y-121864431D03*
D24*
G36*
X122051494Y-122357638D02*
X121892395Y-122198539D01*
X122719710Y-121371224D01*
X122878809Y-121530323D01*
X122051494Y-122357638D01*
X122051494Y-122357638D01*
G37*
D23*
X122032049Y-121510878D03*
D24*
G36*
X121697941Y-122004085D02*
X121538842Y-121844986D01*
X122366157Y-121017671D01*
X122525256Y-121176770D01*
X121697941Y-122004085D01*
X121697941Y-122004085D01*
G37*
D23*
X121678495Y-121157324D03*
D24*
G36*
X121344387Y-121650531D02*
X121185288Y-121491432D01*
X122012603Y-120664117D01*
X122171702Y-120823216D01*
X121344387Y-121650531D01*
X121344387Y-121650531D01*
G37*
D23*
X121324942Y-120803771D03*
D24*
G36*
X120990834Y-121296978D02*
X120831735Y-121137879D01*
X121659050Y-120310564D01*
X121818149Y-120469663D01*
X120990834Y-121296978D01*
X120990834Y-121296978D01*
G37*
D23*
X121324942Y-118541029D03*
D24*
G36*
X120831735Y-118206921D02*
X120990834Y-118047822D01*
X121818149Y-118875137D01*
X121659050Y-119034236D01*
X120831735Y-118206921D01*
X120831735Y-118206921D01*
G37*
D23*
X121678495Y-118187476D03*
D24*
G36*
X121185288Y-117853368D02*
X121344387Y-117694269D01*
X122171702Y-118521584D01*
X122012603Y-118680683D01*
X121185288Y-117853368D01*
X121185288Y-117853368D01*
G37*
D23*
X122032049Y-117833922D03*
D24*
G36*
X121538842Y-117499814D02*
X121697941Y-117340715D01*
X122525256Y-118168030D01*
X122366157Y-118327129D01*
X121538842Y-117499814D01*
X121538842Y-117499814D01*
G37*
D23*
X122385602Y-117480369D03*
D24*
G36*
X121892395Y-117146261D02*
X122051494Y-116987162D01*
X122878809Y-117814477D01*
X122719710Y-117973576D01*
X121892395Y-117146261D01*
X121892395Y-117146261D01*
G37*
D23*
X122739155Y-117126816D03*
D24*
G36*
X122245948Y-116792708D02*
X122405047Y-116633609D01*
X123232362Y-117460924D01*
X123073263Y-117620023D01*
X122245948Y-116792708D01*
X122245948Y-116792708D01*
G37*
D23*
X123092709Y-116773262D03*
D24*
G36*
X122599502Y-116439154D02*
X122758601Y-116280055D01*
X123585916Y-117107370D01*
X123426817Y-117266469D01*
X122599502Y-116439154D01*
X122599502Y-116439154D01*
G37*
D23*
X123446262Y-116419709D03*
D24*
G36*
X122953055Y-116085601D02*
X123112154Y-115926502D01*
X123939469Y-116753817D01*
X123780370Y-116912916D01*
X122953055Y-116085601D01*
X122953055Y-116085601D01*
G37*
D23*
X123799816Y-116066155D03*
D24*
G36*
X123306609Y-115732047D02*
X123465708Y-115572948D01*
X124293023Y-116400263D01*
X124133924Y-116559362D01*
X123306609Y-115732047D01*
X123306609Y-115732047D01*
G37*
D23*
X124153369Y-115712602D03*
D24*
G36*
X123660162Y-115378494D02*
X123819261Y-115219395D01*
X124646576Y-116046710D01*
X124487477Y-116205809D01*
X123660162Y-115378494D01*
X123660162Y-115378494D01*
G37*
D23*
X124506922Y-115359049D03*
D24*
G36*
X124013715Y-115024941D02*
X124172814Y-114865842D01*
X125000129Y-115693157D01*
X124841030Y-115852256D01*
X124013715Y-115024941D01*
X124013715Y-115024941D01*
G37*
D23*
X124860476Y-115005495D03*
D24*
G36*
X124367269Y-114671387D02*
X124526368Y-114512288D01*
X125353683Y-115339603D01*
X125194584Y-115498702D01*
X124367269Y-114671387D01*
X124367269Y-114671387D01*
G37*
D23*
X125214029Y-114651942D03*
D24*
G36*
X124720822Y-114317834D02*
X124879921Y-114158735D01*
X125707236Y-114986050D01*
X125548137Y-115145149D01*
X124720822Y-114317834D01*
X124720822Y-114317834D01*
G37*
G04 #@! TD*
D23*
G04 #@! TO.C,U1*
X89976771Y-114651942D03*
D24*
G36*
X89642663Y-115145149D02*
X89483564Y-114986050D01*
X90310879Y-114158735D01*
X90469978Y-114317834D01*
X89642663Y-115145149D01*
X89642663Y-115145149D01*
G37*
D23*
X90330324Y-115005495D03*
D24*
G36*
X89996216Y-115498702D02*
X89837117Y-115339603D01*
X90664432Y-114512288D01*
X90823531Y-114671387D01*
X89996216Y-115498702D01*
X89996216Y-115498702D01*
G37*
D23*
X90683878Y-115359049D03*
D24*
G36*
X90349770Y-115852256D02*
X90190671Y-115693157D01*
X91017986Y-114865842D01*
X91177085Y-115024941D01*
X90349770Y-115852256D01*
X90349770Y-115852256D01*
G37*
D23*
X91037431Y-115712602D03*
D24*
G36*
X90703323Y-116205809D02*
X90544224Y-116046710D01*
X91371539Y-115219395D01*
X91530638Y-115378494D01*
X90703323Y-116205809D01*
X90703323Y-116205809D01*
G37*
D23*
X91390984Y-116066155D03*
D24*
G36*
X91056876Y-116559362D02*
X90897777Y-116400263D01*
X91725092Y-115572948D01*
X91884191Y-115732047D01*
X91056876Y-116559362D01*
X91056876Y-116559362D01*
G37*
D23*
X91744538Y-116419709D03*
D24*
G36*
X91410430Y-116912916D02*
X91251331Y-116753817D01*
X92078646Y-115926502D01*
X92237745Y-116085601D01*
X91410430Y-116912916D01*
X91410430Y-116912916D01*
G37*
D23*
X92098091Y-116773262D03*
D24*
G36*
X91763983Y-117266469D02*
X91604884Y-117107370D01*
X92432199Y-116280055D01*
X92591298Y-116439154D01*
X91763983Y-117266469D01*
X91763983Y-117266469D01*
G37*
D23*
X92451645Y-117126816D03*
D24*
G36*
X92117537Y-117620023D02*
X91958438Y-117460924D01*
X92785753Y-116633609D01*
X92944852Y-116792708D01*
X92117537Y-117620023D01*
X92117537Y-117620023D01*
G37*
D23*
X92805198Y-117480369D03*
D24*
G36*
X92471090Y-117973576D02*
X92311991Y-117814477D01*
X93139306Y-116987162D01*
X93298405Y-117146261D01*
X92471090Y-117973576D01*
X92471090Y-117973576D01*
G37*
D23*
X93158751Y-117833922D03*
D24*
G36*
X92824643Y-118327129D02*
X92665544Y-118168030D01*
X93492859Y-117340715D01*
X93651958Y-117499814D01*
X92824643Y-118327129D01*
X92824643Y-118327129D01*
G37*
D23*
X93512305Y-118187476D03*
D24*
G36*
X93178197Y-118680683D02*
X93019098Y-118521584D01*
X93846413Y-117694269D01*
X94005512Y-117853368D01*
X93178197Y-118680683D01*
X93178197Y-118680683D01*
G37*
D23*
X93865858Y-118541029D03*
D24*
G36*
X93531750Y-119034236D02*
X93372651Y-118875137D01*
X94199966Y-118047822D01*
X94359065Y-118206921D01*
X93531750Y-119034236D01*
X93531750Y-119034236D01*
G37*
D23*
X93865858Y-120803771D03*
D24*
G36*
X93372651Y-120469663D02*
X93531750Y-120310564D01*
X94359065Y-121137879D01*
X94199966Y-121296978D01*
X93372651Y-120469663D01*
X93372651Y-120469663D01*
G37*
D23*
X93512305Y-121157324D03*
D24*
G36*
X93019098Y-120823216D02*
X93178197Y-120664117D01*
X94005512Y-121491432D01*
X93846413Y-121650531D01*
X93019098Y-120823216D01*
X93019098Y-120823216D01*
G37*
D23*
X93158751Y-121510878D03*
D24*
G36*
X92665544Y-121176770D02*
X92824643Y-121017671D01*
X93651958Y-121844986D01*
X93492859Y-122004085D01*
X92665544Y-121176770D01*
X92665544Y-121176770D01*
G37*
D23*
X92805198Y-121864431D03*
D24*
G36*
X92311991Y-121530323D02*
X92471090Y-121371224D01*
X93298405Y-122198539D01*
X93139306Y-122357638D01*
X92311991Y-121530323D01*
X92311991Y-121530323D01*
G37*
D23*
X92451645Y-122217984D03*
D24*
G36*
X91958438Y-121883876D02*
X92117537Y-121724777D01*
X92944852Y-122552092D01*
X92785753Y-122711191D01*
X91958438Y-121883876D01*
X91958438Y-121883876D01*
G37*
D23*
X92098091Y-122571538D03*
D24*
G36*
X91604884Y-122237430D02*
X91763983Y-122078331D01*
X92591298Y-122905646D01*
X92432199Y-123064745D01*
X91604884Y-122237430D01*
X91604884Y-122237430D01*
G37*
D23*
X91744538Y-122925091D03*
D24*
G36*
X91251331Y-122590983D02*
X91410430Y-122431884D01*
X92237745Y-123259199D01*
X92078646Y-123418298D01*
X91251331Y-122590983D01*
X91251331Y-122590983D01*
G37*
D23*
X91390984Y-123278645D03*
D24*
G36*
X90897777Y-122944537D02*
X91056876Y-122785438D01*
X91884191Y-123612753D01*
X91725092Y-123771852D01*
X90897777Y-122944537D01*
X90897777Y-122944537D01*
G37*
D23*
X91037431Y-123632198D03*
D24*
G36*
X90544224Y-123298090D02*
X90703323Y-123138991D01*
X91530638Y-123966306D01*
X91371539Y-124125405D01*
X90544224Y-123298090D01*
X90544224Y-123298090D01*
G37*
D23*
X90683878Y-123985751D03*
D24*
G36*
X90190671Y-123651643D02*
X90349770Y-123492544D01*
X91177085Y-124319859D01*
X91017986Y-124478958D01*
X90190671Y-123651643D01*
X90190671Y-123651643D01*
G37*
D23*
X90330324Y-124339305D03*
D24*
G36*
X89837117Y-124005197D02*
X89996216Y-123846098D01*
X90823531Y-124673413D01*
X90664432Y-124832512D01*
X89837117Y-124005197D01*
X89837117Y-124005197D01*
G37*
D23*
X89976771Y-124692858D03*
D24*
G36*
X89483564Y-124358750D02*
X89642663Y-124199651D01*
X90469978Y-125026966D01*
X90310879Y-125186065D01*
X89483564Y-124358750D01*
X89483564Y-124358750D01*
G37*
D23*
X87714029Y-124692858D03*
D24*
G36*
X87379921Y-125186065D02*
X87220822Y-125026966D01*
X88048137Y-124199651D01*
X88207236Y-124358750D01*
X87379921Y-125186065D01*
X87379921Y-125186065D01*
G37*
D23*
X87360476Y-124339305D03*
D24*
G36*
X87026368Y-124832512D02*
X86867269Y-124673413D01*
X87694584Y-123846098D01*
X87853683Y-124005197D01*
X87026368Y-124832512D01*
X87026368Y-124832512D01*
G37*
D23*
X87006922Y-123985751D03*
D24*
G36*
X86672814Y-124478958D02*
X86513715Y-124319859D01*
X87341030Y-123492544D01*
X87500129Y-123651643D01*
X86672814Y-124478958D01*
X86672814Y-124478958D01*
G37*
D23*
X86653369Y-123632198D03*
D24*
G36*
X86319261Y-124125405D02*
X86160162Y-123966306D01*
X86987477Y-123138991D01*
X87146576Y-123298090D01*
X86319261Y-124125405D01*
X86319261Y-124125405D01*
G37*
D23*
X86299816Y-123278645D03*
D24*
G36*
X85965708Y-123771852D02*
X85806609Y-123612753D01*
X86633924Y-122785438D01*
X86793023Y-122944537D01*
X85965708Y-123771852D01*
X85965708Y-123771852D01*
G37*
D23*
X85946262Y-122925091D03*
D24*
G36*
X85612154Y-123418298D02*
X85453055Y-123259199D01*
X86280370Y-122431884D01*
X86439469Y-122590983D01*
X85612154Y-123418298D01*
X85612154Y-123418298D01*
G37*
D23*
X85592709Y-122571538D03*
D24*
G36*
X85258601Y-123064745D02*
X85099502Y-122905646D01*
X85926817Y-122078331D01*
X86085916Y-122237430D01*
X85258601Y-123064745D01*
X85258601Y-123064745D01*
G37*
D23*
X85239155Y-122217984D03*
D24*
G36*
X84905047Y-122711191D02*
X84745948Y-122552092D01*
X85573263Y-121724777D01*
X85732362Y-121883876D01*
X84905047Y-122711191D01*
X84905047Y-122711191D01*
G37*
D23*
X84885602Y-121864431D03*
D24*
G36*
X84551494Y-122357638D02*
X84392395Y-122198539D01*
X85219710Y-121371224D01*
X85378809Y-121530323D01*
X84551494Y-122357638D01*
X84551494Y-122357638D01*
G37*
D23*
X84532049Y-121510878D03*
D24*
G36*
X84197941Y-122004085D02*
X84038842Y-121844986D01*
X84866157Y-121017671D01*
X85025256Y-121176770D01*
X84197941Y-122004085D01*
X84197941Y-122004085D01*
G37*
D23*
X84178495Y-121157324D03*
D24*
G36*
X83844387Y-121650531D02*
X83685288Y-121491432D01*
X84512603Y-120664117D01*
X84671702Y-120823216D01*
X83844387Y-121650531D01*
X83844387Y-121650531D01*
G37*
D23*
X83824942Y-120803771D03*
D24*
G36*
X83490834Y-121296978D02*
X83331735Y-121137879D01*
X84159050Y-120310564D01*
X84318149Y-120469663D01*
X83490834Y-121296978D01*
X83490834Y-121296978D01*
G37*
D23*
X83824942Y-118541029D03*
D24*
G36*
X83331735Y-118206921D02*
X83490834Y-118047822D01*
X84318149Y-118875137D01*
X84159050Y-119034236D01*
X83331735Y-118206921D01*
X83331735Y-118206921D01*
G37*
D23*
X84178495Y-118187476D03*
D24*
G36*
X83685288Y-117853368D02*
X83844387Y-117694269D01*
X84671702Y-118521584D01*
X84512603Y-118680683D01*
X83685288Y-117853368D01*
X83685288Y-117853368D01*
G37*
D23*
X84532049Y-117833922D03*
D24*
G36*
X84038842Y-117499814D02*
X84197941Y-117340715D01*
X85025256Y-118168030D01*
X84866157Y-118327129D01*
X84038842Y-117499814D01*
X84038842Y-117499814D01*
G37*
D23*
X84885602Y-117480369D03*
D24*
G36*
X84392395Y-117146261D02*
X84551494Y-116987162D01*
X85378809Y-117814477D01*
X85219710Y-117973576D01*
X84392395Y-117146261D01*
X84392395Y-117146261D01*
G37*
D23*
X85239155Y-117126816D03*
D24*
G36*
X84745948Y-116792708D02*
X84905047Y-116633609D01*
X85732362Y-117460924D01*
X85573263Y-117620023D01*
X84745948Y-116792708D01*
X84745948Y-116792708D01*
G37*
D23*
X85592709Y-116773262D03*
D24*
G36*
X85099502Y-116439154D02*
X85258601Y-116280055D01*
X86085916Y-117107370D01*
X85926817Y-117266469D01*
X85099502Y-116439154D01*
X85099502Y-116439154D01*
G37*
D23*
X85946262Y-116419709D03*
D24*
G36*
X85453055Y-116085601D02*
X85612154Y-115926502D01*
X86439469Y-116753817D01*
X86280370Y-116912916D01*
X85453055Y-116085601D01*
X85453055Y-116085601D01*
G37*
D23*
X86299816Y-116066155D03*
D24*
G36*
X85806609Y-115732047D02*
X85965708Y-115572948D01*
X86793023Y-116400263D01*
X86633924Y-116559362D01*
X85806609Y-115732047D01*
X85806609Y-115732047D01*
G37*
D23*
X86653369Y-115712602D03*
D24*
G36*
X86160162Y-115378494D02*
X86319261Y-115219395D01*
X87146576Y-116046710D01*
X86987477Y-116205809D01*
X86160162Y-115378494D01*
X86160162Y-115378494D01*
G37*
D23*
X87006922Y-115359049D03*
D24*
G36*
X86513715Y-115024941D02*
X86672814Y-114865842D01*
X87500129Y-115693157D01*
X87341030Y-115852256D01*
X86513715Y-115024941D01*
X86513715Y-115024941D01*
G37*
D23*
X87360476Y-115005495D03*
D24*
G36*
X86867269Y-114671387D02*
X87026368Y-114512288D01*
X87853683Y-115339603D01*
X87694584Y-115498702D01*
X86867269Y-114671387D01*
X86867269Y-114671387D01*
G37*
D23*
X87714029Y-114651942D03*
D24*
G36*
X87220822Y-114317834D02*
X87379921Y-114158735D01*
X88207236Y-114986050D01*
X88048137Y-115145149D01*
X87220822Y-114317834D01*
X87220822Y-114317834D01*
G37*
G04 #@! TD*
D23*
G04 #@! TO.C,U1*
X164976771Y-41151942D03*
D24*
G36*
X164642663Y-41645149D02*
X164483564Y-41486050D01*
X165310879Y-40658735D01*
X165469978Y-40817834D01*
X164642663Y-41645149D01*
X164642663Y-41645149D01*
G37*
D23*
X165330324Y-41505495D03*
D24*
G36*
X164996216Y-41998702D02*
X164837117Y-41839603D01*
X165664432Y-41012288D01*
X165823531Y-41171387D01*
X164996216Y-41998702D01*
X164996216Y-41998702D01*
G37*
D23*
X165683878Y-41859049D03*
D24*
G36*
X165349770Y-42352256D02*
X165190671Y-42193157D01*
X166017986Y-41365842D01*
X166177085Y-41524941D01*
X165349770Y-42352256D01*
X165349770Y-42352256D01*
G37*
D23*
X166037431Y-42212602D03*
D24*
G36*
X165703323Y-42705809D02*
X165544224Y-42546710D01*
X166371539Y-41719395D01*
X166530638Y-41878494D01*
X165703323Y-42705809D01*
X165703323Y-42705809D01*
G37*
D23*
X166390984Y-42566155D03*
D24*
G36*
X166056876Y-43059362D02*
X165897777Y-42900263D01*
X166725092Y-42072948D01*
X166884191Y-42232047D01*
X166056876Y-43059362D01*
X166056876Y-43059362D01*
G37*
D23*
X166744538Y-42919709D03*
D24*
G36*
X166410430Y-43412916D02*
X166251331Y-43253817D01*
X167078646Y-42426502D01*
X167237745Y-42585601D01*
X166410430Y-43412916D01*
X166410430Y-43412916D01*
G37*
D23*
X167098091Y-43273262D03*
D24*
G36*
X166763983Y-43766469D02*
X166604884Y-43607370D01*
X167432199Y-42780055D01*
X167591298Y-42939154D01*
X166763983Y-43766469D01*
X166763983Y-43766469D01*
G37*
D23*
X167451645Y-43626816D03*
D24*
G36*
X167117537Y-44120023D02*
X166958438Y-43960924D01*
X167785753Y-43133609D01*
X167944852Y-43292708D01*
X167117537Y-44120023D01*
X167117537Y-44120023D01*
G37*
D23*
X167805198Y-43980369D03*
D24*
G36*
X167471090Y-44473576D02*
X167311991Y-44314477D01*
X168139306Y-43487162D01*
X168298405Y-43646261D01*
X167471090Y-44473576D01*
X167471090Y-44473576D01*
G37*
D23*
X168158751Y-44333922D03*
D24*
G36*
X167824643Y-44827129D02*
X167665544Y-44668030D01*
X168492859Y-43840715D01*
X168651958Y-43999814D01*
X167824643Y-44827129D01*
X167824643Y-44827129D01*
G37*
D23*
X168512305Y-44687476D03*
D24*
G36*
X168178197Y-45180683D02*
X168019098Y-45021584D01*
X168846413Y-44194269D01*
X169005512Y-44353368D01*
X168178197Y-45180683D01*
X168178197Y-45180683D01*
G37*
D23*
X168865858Y-45041029D03*
D24*
G36*
X168531750Y-45534236D02*
X168372651Y-45375137D01*
X169199966Y-44547822D01*
X169359065Y-44706921D01*
X168531750Y-45534236D01*
X168531750Y-45534236D01*
G37*
D23*
X168865858Y-47303771D03*
D24*
G36*
X168372651Y-46969663D02*
X168531750Y-46810564D01*
X169359065Y-47637879D01*
X169199966Y-47796978D01*
X168372651Y-46969663D01*
X168372651Y-46969663D01*
G37*
D23*
X168512305Y-47657324D03*
D24*
G36*
X168019098Y-47323216D02*
X168178197Y-47164117D01*
X169005512Y-47991432D01*
X168846413Y-48150531D01*
X168019098Y-47323216D01*
X168019098Y-47323216D01*
G37*
D23*
X168158751Y-48010878D03*
D24*
G36*
X167665544Y-47676770D02*
X167824643Y-47517671D01*
X168651958Y-48344986D01*
X168492859Y-48504085D01*
X167665544Y-47676770D01*
X167665544Y-47676770D01*
G37*
D23*
X167805198Y-48364431D03*
D24*
G36*
X167311991Y-48030323D02*
X167471090Y-47871224D01*
X168298405Y-48698539D01*
X168139306Y-48857638D01*
X167311991Y-48030323D01*
X167311991Y-48030323D01*
G37*
D23*
X167451645Y-48717984D03*
D24*
G36*
X166958438Y-48383876D02*
X167117537Y-48224777D01*
X167944852Y-49052092D01*
X167785753Y-49211191D01*
X166958438Y-48383876D01*
X166958438Y-48383876D01*
G37*
D23*
X167098091Y-49071538D03*
D24*
G36*
X166604884Y-48737430D02*
X166763983Y-48578331D01*
X167591298Y-49405646D01*
X167432199Y-49564745D01*
X166604884Y-48737430D01*
X166604884Y-48737430D01*
G37*
D23*
X166744538Y-49425091D03*
D24*
G36*
X166251331Y-49090983D02*
X166410430Y-48931884D01*
X167237745Y-49759199D01*
X167078646Y-49918298D01*
X166251331Y-49090983D01*
X166251331Y-49090983D01*
G37*
D23*
X166390984Y-49778645D03*
D24*
G36*
X165897777Y-49444537D02*
X166056876Y-49285438D01*
X166884191Y-50112753D01*
X166725092Y-50271852D01*
X165897777Y-49444537D01*
X165897777Y-49444537D01*
G37*
D23*
X166037431Y-50132198D03*
D24*
G36*
X165544224Y-49798090D02*
X165703323Y-49638991D01*
X166530638Y-50466306D01*
X166371539Y-50625405D01*
X165544224Y-49798090D01*
X165544224Y-49798090D01*
G37*
D23*
X165683878Y-50485751D03*
D24*
G36*
X165190671Y-50151643D02*
X165349770Y-49992544D01*
X166177085Y-50819859D01*
X166017986Y-50978958D01*
X165190671Y-50151643D01*
X165190671Y-50151643D01*
G37*
D23*
X165330324Y-50839305D03*
D24*
G36*
X164837117Y-50505197D02*
X164996216Y-50346098D01*
X165823531Y-51173413D01*
X165664432Y-51332512D01*
X164837117Y-50505197D01*
X164837117Y-50505197D01*
G37*
D23*
X164976771Y-51192858D03*
D24*
G36*
X164483564Y-50858750D02*
X164642663Y-50699651D01*
X165469978Y-51526966D01*
X165310879Y-51686065D01*
X164483564Y-50858750D01*
X164483564Y-50858750D01*
G37*
D23*
X162714029Y-51192858D03*
D24*
G36*
X162379921Y-51686065D02*
X162220822Y-51526966D01*
X163048137Y-50699651D01*
X163207236Y-50858750D01*
X162379921Y-51686065D01*
X162379921Y-51686065D01*
G37*
D23*
X162360476Y-50839305D03*
D24*
G36*
X162026368Y-51332512D02*
X161867269Y-51173413D01*
X162694584Y-50346098D01*
X162853683Y-50505197D01*
X162026368Y-51332512D01*
X162026368Y-51332512D01*
G37*
D23*
X162006922Y-50485751D03*
D24*
G36*
X161672814Y-50978958D02*
X161513715Y-50819859D01*
X162341030Y-49992544D01*
X162500129Y-50151643D01*
X161672814Y-50978958D01*
X161672814Y-50978958D01*
G37*
D23*
X161653369Y-50132198D03*
D24*
G36*
X161319261Y-50625405D02*
X161160162Y-50466306D01*
X161987477Y-49638991D01*
X162146576Y-49798090D01*
X161319261Y-50625405D01*
X161319261Y-50625405D01*
G37*
D23*
X161299816Y-49778645D03*
D24*
G36*
X160965708Y-50271852D02*
X160806609Y-50112753D01*
X161633924Y-49285438D01*
X161793023Y-49444537D01*
X160965708Y-50271852D01*
X160965708Y-50271852D01*
G37*
D23*
X160946262Y-49425091D03*
D24*
G36*
X160612154Y-49918298D02*
X160453055Y-49759199D01*
X161280370Y-48931884D01*
X161439469Y-49090983D01*
X160612154Y-49918298D01*
X160612154Y-49918298D01*
G37*
D23*
X160592709Y-49071538D03*
D24*
G36*
X160258601Y-49564745D02*
X160099502Y-49405646D01*
X160926817Y-48578331D01*
X161085916Y-48737430D01*
X160258601Y-49564745D01*
X160258601Y-49564745D01*
G37*
D23*
X160239155Y-48717984D03*
D24*
G36*
X159905047Y-49211191D02*
X159745948Y-49052092D01*
X160573263Y-48224777D01*
X160732362Y-48383876D01*
X159905047Y-49211191D01*
X159905047Y-49211191D01*
G37*
D23*
X159885602Y-48364431D03*
D24*
G36*
X159551494Y-48857638D02*
X159392395Y-48698539D01*
X160219710Y-47871224D01*
X160378809Y-48030323D01*
X159551494Y-48857638D01*
X159551494Y-48857638D01*
G37*
D23*
X159532049Y-48010878D03*
D24*
G36*
X159197941Y-48504085D02*
X159038842Y-48344986D01*
X159866157Y-47517671D01*
X160025256Y-47676770D01*
X159197941Y-48504085D01*
X159197941Y-48504085D01*
G37*
D23*
X159178495Y-47657324D03*
D24*
G36*
X158844387Y-48150531D02*
X158685288Y-47991432D01*
X159512603Y-47164117D01*
X159671702Y-47323216D01*
X158844387Y-48150531D01*
X158844387Y-48150531D01*
G37*
D23*
X158824942Y-47303771D03*
D24*
G36*
X158490834Y-47796978D02*
X158331735Y-47637879D01*
X159159050Y-46810564D01*
X159318149Y-46969663D01*
X158490834Y-47796978D01*
X158490834Y-47796978D01*
G37*
D23*
X158824942Y-45041029D03*
D24*
G36*
X158331735Y-44706921D02*
X158490834Y-44547822D01*
X159318149Y-45375137D01*
X159159050Y-45534236D01*
X158331735Y-44706921D01*
X158331735Y-44706921D01*
G37*
D23*
X159178495Y-44687476D03*
D24*
G36*
X158685288Y-44353368D02*
X158844387Y-44194269D01*
X159671702Y-45021584D01*
X159512603Y-45180683D01*
X158685288Y-44353368D01*
X158685288Y-44353368D01*
G37*
D23*
X159532049Y-44333922D03*
D24*
G36*
X159038842Y-43999814D02*
X159197941Y-43840715D01*
X160025256Y-44668030D01*
X159866157Y-44827129D01*
X159038842Y-43999814D01*
X159038842Y-43999814D01*
G37*
D23*
X159885602Y-43980369D03*
D24*
G36*
X159392395Y-43646261D02*
X159551494Y-43487162D01*
X160378809Y-44314477D01*
X160219710Y-44473576D01*
X159392395Y-43646261D01*
X159392395Y-43646261D01*
G37*
D23*
X160239155Y-43626816D03*
D24*
G36*
X159745948Y-43292708D02*
X159905047Y-43133609D01*
X160732362Y-43960924D01*
X160573263Y-44120023D01*
X159745948Y-43292708D01*
X159745948Y-43292708D01*
G37*
D23*
X160592709Y-43273262D03*
D24*
G36*
X160099502Y-42939154D02*
X160258601Y-42780055D01*
X161085916Y-43607370D01*
X160926817Y-43766469D01*
X160099502Y-42939154D01*
X160099502Y-42939154D01*
G37*
D23*
X160946262Y-42919709D03*
D24*
G36*
X160453055Y-42585601D02*
X160612154Y-42426502D01*
X161439469Y-43253817D01*
X161280370Y-43412916D01*
X160453055Y-42585601D01*
X160453055Y-42585601D01*
G37*
D23*
X161299816Y-42566155D03*
D24*
G36*
X160806609Y-42232047D02*
X160965708Y-42072948D01*
X161793023Y-42900263D01*
X161633924Y-43059362D01*
X160806609Y-42232047D01*
X160806609Y-42232047D01*
G37*
D23*
X161653369Y-42212602D03*
D24*
G36*
X161160162Y-41878494D02*
X161319261Y-41719395D01*
X162146576Y-42546710D01*
X161987477Y-42705809D01*
X161160162Y-41878494D01*
X161160162Y-41878494D01*
G37*
D23*
X162006922Y-41859049D03*
D24*
G36*
X161513715Y-41524941D02*
X161672814Y-41365842D01*
X162500129Y-42193157D01*
X162341030Y-42352256D01*
X161513715Y-41524941D01*
X161513715Y-41524941D01*
G37*
D23*
X162360476Y-41505495D03*
D24*
G36*
X161867269Y-41171387D02*
X162026368Y-41012288D01*
X162853683Y-41839603D01*
X162694584Y-41998702D01*
X161867269Y-41171387D01*
X161867269Y-41171387D01*
G37*
D23*
X162714029Y-41151942D03*
D24*
G36*
X162220822Y-40817834D02*
X162379921Y-40658735D01*
X163207236Y-41486050D01*
X163048137Y-41645149D01*
X162220822Y-40817834D01*
X162220822Y-40817834D01*
G37*
G04 #@! TD*
D23*
G04 #@! TO.C,U1*
X127476771Y-41151942D03*
D24*
G36*
X127142663Y-41645149D02*
X126983564Y-41486050D01*
X127810879Y-40658735D01*
X127969978Y-40817834D01*
X127142663Y-41645149D01*
X127142663Y-41645149D01*
G37*
D23*
X127830324Y-41505495D03*
D24*
G36*
X127496216Y-41998702D02*
X127337117Y-41839603D01*
X128164432Y-41012288D01*
X128323531Y-41171387D01*
X127496216Y-41998702D01*
X127496216Y-41998702D01*
G37*
D23*
X128183878Y-41859049D03*
D24*
G36*
X127849770Y-42352256D02*
X127690671Y-42193157D01*
X128517986Y-41365842D01*
X128677085Y-41524941D01*
X127849770Y-42352256D01*
X127849770Y-42352256D01*
G37*
D23*
X128537431Y-42212602D03*
D24*
G36*
X128203323Y-42705809D02*
X128044224Y-42546710D01*
X128871539Y-41719395D01*
X129030638Y-41878494D01*
X128203323Y-42705809D01*
X128203323Y-42705809D01*
G37*
D23*
X128890984Y-42566155D03*
D24*
G36*
X128556876Y-43059362D02*
X128397777Y-42900263D01*
X129225092Y-42072948D01*
X129384191Y-42232047D01*
X128556876Y-43059362D01*
X128556876Y-43059362D01*
G37*
D23*
X129244538Y-42919709D03*
D24*
G36*
X128910430Y-43412916D02*
X128751331Y-43253817D01*
X129578646Y-42426502D01*
X129737745Y-42585601D01*
X128910430Y-43412916D01*
X128910430Y-43412916D01*
G37*
D23*
X129598091Y-43273262D03*
D24*
G36*
X129263983Y-43766469D02*
X129104884Y-43607370D01*
X129932199Y-42780055D01*
X130091298Y-42939154D01*
X129263983Y-43766469D01*
X129263983Y-43766469D01*
G37*
D23*
X129951645Y-43626816D03*
D24*
G36*
X129617537Y-44120023D02*
X129458438Y-43960924D01*
X130285753Y-43133609D01*
X130444852Y-43292708D01*
X129617537Y-44120023D01*
X129617537Y-44120023D01*
G37*
D23*
X130305198Y-43980369D03*
D24*
G36*
X129971090Y-44473576D02*
X129811991Y-44314477D01*
X130639306Y-43487162D01*
X130798405Y-43646261D01*
X129971090Y-44473576D01*
X129971090Y-44473576D01*
G37*
D23*
X130658751Y-44333922D03*
D24*
G36*
X130324643Y-44827129D02*
X130165544Y-44668030D01*
X130992859Y-43840715D01*
X131151958Y-43999814D01*
X130324643Y-44827129D01*
X130324643Y-44827129D01*
G37*
D23*
X131012305Y-44687476D03*
D24*
G36*
X130678197Y-45180683D02*
X130519098Y-45021584D01*
X131346413Y-44194269D01*
X131505512Y-44353368D01*
X130678197Y-45180683D01*
X130678197Y-45180683D01*
G37*
D23*
X131365858Y-45041029D03*
D24*
G36*
X131031750Y-45534236D02*
X130872651Y-45375137D01*
X131699966Y-44547822D01*
X131859065Y-44706921D01*
X131031750Y-45534236D01*
X131031750Y-45534236D01*
G37*
D23*
X131365858Y-47303771D03*
D24*
G36*
X130872651Y-46969663D02*
X131031750Y-46810564D01*
X131859065Y-47637879D01*
X131699966Y-47796978D01*
X130872651Y-46969663D01*
X130872651Y-46969663D01*
G37*
D23*
X131012305Y-47657324D03*
D24*
G36*
X130519098Y-47323216D02*
X130678197Y-47164117D01*
X131505512Y-47991432D01*
X131346413Y-48150531D01*
X130519098Y-47323216D01*
X130519098Y-47323216D01*
G37*
D23*
X130658751Y-48010878D03*
D24*
G36*
X130165544Y-47676770D02*
X130324643Y-47517671D01*
X131151958Y-48344986D01*
X130992859Y-48504085D01*
X130165544Y-47676770D01*
X130165544Y-47676770D01*
G37*
D23*
X130305198Y-48364431D03*
D24*
G36*
X129811991Y-48030323D02*
X129971090Y-47871224D01*
X130798405Y-48698539D01*
X130639306Y-48857638D01*
X129811991Y-48030323D01*
X129811991Y-48030323D01*
G37*
D23*
X129951645Y-48717984D03*
D24*
G36*
X129458438Y-48383876D02*
X129617537Y-48224777D01*
X130444852Y-49052092D01*
X130285753Y-49211191D01*
X129458438Y-48383876D01*
X129458438Y-48383876D01*
G37*
D23*
X129598091Y-49071538D03*
D24*
G36*
X129104884Y-48737430D02*
X129263983Y-48578331D01*
X130091298Y-49405646D01*
X129932199Y-49564745D01*
X129104884Y-48737430D01*
X129104884Y-48737430D01*
G37*
D23*
X129244538Y-49425091D03*
D24*
G36*
X128751331Y-49090983D02*
X128910430Y-48931884D01*
X129737745Y-49759199D01*
X129578646Y-49918298D01*
X128751331Y-49090983D01*
X128751331Y-49090983D01*
G37*
D23*
X128890984Y-49778645D03*
D24*
G36*
X128397777Y-49444537D02*
X128556876Y-49285438D01*
X129384191Y-50112753D01*
X129225092Y-50271852D01*
X128397777Y-49444537D01*
X128397777Y-49444537D01*
G37*
D23*
X128537431Y-50132198D03*
D24*
G36*
X128044224Y-49798090D02*
X128203323Y-49638991D01*
X129030638Y-50466306D01*
X128871539Y-50625405D01*
X128044224Y-49798090D01*
X128044224Y-49798090D01*
G37*
D23*
X128183878Y-50485751D03*
D24*
G36*
X127690671Y-50151643D02*
X127849770Y-49992544D01*
X128677085Y-50819859D01*
X128517986Y-50978958D01*
X127690671Y-50151643D01*
X127690671Y-50151643D01*
G37*
D23*
X127830324Y-50839305D03*
D24*
G36*
X127337117Y-50505197D02*
X127496216Y-50346098D01*
X128323531Y-51173413D01*
X128164432Y-51332512D01*
X127337117Y-50505197D01*
X127337117Y-50505197D01*
G37*
D23*
X127476771Y-51192858D03*
D24*
G36*
X126983564Y-50858750D02*
X127142663Y-50699651D01*
X127969978Y-51526966D01*
X127810879Y-51686065D01*
X126983564Y-50858750D01*
X126983564Y-50858750D01*
G37*
D23*
X125214029Y-51192858D03*
D24*
G36*
X124879921Y-51686065D02*
X124720822Y-51526966D01*
X125548137Y-50699651D01*
X125707236Y-50858750D01*
X124879921Y-51686065D01*
X124879921Y-51686065D01*
G37*
D23*
X124860476Y-50839305D03*
D24*
G36*
X124526368Y-51332512D02*
X124367269Y-51173413D01*
X125194584Y-50346098D01*
X125353683Y-50505197D01*
X124526368Y-51332512D01*
X124526368Y-51332512D01*
G37*
D23*
X124506922Y-50485751D03*
D24*
G36*
X124172814Y-50978958D02*
X124013715Y-50819859D01*
X124841030Y-49992544D01*
X125000129Y-50151643D01*
X124172814Y-50978958D01*
X124172814Y-50978958D01*
G37*
D23*
X124153369Y-50132198D03*
D24*
G36*
X123819261Y-50625405D02*
X123660162Y-50466306D01*
X124487477Y-49638991D01*
X124646576Y-49798090D01*
X123819261Y-50625405D01*
X123819261Y-50625405D01*
G37*
D23*
X123799816Y-49778645D03*
D24*
G36*
X123465708Y-50271852D02*
X123306609Y-50112753D01*
X124133924Y-49285438D01*
X124293023Y-49444537D01*
X123465708Y-50271852D01*
X123465708Y-50271852D01*
G37*
D23*
X123446262Y-49425091D03*
D24*
G36*
X123112154Y-49918298D02*
X122953055Y-49759199D01*
X123780370Y-48931884D01*
X123939469Y-49090983D01*
X123112154Y-49918298D01*
X123112154Y-49918298D01*
G37*
D23*
X123092709Y-49071538D03*
D24*
G36*
X122758601Y-49564745D02*
X122599502Y-49405646D01*
X123426817Y-48578331D01*
X123585916Y-48737430D01*
X122758601Y-49564745D01*
X122758601Y-49564745D01*
G37*
D23*
X122739155Y-48717984D03*
D24*
G36*
X122405047Y-49211191D02*
X122245948Y-49052092D01*
X123073263Y-48224777D01*
X123232362Y-48383876D01*
X122405047Y-49211191D01*
X122405047Y-49211191D01*
G37*
D23*
X122385602Y-48364431D03*
D24*
G36*
X122051494Y-48857638D02*
X121892395Y-48698539D01*
X122719710Y-47871224D01*
X122878809Y-48030323D01*
X122051494Y-48857638D01*
X122051494Y-48857638D01*
G37*
D23*
X122032049Y-48010878D03*
D24*
G36*
X121697941Y-48504085D02*
X121538842Y-48344986D01*
X122366157Y-47517671D01*
X122525256Y-47676770D01*
X121697941Y-48504085D01*
X121697941Y-48504085D01*
G37*
D23*
X121678495Y-47657324D03*
D24*
G36*
X121344387Y-48150531D02*
X121185288Y-47991432D01*
X122012603Y-47164117D01*
X122171702Y-47323216D01*
X121344387Y-48150531D01*
X121344387Y-48150531D01*
G37*
D23*
X121324942Y-47303771D03*
D24*
G36*
X120990834Y-47796978D02*
X120831735Y-47637879D01*
X121659050Y-46810564D01*
X121818149Y-46969663D01*
X120990834Y-47796978D01*
X120990834Y-47796978D01*
G37*
D23*
X121324942Y-45041029D03*
D24*
G36*
X120831735Y-44706921D02*
X120990834Y-44547822D01*
X121818149Y-45375137D01*
X121659050Y-45534236D01*
X120831735Y-44706921D01*
X120831735Y-44706921D01*
G37*
D23*
X121678495Y-44687476D03*
D24*
G36*
X121185288Y-44353368D02*
X121344387Y-44194269D01*
X122171702Y-45021584D01*
X122012603Y-45180683D01*
X121185288Y-44353368D01*
X121185288Y-44353368D01*
G37*
D23*
X122032049Y-44333922D03*
D24*
G36*
X121538842Y-43999814D02*
X121697941Y-43840715D01*
X122525256Y-44668030D01*
X122366157Y-44827129D01*
X121538842Y-43999814D01*
X121538842Y-43999814D01*
G37*
D23*
X122385602Y-43980369D03*
D24*
G36*
X121892395Y-43646261D02*
X122051494Y-43487162D01*
X122878809Y-44314477D01*
X122719710Y-44473576D01*
X121892395Y-43646261D01*
X121892395Y-43646261D01*
G37*
D23*
X122739155Y-43626816D03*
D24*
G36*
X122245948Y-43292708D02*
X122405047Y-43133609D01*
X123232362Y-43960924D01*
X123073263Y-44120023D01*
X122245948Y-43292708D01*
X122245948Y-43292708D01*
G37*
D23*
X123092709Y-43273262D03*
D24*
G36*
X122599502Y-42939154D02*
X122758601Y-42780055D01*
X123585916Y-43607370D01*
X123426817Y-43766469D01*
X122599502Y-42939154D01*
X122599502Y-42939154D01*
G37*
D23*
X123446262Y-42919709D03*
D24*
G36*
X122953055Y-42585601D02*
X123112154Y-42426502D01*
X123939469Y-43253817D01*
X123780370Y-43412916D01*
X122953055Y-42585601D01*
X122953055Y-42585601D01*
G37*
D23*
X123799816Y-42566155D03*
D24*
G36*
X123306609Y-42232047D02*
X123465708Y-42072948D01*
X124293023Y-42900263D01*
X124133924Y-43059362D01*
X123306609Y-42232047D01*
X123306609Y-42232047D01*
G37*
D23*
X124153369Y-42212602D03*
D24*
G36*
X123660162Y-41878494D02*
X123819261Y-41719395D01*
X124646576Y-42546710D01*
X124487477Y-42705809D01*
X123660162Y-41878494D01*
X123660162Y-41878494D01*
G37*
D23*
X124506922Y-41859049D03*
D24*
G36*
X124013715Y-41524941D02*
X124172814Y-41365842D01*
X125000129Y-42193157D01*
X124841030Y-42352256D01*
X124013715Y-41524941D01*
X124013715Y-41524941D01*
G37*
D23*
X124860476Y-41505495D03*
D24*
G36*
X124367269Y-41171387D02*
X124526368Y-41012288D01*
X125353683Y-41839603D01*
X125194584Y-41998702D01*
X124367269Y-41171387D01*
X124367269Y-41171387D01*
G37*
D23*
X125214029Y-41151942D03*
D24*
G36*
X124720822Y-40817834D02*
X124879921Y-40658735D01*
X125707236Y-41486050D01*
X125548137Y-41645149D01*
X124720822Y-40817834D01*
X124720822Y-40817834D01*
G37*
G04 #@! TD*
D18*
G04 #@! TO.C,R15*
X166226000Y-221678000D03*
X164526000Y-221678000D03*
G04 #@! TD*
G04 #@! TO.C,R15*
X128726000Y-221678000D03*
X127026000Y-221678000D03*
G04 #@! TD*
G04 #@! TO.C,R15*
X91226000Y-221678000D03*
X89526000Y-221678000D03*
G04 #@! TD*
G04 #@! TO.C,R15*
X166226000Y-148178000D03*
X164526000Y-148178000D03*
G04 #@! TD*
G04 #@! TO.C,R15*
X128726000Y-148178000D03*
X127026000Y-148178000D03*
G04 #@! TD*
G04 #@! TO.C,R15*
X91226000Y-148178000D03*
X89526000Y-148178000D03*
G04 #@! TD*
G04 #@! TO.C,R15*
X166226000Y-74678000D03*
X164526000Y-74678000D03*
G04 #@! TD*
G04 #@! TO.C,R15*
X128726000Y-74678000D03*
X127026000Y-74678000D03*
G04 #@! TD*
D14*
G04 #@! TO.C,J8*
X150218000Y-197568000D03*
X150218000Y-198818000D03*
X150218000Y-200068000D03*
D13*
X153568000Y-195718000D03*
X153568000Y-201918000D03*
G04 #@! TD*
D14*
G04 #@! TO.C,J8*
X112718000Y-197568000D03*
X112718000Y-198818000D03*
X112718000Y-200068000D03*
D13*
X116068000Y-195718000D03*
X116068000Y-201918000D03*
G04 #@! TD*
D14*
G04 #@! TO.C,J8*
X75218000Y-197568000D03*
X75218000Y-198818000D03*
X75218000Y-200068000D03*
D13*
X78568000Y-195718000D03*
X78568000Y-201918000D03*
G04 #@! TD*
D14*
G04 #@! TO.C,J8*
X150218000Y-124068000D03*
X150218000Y-125318000D03*
X150218000Y-126568000D03*
D13*
X153568000Y-122218000D03*
X153568000Y-128418000D03*
G04 #@! TD*
D14*
G04 #@! TO.C,J8*
X112718000Y-124068000D03*
X112718000Y-125318000D03*
X112718000Y-126568000D03*
D13*
X116068000Y-122218000D03*
X116068000Y-128418000D03*
G04 #@! TD*
D14*
G04 #@! TO.C,J8*
X75218000Y-124068000D03*
X75218000Y-125318000D03*
X75218000Y-126568000D03*
D13*
X78568000Y-122218000D03*
X78568000Y-128418000D03*
G04 #@! TD*
D14*
G04 #@! TO.C,J8*
X150218000Y-50568000D03*
X150218000Y-51818000D03*
X150218000Y-53068000D03*
D13*
X153568000Y-48718000D03*
X153568000Y-54918000D03*
G04 #@! TD*
D14*
G04 #@! TO.C,J8*
X112718000Y-50568000D03*
X112718000Y-51818000D03*
X112718000Y-53068000D03*
D13*
X116068000Y-48718000D03*
X116068000Y-54918000D03*
G04 #@! TD*
D25*
G04 #@! TO.C,Q1*
X171624400Y-168395800D03*
X170674400Y-166095800D03*
X172574400Y-166095800D03*
G04 #@! TD*
G04 #@! TO.C,Q1*
X134124400Y-168395800D03*
X133174400Y-166095800D03*
X135074400Y-166095800D03*
G04 #@! TD*
G04 #@! TO.C,Q1*
X96624400Y-168395800D03*
X95674400Y-166095800D03*
X97574400Y-166095800D03*
G04 #@! TD*
G04 #@! TO.C,Q1*
X171624400Y-94895800D03*
X170674400Y-92595800D03*
X172574400Y-92595800D03*
G04 #@! TD*
G04 #@! TO.C,Q1*
X134124400Y-94895800D03*
X133174400Y-92595800D03*
X135074400Y-92595800D03*
G04 #@! TD*
G04 #@! TO.C,Q1*
X96624400Y-94895800D03*
X95674400Y-92595800D03*
X97574400Y-92595800D03*
G04 #@! TD*
G04 #@! TO.C,Q1*
X171624400Y-21395800D03*
X170674400Y-19095800D03*
X172574400Y-19095800D03*
G04 #@! TD*
G04 #@! TO.C,Q1*
X134124400Y-21395800D03*
X133174400Y-19095800D03*
X135074400Y-19095800D03*
G04 #@! TD*
D26*
G04 #@! TO.C,Y1*
X165122000Y-184086000D03*
X162622002Y-184086000D03*
G04 #@! TD*
G04 #@! TO.C,Y1*
X127622000Y-184086000D03*
X125122002Y-184086000D03*
G04 #@! TD*
G04 #@! TO.C,Y1*
X90122000Y-184086000D03*
X87622002Y-184086000D03*
G04 #@! TD*
G04 #@! TO.C,Y1*
X165122000Y-110586000D03*
X162622002Y-110586000D03*
G04 #@! TD*
G04 #@! TO.C,Y1*
X127622000Y-110586000D03*
X125122002Y-110586000D03*
G04 #@! TD*
G04 #@! TO.C,Y1*
X90122000Y-110586000D03*
X87622002Y-110586000D03*
G04 #@! TD*
G04 #@! TO.C,Y1*
X165122000Y-37086000D03*
X162622002Y-37086000D03*
G04 #@! TD*
G04 #@! TO.C,Y1*
X127622000Y-37086000D03*
X125122002Y-37086000D03*
G04 #@! TD*
D18*
G04 #@! TO.C,R13*
X154366000Y-182054000D03*
X156066000Y-182054000D03*
G04 #@! TD*
G04 #@! TO.C,R13*
X116866000Y-182054000D03*
X118566000Y-182054000D03*
G04 #@! TD*
G04 #@! TO.C,R13*
X79366000Y-182054000D03*
X81066000Y-182054000D03*
G04 #@! TD*
G04 #@! TO.C,R13*
X154366000Y-108554000D03*
X156066000Y-108554000D03*
G04 #@! TD*
G04 #@! TO.C,R13*
X116866000Y-108554000D03*
X118566000Y-108554000D03*
G04 #@! TD*
G04 #@! TO.C,R13*
X79366000Y-108554000D03*
X81066000Y-108554000D03*
G04 #@! TD*
G04 #@! TO.C,R13*
X154366000Y-35054000D03*
X156066000Y-35054000D03*
G04 #@! TD*
G04 #@! TO.C,R13*
X116866000Y-35054000D03*
X118566000Y-35054000D03*
G04 #@! TD*
D16*
G04 #@! TO.C,R11*
X174647000Y-225449000D03*
X174647000Y-223749000D03*
G04 #@! TD*
G04 #@! TO.C,R11*
X137147000Y-225449000D03*
X137147000Y-223749000D03*
G04 #@! TD*
G04 #@! TO.C,R11*
X99647000Y-225449000D03*
X99647000Y-223749000D03*
G04 #@! TD*
G04 #@! TO.C,R11*
X174647000Y-151949000D03*
X174647000Y-150249000D03*
G04 #@! TD*
G04 #@! TO.C,R11*
X137147000Y-151949000D03*
X137147000Y-150249000D03*
G04 #@! TD*
G04 #@! TO.C,R11*
X99647000Y-151949000D03*
X99647000Y-150249000D03*
G04 #@! TD*
G04 #@! TO.C,R11*
X174647000Y-78449000D03*
X174647000Y-76749000D03*
G04 #@! TD*
G04 #@! TO.C,R11*
X137147000Y-78449000D03*
X137147000Y-76749000D03*
G04 #@! TD*
D18*
G04 #@! TO.C,R10*
X167041500Y-211073500D03*
X168741500Y-211073500D03*
G04 #@! TD*
G04 #@! TO.C,R10*
X129541500Y-211073500D03*
X131241500Y-211073500D03*
G04 #@! TD*
G04 #@! TO.C,R10*
X92041500Y-211073500D03*
X93741500Y-211073500D03*
G04 #@! TD*
G04 #@! TO.C,R10*
X167041500Y-137573500D03*
X168741500Y-137573500D03*
G04 #@! TD*
G04 #@! TO.C,R10*
X129541500Y-137573500D03*
X131241500Y-137573500D03*
G04 #@! TD*
G04 #@! TO.C,R10*
X92041500Y-137573500D03*
X93741500Y-137573500D03*
G04 #@! TD*
G04 #@! TO.C,R10*
X167041500Y-64073500D03*
X168741500Y-64073500D03*
G04 #@! TD*
G04 #@! TO.C,R10*
X129541500Y-64073500D03*
X131241500Y-64073500D03*
G04 #@! TD*
D13*
G04 #@! TO.C,J1*
X153568000Y-212078000D03*
X153568000Y-205878000D03*
D14*
X150218000Y-210228000D03*
X150218000Y-208978000D03*
X150218000Y-207728000D03*
G04 #@! TD*
D13*
G04 #@! TO.C,J1*
X116068000Y-212078000D03*
X116068000Y-205878000D03*
D14*
X112718000Y-210228000D03*
X112718000Y-208978000D03*
X112718000Y-207728000D03*
G04 #@! TD*
D13*
G04 #@! TO.C,J1*
X78568000Y-212078000D03*
X78568000Y-205878000D03*
D14*
X75218000Y-210228000D03*
X75218000Y-208978000D03*
X75218000Y-207728000D03*
G04 #@! TD*
D13*
G04 #@! TO.C,J1*
X153568000Y-138578000D03*
X153568000Y-132378000D03*
D14*
X150218000Y-136728000D03*
X150218000Y-135478000D03*
X150218000Y-134228000D03*
G04 #@! TD*
D13*
G04 #@! TO.C,J1*
X116068000Y-138578000D03*
X116068000Y-132378000D03*
D14*
X112718000Y-136728000D03*
X112718000Y-135478000D03*
X112718000Y-134228000D03*
G04 #@! TD*
D13*
G04 #@! TO.C,J1*
X78568000Y-138578000D03*
X78568000Y-132378000D03*
D14*
X75218000Y-136728000D03*
X75218000Y-135478000D03*
X75218000Y-134228000D03*
G04 #@! TD*
D13*
G04 #@! TO.C,J1*
X153568000Y-65078000D03*
X153568000Y-58878000D03*
D14*
X150218000Y-63228000D03*
X150218000Y-61978000D03*
X150218000Y-60728000D03*
G04 #@! TD*
D13*
G04 #@! TO.C,J1*
X116068000Y-65078000D03*
X116068000Y-58878000D03*
D14*
X112718000Y-63228000D03*
X112718000Y-61978000D03*
X112718000Y-60728000D03*
G04 #@! TD*
D18*
G04 #@! TO.C,R1*
X168867600Y-168439600D03*
X167167600Y-168439600D03*
G04 #@! TD*
G04 #@! TO.C,R1*
X131367600Y-168439600D03*
X129667600Y-168439600D03*
G04 #@! TD*
G04 #@! TO.C,R1*
X93867600Y-168439600D03*
X92167600Y-168439600D03*
G04 #@! TD*
G04 #@! TO.C,R1*
X168867600Y-94939600D03*
X167167600Y-94939600D03*
G04 #@! TD*
G04 #@! TO.C,R1*
X131367600Y-94939600D03*
X129667600Y-94939600D03*
G04 #@! TD*
G04 #@! TO.C,R1*
X93867600Y-94939600D03*
X92167600Y-94939600D03*
G04 #@! TD*
G04 #@! TO.C,R1*
X168867600Y-21439600D03*
X167167600Y-21439600D03*
G04 #@! TD*
G04 #@! TO.C,R1*
X131367600Y-21439600D03*
X129667600Y-21439600D03*
G04 #@! TD*
G04 #@! TO.C,R2*
X181034200Y-190867800D03*
X179334200Y-190867800D03*
G04 #@! TD*
G04 #@! TO.C,R2*
X143534200Y-190867800D03*
X141834200Y-190867800D03*
G04 #@! TD*
G04 #@! TO.C,R2*
X106034200Y-190867800D03*
X104334200Y-190867800D03*
G04 #@! TD*
G04 #@! TO.C,R2*
X181034200Y-117367800D03*
X179334200Y-117367800D03*
G04 #@! TD*
G04 #@! TO.C,R2*
X143534200Y-117367800D03*
X141834200Y-117367800D03*
G04 #@! TD*
G04 #@! TO.C,R2*
X106034200Y-117367800D03*
X104334200Y-117367800D03*
G04 #@! TD*
G04 #@! TO.C,R2*
X181034200Y-43867800D03*
X179334200Y-43867800D03*
G04 #@! TD*
G04 #@! TO.C,R2*
X143534200Y-43867800D03*
X141834200Y-43867800D03*
G04 #@! TD*
D16*
G04 #@! TO.C,R12*
X166582500Y-225449000D03*
X166582500Y-223749000D03*
G04 #@! TD*
G04 #@! TO.C,R12*
X129082500Y-225449000D03*
X129082500Y-223749000D03*
G04 #@! TD*
G04 #@! TO.C,R12*
X91582500Y-225449000D03*
X91582500Y-223749000D03*
G04 #@! TD*
G04 #@! TO.C,R12*
X166582500Y-151949000D03*
X166582500Y-150249000D03*
G04 #@! TD*
G04 #@! TO.C,R12*
X129082500Y-151949000D03*
X129082500Y-150249000D03*
G04 #@! TD*
G04 #@! TO.C,R12*
X91582500Y-151949000D03*
X91582500Y-150249000D03*
G04 #@! TD*
G04 #@! TO.C,R12*
X166582500Y-78449000D03*
X166582500Y-76749000D03*
G04 #@! TD*
G04 #@! TO.C,R12*
X129082500Y-78449000D03*
X129082500Y-76749000D03*
G04 #@! TD*
G04 #@! TO.C,R9*
X167027000Y-214160500D03*
X167027000Y-215860500D03*
G04 #@! TD*
G04 #@! TO.C,R9*
X129527000Y-214160500D03*
X129527000Y-215860500D03*
G04 #@! TD*
G04 #@! TO.C,R9*
X92027000Y-214160500D03*
X92027000Y-215860500D03*
G04 #@! TD*
G04 #@! TO.C,R9*
X167027000Y-140660500D03*
X167027000Y-142360500D03*
G04 #@! TD*
G04 #@! TO.C,R9*
X129527000Y-140660500D03*
X129527000Y-142360500D03*
G04 #@! TD*
G04 #@! TO.C,R9*
X92027000Y-140660500D03*
X92027000Y-142360500D03*
G04 #@! TD*
G04 #@! TO.C,R9*
X167027000Y-67160500D03*
X167027000Y-68860500D03*
G04 #@! TD*
G04 #@! TO.C,R9*
X129527000Y-67160500D03*
X129527000Y-68860500D03*
G04 #@! TD*
D18*
G04 #@! TO.C,R3*
X181034200Y-189166000D03*
X179334200Y-189166000D03*
G04 #@! TD*
G04 #@! TO.C,R3*
X143534200Y-189166000D03*
X141834200Y-189166000D03*
G04 #@! TD*
G04 #@! TO.C,R3*
X106034200Y-189166000D03*
X104334200Y-189166000D03*
G04 #@! TD*
G04 #@! TO.C,R3*
X181034200Y-115666000D03*
X179334200Y-115666000D03*
G04 #@! TD*
G04 #@! TO.C,R3*
X143534200Y-115666000D03*
X141834200Y-115666000D03*
G04 #@! TD*
G04 #@! TO.C,R3*
X106034200Y-115666000D03*
X104334200Y-115666000D03*
G04 #@! TD*
G04 #@! TO.C,R3*
X181034200Y-42166000D03*
X179334200Y-42166000D03*
G04 #@! TD*
G04 #@! TO.C,R3*
X143534200Y-42166000D03*
X141834200Y-42166000D03*
G04 #@! TD*
D16*
G04 #@! TO.C,C5*
X169655900Y-185826800D03*
X169655900Y-187526800D03*
G04 #@! TD*
G04 #@! TO.C,C5*
X132155900Y-185826800D03*
X132155900Y-187526800D03*
G04 #@! TD*
G04 #@! TO.C,C5*
X94655900Y-185826800D03*
X94655900Y-187526800D03*
G04 #@! TD*
G04 #@! TO.C,C5*
X169655900Y-112326800D03*
X169655900Y-114026800D03*
G04 #@! TD*
G04 #@! TO.C,C5*
X132155900Y-112326800D03*
X132155900Y-114026800D03*
G04 #@! TD*
G04 #@! TO.C,C5*
X94655900Y-112326800D03*
X94655900Y-114026800D03*
G04 #@! TD*
G04 #@! TO.C,C5*
X169655900Y-38826800D03*
X169655900Y-40526800D03*
G04 #@! TD*
G04 #@! TO.C,C5*
X132155900Y-38826800D03*
X132155900Y-40526800D03*
G04 #@! TD*
D18*
G04 #@! TO.C,C9*
X172322000Y-195516000D03*
X170622000Y-195516000D03*
G04 #@! TD*
G04 #@! TO.C,C9*
X134822000Y-195516000D03*
X133122000Y-195516000D03*
G04 #@! TD*
G04 #@! TO.C,C9*
X97322000Y-195516000D03*
X95622000Y-195516000D03*
G04 #@! TD*
G04 #@! TO.C,C9*
X172322000Y-122016000D03*
X170622000Y-122016000D03*
G04 #@! TD*
G04 #@! TO.C,C9*
X134822000Y-122016000D03*
X133122000Y-122016000D03*
G04 #@! TD*
G04 #@! TO.C,C9*
X97322000Y-122016000D03*
X95622000Y-122016000D03*
G04 #@! TD*
G04 #@! TO.C,C9*
X172322000Y-48516000D03*
X170622000Y-48516000D03*
G04 #@! TD*
G04 #@! TO.C,C9*
X134822000Y-48516000D03*
X133122000Y-48516000D03*
G04 #@! TD*
G04 #@! TO.C,C8*
X157160000Y-197357500D03*
X158860000Y-197357500D03*
G04 #@! TD*
G04 #@! TO.C,C8*
X119660000Y-197357500D03*
X121360000Y-197357500D03*
G04 #@! TD*
G04 #@! TO.C,C8*
X82160000Y-197357500D03*
X83860000Y-197357500D03*
G04 #@! TD*
G04 #@! TO.C,C8*
X157160000Y-123857500D03*
X158860000Y-123857500D03*
G04 #@! TD*
G04 #@! TO.C,C8*
X119660000Y-123857500D03*
X121360000Y-123857500D03*
G04 #@! TD*
G04 #@! TO.C,C8*
X82160000Y-123857500D03*
X83860000Y-123857500D03*
G04 #@! TD*
G04 #@! TO.C,C8*
X157160000Y-50357500D03*
X158860000Y-50357500D03*
G04 #@! TD*
G04 #@! TO.C,C8*
X119660000Y-50357500D03*
X121360000Y-50357500D03*
G04 #@! TD*
G04 #@! TO.C,C12*
X173592000Y-208597000D03*
X171892000Y-208597000D03*
G04 #@! TD*
G04 #@! TO.C,C12*
X136092000Y-208597000D03*
X134392000Y-208597000D03*
G04 #@! TD*
G04 #@! TO.C,C12*
X98592000Y-208597000D03*
X96892000Y-208597000D03*
G04 #@! TD*
G04 #@! TO.C,C12*
X173592000Y-135097000D03*
X171892000Y-135097000D03*
G04 #@! TD*
G04 #@! TO.C,C12*
X136092000Y-135097000D03*
X134392000Y-135097000D03*
G04 #@! TD*
G04 #@! TO.C,C12*
X98592000Y-135097000D03*
X96892000Y-135097000D03*
G04 #@! TD*
G04 #@! TO.C,C12*
X173592000Y-61597000D03*
X171892000Y-61597000D03*
G04 #@! TD*
G04 #@! TO.C,C12*
X136092000Y-61597000D03*
X134392000Y-61597000D03*
G04 #@! TD*
G04 #@! TO.C,C19*
X179321500Y-192468000D03*
X181021500Y-192468000D03*
G04 #@! TD*
G04 #@! TO.C,C19*
X141821500Y-192468000D03*
X143521500Y-192468000D03*
G04 #@! TD*
G04 #@! TO.C,C19*
X104321500Y-192468000D03*
X106021500Y-192468000D03*
G04 #@! TD*
G04 #@! TO.C,C19*
X179321500Y-118968000D03*
X181021500Y-118968000D03*
G04 #@! TD*
G04 #@! TO.C,C19*
X141821500Y-118968000D03*
X143521500Y-118968000D03*
G04 #@! TD*
G04 #@! TO.C,C19*
X104321500Y-118968000D03*
X106021500Y-118968000D03*
G04 #@! TD*
G04 #@! TO.C,C19*
X179321500Y-45468000D03*
X181021500Y-45468000D03*
G04 #@! TD*
G04 #@! TO.C,C19*
X141821500Y-45468000D03*
X143521500Y-45468000D03*
G04 #@! TD*
D16*
G04 #@! TO.C,C18*
X169757500Y-225410000D03*
X169757500Y-223710000D03*
G04 #@! TD*
G04 #@! TO.C,C18*
X132257500Y-225410000D03*
X132257500Y-223710000D03*
G04 #@! TD*
G04 #@! TO.C,C18*
X94757500Y-225410000D03*
X94757500Y-223710000D03*
G04 #@! TD*
G04 #@! TO.C,C18*
X169757500Y-151910000D03*
X169757500Y-150210000D03*
G04 #@! TD*
G04 #@! TO.C,C18*
X132257500Y-151910000D03*
X132257500Y-150210000D03*
G04 #@! TD*
G04 #@! TO.C,C18*
X94757500Y-151910000D03*
X94757500Y-150210000D03*
G04 #@! TD*
G04 #@! TO.C,C18*
X169757500Y-78410000D03*
X169757500Y-76710000D03*
G04 #@! TD*
G04 #@! TO.C,C18*
X132257500Y-78410000D03*
X132257500Y-76710000D03*
G04 #@! TD*
G04 #@! TO.C,C17*
X168170000Y-225410000D03*
X168170000Y-223710000D03*
G04 #@! TD*
G04 #@! TO.C,C17*
X130670000Y-225410000D03*
X130670000Y-223710000D03*
G04 #@! TD*
G04 #@! TO.C,C17*
X93170000Y-225410000D03*
X93170000Y-223710000D03*
G04 #@! TD*
G04 #@! TO.C,C17*
X168170000Y-151910000D03*
X168170000Y-150210000D03*
G04 #@! TD*
G04 #@! TO.C,C17*
X130670000Y-151910000D03*
X130670000Y-150210000D03*
G04 #@! TD*
G04 #@! TO.C,C17*
X93170000Y-151910000D03*
X93170000Y-150210000D03*
G04 #@! TD*
G04 #@! TO.C,C17*
X168170000Y-78410000D03*
X168170000Y-76710000D03*
G04 #@! TD*
G04 #@! TO.C,C17*
X130670000Y-78410000D03*
X130670000Y-76710000D03*
G04 #@! TD*
G04 #@! TO.C,C14*
X171472000Y-225449000D03*
X171472000Y-223749000D03*
G04 #@! TD*
G04 #@! TO.C,C14*
X133972000Y-225449000D03*
X133972000Y-223749000D03*
G04 #@! TD*
G04 #@! TO.C,C14*
X96472000Y-225449000D03*
X96472000Y-223749000D03*
G04 #@! TD*
G04 #@! TO.C,C14*
X171472000Y-151949000D03*
X171472000Y-150249000D03*
G04 #@! TD*
G04 #@! TO.C,C14*
X133972000Y-151949000D03*
X133972000Y-150249000D03*
G04 #@! TD*
G04 #@! TO.C,C14*
X96472000Y-151949000D03*
X96472000Y-150249000D03*
G04 #@! TD*
G04 #@! TO.C,C14*
X171472000Y-78449000D03*
X171472000Y-76749000D03*
G04 #@! TD*
G04 #@! TO.C,C14*
X133972000Y-78449000D03*
X133972000Y-76749000D03*
G04 #@! TD*
G04 #@! TO.C,C7*
X154860400Y-185610900D03*
X154860400Y-187310900D03*
G04 #@! TD*
G04 #@! TO.C,C7*
X117360400Y-185610900D03*
X117360400Y-187310900D03*
G04 #@! TD*
G04 #@! TO.C,C7*
X79860400Y-185610900D03*
X79860400Y-187310900D03*
G04 #@! TD*
G04 #@! TO.C,C7*
X154860400Y-112110900D03*
X154860400Y-113810900D03*
G04 #@! TD*
G04 #@! TO.C,C7*
X117360400Y-112110900D03*
X117360400Y-113810900D03*
G04 #@! TD*
G04 #@! TO.C,C7*
X79860400Y-112110900D03*
X79860400Y-113810900D03*
G04 #@! TD*
G04 #@! TO.C,C7*
X154860400Y-38610900D03*
X154860400Y-40310900D03*
G04 #@! TD*
G04 #@! TO.C,C7*
X117360400Y-38610900D03*
X117360400Y-40310900D03*
G04 #@! TD*
G04 #@! TO.C,C6*
X171306900Y-185826800D03*
X171306900Y-187526800D03*
G04 #@! TD*
G04 #@! TO.C,C6*
X133806900Y-185826800D03*
X133806900Y-187526800D03*
G04 #@! TD*
G04 #@! TO.C,C6*
X96306900Y-185826800D03*
X96306900Y-187526800D03*
G04 #@! TD*
G04 #@! TO.C,C6*
X171306900Y-112326800D03*
X171306900Y-114026800D03*
G04 #@! TD*
G04 #@! TO.C,C6*
X133806900Y-112326800D03*
X133806900Y-114026800D03*
G04 #@! TD*
G04 #@! TO.C,C6*
X96306900Y-112326800D03*
X96306900Y-114026800D03*
G04 #@! TD*
G04 #@! TO.C,C6*
X171306900Y-38826800D03*
X171306900Y-40526800D03*
G04 #@! TD*
G04 #@! TO.C,C6*
X133806900Y-38826800D03*
X133806900Y-40526800D03*
G04 #@! TD*
D18*
G04 #@! TO.C,C3*
X161312000Y-182054000D03*
X163012000Y-182054000D03*
G04 #@! TD*
G04 #@! TO.C,C3*
X123812000Y-182054000D03*
X125512000Y-182054000D03*
G04 #@! TD*
G04 #@! TO.C,C3*
X86312000Y-182054000D03*
X88012000Y-182054000D03*
G04 #@! TD*
G04 #@! TO.C,C3*
X161312000Y-108554000D03*
X163012000Y-108554000D03*
G04 #@! TD*
G04 #@! TO.C,C3*
X123812000Y-108554000D03*
X125512000Y-108554000D03*
G04 #@! TD*
G04 #@! TO.C,C3*
X86312000Y-108554000D03*
X88012000Y-108554000D03*
G04 #@! TD*
G04 #@! TO.C,C3*
X161312000Y-35054000D03*
X163012000Y-35054000D03*
G04 #@! TD*
G04 #@! TO.C,C3*
X123812000Y-35054000D03*
X125512000Y-35054000D03*
G04 #@! TD*
D16*
G04 #@! TO.C,C2*
X158391900Y-185610900D03*
X158391900Y-187310900D03*
G04 #@! TD*
G04 #@! TO.C,C2*
X120891900Y-185610900D03*
X120891900Y-187310900D03*
G04 #@! TD*
G04 #@! TO.C,C2*
X83391900Y-185610900D03*
X83391900Y-187310900D03*
G04 #@! TD*
G04 #@! TO.C,C2*
X158391900Y-112110900D03*
X158391900Y-113810900D03*
G04 #@! TD*
G04 #@! TO.C,C2*
X120891900Y-112110900D03*
X120891900Y-113810900D03*
G04 #@! TD*
G04 #@! TO.C,C2*
X83391900Y-112110900D03*
X83391900Y-113810900D03*
G04 #@! TD*
G04 #@! TO.C,C2*
X158391900Y-38610900D03*
X158391900Y-40310900D03*
G04 #@! TD*
G04 #@! TO.C,C2*
X120891900Y-38610900D03*
X120891900Y-40310900D03*
G04 #@! TD*
G04 #@! TO.C,C1*
X156638400Y-185610900D03*
X156638400Y-187310900D03*
G04 #@! TD*
G04 #@! TO.C,C1*
X119138400Y-185610900D03*
X119138400Y-187310900D03*
G04 #@! TD*
G04 #@! TO.C,C1*
X81638400Y-185610900D03*
X81638400Y-187310900D03*
G04 #@! TD*
G04 #@! TO.C,C1*
X156638400Y-112110900D03*
X156638400Y-113810900D03*
G04 #@! TD*
G04 #@! TO.C,C1*
X119138400Y-112110900D03*
X119138400Y-113810900D03*
G04 #@! TD*
G04 #@! TO.C,C1*
X81638400Y-112110900D03*
X81638400Y-113810900D03*
G04 #@! TD*
G04 #@! TO.C,C1*
X156638400Y-38610900D03*
X156638400Y-40310900D03*
G04 #@! TD*
G04 #@! TO.C,C1*
X119138400Y-38610900D03*
X119138400Y-40310900D03*
G04 #@! TD*
G04 #@! TO.C,L1*
X153082400Y-185610900D03*
X153082400Y-187310900D03*
G04 #@! TD*
G04 #@! TO.C,L1*
X115582400Y-185610900D03*
X115582400Y-187310900D03*
G04 #@! TD*
G04 #@! TO.C,L1*
X78082400Y-185610900D03*
X78082400Y-187310900D03*
G04 #@! TD*
G04 #@! TO.C,L1*
X153082400Y-112110900D03*
X153082400Y-113810900D03*
G04 #@! TD*
G04 #@! TO.C,L1*
X115582400Y-112110900D03*
X115582400Y-113810900D03*
G04 #@! TD*
G04 #@! TO.C,L1*
X78082400Y-112110900D03*
X78082400Y-113810900D03*
G04 #@! TD*
G04 #@! TO.C,L1*
X153082400Y-38610900D03*
X153082400Y-40310900D03*
G04 #@! TD*
G04 #@! TO.C,L1*
X115582400Y-38610900D03*
X115582400Y-40310900D03*
G04 #@! TD*
G04 #@! TO.C,C13*
X181060500Y-209002500D03*
X181060500Y-207302500D03*
G04 #@! TD*
G04 #@! TO.C,C13*
X143560500Y-209002500D03*
X143560500Y-207302500D03*
G04 #@! TD*
G04 #@! TO.C,C13*
X106060500Y-209002500D03*
X106060500Y-207302500D03*
G04 #@! TD*
G04 #@! TO.C,C13*
X181060500Y-135502500D03*
X181060500Y-133802500D03*
G04 #@! TD*
G04 #@! TO.C,C13*
X143560500Y-135502500D03*
X143560500Y-133802500D03*
G04 #@! TD*
G04 #@! TO.C,C13*
X106060500Y-135502500D03*
X106060500Y-133802500D03*
G04 #@! TD*
G04 #@! TO.C,C13*
X181060500Y-62002500D03*
X181060500Y-60302500D03*
G04 #@! TD*
G04 #@! TO.C,C13*
X143560500Y-62002500D03*
X143560500Y-60302500D03*
G04 #@! TD*
D27*
G04 #@! TO.C,F1*
X175536000Y-204830000D03*
X175536000Y-207030000D03*
G04 #@! TD*
G04 #@! TO.C,F1*
X138036000Y-204830000D03*
X138036000Y-207030000D03*
G04 #@! TD*
G04 #@! TO.C,F1*
X100536000Y-204830000D03*
X100536000Y-207030000D03*
G04 #@! TD*
G04 #@! TO.C,F1*
X175536000Y-131330000D03*
X175536000Y-133530000D03*
G04 #@! TD*
G04 #@! TO.C,F1*
X138036000Y-131330000D03*
X138036000Y-133530000D03*
G04 #@! TD*
G04 #@! TO.C,F1*
X100536000Y-131330000D03*
X100536000Y-133530000D03*
G04 #@! TD*
G04 #@! TO.C,F1*
X175536000Y-57830000D03*
X175536000Y-60030000D03*
G04 #@! TD*
G04 #@! TO.C,F1*
X138036000Y-57830000D03*
X138036000Y-60030000D03*
G04 #@! TD*
D16*
G04 #@! TO.C,C20*
X174583500Y-219353000D03*
X174583500Y-217653000D03*
G04 #@! TD*
G04 #@! TO.C,C20*
X137083500Y-219353000D03*
X137083500Y-217653000D03*
G04 #@! TD*
G04 #@! TO.C,C20*
X99583500Y-219353000D03*
X99583500Y-217653000D03*
G04 #@! TD*
G04 #@! TO.C,C20*
X174583500Y-145853000D03*
X174583500Y-144153000D03*
G04 #@! TD*
G04 #@! TO.C,C20*
X137083500Y-145853000D03*
X137083500Y-144153000D03*
G04 #@! TD*
G04 #@! TO.C,C20*
X99583500Y-145853000D03*
X99583500Y-144153000D03*
G04 #@! TD*
G04 #@! TO.C,C20*
X174583500Y-72353000D03*
X174583500Y-70653000D03*
G04 #@! TD*
G04 #@! TO.C,C20*
X137083500Y-72353000D03*
X137083500Y-70653000D03*
G04 #@! TD*
D18*
G04 #@! TO.C,C4*
X166392000Y-182054000D03*
X164692000Y-182054000D03*
G04 #@! TD*
G04 #@! TO.C,C4*
X128892000Y-182054000D03*
X127192000Y-182054000D03*
G04 #@! TD*
G04 #@! TO.C,C4*
X91392000Y-182054000D03*
X89692000Y-182054000D03*
G04 #@! TD*
G04 #@! TO.C,C4*
X166392000Y-108554000D03*
X164692000Y-108554000D03*
G04 #@! TD*
G04 #@! TO.C,C4*
X128892000Y-108554000D03*
X127192000Y-108554000D03*
G04 #@! TD*
G04 #@! TO.C,C4*
X91392000Y-108554000D03*
X89692000Y-108554000D03*
G04 #@! TD*
G04 #@! TO.C,C4*
X166392000Y-35054000D03*
X164692000Y-35054000D03*
G04 #@! TD*
G04 #@! TO.C,C4*
X128892000Y-35054000D03*
X127192000Y-35054000D03*
G04 #@! TD*
D14*
G04 #@! TO.C,J12*
X149684600Y-217313800D03*
X149684600Y-218563800D03*
X149684600Y-219813800D03*
X149684600Y-221063800D03*
D13*
X153034600Y-215463800D03*
X153034600Y-222913800D03*
G04 #@! TD*
D14*
G04 #@! TO.C,J12*
X112184600Y-217313800D03*
X112184600Y-218563800D03*
X112184600Y-219813800D03*
X112184600Y-221063800D03*
D13*
X115534600Y-215463800D03*
X115534600Y-222913800D03*
G04 #@! TD*
D14*
G04 #@! TO.C,J12*
X74684600Y-217313800D03*
X74684600Y-218563800D03*
X74684600Y-219813800D03*
X74684600Y-221063800D03*
D13*
X78034600Y-215463800D03*
X78034600Y-222913800D03*
G04 #@! TD*
D14*
G04 #@! TO.C,J12*
X149684600Y-143813800D03*
X149684600Y-145063800D03*
X149684600Y-146313800D03*
X149684600Y-147563800D03*
D13*
X153034600Y-141963800D03*
X153034600Y-149413800D03*
G04 #@! TD*
D14*
G04 #@! TO.C,J12*
X112184600Y-143813800D03*
X112184600Y-145063800D03*
X112184600Y-146313800D03*
X112184600Y-147563800D03*
D13*
X115534600Y-141963800D03*
X115534600Y-149413800D03*
G04 #@! TD*
D14*
G04 #@! TO.C,J12*
X74684600Y-143813800D03*
X74684600Y-145063800D03*
X74684600Y-146313800D03*
X74684600Y-147563800D03*
D13*
X78034600Y-141963800D03*
X78034600Y-149413800D03*
G04 #@! TD*
D14*
G04 #@! TO.C,J12*
X149684600Y-70313800D03*
X149684600Y-71563800D03*
X149684600Y-72813800D03*
X149684600Y-74063800D03*
D13*
X153034600Y-68463800D03*
X153034600Y-75913800D03*
G04 #@! TD*
D14*
G04 #@! TO.C,J12*
X112184600Y-70313800D03*
X112184600Y-71563800D03*
X112184600Y-72813800D03*
X112184600Y-74063800D03*
D13*
X115534600Y-68463800D03*
X115534600Y-75913800D03*
G04 #@! TD*
G04 #@! TO.C,J13*
X160629200Y-222913800D03*
X160629200Y-215463800D03*
D14*
X157279200Y-221063800D03*
X157279200Y-219813800D03*
X157279200Y-218563800D03*
X157279200Y-217313800D03*
G04 #@! TD*
D13*
G04 #@! TO.C,J13*
X123129200Y-222913800D03*
X123129200Y-215463800D03*
D14*
X119779200Y-221063800D03*
X119779200Y-219813800D03*
X119779200Y-218563800D03*
X119779200Y-217313800D03*
G04 #@! TD*
D13*
G04 #@! TO.C,J13*
X85629200Y-222913800D03*
X85629200Y-215463800D03*
D14*
X82279200Y-221063800D03*
X82279200Y-219813800D03*
X82279200Y-218563800D03*
X82279200Y-217313800D03*
G04 #@! TD*
D13*
G04 #@! TO.C,J13*
X160629200Y-149413800D03*
X160629200Y-141963800D03*
D14*
X157279200Y-147563800D03*
X157279200Y-146313800D03*
X157279200Y-145063800D03*
X157279200Y-143813800D03*
G04 #@! TD*
D13*
G04 #@! TO.C,J13*
X123129200Y-149413800D03*
X123129200Y-141963800D03*
D14*
X119779200Y-147563800D03*
X119779200Y-146313800D03*
X119779200Y-145063800D03*
X119779200Y-143813800D03*
G04 #@! TD*
D13*
G04 #@! TO.C,J13*
X85629200Y-149413800D03*
X85629200Y-141963800D03*
D14*
X82279200Y-147563800D03*
X82279200Y-146313800D03*
X82279200Y-145063800D03*
X82279200Y-143813800D03*
G04 #@! TD*
D13*
G04 #@! TO.C,J13*
X160629200Y-75913800D03*
X160629200Y-68463800D03*
D14*
X157279200Y-74063800D03*
X157279200Y-72813800D03*
X157279200Y-71563800D03*
X157279200Y-70313800D03*
G04 #@! TD*
D13*
G04 #@! TO.C,J13*
X123129200Y-75913800D03*
X123129200Y-68463800D03*
D14*
X119779200Y-74063800D03*
X119779200Y-72813800D03*
X119779200Y-71563800D03*
X119779200Y-70313800D03*
G04 #@! TD*
D18*
G04 #@! TO.C,R17*
X179815000Y-196214500D03*
X178115000Y-196214500D03*
G04 #@! TD*
G04 #@! TO.C,R17*
X142315000Y-196214500D03*
X140615000Y-196214500D03*
G04 #@! TD*
G04 #@! TO.C,R17*
X104815000Y-196214500D03*
X103115000Y-196214500D03*
G04 #@! TD*
G04 #@! TO.C,R17*
X179815000Y-122714500D03*
X178115000Y-122714500D03*
G04 #@! TD*
G04 #@! TO.C,R17*
X142315000Y-122714500D03*
X140615000Y-122714500D03*
G04 #@! TD*
G04 #@! TO.C,R17*
X104815000Y-122714500D03*
X103115000Y-122714500D03*
G04 #@! TD*
G04 #@! TO.C,R17*
X179815000Y-49214500D03*
X178115000Y-49214500D03*
G04 #@! TD*
G04 #@! TO.C,R17*
X142315000Y-49214500D03*
X140615000Y-49214500D03*
G04 #@! TD*
G04 #@! TO.C,R16*
X166226000Y-220154000D03*
X164526000Y-220154000D03*
G04 #@! TD*
G04 #@! TO.C,R16*
X128726000Y-220154000D03*
X127026000Y-220154000D03*
G04 #@! TD*
G04 #@! TO.C,R16*
X91226000Y-220154000D03*
X89526000Y-220154000D03*
G04 #@! TD*
G04 #@! TO.C,R16*
X166226000Y-146654000D03*
X164526000Y-146654000D03*
G04 #@! TD*
G04 #@! TO.C,R16*
X128726000Y-146654000D03*
X127026000Y-146654000D03*
G04 #@! TD*
G04 #@! TO.C,R16*
X91226000Y-146654000D03*
X89526000Y-146654000D03*
G04 #@! TD*
G04 #@! TO.C,R16*
X166226000Y-73154000D03*
X164526000Y-73154000D03*
G04 #@! TD*
G04 #@! TO.C,R16*
X128726000Y-73154000D03*
X127026000Y-73154000D03*
G04 #@! TD*
D28*
G04 #@! TO.C,J11*
X154028400Y-225841600D03*
X154028400Y-231941600D03*
D29*
X151503400Y-230391600D03*
X151503400Y-229391600D03*
X151503400Y-228391600D03*
X151503400Y-227391600D03*
G04 #@! TD*
D28*
G04 #@! TO.C,J11*
X116528400Y-225841600D03*
X116528400Y-231941600D03*
D29*
X114003400Y-230391600D03*
X114003400Y-229391600D03*
X114003400Y-228391600D03*
X114003400Y-227391600D03*
G04 #@! TD*
D28*
G04 #@! TO.C,J11*
X79028400Y-225841600D03*
X79028400Y-231941600D03*
D29*
X76503400Y-230391600D03*
X76503400Y-229391600D03*
X76503400Y-228391600D03*
X76503400Y-227391600D03*
G04 #@! TD*
D28*
G04 #@! TO.C,J11*
X154028400Y-152341600D03*
X154028400Y-158441600D03*
D29*
X151503400Y-156891600D03*
X151503400Y-155891600D03*
X151503400Y-154891600D03*
X151503400Y-153891600D03*
G04 #@! TD*
D28*
G04 #@! TO.C,J11*
X116528400Y-152341600D03*
X116528400Y-158441600D03*
D29*
X114003400Y-156891600D03*
X114003400Y-155891600D03*
X114003400Y-154891600D03*
X114003400Y-153891600D03*
G04 #@! TD*
D28*
G04 #@! TO.C,J11*
X79028400Y-152341600D03*
X79028400Y-158441600D03*
D29*
X76503400Y-156891600D03*
X76503400Y-155891600D03*
X76503400Y-154891600D03*
X76503400Y-153891600D03*
G04 #@! TD*
D28*
G04 #@! TO.C,J11*
X154028400Y-78841600D03*
X154028400Y-84941600D03*
D29*
X151503400Y-83391600D03*
X151503400Y-82391600D03*
X151503400Y-81391600D03*
X151503400Y-80391600D03*
G04 #@! TD*
D28*
G04 #@! TO.C,J11*
X116528400Y-78841600D03*
X116528400Y-84941600D03*
D29*
X114003400Y-83391600D03*
X114003400Y-82391600D03*
X114003400Y-81391600D03*
X114003400Y-80391600D03*
G04 #@! TD*
D30*
G04 #@! TO.C,U2*
X168170000Y-205760000D03*
D31*
X166670000Y-202910000D03*
D32*
X168170000Y-203410000D03*
D31*
X169670000Y-202910000D03*
G04 #@! TD*
D30*
G04 #@! TO.C,U2*
X130670000Y-205760000D03*
D31*
X129170000Y-202910000D03*
D32*
X130670000Y-203410000D03*
D31*
X132170000Y-202910000D03*
G04 #@! TD*
D30*
G04 #@! TO.C,U2*
X93170000Y-205760000D03*
D31*
X91670000Y-202910000D03*
D32*
X93170000Y-203410000D03*
D31*
X94670000Y-202910000D03*
G04 #@! TD*
D30*
G04 #@! TO.C,U2*
X168170000Y-132260000D03*
D31*
X166670000Y-129410000D03*
D32*
X168170000Y-129910000D03*
D31*
X169670000Y-129410000D03*
G04 #@! TD*
D30*
G04 #@! TO.C,U2*
X130670000Y-132260000D03*
D31*
X129170000Y-129410000D03*
D32*
X130670000Y-129910000D03*
D31*
X132170000Y-129410000D03*
G04 #@! TD*
D30*
G04 #@! TO.C,U2*
X93170000Y-132260000D03*
D31*
X91670000Y-129410000D03*
D32*
X93170000Y-129910000D03*
D31*
X94670000Y-129410000D03*
G04 #@! TD*
D30*
G04 #@! TO.C,U2*
X168170000Y-58760000D03*
D31*
X166670000Y-55910000D03*
D32*
X168170000Y-56410000D03*
D31*
X169670000Y-55910000D03*
G04 #@! TD*
D30*
G04 #@! TO.C,U2*
X130670000Y-58760000D03*
D31*
X129170000Y-55910000D03*
D32*
X130670000Y-56410000D03*
D31*
X132170000Y-55910000D03*
G04 #@! TD*
D16*
G04 #@! TO.C,R7*
X174202500Y-215924000D03*
X174202500Y-214224000D03*
G04 #@! TD*
G04 #@! TO.C,R7*
X136702500Y-215924000D03*
X136702500Y-214224000D03*
G04 #@! TD*
G04 #@! TO.C,R7*
X99202500Y-215924000D03*
X99202500Y-214224000D03*
G04 #@! TD*
G04 #@! TO.C,R7*
X174202500Y-142424000D03*
X174202500Y-140724000D03*
G04 #@! TD*
G04 #@! TO.C,R7*
X136702500Y-142424000D03*
X136702500Y-140724000D03*
G04 #@! TD*
G04 #@! TO.C,R7*
X99202500Y-142424000D03*
X99202500Y-140724000D03*
G04 #@! TD*
G04 #@! TO.C,R7*
X174202500Y-68924000D03*
X174202500Y-67224000D03*
G04 #@! TD*
G04 #@! TO.C,R7*
X136702500Y-68924000D03*
X136702500Y-67224000D03*
G04 #@! TD*
D13*
G04 #@! TO.C,J6*
X160603800Y-232667400D03*
X160603800Y-225217400D03*
D14*
X157253800Y-230817400D03*
X157253800Y-229567400D03*
X157253800Y-228317400D03*
X157253800Y-227067400D03*
G04 #@! TD*
D13*
G04 #@! TO.C,J6*
X123103800Y-232667400D03*
X123103800Y-225217400D03*
D14*
X119753800Y-230817400D03*
X119753800Y-229567400D03*
X119753800Y-228317400D03*
X119753800Y-227067400D03*
G04 #@! TD*
D13*
G04 #@! TO.C,J6*
X85603800Y-232667400D03*
X85603800Y-225217400D03*
D14*
X82253800Y-230817400D03*
X82253800Y-229567400D03*
X82253800Y-228317400D03*
X82253800Y-227067400D03*
G04 #@! TD*
D13*
G04 #@! TO.C,J6*
X160603800Y-159167400D03*
X160603800Y-151717400D03*
D14*
X157253800Y-157317400D03*
X157253800Y-156067400D03*
X157253800Y-154817400D03*
X157253800Y-153567400D03*
G04 #@! TD*
D13*
G04 #@! TO.C,J6*
X123103800Y-159167400D03*
X123103800Y-151717400D03*
D14*
X119753800Y-157317400D03*
X119753800Y-156067400D03*
X119753800Y-154817400D03*
X119753800Y-153567400D03*
G04 #@! TD*
D13*
G04 #@! TO.C,J6*
X85603800Y-159167400D03*
X85603800Y-151717400D03*
D14*
X82253800Y-157317400D03*
X82253800Y-156067400D03*
X82253800Y-154817400D03*
X82253800Y-153567400D03*
G04 #@! TD*
D13*
G04 #@! TO.C,J6*
X160603800Y-85667400D03*
X160603800Y-78217400D03*
D14*
X157253800Y-83817400D03*
X157253800Y-82567400D03*
X157253800Y-81317400D03*
X157253800Y-80067400D03*
G04 #@! TD*
D13*
G04 #@! TO.C,J6*
X123103800Y-85667400D03*
X123103800Y-78217400D03*
D14*
X119753800Y-83817400D03*
X119753800Y-82567400D03*
X119753800Y-81317400D03*
X119753800Y-80067400D03*
G04 #@! TD*
D15*
G04 #@! TO.C,U3*
X97538800Y-71637600D03*
X96268800Y-71637600D03*
X94998800Y-71637600D03*
X93728800Y-71637600D03*
X93728800Y-66237600D03*
X94998800Y-66237600D03*
X96268800Y-66237600D03*
X97538800Y-66237600D03*
G04 #@! TD*
D14*
G04 #@! TO.C,J10*
X82527400Y-25986200D03*
X82527400Y-27236200D03*
X82527400Y-28486200D03*
X82527400Y-29736200D03*
X82527400Y-30986200D03*
D13*
X85877400Y-24136200D03*
X85877400Y-32836200D03*
G04 #@! TD*
D14*
G04 #@! TO.C,J9*
X74964000Y-25975400D03*
X74964000Y-27225400D03*
X74964000Y-28475400D03*
X74964000Y-29725400D03*
X74964000Y-30975400D03*
D13*
X78314000Y-24125400D03*
X78314000Y-32825400D03*
G04 #@! TD*
D12*
G04 #@! TO.C,J2*
X100110300Y-36336700D03*
X96110300Y-36336700D03*
X100110300Y-35066700D03*
X96110300Y-35066700D03*
X100110300Y-33796700D03*
X96110300Y-33796700D03*
X100110300Y-32526700D03*
X96110300Y-32526700D03*
X100110300Y-31256700D03*
X96110300Y-31256700D03*
G04 #@! TD*
D11*
G04 #@! TO.C,SW1*
X104539800Y-34988600D03*
X104539800Y-40148600D03*
X106539800Y-40148600D03*
X106539800Y-34988600D03*
G04 #@! TD*
D16*
G04 #@! TO.C,C1*
X81638400Y-40310900D03*
X81638400Y-38610900D03*
G04 #@! TD*
G04 #@! TO.C,C2*
X83391900Y-40310900D03*
X83391900Y-38610900D03*
G04 #@! TD*
D18*
G04 #@! TO.C,C3*
X88012000Y-35054000D03*
X86312000Y-35054000D03*
G04 #@! TD*
G04 #@! TO.C,C4*
X89692000Y-35054000D03*
X91392000Y-35054000D03*
G04 #@! TD*
D16*
G04 #@! TO.C,C5*
X94655900Y-40526800D03*
X94655900Y-38826800D03*
G04 #@! TD*
G04 #@! TO.C,C6*
X96306900Y-40526800D03*
X96306900Y-38826800D03*
G04 #@! TD*
G04 #@! TO.C,C7*
X79860400Y-40310900D03*
X79860400Y-38610900D03*
G04 #@! TD*
D18*
G04 #@! TO.C,C8*
X83860000Y-50357500D03*
X82160000Y-50357500D03*
G04 #@! TD*
G04 #@! TO.C,C9*
X95622000Y-48516000D03*
X97322000Y-48516000D03*
G04 #@! TD*
G04 #@! TO.C,C12*
X96892000Y-61597000D03*
X98592000Y-61597000D03*
G04 #@! TD*
D16*
G04 #@! TO.C,C13*
X106060500Y-60302500D03*
X106060500Y-62002500D03*
G04 #@! TD*
G04 #@! TO.C,C14*
X96472000Y-76749000D03*
X96472000Y-78449000D03*
G04 #@! TD*
G04 #@! TO.C,C17*
X93170000Y-76710000D03*
X93170000Y-78410000D03*
G04 #@! TD*
G04 #@! TO.C,C18*
X94757500Y-76710000D03*
X94757500Y-78410000D03*
G04 #@! TD*
D18*
G04 #@! TO.C,C19*
X106021500Y-45468000D03*
X104321500Y-45468000D03*
G04 #@! TD*
D16*
G04 #@! TO.C,C20*
X99583500Y-70653000D03*
X99583500Y-72353000D03*
G04 #@! TD*
D27*
G04 #@! TO.C,F1*
X100536000Y-60030000D03*
X100536000Y-57830000D03*
G04 #@! TD*
D16*
G04 #@! TO.C,L1*
X78082400Y-40310900D03*
X78082400Y-38610900D03*
G04 #@! TD*
D18*
G04 #@! TO.C,L2*
X96892000Y-59946000D03*
X98592000Y-59946000D03*
G04 #@! TD*
G04 #@! TO.C,R2*
X104334200Y-43867800D03*
X106034200Y-43867800D03*
G04 #@! TD*
G04 #@! TO.C,R3*
X104334200Y-42166000D03*
X106034200Y-42166000D03*
G04 #@! TD*
G04 #@! TO.C,R8*
X95304500Y-63184500D03*
X97004500Y-63184500D03*
G04 #@! TD*
D16*
G04 #@! TO.C,R9*
X92027000Y-68860500D03*
X92027000Y-67160500D03*
G04 #@! TD*
D18*
G04 #@! TO.C,R10*
X93741500Y-64073500D03*
X92041500Y-64073500D03*
G04 #@! TD*
D16*
G04 #@! TO.C,R11*
X99647000Y-76749000D03*
X99647000Y-78449000D03*
G04 #@! TD*
G04 #@! TO.C,R12*
X91582500Y-76749000D03*
X91582500Y-78449000D03*
G04 #@! TD*
D18*
G04 #@! TO.C,R13*
X81066000Y-35054000D03*
X79366000Y-35054000D03*
G04 #@! TD*
G04 #@! TO.C,R14*
X82922000Y-35054000D03*
X84622000Y-35054000D03*
G04 #@! TD*
G04 #@! TO.C,R15*
X89526000Y-74678000D03*
X91226000Y-74678000D03*
G04 #@! TD*
D23*
G04 #@! TO.C,U1*
X87714029Y-41151942D03*
D24*
G36*
X87220822Y-40817834D02*
X87379921Y-40658735D01*
X88207236Y-41486050D01*
X88048137Y-41645149D01*
X87220822Y-40817834D01*
X87220822Y-40817834D01*
G37*
D23*
X87360476Y-41505495D03*
D24*
G36*
X86867269Y-41171387D02*
X87026368Y-41012288D01*
X87853683Y-41839603D01*
X87694584Y-41998702D01*
X86867269Y-41171387D01*
X86867269Y-41171387D01*
G37*
D23*
X87006922Y-41859049D03*
D24*
G36*
X86513715Y-41524941D02*
X86672814Y-41365842D01*
X87500129Y-42193157D01*
X87341030Y-42352256D01*
X86513715Y-41524941D01*
X86513715Y-41524941D01*
G37*
D23*
X86653369Y-42212602D03*
D24*
G36*
X86160162Y-41878494D02*
X86319261Y-41719395D01*
X87146576Y-42546710D01*
X86987477Y-42705809D01*
X86160162Y-41878494D01*
X86160162Y-41878494D01*
G37*
D23*
X86299816Y-42566155D03*
D24*
G36*
X85806609Y-42232047D02*
X85965708Y-42072948D01*
X86793023Y-42900263D01*
X86633924Y-43059362D01*
X85806609Y-42232047D01*
X85806609Y-42232047D01*
G37*
D23*
X85946262Y-42919709D03*
D24*
G36*
X85453055Y-42585601D02*
X85612154Y-42426502D01*
X86439469Y-43253817D01*
X86280370Y-43412916D01*
X85453055Y-42585601D01*
X85453055Y-42585601D01*
G37*
D23*
X85592709Y-43273262D03*
D24*
G36*
X85099502Y-42939154D02*
X85258601Y-42780055D01*
X86085916Y-43607370D01*
X85926817Y-43766469D01*
X85099502Y-42939154D01*
X85099502Y-42939154D01*
G37*
D23*
X85239155Y-43626816D03*
D24*
G36*
X84745948Y-43292708D02*
X84905047Y-43133609D01*
X85732362Y-43960924D01*
X85573263Y-44120023D01*
X84745948Y-43292708D01*
X84745948Y-43292708D01*
G37*
D23*
X84885602Y-43980369D03*
D24*
G36*
X84392395Y-43646261D02*
X84551494Y-43487162D01*
X85378809Y-44314477D01*
X85219710Y-44473576D01*
X84392395Y-43646261D01*
X84392395Y-43646261D01*
G37*
D23*
X84532049Y-44333922D03*
D24*
G36*
X84038842Y-43999814D02*
X84197941Y-43840715D01*
X85025256Y-44668030D01*
X84866157Y-44827129D01*
X84038842Y-43999814D01*
X84038842Y-43999814D01*
G37*
D23*
X84178495Y-44687476D03*
D24*
G36*
X83685288Y-44353368D02*
X83844387Y-44194269D01*
X84671702Y-45021584D01*
X84512603Y-45180683D01*
X83685288Y-44353368D01*
X83685288Y-44353368D01*
G37*
D23*
X83824942Y-45041029D03*
D24*
G36*
X83331735Y-44706921D02*
X83490834Y-44547822D01*
X84318149Y-45375137D01*
X84159050Y-45534236D01*
X83331735Y-44706921D01*
X83331735Y-44706921D01*
G37*
D23*
X83824942Y-47303771D03*
D24*
G36*
X83490834Y-47796978D02*
X83331735Y-47637879D01*
X84159050Y-46810564D01*
X84318149Y-46969663D01*
X83490834Y-47796978D01*
X83490834Y-47796978D01*
G37*
D23*
X84178495Y-47657324D03*
D24*
G36*
X83844387Y-48150531D02*
X83685288Y-47991432D01*
X84512603Y-47164117D01*
X84671702Y-47323216D01*
X83844387Y-48150531D01*
X83844387Y-48150531D01*
G37*
D23*
X84532049Y-48010878D03*
D24*
G36*
X84197941Y-48504085D02*
X84038842Y-48344986D01*
X84866157Y-47517671D01*
X85025256Y-47676770D01*
X84197941Y-48504085D01*
X84197941Y-48504085D01*
G37*
D23*
X84885602Y-48364431D03*
D24*
G36*
X84551494Y-48857638D02*
X84392395Y-48698539D01*
X85219710Y-47871224D01*
X85378809Y-48030323D01*
X84551494Y-48857638D01*
X84551494Y-48857638D01*
G37*
D23*
X85239155Y-48717984D03*
D24*
G36*
X84905047Y-49211191D02*
X84745948Y-49052092D01*
X85573263Y-48224777D01*
X85732362Y-48383876D01*
X84905047Y-49211191D01*
X84905047Y-49211191D01*
G37*
D23*
X85592709Y-49071538D03*
D24*
G36*
X85258601Y-49564745D02*
X85099502Y-49405646D01*
X85926817Y-48578331D01*
X86085916Y-48737430D01*
X85258601Y-49564745D01*
X85258601Y-49564745D01*
G37*
D23*
X85946262Y-49425091D03*
D24*
G36*
X85612154Y-49918298D02*
X85453055Y-49759199D01*
X86280370Y-48931884D01*
X86439469Y-49090983D01*
X85612154Y-49918298D01*
X85612154Y-49918298D01*
G37*
D23*
X86299816Y-49778645D03*
D24*
G36*
X85965708Y-50271852D02*
X85806609Y-50112753D01*
X86633924Y-49285438D01*
X86793023Y-49444537D01*
X85965708Y-50271852D01*
X85965708Y-50271852D01*
G37*
D23*
X86653369Y-50132198D03*
D24*
G36*
X86319261Y-50625405D02*
X86160162Y-50466306D01*
X86987477Y-49638991D01*
X87146576Y-49798090D01*
X86319261Y-50625405D01*
X86319261Y-50625405D01*
G37*
D23*
X87006922Y-50485751D03*
D24*
G36*
X86672814Y-50978958D02*
X86513715Y-50819859D01*
X87341030Y-49992544D01*
X87500129Y-50151643D01*
X86672814Y-50978958D01*
X86672814Y-50978958D01*
G37*
D23*
X87360476Y-50839305D03*
D24*
G36*
X87026368Y-51332512D02*
X86867269Y-51173413D01*
X87694584Y-50346098D01*
X87853683Y-50505197D01*
X87026368Y-51332512D01*
X87026368Y-51332512D01*
G37*
D23*
X87714029Y-51192858D03*
D24*
G36*
X87379921Y-51686065D02*
X87220822Y-51526966D01*
X88048137Y-50699651D01*
X88207236Y-50858750D01*
X87379921Y-51686065D01*
X87379921Y-51686065D01*
G37*
D23*
X89976771Y-51192858D03*
D24*
G36*
X89483564Y-50858750D02*
X89642663Y-50699651D01*
X90469978Y-51526966D01*
X90310879Y-51686065D01*
X89483564Y-50858750D01*
X89483564Y-50858750D01*
G37*
D23*
X90330324Y-50839305D03*
D24*
G36*
X89837117Y-50505197D02*
X89996216Y-50346098D01*
X90823531Y-51173413D01*
X90664432Y-51332512D01*
X89837117Y-50505197D01*
X89837117Y-50505197D01*
G37*
D23*
X90683878Y-50485751D03*
D24*
G36*
X90190671Y-50151643D02*
X90349770Y-49992544D01*
X91177085Y-50819859D01*
X91017986Y-50978958D01*
X90190671Y-50151643D01*
X90190671Y-50151643D01*
G37*
D23*
X91037431Y-50132198D03*
D24*
G36*
X90544224Y-49798090D02*
X90703323Y-49638991D01*
X91530638Y-50466306D01*
X91371539Y-50625405D01*
X90544224Y-49798090D01*
X90544224Y-49798090D01*
G37*
D23*
X91390984Y-49778645D03*
D24*
G36*
X90897777Y-49444537D02*
X91056876Y-49285438D01*
X91884191Y-50112753D01*
X91725092Y-50271852D01*
X90897777Y-49444537D01*
X90897777Y-49444537D01*
G37*
D23*
X91744538Y-49425091D03*
D24*
G36*
X91251331Y-49090983D02*
X91410430Y-48931884D01*
X92237745Y-49759199D01*
X92078646Y-49918298D01*
X91251331Y-49090983D01*
X91251331Y-49090983D01*
G37*
D23*
X92098091Y-49071538D03*
D24*
G36*
X91604884Y-48737430D02*
X91763983Y-48578331D01*
X92591298Y-49405646D01*
X92432199Y-49564745D01*
X91604884Y-48737430D01*
X91604884Y-48737430D01*
G37*
D23*
X92451645Y-48717984D03*
D24*
G36*
X91958438Y-48383876D02*
X92117537Y-48224777D01*
X92944852Y-49052092D01*
X92785753Y-49211191D01*
X91958438Y-48383876D01*
X91958438Y-48383876D01*
G37*
D23*
X92805198Y-48364431D03*
D24*
G36*
X92311991Y-48030323D02*
X92471090Y-47871224D01*
X93298405Y-48698539D01*
X93139306Y-48857638D01*
X92311991Y-48030323D01*
X92311991Y-48030323D01*
G37*
D23*
X93158751Y-48010878D03*
D24*
G36*
X92665544Y-47676770D02*
X92824643Y-47517671D01*
X93651958Y-48344986D01*
X93492859Y-48504085D01*
X92665544Y-47676770D01*
X92665544Y-47676770D01*
G37*
D23*
X93512305Y-47657324D03*
D24*
G36*
X93019098Y-47323216D02*
X93178197Y-47164117D01*
X94005512Y-47991432D01*
X93846413Y-48150531D01*
X93019098Y-47323216D01*
X93019098Y-47323216D01*
G37*
D23*
X93865858Y-47303771D03*
D24*
G36*
X93372651Y-46969663D02*
X93531750Y-46810564D01*
X94359065Y-47637879D01*
X94199966Y-47796978D01*
X93372651Y-46969663D01*
X93372651Y-46969663D01*
G37*
D23*
X93865858Y-45041029D03*
D24*
G36*
X93531750Y-45534236D02*
X93372651Y-45375137D01*
X94199966Y-44547822D01*
X94359065Y-44706921D01*
X93531750Y-45534236D01*
X93531750Y-45534236D01*
G37*
D23*
X93512305Y-44687476D03*
D24*
G36*
X93178197Y-45180683D02*
X93019098Y-45021584D01*
X93846413Y-44194269D01*
X94005512Y-44353368D01*
X93178197Y-45180683D01*
X93178197Y-45180683D01*
G37*
D23*
X93158751Y-44333922D03*
D24*
G36*
X92824643Y-44827129D02*
X92665544Y-44668030D01*
X93492859Y-43840715D01*
X93651958Y-43999814D01*
X92824643Y-44827129D01*
X92824643Y-44827129D01*
G37*
D23*
X92805198Y-43980369D03*
D24*
G36*
X92471090Y-44473576D02*
X92311991Y-44314477D01*
X93139306Y-43487162D01*
X93298405Y-43646261D01*
X92471090Y-44473576D01*
X92471090Y-44473576D01*
G37*
D23*
X92451645Y-43626816D03*
D24*
G36*
X92117537Y-44120023D02*
X91958438Y-43960924D01*
X92785753Y-43133609D01*
X92944852Y-43292708D01*
X92117537Y-44120023D01*
X92117537Y-44120023D01*
G37*
D23*
X92098091Y-43273262D03*
D24*
G36*
X91763983Y-43766469D02*
X91604884Y-43607370D01*
X92432199Y-42780055D01*
X92591298Y-42939154D01*
X91763983Y-43766469D01*
X91763983Y-43766469D01*
G37*
D23*
X91744538Y-42919709D03*
D24*
G36*
X91410430Y-43412916D02*
X91251331Y-43253817D01*
X92078646Y-42426502D01*
X92237745Y-42585601D01*
X91410430Y-43412916D01*
X91410430Y-43412916D01*
G37*
D23*
X91390984Y-42566155D03*
D24*
G36*
X91056876Y-43059362D02*
X90897777Y-42900263D01*
X91725092Y-42072948D01*
X91884191Y-42232047D01*
X91056876Y-43059362D01*
X91056876Y-43059362D01*
G37*
D23*
X91037431Y-42212602D03*
D24*
G36*
X90703323Y-42705809D02*
X90544224Y-42546710D01*
X91371539Y-41719395D01*
X91530638Y-41878494D01*
X90703323Y-42705809D01*
X90703323Y-42705809D01*
G37*
D23*
X90683878Y-41859049D03*
D24*
G36*
X90349770Y-42352256D02*
X90190671Y-42193157D01*
X91017986Y-41365842D01*
X91177085Y-41524941D01*
X90349770Y-42352256D01*
X90349770Y-42352256D01*
G37*
D23*
X90330324Y-41505495D03*
D24*
G36*
X89996216Y-41998702D02*
X89837117Y-41839603D01*
X90664432Y-41012288D01*
X90823531Y-41171387D01*
X89996216Y-41998702D01*
X89996216Y-41998702D01*
G37*
D23*
X89976771Y-41151942D03*
D24*
G36*
X89642663Y-41645149D02*
X89483564Y-41486050D01*
X90310879Y-40658735D01*
X90469978Y-40817834D01*
X89642663Y-41645149D01*
X89642663Y-41645149D01*
G37*
G04 #@! TD*
D26*
G04 #@! TO.C,Y1*
X87622002Y-37086000D03*
X90122000Y-37086000D03*
G04 #@! TD*
D25*
G04 #@! TO.C,Q1*
X97574400Y-19095800D03*
X95674400Y-19095800D03*
X96624400Y-21395800D03*
G04 #@! TD*
D18*
G04 #@! TO.C,R1*
X92167600Y-21439600D03*
X93867600Y-21439600D03*
G04 #@! TD*
D22*
G04 #@! TO.C,U7*
X89854200Y-21718000D03*
X89854200Y-18418000D03*
X84954200Y-18418000D03*
X84954200Y-21718000D03*
G04 #@! TD*
D14*
G04 #@! TO.C,J1*
X75218000Y-60728000D03*
X75218000Y-61978000D03*
X75218000Y-63228000D03*
D13*
X78568000Y-58878000D03*
X78568000Y-65078000D03*
G04 #@! TD*
G04 #@! TO.C,J8*
X78568000Y-54918000D03*
X78568000Y-48718000D03*
D14*
X75218000Y-53068000D03*
X75218000Y-51818000D03*
X75218000Y-50568000D03*
G04 #@! TD*
D16*
G04 #@! TO.C,R4*
X104473000Y-60239000D03*
X104473000Y-61939000D03*
G04 #@! TD*
D19*
G04 #@! TO.C,U4*
X101171000Y-71986000D03*
X102441000Y-71986000D03*
X103711000Y-71986000D03*
X104981000Y-71986000D03*
X104981000Y-78386000D03*
X103711000Y-78386000D03*
X102441000Y-78386000D03*
X101171000Y-78386000D03*
G04 #@! TD*
D18*
G04 #@! TO.C,R5*
X96892000Y-44325000D03*
X98592000Y-44325000D03*
G04 #@! TD*
G04 #@! TO.C,R6*
X96892000Y-45912500D03*
X98592000Y-45912500D03*
G04 #@! TD*
G04 #@! TO.C,C10*
X98655500Y-58358500D03*
X96955500Y-58358500D03*
G04 #@! TD*
D16*
G04 #@! TO.C,C11*
X89614000Y-56365500D03*
X89614000Y-58065500D03*
G04 #@! TD*
D18*
G04 #@! TO.C,C15*
X99495500Y-65343500D03*
X101195500Y-65343500D03*
G04 #@! TD*
D16*
G04 #@! TO.C,C16*
X98059500Y-78449000D03*
X98059500Y-76749000D03*
G04 #@! TD*
D18*
G04 #@! TO.C,D1*
X93893000Y-19814000D03*
X92193000Y-19814000D03*
G04 #@! TD*
D21*
G04 #@! TO.C,D2*
X99508000Y-53850000D03*
D20*
X97808000Y-53850000D03*
X97808000Y-55850000D03*
X99708000Y-55850000D03*
G04 #@! TD*
D18*
G04 #@! TO.C,D3*
X103076000Y-47627000D03*
X104776000Y-47627000D03*
G04 #@! TD*
D17*
G04 #@! TO.C,J4*
X102954000Y-55912000D03*
X102954000Y-54612000D03*
X102954000Y-55262000D03*
X102954000Y-53962000D03*
X102954000Y-53312000D03*
G04 #@! TD*
D14*
G04 #@! TO.C,J6*
X82253800Y-80067400D03*
X82253800Y-81317400D03*
X82253800Y-82567400D03*
X82253800Y-83817400D03*
D13*
X85603800Y-78217400D03*
X85603800Y-85667400D03*
G04 #@! TD*
D29*
G04 #@! TO.C,J11*
X76503400Y-80391600D03*
X76503400Y-81391600D03*
X76503400Y-82391600D03*
X76503400Y-83391600D03*
D28*
X79028400Y-84941600D03*
X79028400Y-78841600D03*
G04 #@! TD*
D13*
G04 #@! TO.C,J12*
X78034600Y-75913800D03*
X78034600Y-68463800D03*
D14*
X74684600Y-74063800D03*
X74684600Y-72813800D03*
X74684600Y-71563800D03*
X74684600Y-70313800D03*
G04 #@! TD*
G04 #@! TO.C,J13*
X82279200Y-70313800D03*
X82279200Y-71563800D03*
X82279200Y-72813800D03*
X82279200Y-74063800D03*
D13*
X85629200Y-68463800D03*
X85629200Y-75913800D03*
G04 #@! TD*
D16*
G04 #@! TO.C,R7*
X99202500Y-67224000D03*
X99202500Y-68924000D03*
G04 #@! TD*
D18*
G04 #@! TO.C,R16*
X89526000Y-73154000D03*
X91226000Y-73154000D03*
G04 #@! TD*
G04 #@! TO.C,R17*
X103115000Y-49214500D03*
X104815000Y-49214500D03*
G04 #@! TD*
D31*
G04 #@! TO.C,U2*
X94670000Y-55910000D03*
D32*
X93170000Y-56410000D03*
D31*
X91670000Y-55910000D03*
D30*
X93170000Y-58760000D03*
G04 #@! TD*
M02*
