G04 #@! TF.GenerationSoftware,KiCad,Pcbnew,(5.0.0)*
G04 #@! TF.CreationDate,2019-01-02T15:44:26-06:00*
G04 #@! TF.ProjectId,fk-sonar-v0.07-03x03,666B2D736F6E61722D76302E30372D30,0.1*
G04 #@! TF.SameCoordinates,Original*
G04 #@! TF.FileFunction,Copper,L4,Bot,Signal*
G04 #@! TF.FilePolarity,Positive*
%FSLAX46Y46*%
G04 Gerber Fmt 4.6, Leading zero omitted, Abs format (unit mm)*
G04 Created by KiCad (PCBNEW (5.0.0)) date 01/02/19 15:44:26*
%MOMM*%
%LPD*%
G01*
G04 APERTURE LIST*
G04 #@! TA.AperFunction,NonConductor*
%ADD10C,0.300000*%
G04 #@! TD*
G04 #@! TA.AperFunction,BGAPad,CuDef*
%ADD11C,1.000000*%
G04 #@! TD*
G04 #@! TA.AperFunction,ComponentPad*
%ADD12O,1.100000X2.200000*%
G04 #@! TD*
G04 #@! TA.AperFunction,ComponentPad*
%ADD13O,1.100000X1.800000*%
G04 #@! TD*
G04 #@! TA.AperFunction,SMDPad,CuDef*
%ADD14R,1.400000X1.600000*%
G04 #@! TD*
G04 #@! TA.AperFunction,SMDPad,CuDef*
%ADD15R,1.350000X0.400000*%
G04 #@! TD*
G04 #@! TA.AperFunction,SMDPad,CuDef*
%ADD16R,1.400000X1.900000*%
G04 #@! TD*
G04 #@! TA.AperFunction,ComponentPad*
%ADD17O,1.600000X1.651000*%
G04 #@! TD*
G04 #@! TA.AperFunction,SMDPad,CuDef*
%ADD18R,1.600200X1.168400*%
G04 #@! TD*
G04 #@! TA.AperFunction,ViaPad*
%ADD19C,0.500000*%
G04 #@! TD*
G04 #@! TA.AperFunction,Conductor*
%ADD20C,0.508000*%
G04 #@! TD*
G04 #@! TA.AperFunction,Conductor*
%ADD21C,0.254000*%
G04 #@! TD*
G04 #@! TA.AperFunction,Conductor*
%ADD22C,0.203200*%
G04 #@! TD*
G04 APERTURE END LIST*
D10*
X188558542Y-139917971D02*
X188487114Y-139703685D01*
X188415685Y-139632257D01*
X188272828Y-139560828D01*
X188058542Y-139560828D01*
X187915685Y-139632257D01*
X187844257Y-139703685D01*
X187772828Y-139846542D01*
X187772828Y-140417971D01*
X189272828Y-140417971D01*
X189272828Y-139917971D01*
X189201400Y-139775114D01*
X189129971Y-139703685D01*
X188987114Y-139632257D01*
X188844257Y-139632257D01*
X188701400Y-139703685D01*
X188629971Y-139775114D01*
X188558542Y-139917971D01*
X188558542Y-140417971D01*
X187772828Y-138275114D02*
X188558542Y-138275114D01*
X188701400Y-138346542D01*
X188772828Y-138489400D01*
X188772828Y-138775114D01*
X188701400Y-138917971D01*
X187844257Y-138275114D02*
X187772828Y-138417971D01*
X187772828Y-138775114D01*
X187844257Y-138917971D01*
X187987114Y-138989400D01*
X188129971Y-138989400D01*
X188272828Y-138917971D01*
X188344257Y-138775114D01*
X188344257Y-138417971D01*
X188415685Y-138275114D01*
X188772828Y-137775114D02*
X188772828Y-137203685D01*
X189272828Y-137560828D02*
X187987114Y-137560828D01*
X187844257Y-137489400D01*
X187772828Y-137346542D01*
X187772828Y-137203685D01*
X187844257Y-136060828D02*
X187772828Y-136203685D01*
X187772828Y-136489400D01*
X187844257Y-136632257D01*
X187915685Y-136703685D01*
X188058542Y-136775114D01*
X188487114Y-136775114D01*
X188629971Y-136703685D01*
X188701400Y-136632257D01*
X188772828Y-136489400D01*
X188772828Y-136203685D01*
X188701400Y-136060828D01*
X187772828Y-135417971D02*
X189272828Y-135417971D01*
X187772828Y-134775114D02*
X188558542Y-134775114D01*
X188701400Y-134846542D01*
X188772828Y-134989400D01*
X188772828Y-135203685D01*
X188701400Y-135346542D01*
X188629971Y-135417971D01*
X187772828Y-132132257D02*
X187772828Y-132989400D01*
X187772828Y-132560828D02*
X189272828Y-132560828D01*
X189058542Y-132703685D01*
X188915685Y-132846542D01*
X188844257Y-132989400D01*
X188344257Y-130346542D02*
X188344257Y-129203685D01*
X189272828Y-126917971D02*
X188201400Y-126917971D01*
X187987114Y-126989400D01*
X187844257Y-127132257D01*
X187772828Y-127346542D01*
X187772828Y-127489400D01*
X187772828Y-125560828D02*
X188558542Y-125560828D01*
X188701400Y-125632257D01*
X188772828Y-125775114D01*
X188772828Y-126060828D01*
X188701400Y-126203685D01*
X187844257Y-125560828D02*
X187772828Y-125703685D01*
X187772828Y-126060828D01*
X187844257Y-126203685D01*
X187987114Y-126275114D01*
X188129971Y-126275114D01*
X188272828Y-126203685D01*
X188344257Y-126060828D01*
X188344257Y-125703685D01*
X188415685Y-125560828D01*
X188772828Y-124846542D02*
X187772828Y-124846542D01*
X188629971Y-124846542D02*
X188701400Y-124775114D01*
X188772828Y-124632257D01*
X188772828Y-124417971D01*
X188701400Y-124275114D01*
X188558542Y-124203685D01*
X187772828Y-124203685D01*
X188772828Y-122846542D02*
X187772828Y-122846542D01*
X188772828Y-123489400D02*
X187987114Y-123489400D01*
X187844257Y-123417971D01*
X187772828Y-123275114D01*
X187772828Y-123060828D01*
X187844257Y-122917971D01*
X187915685Y-122846542D01*
X187772828Y-121489400D02*
X188558542Y-121489400D01*
X188701400Y-121560828D01*
X188772828Y-121703685D01*
X188772828Y-121989400D01*
X188701400Y-122132257D01*
X187844257Y-121489400D02*
X187772828Y-121632257D01*
X187772828Y-121989400D01*
X187844257Y-122132257D01*
X187987114Y-122203685D01*
X188129971Y-122203685D01*
X188272828Y-122132257D01*
X188344257Y-121989400D01*
X188344257Y-121632257D01*
X188415685Y-121489400D01*
X187772828Y-120775114D02*
X188772828Y-120775114D01*
X188487114Y-120775114D02*
X188629971Y-120703685D01*
X188701400Y-120632257D01*
X188772828Y-120489400D01*
X188772828Y-120346542D01*
X188772828Y-119989400D02*
X187772828Y-119632257D01*
X188772828Y-119275114D02*
X187772828Y-119632257D01*
X187415685Y-119775114D01*
X187344257Y-119846542D01*
X187272828Y-119989400D01*
X189129971Y-117632257D02*
X189201400Y-117560828D01*
X189272828Y-117417971D01*
X189272828Y-117060828D01*
X189201400Y-116917971D01*
X189129971Y-116846542D01*
X188987114Y-116775114D01*
X188844257Y-116775114D01*
X188629971Y-116846542D01*
X187772828Y-117703685D01*
X187772828Y-116775114D01*
X189272828Y-115846542D02*
X189272828Y-115703685D01*
X189201400Y-115560828D01*
X189129971Y-115489400D01*
X188987114Y-115417971D01*
X188701400Y-115346542D01*
X188344257Y-115346542D01*
X188058542Y-115417971D01*
X187915685Y-115489400D01*
X187844257Y-115560828D01*
X187772828Y-115703685D01*
X187772828Y-115846542D01*
X187844257Y-115989400D01*
X187915685Y-116060828D01*
X188058542Y-116132257D01*
X188344257Y-116203685D01*
X188701400Y-116203685D01*
X188987114Y-116132257D01*
X189129971Y-116060828D01*
X189201400Y-115989400D01*
X189272828Y-115846542D01*
X187772828Y-113917971D02*
X187772828Y-114775114D01*
X187772828Y-114346542D02*
X189272828Y-114346542D01*
X189058542Y-114489400D01*
X188915685Y-114632257D01*
X188844257Y-114775114D01*
X187772828Y-113203685D02*
X187772828Y-112917971D01*
X187844257Y-112775114D01*
X187915685Y-112703685D01*
X188129971Y-112560828D01*
X188415685Y-112489400D01*
X188987114Y-112489400D01*
X189129971Y-112560828D01*
X189201400Y-112632257D01*
X189272828Y-112775114D01*
X189272828Y-113060828D01*
X189201400Y-113203685D01*
X189129971Y-113275114D01*
X188987114Y-113346542D01*
X188629971Y-113346542D01*
X188487114Y-113275114D01*
X188415685Y-113203685D01*
X188344257Y-113060828D01*
X188344257Y-112775114D01*
X188415685Y-112632257D01*
X188487114Y-112560828D01*
X188629971Y-112489400D01*
X66778571Y-118917971D02*
X66778571Y-119489400D01*
X67778571Y-119132257D02*
X66492857Y-119132257D01*
X66350000Y-119203685D01*
X66278571Y-119346542D01*
X66278571Y-119489400D01*
X67778571Y-119989400D02*
X66278571Y-119989400D01*
X67207142Y-120132257D02*
X67778571Y-120560828D01*
X66778571Y-120560828D02*
X67350000Y-119989400D01*
X67207142Y-121203685D02*
X67207142Y-122346542D01*
X67707142Y-122989400D02*
X67778571Y-123132257D01*
X67778571Y-123417971D01*
X67707142Y-123560828D01*
X67564285Y-123632257D01*
X67492857Y-123632257D01*
X67350000Y-123560828D01*
X67278571Y-123417971D01*
X67278571Y-123203685D01*
X67207142Y-123060828D01*
X67064285Y-122989400D01*
X66992857Y-122989400D01*
X66850000Y-123060828D01*
X66778571Y-123203685D01*
X66778571Y-123417971D01*
X66850000Y-123560828D01*
X67778571Y-124489400D02*
X67707142Y-124346542D01*
X67635714Y-124275114D01*
X67492857Y-124203685D01*
X67064285Y-124203685D01*
X66921428Y-124275114D01*
X66850000Y-124346542D01*
X66778571Y-124489400D01*
X66778571Y-124703685D01*
X66850000Y-124846542D01*
X66921428Y-124917971D01*
X67064285Y-124989400D01*
X67492857Y-124989400D01*
X67635714Y-124917971D01*
X67707142Y-124846542D01*
X67778571Y-124703685D01*
X67778571Y-124489400D01*
X66778571Y-125632257D02*
X67778571Y-125632257D01*
X66921428Y-125632257D02*
X66850000Y-125703685D01*
X66778571Y-125846542D01*
X66778571Y-126060828D01*
X66850000Y-126203685D01*
X66992857Y-126275114D01*
X67778571Y-126275114D01*
X67778571Y-127632257D02*
X66992857Y-127632257D01*
X66850000Y-127560828D01*
X66778571Y-127417971D01*
X66778571Y-127132257D01*
X66850000Y-126989400D01*
X67707142Y-127632257D02*
X67778571Y-127489400D01*
X67778571Y-127132257D01*
X67707142Y-126989400D01*
X67564285Y-126917971D01*
X67421428Y-126917971D01*
X67278571Y-126989400D01*
X67207142Y-127132257D01*
X67207142Y-127489400D01*
X67135714Y-127632257D01*
X67778571Y-128346542D02*
X66778571Y-128346542D01*
X67064285Y-128346542D02*
X66921428Y-128417971D01*
X66850000Y-128489400D01*
X66778571Y-128632257D01*
X66778571Y-128775114D01*
X66778571Y-130275114D02*
X67778571Y-130632257D01*
X66778571Y-130989400D01*
X66278571Y-131846542D02*
X66278571Y-131989400D01*
X66350000Y-132132257D01*
X66421428Y-132203685D01*
X66564285Y-132275114D01*
X66850000Y-132346542D01*
X67207142Y-132346542D01*
X67492857Y-132275114D01*
X67635714Y-132203685D01*
X67707142Y-132132257D01*
X67778571Y-131989400D01*
X67778571Y-131846542D01*
X67707142Y-131703685D01*
X67635714Y-131632257D01*
X67492857Y-131560828D01*
X67207142Y-131489400D01*
X66850000Y-131489400D01*
X66564285Y-131560828D01*
X66421428Y-131632257D01*
X66350000Y-131703685D01*
X66278571Y-131846542D01*
X67635714Y-132989400D02*
X67707142Y-133060828D01*
X67778571Y-132989400D01*
X67707142Y-132917971D01*
X67635714Y-132989400D01*
X67778571Y-132989400D01*
X66278571Y-133989400D02*
X66278571Y-134132257D01*
X66350000Y-134275114D01*
X66421428Y-134346542D01*
X66564285Y-134417971D01*
X66850000Y-134489400D01*
X67207142Y-134489400D01*
X67492857Y-134417971D01*
X67635714Y-134346542D01*
X67707142Y-134275114D01*
X67778571Y-134132257D01*
X67778571Y-133989400D01*
X67707142Y-133846542D01*
X67635714Y-133775114D01*
X67492857Y-133703685D01*
X67207142Y-133632257D01*
X66850000Y-133632257D01*
X66564285Y-133703685D01*
X66421428Y-133775114D01*
X66350000Y-133846542D01*
X66278571Y-133989400D01*
X66278571Y-134989400D02*
X66278571Y-135989400D01*
X67778571Y-135346542D01*
D11*
G04 #@! TO.P,REF\002A\002A,~*
G04 #@! TO.N,N/C*
X72100000Y-240520000D03*
G04 #@! TD*
G04 #@! TO.P,REF\002A\002A,~*
G04 #@! TO.N,N/C*
X183451400Y-10989400D03*
G04 #@! TD*
G04 #@! TO.P,REF\002A\002A,~*
G04 #@! TO.N,N/C*
X67100000Y-15989400D03*
G04 #@! TD*
D12*
G04 #@! TO.P,J4,8*
G04 #@! TO.N,Net-(J4-Pad8)*
X179854000Y-201612000D03*
D13*
G04 #@! TO.P,J4,7*
G04 #@! TO.N,Net-(J4-Pad7)*
X177704000Y-198812000D03*
G04 #@! TO.P,J4,6*
G04 #@! TO.N,Net-(C13-Pad1)*
X177704000Y-204412000D03*
G04 #@! TD*
D12*
G04 #@! TO.P,J4,8*
G04 #@! TO.N,Net-(J4-Pad8)*
X142354000Y-201612000D03*
D13*
G04 #@! TO.P,J4,7*
G04 #@! TO.N,Net-(J4-Pad7)*
X140204000Y-198812000D03*
G04 #@! TO.P,J4,6*
G04 #@! TO.N,Net-(C13-Pad1)*
X140204000Y-204412000D03*
G04 #@! TD*
D12*
G04 #@! TO.P,J4,8*
G04 #@! TO.N,Net-(J4-Pad8)*
X104854000Y-201612000D03*
D13*
G04 #@! TO.P,J4,7*
G04 #@! TO.N,Net-(J4-Pad7)*
X102704000Y-198812000D03*
G04 #@! TO.P,J4,6*
G04 #@! TO.N,Net-(C13-Pad1)*
X102704000Y-204412000D03*
G04 #@! TD*
D12*
G04 #@! TO.P,J4,8*
G04 #@! TO.N,Net-(J4-Pad8)*
X179854000Y-128112000D03*
D13*
G04 #@! TO.P,J4,7*
G04 #@! TO.N,Net-(J4-Pad7)*
X177704000Y-125312000D03*
G04 #@! TO.P,J4,6*
G04 #@! TO.N,Net-(C13-Pad1)*
X177704000Y-130912000D03*
G04 #@! TD*
D12*
G04 #@! TO.P,J4,8*
G04 #@! TO.N,Net-(J4-Pad8)*
X142354000Y-128112000D03*
D13*
G04 #@! TO.P,J4,7*
G04 #@! TO.N,Net-(J4-Pad7)*
X140204000Y-125312000D03*
G04 #@! TO.P,J4,6*
G04 #@! TO.N,Net-(C13-Pad1)*
X140204000Y-130912000D03*
G04 #@! TD*
D12*
G04 #@! TO.P,J4,8*
G04 #@! TO.N,Net-(J4-Pad8)*
X104854000Y-128112000D03*
D13*
G04 #@! TO.P,J4,7*
G04 #@! TO.N,Net-(J4-Pad7)*
X102704000Y-125312000D03*
G04 #@! TO.P,J4,6*
G04 #@! TO.N,Net-(C13-Pad1)*
X102704000Y-130912000D03*
G04 #@! TD*
D12*
G04 #@! TO.P,J4,8*
G04 #@! TO.N,Net-(J4-Pad8)*
X179854000Y-54612000D03*
D13*
G04 #@! TO.P,J4,7*
G04 #@! TO.N,Net-(J4-Pad7)*
X177704000Y-51812000D03*
G04 #@! TO.P,J4,6*
G04 #@! TO.N,Net-(C13-Pad1)*
X177704000Y-57412000D03*
G04 #@! TD*
D12*
G04 #@! TO.P,J4,8*
G04 #@! TO.N,Net-(J4-Pad8)*
X142354000Y-54612000D03*
D13*
G04 #@! TO.P,J4,7*
G04 #@! TO.N,Net-(J4-Pad7)*
X140204000Y-51812000D03*
G04 #@! TO.P,J4,6*
G04 #@! TO.N,Net-(C13-Pad1)*
X140204000Y-57412000D03*
G04 #@! TD*
D14*
G04 #@! TO.P,J3,7*
G04 #@! TO.N,Net-(C13-Pad1)*
X179314500Y-204812000D03*
D15*
G04 #@! TO.P,J3,3*
G04 #@! TO.N,/USB+*
X178394500Y-201612000D03*
D16*
G04 #@! TO.P,J3,9*
G04 #@! TO.N,Net-(J3-Pad9)*
X181314500Y-202812000D03*
D17*
G04 #@! TO.P,J3,*
G04 #@! TO.N,*
X181064500Y-198312000D03*
D16*
G04 #@! TO.P,J3,8*
G04 #@! TO.N,Net-(J3-Pad8)*
X181314500Y-200412000D03*
D17*
G04 #@! TO.P,J3,*
G04 #@! TO.N,*
X181064500Y-204912000D03*
D15*
G04 #@! TO.P,J3,2*
G04 #@! TO.N,/USB-*
X178394500Y-200962000D03*
G04 #@! TO.P,J3,1*
G04 #@! TO.N,VUSB*
X178394500Y-200312000D03*
G04 #@! TO.P,J3,4*
G04 #@! TO.N,Net-(J3-Pad4)*
X178394500Y-202262000D03*
G04 #@! TO.P,J3,5*
G04 #@! TO.N,GND*
X178394500Y-202912000D03*
D14*
G04 #@! TO.P,J3,6*
G04 #@! TO.N,Net-(J3-Pad6)*
X179314500Y-198412000D03*
G04 #@! TD*
G04 #@! TO.P,J3,7*
G04 #@! TO.N,Net-(C13-Pad1)*
X141814500Y-204812000D03*
D15*
G04 #@! TO.P,J3,3*
G04 #@! TO.N,/USB+*
X140894500Y-201612000D03*
D16*
G04 #@! TO.P,J3,9*
G04 #@! TO.N,Net-(J3-Pad9)*
X143814500Y-202812000D03*
D17*
G04 #@! TO.P,J3,*
G04 #@! TO.N,*
X143564500Y-198312000D03*
D16*
G04 #@! TO.P,J3,8*
G04 #@! TO.N,Net-(J3-Pad8)*
X143814500Y-200412000D03*
D17*
G04 #@! TO.P,J3,*
G04 #@! TO.N,*
X143564500Y-204912000D03*
D15*
G04 #@! TO.P,J3,2*
G04 #@! TO.N,/USB-*
X140894500Y-200962000D03*
G04 #@! TO.P,J3,1*
G04 #@! TO.N,VUSB*
X140894500Y-200312000D03*
G04 #@! TO.P,J3,4*
G04 #@! TO.N,Net-(J3-Pad4)*
X140894500Y-202262000D03*
G04 #@! TO.P,J3,5*
G04 #@! TO.N,GND*
X140894500Y-202912000D03*
D14*
G04 #@! TO.P,J3,6*
G04 #@! TO.N,Net-(J3-Pad6)*
X141814500Y-198412000D03*
G04 #@! TD*
G04 #@! TO.P,J3,7*
G04 #@! TO.N,Net-(C13-Pad1)*
X104314500Y-204812000D03*
D15*
G04 #@! TO.P,J3,3*
G04 #@! TO.N,/USB+*
X103394500Y-201612000D03*
D16*
G04 #@! TO.P,J3,9*
G04 #@! TO.N,Net-(J3-Pad9)*
X106314500Y-202812000D03*
D17*
G04 #@! TO.P,J3,*
G04 #@! TO.N,*
X106064500Y-198312000D03*
D16*
G04 #@! TO.P,J3,8*
G04 #@! TO.N,Net-(J3-Pad8)*
X106314500Y-200412000D03*
D17*
G04 #@! TO.P,J3,*
G04 #@! TO.N,*
X106064500Y-204912000D03*
D15*
G04 #@! TO.P,J3,2*
G04 #@! TO.N,/USB-*
X103394500Y-200962000D03*
G04 #@! TO.P,J3,1*
G04 #@! TO.N,VUSB*
X103394500Y-200312000D03*
G04 #@! TO.P,J3,4*
G04 #@! TO.N,Net-(J3-Pad4)*
X103394500Y-202262000D03*
G04 #@! TO.P,J3,5*
G04 #@! TO.N,GND*
X103394500Y-202912000D03*
D14*
G04 #@! TO.P,J3,6*
G04 #@! TO.N,Net-(J3-Pad6)*
X104314500Y-198412000D03*
G04 #@! TD*
G04 #@! TO.P,J3,7*
G04 #@! TO.N,Net-(C13-Pad1)*
X179314500Y-131312000D03*
D15*
G04 #@! TO.P,J3,3*
G04 #@! TO.N,/USB+*
X178394500Y-128112000D03*
D16*
G04 #@! TO.P,J3,9*
G04 #@! TO.N,Net-(J3-Pad9)*
X181314500Y-129312000D03*
D17*
G04 #@! TO.P,J3,*
G04 #@! TO.N,*
X181064500Y-124812000D03*
D16*
G04 #@! TO.P,J3,8*
G04 #@! TO.N,Net-(J3-Pad8)*
X181314500Y-126912000D03*
D17*
G04 #@! TO.P,J3,*
G04 #@! TO.N,*
X181064500Y-131412000D03*
D15*
G04 #@! TO.P,J3,2*
G04 #@! TO.N,/USB-*
X178394500Y-127462000D03*
G04 #@! TO.P,J3,1*
G04 #@! TO.N,VUSB*
X178394500Y-126812000D03*
G04 #@! TO.P,J3,4*
G04 #@! TO.N,Net-(J3-Pad4)*
X178394500Y-128762000D03*
G04 #@! TO.P,J3,5*
G04 #@! TO.N,GND*
X178394500Y-129412000D03*
D14*
G04 #@! TO.P,J3,6*
G04 #@! TO.N,Net-(J3-Pad6)*
X179314500Y-124912000D03*
G04 #@! TD*
G04 #@! TO.P,J3,7*
G04 #@! TO.N,Net-(C13-Pad1)*
X141814500Y-131312000D03*
D15*
G04 #@! TO.P,J3,3*
G04 #@! TO.N,/USB+*
X140894500Y-128112000D03*
D16*
G04 #@! TO.P,J3,9*
G04 #@! TO.N,Net-(J3-Pad9)*
X143814500Y-129312000D03*
D17*
G04 #@! TO.P,J3,*
G04 #@! TO.N,*
X143564500Y-124812000D03*
D16*
G04 #@! TO.P,J3,8*
G04 #@! TO.N,Net-(J3-Pad8)*
X143814500Y-126912000D03*
D17*
G04 #@! TO.P,J3,*
G04 #@! TO.N,*
X143564500Y-131412000D03*
D15*
G04 #@! TO.P,J3,2*
G04 #@! TO.N,/USB-*
X140894500Y-127462000D03*
G04 #@! TO.P,J3,1*
G04 #@! TO.N,VUSB*
X140894500Y-126812000D03*
G04 #@! TO.P,J3,4*
G04 #@! TO.N,Net-(J3-Pad4)*
X140894500Y-128762000D03*
G04 #@! TO.P,J3,5*
G04 #@! TO.N,GND*
X140894500Y-129412000D03*
D14*
G04 #@! TO.P,J3,6*
G04 #@! TO.N,Net-(J3-Pad6)*
X141814500Y-124912000D03*
G04 #@! TD*
G04 #@! TO.P,J3,7*
G04 #@! TO.N,Net-(C13-Pad1)*
X104314500Y-131312000D03*
D15*
G04 #@! TO.P,J3,3*
G04 #@! TO.N,/USB+*
X103394500Y-128112000D03*
D16*
G04 #@! TO.P,J3,9*
G04 #@! TO.N,Net-(J3-Pad9)*
X106314500Y-129312000D03*
D17*
G04 #@! TO.P,J3,*
G04 #@! TO.N,*
X106064500Y-124812000D03*
D16*
G04 #@! TO.P,J3,8*
G04 #@! TO.N,Net-(J3-Pad8)*
X106314500Y-126912000D03*
D17*
G04 #@! TO.P,J3,*
G04 #@! TO.N,*
X106064500Y-131412000D03*
D15*
G04 #@! TO.P,J3,2*
G04 #@! TO.N,/USB-*
X103394500Y-127462000D03*
G04 #@! TO.P,J3,1*
G04 #@! TO.N,VUSB*
X103394500Y-126812000D03*
G04 #@! TO.P,J3,4*
G04 #@! TO.N,Net-(J3-Pad4)*
X103394500Y-128762000D03*
G04 #@! TO.P,J3,5*
G04 #@! TO.N,GND*
X103394500Y-129412000D03*
D14*
G04 #@! TO.P,J3,6*
G04 #@! TO.N,Net-(J3-Pad6)*
X104314500Y-124912000D03*
G04 #@! TD*
G04 #@! TO.P,J3,7*
G04 #@! TO.N,Net-(C13-Pad1)*
X179314500Y-57812000D03*
D15*
G04 #@! TO.P,J3,3*
G04 #@! TO.N,/USB+*
X178394500Y-54612000D03*
D16*
G04 #@! TO.P,J3,9*
G04 #@! TO.N,Net-(J3-Pad9)*
X181314500Y-55812000D03*
D17*
G04 #@! TO.P,J3,*
G04 #@! TO.N,*
X181064500Y-51312000D03*
D16*
G04 #@! TO.P,J3,8*
G04 #@! TO.N,Net-(J3-Pad8)*
X181314500Y-53412000D03*
D17*
G04 #@! TO.P,J3,*
G04 #@! TO.N,*
X181064500Y-57912000D03*
D15*
G04 #@! TO.P,J3,2*
G04 #@! TO.N,/USB-*
X178394500Y-53962000D03*
G04 #@! TO.P,J3,1*
G04 #@! TO.N,VUSB*
X178394500Y-53312000D03*
G04 #@! TO.P,J3,4*
G04 #@! TO.N,Net-(J3-Pad4)*
X178394500Y-55262000D03*
G04 #@! TO.P,J3,5*
G04 #@! TO.N,GND*
X178394500Y-55912000D03*
D14*
G04 #@! TO.P,J3,6*
G04 #@! TO.N,Net-(J3-Pad6)*
X179314500Y-51412000D03*
G04 #@! TD*
G04 #@! TO.P,J3,7*
G04 #@! TO.N,Net-(C13-Pad1)*
X141814500Y-57812000D03*
D15*
G04 #@! TO.P,J3,3*
G04 #@! TO.N,/USB+*
X140894500Y-54612000D03*
D16*
G04 #@! TO.P,J3,9*
G04 #@! TO.N,Net-(J3-Pad9)*
X143814500Y-55812000D03*
D17*
G04 #@! TO.P,J3,*
G04 #@! TO.N,*
X143564500Y-51312000D03*
D16*
G04 #@! TO.P,J3,8*
G04 #@! TO.N,Net-(J3-Pad8)*
X143814500Y-53412000D03*
D17*
G04 #@! TO.P,J3,*
G04 #@! TO.N,*
X143564500Y-57912000D03*
D15*
G04 #@! TO.P,J3,2*
G04 #@! TO.N,/USB-*
X140894500Y-53962000D03*
G04 #@! TO.P,J3,1*
G04 #@! TO.N,VUSB*
X140894500Y-53312000D03*
G04 #@! TO.P,J3,4*
G04 #@! TO.N,Net-(J3-Pad4)*
X140894500Y-55262000D03*
G04 #@! TO.P,J3,5*
G04 #@! TO.N,GND*
X140894500Y-55912000D03*
D14*
G04 #@! TO.P,J3,6*
G04 #@! TO.N,Net-(J3-Pad6)*
X141814500Y-51412000D03*
G04 #@! TD*
D18*
G04 #@! TO.P,J5,1*
G04 #@! TO.N,3V3*
X181441500Y-215899500D03*
G04 #@! TO.P,J5,2*
G04 #@! TO.N,/PERIPH_3V3*
X181441500Y-217423500D03*
G04 #@! TD*
G04 #@! TO.P,J5,1*
G04 #@! TO.N,3V3*
X143941500Y-215899500D03*
G04 #@! TO.P,J5,2*
G04 #@! TO.N,/PERIPH_3V3*
X143941500Y-217423500D03*
G04 #@! TD*
G04 #@! TO.P,J5,1*
G04 #@! TO.N,3V3*
X106441500Y-215899500D03*
G04 #@! TO.P,J5,2*
G04 #@! TO.N,/PERIPH_3V3*
X106441500Y-217423500D03*
G04 #@! TD*
G04 #@! TO.P,J5,1*
G04 #@! TO.N,3V3*
X181441500Y-142399500D03*
G04 #@! TO.P,J5,2*
G04 #@! TO.N,/PERIPH_3V3*
X181441500Y-143923500D03*
G04 #@! TD*
G04 #@! TO.P,J5,1*
G04 #@! TO.N,3V3*
X143941500Y-142399500D03*
G04 #@! TO.P,J5,2*
G04 #@! TO.N,/PERIPH_3V3*
X143941500Y-143923500D03*
G04 #@! TD*
G04 #@! TO.P,J5,1*
G04 #@! TO.N,3V3*
X106441500Y-142399500D03*
G04 #@! TO.P,J5,2*
G04 #@! TO.N,/PERIPH_3V3*
X106441500Y-143923500D03*
G04 #@! TD*
G04 #@! TO.P,J5,1*
G04 #@! TO.N,3V3*
X181441500Y-68899500D03*
G04 #@! TO.P,J5,2*
G04 #@! TO.N,/PERIPH_3V3*
X181441500Y-70423500D03*
G04 #@! TD*
G04 #@! TO.P,J5,1*
G04 #@! TO.N,3V3*
X143941500Y-68899500D03*
G04 #@! TO.P,J5,2*
G04 #@! TO.N,/PERIPH_3V3*
X143941500Y-70423500D03*
G04 #@! TD*
G04 #@! TO.P,J7,2*
G04 #@! TO.N,/SENSOR_3V3*
X164868000Y-217423500D03*
G04 #@! TO.P,J7,1*
G04 #@! TO.N,3V3*
X164868000Y-215899500D03*
G04 #@! TD*
G04 #@! TO.P,J7,2*
G04 #@! TO.N,/SENSOR_3V3*
X127368000Y-217423500D03*
G04 #@! TO.P,J7,1*
G04 #@! TO.N,3V3*
X127368000Y-215899500D03*
G04 #@! TD*
G04 #@! TO.P,J7,2*
G04 #@! TO.N,/SENSOR_3V3*
X89868000Y-217423500D03*
G04 #@! TO.P,J7,1*
G04 #@! TO.N,3V3*
X89868000Y-215899500D03*
G04 #@! TD*
G04 #@! TO.P,J7,2*
G04 #@! TO.N,/SENSOR_3V3*
X164868000Y-143923500D03*
G04 #@! TO.P,J7,1*
G04 #@! TO.N,3V3*
X164868000Y-142399500D03*
G04 #@! TD*
G04 #@! TO.P,J7,2*
G04 #@! TO.N,/SENSOR_3V3*
X127368000Y-143923500D03*
G04 #@! TO.P,J7,1*
G04 #@! TO.N,3V3*
X127368000Y-142399500D03*
G04 #@! TD*
G04 #@! TO.P,J7,2*
G04 #@! TO.N,/SENSOR_3V3*
X89868000Y-143923500D03*
G04 #@! TO.P,J7,1*
G04 #@! TO.N,3V3*
X89868000Y-142399500D03*
G04 #@! TD*
G04 #@! TO.P,J7,2*
G04 #@! TO.N,/SENSOR_3V3*
X164868000Y-70423500D03*
G04 #@! TO.P,J7,1*
G04 #@! TO.N,3V3*
X164868000Y-68899500D03*
G04 #@! TD*
G04 #@! TO.P,J7,2*
G04 #@! TO.N,/SENSOR_3V3*
X127368000Y-70423500D03*
G04 #@! TO.P,J7,1*
G04 #@! TO.N,3V3*
X127368000Y-68899500D03*
G04 #@! TD*
D14*
G04 #@! TO.P,J3,6*
G04 #@! TO.N,Net-(J3-Pad6)*
X104314500Y-51412000D03*
D15*
G04 #@! TO.P,J3,5*
G04 #@! TO.N,GND*
X103394500Y-55912000D03*
G04 #@! TO.P,J3,4*
G04 #@! TO.N,Net-(J3-Pad4)*
X103394500Y-55262000D03*
G04 #@! TO.P,J3,1*
G04 #@! TO.N,VUSB*
X103394500Y-53312000D03*
G04 #@! TO.P,J3,2*
G04 #@! TO.N,/USB-*
X103394500Y-53962000D03*
D17*
G04 #@! TO.P,J3,*
G04 #@! TO.N,*
X106064500Y-57912000D03*
D16*
G04 #@! TO.P,J3,8*
G04 #@! TO.N,Net-(J3-Pad8)*
X106314500Y-53412000D03*
D17*
G04 #@! TO.P,J3,*
G04 #@! TO.N,*
X106064500Y-51312000D03*
D16*
G04 #@! TO.P,J3,9*
G04 #@! TO.N,Net-(J3-Pad9)*
X106314500Y-55812000D03*
D15*
G04 #@! TO.P,J3,3*
G04 #@! TO.N,/USB+*
X103394500Y-54612000D03*
D14*
G04 #@! TO.P,J3,7*
G04 #@! TO.N,Net-(C13-Pad1)*
X104314500Y-57812000D03*
G04 #@! TD*
D13*
G04 #@! TO.P,J4,6*
G04 #@! TO.N,Net-(C13-Pad1)*
X102704000Y-57412000D03*
G04 #@! TO.P,J4,7*
G04 #@! TO.N,Net-(J4-Pad7)*
X102704000Y-51812000D03*
D12*
G04 #@! TO.P,J4,8*
G04 #@! TO.N,Net-(J4-Pad8)*
X104854000Y-54612000D03*
G04 #@! TD*
D18*
G04 #@! TO.P,J5,2*
G04 #@! TO.N,/PERIPH_3V3*
X106441500Y-70423500D03*
G04 #@! TO.P,J5,1*
G04 #@! TO.N,3V3*
X106441500Y-68899500D03*
G04 #@! TD*
G04 #@! TO.P,J7,1*
G04 #@! TO.N,3V3*
X89868000Y-68899500D03*
G04 #@! TO.P,J7,2*
G04 #@! TO.N,/SENSOR_3V3*
X89868000Y-70423500D03*
G04 #@! TD*
D19*
G04 #@! TO.N,GND*
X87074000Y-27307000D03*
X86058000Y-27307000D03*
X85042000Y-27307000D03*
X84026000Y-27307000D03*
X80724000Y-27307000D03*
X79708000Y-27307000D03*
X78692000Y-27307000D03*
X77676000Y-27307000D03*
X76660000Y-27307000D03*
X95710000Y-19687000D03*
X88852000Y-35054000D03*
X86058000Y-18290000D03*
X76406000Y-60708000D03*
X75390000Y-49786000D03*
X92662000Y-46992000D03*
X105108000Y-80012000D03*
X97551500Y-64645000D03*
X97551500Y-67756500D03*
X98123000Y-66232500D03*
X95583000Y-78410000D03*
X93995500Y-78410000D03*
X97234000Y-78424500D03*
X99583500Y-73217500D03*
X103266500Y-45404500D03*
X105806500Y-49214500D03*
X98123000Y-48516000D03*
X80724000Y-38610900D03*
X82438500Y-38610900D03*
X82184500Y-49468500D03*
X86248500Y-48198500D03*
X83327500Y-81218500D03*
X77485500Y-80393000D03*
X75707500Y-71566500D03*
X83391000Y-71503000D03*
X90439500Y-58104500D03*
X87010500Y-43245500D03*
X91341776Y-44131285D03*
X95583000Y-38826800D03*
X92281000Y-78449000D03*
X98885000Y-78449000D03*
X99456500Y-53278500D03*
X101615500Y-56707500D03*
X95392500Y-55882000D03*
X94694000Y-54929500D03*
X98631000Y-57469500D03*
X101742500Y-35054000D03*
X101742500Y-33847500D03*
X100155000Y-30609000D03*
X102123500Y-65343500D03*
X105298500Y-61939000D03*
X91265000Y-64073500D03*
X104536500Y-36006500D03*
X104536500Y-39372000D03*
X112890000Y-49786000D03*
X150390000Y-49786000D03*
X75390000Y-123286000D03*
X112890000Y-123286000D03*
X150390000Y-123286000D03*
X75390000Y-196786000D03*
X112890000Y-196786000D03*
X150390000Y-196786000D03*
X123558000Y-18290000D03*
X161058000Y-18290000D03*
X86058000Y-91790000D03*
X123558000Y-91790000D03*
X161058000Y-91790000D03*
X86058000Y-165290000D03*
X123558000Y-165290000D03*
X161058000Y-165290000D03*
X113906000Y-60708000D03*
X151406000Y-60708000D03*
X76406000Y-134208000D03*
X113906000Y-134208000D03*
X151406000Y-134208000D03*
X76406000Y-207708000D03*
X113906000Y-207708000D03*
X151406000Y-207708000D03*
X122542000Y-27307000D03*
X160042000Y-27307000D03*
X85042000Y-100807000D03*
X122542000Y-100807000D03*
X160042000Y-100807000D03*
X85042000Y-174307000D03*
X122542000Y-174307000D03*
X160042000Y-174307000D03*
X121526000Y-27307000D03*
X159026000Y-27307000D03*
X84026000Y-100807000D03*
X121526000Y-100807000D03*
X159026000Y-100807000D03*
X84026000Y-174307000D03*
X121526000Y-174307000D03*
X159026000Y-174307000D03*
X118224000Y-27307000D03*
X155724000Y-27307000D03*
X80724000Y-100807000D03*
X118224000Y-100807000D03*
X155724000Y-100807000D03*
X80724000Y-174307000D03*
X118224000Y-174307000D03*
X155724000Y-174307000D03*
X116192000Y-27307000D03*
X153692000Y-27307000D03*
X78692000Y-100807000D03*
X116192000Y-100807000D03*
X153692000Y-100807000D03*
X78692000Y-174307000D03*
X116192000Y-174307000D03*
X153692000Y-174307000D03*
X115176000Y-27307000D03*
X152676000Y-27307000D03*
X77676000Y-100807000D03*
X115176000Y-100807000D03*
X152676000Y-100807000D03*
X77676000Y-174307000D03*
X115176000Y-174307000D03*
X152676000Y-174307000D03*
X114160000Y-27307000D03*
X151660000Y-27307000D03*
X76660000Y-100807000D03*
X114160000Y-100807000D03*
X151660000Y-100807000D03*
X76660000Y-174307000D03*
X114160000Y-174307000D03*
X151660000Y-174307000D03*
X124574000Y-27307000D03*
X162074000Y-27307000D03*
X87074000Y-100807000D03*
X124574000Y-100807000D03*
X162074000Y-100807000D03*
X87074000Y-174307000D03*
X124574000Y-174307000D03*
X162074000Y-174307000D03*
X117208000Y-27307000D03*
X154708000Y-27307000D03*
X79708000Y-100807000D03*
X117208000Y-100807000D03*
X154708000Y-100807000D03*
X79708000Y-174307000D03*
X117208000Y-174307000D03*
X154708000Y-174307000D03*
X123558000Y-27307000D03*
X161058000Y-27307000D03*
X86058000Y-100807000D03*
X123558000Y-100807000D03*
X161058000Y-100807000D03*
X86058000Y-174307000D03*
X123558000Y-174307000D03*
X161058000Y-174307000D03*
X133210000Y-19687000D03*
X170710000Y-19687000D03*
X95710000Y-93187000D03*
X133210000Y-93187000D03*
X170710000Y-93187000D03*
X95710000Y-166687000D03*
X133210000Y-166687000D03*
X170710000Y-166687000D03*
X126352000Y-35054000D03*
X163852000Y-35054000D03*
X88852000Y-108554000D03*
X126352000Y-108554000D03*
X163852000Y-108554000D03*
X88852000Y-182054000D03*
X126352000Y-182054000D03*
X163852000Y-182054000D03*
X135623000Y-66232500D03*
X173123000Y-66232500D03*
X98123000Y-139732500D03*
X135623000Y-139732500D03*
X173123000Y-139732500D03*
X98123000Y-213232500D03*
X135623000Y-213232500D03*
X173123000Y-213232500D03*
X124510500Y-43245500D03*
X162010500Y-43245500D03*
X87010500Y-116745500D03*
X124510500Y-116745500D03*
X162010500Y-116745500D03*
X87010500Y-190245500D03*
X124510500Y-190245500D03*
X162010500Y-190245500D03*
X136131000Y-57469500D03*
X173631000Y-57469500D03*
X98631000Y-130969500D03*
X136131000Y-130969500D03*
X173631000Y-130969500D03*
X98631000Y-204469500D03*
X136131000Y-204469500D03*
X173631000Y-204469500D03*
X127939500Y-58104500D03*
X165439500Y-58104500D03*
X90439500Y-131604500D03*
X127939500Y-131604500D03*
X165439500Y-131604500D03*
X90439500Y-205104500D03*
X127939500Y-205104500D03*
X165439500Y-205104500D03*
X139242500Y-35054000D03*
X176742500Y-35054000D03*
X101742500Y-108554000D03*
X139242500Y-108554000D03*
X176742500Y-108554000D03*
X101742500Y-182054000D03*
X139242500Y-182054000D03*
X176742500Y-182054000D03*
X142036500Y-39372000D03*
X179536500Y-39372000D03*
X104536500Y-112872000D03*
X142036500Y-112872000D03*
X179536500Y-112872000D03*
X104536500Y-186372000D03*
X142036500Y-186372000D03*
X179536500Y-186372000D03*
X123748500Y-48198500D03*
X161248500Y-48198500D03*
X86248500Y-121698500D03*
X123748500Y-121698500D03*
X161248500Y-121698500D03*
X86248500Y-195198500D03*
X123748500Y-195198500D03*
X161248500Y-195198500D03*
X132194000Y-54929500D03*
X169694000Y-54929500D03*
X94694000Y-128429500D03*
X132194000Y-128429500D03*
X169694000Y-128429500D03*
X94694000Y-201929500D03*
X132194000Y-201929500D03*
X169694000Y-201929500D03*
X135051500Y-67756500D03*
X172551500Y-67756500D03*
X97551500Y-141256500D03*
X135051500Y-141256500D03*
X172551500Y-141256500D03*
X97551500Y-214756500D03*
X135051500Y-214756500D03*
X172551500Y-214756500D03*
X131495500Y-78410000D03*
X168995500Y-78410000D03*
X93995500Y-151910000D03*
X131495500Y-151910000D03*
X168995500Y-151910000D03*
X93995500Y-225410000D03*
X131495500Y-225410000D03*
X168995500Y-225410000D03*
X113207500Y-71566500D03*
X150707500Y-71566500D03*
X75707500Y-145066500D03*
X113207500Y-145066500D03*
X150707500Y-145066500D03*
X75707500Y-218566500D03*
X113207500Y-218566500D03*
X150707500Y-218566500D03*
X119684500Y-49468500D03*
X157184500Y-49468500D03*
X82184500Y-122968500D03*
X119684500Y-122968500D03*
X157184500Y-122968500D03*
X82184500Y-196468500D03*
X119684500Y-196468500D03*
X157184500Y-196468500D03*
X143306500Y-49214500D03*
X180806500Y-49214500D03*
X105806500Y-122714500D03*
X143306500Y-122714500D03*
X180806500Y-122714500D03*
X105806500Y-196214500D03*
X143306500Y-196214500D03*
X180806500Y-196214500D03*
X133083000Y-78410000D03*
X170583000Y-78410000D03*
X95583000Y-151910000D03*
X133083000Y-151910000D03*
X170583000Y-151910000D03*
X95583000Y-225410000D03*
X133083000Y-225410000D03*
X170583000Y-225410000D03*
X142608000Y-80012000D03*
X180108000Y-80012000D03*
X105108000Y-153512000D03*
X142608000Y-153512000D03*
X180108000Y-153512000D03*
X105108000Y-227012000D03*
X142608000Y-227012000D03*
X180108000Y-227012000D03*
X140766500Y-45404500D03*
X178266500Y-45404500D03*
X103266500Y-118904500D03*
X140766500Y-118904500D03*
X178266500Y-118904500D03*
X103266500Y-192404500D03*
X140766500Y-192404500D03*
X178266500Y-192404500D03*
X135623000Y-48516000D03*
X173123000Y-48516000D03*
X98123000Y-122016000D03*
X135623000Y-122016000D03*
X173123000Y-122016000D03*
X98123000Y-195516000D03*
X135623000Y-195516000D03*
X173123000Y-195516000D03*
X133083000Y-38826800D03*
X170583000Y-38826800D03*
X95583000Y-112326800D03*
X133083000Y-112326800D03*
X170583000Y-112326800D03*
X95583000Y-185826800D03*
X133083000Y-185826800D03*
X170583000Y-185826800D03*
X114985500Y-80393000D03*
X152485500Y-80393000D03*
X77485500Y-153893000D03*
X114985500Y-153893000D03*
X152485500Y-153893000D03*
X77485500Y-227393000D03*
X114985500Y-227393000D03*
X152485500Y-227393000D03*
X136385000Y-78449000D03*
X173885000Y-78449000D03*
X98885000Y-151949000D03*
X136385000Y-151949000D03*
X173885000Y-151949000D03*
X98885000Y-225449000D03*
X136385000Y-225449000D03*
X173885000Y-225449000D03*
X137655000Y-30609000D03*
X175155000Y-30609000D03*
X100155000Y-104109000D03*
X137655000Y-104109000D03*
X175155000Y-104109000D03*
X100155000Y-177609000D03*
X137655000Y-177609000D03*
X175155000Y-177609000D03*
X118224000Y-38610900D03*
X155724000Y-38610900D03*
X80724000Y-112110900D03*
X118224000Y-112110900D03*
X155724000Y-112110900D03*
X80724000Y-185610900D03*
X118224000Y-185610900D03*
X155724000Y-185610900D03*
X139115500Y-56707500D03*
X176615500Y-56707500D03*
X101615500Y-130207500D03*
X139115500Y-130207500D03*
X176615500Y-130207500D03*
X101615500Y-203707500D03*
X139115500Y-203707500D03*
X176615500Y-203707500D03*
X128841776Y-44131285D03*
X166341776Y-44131285D03*
X91341776Y-117631285D03*
X128841776Y-117631285D03*
X166341776Y-117631285D03*
X91341776Y-191131285D03*
X128841776Y-191131285D03*
X166341776Y-191131285D03*
X128765000Y-64073500D03*
X166265000Y-64073500D03*
X91265000Y-137573500D03*
X128765000Y-137573500D03*
X166265000Y-137573500D03*
X91265000Y-211073500D03*
X128765000Y-211073500D03*
X166265000Y-211073500D03*
X142036500Y-36006500D03*
X179536500Y-36006500D03*
X104536500Y-109506500D03*
X142036500Y-109506500D03*
X179536500Y-109506500D03*
X104536500Y-183006500D03*
X142036500Y-183006500D03*
X179536500Y-183006500D03*
X130162000Y-46992000D03*
X167662000Y-46992000D03*
X92662000Y-120492000D03*
X130162000Y-120492000D03*
X167662000Y-120492000D03*
X92662000Y-193992000D03*
X130162000Y-193992000D03*
X167662000Y-193992000D03*
X134734000Y-78424500D03*
X172234000Y-78424500D03*
X97234000Y-151924500D03*
X134734000Y-151924500D03*
X172234000Y-151924500D03*
X97234000Y-225424500D03*
X134734000Y-225424500D03*
X172234000Y-225424500D03*
X120827500Y-81218500D03*
X158327500Y-81218500D03*
X83327500Y-154718500D03*
X120827500Y-154718500D03*
X158327500Y-154718500D03*
X83327500Y-228218500D03*
X120827500Y-228218500D03*
X158327500Y-228218500D03*
X139242500Y-33847500D03*
X176742500Y-33847500D03*
X101742500Y-107347500D03*
X139242500Y-107347500D03*
X176742500Y-107347500D03*
X101742500Y-180847500D03*
X139242500Y-180847500D03*
X176742500Y-180847500D03*
X142798500Y-61939000D03*
X180298500Y-61939000D03*
X105298500Y-135439000D03*
X142798500Y-135439000D03*
X180298500Y-135439000D03*
X105298500Y-208939000D03*
X142798500Y-208939000D03*
X180298500Y-208939000D03*
X119938500Y-38610900D03*
X157438500Y-38610900D03*
X82438500Y-112110900D03*
X119938500Y-112110900D03*
X157438500Y-112110900D03*
X82438500Y-185610900D03*
X119938500Y-185610900D03*
X157438500Y-185610900D03*
X129781000Y-78449000D03*
X167281000Y-78449000D03*
X92281000Y-151949000D03*
X129781000Y-151949000D03*
X167281000Y-151949000D03*
X92281000Y-225449000D03*
X129781000Y-225449000D03*
X167281000Y-225449000D03*
X120891000Y-71503000D03*
X158391000Y-71503000D03*
X83391000Y-145003000D03*
X120891000Y-145003000D03*
X158391000Y-145003000D03*
X83391000Y-218503000D03*
X120891000Y-218503000D03*
X158391000Y-218503000D03*
X139623500Y-65343500D03*
X177123500Y-65343500D03*
X102123500Y-138843500D03*
X139623500Y-138843500D03*
X177123500Y-138843500D03*
X102123500Y-212343500D03*
X139623500Y-212343500D03*
X177123500Y-212343500D03*
X136956500Y-53278500D03*
X174456500Y-53278500D03*
X99456500Y-126778500D03*
X136956500Y-126778500D03*
X174456500Y-126778500D03*
X99456500Y-200278500D03*
X136956500Y-200278500D03*
X174456500Y-200278500D03*
X132892500Y-55882000D03*
X170392500Y-55882000D03*
X95392500Y-129382000D03*
X132892500Y-129382000D03*
X170392500Y-129382000D03*
X95392500Y-202882000D03*
X132892500Y-202882000D03*
X170392500Y-202882000D03*
X135051500Y-64645000D03*
X172551500Y-64645000D03*
X97551500Y-138145000D03*
X135051500Y-138145000D03*
X172551500Y-138145000D03*
X97551500Y-211645000D03*
X135051500Y-211645000D03*
X172551500Y-211645000D03*
X137083500Y-73217500D03*
X174583500Y-73217500D03*
X99583500Y-146717500D03*
X137083500Y-146717500D03*
X174583500Y-146717500D03*
X99583500Y-220217500D03*
X137083500Y-220217500D03*
X174583500Y-220217500D03*
G04 #@! TO.N,3V3*
X76660000Y-26037000D03*
X77676000Y-26037000D03*
X78692000Y-26037000D03*
X79708000Y-26037000D03*
X80724000Y-26037000D03*
X84026000Y-26037000D03*
X85042000Y-26037000D03*
X86058000Y-26037000D03*
X87074000Y-26037000D03*
X94567000Y-19814000D03*
X89868000Y-22608000D03*
X76406000Y-63248000D03*
X96268800Y-64475600D03*
X96218000Y-67883500D03*
X100218500Y-67248500D03*
X91138000Y-67121500D03*
X103266500Y-43880500D03*
X105933500Y-47627000D03*
X91709500Y-54612000D03*
X91646000Y-57152000D03*
X90503000Y-56365500D03*
X89931500Y-67947000D03*
X106441500Y-68010500D03*
X78501500Y-35054000D03*
X84597500Y-34228500D03*
X78120500Y-37848000D03*
X84613200Y-49654300D03*
X92979500Y-40959500D03*
X96853000Y-46738000D03*
X101742500Y-36324000D03*
X95583000Y-47754000D03*
X98377000Y-65343500D03*
X99266000Y-66169000D03*
X118224000Y-26037000D03*
X155724000Y-26037000D03*
X80724000Y-99537000D03*
X118224000Y-99537000D03*
X155724000Y-99537000D03*
X80724000Y-173037000D03*
X118224000Y-173037000D03*
X155724000Y-173037000D03*
X123558000Y-26037000D03*
X161058000Y-26037000D03*
X86058000Y-99537000D03*
X123558000Y-99537000D03*
X161058000Y-99537000D03*
X86058000Y-173037000D03*
X123558000Y-173037000D03*
X161058000Y-173037000D03*
X124574000Y-26037000D03*
X162074000Y-26037000D03*
X87074000Y-99537000D03*
X124574000Y-99537000D03*
X162074000Y-99537000D03*
X87074000Y-173037000D03*
X124574000Y-173037000D03*
X162074000Y-173037000D03*
X133768800Y-64475600D03*
X171268800Y-64475600D03*
X96268800Y-137975600D03*
X133768800Y-137975600D03*
X171268800Y-137975600D03*
X96268800Y-211475600D03*
X133768800Y-211475600D03*
X171268800Y-211475600D03*
X137718500Y-67248500D03*
X175218500Y-67248500D03*
X100218500Y-140748500D03*
X137718500Y-140748500D03*
X175218500Y-140748500D03*
X100218500Y-214248500D03*
X137718500Y-214248500D03*
X175218500Y-214248500D03*
X128638000Y-67121500D03*
X166138000Y-67121500D03*
X91138000Y-140621500D03*
X128638000Y-140621500D03*
X166138000Y-140621500D03*
X91138000Y-214121500D03*
X128638000Y-214121500D03*
X166138000Y-214121500D03*
X117208000Y-26037000D03*
X154708000Y-26037000D03*
X79708000Y-99537000D03*
X117208000Y-99537000D03*
X154708000Y-99537000D03*
X79708000Y-173037000D03*
X117208000Y-173037000D03*
X154708000Y-173037000D03*
X116192000Y-26037000D03*
X153692000Y-26037000D03*
X78692000Y-99537000D03*
X116192000Y-99537000D03*
X153692000Y-99537000D03*
X78692000Y-173037000D03*
X116192000Y-173037000D03*
X153692000Y-173037000D03*
X127368000Y-22608000D03*
X164868000Y-22608000D03*
X89868000Y-96108000D03*
X127368000Y-96108000D03*
X164868000Y-96108000D03*
X89868000Y-169608000D03*
X127368000Y-169608000D03*
X164868000Y-169608000D03*
X140766500Y-43880500D03*
X178266500Y-43880500D03*
X103266500Y-117380500D03*
X140766500Y-117380500D03*
X178266500Y-117380500D03*
X103266500Y-190880500D03*
X140766500Y-190880500D03*
X178266500Y-190880500D03*
X122542000Y-26037000D03*
X160042000Y-26037000D03*
X85042000Y-99537000D03*
X122542000Y-99537000D03*
X160042000Y-99537000D03*
X85042000Y-173037000D03*
X122542000Y-173037000D03*
X160042000Y-173037000D03*
X132067000Y-19814000D03*
X169567000Y-19814000D03*
X94567000Y-93314000D03*
X132067000Y-93314000D03*
X169567000Y-93314000D03*
X94567000Y-166814000D03*
X132067000Y-166814000D03*
X169567000Y-166814000D03*
X143433500Y-47627000D03*
X180933500Y-47627000D03*
X105933500Y-121127000D03*
X143433500Y-121127000D03*
X180933500Y-121127000D03*
X105933500Y-194627000D03*
X143433500Y-194627000D03*
X180933500Y-194627000D03*
X129209500Y-54612000D03*
X166709500Y-54612000D03*
X91709500Y-128112000D03*
X129209500Y-128112000D03*
X166709500Y-128112000D03*
X91709500Y-201612000D03*
X129209500Y-201612000D03*
X166709500Y-201612000D03*
X114160000Y-26037000D03*
X151660000Y-26037000D03*
X76660000Y-99537000D03*
X114160000Y-99537000D03*
X151660000Y-99537000D03*
X76660000Y-173037000D03*
X114160000Y-173037000D03*
X151660000Y-173037000D03*
X129146000Y-57152000D03*
X166646000Y-57152000D03*
X91646000Y-130652000D03*
X129146000Y-130652000D03*
X166646000Y-130652000D03*
X91646000Y-204152000D03*
X129146000Y-204152000D03*
X166646000Y-204152000D03*
X127431500Y-67947000D03*
X164931500Y-67947000D03*
X89931500Y-141447000D03*
X127431500Y-141447000D03*
X164931500Y-141447000D03*
X89931500Y-214947000D03*
X127431500Y-214947000D03*
X164931500Y-214947000D03*
X143941500Y-68010500D03*
X181441500Y-68010500D03*
X106441500Y-141510500D03*
X143941500Y-141510500D03*
X181441500Y-141510500D03*
X106441500Y-215010500D03*
X143941500Y-215010500D03*
X181441500Y-215010500D03*
X116001500Y-35054000D03*
X153501500Y-35054000D03*
X78501500Y-108554000D03*
X116001500Y-108554000D03*
X153501500Y-108554000D03*
X78501500Y-182054000D03*
X116001500Y-182054000D03*
X153501500Y-182054000D03*
X121526000Y-26037000D03*
X159026000Y-26037000D03*
X84026000Y-99537000D03*
X121526000Y-99537000D03*
X159026000Y-99537000D03*
X84026000Y-173037000D03*
X121526000Y-173037000D03*
X159026000Y-173037000D03*
X115176000Y-26037000D03*
X152676000Y-26037000D03*
X77676000Y-99537000D03*
X115176000Y-99537000D03*
X152676000Y-99537000D03*
X77676000Y-173037000D03*
X115176000Y-173037000D03*
X152676000Y-173037000D03*
X113906000Y-63248000D03*
X151406000Y-63248000D03*
X76406000Y-136748000D03*
X113906000Y-136748000D03*
X151406000Y-136748000D03*
X76406000Y-210248000D03*
X113906000Y-210248000D03*
X151406000Y-210248000D03*
X133718000Y-67883500D03*
X171218000Y-67883500D03*
X96218000Y-141383500D03*
X133718000Y-141383500D03*
X171218000Y-141383500D03*
X96218000Y-214883500D03*
X133718000Y-214883500D03*
X171218000Y-214883500D03*
X128003000Y-56365500D03*
X165503000Y-56365500D03*
X90503000Y-129865500D03*
X128003000Y-129865500D03*
X165503000Y-129865500D03*
X90503000Y-203365500D03*
X128003000Y-203365500D03*
X165503000Y-203365500D03*
X122097500Y-34228500D03*
X159597500Y-34228500D03*
X84597500Y-107728500D03*
X122097500Y-107728500D03*
X159597500Y-107728500D03*
X84597500Y-181228500D03*
X122097500Y-181228500D03*
X159597500Y-181228500D03*
X130479500Y-40959500D03*
X167979500Y-40959500D03*
X92979500Y-114459500D03*
X130479500Y-114459500D03*
X167979500Y-114459500D03*
X92979500Y-187959500D03*
X130479500Y-187959500D03*
X167979500Y-187959500D03*
X139242500Y-36324000D03*
X176742500Y-36324000D03*
X101742500Y-109824000D03*
X139242500Y-109824000D03*
X176742500Y-109824000D03*
X101742500Y-183324000D03*
X139242500Y-183324000D03*
X176742500Y-183324000D03*
X136766000Y-66169000D03*
X174266000Y-66169000D03*
X99266000Y-139669000D03*
X136766000Y-139669000D03*
X174266000Y-139669000D03*
X99266000Y-213169000D03*
X136766000Y-213169000D03*
X174266000Y-213169000D03*
X134353000Y-46738000D03*
X171853000Y-46738000D03*
X96853000Y-120238000D03*
X134353000Y-120238000D03*
X171853000Y-120238000D03*
X96853000Y-193738000D03*
X134353000Y-193738000D03*
X171853000Y-193738000D03*
X122113200Y-49654300D03*
X159613200Y-49654300D03*
X84613200Y-123154300D03*
X122113200Y-123154300D03*
X159613200Y-123154300D03*
X84613200Y-196654300D03*
X122113200Y-196654300D03*
X159613200Y-196654300D03*
X135877000Y-65343500D03*
X173377000Y-65343500D03*
X98377000Y-138843500D03*
X135877000Y-138843500D03*
X173377000Y-138843500D03*
X98377000Y-212343500D03*
X135877000Y-212343500D03*
X173377000Y-212343500D03*
X115620500Y-37848000D03*
X153120500Y-37848000D03*
X78120500Y-111348000D03*
X115620500Y-111348000D03*
X153120500Y-111348000D03*
X78120500Y-184848000D03*
X115620500Y-184848000D03*
X153120500Y-184848000D03*
X133083000Y-47754000D03*
X170583000Y-47754000D03*
X95583000Y-121254000D03*
X133083000Y-121254000D03*
X170583000Y-121254000D03*
X95583000Y-194754000D03*
X133083000Y-194754000D03*
X170583000Y-194754000D03*
G04 #@! TO.N,/RST*
X98313500Y-31510700D03*
X106543100Y-33809400D03*
X135813500Y-31510700D03*
X173313500Y-31510700D03*
X98313500Y-105010700D03*
X135813500Y-105010700D03*
X173313500Y-105010700D03*
X98313500Y-178510700D03*
X135813500Y-178510700D03*
X173313500Y-178510700D03*
X144043100Y-33809400D03*
X181543100Y-33809400D03*
X106543100Y-107309400D03*
X144043100Y-107309400D03*
X181543100Y-107309400D03*
X106543100Y-180809400D03*
X144043100Y-180809400D03*
X181543100Y-180809400D03*
G04 #@! TO.N,/RESET*
X94186000Y-42860510D03*
X103203000Y-42166000D03*
X131686000Y-42860510D03*
X169186000Y-42860510D03*
X94186000Y-116360510D03*
X131686000Y-116360510D03*
X169186000Y-116360510D03*
X94186000Y-189860510D03*
X131686000Y-189860510D03*
X169186000Y-189860510D03*
X140703000Y-42166000D03*
X178203000Y-42166000D03*
X103203000Y-115666000D03*
X140703000Y-115666000D03*
X178203000Y-115666000D03*
X103203000Y-189166000D03*
X140703000Y-189166000D03*
X178203000Y-189166000D03*
G04 #@! TO.N,/A1*
X84216500Y-42737500D03*
X74183500Y-61978000D03*
X111683500Y-61978000D03*
X149183500Y-61978000D03*
X74183500Y-135478000D03*
X111683500Y-135478000D03*
X149183500Y-135478000D03*
X74183500Y-208978000D03*
X111683500Y-208978000D03*
X149183500Y-208978000D03*
X121716500Y-42737500D03*
X159216500Y-42737500D03*
X84216500Y-116237500D03*
X121716500Y-116237500D03*
X159216500Y-116237500D03*
X84216500Y-189737500D03*
X121716500Y-189737500D03*
X159216500Y-189737500D03*
G04 #@! TO.N,/A3*
X85677000Y-44769500D03*
X86121500Y-21846000D03*
X123621500Y-21846000D03*
X161121500Y-21846000D03*
X86121500Y-95346000D03*
X123621500Y-95346000D03*
X161121500Y-95346000D03*
X86121500Y-168846000D03*
X123621500Y-168846000D03*
X161121500Y-168846000D03*
X123177000Y-44769500D03*
X160677000Y-44769500D03*
X85677000Y-118269500D03*
X123177000Y-118269500D03*
X160677000Y-118269500D03*
X85677000Y-191769500D03*
X123177000Y-191769500D03*
X160677000Y-191769500D03*
G04 #@! TO.N,/MOSI*
X104854000Y-70106000D03*
X86819986Y-48770000D03*
X124319986Y-48770000D03*
X161819986Y-48770000D03*
X86819986Y-122270000D03*
X124319986Y-122270000D03*
X161819986Y-122270000D03*
X86819986Y-195770000D03*
X124319986Y-195770000D03*
X161819986Y-195770000D03*
X142354000Y-70106000D03*
X179854000Y-70106000D03*
X104854000Y-143606000D03*
X142354000Y-143606000D03*
X179854000Y-143606000D03*
X104854000Y-217106000D03*
X142354000Y-217106000D03*
X179854000Y-217106000D03*
G04 #@! TO.N,/SCK*
X103584000Y-70106000D03*
X86155621Y-51818000D03*
X123655621Y-51818000D03*
X161155621Y-51818000D03*
X86155621Y-125318000D03*
X123655621Y-125318000D03*
X161155621Y-125318000D03*
X86155621Y-198818000D03*
X123655621Y-198818000D03*
X161155621Y-198818000D03*
X141084000Y-70106000D03*
X178584000Y-70106000D03*
X103584000Y-143606000D03*
X141084000Y-143606000D03*
X178584000Y-143606000D03*
X103584000Y-217106000D03*
X141084000Y-217106000D03*
X178584000Y-217106000D03*
G04 #@! TO.N,/MISO*
X102314000Y-76456000D03*
X85804000Y-50802000D03*
X123304000Y-50802000D03*
X160804000Y-50802000D03*
X85804000Y-124302000D03*
X123304000Y-124302000D03*
X160804000Y-124302000D03*
X85804000Y-197802000D03*
X123304000Y-197802000D03*
X160804000Y-197802000D03*
X139814000Y-76456000D03*
X177314000Y-76456000D03*
X102314000Y-149956000D03*
X139814000Y-149956000D03*
X177314000Y-149956000D03*
X102314000Y-223456000D03*
X139814000Y-223456000D03*
X177314000Y-223456000D03*
G04 #@! TO.N,/USB-*
X101234500Y-55056500D03*
X138734500Y-55056500D03*
X176234500Y-55056500D03*
X101234500Y-128556500D03*
X138734500Y-128556500D03*
X176234500Y-128556500D03*
X101234500Y-202056500D03*
X138734500Y-202056500D03*
X176234500Y-202056500D03*
G04 #@! TO.N,/USB+*
X101964921Y-54587559D03*
X139464921Y-54587559D03*
X176964921Y-54587559D03*
X101964921Y-128087559D03*
X139464921Y-128087559D03*
X176964921Y-128087559D03*
X101964921Y-201587559D03*
X139464921Y-201587559D03*
X176964921Y-201587559D03*
G04 #@! TO.N,VUSB*
X104790500Y-52770500D03*
X142290500Y-52770500D03*
X179790500Y-52770500D03*
X104790500Y-126270500D03*
X142290500Y-126270500D03*
X179790500Y-126270500D03*
X104790500Y-199770500D03*
X142290500Y-199770500D03*
X179790500Y-199770500D03*
G04 #@! TO.N,/D13*
X97551500Y-19877500D03*
X89677500Y-50103500D03*
X135051500Y-19877500D03*
X172551500Y-19877500D03*
X97551500Y-93377500D03*
X135051500Y-93377500D03*
X172551500Y-93377500D03*
X97551500Y-166877500D03*
X135051500Y-166877500D03*
X172551500Y-166877500D03*
X127177500Y-50103500D03*
X164677500Y-50103500D03*
X89677500Y-123603500D03*
X127177500Y-123603500D03*
X164677500Y-123603500D03*
X89677500Y-197103500D03*
X127177500Y-197103500D03*
X164677500Y-197103500D03*
G04 #@! TO.N,/SCL1*
X80419200Y-72813800D03*
X80241402Y-82933000D03*
X117919200Y-72813800D03*
X155419200Y-72813800D03*
X80419200Y-146313800D03*
X117919200Y-146313800D03*
X155419200Y-146313800D03*
X80419200Y-219813800D03*
X117919200Y-219813800D03*
X155419200Y-219813800D03*
X117741402Y-82933000D03*
X155241402Y-82933000D03*
X80241402Y-156433000D03*
X117741402Y-156433000D03*
X155241402Y-156433000D03*
X80241402Y-229933000D03*
X117741402Y-229933000D03*
X155241402Y-229933000D03*
G04 #@! TO.N,/SDA1*
X80825600Y-83847400D03*
X75186800Y-82399600D03*
X83264000Y-65280000D03*
X118325600Y-83847400D03*
X155825600Y-83847400D03*
X80825600Y-157347400D03*
X118325600Y-157347400D03*
X155825600Y-157347400D03*
X80825600Y-230847400D03*
X118325600Y-230847400D03*
X155825600Y-230847400D03*
X120764000Y-65280000D03*
X158264000Y-65280000D03*
X83264000Y-138780000D03*
X120764000Y-138780000D03*
X158264000Y-138780000D03*
X83264000Y-212280000D03*
X120764000Y-212280000D03*
X158264000Y-212280000D03*
X112686800Y-82399600D03*
X150186800Y-82399600D03*
X75186800Y-155899600D03*
X112686800Y-155899600D03*
X150186800Y-155899600D03*
X75186800Y-229399600D03*
X112686800Y-229399600D03*
X150186800Y-229399600D03*
G04 #@! TO.N,/SDA3*
X82819500Y-48325500D03*
X81041500Y-36006500D03*
X118541500Y-36006500D03*
X156041500Y-36006500D03*
X81041500Y-109506500D03*
X118541500Y-109506500D03*
X156041500Y-109506500D03*
X81041500Y-183006500D03*
X118541500Y-183006500D03*
X156041500Y-183006500D03*
X120319500Y-48325500D03*
X157819500Y-48325500D03*
X82819500Y-121825500D03*
X120319500Y-121825500D03*
X157819500Y-121825500D03*
X82819500Y-195325500D03*
X120319500Y-195325500D03*
X157819500Y-195325500D03*
G04 #@! TO.N,/SCL3*
X82883000Y-36006500D03*
X83437574Y-48534367D03*
X120937574Y-48534367D03*
X158437574Y-48534367D03*
X83437574Y-122034367D03*
X120937574Y-122034367D03*
X158437574Y-122034367D03*
X83437574Y-195534367D03*
X120937574Y-195534367D03*
X158437574Y-195534367D03*
X120383000Y-36006500D03*
X157883000Y-36006500D03*
X82883000Y-109506500D03*
X120383000Y-109506500D03*
X157883000Y-109506500D03*
X82883000Y-183006500D03*
X120383000Y-183006500D03*
X157883000Y-183006500D03*
G04 #@! TO.N,/D6_FLASH_CS*
X101298000Y-76456000D03*
X92750657Y-50450156D03*
X130250657Y-50450156D03*
X167750657Y-50450156D03*
X92750657Y-123950156D03*
X130250657Y-123950156D03*
X167750657Y-123950156D03*
X92750657Y-197450156D03*
X130250657Y-197450156D03*
X167750657Y-197450156D03*
X138798000Y-76456000D03*
X176298000Y-76456000D03*
X101298000Y-149956000D03*
X138798000Y-149956000D03*
X176298000Y-149956000D03*
X101298000Y-223456000D03*
X138798000Y-223456000D03*
X176298000Y-223456000D03*
G04 #@! TO.N,/PERIPH_3V3*
X97792800Y-73763600D03*
X96268800Y-73763600D03*
X96268800Y-75287600D03*
X97792800Y-75287600D03*
X97030800Y-74525600D03*
X102314000Y-70106000D03*
X101044000Y-70106000D03*
X106441500Y-71185500D03*
X103774500Y-80329500D03*
X133768800Y-73763600D03*
X171268800Y-73763600D03*
X96268800Y-147263600D03*
X133768800Y-147263600D03*
X171268800Y-147263600D03*
X96268800Y-220763600D03*
X133768800Y-220763600D03*
X171268800Y-220763600D03*
X138544000Y-70106000D03*
X176044000Y-70106000D03*
X101044000Y-143606000D03*
X138544000Y-143606000D03*
X176044000Y-143606000D03*
X101044000Y-217106000D03*
X138544000Y-217106000D03*
X176044000Y-217106000D03*
X141274500Y-80329500D03*
X178774500Y-80329500D03*
X103774500Y-153829500D03*
X141274500Y-153829500D03*
X178774500Y-153829500D03*
X103774500Y-227329500D03*
X141274500Y-227329500D03*
X178774500Y-227329500D03*
X135292800Y-75287600D03*
X172792800Y-75287600D03*
X97792800Y-148787600D03*
X135292800Y-148787600D03*
X172792800Y-148787600D03*
X97792800Y-222287600D03*
X135292800Y-222287600D03*
X172792800Y-222287600D03*
X134530800Y-74525600D03*
X172030800Y-74525600D03*
X97030800Y-148025600D03*
X134530800Y-148025600D03*
X172030800Y-148025600D03*
X97030800Y-221525600D03*
X134530800Y-221525600D03*
X172030800Y-221525600D03*
X143941500Y-71185500D03*
X181441500Y-71185500D03*
X106441500Y-144685500D03*
X143941500Y-144685500D03*
X181441500Y-144685500D03*
X106441500Y-218185500D03*
X143941500Y-218185500D03*
X181441500Y-218185500D03*
X139814000Y-70106000D03*
X177314000Y-70106000D03*
X102314000Y-143606000D03*
X139814000Y-143606000D03*
X177314000Y-143606000D03*
X102314000Y-217106000D03*
X139814000Y-217106000D03*
X177314000Y-217106000D03*
X133768800Y-75287600D03*
X171268800Y-75287600D03*
X96268800Y-148787600D03*
X133768800Y-148787600D03*
X171268800Y-148787600D03*
X96268800Y-222287600D03*
X133768800Y-222287600D03*
X171268800Y-222287600D03*
X135292800Y-73763600D03*
X172792800Y-73763600D03*
X97792800Y-147263600D03*
X135292800Y-147263600D03*
X172792800Y-147263600D03*
X97792800Y-220763600D03*
X135292800Y-220763600D03*
X172792800Y-220763600D03*
G04 #@! TO.N,/D8_PERIPH_EN*
X95011500Y-64772000D03*
X84851500Y-45468000D03*
X132511500Y-64772000D03*
X170011500Y-64772000D03*
X95011500Y-138272000D03*
X132511500Y-138272000D03*
X170011500Y-138272000D03*
X95011500Y-211772000D03*
X132511500Y-211772000D03*
X170011500Y-211772000D03*
X122351500Y-45468000D03*
X159851500Y-45468000D03*
X84851500Y-118968000D03*
X122351500Y-118968000D03*
X159851500Y-118968000D03*
X84851500Y-192468000D03*
X122351500Y-192468000D03*
X159851500Y-192468000D03*
G04 #@! TO.N,/SENSOR_3V3*
X93220800Y-73763600D03*
X94744800Y-73763600D03*
X94744800Y-75287600D03*
X93220800Y-75287600D03*
X93982800Y-74525600D03*
X89868000Y-71376000D03*
X83327500Y-80075500D03*
X77485500Y-81282000D03*
X75707500Y-70296500D03*
X83327500Y-70360000D03*
X120827500Y-80075500D03*
X158327500Y-80075500D03*
X83327500Y-153575500D03*
X120827500Y-153575500D03*
X158327500Y-153575500D03*
X83327500Y-227075500D03*
X120827500Y-227075500D03*
X158327500Y-227075500D03*
X132244800Y-75287600D03*
X169744800Y-75287600D03*
X94744800Y-148787600D03*
X132244800Y-148787600D03*
X169744800Y-148787600D03*
X94744800Y-222287600D03*
X132244800Y-222287600D03*
X169744800Y-222287600D03*
X120827500Y-70360000D03*
X158327500Y-70360000D03*
X83327500Y-143860000D03*
X120827500Y-143860000D03*
X158327500Y-143860000D03*
X83327500Y-217360000D03*
X120827500Y-217360000D03*
X158327500Y-217360000D03*
X130720800Y-75287600D03*
X168220800Y-75287600D03*
X93220800Y-148787600D03*
X130720800Y-148787600D03*
X168220800Y-148787600D03*
X93220800Y-222287600D03*
X130720800Y-222287600D03*
X168220800Y-222287600D03*
X130720800Y-73763600D03*
X168220800Y-73763600D03*
X93220800Y-147263600D03*
X130720800Y-147263600D03*
X168220800Y-147263600D03*
X93220800Y-220763600D03*
X130720800Y-220763600D03*
X168220800Y-220763600D03*
X113207500Y-70296500D03*
X150707500Y-70296500D03*
X75707500Y-143796500D03*
X113207500Y-143796500D03*
X150707500Y-143796500D03*
X75707500Y-217296500D03*
X113207500Y-217296500D03*
X150707500Y-217296500D03*
X114985500Y-81282000D03*
X152485500Y-81282000D03*
X77485500Y-154782000D03*
X114985500Y-154782000D03*
X152485500Y-154782000D03*
X77485500Y-228282000D03*
X114985500Y-228282000D03*
X152485500Y-228282000D03*
X131482800Y-74525600D03*
X168982800Y-74525600D03*
X93982800Y-148025600D03*
X131482800Y-148025600D03*
X168982800Y-148025600D03*
X93982800Y-221525600D03*
X131482800Y-221525600D03*
X168982800Y-221525600D03*
X127368000Y-71376000D03*
X164868000Y-71376000D03*
X89868000Y-144876000D03*
X127368000Y-144876000D03*
X164868000Y-144876000D03*
X89868000Y-218376000D03*
X127368000Y-218376000D03*
X164868000Y-218376000D03*
X132244800Y-73763600D03*
X169744800Y-73763600D03*
X94744800Y-147263600D03*
X132244800Y-147263600D03*
X169744800Y-147263600D03*
X94744800Y-220763600D03*
X132244800Y-220763600D03*
X169744800Y-220763600D03*
G04 #@! TO.N,Net-(J3-Pad4)*
X98631000Y-46865000D03*
X100599500Y-53977000D03*
X136131000Y-46865000D03*
X173631000Y-46865000D03*
X98631000Y-120365000D03*
X136131000Y-120365000D03*
X173631000Y-120365000D03*
X98631000Y-193865000D03*
X136131000Y-193865000D03*
X173631000Y-193865000D03*
X138099500Y-53977000D03*
X175599500Y-53977000D03*
X100599500Y-127477000D03*
X138099500Y-127477000D03*
X175599500Y-127477000D03*
X100599500Y-200977000D03*
X138099500Y-200977000D03*
X175599500Y-200977000D03*
G04 #@! TO.N,/D7_SENSOR_EN*
X90947500Y-48706500D03*
X93805000Y-62676504D03*
X131305000Y-62676504D03*
X168805000Y-62676504D03*
X93805000Y-136176504D03*
X131305000Y-136176504D03*
X168805000Y-136176504D03*
X93805000Y-209676504D03*
X131305000Y-209676504D03*
X168805000Y-209676504D03*
X128447500Y-48706500D03*
X165947500Y-48706500D03*
X90947500Y-122206500D03*
X128447500Y-122206500D03*
X165947500Y-122206500D03*
X90947500Y-195706500D03*
X128447500Y-195706500D03*
X165947500Y-195706500D03*
G04 #@! TD*
D20*
G04 #@! TO.N,GND*
X103394500Y-55912000D02*
X102411000Y-55912000D01*
X102411000Y-55912000D02*
X101615500Y-56707500D01*
X140894500Y-55912000D02*
X139911000Y-55912000D01*
X178394500Y-55912000D02*
X177411000Y-55912000D01*
X103394500Y-129412000D02*
X102411000Y-129412000D01*
X140894500Y-129412000D02*
X139911000Y-129412000D01*
X178394500Y-129412000D02*
X177411000Y-129412000D01*
X103394500Y-202912000D02*
X102411000Y-202912000D01*
X140894500Y-202912000D02*
X139911000Y-202912000D01*
X178394500Y-202912000D02*
X177411000Y-202912000D01*
X139911000Y-55912000D02*
X139115500Y-56707500D01*
X177411000Y-55912000D02*
X176615500Y-56707500D01*
X102411000Y-129412000D02*
X101615500Y-130207500D01*
X139911000Y-129412000D02*
X139115500Y-130207500D01*
X177411000Y-129412000D02*
X176615500Y-130207500D01*
X102411000Y-202912000D02*
X101615500Y-203707500D01*
X139911000Y-202912000D02*
X139115500Y-203707500D01*
X177411000Y-202912000D02*
X176615500Y-203707500D01*
G04 #@! TO.N,3V3*
X89868000Y-68899500D02*
X89868000Y-68010500D01*
X89868000Y-68010500D02*
X89931500Y-67947000D01*
X106441500Y-68899500D02*
X106441500Y-68010500D01*
X127368000Y-68010500D02*
X127431500Y-67947000D01*
X164868000Y-68010500D02*
X164931500Y-67947000D01*
X89868000Y-141510500D02*
X89931500Y-141447000D01*
X127368000Y-141510500D02*
X127431500Y-141447000D01*
X164868000Y-141510500D02*
X164931500Y-141447000D01*
X89868000Y-215010500D02*
X89931500Y-214947000D01*
X127368000Y-215010500D02*
X127431500Y-214947000D01*
X164868000Y-215010500D02*
X164931500Y-214947000D01*
X127368000Y-68899500D02*
X127368000Y-68010500D01*
X164868000Y-68899500D02*
X164868000Y-68010500D01*
X89868000Y-142399500D02*
X89868000Y-141510500D01*
X127368000Y-142399500D02*
X127368000Y-141510500D01*
X164868000Y-142399500D02*
X164868000Y-141510500D01*
X89868000Y-215899500D02*
X89868000Y-215010500D01*
X127368000Y-215899500D02*
X127368000Y-215010500D01*
X164868000Y-215899500D02*
X164868000Y-215010500D01*
X143941500Y-68899500D02*
X143941500Y-68010500D01*
X181441500Y-68899500D02*
X181441500Y-68010500D01*
X106441500Y-142399500D02*
X106441500Y-141510500D01*
X143941500Y-142399500D02*
X143941500Y-141510500D01*
X181441500Y-142399500D02*
X181441500Y-141510500D01*
X106441500Y-215899500D02*
X106441500Y-215010500D01*
X143941500Y-215899500D02*
X143941500Y-215010500D01*
X181441500Y-215899500D02*
X181441500Y-215010500D01*
D21*
G04 #@! TO.N,/RST*
X104244400Y-31510700D02*
X106543100Y-33809400D01*
X98313500Y-31510700D02*
X104244400Y-31510700D01*
X141744400Y-31510700D02*
X144043100Y-33809400D01*
X179244400Y-31510700D02*
X181543100Y-33809400D01*
X104244400Y-105010700D02*
X106543100Y-107309400D01*
X141744400Y-105010700D02*
X144043100Y-107309400D01*
X179244400Y-105010700D02*
X181543100Y-107309400D01*
X104244400Y-178510700D02*
X106543100Y-180809400D01*
X141744400Y-178510700D02*
X144043100Y-180809400D01*
X179244400Y-178510700D02*
X181543100Y-180809400D01*
X135813500Y-31510700D02*
X141744400Y-31510700D01*
X173313500Y-31510700D02*
X179244400Y-31510700D01*
X98313500Y-105010700D02*
X104244400Y-105010700D01*
X135813500Y-105010700D02*
X141744400Y-105010700D01*
X173313500Y-105010700D02*
X179244400Y-105010700D01*
X98313500Y-178510700D02*
X104244400Y-178510700D01*
X135813500Y-178510700D02*
X141744400Y-178510700D01*
X173313500Y-178510700D02*
X179244400Y-178510700D01*
G04 #@! TO.N,/RESET*
X102508490Y-42860510D02*
X103203000Y-42166000D01*
X94186000Y-42860510D02*
X102508490Y-42860510D01*
X140008490Y-42860510D02*
X140703000Y-42166000D01*
X177508490Y-42860510D02*
X178203000Y-42166000D01*
X102508490Y-116360510D02*
X103203000Y-115666000D01*
X140008490Y-116360510D02*
X140703000Y-115666000D01*
X177508490Y-116360510D02*
X178203000Y-115666000D01*
X102508490Y-189860510D02*
X103203000Y-189166000D01*
X140008490Y-189860510D02*
X140703000Y-189166000D01*
X177508490Y-189860510D02*
X178203000Y-189166000D01*
X131686000Y-42860510D02*
X140008490Y-42860510D01*
X169186000Y-42860510D02*
X177508490Y-42860510D01*
X94186000Y-116360510D02*
X102508490Y-116360510D01*
X131686000Y-116360510D02*
X140008490Y-116360510D01*
X169186000Y-116360510D02*
X177508490Y-116360510D01*
X94186000Y-189860510D02*
X102508490Y-189860510D01*
X131686000Y-189860510D02*
X140008490Y-189860510D01*
X169186000Y-189860510D02*
X177508490Y-189860510D01*
D22*
G04 #@! TO.N,/A1*
X84216500Y-43091053D02*
X84280000Y-43154553D01*
X84280000Y-43154553D02*
X84280000Y-49241578D01*
X84216500Y-42737500D02*
X84216500Y-43091053D01*
X84280000Y-49241578D02*
X74183500Y-59338078D01*
X74183500Y-61624447D02*
X74183500Y-61978000D01*
X74183500Y-59338078D02*
X74183500Y-61624447D01*
X121780000Y-43154553D02*
X121780000Y-49241578D01*
X159280000Y-43154553D02*
X159280000Y-49241578D01*
X84280000Y-116654553D02*
X84280000Y-122741578D01*
X121780000Y-116654553D02*
X121780000Y-122741578D01*
X159280000Y-116654553D02*
X159280000Y-122741578D01*
X84280000Y-190154553D02*
X84280000Y-196241578D01*
X121780000Y-190154553D02*
X121780000Y-196241578D01*
X159280000Y-190154553D02*
X159280000Y-196241578D01*
X121716500Y-42737500D02*
X121716500Y-43091053D01*
X159216500Y-42737500D02*
X159216500Y-43091053D01*
X84216500Y-116237500D02*
X84216500Y-116591053D01*
X121716500Y-116237500D02*
X121716500Y-116591053D01*
X159216500Y-116237500D02*
X159216500Y-116591053D01*
X84216500Y-189737500D02*
X84216500Y-190091053D01*
X121716500Y-189737500D02*
X121716500Y-190091053D01*
X159216500Y-189737500D02*
X159216500Y-190091053D01*
X121780000Y-49241578D02*
X111683500Y-59338078D01*
X159280000Y-49241578D02*
X149183500Y-59338078D01*
X84280000Y-122741578D02*
X74183500Y-132838078D01*
X121780000Y-122741578D02*
X111683500Y-132838078D01*
X159280000Y-122741578D02*
X149183500Y-132838078D01*
X84280000Y-196241578D02*
X74183500Y-206338078D01*
X121780000Y-196241578D02*
X111683500Y-206338078D01*
X159280000Y-196241578D02*
X149183500Y-206338078D01*
X111683500Y-61624447D02*
X111683500Y-61978000D01*
X149183500Y-61624447D02*
X149183500Y-61978000D01*
X74183500Y-135124447D02*
X74183500Y-135478000D01*
X111683500Y-135124447D02*
X111683500Y-135478000D01*
X149183500Y-135124447D02*
X149183500Y-135478000D01*
X74183500Y-208624447D02*
X74183500Y-208978000D01*
X111683500Y-208624447D02*
X111683500Y-208978000D01*
X149183500Y-208624447D02*
X149183500Y-208978000D01*
X121716500Y-43091053D02*
X121780000Y-43154553D01*
X159216500Y-43091053D02*
X159280000Y-43154553D01*
X84216500Y-116591053D02*
X84280000Y-116654553D01*
X121716500Y-116591053D02*
X121780000Y-116654553D01*
X159216500Y-116591053D02*
X159280000Y-116654553D01*
X84216500Y-190091053D02*
X84280000Y-190154553D01*
X121716500Y-190091053D02*
X121780000Y-190154553D01*
X159216500Y-190091053D02*
X159280000Y-190154553D01*
X111683500Y-59338078D02*
X111683500Y-61624447D01*
X149183500Y-59338078D02*
X149183500Y-61624447D01*
X74183500Y-132838078D02*
X74183500Y-135124447D01*
X111683500Y-132838078D02*
X111683500Y-135124447D01*
X149183500Y-132838078D02*
X149183500Y-135124447D01*
X74183500Y-206338078D02*
X74183500Y-208624447D01*
X111683500Y-206338078D02*
X111683500Y-208624447D01*
X149183500Y-206338078D02*
X149183500Y-208624447D01*
G04 #@! TO.N,/A3*
X87514501Y-42931999D02*
X90249000Y-40197500D01*
X90249000Y-25973500D02*
X86371499Y-22095999D01*
X86371499Y-22095999D02*
X86121500Y-21846000D01*
X90249000Y-40197500D02*
X90249000Y-25973500D01*
X87514501Y-43487421D02*
X87514501Y-42931999D01*
X86232422Y-44769500D02*
X87514501Y-43487421D01*
X85677000Y-44769500D02*
X86232422Y-44769500D01*
X127749000Y-25973500D02*
X123871499Y-22095999D01*
X165249000Y-25973500D02*
X161371499Y-22095999D01*
X90249000Y-99473500D02*
X86371499Y-95595999D01*
X127749000Y-99473500D02*
X123871499Y-95595999D01*
X165249000Y-99473500D02*
X161371499Y-95595999D01*
X90249000Y-172973500D02*
X86371499Y-169095999D01*
X127749000Y-172973500D02*
X123871499Y-169095999D01*
X165249000Y-172973500D02*
X161371499Y-169095999D01*
X127749000Y-40197500D02*
X127749000Y-25973500D01*
X165249000Y-40197500D02*
X165249000Y-25973500D01*
X90249000Y-113697500D02*
X90249000Y-99473500D01*
X127749000Y-113697500D02*
X127749000Y-99473500D01*
X165249000Y-113697500D02*
X165249000Y-99473500D01*
X90249000Y-187197500D02*
X90249000Y-172973500D01*
X127749000Y-187197500D02*
X127749000Y-172973500D01*
X165249000Y-187197500D02*
X165249000Y-172973500D01*
X123732422Y-44769500D02*
X125014501Y-43487421D01*
X161232422Y-44769500D02*
X162514501Y-43487421D01*
X86232422Y-118269500D02*
X87514501Y-116987421D01*
X123732422Y-118269500D02*
X125014501Y-116987421D01*
X161232422Y-118269500D02*
X162514501Y-116987421D01*
X86232422Y-191769500D02*
X87514501Y-190487421D01*
X123732422Y-191769500D02*
X125014501Y-190487421D01*
X161232422Y-191769500D02*
X162514501Y-190487421D01*
X123177000Y-44769500D02*
X123732422Y-44769500D01*
X160677000Y-44769500D02*
X161232422Y-44769500D01*
X85677000Y-118269500D02*
X86232422Y-118269500D01*
X123177000Y-118269500D02*
X123732422Y-118269500D01*
X160677000Y-118269500D02*
X161232422Y-118269500D01*
X85677000Y-191769500D02*
X86232422Y-191769500D01*
X123177000Y-191769500D02*
X123732422Y-191769500D01*
X160677000Y-191769500D02*
X161232422Y-191769500D01*
X125014501Y-42931999D02*
X127749000Y-40197500D01*
X162514501Y-42931999D02*
X165249000Y-40197500D01*
X87514501Y-116431999D02*
X90249000Y-113697500D01*
X125014501Y-116431999D02*
X127749000Y-113697500D01*
X162514501Y-116431999D02*
X165249000Y-113697500D01*
X87514501Y-189931999D02*
X90249000Y-187197500D01*
X125014501Y-189931999D02*
X127749000Y-187197500D01*
X162514501Y-189931999D02*
X165249000Y-187197500D01*
X125014501Y-43487421D02*
X125014501Y-42931999D01*
X162514501Y-43487421D02*
X162514501Y-42931999D01*
X87514501Y-116987421D02*
X87514501Y-116431999D01*
X125014501Y-116987421D02*
X125014501Y-116431999D01*
X162514501Y-116987421D02*
X162514501Y-116431999D01*
X87514501Y-190487421D02*
X87514501Y-189931999D01*
X125014501Y-190487421D02*
X125014501Y-189931999D01*
X162514501Y-190487421D02*
X162514501Y-189931999D01*
X123871499Y-22095999D02*
X123621500Y-21846000D01*
X161371499Y-22095999D02*
X161121500Y-21846000D01*
X86371499Y-95595999D02*
X86121500Y-95346000D01*
X123871499Y-95595999D02*
X123621500Y-95346000D01*
X161371499Y-95595999D02*
X161121500Y-95346000D01*
X86371499Y-169095999D02*
X86121500Y-168846000D01*
X123871499Y-169095999D02*
X123621500Y-168846000D01*
X161371499Y-169095999D02*
X161121500Y-168846000D01*
G04 #@! TO.N,/MOSI*
X86819986Y-56453486D02*
X86819986Y-49123553D01*
X86819986Y-49123553D02*
X86819986Y-48770000D01*
X104854000Y-70106000D02*
X104854000Y-69598000D01*
X93300998Y-62981922D02*
X93300998Y-62934498D01*
X93563078Y-63244002D02*
X93300998Y-62981922D01*
X93300998Y-62934498D02*
X86819986Y-56453486D01*
X94119146Y-63235278D02*
X94110422Y-63244002D01*
X104854000Y-69598000D02*
X98491278Y-63235278D01*
X94110422Y-63244002D02*
X93563078Y-63244002D01*
X98491278Y-63235278D02*
X94119146Y-63235278D01*
X142354000Y-69598000D02*
X135991278Y-63235278D01*
X179854000Y-69598000D02*
X173491278Y-63235278D01*
X104854000Y-143098000D02*
X98491278Y-136735278D01*
X142354000Y-143098000D02*
X135991278Y-136735278D01*
X179854000Y-143098000D02*
X173491278Y-136735278D01*
X104854000Y-216598000D02*
X98491278Y-210235278D01*
X142354000Y-216598000D02*
X135991278Y-210235278D01*
X179854000Y-216598000D02*
X173491278Y-210235278D01*
X124319986Y-56453486D02*
X124319986Y-49123553D01*
X161819986Y-56453486D02*
X161819986Y-49123553D01*
X86819986Y-129953486D02*
X86819986Y-122623553D01*
X124319986Y-129953486D02*
X124319986Y-122623553D01*
X161819986Y-129953486D02*
X161819986Y-122623553D01*
X86819986Y-203453486D02*
X86819986Y-196123553D01*
X124319986Y-203453486D02*
X124319986Y-196123553D01*
X161819986Y-203453486D02*
X161819986Y-196123553D01*
X124319986Y-49123553D02*
X124319986Y-48770000D01*
X161819986Y-49123553D02*
X161819986Y-48770000D01*
X86819986Y-122623553D02*
X86819986Y-122270000D01*
X124319986Y-122623553D02*
X124319986Y-122270000D01*
X161819986Y-122623553D02*
X161819986Y-122270000D01*
X86819986Y-196123553D02*
X86819986Y-195770000D01*
X124319986Y-196123553D02*
X124319986Y-195770000D01*
X161819986Y-196123553D02*
X161819986Y-195770000D01*
X130800998Y-62981922D02*
X130800998Y-62934498D01*
X168300998Y-62981922D02*
X168300998Y-62934498D01*
X93300998Y-136481922D02*
X93300998Y-136434498D01*
X130800998Y-136481922D02*
X130800998Y-136434498D01*
X168300998Y-136481922D02*
X168300998Y-136434498D01*
X93300998Y-209981922D02*
X93300998Y-209934498D01*
X130800998Y-209981922D02*
X130800998Y-209934498D01*
X168300998Y-209981922D02*
X168300998Y-209934498D01*
X131619146Y-63235278D02*
X131610422Y-63244002D01*
X169119146Y-63235278D02*
X169110422Y-63244002D01*
X94119146Y-136735278D02*
X94110422Y-136744002D01*
X131619146Y-136735278D02*
X131610422Y-136744002D01*
X169119146Y-136735278D02*
X169110422Y-136744002D01*
X94119146Y-210235278D02*
X94110422Y-210244002D01*
X131619146Y-210235278D02*
X131610422Y-210244002D01*
X169119146Y-210235278D02*
X169110422Y-210244002D01*
X131610422Y-63244002D02*
X131063078Y-63244002D01*
X169110422Y-63244002D02*
X168563078Y-63244002D01*
X94110422Y-136744002D02*
X93563078Y-136744002D01*
X131610422Y-136744002D02*
X131063078Y-136744002D01*
X169110422Y-136744002D02*
X168563078Y-136744002D01*
X94110422Y-210244002D02*
X93563078Y-210244002D01*
X131610422Y-210244002D02*
X131063078Y-210244002D01*
X169110422Y-210244002D02*
X168563078Y-210244002D01*
X130800998Y-62934498D02*
X124319986Y-56453486D01*
X168300998Y-62934498D02*
X161819986Y-56453486D01*
X93300998Y-136434498D02*
X86819986Y-129953486D01*
X130800998Y-136434498D02*
X124319986Y-129953486D01*
X168300998Y-136434498D02*
X161819986Y-129953486D01*
X93300998Y-209934498D02*
X86819986Y-203453486D01*
X130800998Y-209934498D02*
X124319986Y-203453486D01*
X168300998Y-209934498D02*
X161819986Y-203453486D01*
X135991278Y-63235278D02*
X131619146Y-63235278D01*
X173491278Y-63235278D02*
X169119146Y-63235278D01*
X98491278Y-136735278D02*
X94119146Y-136735278D01*
X135991278Y-136735278D02*
X131619146Y-136735278D01*
X173491278Y-136735278D02*
X169119146Y-136735278D01*
X98491278Y-210235278D02*
X94119146Y-210235278D01*
X135991278Y-210235278D02*
X131619146Y-210235278D01*
X173491278Y-210235278D02*
X169119146Y-210235278D01*
X142354000Y-70106000D02*
X142354000Y-69598000D01*
X179854000Y-70106000D02*
X179854000Y-69598000D01*
X104854000Y-143606000D02*
X104854000Y-143098000D01*
X142354000Y-143606000D02*
X142354000Y-143098000D01*
X179854000Y-143606000D02*
X179854000Y-143098000D01*
X104854000Y-217106000D02*
X104854000Y-216598000D01*
X142354000Y-217106000D02*
X142354000Y-216598000D01*
X179854000Y-217106000D02*
X179854000Y-216598000D01*
X131063078Y-63244002D02*
X130800998Y-62981922D01*
X168563078Y-63244002D02*
X168300998Y-62981922D01*
X93563078Y-136744002D02*
X93300998Y-136481922D01*
X131063078Y-136744002D02*
X130800998Y-136481922D01*
X168563078Y-136744002D02*
X168300998Y-136481922D01*
X93563078Y-210244002D02*
X93300998Y-209981922D01*
X131063078Y-210244002D02*
X130800998Y-209981922D01*
X168563078Y-210244002D02*
X168300998Y-209981922D01*
G04 #@! TO.N,/SCK*
X86405620Y-52067999D02*
X86155621Y-51818000D01*
X86405620Y-56542029D02*
X86405620Y-52067999D01*
X103584000Y-70106000D02*
X103584000Y-68836000D01*
X103584000Y-68836000D02*
X98338889Y-63590889D01*
X94266444Y-63590889D02*
X94257720Y-63599613D01*
X92945387Y-63129220D02*
X92945387Y-63081796D01*
X98338889Y-63590889D02*
X94266444Y-63590889D01*
X94257720Y-63599613D02*
X93415780Y-63599613D01*
X93415780Y-63599613D02*
X92945387Y-63129220D01*
X92945387Y-63081796D02*
X86405620Y-56542029D01*
X123905620Y-52067999D02*
X123655621Y-51818000D01*
X161405620Y-52067999D02*
X161155621Y-51818000D01*
X86405620Y-125567999D02*
X86155621Y-125318000D01*
X123905620Y-125567999D02*
X123655621Y-125318000D01*
X161405620Y-125567999D02*
X161155621Y-125318000D01*
X86405620Y-199067999D02*
X86155621Y-198818000D01*
X123905620Y-199067999D02*
X123655621Y-198818000D01*
X161405620Y-199067999D02*
X161155621Y-198818000D01*
X123905620Y-56542029D02*
X123905620Y-52067999D01*
X161405620Y-56542029D02*
X161405620Y-52067999D01*
X86405620Y-130042029D02*
X86405620Y-125567999D01*
X123905620Y-130042029D02*
X123905620Y-125567999D01*
X161405620Y-130042029D02*
X161405620Y-125567999D01*
X86405620Y-203542029D02*
X86405620Y-199067999D01*
X123905620Y-203542029D02*
X123905620Y-199067999D01*
X161405620Y-203542029D02*
X161405620Y-199067999D01*
X130915780Y-63599613D02*
X130445387Y-63129220D01*
X168415780Y-63599613D02*
X167945387Y-63129220D01*
X93415780Y-137099613D02*
X92945387Y-136629220D01*
X130915780Y-137099613D02*
X130445387Y-136629220D01*
X168415780Y-137099613D02*
X167945387Y-136629220D01*
X93415780Y-210599613D02*
X92945387Y-210129220D01*
X130915780Y-210599613D02*
X130445387Y-210129220D01*
X168415780Y-210599613D02*
X167945387Y-210129220D01*
X135838889Y-63590889D02*
X131766444Y-63590889D01*
X173338889Y-63590889D02*
X169266444Y-63590889D01*
X98338889Y-137090889D02*
X94266444Y-137090889D01*
X135838889Y-137090889D02*
X131766444Y-137090889D01*
X173338889Y-137090889D02*
X169266444Y-137090889D01*
X98338889Y-210590889D02*
X94266444Y-210590889D01*
X135838889Y-210590889D02*
X131766444Y-210590889D01*
X173338889Y-210590889D02*
X169266444Y-210590889D01*
X130445387Y-63129220D02*
X130445387Y-63081796D01*
X167945387Y-63129220D02*
X167945387Y-63081796D01*
X92945387Y-136629220D02*
X92945387Y-136581796D01*
X130445387Y-136629220D02*
X130445387Y-136581796D01*
X167945387Y-136629220D02*
X167945387Y-136581796D01*
X92945387Y-210129220D02*
X92945387Y-210081796D01*
X130445387Y-210129220D02*
X130445387Y-210081796D01*
X167945387Y-210129220D02*
X167945387Y-210081796D01*
X130445387Y-63081796D02*
X123905620Y-56542029D01*
X167945387Y-63081796D02*
X161405620Y-56542029D01*
X92945387Y-136581796D02*
X86405620Y-130042029D01*
X130445387Y-136581796D02*
X123905620Y-130042029D01*
X167945387Y-136581796D02*
X161405620Y-130042029D01*
X92945387Y-210081796D02*
X86405620Y-203542029D01*
X130445387Y-210081796D02*
X123905620Y-203542029D01*
X167945387Y-210081796D02*
X161405620Y-203542029D01*
X141084000Y-68836000D02*
X135838889Y-63590889D01*
X178584000Y-68836000D02*
X173338889Y-63590889D01*
X103584000Y-142336000D02*
X98338889Y-137090889D01*
X141084000Y-142336000D02*
X135838889Y-137090889D01*
X178584000Y-142336000D02*
X173338889Y-137090889D01*
X103584000Y-215836000D02*
X98338889Y-210590889D01*
X141084000Y-215836000D02*
X135838889Y-210590889D01*
X178584000Y-215836000D02*
X173338889Y-210590889D01*
X141084000Y-70106000D02*
X141084000Y-68836000D01*
X178584000Y-70106000D02*
X178584000Y-68836000D01*
X103584000Y-143606000D02*
X103584000Y-142336000D01*
X141084000Y-143606000D02*
X141084000Y-142336000D01*
X178584000Y-143606000D02*
X178584000Y-142336000D01*
X103584000Y-217106000D02*
X103584000Y-215836000D01*
X141084000Y-217106000D02*
X141084000Y-215836000D01*
X178584000Y-217106000D02*
X178584000Y-215836000D01*
X131757720Y-63599613D02*
X130915780Y-63599613D01*
X169257720Y-63599613D02*
X168415780Y-63599613D01*
X94257720Y-137099613D02*
X93415780Y-137099613D01*
X131757720Y-137099613D02*
X130915780Y-137099613D01*
X169257720Y-137099613D02*
X168415780Y-137099613D01*
X94257720Y-210599613D02*
X93415780Y-210599613D01*
X131757720Y-210599613D02*
X130915780Y-210599613D01*
X169257720Y-210599613D02*
X168415780Y-210599613D01*
X131766444Y-63590889D02*
X131757720Y-63599613D01*
X169266444Y-63590889D02*
X169257720Y-63599613D01*
X94266444Y-137090889D02*
X94257720Y-137099613D01*
X131766444Y-137090889D02*
X131757720Y-137099613D01*
X169266444Y-137090889D02*
X169257720Y-137099613D01*
X94266444Y-210590889D02*
X94257720Y-210599613D01*
X131766444Y-210590889D02*
X131757720Y-210599613D01*
X169266444Y-210590889D02*
X169257720Y-210599613D01*
G04 #@! TO.N,/MISO*
X103076000Y-75694000D02*
X103076000Y-68836000D01*
X93268482Y-63955224D02*
X92589776Y-63276518D01*
X94405018Y-63955224D02*
X93268482Y-63955224D01*
X85804000Y-56443318D02*
X85804000Y-52563938D01*
X92589776Y-63276518D02*
X92589776Y-63229094D01*
X85554001Y-51051999D02*
X85804000Y-50802000D01*
X94413742Y-63946500D02*
X94405018Y-63955224D01*
X92589776Y-63229094D02*
X85804000Y-56443318D01*
X85804000Y-52563938D02*
X85554001Y-52313939D01*
X85554001Y-52313939D02*
X85554001Y-51051999D01*
X103076000Y-68836000D02*
X98186500Y-63946500D01*
X102314000Y-76456000D02*
X103076000Y-75694000D01*
X98186500Y-63946500D02*
X94413742Y-63946500D01*
X140576000Y-68836000D02*
X135686500Y-63946500D01*
X178076000Y-68836000D02*
X173186500Y-63946500D01*
X103076000Y-142336000D02*
X98186500Y-137446500D01*
X140576000Y-142336000D02*
X135686500Y-137446500D01*
X178076000Y-142336000D02*
X173186500Y-137446500D01*
X103076000Y-215836000D02*
X98186500Y-210946500D01*
X140576000Y-215836000D02*
X135686500Y-210946500D01*
X178076000Y-215836000D02*
X173186500Y-210946500D01*
X135686500Y-63946500D02*
X131913742Y-63946500D01*
X173186500Y-63946500D02*
X169413742Y-63946500D01*
X98186500Y-137446500D02*
X94413742Y-137446500D01*
X135686500Y-137446500D02*
X131913742Y-137446500D01*
X173186500Y-137446500D02*
X169413742Y-137446500D01*
X98186500Y-210946500D02*
X94413742Y-210946500D01*
X135686500Y-210946500D02*
X131913742Y-210946500D01*
X173186500Y-210946500D02*
X169413742Y-210946500D01*
X131905018Y-63955224D02*
X130768482Y-63955224D01*
X169405018Y-63955224D02*
X168268482Y-63955224D01*
X94405018Y-137455224D02*
X93268482Y-137455224D01*
X131905018Y-137455224D02*
X130768482Y-137455224D01*
X169405018Y-137455224D02*
X168268482Y-137455224D01*
X94405018Y-210955224D02*
X93268482Y-210955224D01*
X131905018Y-210955224D02*
X130768482Y-210955224D01*
X169405018Y-210955224D02*
X168268482Y-210955224D01*
X123054001Y-51051999D02*
X123304000Y-50802000D01*
X160554001Y-51051999D02*
X160804000Y-50802000D01*
X85554001Y-124551999D02*
X85804000Y-124302000D01*
X123054001Y-124551999D02*
X123304000Y-124302000D01*
X160554001Y-124551999D02*
X160804000Y-124302000D01*
X85554001Y-198051999D02*
X85804000Y-197802000D01*
X123054001Y-198051999D02*
X123304000Y-197802000D01*
X160554001Y-198051999D02*
X160804000Y-197802000D01*
X123304000Y-56443318D02*
X123304000Y-52563938D01*
X160804000Y-56443318D02*
X160804000Y-52563938D01*
X85804000Y-129943318D02*
X85804000Y-126063938D01*
X123304000Y-129943318D02*
X123304000Y-126063938D01*
X160804000Y-129943318D02*
X160804000Y-126063938D01*
X85804000Y-203443318D02*
X85804000Y-199563938D01*
X123304000Y-203443318D02*
X123304000Y-199563938D01*
X160804000Y-203443318D02*
X160804000Y-199563938D01*
X123304000Y-52563938D02*
X123054001Y-52313939D01*
X160804000Y-52563938D02*
X160554001Y-52313939D01*
X85804000Y-126063938D02*
X85554001Y-125813939D01*
X123304000Y-126063938D02*
X123054001Y-125813939D01*
X160804000Y-126063938D02*
X160554001Y-125813939D01*
X85804000Y-199563938D02*
X85554001Y-199313939D01*
X123304000Y-199563938D02*
X123054001Y-199313939D01*
X160804000Y-199563938D02*
X160554001Y-199313939D01*
X123054001Y-52313939D02*
X123054001Y-51051999D01*
X160554001Y-52313939D02*
X160554001Y-51051999D01*
X85554001Y-125813939D02*
X85554001Y-124551999D01*
X123054001Y-125813939D02*
X123054001Y-124551999D01*
X160554001Y-125813939D02*
X160554001Y-124551999D01*
X85554001Y-199313939D02*
X85554001Y-198051999D01*
X123054001Y-199313939D02*
X123054001Y-198051999D01*
X160554001Y-199313939D02*
X160554001Y-198051999D01*
X130768482Y-63955224D02*
X130089776Y-63276518D01*
X168268482Y-63955224D02*
X167589776Y-63276518D01*
X93268482Y-137455224D02*
X92589776Y-136776518D01*
X130768482Y-137455224D02*
X130089776Y-136776518D01*
X168268482Y-137455224D02*
X167589776Y-136776518D01*
X93268482Y-210955224D02*
X92589776Y-210276518D01*
X130768482Y-210955224D02*
X130089776Y-210276518D01*
X168268482Y-210955224D02*
X167589776Y-210276518D01*
X131913742Y-63946500D02*
X131905018Y-63955224D01*
X169413742Y-63946500D02*
X169405018Y-63955224D01*
X94413742Y-137446500D02*
X94405018Y-137455224D01*
X131913742Y-137446500D02*
X131905018Y-137455224D01*
X169413742Y-137446500D02*
X169405018Y-137455224D01*
X94413742Y-210946500D02*
X94405018Y-210955224D01*
X131913742Y-210946500D02*
X131905018Y-210955224D01*
X169413742Y-210946500D02*
X169405018Y-210955224D01*
X130089776Y-63229094D02*
X123304000Y-56443318D01*
X167589776Y-63229094D02*
X160804000Y-56443318D01*
X92589776Y-136729094D02*
X85804000Y-129943318D01*
X130089776Y-136729094D02*
X123304000Y-129943318D01*
X167589776Y-136729094D02*
X160804000Y-129943318D01*
X92589776Y-210229094D02*
X85804000Y-203443318D01*
X130089776Y-210229094D02*
X123304000Y-203443318D01*
X167589776Y-210229094D02*
X160804000Y-203443318D01*
X139814000Y-76456000D02*
X140576000Y-75694000D01*
X177314000Y-76456000D02*
X178076000Y-75694000D01*
X102314000Y-149956000D02*
X103076000Y-149194000D01*
X139814000Y-149956000D02*
X140576000Y-149194000D01*
X177314000Y-149956000D02*
X178076000Y-149194000D01*
X102314000Y-223456000D02*
X103076000Y-222694000D01*
X139814000Y-223456000D02*
X140576000Y-222694000D01*
X177314000Y-223456000D02*
X178076000Y-222694000D01*
X140576000Y-75694000D02*
X140576000Y-68836000D01*
X178076000Y-75694000D02*
X178076000Y-68836000D01*
X103076000Y-149194000D02*
X103076000Y-142336000D01*
X140576000Y-149194000D02*
X140576000Y-142336000D01*
X178076000Y-149194000D02*
X178076000Y-142336000D01*
X103076000Y-222694000D02*
X103076000Y-215836000D01*
X140576000Y-222694000D02*
X140576000Y-215836000D01*
X178076000Y-222694000D02*
X178076000Y-215836000D01*
X130089776Y-63276518D02*
X130089776Y-63229094D01*
X167589776Y-63276518D02*
X167589776Y-63229094D01*
X92589776Y-136776518D02*
X92589776Y-136729094D01*
X130089776Y-136776518D02*
X130089776Y-136729094D01*
X167589776Y-136776518D02*
X167589776Y-136729094D01*
X92589776Y-210276518D02*
X92589776Y-210229094D01*
X130089776Y-210276518D02*
X130089776Y-210229094D01*
X167589776Y-210276518D02*
X167589776Y-210229094D01*
G04 #@! TO.N,/USB-*
X101234500Y-54432172D02*
X101234500Y-54702947D01*
X103394500Y-53962000D02*
X101704672Y-53962000D01*
X101704672Y-53962000D02*
X101234500Y-54432172D01*
X101234500Y-54702947D02*
X101234500Y-55056500D01*
X138734500Y-54702947D02*
X138734500Y-55056500D01*
X176234500Y-54702947D02*
X176234500Y-55056500D01*
X101234500Y-128202947D02*
X101234500Y-128556500D01*
X138734500Y-128202947D02*
X138734500Y-128556500D01*
X176234500Y-128202947D02*
X176234500Y-128556500D01*
X101234500Y-201702947D02*
X101234500Y-202056500D01*
X138734500Y-201702947D02*
X138734500Y-202056500D01*
X176234500Y-201702947D02*
X176234500Y-202056500D01*
X139204672Y-53962000D02*
X138734500Y-54432172D01*
X176704672Y-53962000D02*
X176234500Y-54432172D01*
X101704672Y-127462000D02*
X101234500Y-127932172D01*
X139204672Y-127462000D02*
X138734500Y-127932172D01*
X176704672Y-127462000D02*
X176234500Y-127932172D01*
X101704672Y-200962000D02*
X101234500Y-201432172D01*
X139204672Y-200962000D02*
X138734500Y-201432172D01*
X176704672Y-200962000D02*
X176234500Y-201432172D01*
X138734500Y-54432172D02*
X138734500Y-54702947D01*
X176234500Y-54432172D02*
X176234500Y-54702947D01*
X101234500Y-127932172D02*
X101234500Y-128202947D01*
X138734500Y-127932172D02*
X138734500Y-128202947D01*
X176234500Y-127932172D02*
X176234500Y-128202947D01*
X101234500Y-201432172D02*
X101234500Y-201702947D01*
X138734500Y-201432172D02*
X138734500Y-201702947D01*
X176234500Y-201432172D02*
X176234500Y-201702947D01*
X140894500Y-53962000D02*
X139204672Y-53962000D01*
X178394500Y-53962000D02*
X176704672Y-53962000D01*
X103394500Y-127462000D02*
X101704672Y-127462000D01*
X140894500Y-127462000D02*
X139204672Y-127462000D01*
X178394500Y-127462000D02*
X176704672Y-127462000D01*
X103394500Y-200962000D02*
X101704672Y-200962000D01*
X140894500Y-200962000D02*
X139204672Y-200962000D01*
X178394500Y-200962000D02*
X176704672Y-200962000D01*
G04 #@! TO.N,/USB+*
X101989362Y-54612000D02*
X101964921Y-54587559D01*
X103394500Y-54612000D02*
X101989362Y-54612000D01*
X140894500Y-54612000D02*
X139489362Y-54612000D01*
X178394500Y-54612000D02*
X176989362Y-54612000D01*
X103394500Y-128112000D02*
X101989362Y-128112000D01*
X140894500Y-128112000D02*
X139489362Y-128112000D01*
X178394500Y-128112000D02*
X176989362Y-128112000D01*
X103394500Y-201612000D02*
X101989362Y-201612000D01*
X140894500Y-201612000D02*
X139489362Y-201612000D01*
X178394500Y-201612000D02*
X176989362Y-201612000D01*
X139489362Y-54612000D02*
X139464921Y-54587559D01*
X176989362Y-54612000D02*
X176964921Y-54587559D01*
X101989362Y-128112000D02*
X101964921Y-128087559D01*
X139489362Y-128112000D02*
X139464921Y-128087559D01*
X176989362Y-128112000D02*
X176964921Y-128087559D01*
X101989362Y-201612000D02*
X101964921Y-201587559D01*
X139489362Y-201612000D02*
X139464921Y-201587559D01*
X176989362Y-201612000D02*
X176964921Y-201587559D01*
D20*
G04 #@! TO.N,VUSB*
X103394500Y-53312000D02*
X104249000Y-53312000D01*
X104249000Y-53312000D02*
X104790500Y-52770500D01*
X141749000Y-53312000D02*
X142290500Y-52770500D01*
X179249000Y-53312000D02*
X179790500Y-52770500D01*
X104249000Y-126812000D02*
X104790500Y-126270500D01*
X141749000Y-126812000D02*
X142290500Y-126270500D01*
X179249000Y-126812000D02*
X179790500Y-126270500D01*
X104249000Y-200312000D02*
X104790500Y-199770500D01*
X141749000Y-200312000D02*
X142290500Y-199770500D01*
X179249000Y-200312000D02*
X179790500Y-199770500D01*
X140894500Y-53312000D02*
X141749000Y-53312000D01*
X178394500Y-53312000D02*
X179249000Y-53312000D01*
X103394500Y-126812000D02*
X104249000Y-126812000D01*
X140894500Y-126812000D02*
X141749000Y-126812000D01*
X178394500Y-126812000D02*
X179249000Y-126812000D01*
X103394500Y-200312000D02*
X104249000Y-200312000D01*
X140894500Y-200312000D02*
X141749000Y-200312000D01*
X178394500Y-200312000D02*
X179249000Y-200312000D01*
D22*
G04 #@! TO.N,/D13*
X97551500Y-19877500D02*
X90820500Y-26608500D01*
X90820500Y-26608500D02*
X90820500Y-46674500D01*
X90820500Y-46674500D02*
X89677500Y-47817500D01*
X89677500Y-47817500D02*
X89677500Y-50103500D01*
X135051500Y-19877500D02*
X128320500Y-26608500D01*
X172551500Y-19877500D02*
X165820500Y-26608500D01*
X97551500Y-93377500D02*
X90820500Y-100108500D01*
X135051500Y-93377500D02*
X128320500Y-100108500D01*
X172551500Y-93377500D02*
X165820500Y-100108500D01*
X97551500Y-166877500D02*
X90820500Y-173608500D01*
X135051500Y-166877500D02*
X128320500Y-173608500D01*
X172551500Y-166877500D02*
X165820500Y-173608500D01*
X128320500Y-26608500D02*
X128320500Y-46674500D01*
X165820500Y-26608500D02*
X165820500Y-46674500D01*
X90820500Y-100108500D02*
X90820500Y-120174500D01*
X128320500Y-100108500D02*
X128320500Y-120174500D01*
X165820500Y-100108500D02*
X165820500Y-120174500D01*
X90820500Y-173608500D02*
X90820500Y-193674500D01*
X128320500Y-173608500D02*
X128320500Y-193674500D01*
X165820500Y-173608500D02*
X165820500Y-193674500D01*
X128320500Y-46674500D02*
X127177500Y-47817500D01*
X165820500Y-46674500D02*
X164677500Y-47817500D01*
X90820500Y-120174500D02*
X89677500Y-121317500D01*
X128320500Y-120174500D02*
X127177500Y-121317500D01*
X165820500Y-120174500D02*
X164677500Y-121317500D01*
X90820500Y-193674500D02*
X89677500Y-194817500D01*
X128320500Y-193674500D02*
X127177500Y-194817500D01*
X165820500Y-193674500D02*
X164677500Y-194817500D01*
X127177500Y-47817500D02*
X127177500Y-50103500D01*
X164677500Y-47817500D02*
X164677500Y-50103500D01*
X89677500Y-121317500D02*
X89677500Y-123603500D01*
X127177500Y-121317500D02*
X127177500Y-123603500D01*
X164677500Y-121317500D02*
X164677500Y-123603500D01*
X89677500Y-194817500D02*
X89677500Y-197103500D01*
X127177500Y-194817500D02*
X127177500Y-197103500D01*
X164677500Y-194817500D02*
X164677500Y-197103500D01*
G04 #@! TO.N,/SCL1*
X80419200Y-72813800D02*
X80419200Y-82755202D01*
X80419200Y-82755202D02*
X80241402Y-82933000D01*
X117919200Y-72813800D02*
X117919200Y-82755202D01*
X155419200Y-72813800D02*
X155419200Y-82755202D01*
X80419200Y-146313800D02*
X80419200Y-156255202D01*
X117919200Y-146313800D02*
X117919200Y-156255202D01*
X155419200Y-146313800D02*
X155419200Y-156255202D01*
X80419200Y-219813800D02*
X80419200Y-229755202D01*
X117919200Y-219813800D02*
X117919200Y-229755202D01*
X155419200Y-219813800D02*
X155419200Y-229755202D01*
X117919200Y-82755202D02*
X117741402Y-82933000D01*
X155419200Y-82755202D02*
X155241402Y-82933000D01*
X80419200Y-156255202D02*
X80241402Y-156433000D01*
X117919200Y-156255202D02*
X117741402Y-156433000D01*
X155419200Y-156255202D02*
X155241402Y-156433000D01*
X80419200Y-229755202D02*
X80241402Y-229933000D01*
X117919200Y-229755202D02*
X117741402Y-229933000D01*
X155419200Y-229755202D02*
X155241402Y-229933000D01*
G04 #@! TO.N,/SDA1*
X76884599Y-84097399D02*
X80575601Y-84097399D01*
X80575601Y-84097399D02*
X80825600Y-83847400D01*
X75186800Y-82399600D02*
X76884599Y-84097399D01*
X81232000Y-67312000D02*
X81232000Y-73331800D01*
X83264000Y-65280000D02*
X81232000Y-67312000D01*
X81232000Y-73331800D02*
X80825600Y-73738200D01*
X80825600Y-73738200D02*
X80825600Y-83847400D01*
X118732000Y-67312000D02*
X118732000Y-73331800D01*
X156232000Y-67312000D02*
X156232000Y-73331800D01*
X81232000Y-140812000D02*
X81232000Y-146831800D01*
X118732000Y-140812000D02*
X118732000Y-146831800D01*
X156232000Y-140812000D02*
X156232000Y-146831800D01*
X81232000Y-214312000D02*
X81232000Y-220331800D01*
X118732000Y-214312000D02*
X118732000Y-220331800D01*
X156232000Y-214312000D02*
X156232000Y-220331800D01*
X118325600Y-73738200D02*
X118325600Y-83847400D01*
X155825600Y-73738200D02*
X155825600Y-83847400D01*
X80825600Y-147238200D02*
X80825600Y-157347400D01*
X118325600Y-147238200D02*
X118325600Y-157347400D01*
X155825600Y-147238200D02*
X155825600Y-157347400D01*
X80825600Y-220738200D02*
X80825600Y-230847400D01*
X118325600Y-220738200D02*
X118325600Y-230847400D01*
X155825600Y-220738200D02*
X155825600Y-230847400D01*
X112686800Y-82399600D02*
X114384599Y-84097399D01*
X150186800Y-82399600D02*
X151884599Y-84097399D01*
X75186800Y-155899600D02*
X76884599Y-157597399D01*
X112686800Y-155899600D02*
X114384599Y-157597399D01*
X150186800Y-155899600D02*
X151884599Y-157597399D01*
X75186800Y-229399600D02*
X76884599Y-231097399D01*
X112686800Y-229399600D02*
X114384599Y-231097399D01*
X150186800Y-229399600D02*
X151884599Y-231097399D01*
X118075601Y-84097399D02*
X118325600Y-83847400D01*
X155575601Y-84097399D02*
X155825600Y-83847400D01*
X80575601Y-157597399D02*
X80825600Y-157347400D01*
X118075601Y-157597399D02*
X118325600Y-157347400D01*
X155575601Y-157597399D02*
X155825600Y-157347400D01*
X80575601Y-231097399D02*
X80825600Y-230847400D01*
X118075601Y-231097399D02*
X118325600Y-230847400D01*
X155575601Y-231097399D02*
X155825600Y-230847400D01*
X120764000Y-65280000D02*
X118732000Y-67312000D01*
X158264000Y-65280000D02*
X156232000Y-67312000D01*
X83264000Y-138780000D02*
X81232000Y-140812000D01*
X120764000Y-138780000D02*
X118732000Y-140812000D01*
X158264000Y-138780000D02*
X156232000Y-140812000D01*
X83264000Y-212280000D02*
X81232000Y-214312000D01*
X120764000Y-212280000D02*
X118732000Y-214312000D01*
X158264000Y-212280000D02*
X156232000Y-214312000D01*
X118732000Y-73331800D02*
X118325600Y-73738200D01*
X156232000Y-73331800D02*
X155825600Y-73738200D01*
X81232000Y-146831800D02*
X80825600Y-147238200D01*
X118732000Y-146831800D02*
X118325600Y-147238200D01*
X156232000Y-146831800D02*
X155825600Y-147238200D01*
X81232000Y-220331800D02*
X80825600Y-220738200D01*
X118732000Y-220331800D02*
X118325600Y-220738200D01*
X156232000Y-220331800D02*
X155825600Y-220738200D01*
X114384599Y-84097399D02*
X118075601Y-84097399D01*
X151884599Y-84097399D02*
X155575601Y-84097399D01*
X76884599Y-157597399D02*
X80575601Y-157597399D01*
X114384599Y-157597399D02*
X118075601Y-157597399D01*
X151884599Y-157597399D02*
X155575601Y-157597399D01*
X76884599Y-231097399D02*
X80575601Y-231097399D01*
X114384599Y-231097399D02*
X118075601Y-231097399D01*
X151884599Y-231097399D02*
X155575601Y-231097399D01*
G04 #@! TO.N,/SDA3*
X83069499Y-48075501D02*
X83069499Y-38478999D01*
X82819500Y-48325500D02*
X83069499Y-48075501D01*
X83069499Y-38478999D02*
X81041500Y-36451000D01*
X81041500Y-36451000D02*
X81041500Y-36006500D01*
X120569499Y-38478999D02*
X118541500Y-36451000D01*
X158069499Y-38478999D02*
X156041500Y-36451000D01*
X83069499Y-111978999D02*
X81041500Y-109951000D01*
X120569499Y-111978999D02*
X118541500Y-109951000D01*
X158069499Y-111978999D02*
X156041500Y-109951000D01*
X83069499Y-185478999D02*
X81041500Y-183451000D01*
X120569499Y-185478999D02*
X118541500Y-183451000D01*
X158069499Y-185478999D02*
X156041500Y-183451000D01*
X118541500Y-36451000D02*
X118541500Y-36006500D01*
X156041500Y-36451000D02*
X156041500Y-36006500D01*
X81041500Y-109951000D02*
X81041500Y-109506500D01*
X118541500Y-109951000D02*
X118541500Y-109506500D01*
X156041500Y-109951000D02*
X156041500Y-109506500D01*
X81041500Y-183451000D02*
X81041500Y-183006500D01*
X118541500Y-183451000D02*
X118541500Y-183006500D01*
X156041500Y-183451000D02*
X156041500Y-183006500D01*
X120569499Y-48075501D02*
X120569499Y-38478999D01*
X158069499Y-48075501D02*
X158069499Y-38478999D01*
X83069499Y-121575501D02*
X83069499Y-111978999D01*
X120569499Y-121575501D02*
X120569499Y-111978999D01*
X158069499Y-121575501D02*
X158069499Y-111978999D01*
X83069499Y-195075501D02*
X83069499Y-185478999D01*
X120569499Y-195075501D02*
X120569499Y-185478999D01*
X158069499Y-195075501D02*
X158069499Y-185478999D01*
X120319500Y-48325500D02*
X120569499Y-48075501D01*
X157819500Y-48325500D02*
X158069499Y-48075501D01*
X82819500Y-121825500D02*
X83069499Y-121575501D01*
X120319500Y-121825500D02*
X120569499Y-121575501D01*
X157819500Y-121825500D02*
X158069499Y-121575501D01*
X82819500Y-195325500D02*
X83069499Y-195075501D01*
X120319500Y-195325500D02*
X120569499Y-195075501D01*
X157819500Y-195325500D02*
X158069499Y-195075501D01*
G04 #@! TO.N,/SCL3*
X82883000Y-36006500D02*
X83437574Y-36561074D01*
X83437574Y-36561074D02*
X83437574Y-48180814D01*
X83437574Y-48180814D02*
X83437574Y-48534367D01*
X120937574Y-36561074D02*
X120937574Y-48180814D01*
X158437574Y-36561074D02*
X158437574Y-48180814D01*
X83437574Y-110061074D02*
X83437574Y-121680814D01*
X120937574Y-110061074D02*
X120937574Y-121680814D01*
X158437574Y-110061074D02*
X158437574Y-121680814D01*
X83437574Y-183561074D02*
X83437574Y-195180814D01*
X120937574Y-183561074D02*
X120937574Y-195180814D01*
X158437574Y-183561074D02*
X158437574Y-195180814D01*
X120383000Y-36006500D02*
X120937574Y-36561074D01*
X157883000Y-36006500D02*
X158437574Y-36561074D01*
X82883000Y-109506500D02*
X83437574Y-110061074D01*
X120383000Y-109506500D02*
X120937574Y-110061074D01*
X157883000Y-109506500D02*
X158437574Y-110061074D01*
X82883000Y-183006500D02*
X83437574Y-183561074D01*
X120383000Y-183006500D02*
X120937574Y-183561074D01*
X157883000Y-183006500D02*
X158437574Y-183561074D01*
X120937574Y-48180814D02*
X120937574Y-48534367D01*
X158437574Y-48180814D02*
X158437574Y-48534367D01*
X83437574Y-121680814D02*
X83437574Y-122034367D01*
X120937574Y-121680814D02*
X120937574Y-122034367D01*
X158437574Y-121680814D02*
X158437574Y-122034367D01*
X83437574Y-195180814D02*
X83437574Y-195534367D01*
X120937574Y-195180814D02*
X120937574Y-195534367D01*
X158437574Y-195180814D02*
X158437574Y-195534367D01*
G04 #@! TO.N,/D6_FLASH_CS*
X93000656Y-50700155D02*
X92750657Y-50450156D01*
X101933000Y-77091000D02*
X103393500Y-77091000D01*
X101298000Y-76456000D02*
X101933000Y-77091000D01*
X105362000Y-75122500D02*
X105362000Y-69534500D01*
X103393500Y-77091000D02*
X105362000Y-75122500D01*
X105362000Y-69534500D02*
X93000656Y-57173156D01*
X93000656Y-57173156D02*
X93000656Y-50700155D01*
X140893500Y-77091000D02*
X142862000Y-75122500D01*
X178393500Y-77091000D02*
X180362000Y-75122500D01*
X103393500Y-150591000D02*
X105362000Y-148622500D01*
X140893500Y-150591000D02*
X142862000Y-148622500D01*
X178393500Y-150591000D02*
X180362000Y-148622500D01*
X103393500Y-224091000D02*
X105362000Y-222122500D01*
X140893500Y-224091000D02*
X142862000Y-222122500D01*
X178393500Y-224091000D02*
X180362000Y-222122500D01*
X138798000Y-76456000D02*
X139433000Y-77091000D01*
X176298000Y-76456000D02*
X176933000Y-77091000D01*
X101298000Y-149956000D02*
X101933000Y-150591000D01*
X138798000Y-149956000D02*
X139433000Y-150591000D01*
X176298000Y-149956000D02*
X176933000Y-150591000D01*
X101298000Y-223456000D02*
X101933000Y-224091000D01*
X138798000Y-223456000D02*
X139433000Y-224091000D01*
X176298000Y-223456000D02*
X176933000Y-224091000D01*
X142862000Y-75122500D02*
X142862000Y-69534500D01*
X180362000Y-75122500D02*
X180362000Y-69534500D01*
X105362000Y-148622500D02*
X105362000Y-143034500D01*
X142862000Y-148622500D02*
X142862000Y-143034500D01*
X180362000Y-148622500D02*
X180362000Y-143034500D01*
X105362000Y-222122500D02*
X105362000Y-216534500D01*
X142862000Y-222122500D02*
X142862000Y-216534500D01*
X180362000Y-222122500D02*
X180362000Y-216534500D01*
X142862000Y-69534500D02*
X130500656Y-57173156D01*
X180362000Y-69534500D02*
X168000656Y-57173156D01*
X105362000Y-143034500D02*
X93000656Y-130673156D01*
X142862000Y-143034500D02*
X130500656Y-130673156D01*
X180362000Y-143034500D02*
X168000656Y-130673156D01*
X105362000Y-216534500D02*
X93000656Y-204173156D01*
X142862000Y-216534500D02*
X130500656Y-204173156D01*
X180362000Y-216534500D02*
X168000656Y-204173156D01*
X130500656Y-57173156D02*
X130500656Y-50700155D01*
X168000656Y-57173156D02*
X168000656Y-50700155D01*
X93000656Y-130673156D02*
X93000656Y-124200155D01*
X130500656Y-130673156D02*
X130500656Y-124200155D01*
X168000656Y-130673156D02*
X168000656Y-124200155D01*
X93000656Y-204173156D02*
X93000656Y-197700155D01*
X130500656Y-204173156D02*
X130500656Y-197700155D01*
X168000656Y-204173156D02*
X168000656Y-197700155D01*
X130500656Y-50700155D02*
X130250657Y-50450156D01*
X168000656Y-50700155D02*
X167750657Y-50450156D01*
X93000656Y-124200155D02*
X92750657Y-123950156D01*
X130500656Y-124200155D02*
X130250657Y-123950156D01*
X168000656Y-124200155D02*
X167750657Y-123950156D01*
X93000656Y-197700155D02*
X92750657Y-197450156D01*
X130500656Y-197700155D02*
X130250657Y-197450156D01*
X168000656Y-197700155D02*
X167750657Y-197450156D01*
X139433000Y-77091000D02*
X140893500Y-77091000D01*
X176933000Y-77091000D02*
X178393500Y-77091000D01*
X101933000Y-150591000D02*
X103393500Y-150591000D01*
X139433000Y-150591000D02*
X140893500Y-150591000D01*
X176933000Y-150591000D02*
X178393500Y-150591000D01*
X101933000Y-224091000D02*
X103393500Y-224091000D01*
X139433000Y-224091000D02*
X140893500Y-224091000D01*
X176933000Y-224091000D02*
X178393500Y-224091000D01*
D20*
G04 #@! TO.N,/PERIPH_3V3*
X106441500Y-70423500D02*
X106441500Y-71185500D01*
X143941500Y-70423500D02*
X143941500Y-71185500D01*
X181441500Y-70423500D02*
X181441500Y-71185500D01*
X106441500Y-143923500D02*
X106441500Y-144685500D01*
X143941500Y-143923500D02*
X143941500Y-144685500D01*
X181441500Y-143923500D02*
X181441500Y-144685500D01*
X106441500Y-217423500D02*
X106441500Y-218185500D01*
X143941500Y-217423500D02*
X143941500Y-218185500D01*
X181441500Y-217423500D02*
X181441500Y-218185500D01*
D22*
G04 #@! TO.N,/D8_PERIPH_EN*
X95011500Y-64772000D02*
X93582349Y-64772000D01*
X85101499Y-45717999D02*
X84851500Y-45468000D01*
X92234165Y-63423816D02*
X92234165Y-63376392D01*
X93582349Y-64772000D02*
X92234165Y-63423816D01*
X85117201Y-45733701D02*
X85101499Y-45717999D01*
X92234165Y-63376392D02*
X84851500Y-55993727D01*
X84851500Y-50161922D02*
X85117201Y-49896221D01*
X85117201Y-49896221D02*
X85117201Y-45733701D01*
X84851500Y-55993727D02*
X84851500Y-50161922D01*
X131082349Y-64772000D02*
X129734165Y-63423816D01*
X168582349Y-64772000D02*
X167234165Y-63423816D01*
X93582349Y-138272000D02*
X92234165Y-136923816D01*
X131082349Y-138272000D02*
X129734165Y-136923816D01*
X168582349Y-138272000D02*
X167234165Y-136923816D01*
X93582349Y-211772000D02*
X92234165Y-210423816D01*
X131082349Y-211772000D02*
X129734165Y-210423816D01*
X168582349Y-211772000D02*
X167234165Y-210423816D01*
X122351500Y-55993727D02*
X122351500Y-50161922D01*
X159851500Y-55993727D02*
X159851500Y-50161922D01*
X84851500Y-129493727D02*
X84851500Y-123661922D01*
X122351500Y-129493727D02*
X122351500Y-123661922D01*
X159851500Y-129493727D02*
X159851500Y-123661922D01*
X84851500Y-202993727D02*
X84851500Y-197161922D01*
X122351500Y-202993727D02*
X122351500Y-197161922D01*
X159851500Y-202993727D02*
X159851500Y-197161922D01*
X129734165Y-63376392D02*
X122351500Y-55993727D01*
X167234165Y-63376392D02*
X159851500Y-55993727D01*
X92234165Y-136876392D02*
X84851500Y-129493727D01*
X129734165Y-136876392D02*
X122351500Y-129493727D01*
X167234165Y-136876392D02*
X159851500Y-129493727D01*
X92234165Y-210376392D02*
X84851500Y-202993727D01*
X129734165Y-210376392D02*
X122351500Y-202993727D01*
X167234165Y-210376392D02*
X159851500Y-202993727D01*
X122617201Y-45733701D02*
X122601499Y-45717999D01*
X160117201Y-45733701D02*
X160101499Y-45717999D01*
X85117201Y-119233701D02*
X85101499Y-119217999D01*
X122617201Y-119233701D02*
X122601499Y-119217999D01*
X160117201Y-119233701D02*
X160101499Y-119217999D01*
X85117201Y-192733701D02*
X85101499Y-192717999D01*
X122617201Y-192733701D02*
X122601499Y-192717999D01*
X160117201Y-192733701D02*
X160101499Y-192717999D01*
X132511500Y-64772000D02*
X131082349Y-64772000D01*
X170011500Y-64772000D02*
X168582349Y-64772000D01*
X95011500Y-138272000D02*
X93582349Y-138272000D01*
X132511500Y-138272000D02*
X131082349Y-138272000D01*
X170011500Y-138272000D02*
X168582349Y-138272000D01*
X95011500Y-211772000D02*
X93582349Y-211772000D01*
X132511500Y-211772000D02*
X131082349Y-211772000D01*
X170011500Y-211772000D02*
X168582349Y-211772000D01*
X122617201Y-49896221D02*
X122617201Y-45733701D01*
X160117201Y-49896221D02*
X160117201Y-45733701D01*
X85117201Y-123396221D02*
X85117201Y-119233701D01*
X122617201Y-123396221D02*
X122617201Y-119233701D01*
X160117201Y-123396221D02*
X160117201Y-119233701D01*
X85117201Y-196896221D02*
X85117201Y-192733701D01*
X122617201Y-196896221D02*
X122617201Y-192733701D01*
X160117201Y-196896221D02*
X160117201Y-192733701D01*
X122351500Y-50161922D02*
X122617201Y-49896221D01*
X159851500Y-50161922D02*
X160117201Y-49896221D01*
X84851500Y-123661922D02*
X85117201Y-123396221D01*
X122351500Y-123661922D02*
X122617201Y-123396221D01*
X159851500Y-123661922D02*
X160117201Y-123396221D01*
X84851500Y-197161922D02*
X85117201Y-196896221D01*
X122351500Y-197161922D02*
X122617201Y-196896221D01*
X159851500Y-197161922D02*
X160117201Y-196896221D01*
X122601499Y-45717999D02*
X122351500Y-45468000D01*
X160101499Y-45717999D02*
X159851500Y-45468000D01*
X85101499Y-119217999D02*
X84851500Y-118968000D01*
X122601499Y-119217999D02*
X122351500Y-118968000D01*
X160101499Y-119217999D02*
X159851500Y-118968000D01*
X85101499Y-192717999D02*
X84851500Y-192468000D01*
X122601499Y-192717999D02*
X122351500Y-192468000D01*
X160101499Y-192717999D02*
X159851500Y-192468000D01*
X129734165Y-63423816D02*
X129734165Y-63376392D01*
X167234165Y-63423816D02*
X167234165Y-63376392D01*
X92234165Y-136923816D02*
X92234165Y-136876392D01*
X129734165Y-136923816D02*
X129734165Y-136876392D01*
X167234165Y-136923816D02*
X167234165Y-136876392D01*
X92234165Y-210423816D02*
X92234165Y-210376392D01*
X129734165Y-210423816D02*
X129734165Y-210376392D01*
X167234165Y-210423816D02*
X167234165Y-210376392D01*
D20*
G04 #@! TO.N,Net-(C13-Pad1)*
X103104000Y-57812000D02*
X102704000Y-57412000D01*
X104314500Y-57812000D02*
X103104000Y-57812000D01*
X140604000Y-57812000D02*
X140204000Y-57412000D01*
X178104000Y-57812000D02*
X177704000Y-57412000D01*
X103104000Y-131312000D02*
X102704000Y-130912000D01*
X140604000Y-131312000D02*
X140204000Y-130912000D01*
X178104000Y-131312000D02*
X177704000Y-130912000D01*
X103104000Y-204812000D02*
X102704000Y-204412000D01*
X140604000Y-204812000D02*
X140204000Y-204412000D01*
X178104000Y-204812000D02*
X177704000Y-204412000D01*
X141814500Y-57812000D02*
X140604000Y-57812000D01*
X179314500Y-57812000D02*
X178104000Y-57812000D01*
X104314500Y-131312000D02*
X103104000Y-131312000D01*
X141814500Y-131312000D02*
X140604000Y-131312000D01*
X179314500Y-131312000D02*
X178104000Y-131312000D01*
X104314500Y-204812000D02*
X103104000Y-204812000D01*
X141814500Y-204812000D02*
X140604000Y-204812000D01*
X179314500Y-204812000D02*
X178104000Y-204812000D01*
G04 #@! TO.N,/SENSOR_3V3*
X89868000Y-70423500D02*
X89868000Y-71376000D01*
X127368000Y-70423500D02*
X127368000Y-71376000D01*
X164868000Y-70423500D02*
X164868000Y-71376000D01*
X89868000Y-143923500D02*
X89868000Y-144876000D01*
X127368000Y-143923500D02*
X127368000Y-144876000D01*
X164868000Y-143923500D02*
X164868000Y-144876000D01*
X89868000Y-217423500D02*
X89868000Y-218376000D01*
X127368000Y-217423500D02*
X127368000Y-218376000D01*
X164868000Y-217423500D02*
X164868000Y-218376000D01*
D22*
G04 #@! TO.N,Net-(J3-Pad4)*
X102172000Y-55262000D02*
X103394500Y-55262000D01*
X101806000Y-55628000D02*
X102172000Y-55262000D01*
X101044000Y-55628000D02*
X101806000Y-55628000D01*
X100599500Y-53977000D02*
X100599500Y-55183500D01*
X100599500Y-55183500D02*
X101044000Y-55628000D01*
X100599500Y-48833500D02*
X98631000Y-46865000D01*
X100599500Y-53977000D02*
X100599500Y-48833500D01*
X138099500Y-53977000D02*
X138099500Y-55183500D01*
X175599500Y-53977000D02*
X175599500Y-55183500D01*
X100599500Y-127477000D02*
X100599500Y-128683500D01*
X138099500Y-127477000D02*
X138099500Y-128683500D01*
X175599500Y-127477000D02*
X175599500Y-128683500D01*
X100599500Y-200977000D02*
X100599500Y-202183500D01*
X138099500Y-200977000D02*
X138099500Y-202183500D01*
X175599500Y-200977000D02*
X175599500Y-202183500D01*
X138099500Y-48833500D02*
X136131000Y-46865000D01*
X175599500Y-48833500D02*
X173631000Y-46865000D01*
X100599500Y-122333500D02*
X98631000Y-120365000D01*
X138099500Y-122333500D02*
X136131000Y-120365000D01*
X175599500Y-122333500D02*
X173631000Y-120365000D01*
X100599500Y-195833500D02*
X98631000Y-193865000D01*
X138099500Y-195833500D02*
X136131000Y-193865000D01*
X175599500Y-195833500D02*
X173631000Y-193865000D01*
X138099500Y-53977000D02*
X138099500Y-48833500D01*
X175599500Y-53977000D02*
X175599500Y-48833500D01*
X100599500Y-127477000D02*
X100599500Y-122333500D01*
X138099500Y-127477000D02*
X138099500Y-122333500D01*
X175599500Y-127477000D02*
X175599500Y-122333500D01*
X100599500Y-200977000D02*
X100599500Y-195833500D01*
X138099500Y-200977000D02*
X138099500Y-195833500D01*
X175599500Y-200977000D02*
X175599500Y-195833500D01*
X138099500Y-55183500D02*
X138544000Y-55628000D01*
X175599500Y-55183500D02*
X176044000Y-55628000D01*
X100599500Y-128683500D02*
X101044000Y-129128000D01*
X138099500Y-128683500D02*
X138544000Y-129128000D01*
X175599500Y-128683500D02*
X176044000Y-129128000D01*
X100599500Y-202183500D02*
X101044000Y-202628000D01*
X138099500Y-202183500D02*
X138544000Y-202628000D01*
X175599500Y-202183500D02*
X176044000Y-202628000D01*
X139672000Y-55262000D02*
X140894500Y-55262000D01*
X177172000Y-55262000D02*
X178394500Y-55262000D01*
X102172000Y-128762000D02*
X103394500Y-128762000D01*
X139672000Y-128762000D02*
X140894500Y-128762000D01*
X177172000Y-128762000D02*
X178394500Y-128762000D01*
X102172000Y-202262000D02*
X103394500Y-202262000D01*
X139672000Y-202262000D02*
X140894500Y-202262000D01*
X177172000Y-202262000D02*
X178394500Y-202262000D01*
X139306000Y-55628000D02*
X139672000Y-55262000D01*
X176806000Y-55628000D02*
X177172000Y-55262000D01*
X101806000Y-129128000D02*
X102172000Y-128762000D01*
X139306000Y-129128000D02*
X139672000Y-128762000D01*
X176806000Y-129128000D02*
X177172000Y-128762000D01*
X101806000Y-202628000D02*
X102172000Y-202262000D01*
X139306000Y-202628000D02*
X139672000Y-202262000D01*
X176806000Y-202628000D02*
X177172000Y-202262000D01*
X138544000Y-55628000D02*
X139306000Y-55628000D01*
X176044000Y-55628000D02*
X176806000Y-55628000D01*
X101044000Y-129128000D02*
X101806000Y-129128000D01*
X138544000Y-129128000D02*
X139306000Y-129128000D01*
X176044000Y-129128000D02*
X176806000Y-129128000D01*
X101044000Y-202628000D02*
X101806000Y-202628000D01*
X138544000Y-202628000D02*
X139306000Y-202628000D01*
X176044000Y-202628000D02*
X176806000Y-202628000D01*
G04 #@! TO.N,/D7_SENSOR_EN*
X90947500Y-49060053D02*
X91011000Y-49123553D01*
X90947500Y-48706500D02*
X90947500Y-49060053D01*
X93555001Y-62426505D02*
X93805000Y-62676504D01*
X91011000Y-49123553D02*
X91011000Y-59882504D01*
X91011000Y-59882504D02*
X93555001Y-62426505D01*
X131055001Y-62426505D02*
X131305000Y-62676504D01*
X168555001Y-62426505D02*
X168805000Y-62676504D01*
X93555001Y-135926505D02*
X93805000Y-136176504D01*
X131055001Y-135926505D02*
X131305000Y-136176504D01*
X168555001Y-135926505D02*
X168805000Y-136176504D01*
X93555001Y-209426505D02*
X93805000Y-209676504D01*
X131055001Y-209426505D02*
X131305000Y-209676504D01*
X168555001Y-209426505D02*
X168805000Y-209676504D01*
X128447500Y-49060053D02*
X128511000Y-49123553D01*
X165947500Y-49060053D02*
X166011000Y-49123553D01*
X90947500Y-122560053D02*
X91011000Y-122623553D01*
X128447500Y-122560053D02*
X128511000Y-122623553D01*
X165947500Y-122560053D02*
X166011000Y-122623553D01*
X90947500Y-196060053D02*
X91011000Y-196123553D01*
X128447500Y-196060053D02*
X128511000Y-196123553D01*
X165947500Y-196060053D02*
X166011000Y-196123553D01*
X128511000Y-49123553D02*
X128511000Y-59882504D01*
X166011000Y-49123553D02*
X166011000Y-59882504D01*
X91011000Y-122623553D02*
X91011000Y-133382504D01*
X128511000Y-122623553D02*
X128511000Y-133382504D01*
X166011000Y-122623553D02*
X166011000Y-133382504D01*
X91011000Y-196123553D02*
X91011000Y-206882504D01*
X128511000Y-196123553D02*
X128511000Y-206882504D01*
X166011000Y-196123553D02*
X166011000Y-206882504D01*
X128511000Y-59882504D02*
X131055001Y-62426505D01*
X166011000Y-59882504D02*
X168555001Y-62426505D01*
X91011000Y-133382504D02*
X93555001Y-135926505D01*
X128511000Y-133382504D02*
X131055001Y-135926505D01*
X166011000Y-133382504D02*
X168555001Y-135926505D01*
X91011000Y-206882504D02*
X93555001Y-209426505D01*
X128511000Y-206882504D02*
X131055001Y-209426505D01*
X166011000Y-206882504D02*
X168555001Y-209426505D01*
X128447500Y-48706500D02*
X128447500Y-49060053D01*
X165947500Y-48706500D02*
X165947500Y-49060053D01*
X90947500Y-122206500D02*
X90947500Y-122560053D01*
X128447500Y-122206500D02*
X128447500Y-122560053D01*
X165947500Y-122206500D02*
X165947500Y-122560053D01*
X90947500Y-195706500D02*
X90947500Y-196060053D01*
X128447500Y-195706500D02*
X128447500Y-196060053D01*
X165947500Y-195706500D02*
X165947500Y-196060053D01*
G04 #@! TD*
M02*
