G04 #@! TF.GenerationSoftware,KiCad,Pcbnew,(5.0.0)*
G04 #@! TF.CreationDate,2019-01-02T15:44:26-06:00*
G04 #@! TF.ProjectId,fk-sonar-v0.07-03x03,666B2D736F6E61722D76302E30372D30,0.1*
G04 #@! TF.SameCoordinates,Original*
G04 #@! TF.FileFunction,Profile,NP*
%FSLAX46Y46*%
G04 Gerber Fmt 4.6, Leading zero omitted, Abs format (unit mm)*
G04 Created by KiCad (PCBNEW (5.0.0)) date 01/02/19 15:44:26*
%MOMM*%
%LPD*%
G01*
G04 APERTURE LIST*
%ADD10C,0.150000*%
G04 APERTURE END LIST*
D10*
X64100000Y-243520000D02*
X64100000Y-8020000D01*
X191600000Y-243520000D02*
X64100000Y-243520000D01*
X191600000Y-8020000D02*
X191600000Y-243520000D01*
X64100000Y-8020000D02*
X191600000Y-8020000D01*
X129600000Y-237520000D02*
X95100000Y-237520000D01*
X167100000Y-237520000D02*
X132600000Y-237520000D01*
X185600000Y-237520000D02*
X170100000Y-237520000D01*
X185600000Y-226520000D02*
X185600000Y-237520000D01*
X185600000Y-184520000D02*
X185600000Y-223520000D01*
X185600000Y-153020000D02*
X185600000Y-181520000D01*
X185600000Y-111020000D02*
X185600000Y-150020000D01*
X185600000Y-79520000D02*
X185600000Y-108020000D01*
X182600000Y-79520000D02*
X185600000Y-79520000D01*
X185600000Y-76520000D02*
X182600000Y-76520000D01*
X185600000Y-37520000D02*
X185600000Y-76520000D01*
X182600000Y-37520000D02*
X185600000Y-37520000D01*
X182600000Y-34520000D02*
X185600000Y-34520000D01*
X185600000Y-14020000D02*
X185600000Y-34520000D01*
X170100000Y-14020000D02*
X185600000Y-14020000D01*
X132600000Y-14020000D02*
X167100000Y-14020000D01*
X95100000Y-14020000D02*
X129600000Y-14020000D01*
X185600000Y-111020000D02*
X182600000Y-111020000D01*
X182600000Y-108020000D02*
X185600000Y-108020000D01*
X182600000Y-150020000D02*
X185600000Y-150020000D01*
X185600000Y-153020000D02*
X182600000Y-153020000D01*
X185600000Y-184520000D02*
X182600000Y-184520000D01*
X182600000Y-181520000D02*
X185600000Y-181520000D01*
X182600000Y-223520000D02*
X185600000Y-223520000D01*
X185600000Y-226520000D02*
X182600000Y-226520000D01*
X170100000Y-234520000D02*
X170100000Y-237520000D01*
X167100000Y-237520000D02*
X167100000Y-234520000D01*
X132600000Y-234520000D02*
X132600000Y-237520000D01*
X129600000Y-237520000D02*
X129600000Y-234520000D01*
X92100000Y-237520000D02*
X92100000Y-234520000D01*
X95100000Y-234520000D02*
X95100000Y-237520000D01*
X70100000Y-237520000D02*
X92100000Y-237520000D01*
X70100000Y-226520000D02*
X70100000Y-237520000D01*
X70100000Y-184520000D02*
X70100000Y-223520000D01*
X70100000Y-153020000D02*
X70100000Y-181520000D01*
X70100000Y-111020000D02*
X70100000Y-150020000D01*
X70100000Y-79520000D02*
X70100000Y-108020000D01*
X70100000Y-37520000D02*
X70100000Y-76520000D01*
X70100000Y-14020000D02*
X70100000Y-34520000D01*
X70100000Y-14020000D02*
X92100000Y-14020000D01*
X170100000Y-164020000D02*
X181600000Y-164020000D01*
X132600000Y-164020000D02*
X144100000Y-164020000D01*
X95100000Y-164020000D02*
X106600000Y-164020000D01*
X170100000Y-90520000D02*
X181600000Y-90520000D01*
X132600000Y-90520000D02*
X144100000Y-90520000D01*
X95100000Y-90520000D02*
X106600000Y-90520000D01*
X170100000Y-17020000D02*
X181600000Y-17020000D01*
X132600000Y-17020000D02*
X144100000Y-17020000D01*
X167100000Y-164020000D02*
X167100000Y-161020000D01*
X129600000Y-164020000D02*
X129600000Y-161020000D01*
X92100000Y-164020000D02*
X92100000Y-161020000D01*
X167100000Y-90520000D02*
X167100000Y-87520000D01*
X129600000Y-90520000D02*
X129600000Y-87520000D01*
X92100000Y-90520000D02*
X92100000Y-87520000D01*
X167100000Y-17020000D02*
X167100000Y-14020000D01*
X129600000Y-17020000D02*
X129600000Y-14020000D01*
X170100000Y-161020000D02*
X170100000Y-164020000D01*
X132600000Y-161020000D02*
X132600000Y-164020000D01*
X95100000Y-161020000D02*
X95100000Y-164020000D01*
X170100000Y-87520000D02*
X170100000Y-90520000D01*
X132600000Y-87520000D02*
X132600000Y-90520000D01*
X95100000Y-87520000D02*
X95100000Y-90520000D01*
X170100000Y-14020000D02*
X170100000Y-17020000D01*
X132600000Y-14020000D02*
X132600000Y-17020000D01*
X149100000Y-234520000D02*
G75*
G02X148100000Y-233520000I0J1000000D01*
G01*
X111600000Y-234520000D02*
G75*
G02X110600000Y-233520000I0J1000000D01*
G01*
X74100000Y-234520000D02*
G75*
G02X73100000Y-233520000I0J1000000D01*
G01*
X149100000Y-161020000D02*
G75*
G02X148100000Y-160020000I0J1000000D01*
G01*
X111600000Y-161020000D02*
G75*
G02X110600000Y-160020000I0J1000000D01*
G01*
X74100000Y-161020000D02*
G75*
G02X73100000Y-160020000I0J1000000D01*
G01*
X149100000Y-87520000D02*
G75*
G02X148100000Y-86520000I0J1000000D01*
G01*
X111600000Y-87520000D02*
G75*
G02X110600000Y-86520000I0J1000000D01*
G01*
X148100000Y-165020000D02*
G75*
G02X149100000Y-164020000I1000000J0D01*
G01*
X110600000Y-165020000D02*
G75*
G02X111600000Y-164020000I1000000J0D01*
G01*
X73100000Y-165020000D02*
G75*
G02X74100000Y-164020000I1000000J0D01*
G01*
X148100000Y-91520000D02*
G75*
G02X149100000Y-90520000I1000000J0D01*
G01*
X110600000Y-91520000D02*
G75*
G02X111600000Y-90520000I1000000J0D01*
G01*
X73100000Y-91520000D02*
G75*
G02X74100000Y-90520000I1000000J0D01*
G01*
X148100000Y-18020000D02*
G75*
G02X149100000Y-17020000I1000000J0D01*
G01*
X110600000Y-18020000D02*
G75*
G02X111600000Y-17020000I1000000J0D01*
G01*
X182600000Y-233520000D02*
G75*
G02X181600000Y-234520000I-1000000J0D01*
G01*
X145100000Y-233520000D02*
G75*
G02X144100000Y-234520000I-1000000J0D01*
G01*
X107600000Y-233520000D02*
G75*
G02X106600000Y-234520000I-1000000J0D01*
G01*
X182600000Y-160020000D02*
G75*
G02X181600000Y-161020000I-1000000J0D01*
G01*
X145100000Y-160020000D02*
G75*
G02X144100000Y-161020000I-1000000J0D01*
G01*
X107600000Y-160020000D02*
G75*
G02X106600000Y-161020000I-1000000J0D01*
G01*
X182600000Y-86520000D02*
G75*
G02X181600000Y-87520000I-1000000J0D01*
G01*
X145100000Y-86520000D02*
G75*
G02X144100000Y-87520000I-1000000J0D01*
G01*
X181600000Y-164020000D02*
G75*
G02X182600000Y-165020000I0J-1000000D01*
G01*
X144100000Y-164020000D02*
G75*
G02X145100000Y-165020000I0J-1000000D01*
G01*
X106600000Y-164020000D02*
G75*
G02X107600000Y-165020000I0J-1000000D01*
G01*
X181600000Y-90520000D02*
G75*
G02X182600000Y-91520000I0J-1000000D01*
G01*
X144100000Y-90520000D02*
G75*
G02X145100000Y-91520000I0J-1000000D01*
G01*
X106600000Y-90520000D02*
G75*
G02X107600000Y-91520000I0J-1000000D01*
G01*
X181600000Y-17020000D02*
G75*
G02X182600000Y-18020000I0J-1000000D01*
G01*
X144100000Y-17020000D02*
G75*
G02X145100000Y-18020000I0J-1000000D01*
G01*
X148100000Y-181520000D02*
X148100000Y-165020000D01*
X110600000Y-181520000D02*
X110600000Y-165020000D01*
X73100000Y-181520000D02*
X73100000Y-165020000D01*
X148100000Y-108020000D02*
X148100000Y-91520000D01*
X110600000Y-108020000D02*
X110600000Y-91520000D01*
X73100000Y-108020000D02*
X73100000Y-91520000D01*
X148100000Y-34520000D02*
X148100000Y-18020000D01*
X110600000Y-34520000D02*
X110600000Y-18020000D01*
X145100000Y-181520000D02*
X148100000Y-181520000D01*
X107600000Y-181520000D02*
X110600000Y-181520000D01*
X70100000Y-181520000D02*
X73100000Y-181520000D01*
X145100000Y-108020000D02*
X148100000Y-108020000D01*
X107600000Y-108020000D02*
X110600000Y-108020000D01*
X70100000Y-108020000D02*
X73100000Y-108020000D01*
X145100000Y-34520000D02*
X148100000Y-34520000D01*
X107600000Y-34520000D02*
X110600000Y-34520000D01*
X148100000Y-184520000D02*
X145100000Y-184520000D01*
X110600000Y-184520000D02*
X107600000Y-184520000D01*
X73100000Y-184520000D02*
X70100000Y-184520000D01*
X148100000Y-111020000D02*
X145100000Y-111020000D01*
X110600000Y-111020000D02*
X107600000Y-111020000D01*
X73100000Y-111020000D02*
X70100000Y-111020000D01*
X148100000Y-37520000D02*
X145100000Y-37520000D01*
X110600000Y-37520000D02*
X107600000Y-37520000D01*
X145100000Y-223520000D02*
X148100000Y-223520000D01*
X107600000Y-223520000D02*
X110600000Y-223520000D01*
X70100000Y-223520000D02*
X73100000Y-223520000D01*
X145100000Y-150020000D02*
X148100000Y-150020000D01*
X107600000Y-150020000D02*
X110600000Y-150020000D01*
X70100000Y-150020000D02*
X73100000Y-150020000D01*
X145100000Y-76520000D02*
X148100000Y-76520000D01*
X107600000Y-76520000D02*
X110600000Y-76520000D01*
X182600000Y-165020000D02*
X182600000Y-181520000D01*
X145100000Y-165020000D02*
X145100000Y-181520000D01*
X107600000Y-165020000D02*
X107600000Y-181520000D01*
X182600000Y-91520000D02*
X182600000Y-108020000D01*
X145100000Y-91520000D02*
X145100000Y-108020000D01*
X107600000Y-91520000D02*
X107600000Y-108020000D01*
X182600000Y-18020000D02*
X182600000Y-34520000D01*
X145100000Y-18020000D02*
X145100000Y-34520000D01*
X167100000Y-234520000D02*
X149100000Y-234520000D01*
X129600000Y-234520000D02*
X111600000Y-234520000D01*
X92100000Y-234520000D02*
X74100000Y-234520000D01*
X167100000Y-161020000D02*
X149100000Y-161020000D01*
X129600000Y-161020000D02*
X111600000Y-161020000D01*
X92100000Y-161020000D02*
X74100000Y-161020000D01*
X167100000Y-87520000D02*
X149100000Y-87520000D01*
X129600000Y-87520000D02*
X111600000Y-87520000D01*
X182600000Y-226520000D02*
X182600000Y-233520000D01*
X145100000Y-226520000D02*
X145100000Y-233520000D01*
X107600000Y-226520000D02*
X107600000Y-233520000D01*
X182600000Y-153020000D02*
X182600000Y-160020000D01*
X145100000Y-153020000D02*
X145100000Y-160020000D01*
X107600000Y-153020000D02*
X107600000Y-160020000D01*
X182600000Y-79520000D02*
X182600000Y-86520000D01*
X145100000Y-79520000D02*
X145100000Y-86520000D01*
X148100000Y-233520000D02*
X148100000Y-226520000D01*
X110600000Y-233520000D02*
X110600000Y-226520000D01*
X73100000Y-233520000D02*
X73100000Y-226520000D01*
X148100000Y-160020000D02*
X148100000Y-153020000D01*
X110600000Y-160020000D02*
X110600000Y-153020000D01*
X73100000Y-160020000D02*
X73100000Y-153020000D01*
X148100000Y-86520000D02*
X148100000Y-79520000D01*
X110600000Y-86520000D02*
X110600000Y-79520000D01*
X148100000Y-223520000D02*
X148100000Y-184520000D01*
X110600000Y-223520000D02*
X110600000Y-184520000D01*
X73100000Y-223520000D02*
X73100000Y-184520000D01*
X148100000Y-150020000D02*
X148100000Y-111020000D01*
X110600000Y-150020000D02*
X110600000Y-111020000D01*
X73100000Y-150020000D02*
X73100000Y-111020000D01*
X148100000Y-76520000D02*
X148100000Y-37520000D01*
X110600000Y-76520000D02*
X110600000Y-37520000D01*
X148100000Y-226520000D02*
X145100000Y-226520000D01*
X110600000Y-226520000D02*
X107600000Y-226520000D01*
X73100000Y-226520000D02*
X70100000Y-226520000D01*
X148100000Y-153020000D02*
X145100000Y-153020000D01*
X110600000Y-153020000D02*
X107600000Y-153020000D01*
X73100000Y-153020000D02*
X70100000Y-153020000D01*
X148100000Y-79520000D02*
X145100000Y-79520000D01*
X110600000Y-79520000D02*
X107600000Y-79520000D01*
X181600000Y-234520000D02*
X170100000Y-234520000D01*
X144100000Y-234520000D02*
X132600000Y-234520000D01*
X106600000Y-234520000D02*
X95100000Y-234520000D01*
X181600000Y-161020000D02*
X170100000Y-161020000D01*
X144100000Y-161020000D02*
X132600000Y-161020000D01*
X106600000Y-161020000D02*
X95100000Y-161020000D01*
X181600000Y-87520000D02*
X170100000Y-87520000D01*
X144100000Y-87520000D02*
X132600000Y-87520000D01*
X182600000Y-184520000D02*
X182600000Y-223520000D01*
X145100000Y-184520000D02*
X145100000Y-223520000D01*
X107600000Y-184520000D02*
X107600000Y-223520000D01*
X182600000Y-111020000D02*
X182600000Y-150020000D01*
X145100000Y-111020000D02*
X145100000Y-150020000D01*
X107600000Y-111020000D02*
X107600000Y-150020000D01*
X182600000Y-37520000D02*
X182600000Y-76520000D01*
X145100000Y-37520000D02*
X145100000Y-76520000D01*
X149100000Y-164020000D02*
X167100000Y-164020000D01*
X111600000Y-164020000D02*
X129600000Y-164020000D01*
X74100000Y-164020000D02*
X92100000Y-164020000D01*
X149100000Y-90520000D02*
X167100000Y-90520000D01*
X111600000Y-90520000D02*
X129600000Y-90520000D01*
X74100000Y-90520000D02*
X92100000Y-90520000D01*
X149100000Y-17020000D02*
X167100000Y-17020000D01*
X111600000Y-17020000D02*
X129600000Y-17020000D01*
X95100000Y-17020000D02*
X106600000Y-17020000D01*
X95100000Y-14020000D02*
X95100000Y-17020000D01*
X92100000Y-17020000D02*
X92100000Y-14020000D01*
X74100000Y-17020000D02*
X92100000Y-17020000D01*
X73100000Y-34520000D02*
X73100000Y-18020000D01*
X70100000Y-34520000D02*
X73100000Y-34520000D01*
X73100000Y-37520000D02*
X70100000Y-37520000D01*
X73100000Y-76520000D02*
X73100000Y-37520000D01*
X70100000Y-76520000D02*
X73100000Y-76520000D01*
X73100000Y-79520000D02*
X70100000Y-79520000D01*
X73100000Y-86520000D02*
X73100000Y-79520000D01*
X92100000Y-87520000D02*
X74100000Y-87520000D01*
X106600000Y-87520000D02*
X95100000Y-87520000D01*
X107600000Y-79520000D02*
X107600000Y-86520000D01*
X107600000Y-37520000D02*
X107600000Y-76520000D01*
X107600000Y-18020000D02*
X107600000Y-34520000D01*
X73100000Y-18020000D02*
G75*
G02X74100000Y-17020000I1000000J0D01*
G01*
X74100000Y-87520000D02*
G75*
G02X73100000Y-86520000I0J1000000D01*
G01*
X107600000Y-86520000D02*
G75*
G02X106600000Y-87520000I-1000000J0D01*
G01*
X106600000Y-17020000D02*
G75*
G02X107600000Y-18020000I0J-1000000D01*
G01*
M02*
