M48
;DRILL file {KiCad (5.0.0)} date 01/02/19 15:44:46
;FORMAT={-:-/ absolute / inch / decimal}
FMAT,2
INCH,TZ
T1C0.0118
T2C0.0197
T3C0.0472
T4C0.0197
T5C0.0984
T6C0.1063
%
G90
G05
M72
T1
X2.9206Y-2.4401
X2.9206Y-5.3338
X2.9206Y-8.2275
X2.9601Y-3.2441
X2.9601Y-6.1378
X2.9601Y-9.0315
X2.9681Y-1.9601
X2.9681Y-4.8538
X2.9681Y-7.7475
X2.9806Y-2.7676
X2.9806Y-2.8176
X2.9806Y-5.6613
X2.9806Y-5.7113
X2.9806Y-8.555
X2.9806Y-8.605
X3.0081Y-2.3901
X3.0081Y-2.4901
X3.0081Y-5.2838
X3.0081Y-5.3838
X3.0081Y-8.1775
X3.0081Y-8.2775
X3.0181Y-1.0251
X3.0181Y-1.0751
X3.0181Y-3.9188
X3.0181Y-3.9688
X3.0181Y-6.8125
X3.0181Y-6.8625
X3.0506Y-3.1651
X3.0506Y-3.2001
X3.0506Y-6.0588
X3.0506Y-6.0938
X3.0506Y-8.9525
X3.0506Y-8.9875
X3.0581Y-1.0251
X3.0581Y-1.0751
X3.0581Y-3.9188
X3.0581Y-3.9688
X3.0581Y-6.8125
X3.0581Y-6.8625
X3.0756Y-1.4901
X3.0756Y-4.3838
X3.0756Y-7.2775
X3.0906Y-1.3801
X3.0906Y-4.2738
X3.0906Y-7.1675
X3.0981Y-1.0251
X3.0981Y-1.0751
X3.0981Y-3.9188
X3.0981Y-3.9688
X3.0981Y-6.8125
X3.0981Y-6.8625
X3.1381Y-1.0251
X3.1381Y-1.0751
X3.1381Y-3.9188
X3.1381Y-3.9688
X3.1381Y-6.8125
X3.1381Y-6.8625
X3.1591Y-3.2651
X3.1591Y-6.1588
X3.1591Y-9.0525
X3.1661Y-2.8667
X3.1661Y-5.7604
X3.1661Y-8.6541
X3.1781Y-1.0251
X3.1781Y-1.0751
X3.1781Y-1.5201
X3.1781Y-3.9188
X3.1781Y-3.9688
X3.1781Y-4.4138
X3.1781Y-6.8125
X3.1781Y-6.8625
X3.1781Y-7.3075
X3.1821Y-3.3011
X3.1821Y-6.1948
X3.1821Y-9.0885
X3.1906Y-1.4176
X3.1906Y-4.3113
X3.1906Y-7.205
X3.2356Y-1.9476
X3.2356Y-4.8413
X3.2356Y-7.735
X3.2456Y-1.5201
X3.2456Y-4.4138
X3.2456Y-7.3075
X3.2606Y-1.9026
X3.2606Y-4.7963
X3.2606Y-7.69
X3.2631Y-1.4176
X3.2631Y-4.3113
X3.2631Y-7.205
X3.2781Y-2.5701
X3.2781Y-5.4638
X3.2781Y-8.3575
X3.2806Y-2.7701
X3.2806Y-3.1526
X3.2806Y-3.1976
X3.2806Y-5.6638
X3.2806Y-6.0463
X3.2806Y-6.0913
X3.2806Y-8.5575
X3.2806Y-8.94
X3.2806Y-8.985
X3.2831Y-2.8151
X3.2831Y-5.7088
X3.2831Y-8.6025
X3.2849Y-1.9108
X3.2849Y-4.8045
X3.2849Y-7.6982
X3.3081Y-1.0251
X3.3081Y-1.0751
X3.3081Y-3.9188
X3.3081Y-3.9688
X3.3081Y-6.8125
X3.3081Y-6.8625
X3.3156Y-1.6826
X3.3156Y-4.5763
X3.3156Y-7.47
X3.3306Y-1.3476
X3.3306Y-4.2413
X3.3306Y-7.135
X3.3312Y-1.9549
X3.3312Y-4.8486
X3.3312Y-7.7423
X3.3406Y-1.7901
X3.3406Y-4.6838
X3.3406Y-7.5775
X3.3481Y-1.0251
X3.3481Y-1.0751
X3.3481Y-3.9188
X3.3481Y-3.9688
X3.3481Y-6.8125
X3.3481Y-6.8625
X3.3731Y-1.7626
X3.3731Y-4.6563
X3.3731Y-7.55
X3.3781Y-2.0001
X3.3781Y-4.8938
X3.3781Y-7.7875
X3.3881Y-0.7201
X3.3881Y-1.0251
X3.3881Y-1.0751
X3.3881Y-3.6138
X3.3881Y-3.9188
X3.3881Y-3.9688
X3.3881Y-6.5075
X3.3881Y-6.8125
X3.3881Y-6.8625
X3.3906Y-0.8601
X3.3906Y-3.7538
X3.3906Y-6.6475
X3.392Y-2.0401
X3.392Y-4.9338
X3.392Y-7.8275
X3.3956Y-1.8976
X3.3956Y-4.7913
X3.3956Y-7.685
X3.4181Y-1.9201
X3.4181Y-4.8138
X3.4181Y-7.7075
X3.4256Y-1.7026
X3.4256Y-4.5963
X3.4256Y-7.49
X3.4281Y-1.0251
X3.4281Y-1.0751
X3.4281Y-3.9188
X3.4281Y-3.9688
X3.4281Y-6.8125
X3.4281Y-6.8625
X3.4981Y-1.3801
X3.4981Y-4.2738
X3.4981Y-7.1675
X3.5306Y-1.9726
X3.5306Y-4.8663
X3.5306Y-7.76
X3.5381Y-0.8901
X3.5381Y-2.8101
X3.5381Y-3.7838
X3.5381Y-5.7038
X3.5381Y-6.6775
X3.5381Y-8.5975
X3.5406Y-2.6751
X3.5406Y-5.5688
X3.5406Y-8.4625
X3.5606Y-2.2876
X3.5606Y-5.1813
X3.5606Y-8.075
X3.5631Y-2.2191
X3.5631Y-5.1128
X3.5631Y-8.0065
X3.5806Y-1.9176
X3.5806Y-4.8113
X3.5806Y-7.705
X3.5881Y-2.6426
X3.5881Y-5.5363
X3.5881Y-8.43
X3.5931Y-2.5226
X3.5931Y-5.4163
X3.5931Y-8.31
X3.5961Y-1.7375
X3.5961Y-4.6312
X3.5961Y-7.5249
X3.6081Y-2.2501
X3.6081Y-5.1438
X3.6081Y-8.0375
X3.6106Y-2.1501
X3.6106Y-5.0438
X3.6106Y-7.9375
X3.6331Y-3.0885
X3.6331Y-5.9822
X3.6331Y-8.8759
X3.6481Y-1.8501
X3.6481Y-4.7438
X3.6481Y-7.6375
X3.6516Y-1.9862
X3.6516Y-4.8799
X3.6516Y-7.7736
X3.6606Y-1.6126
X3.6606Y-4.5063
X3.6606Y-7.4
X3.6701Y-2.9041
X3.6701Y-2.9641
X3.6701Y-5.7978
X3.6701Y-5.8578
X3.6701Y-8.6915
X3.6701Y-8.7515
X3.6931Y-2.4676
X3.6931Y-5.3613
X3.6931Y-8.255
X3.7001Y-2.9341
X3.7001Y-5.8278
X3.7001Y-8.7215
X3.7006Y-3.087
X3.7006Y-5.9807
X3.7006Y-8.8744
X3.7081Y-1.6874
X3.7081Y-4.5811
X3.7081Y-7.4748
X3.7231Y-0.7801
X3.7231Y-3.6738
X3.7231Y-6.5675
X3.7281Y-2.1626
X3.7281Y-5.0563
X3.7281Y-7.95
X3.7301Y-2.9041
X3.7301Y-2.9641
X3.7301Y-5.7978
X3.7301Y-5.8578
X3.7301Y-8.6915
X3.7301Y-8.7515
X3.7406Y-2.5501
X3.7406Y-5.4438
X3.7406Y-8.3375
X3.7556Y-2.2001
X3.7556Y-5.0938
X3.7556Y-7.9875
X3.7631Y-1.5286
X3.7631Y-1.8801
X3.7631Y-3.087
X3.7631Y-4.4223
X3.7631Y-4.7738
X3.7631Y-5.9807
X3.7631Y-7.316
X3.7631Y-7.6675
X3.7631Y-8.8744
X3.7681Y-0.7751
X3.7681Y-3.6688
X3.7681Y-6.5625
X3.7881Y-2.6726
X3.7881Y-5.5663
X3.7881Y-8.46
X3.7901Y-2.5384
X3.7901Y-2.9041
X3.7901Y-2.9641
X3.7901Y-5.4321
X3.7901Y-5.7978
X3.7901Y-5.8578
X3.7901Y-8.3258
X3.7901Y-8.6915
X3.7901Y-8.7515
X3.8131Y-1.8401
X3.8131Y-4.7338
X3.8131Y-7.6275
X3.8201Y-2.9341
X3.8201Y-5.8278
X3.8201Y-8.7215
X3.8281Y-3.0876
X3.8281Y-5.9813
X3.8281Y-8.875
X3.8406Y-0.7826
X3.8406Y-2.5451
X3.8406Y-2.6676
X3.8406Y-3.6763
X3.8406Y-5.4388
X3.8406Y-5.5613
X3.8406Y-6.57
X3.8406Y-8.3325
X3.8406Y-8.455
X3.8501Y-2.9041
X3.8501Y-2.9641
X3.8501Y-5.7978
X3.8501Y-5.8578
X3.8501Y-8.6915
X3.8501Y-8.7515
X3.8631Y-1.9101
X3.8631Y-2.6076
X3.8631Y-4.8038
X3.8631Y-5.5013
X3.8631Y-7.6975
X3.8631Y-8.395
X3.8706Y-1.2406
X3.8706Y-4.1343
X3.8706Y-7.028
X3.8731Y-2.5726
X3.8731Y-5.4663
X3.8731Y-8.36
X3.8831Y-1.8451
X3.8831Y-2.2626
X3.8831Y-4.7388
X3.8831Y-5.1563
X3.8831Y-7.6325
X3.8831Y-8.05
X3.8931Y-3.0885
X3.8931Y-5.9822
X3.8931Y-8.8759
X3.9081Y-2.6051
X3.9081Y-5.4988
X3.9081Y-8.3925
X3.9156Y-2.0976
X3.9156Y-4.9913
X3.9156Y-7.885
X3.9206Y-2.8826
X3.9206Y-5.7763
X3.9206Y-8.67
X3.9431Y-1.2051
X3.9431Y-4.0988
X3.9431Y-6.9925
X3.9456Y-2.6476
X3.9456Y-5.5413
X3.9456Y-8.435
X3.9606Y-2.1251
X3.9606Y-5.0188
X3.9606Y-7.9125
X3.9781Y-2.7601
X3.9781Y-5.6538
X3.9781Y-8.5475
X3.9856Y-2.1676
X3.9856Y-5.0613
X3.9856Y-7.955
X3.9881Y-3.0101
X3.9881Y-5.9038
X3.9881Y-8.7975
X4.0006Y-2.2326
X4.0006Y-5.1263
X4.0006Y-8.02
X4.0056Y-1.3326
X4.0056Y-1.3801
X4.0056Y-1.4301
X4.0056Y-4.2263
X4.0056Y-4.2738
X4.0056Y-4.3238
X4.0056Y-7.12
X4.0056Y-7.1675
X4.0056Y-7.2175
X4.0144Y-2.1491
X4.0144Y-5.0428
X4.0144Y-7.9365
X4.0206Y-2.5726
X4.0206Y-5.4663
X4.0206Y-8.36
X4.0281Y-2.7601
X4.0281Y-3.0101
X4.0281Y-5.6538
X4.0281Y-5.9038
X4.0281Y-8.5475
X4.0281Y-8.7975
X4.0631Y-1.6601
X4.0631Y-4.5538
X4.0631Y-7.4475
X4.0656Y-1.7276
X4.0656Y-1.7876
X4.0656Y-4.6213
X4.0656Y-4.6813
X4.0656Y-7.515
X4.0656Y-7.575
X4.0781Y-2.7601
X4.0781Y-5.6538
X4.0781Y-8.5475
X4.0856Y-3.1626
X4.0856Y-6.0563
X4.0856Y-8.95
X4.1156Y-1.4176
X4.1156Y-1.5501
X4.1156Y-4.3113
X4.1156Y-4.4438
X4.1156Y-7.205
X4.1156Y-7.3375
X4.1256Y-2.0776
X4.1256Y-4.9713
X4.1256Y-7.865
X4.1281Y-2.7601
X4.1281Y-5.6538
X4.1281Y-8.5475
X4.1381Y-3.1501
X4.1381Y-6.0438
X4.1381Y-8.9375
X4.1456Y-2.4385
X4.1456Y-5.3322
X4.1456Y-8.2259
X4.1656Y-1.9376
X4.1656Y-4.8313
X4.1656Y-7.725
X4.1706Y-1.8751
X4.1706Y-4.7688
X4.1706Y-7.6625
X4.1906Y-2.6776
X4.1906Y-2.8026
X4.1906Y-5.5713
X4.1906Y-5.6963
X4.1906Y-8.465
X4.1906Y-8.59
X4.1946Y-1.3311
X4.1946Y-4.2248
X4.1946Y-7.1185
X4.397Y-2.4401
X4.397Y-5.3338
X4.397Y-8.2275
X4.4365Y-3.2441
X4.4365Y-6.1378
X4.4365Y-9.0315
X4.4445Y-1.9601
X4.4445Y-4.8538
X4.4445Y-7.7475
X4.457Y-2.7676
X4.457Y-2.8176
X4.457Y-5.6613
X4.457Y-5.7113
X4.457Y-8.555
X4.457Y-8.605
X4.4845Y-2.3901
X4.4845Y-2.4901
X4.4845Y-5.2838
X4.4845Y-5.3838
X4.4845Y-8.1775
X4.4845Y-8.2775
X4.4945Y-1.0251
X4.4945Y-1.0751
X4.4945Y-3.9188
X4.4945Y-3.9688
X4.4945Y-6.8125
X4.4945Y-6.8625
X4.527Y-3.1651
X4.527Y-3.2001
X4.527Y-6.0588
X4.527Y-6.0938
X4.527Y-8.9525
X4.527Y-8.9875
X4.5345Y-1.0251
X4.5345Y-1.0751
X4.5345Y-3.9188
X4.5345Y-3.9688
X4.5345Y-6.8125
X4.5345Y-6.8625
X4.552Y-1.4901
X4.552Y-4.3838
X4.552Y-7.2775
X4.567Y-1.3801
X4.567Y-4.2738
X4.567Y-7.1675
X4.5745Y-1.0251
X4.5745Y-1.0751
X4.5745Y-3.9188
X4.5745Y-3.9688
X4.5745Y-6.8125
X4.5745Y-6.8625
X4.6145Y-1.0251
X4.6145Y-1.0751
X4.6145Y-3.9188
X4.6145Y-3.9688
X4.6145Y-6.8125
X4.6145Y-6.8625
X4.6355Y-3.2651
X4.6355Y-6.1588
X4.6355Y-9.0525
X4.6425Y-2.8667
X4.6425Y-5.7604
X4.6425Y-8.6541
X4.6545Y-1.0251
X4.6545Y-1.0751
X4.6545Y-1.5201
X4.6545Y-3.9188
X4.6545Y-3.9688
X4.6545Y-4.4138
X4.6545Y-6.8125
X4.6545Y-6.8625
X4.6545Y-7.3075
X4.6585Y-3.3011
X4.6585Y-6.1948
X4.6585Y-9.0885
X4.667Y-1.4176
X4.667Y-4.3113
X4.667Y-7.205
X4.712Y-1.9476
X4.712Y-4.8413
X4.712Y-7.735
X4.722Y-1.5201
X4.722Y-4.4138
X4.722Y-7.3075
X4.737Y-1.9026
X4.737Y-4.7963
X4.737Y-7.69
X4.7395Y-1.4176
X4.7395Y-4.3113
X4.7395Y-7.205
X4.7545Y-2.5701
X4.7545Y-5.4638
X4.7545Y-8.3575
X4.757Y-2.7701
X4.757Y-3.1526
X4.757Y-3.1976
X4.757Y-5.6638
X4.757Y-6.0463
X4.757Y-6.0913
X4.757Y-8.5575
X4.757Y-8.94
X4.757Y-8.985
X4.7595Y-2.8151
X4.7595Y-5.7088
X4.7595Y-8.6025
X4.7613Y-1.9108
X4.7613Y-4.8045
X4.7613Y-7.6982
X4.7845Y-1.0251
X4.7845Y-1.0751
X4.7845Y-3.9188
X4.7845Y-3.9688
X4.7845Y-6.8125
X4.7845Y-6.8625
X4.792Y-1.6826
X4.792Y-4.5763
X4.792Y-7.47
X4.807Y-1.3476
X4.807Y-4.2413
X4.807Y-7.135
X4.8076Y-1.9549
X4.8076Y-4.8486
X4.8076Y-7.7423
X4.817Y-1.7901
X4.817Y-4.6838
X4.817Y-7.5775
X4.8245Y-1.0251
X4.8245Y-1.0751
X4.8245Y-3.9188
X4.8245Y-3.9688
X4.8245Y-6.8125
X4.8245Y-6.8625
X4.8495Y-1.7626
X4.8495Y-4.6563
X4.8495Y-7.55
X4.8545Y-2.0001
X4.8545Y-4.8938
X4.8545Y-7.7875
X4.8645Y-0.7201
X4.8645Y-1.0251
X4.8645Y-1.0751
X4.8645Y-3.6138
X4.8645Y-3.9188
X4.8645Y-3.9688
X4.8645Y-6.5075
X4.8645Y-6.8125
X4.8645Y-6.8625
X4.867Y-0.8601
X4.867Y-3.7538
X4.867Y-6.6475
X4.8683Y-2.0401
X4.8683Y-4.9338
X4.8683Y-7.8275
X4.872Y-1.8976
X4.872Y-4.7913
X4.872Y-7.685
X4.8945Y-1.9201
X4.8945Y-4.8138
X4.8945Y-7.7075
X4.902Y-1.7026
X4.902Y-4.5963
X4.902Y-7.49
X4.9045Y-1.0251
X4.9045Y-1.0751
X4.9045Y-3.9188
X4.9045Y-3.9688
X4.9045Y-6.8125
X4.9045Y-6.8625
X4.9745Y-1.3801
X4.9745Y-4.2738
X4.9745Y-7.1675
X5.007Y-1.9726
X5.007Y-4.8663
X5.007Y-7.76
X5.0145Y-0.8901
X5.0145Y-2.8101
X5.0145Y-3.7838
X5.0145Y-5.7038
X5.0145Y-6.6775
X5.0145Y-8.5975
X5.017Y-2.6751
X5.017Y-5.5688
X5.017Y-8.4625
X5.037Y-2.2876
X5.037Y-5.1813
X5.037Y-8.075
X5.0395Y-2.2191
X5.0395Y-5.1128
X5.0395Y-8.0065
X5.057Y-1.9176
X5.057Y-4.8113
X5.057Y-7.705
X5.0645Y-2.6426
X5.0645Y-5.5363
X5.0645Y-8.43
X5.0695Y-2.5226
X5.0695Y-5.4163
X5.0695Y-8.31
X5.0725Y-1.7375
X5.0725Y-4.6312
X5.0725Y-7.5249
X5.0845Y-2.2501
X5.0845Y-5.1438
X5.0845Y-8.0375
X5.087Y-2.1501
X5.087Y-5.0438
X5.087Y-7.9375
X5.1095Y-3.0885
X5.1095Y-5.9822
X5.1095Y-8.8759
X5.1245Y-1.8501
X5.1245Y-4.7438
X5.1245Y-7.6375
X5.128Y-1.9862
X5.128Y-4.8799
X5.128Y-7.7736
X5.137Y-1.6126
X5.137Y-4.5063
X5.137Y-7.4
X5.1465Y-2.9041
X5.1465Y-2.9641
X5.1465Y-5.7978
X5.1465Y-5.8578
X5.1465Y-8.6915
X5.1465Y-8.7515
X5.1695Y-2.4676
X5.1695Y-5.3613
X5.1695Y-8.255
X5.1765Y-2.9341
X5.1765Y-5.8278
X5.1765Y-8.7215
X5.177Y-3.087
X5.177Y-5.9807
X5.177Y-8.8744
X5.1845Y-1.6874
X5.1845Y-4.5811
X5.1845Y-7.4748
X5.1995Y-0.7801
X5.1995Y-3.6738
X5.1995Y-6.5675
X5.2045Y-2.1626
X5.2045Y-5.0563
X5.2045Y-7.95
X5.2065Y-2.9041
X5.2065Y-2.9641
X5.2065Y-5.7978
X5.2065Y-5.8578
X5.2065Y-8.6915
X5.2065Y-8.7515
X5.217Y-2.5501
X5.217Y-5.4438
X5.217Y-8.3375
X5.232Y-2.2001
X5.232Y-5.0938
X5.232Y-7.9875
X5.2395Y-1.5286
X5.2395Y-1.8801
X5.2395Y-3.087
X5.2395Y-4.4223
X5.2395Y-4.7738
X5.2395Y-5.9807
X5.2395Y-7.316
X5.2395Y-7.6675
X5.2395Y-8.8744
X5.2445Y-0.7751
X5.2445Y-3.6688
X5.2445Y-6.5625
X5.2645Y-2.6726
X5.2645Y-5.5663
X5.2645Y-8.46
X5.2665Y-2.5384
X5.2665Y-2.9041
X5.2665Y-2.9641
X5.2665Y-5.4321
X5.2665Y-5.7978
X5.2665Y-5.8578
X5.2665Y-8.3258
X5.2665Y-8.6915
X5.2665Y-8.7515
X5.2895Y-1.8401
X5.2895Y-4.7338
X5.2895Y-7.6275
X5.2965Y-2.9341
X5.2965Y-5.8278
X5.2965Y-8.7215
X5.3045Y-3.0876
X5.3045Y-5.9813
X5.3045Y-8.875
X5.317Y-0.7826
X5.317Y-2.5451
X5.317Y-2.6676
X5.317Y-3.6763
X5.317Y-5.4388
X5.317Y-5.5613
X5.317Y-6.57
X5.317Y-8.3325
X5.317Y-8.455
X5.3265Y-2.9041
X5.3265Y-2.9641
X5.3265Y-5.7978
X5.3265Y-5.8578
X5.3265Y-8.6915
X5.3265Y-8.7515
X5.3395Y-1.9101
X5.3395Y-2.6076
X5.3395Y-4.8038
X5.3395Y-5.5013
X5.3395Y-7.6975
X5.3395Y-8.395
X5.347Y-1.2406
X5.347Y-4.1343
X5.347Y-7.028
X5.3495Y-2.5726
X5.3495Y-5.4663
X5.3495Y-8.36
X5.3595Y-1.8451
X5.3595Y-2.2626
X5.3595Y-4.7388
X5.3595Y-5.1563
X5.3595Y-7.6325
X5.3595Y-8.05
X5.3695Y-3.0885
X5.3695Y-5.9822
X5.3695Y-8.8759
X5.3845Y-2.6051
X5.3845Y-5.4988
X5.3845Y-8.3925
X5.392Y-2.0976
X5.392Y-4.9913
X5.392Y-7.885
X5.397Y-2.8826
X5.397Y-5.7763
X5.397Y-8.67
X5.4195Y-1.2051
X5.4195Y-4.0988
X5.4195Y-6.9925
X5.422Y-2.6476
X5.422Y-5.5413
X5.422Y-8.435
X5.437Y-2.1251
X5.437Y-5.0188
X5.437Y-7.9125
X5.4545Y-2.7601
X5.4545Y-5.6538
X5.4545Y-8.5475
X5.462Y-2.1676
X5.462Y-5.0613
X5.462Y-7.955
X5.4645Y-3.0101
X5.4645Y-5.9038
X5.4645Y-8.7975
X5.477Y-2.2326
X5.477Y-5.1263
X5.477Y-8.02
X5.482Y-1.3326
X5.482Y-1.3801
X5.482Y-1.4301
X5.482Y-4.2263
X5.482Y-4.2738
X5.482Y-4.3238
X5.482Y-7.12
X5.482Y-7.1675
X5.482Y-7.2175
X5.4907Y-2.1491
X5.4907Y-5.0428
X5.4907Y-7.9365
X5.497Y-2.5726
X5.497Y-5.4663
X5.497Y-8.36
X5.5045Y-2.7601
X5.5045Y-3.0101
X5.5045Y-5.6538
X5.5045Y-5.9038
X5.5045Y-8.5475
X5.5045Y-8.7975
X5.5395Y-1.6601
X5.5395Y-4.5538
X5.5395Y-7.4475
X5.542Y-1.7276
X5.542Y-1.7876
X5.542Y-4.6213
X5.542Y-4.6813
X5.542Y-7.515
X5.542Y-7.575
X5.5545Y-2.7601
X5.5545Y-5.6538
X5.5545Y-8.5475
X5.562Y-3.1626
X5.562Y-6.0563
X5.562Y-8.95
X5.592Y-1.4176
X5.592Y-1.5501
X5.592Y-4.3113
X5.592Y-4.4438
X5.592Y-7.205
X5.592Y-7.3375
X5.602Y-2.0776
X5.602Y-4.9713
X5.602Y-7.865
X5.6045Y-2.7601
X5.6045Y-5.6538
X5.6045Y-8.5475
X5.6145Y-3.1501
X5.6145Y-6.0438
X5.6145Y-8.9375
X5.622Y-2.4385
X5.622Y-5.3322
X5.622Y-8.2259
X5.642Y-1.9376
X5.642Y-4.8313
X5.642Y-7.725
X5.647Y-1.8751
X5.647Y-4.7688
X5.647Y-7.6625
X5.667Y-2.6776
X5.667Y-2.8026
X5.667Y-5.5713
X5.667Y-5.6963
X5.667Y-8.465
X5.667Y-8.59
X5.671Y-1.3311
X5.671Y-4.2248
X5.671Y-7.1185
X5.8734Y-2.4401
X5.8734Y-5.3338
X5.8734Y-8.2275
X5.9129Y-3.2441
X5.9129Y-6.1378
X5.9129Y-9.0315
X5.9209Y-1.9601
X5.9209Y-4.8538
X5.9209Y-7.7475
X5.9334Y-2.7676
X5.9334Y-2.8176
X5.9334Y-5.6613
X5.9334Y-5.7113
X5.9334Y-8.555
X5.9334Y-8.605
X5.9609Y-2.3901
X5.9609Y-2.4901
X5.9609Y-5.2838
X5.9609Y-5.3838
X5.9609Y-8.1775
X5.9609Y-8.2775
X5.9709Y-1.0251
X5.9709Y-1.0751
X5.9709Y-3.9188
X5.9709Y-3.9688
X5.9709Y-6.8125
X5.9709Y-6.8625
X6.0034Y-3.1651
X6.0034Y-3.2001
X6.0034Y-6.0588
X6.0034Y-6.0938
X6.0034Y-8.9525
X6.0034Y-8.9875
X6.0109Y-1.0251
X6.0109Y-1.0751
X6.0109Y-3.9188
X6.0109Y-3.9688
X6.0109Y-6.8125
X6.0109Y-6.8625
X6.0284Y-1.4901
X6.0284Y-4.3838
X6.0284Y-7.2775
X6.0434Y-1.3801
X6.0434Y-4.2738
X6.0434Y-7.1675
X6.0509Y-1.0251
X6.0509Y-1.0751
X6.0509Y-3.9188
X6.0509Y-3.9688
X6.0509Y-6.8125
X6.0509Y-6.8625
X6.0909Y-1.0251
X6.0909Y-1.0751
X6.0909Y-3.9188
X6.0909Y-3.9688
X6.0909Y-6.8125
X6.0909Y-6.8625
X6.1119Y-3.2651
X6.1119Y-6.1588
X6.1119Y-9.0525
X6.1189Y-2.8667
X6.1189Y-5.7604
X6.1189Y-8.6541
X6.1309Y-1.0251
X6.1309Y-1.0751
X6.1309Y-1.5201
X6.1309Y-3.9188
X6.1309Y-3.9688
X6.1309Y-4.4138
X6.1309Y-6.8125
X6.1309Y-6.8625
X6.1309Y-7.3075
X6.1349Y-3.3011
X6.1349Y-6.1948
X6.1349Y-9.0885
X6.1434Y-1.4176
X6.1434Y-4.3113
X6.1434Y-7.205
X6.1884Y-1.9476
X6.1884Y-4.8413
X6.1884Y-7.735
X6.1984Y-1.5201
X6.1984Y-4.4138
X6.1984Y-7.3075
X6.2134Y-1.9026
X6.2134Y-4.7963
X6.2134Y-7.69
X6.2159Y-1.4176
X6.2159Y-4.3113
X6.2159Y-7.205
X6.2309Y-2.5701
X6.2309Y-5.4638
X6.2309Y-8.3575
X6.2334Y-2.7701
X6.2334Y-3.1526
X6.2334Y-3.1976
X6.2334Y-5.6638
X6.2334Y-6.0463
X6.2334Y-6.0913
X6.2334Y-8.5575
X6.2334Y-8.94
X6.2334Y-8.985
X6.2359Y-2.8151
X6.2359Y-5.7088
X6.2359Y-8.6025
X6.2377Y-1.9108
X6.2377Y-4.8045
X6.2377Y-7.6982
X6.2609Y-1.0251
X6.2609Y-1.0751
X6.2609Y-3.9188
X6.2609Y-3.9688
X6.2609Y-6.8125
X6.2609Y-6.8625
X6.2684Y-1.6826
X6.2684Y-4.5763
X6.2684Y-7.47
X6.2834Y-1.3476
X6.2834Y-4.2413
X6.2834Y-7.135
X6.284Y-1.9549
X6.284Y-4.8486
X6.284Y-7.7423
X6.2934Y-1.7901
X6.2934Y-4.6838
X6.2934Y-7.5775
X6.3009Y-1.0251
X6.3009Y-1.0751
X6.3009Y-3.9188
X6.3009Y-3.9688
X6.3009Y-6.8125
X6.3009Y-6.8625
X6.3259Y-1.7626
X6.3259Y-4.6563
X6.3259Y-7.55
X6.3309Y-2.0001
X6.3309Y-4.8938
X6.3309Y-7.7875
X6.3409Y-0.7201
X6.3409Y-1.0251
X6.3409Y-1.0751
X6.3409Y-3.6138
X6.3409Y-3.9188
X6.3409Y-3.9688
X6.3409Y-6.5075
X6.3409Y-6.8125
X6.3409Y-6.8625
X6.3434Y-0.8601
X6.3434Y-3.7538
X6.3434Y-6.6475
X6.3447Y-2.0401
X6.3447Y-4.9338
X6.3447Y-7.8275
X6.3484Y-1.8976
X6.3484Y-4.7913
X6.3484Y-7.685
X6.3709Y-1.9201
X6.3709Y-4.8138
X6.3709Y-7.7075
X6.3784Y-1.7026
X6.3784Y-4.5963
X6.3784Y-7.49
X6.3809Y-1.0251
X6.3809Y-1.0751
X6.3809Y-3.9188
X6.3809Y-3.9688
X6.3809Y-6.8125
X6.3809Y-6.8625
X6.4509Y-1.3801
X6.4509Y-4.2738
X6.4509Y-7.1675
X6.4834Y-1.9726
X6.4834Y-4.8663
X6.4834Y-7.76
X6.4909Y-0.8901
X6.4909Y-2.8101
X6.4909Y-3.7838
X6.4909Y-5.7038
X6.4909Y-6.6775
X6.4909Y-8.5975
X6.4934Y-2.6751
X6.4934Y-5.5688
X6.4934Y-8.4625
X6.5134Y-2.2876
X6.5134Y-5.1813
X6.5134Y-8.075
X6.5159Y-2.2191
X6.5159Y-5.1128
X6.5159Y-8.0065
X6.5334Y-1.9176
X6.5334Y-4.8113
X6.5334Y-7.705
X6.5409Y-2.6426
X6.5409Y-5.5363
X6.5409Y-8.43
X6.5459Y-2.5226
X6.5459Y-5.4163
X6.5459Y-8.31
X6.5489Y-1.7375
X6.5489Y-4.6312
X6.5489Y-7.5249
X6.5609Y-2.2501
X6.5609Y-5.1438
X6.5609Y-8.0375
X6.5634Y-2.1501
X6.5634Y-5.0438
X6.5634Y-7.9375
X6.5859Y-3.0885
X6.5859Y-5.9822
X6.5859Y-8.8759
X6.6009Y-1.8501
X6.6009Y-4.7438
X6.6009Y-7.6375
X6.6044Y-1.9862
X6.6044Y-4.8799
X6.6044Y-7.7736
X6.6134Y-1.6126
X6.6134Y-4.5063
X6.6134Y-7.4
X6.6229Y-2.9041
X6.6229Y-2.9641
X6.6229Y-5.7978
X6.6229Y-5.8578
X6.6229Y-8.6915
X6.6229Y-8.7515
X6.6459Y-2.4676
X6.6459Y-5.3613
X6.6459Y-8.255
X6.6529Y-2.9341
X6.6529Y-5.8278
X6.6529Y-8.7215
X6.6534Y-3.087
X6.6534Y-5.9807
X6.6534Y-8.8744
X6.6609Y-1.6874
X6.6609Y-4.5811
X6.6609Y-7.4748
X6.6759Y-0.7801
X6.6759Y-3.6738
X6.6759Y-6.5675
X6.6809Y-2.1626
X6.6809Y-5.0563
X6.6809Y-7.95
X6.6829Y-2.9041
X6.6829Y-2.9641
X6.6829Y-5.7978
X6.6829Y-5.8578
X6.6829Y-8.6915
X6.6829Y-8.7515
X6.6934Y-2.5501
X6.6934Y-5.4438
X6.6934Y-8.3375
X6.7084Y-2.2001
X6.7084Y-5.0938
X6.7084Y-7.9875
X6.7159Y-1.5286
X6.7159Y-1.8801
X6.7159Y-3.087
X6.7159Y-4.4223
X6.7159Y-4.7738
X6.7159Y-5.9807
X6.7159Y-7.316
X6.7159Y-7.6675
X6.7159Y-8.8744
X6.7209Y-0.7751
X6.7209Y-3.6688
X6.7209Y-6.5625
X6.7409Y-2.6726
X6.7409Y-5.5663
X6.7409Y-8.46
X6.7429Y-2.5384
X6.7429Y-2.9041
X6.7429Y-2.9641
X6.7429Y-5.4321
X6.7429Y-5.7978
X6.7429Y-5.8578
X6.7429Y-8.3258
X6.7429Y-8.6915
X6.7429Y-8.7515
X6.7659Y-1.8401
X6.7659Y-4.7338
X6.7659Y-7.6275
X6.7729Y-2.9341
X6.7729Y-5.8278
X6.7729Y-8.7215
X6.7809Y-3.0876
X6.7809Y-5.9813
X6.7809Y-8.875
X6.7934Y-0.7826
X6.7934Y-2.5451
X6.7934Y-2.6676
X6.7934Y-3.6763
X6.7934Y-5.4388
X6.7934Y-5.5613
X6.7934Y-6.57
X6.7934Y-8.3325
X6.7934Y-8.455
X6.8029Y-2.9041
X6.8029Y-2.9641
X6.8029Y-5.7978
X6.8029Y-5.8578
X6.8029Y-8.6915
X6.8029Y-8.7515
X6.8159Y-1.9101
X6.8159Y-2.6076
X6.8159Y-4.8038
X6.8159Y-5.5013
X6.8159Y-7.6975
X6.8159Y-8.395
X6.8234Y-1.2406
X6.8234Y-4.1343
X6.8234Y-7.028
X6.8259Y-2.5726
X6.8259Y-5.4663
X6.8259Y-8.36
X6.8359Y-1.8451
X6.8359Y-2.2626
X6.8359Y-4.7388
X6.8359Y-5.1563
X6.8359Y-7.6325
X6.8359Y-8.05
X6.8459Y-3.0885
X6.8459Y-5.9822
X6.8459Y-8.8759
X6.8609Y-2.6051
X6.8609Y-5.4988
X6.8609Y-8.3925
X6.8684Y-2.0976
X6.8684Y-4.9913
X6.8684Y-7.885
X6.8734Y-2.8826
X6.8734Y-5.7763
X6.8734Y-8.67
X6.8959Y-1.2051
X6.8959Y-4.0988
X6.8959Y-6.9925
X6.8984Y-2.6476
X6.8984Y-5.5413
X6.8984Y-8.435
X6.9134Y-2.1251
X6.9134Y-5.0188
X6.9134Y-7.9125
X6.9309Y-2.7601
X6.9309Y-5.6538
X6.9309Y-8.5475
X6.9384Y-2.1676
X6.9384Y-5.0613
X6.9384Y-7.955
X6.9409Y-3.0101
X6.9409Y-5.9038
X6.9409Y-8.7975
X6.9534Y-2.2326
X6.9534Y-5.1263
X6.9534Y-8.02
X6.9584Y-1.3326
X6.9584Y-1.3801
X6.9584Y-1.4301
X6.9584Y-4.2263
X6.9584Y-4.2738
X6.9584Y-4.3238
X6.9584Y-7.12
X6.9584Y-7.1675
X6.9584Y-7.2175
X6.9671Y-2.1491
X6.9671Y-5.0428
X6.9671Y-7.9365
X6.9734Y-2.5726
X6.9734Y-5.4663
X6.9734Y-8.36
X6.9809Y-2.7601
X6.9809Y-3.0101
X6.9809Y-5.6538
X6.9809Y-5.9038
X6.9809Y-8.5475
X6.9809Y-8.7975
X7.0159Y-1.6601
X7.0159Y-4.5538
X7.0159Y-7.4475
X7.0184Y-1.7276
X7.0184Y-1.7876
X7.0184Y-4.6213
X7.0184Y-4.6813
X7.0184Y-7.515
X7.0184Y-7.575
X7.0309Y-2.7601
X7.0309Y-5.6538
X7.0309Y-8.5475
X7.0384Y-3.1626
X7.0384Y-6.0563
X7.0384Y-8.95
X7.0684Y-1.4176
X7.0684Y-1.5501
X7.0684Y-4.3113
X7.0684Y-4.4438
X7.0684Y-7.205
X7.0684Y-7.3375
X7.0784Y-2.0776
X7.0784Y-4.9713
X7.0784Y-7.865
X7.0809Y-2.7601
X7.0809Y-5.6538
X7.0809Y-8.5475
X7.0909Y-3.1501
X7.0909Y-6.0438
X7.0909Y-8.9375
X7.0984Y-2.4385
X7.0984Y-5.3322
X7.0984Y-8.2259
X7.1184Y-1.9376
X7.1184Y-4.8313
X7.1184Y-7.725
X7.1234Y-1.8751
X7.1234Y-4.7688
X7.1234Y-7.6625
X7.1434Y-2.6776
X7.1434Y-2.8026
X7.1434Y-5.5713
X7.1434Y-5.6963
X7.1434Y-8.465
X7.1434Y-8.59
X7.1474Y-1.3311
X7.1474Y-4.2248
X7.1474Y-7.1185
T4
X4.2362Y-1.3709
X4.2362Y-1.4181
X4.2362Y-1.4654
X4.3543Y-1.3709
X4.3543Y-1.4181
X4.3543Y-1.4654
X2.7598Y-4.2646
X2.7598Y-4.3118
X2.7598Y-4.3591
X2.878Y-4.2646
X2.878Y-4.3118
X2.878Y-4.3591
X5.1142Y-3.4457
X5.1142Y-3.5638
X5.1614Y-3.4457
X5.1614Y-3.5638
X5.2087Y-3.4457
X5.2087Y-3.5638
X5.1142Y-9.2331
X5.1142Y-9.3512
X5.1614Y-9.2331
X5.1614Y-9.3512
X5.2087Y-9.2331
X5.2087Y-9.3512
X5.1142Y-0.552
X5.1142Y-0.6701
X5.1614Y-0.552
X5.1614Y-0.6701
X5.2087Y-0.552
X5.2087Y-0.6701
X5.7126Y-4.2646
X5.7126Y-4.3118
X5.7126Y-4.3591
X5.8307Y-4.2646
X5.8307Y-4.3118
X5.8307Y-4.3591
X7.189Y-7.1583
X7.189Y-7.2055
X7.189Y-7.2528
X7.3071Y-7.1583
X7.3071Y-7.2055
X7.3071Y-7.2528
X3.6378Y-0.552
X3.6378Y-0.6701
X3.685Y-0.552
X3.685Y-0.6701
X3.7323Y-0.552
X3.7323Y-0.6701
X2.7598Y-1.3709
X2.7598Y-1.4181
X2.7598Y-1.4654
X2.878Y-1.3709
X2.878Y-1.4181
X2.878Y-1.4654
X5.7126Y-1.3709
X5.7126Y-1.4181
X5.7126Y-1.4654
X5.8307Y-1.3709
X5.8307Y-1.4181
X5.8307Y-1.4654
X6.5906Y-9.2331
X6.5906Y-9.3512
X6.6378Y-9.2331
X6.6378Y-9.3512
X6.685Y-9.2331
X6.685Y-9.3512
X3.6378Y-9.2331
X3.6378Y-9.3512
X3.685Y-9.2331
X3.685Y-9.3512
X3.7323Y-9.2331
X3.7323Y-9.3512
X6.5906Y-0.552
X6.5906Y-0.6701
X6.6378Y-0.552
X6.6378Y-0.6701
X6.685Y-0.552
X6.685Y-0.6701
X7.189Y-3.0244
X7.189Y-3.0717
X7.189Y-3.1189
X7.3071Y-3.0244
X7.3071Y-3.0717
X7.3071Y-3.1189
X3.6378Y-3.4457
X3.6378Y-3.5638
X3.685Y-3.4457
X3.685Y-3.5638
X3.7323Y-3.4457
X3.7323Y-3.5638
X5.7126Y-3.0244
X5.7126Y-3.0717
X5.7126Y-3.1189
X5.8307Y-3.0244
X5.8307Y-3.0717
X5.8307Y-3.1189
X7.189Y-8.8118
X7.189Y-8.8591
X7.189Y-8.9063
X7.3071Y-8.8118
X7.3071Y-8.8591
X7.3071Y-8.9063
X4.2362Y-4.2646
X4.2362Y-4.3118
X4.2362Y-4.3591
X4.3543Y-4.2646
X4.3543Y-4.3118
X4.3543Y-4.3591
X4.2362Y-3.0244
X4.2362Y-3.0717
X4.2362Y-3.1189
X4.3543Y-3.0244
X4.3543Y-3.0717
X4.3543Y-3.1189
X4.2362Y-5.9181
X4.2362Y-5.9654
X4.2362Y-6.0126
X4.3543Y-5.9181
X4.3543Y-5.9654
X4.3543Y-6.0126
X4.2362Y-7.1583
X4.2362Y-7.2055
X4.2362Y-7.2528
X4.3543Y-7.1583
X4.3543Y-7.2055
X4.3543Y-7.2528
X2.7598Y-5.9181
X2.7598Y-5.9654
X2.7598Y-6.0126
X2.878Y-5.9181
X2.878Y-5.9654
X2.878Y-6.0126
X3.6378Y-6.3394
X3.6378Y-6.4575
X3.685Y-6.3394
X3.685Y-6.4575
X3.7323Y-6.3394
X3.7323Y-6.4575
X2.7598Y-3.0244
X2.7598Y-3.0717
X2.7598Y-3.1189
X2.878Y-3.0244
X2.878Y-3.0717
X2.878Y-3.1189
X2.7598Y-8.8118
X2.7598Y-8.8591
X2.7598Y-8.9063
X2.878Y-8.8118
X2.878Y-8.8591
X2.878Y-8.9063
X2.7598Y-7.1583
X2.7598Y-7.2055
X2.7598Y-7.2528
X2.878Y-7.1583
X2.878Y-7.2055
X2.878Y-7.2528
X7.189Y-5.9181
X7.189Y-5.9654
X7.189Y-6.0126
X7.3071Y-5.9181
X7.3071Y-5.9654
X7.3071Y-6.0126
X5.7126Y-5.9181
X5.7126Y-5.9654
X5.7126Y-6.0126
X5.8307Y-5.9181
X5.8307Y-5.9654
X5.8307Y-6.0126
X5.1142Y-6.3394
X5.1142Y-6.4575
X5.1614Y-6.3394
X5.1614Y-6.4575
X5.2087Y-6.3394
X5.2087Y-6.4575
X4.2362Y-8.8118
X4.2362Y-8.8591
X4.2362Y-8.9063
X4.3543Y-8.8118
X4.3543Y-8.8591
X4.3543Y-8.9063
X7.189Y-1.3709
X7.189Y-1.4181
X7.189Y-1.4654
X7.3071Y-1.3709
X7.3071Y-1.4181
X7.3071Y-1.4654
X5.7126Y-8.8118
X5.7126Y-8.8591
X5.7126Y-8.9063
X5.8307Y-8.8118
X5.8307Y-8.8591
X5.8307Y-8.9063
X5.7126Y-7.1583
X5.7126Y-7.2055
X5.7126Y-7.2528
X5.8307Y-7.1583
X5.8307Y-7.2055
X5.8307Y-7.2528
X7.189Y-4.2646
X7.189Y-4.3118
X7.189Y-4.3591
X7.3071Y-4.2646
X7.3071Y-4.3118
X7.3071Y-4.3591
X6.5906Y-3.4457
X6.5906Y-3.5638
X6.6378Y-3.4457
X6.6378Y-3.5638
X6.685Y-3.4457
X6.685Y-3.5638
X6.5906Y-6.3394
X6.5906Y-6.4575
X6.6378Y-6.3394
X6.6378Y-6.4575
X6.685Y-6.3394
X6.685Y-6.4575
T5
X2.6417Y-9.4693
X7.4193Y-0.4339
X2.6417Y-0.4339
T6
X7.1194Y-3.3681
X4.1666Y-6.2618
X5.9067Y-3.3681
X2.9539Y-6.2618
X4.1666Y-3.6516
X5.643Y-3.6516
X4.4303Y-3.6516
X4.4303Y-6.5453
X4.4303Y-9.1555
X2.9539Y-0.7579
X4.1666Y-9.1555
X5.9067Y-9.1555
X5.9067Y-6.2618
X2.9539Y-9.1555
X4.4303Y-3.3681
X4.4303Y-0.7579
X7.1194Y-9.1555
X5.643Y-3.3681
X4.1666Y-0.7579
X4.4303Y-6.2618
X7.1194Y-3.6516
X5.9067Y-0.7579
X7.1194Y-6.2618
X5.9067Y-6.5453
X5.9067Y-3.6516
X5.643Y-6.5453
X2.9539Y-3.6516
X5.643Y-9.1555
X5.643Y-6.2618
X4.1666Y-6.5453
X4.1666Y-3.3681
X7.1194Y-6.5453
X2.9539Y-6.5453
X2.9539Y-3.3681
X7.1194Y-0.7579
X5.643Y-0.7579
T2
X6.9962Y-2.0536G85X6.9962Y-2.0261
G05
X6.9962Y-2.2741G85X6.9962Y-2.2465
G05
X7.0809Y-2.1717G85X7.0809Y-2.1284
G05
X4.0435Y-4.9473G85X4.0435Y-4.9198
G05
X4.0435Y-5.1678G85X4.0435Y-5.1402
G05
X4.1281Y-5.0654G85X4.1281Y-5.0221
G05
X6.9962Y-4.9473G85X6.9962Y-4.9198
G05
X6.9962Y-5.1678G85X6.9962Y-5.1402
G05
X7.0809Y-5.0654G85X7.0809Y-5.0221
G05
X5.5198Y-4.9473G85X5.5198Y-4.9198
G05
X5.5198Y-5.1678G85X5.5198Y-5.1402
G05
X5.6045Y-5.0654G85X5.6045Y-5.0221
G05
X6.9962Y-7.841G85X6.9962Y-7.8135
G05
X6.9962Y-8.0615G85X6.9962Y-8.0339
G05
X7.0809Y-7.9591G85X7.0809Y-7.9158
G05
X4.0435Y-2.0536G85X4.0435Y-2.0261
G05
X4.0435Y-2.2741G85X4.0435Y-2.2465
G05
X4.1281Y-2.1717G85X4.1281Y-2.1284
G05
X5.5198Y-7.841G85X5.5198Y-7.8135
G05
X5.5198Y-8.0615G85X5.5198Y-8.0339
G05
X5.6045Y-7.9591G85X5.6045Y-7.9158
G05
X4.0435Y-7.841G85X4.0435Y-7.8135
G05
X4.0435Y-8.0615G85X4.0435Y-8.0339
G05
X4.1281Y-7.9591G85X4.1281Y-7.9158
G05
X5.5198Y-2.0536G85X5.5198Y-2.0261
G05
X5.5198Y-2.2741G85X5.5198Y-2.2465
G05
X5.6045Y-2.1717G85X5.6045Y-2.1284
G05
T3
X4.1758Y-2.0188G85X4.1758Y-2.0215
G05
X4.1758Y-2.2786G85X4.1758Y-2.2814
G05
X5.6521Y-4.9125G85X5.6521Y-4.9152
G05
X5.6521Y-5.1723G85X5.6521Y-5.1751
G05
X4.1758Y-4.9125G85X4.1758Y-4.9152
G05
X4.1758Y-5.1723G85X4.1758Y-5.1751
G05
X7.1285Y-2.0188G85X7.1285Y-2.0215
G05
X7.1285Y-2.2786G85X7.1285Y-2.2814
G05
X7.1285Y-7.8062G85X7.1285Y-7.8089
G05
X7.1285Y-8.066G85X7.1285Y-8.0688
G05
X4.1758Y-7.8062G85X4.1758Y-7.8089
G05
X4.1758Y-8.066G85X4.1758Y-8.0688
G05
X5.6521Y-2.0188G85X5.6521Y-2.0215
G05
X5.6521Y-2.2786G85X5.6521Y-2.2814
G05
X5.6521Y-7.8062G85X5.6521Y-7.8089
G05
X5.6521Y-8.066G85X5.6521Y-8.0688
G05
X7.1285Y-4.9125G85X7.1285Y-4.9152
G05
X7.1285Y-5.1723G85X7.1285Y-5.1751
G05
T0
M30
